<?xml version="1.0" encoding="UTF-8" standalone="no"?>
<!-- Created with Inkscape (http://www.inkscape.org/) -->
<svg xmlns:dc="http://purl.org/dc/elements/1.1/" xmlns:cc="http://creativecommons.org/ns#" xmlns:rdf="http://www.w3.org/1999/02/22-rdf-syntax-ns#" xmlns:svg="http://www.w3.org/2000/svg" xmlns="http://www.w3.org/2000/svg" xmlns:sodipodi="http://sodipodi.sourceforge.net/DTD/sodipodi-0.dtd" xmlns:inkscape="http://www.inkscape.org/namespaces/inkscape" id="svg2" version="1.1" inkscape:version="0.48.5 r10040" width="91.266251" height="145.95401" xml:space="preserve" sodipodi:docname="The_historic_olympic_collection_style_guide.pdf"><metadata id="metadata8"><rdf:RDF><cc:Work rdf:about=""><dc:format>image/svg+xml</dc:format><dc:type rdf:resource="http://purl.org/dc/dcmitype/StillImage"/><dc:title/></cc:Work></rdf:RDF></metadata><defs id="defs6"><clipPath clipPathUnits="userSpaceOnUse" id="clipPath24"><path d="m 278.34,307.31 79.073,0 0,109.535 -79.073,0 0,-109.535 z" id="path26" inkscape:connector-curvature="0"/></clipPath><clipPath clipPathUnits="userSpaceOnUse" id="clipPath1718"><path d="m 283.392,101.252 68.521,0 0,117.96 -68.521,0 0,-117.96 z" id="path1720" inkscape:connector-curvature="0"/></clipPath><clipPath clipPathUnits="userSpaceOnUse" id="clipPath3210"><path d="m 678.173,303.746 73.013,0 0,116.763 -73.013,0 0,-116.763 z" id="path3212" inkscape:connector-curvature="0"/></clipPath><clipPath clipPathUnits="userSpaceOnUse" id="clipPath3406"><path d="m 0,595.276 841.89,0 L 841.89,0 0,0 0,595.276 z" id="path3408" inkscape:connector-curvature="0"/></clipPath></defs><sodipodi:namedview pagecolor="#ffffff" bordercolor="#666666" borderopacity="1" objecttolerance="10" gridtolerance="10" guidetolerance="10" inkscape:pageopacity="0" inkscape:pageshadow="2" inkscape:window-width="1280" inkscape:window-height="659" id="namedview4" showgrid="false" inkscape:object-nodes="true" inkscape:object-paths="true" fit-margin-top="0" fit-margin-left="0" fit-margin-right="0" fit-margin-bottom="0" inkscape:zoom="1.2686553" inkscape:cx="-104.04491" inkscape:cy="108.66776" inkscape:window-x="0" inkscape:window-y="0" inkscape:window-maximized="1" inkscape:current-layer="g10"/><g id="g10" inkscape:groupmode="layer" inkscape:label="The_historic_olympic_collection_style_guide" transform="matrix(1.25,0,0,-1.25,-847.71625,525.63651)"><rect style="opacity:0.95;fill:#ffffff;fill-opacity:1;fill-rule:evenodd;stroke:none" id="rect6429" width="215.14372" height="228.52054" x="800.93658" y="189.51465" transform="matrix(0.33701657,0,0,-0.40267717,408.5053,496.82243)"/><g id="g3206"><g id="g3208" clip-path="url(#clipPath3210)"><g id="g3214" transform="translate(690.4332,332.0942)"><path d="m 0,0 c 0.009,0.283 -0.451,0.199 -0.451,0.199 l -1.661,0 c -0.264,0 -0.207,0.387 -0.207,0.387 0,0 0.013,1.183 0.013,1.386 0,0.203 0.14,0.14 0.14,0.14 l 0.524,0 c 0.216,0 0.216,0.216 0.216,0.216 0,0 0.036,0.803 0.045,1.056 0.012,0.331 0.451,0.361 0.443,0.009 L -0.957,2.328 c 0,0 -0.105,-0.216 0.22,-0.216 0.334,0 0.686,-0.009 0.686,-0.009 l 0,0.44 c 0,0.487 0.005,0.99 0.014,1.279 0.009,0.283 -0.393,0.237 -0.393,0.237 0,0 -1.7,0.002 -1.754,0.002 -0.264,0 -0.207,0.388 -0.207,0.388 0,0 0.013,1.182 0.013,1.385 0,0.203 0.14,0.14 0.14,0.14 l 0.523,0 c 0.217,0 0.217,0.216 0.217,0.216 0,0 0.036,0.803 0.045,1.056 0.012,0.331 0.451,0.361 0.442,0.009 L -1.029,6.19 c 0,0 -0.105,-0.216 0.22,-0.216 0.334,0 0.677,0 0.677,0 0,0 0.036,1.687 0.045,1.976 0.009,0.283 -0.451,0.199 -0.451,0.199 l -1.66,0 c -0.264,0 -0.208,0.388 -0.208,0.388 0,0 0.014,1.182 0.014,1.385 0,0.203 0.139,0.14 0.139,0.14 l 0.524,0 c 0.216,0 0.216,0.216 0.216,0.216 0,0 0.037,0.803 0.046,1.056 0.011,0.331 0.451,0.361 0.442,0.009 l -0.018,-1.065 c 0,0 -0.105,-0.216 0.219,-0.216 l 0.514,0 c 0,0 0.223,-0.036 0.232,0.442 0.006,0.286 0.004,1.09 -0.009,1.471 -0.009,0.261 -0.436,0.158 -0.436,0.158 l -1.661,0 c -0.264,0 -0.207,0.388 -0.207,0.388 0,0 0.013,1.182 0.013,1.385 0,0.203 0.14,0.14 0.14,0.14 l 0.523,0 c 0.217,0 0.217,0.216 0.217,0.216 0,0 0.036,0.803 0.045,1.056 0.012,0.331 0.451,0.361 0.442,0.009 l -0.018,-1.065 c 0,0 -0.105,-0.216 0.22,-0.216 l 0.513,0 c 0,0 0.224,-0.036 0.233,0.442 0.009,0.487 -0.009,1.128 0,1.417 0.009,0.283 -0.451,0.198 -0.451,0.198 l -1.661,0 c -0.264,0 -0.207,0.388 -0.207,0.388 0,0 0.013,1.182 0.013,1.385 0,0.203 0.14,0.14 0.14,0.14 l 0.523,0 c 0.217,0 0.217,0.217 0.217,0.217 0,0 0.036,0.803 0.045,1.055 0.012,0.332 0.451,0.361 0.442,0.009 L -1.02,18.233 c 0,0 -0.105,-0.217 0.22,-0.217 l 0.513,0 c 0,0 0.18,-0.02 0.189,0.458 0.009,0.487 -0.034,1.584 -0.034,1.584 0,0 -2.043,0.006 -2.097,0.006 -0.264,0 -0.207,0.389 -0.207,0.389 0,0 0.013,1.182 0.013,1.385 0,0.203 0.14,0.139 0.14,0.139 l 0.523,0 c 0.217,0 0.217,0.217 0.217,0.217 0,0 0.036,0.803 0.045,1.056 0.012,0.331 0.451,0.361 0.442,0.009 l -0.033,-1.196 0.993,0 0.018,1.724 c 0,0 -0.054,0.122 -0.487,0.108 -0.656,-0.02 -1.75,0.004 -1.781,0.004 -0.264,0 -0.208,0.389 -0.208,0.389 0,0 0.014,1.182 0.014,1.385 0,0.203 0.14,0.14 0.14,0.14 l 0.523,0 c 0.217,0 0.217,0.216 0.217,0.216 0,0 0.036,0.803 0.045,1.056 0.011,0.331 0.451,0.361 0.442,0.009 l -0.018,-1.065 c 0,0 -0.105,-0.216 0.219,-0.216 0,0 0.217,-0.005 0.443,-0.005 0.226,0 0.316,0.009 0.316,0.009 l 0,2.017 c -0.225,-0.008 -2.016,-0.013 -2.07,-0.013 -0.264,0 -0.207,0.388 -0.207,0.388 0,0 0.013,1.182 0.013,1.385 0,0.203 0.14,0.139 0.14,0.139 l 0.523,0 c 0.217,0 0.217,0.217 0.217,0.217 0,0 0.036,0.803 0.045,1.056 0.012,0.331 0.451,0.361 0.442,0.009 l -0.006,-1.272 0.903,0 c 0.032,0.488 -0.004,1.437 0,1.597 0.009,0.379 -0.397,0.279 -0.397,0.279 0,0 -1.742,0.019 -1.796,0.019 -0.264,0 -0.208,0.388 -0.208,0.388 0,0 0.014,1.182 0.014,1.385 0,0.203 0.14,0.14 0.14,0.14 l 0.523,0 c 0.217,0 0.217,0.216 0.217,0.216 0,0 0.036,0.803 0.045,1.056 0.012,0.331 0.451,0.361 0.442,0.009 l -0.018,-1.065 c 0,0 -0.105,-0.216 0.22,-0.216 0.334,0 0.43,0.018 0.43,0.018 l 0,1.919 c 0,0.089 -1.902,0.048 -1.956,0.048 -0.264,0 -0.208,0.388 -0.208,0.388 0,0 0.014,1.182 0.014,1.385 0,0.203 0.14,0.14 0.14,0.14 l 0.523,0 c 0.217,0 0.217,0.216 0.217,0.216 0,0 0.036,0.803 0.045,1.056 0.012,0.331 0.451,0.361 0.442,0.009 l -0.018,-1.065 c 0,0 -0.105,-0.216 0.22,-0.216 0.333,0 0.624,0.009 0.624,0.009 l 0.001,1.872 c -0.022,0.283 -0.451,0.199 -0.451,0.199 l -1.661,0 c -0.264,0 -0.207,0.388 -0.207,0.388 0,0 0.013,1.182 0.013,1.385 0,0.203 0.14,0.14 0.14,0.14 l 0.523,0 c 0.217,0 0.217,0.216 0.217,0.216 0,0 0.036,0.804 0.045,1.056 0.012,0.331 0.451,0.361 0.442,0.009 l -0.018,-1.065 c 0,0 -0.105,-0.216 0.22,-0.216 0.334,0 0.738,-0.005 0.738,-0.005 l 0,1.76 c -0.003,0.283 -0.509,0.207 -0.509,0.207 l -1.66,0 c -0.264,0 -0.208,0.388 -0.208,0.388 0,0 0.014,1.182 0.014,1.386 0,0.203 0.14,0.14 0.14,0.14 l 0.523,0 c 0.217,0 0.217,0.216 0.217,0.216 0,0 0.036,0.803 0.045,1.056 0.012,0.331 0.451,0.361 0.442,0.009 L -1.57,45.534 c 0,0 -0.105,-0.217 0.219,-0.216 0.353,0 0.75,-0.011 0.75,-0.011 l 0,1.741 c -0.002,0.283 -0.442,0.21 -0.442,0.21 0,0 -1.628,0.009 -1.682,0.009 -0.264,0 -0.208,0.388 -0.208,0.388 0,0 0.014,1.182 0.014,1.385 0,0.203 0.14,0.14 0.14,0.14 l 0.523,0 c 0.217,0 0.217,0.216 0.217,0.216 0,0 0.036,0.803 0.045,1.056 0.012,0.331 0.451,0.361 0.442,0.009 L -1.57,49.396 c 0,0 -0.105,-0.216 0.219,-0.216 0.334,0 0.75,-0.011 0.75,-0.011 l 0,1.913 c 0,0 -0.018,0.11 -0.433,0.115 -0.61,0.008 -1.653,0.004 -1.691,0.004 -0.264,0 -0.208,0.388 -0.208,0.388 0,0 0.014,1.182 0.014,1.385 0,0.203 0.14,0.14 0.14,0.14 l 0.523,0 c 0.217,0 0.217,0.217 0.217,0.217 0,0 0.036,0.803 0.045,1.055 0.012,0.332 0.451,0.361 0.442,0.009 L -1.57,53.331 c 0,0 -0.105,-0.217 0.219,-0.217 0.334,0 0.752,-0.002 0.752,-0.002 l 0.016,1.933 c 0.004,0.284 -0.451,0.206 -0.451,0.206 0,0 -1.606,-0.007 -1.661,-0.007 -0.264,0 -0.207,0.388 -0.207,0.388 0,0 0.013,1.182 0.013,1.385 0,0.203 0.14,0.14 0.14,0.14 l 0.524,0 c 0.216,0 0.216,0.216 0.216,0.216 0,0 0.036,0.804 0.045,1.056 0.012,0.332 0.451,0.361 0.442,0.009 L -1.54,57.373 c 0,0 -0.067,-0.221 0.257,-0.221 0.334,0 0.684,0.014 0.684,0.014 l 0.007,1.719 0.006,0.275 c 0.009,0.253 -0.452,0.199 -0.452,0.199 l -1.66,0 c -0.264,0 -0.208,0.388 -0.208,0.388 0,0 0.014,1.182 0.014,1.385 0,0.203 0.14,0.14 0.14,0.14 l 0.523,0 c 0.217,0 0.217,0.216 0.217,0.216 0,0 0.036,0.804 0.045,1.056 0.012,0.331 0.451,0.361 0.442,0.009 l -0.018,-1.065 c 0,0 -0.105,-0.216 0.22,-0.216 0.334,0 0.722,0.009 0.722,0.009 0,0 -0.005,1.279 0,1.64 0.003,0.283 -0.433,0.199 -0.433,0.199 0,0 -1.57,-0.007 -1.625,-0.007 -0.264,0 -0.207,0.388 -0.207,0.388 0,0 0.013,1.182 0.013,1.385 0,0.203 0.14,0.14 0.14,0.14 l 0.524,0 c 0.216,0 0.216,0.216 0.216,0.216 0,0 0.036,0.803 0.045,1.056 0.012,0.331 0.451,0.361 0.443,0.009 l -0.019,-1.065 c 0,0 -0.105,-0.216 0.22,-0.216 0.334,0 0.739,-0.003 0.739,-0.003 l 0.007,1.753 -0.244,0.054 c -0.388,0.127 -1.227,0.217 -1.624,0.181 -0.397,-0.036 -0.433,0.18 -0.433,0.18 0,0 -0.036,1.047 -0.036,1.48 0,0.255 0.613,0.217 1.047,0.109 0.433,-0.109 0.794,-0.181 0.794,-0.181 0,0 -0.109,1.516 0.036,1.769 0.176,0.309 1.119,0.108 1.299,0.036 0.181,-0.072 0.217,0.108 0.217,0.108 l 0.036,0.469 c 0,0 1.155,0.506 1.588,0.65 0.433,0.144 1.083,-0.397 1.119,-0.541 0.036,-0.145 0.181,-0.397 0.181,-0.397 l 5.143,-2.698 0,-0.84 -4.331,2.301 -0.019,-1.326 c 0,0 2.239,-1.11 3.177,-1.624 0.641,-0.352 1.155,-0.614 1.155,-0.614 L 9.289,7.526 c 0,0 0.072,-0.83 -0.181,-1.083 -0.252,-0.253 -0.577,0 -0.577,0 0,0 0.036,1.083 -0.072,1.155 C 8.35,7.67 7.195,7.634 7.195,7.634 l 0,-1.516 -1.407,0 C 4.958,6.118 2.447,5.349 2.447,5.349 L 2.395,4.602 c 0,0 9.89,2.094 11.225,2.383 1.336,0.288 3.068,0.144 4.296,-0.181 1.227,-0.325 1.082,-0.541 1.01,-1.047 C 18.854,5.252 18.529,5.36 18.529,5.36 c 0,0 -0.216,0.072 -0.83,0.181 C 17.147,5.638 15.425,5.757 14.126,5.613 12.826,5.469 2.535,3.527 2.535,3.527 l 0,-1.904 c 0,0 5.996,0.886 9.425,1.427 3.429,0.542 5.703,0.217 6.569,0.108 0.574,-0.071 0.289,-1.624 0.289,-1.624 0,0 -0.036,-0.036 -0.722,0.108 C 17.41,1.787 15.333,1.699 14.703,1.715 14.187,1.728 2.575,0.054 2.575,0.054 l 0.014,-1.823 c 0,0 13.847,0.957 15.218,0.993 1.372,0.036 0.975,-0.722 0.975,-0.866 0,-0.145 0.036,-1.264 0.036,-1.264 0,-0.656 0.712,-0.64 0.758,0 0.036,0.506 0,1.589 0,1.589 0,1.299 0.866,1.299 0.866,1.299 0,0 7.003,3.032 9.529,4.331 2.527,1.3 3.321,0.434 3.321,0.434 l 20.286,-3.249 -10.396,-5.102996 17.326005,0 -5e-6,92.019996 -72.507,0 0,-92.02 9.722,0 c 0,0 0.008,1.547 0.008,1.75 0,0.203 0.139,0.14 0.139,0.14 l 0.524,0 c 0.216,0 0.216,0.217 0.216,0.217 0,0 0.036,0.803 0.046,1.056 0.011,0.331 0.451,0.361 0.442,0.009 L -0.92,-1.498 c 0,0 -0.105,-0.217 0.219,-0.217 0.334,0 0.65,0.001 0.65,0.001 0,0 0.039,-0.032 0.048,0.446 z" style="fill:#127bca;fill-opacity:1;fill-rule:nonzero;stroke:none" id="path3216" inkscape:connector-curvature="0" sodipodi:nodetypes="ccscscsccccscsccscscsccccscccscscsccccsccccscscsccccsccccscscsccccscccscscscccccccscscscccccsccscscscccccccscscsccccscsscscsccccscccscscsccccscccscscsccccccccscscsccccscccscscsccccscccscscsccccsccccscscsccccscccscscsccccscccscsccccccsccccccccccccccsccccccccccccccccccscccccccccccccscsccccsccc"/></g><g id="g3218" transform="translate(710.0092,335.5233)"><path d="m 0,0 -0.108,-2.815 10.666,4.872 c 0,0 1.137,0.813 3.736,0.379 2.599,-0.433 20.195,-3.844 20.195,-3.844 l 0,0.704 -20.141,4.765 c 0,0 -1.083,1.083 -3.898,-0.379 L 0,0 z" style="fill:#ffffff;fill-opacity:1;fill-rule:nonzero;stroke:none" id="path3220" inkscape:connector-curvature="0"/></g><g id="g3222" transform="translate(697.3759,387.6629)"><path d="m 0,0 1.155,-0.736 0,6.865 L -0.072,6.858 0,0 z" style="fill:#127bca;fill-opacity:1;fill-rule:nonzero;stroke:none" id="path3224" inkscape:connector-curvature="0"/></g><g id="g3226" transform="translate(697.3398,379.6296)"><path d="m 0,0 1.119,-0.49 0,6.518 L 0.036,6.553 0,0 z" style="fill:#127bca;fill-opacity:1;fill-rule:nonzero;stroke:none" id="path3228" inkscape:connector-curvature="0"/></g><g id="g3230" transform="translate(697.6103,372.0631)"><path d="M 0,0 1.065,-0.28 1.155,6.129 -0.054,6.526 0,0 z" style="fill:#127bca;fill-opacity:1;fill-rule:nonzero;stroke:none" id="path3232" inkscape:connector-curvature="0"/></g><g id="g3234" transform="translate(697.5564,364.1309)"><path d="m 0,0 1.119,-0.252 0,6.424 L 0.036,6.5 0,0 z" style="fill:#127bca;fill-opacity:1;fill-rule:nonzero;stroke:none" id="path3236" inkscape:connector-curvature="0"/></g><g id="g3238" transform="translate(697.4841,356.3829)"><path d="M 0,0 1.209,-0.332 1.173,6.4 0,6.631 0,0 z" style="fill:#127bca;fill-opacity:1;fill-rule:nonzero;stroke:none" id="path3240" inkscape:connector-curvature="0"/></g><g id="g3242" transform="translate(697.5742,348.7052)"><path d="m 0,0 1.101,-0.334 0,6.749 L -0.054,6.526 0,0 z" style="fill:#127bca;fill-opacity:1;fill-rule:nonzero;stroke:none" id="path3244" inkscape:connector-curvature="0"/></g><g id="g3246" transform="translate(697.6824,341.1971)"><path d="m 0,0 1.065,-0.334 0,6.461 L -0.018,6.22 0,0 z" style="fill:#127bca;fill-opacity:1;fill-rule:nonzero;stroke:none" id="path3248" inkscape:connector-curvature="0"/></g><g id="g3250" transform="translate(687.3729,397.4007)"><path d="m 0,0 c -3.42,1.712 -5.768,5.247 -5.768,9.332 0,5.759 4.67,10.429 10.429,10.429 5.76,0 10.429,-4.67 10.429,-10.429 0,-2.564 -2.459,-6.727 -2.459,-6.727 L 11.072,3.44 c 0,0 2.296,3.62 2.296,5.892 0,4.808 -3.898,8.706 -8.707,8.706 -4.808,0 -8.706,-3.898 -8.706,-8.706 0,-3.419 1.97,-6.378 4.837,-7.802" style="fill:#ffffff;fill-opacity:1;fill-rule:nonzero;stroke:#127bca;stroke-width:0.108;stroke-linecap:butt;stroke-linejoin:miter;stroke-miterlimit:4;stroke-opacity:1;stroke-dasharray:none" id="path3252" inkscape:connector-curvature="0"/></g><g id="g3254" transform="translate(717.8238,396.7902)"><path d="m 0,0 c 4.216,1.338 7.271,5.283 7.271,9.942 0,5.76 -4.67,10.429 -10.429,10.429 -5.33,0 -9.726,-3.998 -10.353,-9.158 0.356,0.017 1.54,-0.238 1.701,-0.287 0.489,4.346 4.176,7.723 8.652,7.723 4.808,0 8.706,-3.899 8.706,-8.707 C 5.548,6.298 3.31,3.177 0.132,1.879 0.058,1.447 -0.042,0.952 0,0" style="fill:#ffffff;fill-opacity:1;fill-rule:nonzero;stroke:none" id="path3256" inkscape:connector-curvature="0"/></g><g id="g3258" transform="translate(717.8238,396.7902)"><path d="m 0,0 c 4.216,1.338 7.271,5.283 7.271,9.942 0,5.76 -4.67,10.429 -10.429,10.429 -5.33,0 -9.726,-3.998 -10.353,-9.158 0.356,0.017 1.54,-0.238 1.701,-0.287 0.489,4.346 4.176,7.723 8.652,7.723 4.808,0 8.706,-3.899 8.706,-8.707 C 5.548,6.298 3.31,3.177 0.132,1.879 0.058,1.447 -0.042,0.952 0,0 z" style="fill:none;stroke:#127bca;stroke-width:0.108;stroke-linecap:butt;stroke-linejoin:miter;stroke-miterlimit:4;stroke-opacity:1;stroke-dasharray:none" id="path3260" inkscape:connector-curvature="0"/></g><g id="g3262" transform="translate(715.1393,396.314)"><path d="m 0,0 c -0.157,-0.007 -0.315,-0.011 -0.474,-0.011 -5.26,0 -9.61,3.894 -10.326,8.956 0.313,-0.006 1.208,-0.173 1.829,-0.432 0.868,-3.892 4.343,-6.801 8.497,-6.801 0.156,0 0.312,0.004 0.466,0.012 C -0.024,1.407 -0.098,0.918 0,0" style="fill:#ffffff;fill-opacity:1;fill-rule:nonzero;stroke:none" id="path3264" inkscape:connector-curvature="0"/></g><g id="g3266" transform="translate(715.1393,396.314)"><path d="m 0,0 c -0.157,-0.007 -0.315,-0.011 -0.474,-0.011 -5.26,0 -9.61,3.894 -10.326,8.956 0.313,-0.006 1.208,-0.173 1.829,-0.432 0.868,-3.892 4.343,-6.801 8.497,-6.801 0.156,0 0.312,0.004 0.466,0.012 C -0.024,1.407 -0.098,0.918 0,0 z" style="fill:none;stroke:#127bca;stroke-width:0.108;stroke-linecap:butt;stroke-linejoin:miter;stroke-miterlimit:4;stroke-opacity:1;stroke-dasharray:none" id="path3268" inkscape:connector-curvature="0"/></g><g id="g3270" transform="translate(728.7997,404.8247)"><path d="m 0,0 c 0.87,-3.891 4.344,-6.799 8.497,-6.799 4.809,0 8.707,3.898 8.707,8.707 0,4.808 -3.898,8.706 -8.707,8.706 -4.478,0 -8.167,-3.381 -8.652,-7.73 -0.306,0.115 -1.324,0.287 -1.7,0.295 0.627,5.16 5.023,9.158 10.352,9.158 5.76,0 10.429,-4.67 10.429,-10.429 0,-5.76 -4.669,-10.429 -10.429,-10.429 -5.263,0 -9.616,3.899 -10.327,8.966 C -1.504,0.428 -0.615,0.253 0,0" style="fill:#ffffff;fill-opacity:1;fill-rule:nonzero;stroke:none" id="path3272" inkscape:connector-curvature="0"/></g><g id="g3274" transform="translate(728.7997,404.8247)"><path d="m 0,0 c 0.87,-3.891 4.344,-6.799 8.497,-6.799 4.809,0 8.707,3.898 8.707,8.707 0,4.808 -3.898,8.706 -8.707,8.706 -4.478,0 -8.167,-3.381 -8.652,-7.73 -0.306,0.115 -1.324,0.287 -1.7,0.295 0.627,5.16 5.023,9.158 10.352,9.158 5.76,0 10.429,-4.67 10.429,-10.429 0,-5.76 -4.669,-10.429 -10.429,-10.429 -5.263,0 -9.616,3.899 -10.327,8.966 C -1.504,0.428 -0.615,0.253 0,0 z" style="fill:none;stroke:#127bca;stroke-width:0.108;stroke-linecap:butt;stroke-linejoin:miter;stroke-miterlimit:4;stroke-opacity:1;stroke-dasharray:none" id="path3276" inkscape:connector-curvature="0"/></g><g id="g3278" transform="translate(713.6774,398.6223)"><path d="m 0,0 c -0.71,5.068 -5.064,8.969 -10.328,8.969 -0.153,0 -0.305,-0.004 -0.457,-0.01 0.033,-0.388 0.049,-1.305 -0.015,-1.729 0.16,0.009 0.311,0.016 0.472,0.016 4.152,0 7.625,-2.906 8.496,-6.795 C -1.403,0.253 -0.332,0 0,0" style="fill:#ffffff;fill-opacity:1;fill-rule:nonzero;stroke:none" id="path3280" inkscape:connector-curvature="0"/></g><g id="g3282" transform="translate(713.6774,398.6223)"><path d="m 0,0 c -0.71,5.068 -5.064,8.969 -10.328,8.969 -0.153,0 -0.305,-0.004 -0.457,-0.01 0.033,-0.388 0.049,-1.305 -0.015,-1.729 0.16,0.009 0.311,0.016 0.472,0.016 4.152,0 7.625,-2.906 8.496,-6.795 C -1.403,0.253 -0.332,0 0,0 z" style="fill:none;stroke:#127bca;stroke-width:0.108;stroke-linecap:butt;stroke-linejoin:miter;stroke-miterlimit:4;stroke-opacity:1;stroke-dasharray:none" id="path3284" inkscape:connector-curvature="0"/></g><g id="g3286" transform="translate(699.3998,389.4009)"><path d="m 0,0 c 1.185,-0.605 2.528,-0.946 3.95,-0.946 4.475,0 8.161,3.376 8.651,7.72 0.437,-0.14 1.313,-0.272 1.702,-0.279 C 13.678,1.332 9.281,-2.668 3.95,-2.668 2.552,-2.668 1.218,-2.393 0,-1.894" style="fill:#ffffff;fill-opacity:1;fill-rule:nonzero;stroke:#127bca;stroke-width:0.108;stroke-linecap:butt;stroke-linejoin:miter;stroke-miterlimit:4;stroke-opacity:1;stroke-dasharray:none" id="path3288" inkscape:connector-curvature="0"/></g><g id="g3290" transform="translate(694.611,402.8561)"><path d="M 0,0 C 1.303,1.995 3.27,3.516 5.587,4.25 5.613,3.821 5.576,3.077 5.447,2.369 3.837,1.711 2.468,0.585 1.509,-0.841" style="fill:#ffffff;fill-opacity:1;fill-rule:nonzero;stroke:#127bca;stroke-width:0.108;stroke-linecap:butt;stroke-linejoin:miter;stroke-miterlimit:4;stroke-opacity:1;stroke-dasharray:none" id="path3292" inkscape:connector-curvature="0"/></g><g id="g3294" transform="translate(736.334,395.8959)"><path d="m 0,0 c -0.625,-5.162 -5.022,-9.163 -10.353,-9.163 -5.759,0 -10.429,4.67 -10.429,10.429 0,4.66 3.056,8.606 7.274,9.943 0.058,-0.477 -0.031,-1.593 -0.13,-1.878 -3.166,-1.304 -5.422,-4.429 -5.422,-8.065 0,-4.808 3.899,-8.707 8.707,-8.707 4.475,0 8.161,3.376 8.651,7.719 C -1.466,0.196 -0.573,0.016 0,0" style="fill:#ffffff;fill-opacity:1;fill-rule:nonzero;stroke:none" id="path3296" inkscape:connector-curvature="0"/></g><g id="g3298" transform="translate(736.334,395.8959)"><path d="m 0,0 c -0.625,-5.162 -5.022,-9.163 -10.353,-9.163 -5.759,0 -10.429,4.67 -10.429,10.429 0,4.66 3.056,8.606 7.274,9.943 0.058,-0.477 -0.031,-1.593 -0.13,-1.878 -3.166,-1.304 -5.422,-4.429 -5.422,-8.065 0,-4.808 3.899,-8.707 8.707,-8.707 4.475,0 8.161,3.376 8.651,7.719 C -1.466,0.196 -0.573,0.016 0,0 z" style="fill:none;stroke:#127bca;stroke-width:0.108;stroke-linecap:butt;stroke-linejoin:miter;stroke-miterlimit:4;stroke-opacity:1;stroke-dasharray:none" id="path3300" inkscape:connector-curvature="0"/></g><g id="g3302" transform="translate(725.5199,405.8566)"><path d="m 0,0 c 0.153,0.008 0.306,0.012 0.461,0.012 4.155,0 7.629,-2.91 8.498,-6.802 0.373,-0.158 1.281,-0.396 1.83,-0.445 -0.71,5.069 -5.063,8.97 -10.328,8.97 -0.157,0 -0.314,-0.004 -0.469,-0.011 0.057,-0.428 0.057,-1.282 0,-1.724" style="fill:#ffffff;fill-opacity:1;fill-rule:nonzero;stroke:#127bca;stroke-width:0.108;stroke-linecap:butt;stroke-linejoin:miter;stroke-miterlimit:4;stroke-opacity:1;stroke-dasharray:none" id="path3304" inkscape:connector-curvature="0"/></g><g id="g3306" transform="translate(678.1729,317.3976)"><path d="M 0,0 C 0.355,0 0.568,0.238 0.943,0.753 L 2.92,3.474 0.994,7.002 C 0.619,7.689 0.365,7.86 0.091,7.9 l 0,0.608 3.823,0 0,-0.608 C 3.519,7.847 3.042,7.808 3.042,7.411 3.042,7.226 3.164,6.989 3.357,6.632 l 0.791,-1.44 1.074,1.532 c 0.284,0.397 0.386,0.581 0.386,0.74 0,0.304 -0.446,0.396 -0.852,0.436 l 0,0.608 2.474,0 0,-0.608 C 6.825,7.86 6.46,7.424 6.155,7.002 L 4.462,4.663 6.45,0.885 C 6.804,0.212 7.139,0 7.403,0 l 0,-0.608 -3.783,0 0,0.608 c 0.659,0.053 0.933,0.092 0.933,0.423 0,0.198 -0.121,0.409 -0.314,0.739 L 3.255,2.999 1.835,0.964 C 1.694,0.766 1.562,0.568 1.562,0.356 1.562,0.145 1.835,0 2.474,0 l 0,-0.608 L 0,-0.608 0,0 z" style="fill:#127bca;fill-opacity:1;fill-rule:nonzero;stroke:none" id="path3308" inkscape:connector-curvature="0"/></g><g id="g3310" transform="translate(687.0359,324.2407)"><path d="m 0,0 c -0.274,0.951 -0.537,1.057 -0.913,1.057 l 0,0.608 3.712,0 0,-0.608 c -0.517,0 -0.893,-0.066 -0.893,-0.449 0,-0.304 0.112,-0.7 0.213,-1.097 l 1.288,-4.822 0.02,0 1.349,4.849 c 0.091,0.33 0.203,0.674 0.203,1.043 0,0.423 -0.314,0.476 -0.903,0.476 l 0,0.608 2.292,0 0,-0.608 C 6.034,1.057 5.719,0.833 5.506,0.093 l -2.281,-7.755 -0.974,0 L 0,0 z" style="fill:#127bca;fill-opacity:1;fill-rule:nonzero;stroke:none" id="path3312" inkscape:connector-curvature="0"/></g><g id="g3314" transform="translate(696.4735,321.4443)"><path d="m 0,0 c 0,-2.906 1.453,-4.875 3.421,-4.875 1.969,0 3.422,1.969 3.422,4.875 0,2.576 -1.369,4.663 -3.422,4.663 C 1.369,4.663 0,2.576 0,0 m 2,-0.079 c 0,2.642 0.211,4.188 1.421,4.188 1.211,0 1.422,-1.546 1.422,-4.188 0,-2.642 -0.211,-4.188 -1.422,-4.188 C 2.211,-4.267 2,-2.721 2,-0.079" style="fill:#127bca;fill-opacity:1;fill-rule:nonzero;stroke:none" id="path3316" inkscape:connector-curvature="0"/></g><g id="g3318" transform="translate(704.5164,317.3887)"><path d="m 0,0 c 0.474,0.013 0.948,0.013 0.948,0.462 l 0,6.976 C 0.948,7.887 0.474,7.887 0,7.9 l 0,0.608 4.127,0 0,-0.608 C 3.085,7.873 2.821,7.873 2.821,7.438 l 0,-6.976 C 2.821,0.172 2.916,0 3.537,0 l 0.348,0 c 1.2,0 1.652,0.608 2.063,2.655 L 6.485,2.55 C 6.264,1.506 6.148,0.37 6.148,-0.608 L 0,-0.608 0,0 z" style="fill:#127bca;fill-opacity:1;fill-rule:nonzero;stroke:none" id="path3320" inkscape:connector-curvature="0"/></g><g id="g3322" transform="translate(712.6873,317.3887)"><path d="m 0,0 c 0.874,0.04 1.137,0.053 1.137,0.462 l 0,2.259 -2.053,4.228 C -1.126,7.398 -1.4,7.9 -1.769,7.9 l 0,0.608 3.959,0 0,-0.608 -0.127,0 C 1.642,7.9 1.274,7.728 1.274,7.332 1.274,7.121 1.4,6.83 1.484,6.645 L 2.821,3.58 4.074,6.737 C 4.158,6.936 4.221,7.134 4.221,7.358 4.221,7.742 3.832,7.9 3.327,7.9 l 0,0.608 2.463,0 0,-0.608 C 5.422,7.9 5.085,7.57 4.8,6.922 l -1.789,-4.201 0,-2.259 C 3.011,0.053 3.274,0.04 4.148,0 l 0,-0.608 L 0,-0.608 0,0 z" style="fill:#127bca;fill-opacity:1;fill-rule:nonzero;stroke:none" id="path3324" inkscape:connector-curvature="0"/></g><g id="g3326" transform="translate(725.7519,317.3887)"><path d="m 0,0 c 0.821,0.013 1.084,0.053 1.084,0.462 l 0,7.438 -0.021,0 -2.537,-8.508 -0.674,0 -2.463,8.508 -0.021,0 0,-6.804 c 0,-1.004 0.221,-1.096 1,-1.096 l 0,-0.608 -2.506,0 0,0.608 c 0.727,0 0.937,0.092 0.937,1.096 l 0,6.342 c 0,0.449 -0.368,0.449 -0.915,0.462 l 0,0.608 3.242,0 1.726,-5.932 1.78,5.932 3.242,0 0,-0.608 C 3.4,7.887 2.927,7.887 2.927,7.438 l 0,-6.976 C 2.927,0.013 3.4,0.013 3.874,0 l 0,-0.608 L 0,-0.608 0,0 z" style="fill:#127bca;fill-opacity:1;fill-rule:nonzero;stroke:none" id="path3328" inkscape:connector-curvature="0"/></g><g id="g3330" transform="translate(730.6681,316.7808)"><path d="m 0,0 3.906,0 0,0.608 C 3.085,0.621 2.821,0.621 2.821,1.07 l 0,2.933 C 3.095,3.95 3.39,3.937 3.758,3.937 c 1.6,0 2.664,1.083 2.664,2.576 0,2.008 -1.337,2.603 -2.79,2.603 L 0,9.116 0,8.508 C 0.474,8.495 0.948,8.495 0.948,8.045 l 0,-6.975 C 0.948,0.621 0.474,0.621 0,0.608 L 0,0 z m 2.821,8.178 c 0,0.277 0.127,0.33 0.348,0.33 l 0.095,0 c 0.926,0 1.221,-0.885 1.221,-1.995 0,-1.281 -0.506,-1.968 -1.264,-1.968 -0.157,0 -0.284,0.026 -0.4,0.066 l 0,3.567 z" style="fill:#127bca;fill-opacity:1;fill-rule:nonzero;stroke:none" id="path3332" inkscape:connector-curvature="0"/></g><g id="g3334" transform="translate(738.3217,317.3887)"><path d="M 0,0 C 0.737,0.013 1,0.013 1,0.462 L 1,7.438 C 1,7.887 0.737,7.887 0,7.9 l 0,0.608 3.874,0 0,-0.608 c -0.737,-0.013 -1,-0.013 -1,-0.462 l 0,-6.976 c 0,-0.449 0.263,-0.449 1,-0.462 l 0,-0.608 L 0,-0.608 0,0 z" style="fill:#127bca;fill-opacity:1;fill-rule:nonzero;stroke:none" id="path3336" inkscape:connector-curvature="0"/></g><g id="g3338" transform="translate(743.2483,316.7808)"><path d="m 0,0 2.453,0 0,0.608 -0.137,0 C 1.8,0.608 1.6,0.806 1.6,1.096 1.6,1.215 1.621,1.401 1.684,1.651 L 1.937,2.603 C 2,2.827 2.106,2.933 2.316,2.933 l 1.864,0 c 0.22,0 0.326,-0.066 0.4,-0.343 L 4.779,1.916 C 4.864,1.625 4.906,1.335 4.906,1.215 4.906,0.925 4.737,0.608 4.053,0.608 l -0.084,0 0,-0.608 3.969,0 0,0.608 C 7.59,0.647 7.148,0.819 6.906,1.559 l -2.579,7.874 -1.011,0 -2.168,-7.53 C 0.8,0.753 0.537,0.647 0,0.608 L 0,0 z M 4.085,4.161 C 4.137,4.003 4.18,3.845 4.18,3.765 4.18,3.593 4.053,3.541 3.937,3.541 l -1.505,0 c -0.116,0 -0.169,0.039 -0.169,0.158 0,0.066 0.043,0.212 0.095,0.41 l 0.8,2.919 0.927,-2.867 z" style="fill:#127bca;fill-opacity:1;fill-rule:nonzero;stroke:none" id="path3340" inkscape:connector-curvature="0"/></g><g id="g3342" transform="translate(683.061,304.5657)"><path d="m 0,0 c 0.472,0.013 0.848,0.013 0.848,0.462 l 0,3.263 c 0,0.106 -0.065,0.185 -0.15,0.185 l -2.286,0 c -0.086,0 -0.15,-0.079 -0.15,-0.185 l 0,-3.263 c 0,-0.449 0.375,-0.449 0.847,-0.462 l 0,-0.608 -3.724,0 0,0.608 c 0.483,0.013 0.966,0.013 0.966,0.462 l 0,6.976 c 0,0.449 -0.483,0.449 -0.966,0.462 l 0,0.608 3.724,0 0,-0.608 C -1.363,7.887 -1.738,7.887 -1.738,7.438 l 0,-2.722 c 0,-0.105 0.064,-0.198 0.15,-0.198 l 2.286,0 c 0.085,0 0.15,0.093 0.15,0.198 l 0,2.722 C 0.848,7.887 0.472,7.887 0,7.9 l 0,0.608 3.724,0 0,-0.608 C 3.241,7.887 2.758,7.887 2.758,7.438 l 0,-6.976 C 2.758,0.013 3.241,0.013 3.724,0 l 0,-0.608 L 0,-0.608 0,0 z" style="fill:#127bca;fill-opacity:1;fill-rule:nonzero;stroke:none" id="path3344" inkscape:connector-curvature="0"/></g><g id="g3346" transform="translate(689.7465,304.5657)"><path d="m 0,0 c 0.483,0.013 0.966,0.013 0.966,0.462 l 0,6.976 C 0.966,7.887 0.483,7.887 0,7.9 l 0,0.608 6.568,0 C 6.546,7.9 6.578,6.711 6.642,6.037 l -0.547,0 C 5.655,7.491 5.323,7.9 4.174,7.9 l -0.858,0 C 2.962,7.9 2.876,7.808 2.876,7.517 l 0,-2.708 c 0,-0.198 0.107,-0.291 0.44,-0.291 l 0.322,0 c 0.987,0 1.051,0.595 1.127,1.282 l 0.525,0 C 5.215,5.152 5.215,3.25 5.29,2.457 l -0.547,0 C 4.668,3.382 4.614,3.91 3.638,3.91 l -0.322,0 c -0.333,0 -0.44,-0.105 -0.44,-0.29 l 0,-3.237 C 2.876,0.04 3.134,0 3.52,0 L 4.196,0 C 5.505,0 6.041,1.466 6.385,2.365 L 6.964,2.285 C 6.825,1.506 6.675,0.304 6.642,-0.608 L 0,-0.608 0,0 z" style="fill:#127bca;fill-opacity:1;fill-rule:nonzero;stroke:none" id="path3348" inkscape:connector-curvature="0"/></g><g id="g3350" transform="translate(699.855,304.5657)"><path d="m 0,0 c 0.483,0.013 0.966,0.013 0.966,0.462 l 0,6.976 C 0.966,7.887 0.483,7.887 0,7.9 l 0,0.608 4.207,0 0,-0.608 C 3.144,7.873 2.876,7.873 2.876,7.438 l 0,-6.976 C 2.876,0.172 2.973,0 3.606,0 L 3.96,0 C 5.183,0 5.644,0.608 6.063,2.655 L 6.61,2.55 C 6.385,1.506 6.267,0.37 6.267,-0.608 L 0,-0.608 0,0 z" style="fill:#127bca;fill-opacity:1;fill-rule:nonzero;stroke:none" id="path3352" inkscape:connector-curvature="0"/></g><g id="g3354" transform="translate(710.2104,306.772)"><path d="m 0,0 c 0.537,-1.665 1.255,-2.418 2.2,-2.418 0.73,0 1.47,0.41 1.47,1.599 0,0.753 -0.354,1.096 -1.159,1.36 l -1.309,0.45 c -0.655,0.224 -1.781,0.845 -1.781,2.536 0,1.44 0.719,2.986 2.886,2.986 0.429,0 0.805,-0.04 1.127,-0.08 0.322,-0.052 0.59,-0.092 0.783,-0.092 l 0.279,0 c 0,-0.885 0.065,-1.757 0.151,-2.629 L 4.035,3.633 C 3.799,4.796 3.187,5.826 2.05,5.826 1.341,5.826 0.558,5.456 0.558,4.412 0.558,3.699 0.955,3.329 1.599,3.118 L 3.026,2.642 c 1.277,-0.436 1.91,-1.162 1.91,-2.735 0,-2.1 -1.309,-2.933 -2.908,-2.933 -0.322,0 -0.74,0.053 -1.309,0.186 -0.408,0.092 -0.848,0.171 -1.148,0.171 0,0.7 -0.097,1.889 -0.225,2.576 L 0,0 z" style="fill:#127bca;fill-opacity:1;fill-rule:nonzero;stroke:none" id="path3356" inkscape:connector-curvature="0"/></g><g id="g3358" transform="translate(718.3984,304.5657)"><path d="m 0,0 c 0.751,0.013 1.019,0.013 1.019,0.462 l 0,6.976 C 1.019,7.887 0.751,7.887 0,7.9 l 0,0.608 3.949,0 0,-0.608 C 3.198,7.887 2.93,7.887 2.93,7.438 l 0,-6.976 C 2.93,0.013 3.198,0.013 3.949,0 l 0,-0.608 L 0,-0.608 0,0 z" style="fill:#127bca;fill-opacity:1;fill-rule:nonzero;stroke:none" id="path3360" inkscape:connector-curvature="0"/></g><g id="g3362" transform="translate(725.4057,304.5657)"><path d="m 0,0 c 0.74,0 0.955,0.092 0.955,1.03 l 0,6.236 C 0.955,7.873 0.558,7.9 0.021,7.9 l 0,0.608 2.726,0 3.541,-6.13 0.022,0 0,4.478 C 6.31,7.873 6.106,7.9 5.301,7.9 l 0,0.608 2.468,0 0,-0.608 c -0.526,0 -0.88,0 -0.88,-0.555 l 0,-8.111 -0.998,0 -4.335,7.437 -0.022,0 0,-5.575 C 1.534,0 1.76,0 2.65,0 l 0,-0.608 -2.65,0 L 0,0 z" style="fill:#127bca;fill-opacity:1;fill-rule:nonzero;stroke:none" id="path3364" inkscape:connector-curvature="0"/></g><g id="g3366" transform="translate(736.126,304.5657)"><path d="m 0,0 c 0.483,0.013 0.966,0.013 0.966,0.462 l 0,6.976 C 0.966,7.887 0.483,7.887 0,7.9 l 0,0.608 3.756,0 0,-0.608 C 3.08,7.887 2.876,7.887 2.876,7.438 l 0,-3.277 c 0,-0.039 0.032,-0.066 0.15,-0.066 0.108,0 0.215,0.079 0.344,0.212 L 5.752,7.081 C 5.913,7.266 5.967,7.398 5.967,7.543 5.967,7.887 5.655,7.9 5.151,7.9 l 0,0.608 2.607,0 0,-0.608 C 7.372,7.9 7.05,7.636 6.761,7.305 L 4.614,4.861 7.265,0.647 C 7.63,0.079 7.812,0 8.091,0 l 0,-0.608 -2.447,0 C 5.537,-0.291 5.28,0.225 4.979,0.727 L 3.294,3.567 C 3.198,3.725 3.112,3.778 3.016,3.778 2.908,3.778 2.876,3.752 2.876,3.686 l 0,-3.224 C 2.876,0.013 3.23,0.013 3.799,0 l 0,-0.608 L 0,-0.608 0,0 z" style="fill:#127bca;fill-opacity:1;fill-rule:nonzero;stroke:none" id="path3368" inkscape:connector-curvature="0"/></g><g id="g3370" transform="translate(746.9431,304.5657)"><path d="m 0,0 c 0.751,0.013 1.019,0.013 1.019,0.462 l 0,6.976 C 1.019,7.887 0.751,7.887 0,7.9 l 0,0.608 3.949,0 0,-0.608 C 3.198,7.887 2.929,7.887 2.929,7.438 l 0,-6.976 C 2.929,0.013 3.198,0.013 3.949,0 l 0,-0.608 L 0,-0.608 0,0 z" style="fill:#127bca;fill-opacity:1;fill-rule:nonzero;stroke:none" id="path3372" inkscape:connector-curvature="0"/></g><g id="g3374" transform="translate(713.591,357.7039)"><path d="M 0,0 0,0.343 C 1.147,0.37 1.52,0.528 1.52,1.625 l 0,4.954 C 1.52,7.187 1.327,7.385 1.023,7.385 0.65,7.385 0.276,7.213 0,7.081 l -0.138,0.291 3.151,1.823 0.249,0 0,-7.57 c 0,-1.097 0.373,-1.255 1.52,-1.282 L 4.782,0 0,0 z" style="fill:#ffffff;fill-opacity:1;fill-rule:nonzero;stroke:none" id="path3376" inkscape:connector-curvature="0"/></g><g id="g3378" transform="translate(719.7414,357.5453)"><path d="m 0,0 c 3.621,0.291 6.109,3.065 6.109,5.8 0,2.813 -1.893,3.553 -3.262,3.553 -1.783,0 -3.068,-1.268 -3.068,-2.959 0,-1.77 1.161,-2.827 2.778,-2.827 0.484,0 0.94,0.132 1.368,0.344 C 3.455,2.035 1.963,0.872 0,0.449 L 0,0 z m 3.068,4.28 c -0.995,0 -1.437,0.925 -1.437,2.233 0,1.255 0.359,2.312 1.313,2.312 0.954,0 1.313,-1.057 1.313,-2.312 C 4.257,5.8 4.188,5.165 4.119,4.624 3.842,4.465 3.566,4.28 3.068,4.28" style="fill:#ffffff;fill-opacity:1;fill-rule:nonzero;stroke:none" id="path3380" inkscape:connector-curvature="0"/></g><g id="g3382" transform="translate(731.6968,365.1813)"><path d="M 0,0 -3.193,0 -3.51,-1.004 c 1.879,-0.33 3.925,-1.348 3.925,-3.329 0,-1.982 -1.465,-3.303 -3.4,-3.303 -1.106,0 -2.018,0.185 -2.018,1.07 0,0.33 0.221,0.647 0.636,0.647 0.221,0 0.442,-0.092 0.677,-0.237 0.387,-0.251 0.954,-0.819 1.465,-0.819 0.76,0 1.368,0.687 1.368,1.717 0,1.955 -2.211,2.47 -3.842,2.748 l 1.272,4.016 3.842,0 L 0,0 z" style="fill:#ffffff;fill-opacity:1;fill-rule:nonzero;stroke:none" id="path3384" inkscape:connector-curvature="0"/></g><g id="g3386" transform="translate(739.2849,357.7039)"><path d="M 0,0 -5.722,0 -5.86,0.132 c 0.263,1.03 0.857,1.929 2.557,3.342 1.202,1.018 1.949,1.81 1.949,3.224 0,0.964 -0.305,1.823 -1.369,1.823 -0.857,0 -1.396,-0.727 -1.617,-1.625 -0.055,-0.225 -0.152,-0.357 -0.401,-0.357 -0.235,0 -0.76,0.212 -0.76,0.661 0,0.687 0.981,1.783 2.875,1.783 1.451,0 2.723,-0.634 2.723,-2.47 0,-1.48 -1.023,-2.074 -2.35,-2.999 -1.285,-0.885 -2.101,-1.823 -2.322,-2.51 l 3.538,0 c 0.553,0 0.83,0.092 1.12,0.806 L 0.47,1.744 0,0 z" style="fill:#ffffff;fill-opacity:1;fill-rule:nonzero;stroke:none" id="path3388" inkscape:connector-curvature="0"/></g></g></g></g></svg>