<?xml version="1.0" encoding="UTF-8" standalone="no"?>
<!-- Created with Inkscape (http://www.inkscape.org/) -->
<svg xmlns:dc="http://purl.org/dc/elements/1.1/" xmlns:cc="http://creativecommons.org/ns#" xmlns:rdf="http://www.w3.org/1999/02/22-rdf-syntax-ns#" xmlns:svg="http://www.w3.org/2000/svg" xmlns="http://www.w3.org/2000/svg" xmlns:sodipodi="http://sodipodi.sourceforge.net/DTD/sodipodi-0.dtd" xmlns:inkscape="http://www.inkscape.org/namespaces/inkscape" id="svg2" version="1.1" inkscape:version="0.48.5 r10040" width="79.570747" height="131.64813" xml:space="preserve" sodipodi:docname="Logo JO d'été - Melbourne 1956.svg"><metadata id="metadata8"><rdf:RDF><cc:Work rdf:about=""><dc:format>image/svg+xml</dc:format><dc:type rdf:resource="http://purl.org/dc/dcmitype/StillImage"/></cc:Work></rdf:RDF></metadata><defs id="defs6"><clipPath clipPathUnits="userSpaceOnUse" id="clipPath24"><path d="m 284.962,307.49 65.831,0 0,109.177 -65.831,0 0,-109.177 z" id="path26" inkscape:connector-curvature="0"/></clipPath><clipPath clipPathUnits="userSpaceOnUse" id="clipPath428"><path d="m 682.627,309.469 63.657,0 0,105.319 -63.657,0 0,-105.319 z" id="path430" inkscape:connector-curvature="0"/></clipPath><clipPath clipPathUnits="userSpaceOnUse" id="clipPath1020"><path d="m 0,595.276 841.89,0 L 841.89,0 0,0 0,595.276 z" id="path1022" inkscape:connector-curvature="0"/></clipPath></defs><sodipodi:namedview pagecolor="#ffffff" bordercolor="#666666" borderopacity="1" objecttolerance="10" gridtolerance="10" guidetolerance="10" inkscape:pageopacity="0" inkscape:pageshadow="2" inkscape:window-width="1280" inkscape:window-height="659" id="namedview4" showgrid="false" fit-margin-top="0" fit-margin-left="0" fit-margin-right="0" fit-margin-bottom="0" inkscape:zoom="2.5373105" inkscape:cx="126.41149" inkscape:cy="66.371279" inkscape:window-x="0" inkscape:window-y="0" inkscape:window-maximized="1" inkscape:current-layer="g10"/><g id="g10" inkscape:groupmode="layer" inkscape:label="The_historic_olympic_collection_style_guide" transform="matrix(1.25,0,0,-1.25,-853.28375,518.48438)"><g id="g640" transform="translate(745.9236,341.2085)" style="fill:#ffffff"><path d="m 0,0 c 0,-17.33 -14.089,-31.38 -31.469,-31.38 -17.379,0 -31.468,14.05 -31.468,31.38 l 0,41.839 c 0,17.331 14.089,31.38 31.468,31.38 C -14.089,73.219 0,59.17 0,41.839 L 0,0 z" style="fill:#ffffff;stroke:#108449;stroke-width:0.72000003000000001;stroke-linecap:butt;stroke-linejoin:miter;stroke-miterlimit:4;stroke-opacity:1;stroke-dasharray:none" id="path642" inkscape:connector-curvature="0"/></g><g id="g432" transform="translate(692.4955,328.3274)"><path d="m 0,0 c -0.276,-0.245 -0.462,-0.652 -0.396,-0.9 l 0.06,-0.201 c -0.035,-0.074 -0.201,-0.154 -0.258,-0.11 -0.114,0.276 -0.258,0.55 -0.396,0.836 -0.126,0.262 -0.257,0.559 -0.406,0.832 0.003,0.087 0.166,0.173 0.245,0.139 L -0.9,0.18 c 0.194,-0.237 1.565,1.129 1.816,1.379 0,0 0.238,0.223 0.317,0.304 C 1.364,1.999 1.347,2.066 0.345,1.948 -0.482,1.851 -1.8,1.74 -1.8,1.74 c 0,0 -0.807,-0.121 -0.18,0.42 0.765,0.66 1.74,1.47 1.74,1.47 0,0 0.975,0.69 -0.18,0.51 0,0 -2.34,-0.15 -2.22,-0.51 L -2.58,3.42 C -2.616,3.353 -2.87,3.24 -2.895,3.3 c -0.093,0.222 -0.157,0.376 -0.259,0.619 -0.08,0.191 -0.154,0.383 -0.253,0.623 0.003,0.089 0.2,0.157 0.257,0.115 L -2.94,4.41 c 0.183,-0.286 3.78,0.3 4.8,0.42 0,0 0.466,0.135 -0.12,-0.48 C 0.555,3.105 0.045,2.55 0.045,2.55 L 3,2.97 C 3,2.97 3.57,3 3.03,2.55 2.047,1.731 0,0 0,0" style="fill:#108449;fill-opacity:1;fill-rule:nonzero;stroke:none" id="path434" inkscape:connector-curvature="0"/></g><g id="g436" transform="translate(695.6754,327.388)"><path d="m 0,0 c -0.174,-0.134 -0.183,-0.149 -0.078,-0.284 l 0.267,-0.347 c 0.202,-0.261 0.288,-0.282 0.629,-0.108 l 0.175,0.095 C 1.07,-0.641 1.167,-0.766 1.13,-0.835 0.923,-0.978 0.695,-1.145 0.459,-1.327 0.222,-1.509 0.002,-1.687 -0.189,-1.85 c -0.076,-0.018 -0.179,0.102 -0.15,0.181 l 0.136,0.145 c 0.256,0.285 0.264,0.378 0.062,0.639 l -0.267,0.347 c -0.105,0.135 -0.115,0.136 -0.301,-0.008 l -0.741,-0.57 c -0.286,-0.221 -0.47,-0.394 -0.529,-0.536 -0.062,-0.151 -0.038,-0.285 0.245,-0.651 0.337,-0.437 0.487,-0.594 1.403,-0.328 0.1,0.012 0.172,-0.132 0.113,-0.21 -0.339,-0.229 -0.937,-0.496 -1.159,-0.555 -0.193,0.275 -0.558,0.762 -0.876,1.173 l -0.504,0.653 c -0.186,0.241 -0.382,0.482 -0.685,0.849 0.007,0.069 0.156,0.184 0.218,0.168 l 0.226,-0.203 c 0.211,-0.197 0.278,-0.193 0.851,0.247 l 2.321,1.787 c 0.567,0.436 0.587,0.5 0.462,0.764 L 0.571,2.192 C 0.573,2.265 0.72,2.371 0.796,2.349 0.966,2.104 1.149,1.853 1.335,1.612 L 2.157,0.548 C 2.405,0.226 2.632,-0.055 2.695,-0.11 2.599,-0.192 2.178,-0.572 1.78,-0.918 1.696,-0.951 1.595,-0.845 1.612,-0.752 1.787,-0.529 1.92,-0.315 1.956,-0.183 2.001,0.004 1.96,0.212 1.77,0.458 L 1.46,0.859 C 1.332,1.025 1.32,1.016 1.089,0.838 L 0,0 z" style="fill:#108449;fill-opacity:1;fill-rule:nonzero;stroke:none" id="path438" inkscape:connector-curvature="0"/></g><g id="g440" transform="translate(697.008,322.9439)"><path d="M 0,0 C -0.258,-0.252 -0.416,-0.441 -0.445,-0.583 -0.48,-0.73 -0.443,-0.85 -0.114,-1.162 0.295,-1.551 0.438,-1.654 1.34,-1.283 1.431,-1.264 1.513,-1.384 1.478,-1.478 1.17,-1.736 0.607,-2.079 0.395,-2.164 c -0.227,0.237 -0.654,0.653 -1.023,1.003 l -0.603,0.573 c -0.207,0.196 -0.438,0.405 -0.728,0.659 -0.007,0.071 0.11,0.203 0.179,0.201 l 0.198,-0.136 c 0.241,-0.154 0.307,-0.142 0.817,0.357 L 1.279,2.492 C 1.789,2.991 1.801,3.054 1.642,3.29 L 1.533,3.435 C 1.521,3.51 1.648,3.634 1.735,3.615 1.958,3.382 2.177,3.162 2.393,2.957 2.609,2.752 2.84,2.544 3.076,2.341 3.079,2.274 2.953,2.151 2.884,2.153 L 2.745,2.242 C 2.498,2.392 2.433,2.38 1.922,1.88 L 0,0 z" style="fill:#108449;fill-opacity:1;fill-rule:nonzero;stroke:none" id="path442" inkscape:connector-curvature="0"/></g><g id="g444" transform="translate(700.4682,321.2884)"><path d="m 0,0 c 0.186,0.261 0.191,0.267 0.48,0.061 0.506,-0.36 0.486,-0.946 0.081,-1.514 -0.376,-0.528 -0.847,-0.754 -1.237,-0.476 -0.411,0.293 -0.235,0.65 0.127,1.159 L 0,0 z m -1.392,-0.415 c -0.419,-0.587 -0.483,-0.61 -0.762,-0.5 l -0.18,0.07 c -0.056,0.011 -0.177,-0.159 -0.163,-0.228 0.31,-0.201 0.572,-0.379 0.831,-0.563 0.152,-0.109 0.334,-0.277 0.524,-0.413 0.321,-0.229 0.73,-0.491 1.164,-0.584 0.435,-0.093 0.976,0.053 1.398,0.657 0.446,0.636 0.335,1.227 -0.003,1.635 -0.038,0.047 -0.05,0.085 -0.036,0.105 0.023,0.032 0.094,0.021 0.156,-0.004 C 1.738,-0.304 2.265,-0.355 2.656,0.193 2.93,0.578 2.989,0.949 2.883,1.28 2.772,1.615 2.486,1.927 1.98,2.288 1.453,2.663 1.05,2.911 0.626,3.164 0.543,3.214 0.414,3.011 0.438,2.944 L 0.562,2.817 C 0.76,2.627 0.719,2.547 0.249,1.888 L -1.392,-0.415 z M 1.293,1.814 C 1.497,2.101 1.54,2.149 1.787,1.973 2.151,1.714 2.235,1.23 1.831,0.663 1.552,0.271 1.128,0.033 0.674,0.355 0.401,0.551 0.405,0.568 0.525,0.737 l 0.768,1.077 z" style="fill:#108449;fill-opacity:1;fill-rule:nonzero;stroke:none" id="path446" inkscape:connector-curvature="0"/></g><g id="g448" transform="translate(706.4194,321.5456)"><path d="m 0,0 c -1.236,0.548 -2.608,-0.185 -3.251,-1.635 -0.679,-1.53 -0.244,-2.88 0.945,-3.407 1.272,-0.564 2.561,0.013 3.269,1.61 C 1.622,-1.946 1.23,-0.545 0,0 m -0.026,-3.108 c -0.526,-1.187 -1.243,-1.991 -2.018,-1.647 -0.964,0.427 -0.582,1.976 -0.186,2.869 0.542,1.223 1.306,1.892 2.033,1.57 0.734,-0.325 0.726,-1.54 0.171,-2.792" style="fill:#108449;fill-opacity:1;fill-rule:nonzero;stroke:none" id="path450" inkscape:connector-curvature="0"/></g><g id="g452" transform="translate(708.7183,319.2754)"><path d="M 0,0 C 0.15,0.73 0.123,0.792 -0.15,0.914 L -0.3,0.986 C -0.341,1.043 -0.312,1.217 -0.233,1.25 0.068,1.172 0.384,1.099 0.688,1.037 0.998,0.973 1.311,0.917 1.618,0.871 1.659,0.813 1.624,0.641 1.563,0.604 l -0.158,0 C 1.105,0.591 1.056,0.544 0.906,-0.186 L 0.535,-1.999 C 0.347,-2.917 0.222,-3.946 1.186,-4.144 1.997,-4.31 2.424,-3.481 2.644,-2.406 l 0.195,0.949 c 0.13,0.636 0.227,1.238 0.199,1.456 C 3.015,0.176 2.885,0.251 2.722,0.326 L 2.559,0.4 C 2.521,0.473 2.566,0.627 2.613,0.667 2.952,0.581 3.198,0.523 3.458,0.469 3.692,0.421 3.928,0.381 4.173,0.348 4.201,0.293 4.181,0.133 4.118,0.081 L 3.997,0.073 C 3.823,0.059 3.693,0.037 3.602,-0.116 3.491,-0.306 3.343,-0.897 3.213,-1.533 L 3.033,-2.412 C 2.882,-3.15 2.686,-3.813 2.24,-4.22 1.885,-4.532 1.383,-4.634 0.869,-4.528 c -0.482,0.098 -0.893,0.28 -1.165,0.696 -0.26,0.405 -0.281,1.014 -0.106,1.87 L 0,0 z" style="fill:#108449;fill-opacity:1;fill-rule:nonzero;stroke:none" id="path454" inkscape:connector-curvature="0"/></g><g id="g456" transform="translate(713.8544,315.5572)"><path d="m 0,0 c -0.019,-0.737 -0.06,-0.792 -0.353,-0.848 l -0.175,-0.035 c -0.053,-0.039 -0.058,-0.231 -0.008,-0.281 0.337,0.007 0.622,0.008 0.945,-0.001 0.311,-0.008 0.608,-0.024 0.95,-0.049 0.047,0.047 0.052,0.239 0.008,0.28 L 1.193,-0.889 C 0.904,-0.817 0.867,-0.76 0.886,-0.024 L 0.912,0.962 C 0.916,1.122 0.93,1.137 1.156,1.132 1.318,1.127 1.42,1.06 1.492,0.842 1.629,0.414 1.767,0.017 1.963,-0.413 c 0.27,-0.584 0.638,-0.858 1.233,-0.874 0.2,-0.005 0.408,0.006 0.512,0.059 0.034,0.047 0.037,0.167 -0.02,0.209 -0.097,0.01 -0.264,0.063 -0.427,0.235 C 2.959,-0.447 2.71,0.161 2.311,1.245 2.281,1.334 2.282,1.382 2.348,1.421 2.651,1.597 3.047,1.891 3.066,2.604 3.079,3.116 2.896,3.522 2.528,3.804 2.287,3.995 1.818,4.111 1.268,4.126 0.653,4.142 0.148,4.123 -0.338,4.096 -0.417,4.058 -0.422,3.858 -0.359,3.816 L -0.185,3.78 C 0.086,3.724 0.096,3.636 0.075,2.835 L 0,0 z M 0.976,3.356 C 0.999,3.74 0.999,3.764 1.265,3.757 1.769,3.744 2.1,3.27 2.08,2.55 2.068,2.077 1.938,1.824 1.825,1.691 1.698,1.542 1.56,1.473 1.327,1.48 0.946,1.49 0.927,1.514 0.934,1.795 l 0.042,1.561 z" style="fill:#108449;fill-opacity:1;fill-rule:nonzero;stroke:none" id="path458" inkscape:connector-curvature="0"/></g><g id="g460" transform="translate(723.7866,319.6072)"><path d="M 0,0 C 0.094,-0.204 0.106,-0.216 0.265,-0.143 L 0.671,0.043 C 0.977,0.184 1.018,0.264 0.922,0.644 L 0.868,0.839 C 0.882,0.916 1.029,0.984 1.089,0.932 1.184,0.693 1.299,0.429 1.425,0.152 1.552,-0.125 1.679,-0.384 1.797,-0.612 1.798,-0.691 1.654,-0.766 1.583,-0.719 L 1.47,-0.551 c -0.225,0.32 -0.316,0.349 -0.622,0.209 L 0.442,-0.529 C 0.283,-0.602 0.281,-0.611 0.381,-0.83 l 0.398,-0.867 c 0.153,-0.334 0.284,-0.557 0.411,-0.648 0.137,-0.096 0.275,-0.103 0.704,0.094 0.512,0.235 0.702,0.348 0.648,1.32 0.01,0.101 0.17,0.14 0.234,0.063 0.15,-0.389 0.28,-1.044 0.288,-1.278 C 2.745,-2.275 2.177,-2.527 1.695,-2.748 L 0.931,-3.099 c -0.282,-0.129 -0.567,-0.269 -1.002,-0.486 -0.067,0.022 -0.147,0.197 -0.117,0.255 l 0.254,0.178 C 0.31,-2.987 0.322,-2.92 0.015,-2.25 L -1.232,0.466 C -1.536,1.129 -1.594,1.164 -1.886,1.1 L -2.05,1.069 c -0.073,0.02 -0.144,0.19 -0.105,0.261 0.283,0.112 0.575,0.237 0.857,0.366 l 1.247,0.572 C 0.325,2.441 0.657,2.602 0.727,2.652 0.786,2.538 1.068,2.033 1.321,1.558 1.334,1.467 1.206,1.391 1.117,1.429 0.935,1.654 0.753,1.835 0.629,1.902 0.454,1.989 0.238,1.995 -0.05,1.863 L -0.521,1.647 C -0.715,1.558 -0.708,1.544 -0.585,1.274 L 0,0 z" style="fill:#108449;fill-opacity:1;fill-rule:nonzero;stroke:none" id="path462" inkscape:connector-curvature="0"/></g><g id="g464" transform="translate(721.9537,315.4345)"><path d="m 0,0 -3.744,3.54 1.089,-3.353 c 0.15,-0.461 0.215,-0.602 0.675,-0.457 l 0.082,-0.259 c -0.188,-0.037 -0.399,-0.08 -0.576,-0.136 -0.213,-0.067 -0.372,-0.133 -0.614,-0.24 l -0.082,0.259 c 0.398,0.133 0.415,0.193 0.183,0.928 l -1.102,3.542 c -0.151,0.121 -0.238,0.155 -0.443,0.06 l -0.082,0.259 c 0.181,0.026 0.311,0.052 0.473,0.103 0.126,0.04 0.268,0.108 0.396,0.171 l 3.239,-3.09 -0.967,2.937 c -0.171,0.508 -0.252,0.49 -0.633,0.385 l -0.081,0.26 c 0.178,0.033 0.389,0.076 0.561,0.13 0.191,0.061 0.349,0.126 0.563,0.224 L -0.981,5.004 C -1.29,4.884 -1.372,4.85 -1.206,4.325 L 0.153,0.049 0,0 z" style="fill:#108449;fill-opacity:1;fill-rule:nonzero;stroke:none" id="path466" inkscape:connector-curvature="0"/></g><g id="g468" transform="translate(721.9537,315.4345)"><path d="m 0,0 -3.744,3.54 1.089,-3.353 c 0.15,-0.461 0.215,-0.602 0.675,-0.457 l 0.082,-0.259 c -0.188,-0.037 -0.399,-0.08 -0.576,-0.136 -0.213,-0.067 -0.372,-0.133 -0.614,-0.24 l -0.082,0.259 c 0.398,0.133 0.415,0.193 0.183,0.928 l -1.102,3.542 c -0.151,0.121 -0.238,0.155 -0.443,0.06 l -0.082,0.259 c 0.181,0.026 0.311,0.052 0.473,0.103 0.126,0.04 0.268,0.108 0.396,0.171 l 3.239,-3.09 -0.967,2.937 c -0.171,0.508 -0.252,0.49 -0.633,0.385 l -0.081,0.26 c 0.178,0.033 0.389,0.076 0.561,0.13 0.191,0.061 0.349,0.126 0.563,0.224 L -0.981,5.004 C -1.29,4.884 -1.372,4.85 -1.206,4.325 L 0.153,0.049 0,0 z" style="fill:none;stroke:#0b904b;stroke-width:0.21600001;stroke-linecap:butt;stroke-linejoin:miter;stroke-miterlimit:4;stroke-opacity:1;stroke-dasharray:none" id="path470" inkscape:connector-curvature="0"/></g><g id="g472" transform="translate(731.7251,321.2202)"><path d="m 0,0 c -0.239,-0.211 -0.505,-0.426 -0.826,-0.71 -0.282,-0.249 -0.539,-0.496 -0.8,-0.726 l -0.145,0.163 0.499,0.498 c -0.143,0.174 -0.81,0.951 -0.949,1.108 L -4.243,2.634 -4.765,2.183 -4.962,2.406 -3.929,3.462 -0.673,-0.246 -0.144,0.163 0,0 z" style="fill:#108449;fill-opacity:1;fill-rule:nonzero;stroke:none" id="path474" inkscape:connector-curvature="0"/></g><g id="g476" transform="translate(731.7251,321.2202)"><path d="m 0,0 c -0.239,-0.211 -0.505,-0.426 -0.826,-0.71 -0.282,-0.249 -0.539,-0.496 -0.8,-0.726 l -0.145,0.163 0.499,0.498 c -0.143,0.174 -0.81,0.951 -0.949,1.108 L -4.243,2.634 -4.765,2.183 -4.962,2.406 -3.929,3.462 -0.673,-0.246 -0.144,0.163 0,0 z" style="fill:none;stroke:#0b904b;stroke-width:0.21600001;stroke-linecap:butt;stroke-linejoin:miter;stroke-miterlimit:4;stroke-opacity:1;stroke-dasharray:none" id="path478" inkscape:connector-curvature="0"/></g><g id="g480" transform="translate(729.7134,324.411)"><path d="m 0,0 c 0.721,-0.631 1.644,-0.591 2.189,0.032 0.11,0.125 0.194,0.254 0.267,0.393 0.068,0.133 0.13,0.281 0.177,0.433 0.639,-0.955 0.703,-2.15 0.71,-2.329 0.002,-0.118 0.004,-0.216 0.036,-0.244 0.022,-0.02 0.064,-0.027 0.097,0.011 0.067,0.077 0.12,0.61 0.129,0.852 C 3.657,0.067 3.483,1.31 2.396,2.262 1.32,3.204 0.329,2.876 -0.183,2.292 -0.809,1.577 -0.677,0.593 0,0 M 0.357,0.671 C -0.315,1.26 -0.342,1.824 -0.05,2.157 0.366,2.632 1.147,2.334 1.851,1.717 2.216,1.396 2.364,1.2 2.471,1.048 2.407,0.699 2.206,0.47 2.173,0.432 1.79,-0.005 1.121,0.002 0.357,0.671" style="fill:#108449;fill-opacity:1;fill-rule:nonzero;stroke:none" id="path482" inkscape:connector-curvature="0"/></g><g id="g484" transform="translate(729.7134,324.411)"><path d="m 0,0 c 0.721,-0.631 1.644,-0.591 2.189,0.032 0.11,0.125 0.194,0.254 0.267,0.393 0.068,0.133 0.13,0.281 0.177,0.433 0.639,-0.955 0.703,-2.15 0.71,-2.329 0.002,-0.118 0.004,-0.216 0.036,-0.244 0.022,-0.02 0.064,-0.027 0.097,0.011 0.067,0.077 0.12,0.61 0.129,0.852 C 3.657,0.067 3.483,1.31 2.396,2.262 1.32,3.204 0.329,2.876 -0.183,2.292 -0.809,1.577 -0.677,0.593 0,0 z M 0.357,0.671 C -0.315,1.26 -0.342,1.824 -0.05,2.157 0.366,2.632 1.147,2.334 1.851,1.717 2.216,1.396 2.364,1.2 2.471,1.048 2.407,0.699 2.206,0.47 2.173,0.432 1.79,-0.005 1.121,0.002 0.357,0.671 z" style="fill:none;stroke:#0b904b;stroke-width:0.21600001;stroke-linecap:butt;stroke-linejoin:miter;stroke-miterlimit:4;stroke-opacity:1;stroke-dasharray:none" id="path486" inkscape:connector-curvature="0"/></g><g id="g488" transform="translate(732.2438,328.2444)"><path d="M 0,0 0.832,-0.557 C 1.226,-0.086 2.155,1.029 3.163,0.356 4.206,-0.342 3.85,-1.815 3.773,-2.139 3.722,-2.332 3.601,-2.749 3.569,-2.797 3.536,-2.845 3.47,-2.827 3.434,-2.803 3.392,-2.775 3.4,-2.763 3.432,-2.61 3.544,-2.117 3.823,-0.889 3.015,-0.348 2.665,-0.115 2.178,-0.06 1.302,-1.133 l -2.03,1.35 0.815,1.218 C 0.208,1.627 0.41,1.955 0.494,2.09 L 1.081,1.659 0,0 z" style="fill:#108449;fill-opacity:1;fill-rule:nonzero;stroke:none" id="path490" inkscape:connector-curvature="0"/></g><g id="g492" transform="translate(732.2438,328.2444)"><path d="M 0,0 0.832,-0.557 C 1.226,-0.086 2.155,1.029 3.163,0.356 4.206,-0.342 3.85,-1.815 3.773,-2.139 3.722,-2.332 3.601,-2.749 3.569,-2.797 3.536,-2.845 3.47,-2.827 3.434,-2.803 3.392,-2.775 3.4,-2.763 3.432,-2.61 3.544,-2.117 3.823,-0.889 3.015,-0.348 2.665,-0.115 2.178,-0.06 1.302,-1.133 l -2.03,1.35 0.815,1.218 C 0.208,1.627 0.41,1.955 0.494,2.09 L 1.081,1.659 0,0 z" style="fill:none;stroke:#0b904b;stroke-width:0.21600001;stroke-linecap:butt;stroke-linejoin:miter;stroke-miterlimit:4;stroke-opacity:1;stroke-dasharray:none" id="path494" inkscape:connector-curvature="0"/></g><g id="g496" transform="translate(734.1313,333.2484)"><path d="M 0,0 C -0.515,-2.044 0.563,-3.469 1.977,-3.975 3.078,-4.369 4.201,-4.223 4.58,-3.164 4.832,-2.46 4.66,-1.474 3.499,-1.058 2.549,-0.719 1.787,-1.124 1.535,-1.828 1.413,-2.17 1.425,-2.544 1.514,-2.9 1.059,-2.599 -0.081,-1.844 0.162,-0.042 L 0,0 z M 2.537,-3.358 C 2.216,-3.244 1.921,-3.1 1.75,-3.015 1.557,-2.63 1.696,-2.24 1.72,-2.172 c 0.252,0.704 0.996,0.607 1.577,0.4 C 3.803,-1.954 4.654,-2.396 4.409,-3.08 4.131,-3.859 2.981,-3.517 2.537,-3.358" style="fill:#108449;fill-opacity:1;fill-rule:nonzero;stroke:none" id="path498" inkscape:connector-curvature="0"/></g><g id="g500" transform="translate(734.1313,333.2484)"><path d="M 0,0 C -0.515,-2.044 0.563,-3.469 1.977,-3.975 3.078,-4.369 4.201,-4.223 4.58,-3.164 4.832,-2.46 4.66,-1.474 3.499,-1.058 2.549,-0.719 1.787,-1.124 1.535,-1.828 1.413,-2.17 1.425,-2.544 1.514,-2.9 1.059,-2.599 -0.081,-1.844 0.162,-0.042 L 0,0 z M 2.537,-3.358 C 2.216,-3.244 1.921,-3.1 1.75,-3.015 1.557,-2.63 1.696,-2.24 1.72,-2.172 c 0.252,0.704 0.996,0.607 1.577,0.4 C 3.803,-1.954 4.654,-2.396 4.409,-3.08 4.131,-3.859 2.981,-3.517 2.537,-3.358 z" style="fill:none;stroke:#0b904b;stroke-width:0.21600001;stroke-linecap:butt;stroke-linejoin:miter;stroke-miterlimit:4;stroke-opacity:1;stroke-dasharray:none" id="path502" inkscape:connector-curvature="0"/></g><g id="g504" transform="translate(705.2958,405.3888)"><path d="m 0,0 c 0.407,-1.628 1.839,-2.369 3.349,-1.992 1.805,0.451 2.3,2.117 1.974,3.423 C 4.936,2.979 3.637,3.815 2.03,3.414 0.461,3.021 -0.399,1.599 0,0 M 0.975,0.275 C 0.451,2.373 1.52,3.084 2.078,3.223 3.193,3.502 4.056,2.322 4.342,1.178 4.628,0.034 4.476,-1.508 3.331,-1.794 2.407,-2.025 1.342,-1.192 0.975,0.275" style="fill:#108449;fill-opacity:1;fill-rule:nonzero;stroke:none" id="path506" inkscape:connector-curvature="0"/></g><g id="g508" transform="translate(705.2958,405.3888)"><path d="m 0,0 c 0.407,-1.628 1.839,-2.369 3.349,-1.992 1.805,0.451 2.3,2.117 1.974,3.423 C 4.936,2.979 3.637,3.815 2.03,3.414 0.461,3.021 -0.399,1.599 0,0 z M 0.975,0.275 C 0.451,2.373 1.52,3.084 2.078,3.223 3.193,3.502 4.056,2.322 4.342,1.178 4.628,0.034 4.476,-1.508 3.331,-1.794 2.407,-2.025 1.342,-1.192 0.975,0.275 z" style="fill:none;stroke:#0b904b;stroke-width:0.21600001;stroke-linecap:butt;stroke-linejoin:miter;stroke-miterlimit:4;stroke-opacity:1;stroke-dasharray:none" id="path510" inkscape:connector-curvature="0"/></g><g id="g512" transform="translate(714.613,404.2309)"><path d="m 0,0 c -0.339,0.008 -1.056,0.015 -1.765,0.015 -0.71,0 -1.408,0 -1.723,-0.015 l 0,0.242 0.506,0.015 c 0.013,0.401 0.019,0.499 0.019,1.467 0,2.555 0,2.835 -0.019,3.334 l -0.506,0.022 0,0.242 c 0.173,0 0.408,-0.015 0.945,-0.015 0.531,0 0.771,0.015 0.938,0.015 l 0,-0.242 -0.543,-0.022 c -0.006,-0.25 -0.013,-1.142 -0.013,-2.057 0,-1.081 0,-2.207 0.013,-2.336 0.037,-0.363 0.111,-0.423 0.981,-0.423 0.192,0 0.469,0.023 0.667,0.03 l 0.333,1.21 0.284,0 L 0,0 z" style="fill:#108449;fill-opacity:1;fill-rule:nonzero;stroke:none" id="path514" inkscape:connector-curvature="0"/></g><g id="g516" transform="translate(714.613,404.2309)"><path d="m 0,0 c -0.339,0.008 -1.056,0.015 -1.765,0.015 -0.71,0 -1.408,0 -1.723,-0.015 l 0,0.242 0.506,0.015 c 0.013,0.401 0.019,0.499 0.019,1.467 0,2.555 0,2.835 -0.019,3.334 l -0.506,0.022 0,0.242 c 0.173,0 0.408,-0.015 0.945,-0.015 0.531,0 0.771,0.015 0.938,0.015 l 0,-0.242 -0.543,-0.022 c -0.006,-0.25 -0.013,-1.142 -0.013,-2.057 0,-1.081 0,-2.207 0.013,-2.336 0.037,-0.363 0.111,-0.423 0.981,-0.423 0.192,0 0.469,0.023 0.667,0.03 l 0.333,1.21 0.284,0 L 0,0 z" style="fill:none;stroke:#0b904b;stroke-width:0.21600001;stroke-linecap:butt;stroke-linejoin:miter;stroke-miterlimit:4;stroke-opacity:1;stroke-dasharray:none" id="path518" inkscape:connector-curvature="0"/></g><g id="g520" transform="translate(716.1669,404.3896)"><path d="M 0,0 C 0.041,0.475 0.109,1.758 0.139,2.324 L -0.544,3.55 C -1.125,4.58 -1.187,4.697 -1.236,4.768 -1.321,4.886 -1.374,4.889 -1.63,4.917 l 0.013,0.242 C -1.308,5.135 -1.044,5.113 -0.561,5.087 -0.13,5.064 0.255,5.051 0.641,5.038 L 0.628,4.797 C 0.122,4.824 -0.016,4.801 -0.018,4.755 -0.023,4.672 0.501,3.698 0.596,3.496 l 0.43,-0.871 0.376,0.51 C 1.556,3.339 2.438,4.533 2.442,4.609 2.445,4.661 2.401,4.686 1.752,4.736 L 1.765,4.963 C 2.429,4.927 2.587,4.919 3.2,4.901 L 3.186,4.644 C 2.974,4.633 2.897,4.622 2.785,4.515 2.674,4.414 2.04,3.608 1.886,3.404 L 1.13,2.445 C 1.06,1.132 1.052,0.981 1.038,0.573 1.025,0.331 1.023,0.165 1.019,-0.055 L 1.751,-0.109 1.738,-0.35 C 1.383,-0.324 1.044,-0.298 0.5,-0.269 -0.043,-0.24 -0.368,-0.23 -0.739,-0.218 L -0.726,0.024 0,0 z" style="fill:#108449;fill-opacity:1;fill-rule:nonzero;stroke:none" id="path522" inkscape:connector-curvature="0"/></g><g id="g524" transform="translate(716.1669,404.3896)"><path d="M 0,0 C 0.041,0.475 0.109,1.758 0.139,2.324 L -0.544,3.55 C -1.125,4.58 -1.187,4.697 -1.236,4.768 -1.321,4.886 -1.374,4.889 -1.63,4.917 l 0.013,0.242 C -1.308,5.135 -1.044,5.113 -0.561,5.087 -0.13,5.064 0.255,5.051 0.641,5.038 L 0.628,4.797 C 0.122,4.824 -0.016,4.801 -0.018,4.755 -0.023,4.672 0.501,3.698 0.596,3.496 l 0.43,-0.871 0.376,0.51 C 1.556,3.339 2.438,4.533 2.442,4.609 2.445,4.661 2.401,4.686 1.752,4.736 L 1.765,4.963 C 2.429,4.927 2.587,4.919 3.2,4.901 L 3.186,4.644 C 2.974,4.633 2.897,4.622 2.785,4.515 2.674,4.414 2.04,3.608 1.886,3.404 L 1.13,2.445 C 1.06,1.132 1.052,0.981 1.038,0.573 1.025,0.331 1.023,0.165 1.019,-0.055 L 1.751,-0.109 1.738,-0.35 C 1.383,-0.324 1.044,-0.298 0.5,-0.269 -0.043,-0.24 -0.368,-0.23 -0.739,-0.218 L -0.726,0.024 0,0 z" style="fill:none;stroke:#0b904b;stroke-width:0.18000001;stroke-linecap:butt;stroke-linejoin:miter;stroke-miterlimit:4;stroke-opacity:1;stroke-dasharray:none" id="path526" inkscape:connector-curvature="0"/></g><g id="g528" transform="translate(726.8159,400.7765)"><path d="M 0,0 C 0.26,0.39 0.366,0.538 1.302,1.848 1.391,1.776 1.504,1.675 1.671,1.556 2.784,0.761 3.651,0.661 4.271,1.528 4.742,2.186 4.614,2.983 3.747,3.603 3.649,3.673 3.345,3.872 3.035,4.075 2.725,4.279 2.415,4.482 2.304,4.561 2.027,4.759 1.786,4.941 1.599,5.083 L 1.459,4.886 1.968,4.494 C 1.696,4.075 1.534,3.848 0.048,1.769 -0.515,0.982 -0.579,0.906 -0.824,0.589 l -0.532,0.362 -0.14,-0.197 c 0.178,-0.128 0.414,-0.278 0.968,-0.674 0.51,-0.365 0.747,-0.553 0.907,-0.667 L 0.52,-0.39 0,0 z M 2.645,3.713 C 2.804,3.934 2.85,3.947 3.072,3.789 3.699,3.34 4.069,2.779 3.532,2.028 3.075,1.389 2.362,1.341 1.735,1.789 1.618,1.873 1.49,1.955 1.421,2.014 l 1.224,1.699 z" style="fill:#108449;fill-opacity:1;fill-rule:nonzero;stroke:none" id="path530" inkscape:connector-curvature="0"/></g><g id="g532" transform="translate(726.8159,400.7765)"><path d="M 0,0 C 0.26,0.39 0.366,0.538 1.302,1.848 1.391,1.776 1.504,1.675 1.671,1.556 2.784,0.761 3.651,0.661 4.271,1.528 4.742,2.186 4.614,2.983 3.747,3.603 3.649,3.673 3.345,3.872 3.035,4.075 2.725,4.279 2.415,4.482 2.304,4.561 2.027,4.759 1.786,4.941 1.599,5.083 L 1.459,4.886 1.968,4.494 C 1.696,4.075 1.534,3.848 0.048,1.769 -0.515,0.982 -0.579,0.906 -0.824,0.589 l -0.532,0.362 -0.14,-0.197 c 0.178,-0.128 0.414,-0.278 0.968,-0.674 0.51,-0.365 0.747,-0.553 0.907,-0.667 L 0.52,-0.39 0,0 z M 2.645,3.713 C 2.804,3.934 2.85,3.947 3.072,3.789 3.699,3.34 4.069,2.779 3.532,2.028 3.075,1.389 2.362,1.341 1.735,1.789 1.618,1.873 1.49,1.955 1.421,2.014 l 1.224,1.699 z" style="fill:none;stroke:#0b904b;stroke-width:0.21600001;stroke-linecap:butt;stroke-linejoin:miter;stroke-miterlimit:4;stroke-opacity:1;stroke-dasharray:none" id="path534" inkscape:connector-curvature="0"/></g><g id="g536" transform="translate(729.7162,397.9865)"><path d="m 0,0 -0.189,-0.151 c -0.12,0.149 -0.293,0.389 -0.652,0.839 -0.356,0.443 -0.557,0.67 -0.676,0.82 l 0.188,0.151 0.363,-0.429 c 0.322,0.239 0.403,0.295 1.158,0.9 1.994,1.598 2.213,1.772 2.588,2.101 L 2.448,4.683 2.636,4.835 C 2.756,4.685 2.934,4.44 3.289,3.996 3.649,3.547 3.845,3.326 3.965,3.176 L 3.776,3.025 3.403,3.454 C 3.081,3.216 3.005,3.154 2.255,2.554 0.261,0.956 0.037,0.777 -0.343,0.453 L 0,0 z" style="fill:#108449;fill-opacity:1;fill-rule:nonzero;stroke:none" id="path538" inkscape:connector-curvature="0"/></g><g id="g540" transform="translate(729.7162,397.9865)"><path d="m 0,0 -0.189,-0.151 c -0.12,0.149 -0.293,0.389 -0.652,0.839 -0.356,0.443 -0.557,0.67 -0.676,0.82 l 0.188,0.151 0.363,-0.429 c 0.322,0.239 0.403,0.295 1.158,0.9 1.994,1.598 2.213,1.772 2.588,2.101 L 2.448,4.683 2.636,4.835 C 2.756,4.685 2.934,4.44 3.289,3.996 3.649,3.547 3.845,3.326 3.965,3.176 L 3.776,3.025 3.403,3.454 C 3.081,3.216 3.005,3.154 2.255,2.554 0.261,0.956 0.037,0.777 -0.343,0.453 L 0,0 z" style="fill:none;stroke:#0b904b;stroke-width:0.14399999;stroke-linecap:butt;stroke-linejoin:miter;stroke-miterlimit:4;stroke-opacity:1;stroke-dasharray:none" id="path542" inkscape:connector-curvature="0"/></g><g id="g544" transform="translate(732.6896,393.6446)"><path d="M 0,0 C -0.08,0.137 -0.116,0.249 -0.046,0.376 0.042,0.532 0.185,0.77 0.35,1.002 L 3.041,4.852 2.98,4.947 0.106,4.333 C -0.289,4.248 -2.088,3.909 -2.283,3.89 -2.445,3.875 -2.51,3.905 -2.665,4.102 L -2.88,3.962 c 0.088,-0.123 0.212,-0.286 0.356,-0.508 0.128,-0.196 0.243,-0.401 0.352,-0.583 l 0.203,0.132 c -0.303,0.48 -0.306,0.541 -0.236,0.586 0.025,0.017 0.118,0.041 0.227,0.066 l 1.272,0.277 c 0.12,0.024 0.151,0.017 0.205,-0.066 L 0.207,2.776 C 0.281,2.662 0.289,2.649 0.219,2.55 L -0.61,1.425 C -0.657,1.358 -0.702,1.302 -0.74,1.278 -0.771,1.257 -0.832,1.281 -1.187,1.799 L -1.389,1.667 c 0.334,-0.486 0.48,-0.698 0.632,-0.932 0.223,-0.343 0.373,-0.588 0.541,-0.875 L 0,0 z M -0.254,3.874 C -0.312,3.963 -0.309,4 -0.29,4.013 c 0.019,0.012 0.053,0.016 0.105,0.032 L 1.476,4.403 C 1.527,4.409 1.562,4.423 1.57,4.41 1.579,4.397 1.559,4.358 1.538,4.335 L 0.52,2.961 C 0.481,2.909 0.473,2.895 0.454,2.882 0.435,2.87 0.395,2.889 0.36,2.929 l -0.614,0.945 z" style="fill:#108449;fill-opacity:1;fill-rule:nonzero;stroke:none" id="path546" inkscape:connector-curvature="0"/></g><g id="g548" transform="translate(732.6896,393.6446)"><path d="M 0,0 C -0.08,0.137 -0.116,0.249 -0.046,0.376 0.042,0.532 0.185,0.77 0.35,1.002 L 3.041,4.852 2.98,4.947 0.106,4.333 C -0.289,4.248 -2.088,3.909 -2.283,3.89 -2.445,3.875 -2.51,3.905 -2.665,4.102 L -2.88,3.962 c 0.088,-0.123 0.212,-0.286 0.356,-0.508 0.128,-0.196 0.243,-0.401 0.352,-0.583 l 0.203,0.132 c -0.303,0.48 -0.306,0.541 -0.236,0.586 0.025,0.017 0.118,0.041 0.227,0.066 l 1.272,0.277 c 0.12,0.024 0.151,0.017 0.205,-0.066 L 0.207,2.776 C 0.281,2.662 0.289,2.649 0.219,2.55 L -0.61,1.425 C -0.657,1.358 -0.702,1.302 -0.74,1.278 -0.771,1.257 -0.832,1.281 -1.187,1.799 L -1.389,1.667 c 0.334,-0.486 0.48,-0.698 0.632,-0.932 0.223,-0.343 0.373,-0.588 0.541,-0.875 L 0,0 z M -0.254,3.874 C -0.312,3.963 -0.309,4 -0.29,4.013 c 0.019,0.012 0.053,0.016 0.105,0.032 L 1.476,4.403 C 1.527,4.409 1.562,4.423 1.57,4.41 1.579,4.397 1.559,4.358 1.538,4.335 L 0.52,2.961 C 0.481,2.909 0.473,2.895 0.454,2.882 0.435,2.87 0.395,2.889 0.36,2.929 l -0.614,0.945 z" style="fill:none;stroke:#0b904b;stroke-width:0.21600001;stroke-linecap:butt;stroke-linejoin:miter;stroke-miterlimit:4;stroke-opacity:1;stroke-dasharray:none" id="path550" inkscape:connector-curvature="0"/></g><g id="g552" transform="translate(732.8313,393.0964)"><path d="m 0,0 -0.212,-0.117 c 0.152,-0.26 0.282,-0.479 0.47,-0.819 0.087,-0.159 0.494,-0.928 0.656,-1.221 0.673,-1.22 1.997,-1.836 3.599,-0.952 1.516,0.836 1.803,2.272 1.098,3.55 C 5.452,0.728 4.613,2.124 4.435,2.447 L 4.236,2.337 4.466,1.875 C 4.039,1.616 3.793,1.481 1.556,0.247 0.709,-0.221 0.62,-0.262 0.262,-0.444 L 0,0 z M 4.026,-2.384 C 2.755,-3.085 1.504,-2.819 0.999,-1.904 0.698,-1.359 0.683,-1.237 1,-1.062 2.328,-0.322 2.48,-0.238 3.115,0.113 3.32,0.226 4.84,1.056 4.893,1.07 4.978,1.087 5.079,0.966 5.15,0.837 5.817,-0.371 5.429,-1.609 4.026,-2.384" style="fill:#108449;fill-opacity:1;fill-rule:nonzero;stroke:none" id="path554" inkscape:connector-curvature="0"/></g><g id="g556" transform="translate(732.8313,393.0964)"><path d="m 0,0 -0.212,-0.117 c 0.152,-0.26 0.282,-0.479 0.47,-0.819 0.087,-0.159 0.494,-0.928 0.656,-1.221 0.673,-1.22 1.997,-1.836 3.599,-0.952 1.516,0.836 1.803,2.272 1.098,3.55 C 5.452,0.728 4.613,2.124 4.435,2.447 L 4.236,2.337 4.466,1.875 C 4.039,1.616 3.793,1.481 1.556,0.247 0.709,-0.221 0.62,-0.262 0.262,-0.444 L 0,0 z M 4.026,-2.384 C 2.755,-3.085 1.504,-2.819 0.999,-1.904 0.698,-1.359 0.683,-1.237 1,-1.062 2.328,-0.322 2.48,-0.238 3.115,0.113 3.32,0.226 4.84,1.056 4.893,1.07 4.978,1.087 5.079,0.966 5.15,0.837 5.817,-0.371 5.429,-1.609 4.026,-2.384 z" style="fill:none;stroke:#0b904b;stroke-width:0.21600001;stroke-linecap:butt;stroke-linejoin:miter;stroke-miterlimit:4;stroke-opacity:1;stroke-dasharray:none" id="path558" inkscape:connector-curvature="0"/></g><g id="g560" transform="translate(724.3345,403.0842)"><path d="m 0,0 c -0.057,-0.822 0.254,-1.014 0.2,-0.984 l 0.252,-0.129 c 0.028,-0.081 0.006,-0.24 -0.069,-0.25 -0.289,0.113 -0.593,0.232 -0.907,0.336 -0.289,0.095 -0.549,0.204 -0.823,0.306 -0.085,0.031 0.007,0.147 0.092,0.182 l 0.522,-0.146 c 0.352,-0.119 0.215,2.068 0.226,2.484 0,0 -0.008,0.427 -0.014,0.545 -0.008,0.171 -0.018,0.203 -0.657,-0.665 -0.528,-0.719 -1.06,-1.374 -1.06,-1.374 -0.492,-0.681 -0.66,-0.444 -0.644,0.3 0.012,0.583 -10e-4,1.164 0.016,1.854 0.014,0.625 -0.032,0.755 -0.504,0.234 0,0 -1.611,-1.729 -1.292,-1.968 l 0.203,-0.099 c 0.023,-0.077 -0.009,-0.19 -0.073,-0.165 -0.09,0.035 -0.131,0.038 -0.685,0.254 -0.201,0.078 -0.403,0.144 -0.654,0.243 -0.064,0.068 0.07,0.15 0.144,0.162 L -5.449,1.029 C -5.1,0.96 -2.832,4.055 -2.163,4.924 -1.661,5.576 -1.787,4.992 -1.803,4.548 -1.868,2.724 -1.941,1.911 -1.941,1.911 l 1.836,2.307 c 0,0 0.479,0.587 0.404,-0.15 C 0.163,2.727 0,0 0,0" style="fill:#108449;fill-opacity:1;fill-rule:nonzero;stroke:#0b904b;stroke-width:0.14399999;stroke-linecap:butt;stroke-linejoin:miter;stroke-miterlimit:4;stroke-opacity:1;stroke-dasharray:none" id="path562" inkscape:connector-curvature="0"/></g><g id="g564" transform="translate(696.0184,392.9275)"><path d="m 0,0 c -0.084,-0.19 -0.201,-0.439 -0.337,-0.778 -0.12,-0.3 -0.218,-0.563 -0.331,-0.885 l -0.224,0.09 c 0.145,0.421 0.135,0.478 0.072,0.503 -0.05,0.02 -0.454,-0.034 -0.566,-0.049 l -1.593,-0.214 0.692,-0.915 c 0.129,-0.164 0.571,-0.768 0.669,-0.808 0.078,-0.031 0.114,0 0.346,0.538 L -1.068,-2.6 c -0.175,-0.435 -0.411,-1.024 -0.508,-1.326 l -0.239,0.095 c 0.045,0.173 0.084,0.289 0.014,0.441 -0.064,0.164 -0.147,0.283 -0.681,1.023 l -0.711,1.008 -1.384,-0.2 c -0.244,-0.04 -1.418,-0.206 -1.532,-0.246 -0.123,-0.042 -0.166,-0.15 -0.189,-0.226 l -0.224,0.09 c 0.286,0.673 0.386,0.922 0.711,1.731 l 0.21,-0.084 c -0.167,-0.478 -0.174,-0.515 -0.11,-0.54 0.056,-0.023 0.549,0.049 0.66,0.063 l 1.303,0.18 -0.702,0.952 C -4.513,0.445 -4.941,1.024 -4.997,1.047 -5.032,1.061 -5.076,1.013 -5.249,0.583 l -0.21,0.084 c 0.111,0.277 0.331,0.826 0.499,1.285 L -4.721,1.856 C -4.854,1.403 -4.865,1.375 -4.754,1.205 -4.518,0.861 -4.288,0.519 -4.052,0.175 l 0.511,-0.737 c 1.028,0.126 1.953,0.28 2.934,0.431 0.261,0.04 0.307,0.054 0.383,0.221 L 0,0 z" style="fill:#108449;fill-opacity:1;fill-rule:nonzero;stroke:none" id="path566" inkscape:connector-curvature="0"/></g><g id="g568" transform="translate(696.0184,392.9275)"><path d="m 0,0 c -0.084,-0.19 -0.201,-0.439 -0.337,-0.778 -0.12,-0.3 -0.218,-0.563 -0.331,-0.885 l -0.224,0.09 c 0.145,0.421 0.135,0.478 0.072,0.503 -0.05,0.02 -0.454,-0.034 -0.566,-0.049 l -1.593,-0.214 0.692,-0.915 c 0.129,-0.164 0.571,-0.768 0.669,-0.808 0.078,-0.031 0.114,0 0.346,0.538 L -1.068,-2.6 c -0.175,-0.435 -0.411,-1.024 -0.508,-1.326 l -0.239,0.095 c 0.045,0.173 0.084,0.289 0.014,0.441 -0.064,0.164 -0.147,0.283 -0.681,1.023 l -0.711,1.008 -1.384,-0.2 c -0.244,-0.04 -1.418,-0.206 -1.532,-0.246 -0.123,-0.042 -0.166,-0.15 -0.189,-0.226 l -0.224,0.09 c 0.286,0.673 0.386,0.922 0.711,1.731 l 0.21,-0.084 c -0.167,-0.478 -0.174,-0.515 -0.11,-0.54 0.056,-0.023 0.549,0.049 0.66,0.063 l 1.303,0.18 -0.702,0.952 C -4.513,0.445 -4.941,1.024 -4.997,1.047 -5.032,1.061 -5.076,1.013 -5.249,0.583 l -0.21,0.084 c 0.111,0.277 0.331,0.826 0.499,1.285 L -4.721,1.856 C -4.854,1.403 -4.865,1.375 -4.754,1.205 -4.518,0.861 -4.288,0.519 -4.052,0.175 l 0.511,-0.737 c 1.028,0.126 1.953,0.28 2.934,0.431 0.261,0.04 0.307,0.054 0.383,0.221 L 0,0 z" style="fill:none;stroke:#0b904b;stroke-width:0.18000001;stroke-linecap:butt;stroke-linejoin:miter;stroke-miterlimit:4;stroke-opacity:1;stroke-dasharray:none" id="path570" inkscape:connector-curvature="0"/></g><g id="g572" transform="translate(694.666,399.172)"><path d="m 0,0 c -0.116,-0.187 -0.124,-0.211 -0.102,-0.272 0.038,-0.088 1.087,-1.646 1.425,-2.122 l 1.662,-2.337 -0.058,-0.08 c -1.744,0.565 -3.496,1.082 -5.25,1.57 l -0.202,-0.23 -0.191,0.137 c 0.383,0.506 0.49,0.655 1.031,1.407 l 0.184,-0.133 c -0.257,-0.37 -0.264,-0.418 -0.227,-0.445 0.062,-0.044 1.679,-0.554 1.83,-0.603 L 2.05,-3.713 0.215,-1.176 c -0.073,0.105 -0.459,0.63 -0.502,0.661 -0.024,0.018 -0.073,0.015 -0.338,-0.327 l -0.184,0.132 c 0.271,0.376 0.367,0.51 0.6,0.86 L 0,0 z" style="fill:#108449;fill-opacity:1;fill-rule:nonzero;stroke:none" id="path574" inkscape:connector-curvature="0"/></g><g id="g576" transform="translate(694.666,399.172)"><path d="m 0,0 c -0.116,-0.187 -0.124,-0.211 -0.102,-0.272 0.038,-0.088 1.087,-1.646 1.425,-2.122 l 1.662,-2.337 -0.058,-0.08 c -1.744,0.565 -3.496,1.082 -5.25,1.57 l -0.202,-0.23 -0.191,0.137 c 0.383,0.506 0.49,0.655 1.031,1.407 l 0.184,-0.133 c -0.257,-0.37 -0.264,-0.418 -0.227,-0.445 0.062,-0.044 1.679,-0.554 1.83,-0.603 L 2.05,-3.713 0.215,-1.176 c -0.073,0.105 -0.459,0.63 -0.502,0.661 -0.024,0.018 -0.073,0.015 -0.338,-0.327 l -0.184,0.132 c 0.271,0.376 0.367,0.51 0.6,0.86 L 0,0 z" style="fill:none;stroke:#0b904b;stroke-width:0.18000001;stroke-linecap:butt;stroke-linejoin:miter;stroke-miterlimit:4;stroke-opacity:1;stroke-dasharray:none" id="path578" inkscape:connector-curvature="0"/></g><g id="g580" transform="translate(699.787,397.9326)"><path d="M 0,0 0.183,-0.158 C 0.08,-0.278 -0.091,-0.453 -0.402,-0.813 -0.709,-1.168 -0.861,-1.367 -0.965,-1.487 l -0.183,0.158 0.292,0.361 c -0.295,0.271 -0.366,0.34 -1.098,0.972 C -3.888,1.675 -4.1,1.857 -4.489,2.17 l -0.32,-0.336 -0.183,0.158 c 0.103,0.12 0.278,0.299 0.585,0.654 0.311,0.36 0.459,0.555 0.562,0.675 l 0.183,-0.158 -0.289,-0.37 c 0.295,-0.272 0.369,-0.336 1.096,-0.963 1.934,-1.671 2.151,-1.859 2.537,-2.175 L 0,0 z" style="fill:#108449;fill-opacity:1;fill-rule:nonzero;stroke:none" id="path582" inkscape:connector-curvature="0"/></g><g id="g584" transform="translate(699.787,397.9326)"><path d="M 0,0 0.183,-0.158 C 0.08,-0.278 -0.091,-0.453 -0.402,-0.813 -0.709,-1.168 -0.861,-1.367 -0.965,-1.487 l -0.183,0.158 0.292,0.361 c -0.295,0.271 -0.366,0.34 -1.098,0.972 C -3.888,1.675 -4.1,1.857 -4.489,2.17 l -0.32,-0.336 -0.183,0.158 c 0.103,0.12 0.278,0.299 0.585,0.654 0.311,0.36 0.459,0.555 0.562,0.675 l 0.183,-0.158 -0.289,-0.37 c 0.295,-0.272 0.369,-0.336 1.096,-0.963 1.934,-1.671 2.151,-1.859 2.537,-2.175 L 0,0 z" style="fill:none;stroke:#0b904b;stroke-width:0.18000001;stroke-linecap:butt;stroke-linejoin:miter;stroke-miterlimit:4;stroke-opacity:1;stroke-dasharray:none" id="path586" inkscape:connector-curvature="0"/></g><g id="g588" transform="translate(697.4316,401.5508)"><path d="m 0,0 -0.551,0.693 c 0.334,0.291 0.625,0.543 0.983,0.861 0.364,0.324 0.627,0.565 0.966,0.874 L 1.942,1.762 1.798,1.634 C 1.727,1.707 1.401,2.043 1.342,2.072 1.296,2.093 1.211,2.071 0.957,1.845 L 0.697,1.614 C 0.877,1.406 0.927,1.343 1.37,0.845 2.512,-0.437 2.637,-0.577 2.866,-0.823 l 0.239,0.2 0.108,-0.122 C 3.134,-0.815 3.004,-0.917 2.766,-1.129 2.53,-1.339 2.414,-1.456 2.335,-1.526 L 2.227,-1.405 2.453,-1.19 C 2.28,-0.984 2.239,-0.932 1.806,-0.446 0.658,0.844 0.533,0.985 0.284,1.246 L 0.055,1.042 C -0.126,0.881 -0.19,0.811 -0.174,0.695 -0.164,0.616 -0.157,0.602 0.15,0.134 L 0,0 z" style="fill:#108449;fill-opacity:1;fill-rule:nonzero;stroke:none" id="path590" inkscape:connector-curvature="0"/></g><g id="g592" transform="translate(697.4316,401.5508)"><path d="m 0,0 -0.551,0.693 c 0.334,0.291 0.625,0.543 0.983,0.861 0.364,0.324 0.627,0.565 0.966,0.874 L 1.942,1.762 1.798,1.634 C 1.727,1.707 1.401,2.043 1.342,2.072 1.296,2.093 1.211,2.071 0.957,1.845 L 0.697,1.614 C 0.877,1.406 0.927,1.343 1.37,0.845 2.512,-0.437 2.637,-0.577 2.866,-0.823 l 0.239,0.2 0.108,-0.122 C 3.134,-0.815 3.004,-0.917 2.766,-1.129 2.53,-1.339 2.414,-1.456 2.335,-1.526 L 2.227,-1.405 2.453,-1.19 C 2.28,-0.984 2.239,-0.932 1.806,-0.446 0.658,0.844 0.533,0.985 0.284,1.246 L 0.055,1.042 C -0.126,0.881 -0.19,0.811 -0.174,0.695 -0.164,0.616 -0.157,0.602 0.15,0.134 L 0,0 z" style="fill:none;stroke:#0b904b;stroke-width:0.21600001;stroke-linecap:butt;stroke-linejoin:miter;stroke-miterlimit:4;stroke-opacity:1;stroke-dasharray:none" id="path594" inkscape:connector-curvature="0"/></g><g id="g596" transform="translate(701.3715,401.6496)"><path d="M 0,0 0.23,0.172 C 0.083,0.398 0.048,0.454 -0.323,0.988 -1.303,2.398 -1.411,2.552 -1.615,2.825 L -1.856,2.669 -1.949,2.803 c 0.087,0.061 0.231,0.148 0.48,0.321 0.249,0.173 0.381,0.277 0.465,0.336 L -0.911,3.327 -1.161,3.14 c 0.176,-0.267 0.634,-0.926 0.846,-1.231 l 1.063,0.74 C 0.536,2.953 0.078,3.612 -0.115,3.868 L -0.38,3.696 -0.476,3.834 c 0.094,0.052 0.234,0.144 0.483,0.317 0.253,0.175 0.381,0.277 0.469,0.338 L 0.569,4.356 0.336,4.181 C 0.489,3.954 0.527,3.9 0.895,3.37 1.876,1.96 1.986,1.802 2.184,1.531 L 2.425,1.686 2.518,1.553 C 2.431,1.492 2.287,1.405 2.038,1.232 1.789,1.058 1.657,0.954 1.569,0.893 L 1.477,1.027 1.73,1.215 C 1.557,1.485 1.052,2.211 0.835,2.524 L -0.228,1.784 C 0.422,0.85 0.494,0.746 0.684,0.488 L 0.945,0.657 1.041,0.52 C 0.951,0.469 0.81,0.378 0.561,0.204 0.312,0.031 0.18,-0.073 0.093,-0.134 L 0,0 z" style="fill:#108449;fill-opacity:1;fill-rule:nonzero;stroke:none" id="path598" inkscape:connector-curvature="0"/></g><g id="g600" transform="translate(701.3715,401.6496)"><path d="M 0,0 0.23,0.172 C 0.083,0.398 0.048,0.454 -0.323,0.988 -1.303,2.398 -1.411,2.552 -1.615,2.825 L -1.856,2.669 -1.949,2.803 c 0.087,0.061 0.231,0.148 0.48,0.321 0.249,0.173 0.381,0.277 0.465,0.336 L -0.911,3.327 -1.161,3.14 c 0.176,-0.267 0.634,-0.926 0.846,-1.231 l 1.063,0.74 C 0.536,2.953 0.078,3.612 -0.115,3.868 L -0.38,3.696 -0.476,3.834 c 0.094,0.052 0.234,0.144 0.483,0.317 0.253,0.175 0.381,0.277 0.469,0.338 L 0.569,4.356 0.336,4.181 C 0.489,3.954 0.527,3.9 0.895,3.37 1.876,1.96 1.986,1.802 2.184,1.531 L 2.425,1.686 2.518,1.553 C 2.431,1.492 2.287,1.405 2.038,1.232 1.789,1.058 1.657,0.954 1.569,0.893 L 1.477,1.027 1.73,1.215 C 1.557,1.485 1.052,2.211 0.835,2.524 L -0.228,1.784 C 0.422,0.85 0.494,0.746 0.684,0.488 L 0.945,0.657 1.041,0.52 C 0.951,0.469 0.81,0.378 0.561,0.204 0.312,0.031 0.18,-0.073 0.093,-0.134 L 0,0 z" style="fill:none;stroke:#0b904b;stroke-width:0.18000001;stroke-linecap:butt;stroke-linejoin:miter;stroke-miterlimit:4;stroke-opacity:1;stroke-dasharray:none" id="path602" inkscape:connector-curvature="0"/></g><g id="g604" transform="translate(690.9055,388.2823)"><path d="m 0,0 c 0,-0.273 -0.222,-0.495 -0.495,-0.495 -0.273,0 -0.495,0.222 -0.495,0.495 0,0.273 0.222,0.495 0.495,0.495 C -0.222,0.495 0,0.273 0,0" style="fill:#108449;fill-opacity:1;fill-rule:nonzero;stroke:none" id="path606" inkscape:connector-curvature="0"/></g><g id="g608" transform="translate(690.9055,388.2823)"><path d="m 0,0 c 0,-0.273 -0.222,-0.495 -0.495,-0.495 -0.273,0 -0.495,0.222 -0.495,0.495 0,0.273 0.222,0.495 0.495,0.495 C -0.222,0.495 0,0.273 0,0 z" style="fill:none;stroke:#0b904b;stroke-width:0.18000001;stroke-linecap:butt;stroke-linejoin:miter;stroke-miterlimit:4;stroke-opacity:1;stroke-dasharray:none" id="path610" inkscape:connector-curvature="0"/></g><g id="g612" transform="translate(701.4805,399.7573)"><path d="m 0,0 c 0,-0.273 -0.222,-0.495 -0.495,-0.495 -0.273,0 -0.495,0.222 -0.495,0.495 0,0.273 0.222,0.495 0.495,0.495 C -0.222,0.495 0,0.273 0,0" style="fill:#108449;fill-opacity:1;fill-rule:nonzero;stroke:none" id="path614" inkscape:connector-curvature="0"/></g><g id="g616" transform="translate(701.4805,399.7573)"><path d="m 0,0 c 0,-0.273 -0.222,-0.495 -0.495,-0.495 -0.273,0 -0.495,0.222 -0.495,0.495 0,0.273 0.222,0.495 0.495,0.495 C -0.222,0.495 0,0.273 0,0 z" style="fill:none;stroke:#0b904b;stroke-width:0.18000001;stroke-linecap:butt;stroke-linejoin:miter;stroke-miterlimit:4;stroke-opacity:1;stroke-dasharray:none" id="path618" inkscape:connector-curvature="0"/></g><g id="g620" transform="translate(703.8205,401.4673)"><path d="m 0,0 c 0,-0.273 -0.222,-0.495 -0.495,-0.495 -0.273,0 -0.495,0.222 -0.495,0.495 0,0.273 0.222,0.495 0.495,0.495 C -0.222,0.495 0,0.273 0,0" style="fill:#108449;fill-opacity:1;fill-rule:nonzero;stroke:none" id="path622" inkscape:connector-curvature="0"/></g><g id="g624" transform="translate(703.8205,401.4673)"><path d="m 0,0 c 0,-0.273 -0.222,-0.495 -0.495,-0.495 -0.273,0 -0.495,0.222 -0.495,0.495 0,0.273 0.222,0.495 0.495,0.495 C -0.222,0.495 0,0.273 0,0 z" style="fill:none;stroke:#0b904b;stroke-width:0.18000001;stroke-linecap:butt;stroke-linejoin:miter;stroke-miterlimit:4;stroke-opacity:1;stroke-dasharray:none" id="path626" inkscape:connector-curvature="0"/></g><g id="g628" transform="translate(738.6055,388.2373)"><path d="m 0,0 c 0,-0.273 -0.222,-0.495 -0.495,-0.495 -0.273,0 -0.495,0.222 -0.495,0.495 0,0.273 0.222,0.495 0.495,0.495 C -0.222,0.495 0,0.273 0,0" style="fill:#108449;fill-opacity:1;fill-rule:nonzero;stroke:none" id="path630" inkscape:connector-curvature="0"/></g><g id="g632" transform="translate(738.6055,388.2373)"><path d="m 0,0 c 0,-0.273 -0.222,-0.495 -0.495,-0.495 -0.273,0 -0.495,0.222 -0.495,0.495 0,0.273 0.222,0.495 0.495,0.495 C -0.222,0.495 0,0.273 0,0 z" style="fill:none;stroke:#0b904b;stroke-width:0.18000001;stroke-linecap:butt;stroke-linejoin:miter;stroke-miterlimit:4;stroke-opacity:1;stroke-dasharray:none" id="path634" inkscape:connector-curvature="0"/></g><g id="g636" transform="translate(733.5345,340.3737)"><path d="m 0,0 0.078,43.652 c 0,0 0.286,17.982 -19.02,17.982 -19.306,0 -19.427,-18.103 -19.427,-18.103 L -38.248,0 c 0,0 -0.242,-18.526 19.428,-18.526 C 0.486,-18.526 0,0 0,0" style="fill:#108449;fill-opacity:1;fill-rule:nonzero;stroke:none" id="path638" inkscape:connector-curvature="0"/></g><g id="g644" transform="translate(743.5037,342.3375)"><path d="m 0,0 c 0,-16.544 -13.006,-29.956 -29.049,-29.956 -16.043,0 -29.048,13.412 -29.048,29.956 l 0,39.941 c 0,16.545 13.005,29.956 29.048,29.956 C -13.006,69.897 0,56.486 0,39.941 L 0,0 z" style="fill:none;stroke:#108449;stroke-width:0.72000003;stroke-linecap:butt;stroke-linejoin:miter;stroke-miterlimit:4;stroke-opacity:1;stroke-dasharray:none" id="path646" inkscape:connector-curvature="0"/></g><g id="g648" transform="translate(695.4674,372.445)"><path d="m 0,0 c -3.24,0 -5.866,2.626 -5.866,5.866 0,3.24 2.626,5.866 5.866,5.866 3.24,0 5.866,-2.626 5.866,-5.866 C 5.866,2.626 3.24,0 0,0 m 0,13.891 c -4.432,0 -8.025,-3.593 -8.025,-8.025 0,-4.432 3.593,-8.025 8.025,-8.025 4.432,0 8.025,3.593 8.025,8.025 0,4.432 -3.593,8.025 -8.025,8.025" style="fill:#ffffff;fill-opacity:1;fill-rule:nonzero;stroke:none" id="path650" inkscape:connector-curvature="0"/></g><g id="g652" transform="translate(695.4674,372.445)"><path d="m 0,0 c -3.24,0 -5.866,2.626 -5.866,5.866 0,3.24 2.626,5.866 5.866,5.866 3.24,0 5.866,-2.626 5.866,-5.866 C 5.866,2.626 3.24,0 0,0 z m 0,13.891 c -4.432,0 -8.025,-3.593 -8.025,-8.025 0,-4.432 3.593,-8.025 8.025,-8.025 4.432,0 8.025,3.593 8.025,8.025 0,4.432 -3.593,8.025 -8.025,8.025 z" style="fill:none;stroke:#108449;stroke-width:0.50400001;stroke-linecap:butt;stroke-linejoin:miter;stroke-miterlimit:4;stroke-opacity:1;stroke-dasharray:none" id="path654" inkscape:connector-curvature="0"/></g><g id="g656" transform="translate(733.2648,372.3535)"><path d="m 0,0 c -3.24,0 -5.866,2.626 -5.866,5.866 0,3.24 2.626,5.866 5.866,5.866 3.24,0 5.866,-2.626 5.866,-5.866 C 5.866,2.626 3.24,0 0,0 m 0,13.891 c -4.432,0 -8.025,-3.593 -8.025,-8.025 0,-4.432 3.593,-8.025 8.025,-8.025 4.432,0 8.025,3.593 8.025,8.025 0,4.432 -3.593,8.025 -8.025,8.025" style="fill:#ffffff;fill-opacity:1;fill-rule:nonzero;stroke:none" id="path658" inkscape:connector-curvature="0"/></g><g id="g660" transform="translate(733.2648,372.3535)"><path d="m 0,0 c -3.24,0 -5.866,2.626 -5.866,5.866 0,3.24 2.626,5.866 5.866,5.866 3.24,0 5.866,-2.626 5.866,-5.866 C 5.866,2.626 3.24,0 0,0 z m 0,13.891 c -4.432,0 -8.025,-3.593 -8.025,-8.025 0,-4.432 3.593,-8.025 8.025,-8.025 4.432,0 8.025,3.593 8.025,8.025 0,4.432 -3.593,8.025 -8.025,8.025 z" style="fill:none;stroke:#108449;stroke-width:0.50400001;stroke-linecap:butt;stroke-linejoin:miter;stroke-miterlimit:4;stroke-opacity:1;stroke-dasharray:none" id="path662" inkscape:connector-curvature="0"/></g><g id="g664" transform="translate(714.5305,372.5612)"><path d="m 0,0 c -3.24,0 -5.866,2.626 -5.866,5.866 0,3.24 2.626,5.866 5.866,5.866 3.24,0 5.866,-2.626 5.866,-5.866 C 5.866,2.626 3.24,0 0,0 m 0,13.891 c -4.432,0 -8.025,-3.593 -8.025,-8.025 0,-4.432 3.593,-8.025 8.025,-8.025 4.432,0 8.025,3.593 8.025,8.025 0,4.432 -3.593,8.025 -8.025,8.025" style="fill:#ffffff;fill-opacity:1;fill-rule:nonzero;stroke:none" id="path666" inkscape:connector-curvature="0"/></g><g id="g668" transform="translate(714.5305,372.5612)"><path d="m 0,0 c -3.24,0 -5.866,2.626 -5.866,5.866 0,3.24 2.626,5.866 5.866,5.866 3.24,0 5.866,-2.626 5.866,-5.866 C 5.866,2.626 3.24,0 0,0 z m 0,13.891 c -4.432,0 -8.025,-3.593 -8.025,-8.025 0,-4.432 3.593,-8.025 8.025,-8.025 4.432,0 8.025,3.593 8.025,8.025 0,4.432 -3.593,8.025 -8.025,8.025 z" style="fill:none;stroke:#108449;stroke-width:0.50400001;stroke-linecap:butt;stroke-linejoin:miter;stroke-miterlimit:4;stroke-opacity:1;stroke-dasharray:none" id="path670" inkscape:connector-curvature="0"/></g><g id="g672" transform="translate(699.1998,373.9415)"><path d="m 0,0 c -0.02,0.197 -0.03,0.397 -0.03,0.6 0,3.24 2.626,5.866 5.866,5.866 0.634,0 1.077,-0.054 1.65,-0.24 0,0 0.168,0.685 0.39,1.26 0.155,0.402 0.339,0.827 0.3,0.84 -0.808,0.271 -1.441,0.299 -2.34,0.299 -4.432,0 -8.025,-3.593 -8.025,-8.025 0,-0.571 0.141,-1.127 0.255,-1.664 L 0.002,0.04 m 9.554,5.256 c 1.265,-1.076 2.056,-2.845 2.056,-4.636 0,-3.24 -2.626,-5.866 -5.866,-5.866 -2.238,0 -4.141,0.964 -5.13,2.807 l -1.902,-0.956 c 1.337,-2.573 3.932,-4.01 7.032,-4.01 4.432,0 8.024,3.593 8.024,8.025 0,2.761 -1.341,5.202 -3.464,6.646 l -0.75,-2.01 z" style="fill:#ffffff;fill-opacity:1;fill-rule:nonzero;stroke:none" id="path674" inkscape:connector-curvature="0"/></g><g id="g676" transform="translate(699.1998,373.9415)"><path d="m 0,0 c -0.02,0.197 -0.03,0.397 -0.03,0.6 0,3.24 2.626,5.866 5.866,5.866 0.634,0 1.077,-0.054 1.65,-0.24 0,0 0.168,0.685 0.39,1.26 0.155,0.402 0.339,0.827 0.3,0.84 -0.808,0.271 -1.441,0.299 -2.34,0.299 -4.432,0 -8.025,-3.593 -8.025,-8.025 0,-0.571 0.141,-1.127 0.255,-1.664 L 0.002,0.04 m 9.554,5.256 c 1.265,-1.076 2.056,-2.845 2.056,-4.636 0,-3.24 -2.626,-5.866 -5.866,-5.866 -2.238,0 -4.141,0.964 -5.13,2.807 l -1.902,-0.956 c 1.337,-2.573 3.932,-4.01 7.032,-4.01 4.432,0 8.024,3.593 8.024,8.025 0,2.761 -1.341,5.202 -3.464,6.646 l -0.75,-2.01 z" style="fill:none;stroke:#108449;stroke-width:0.50400001;stroke-linecap:butt;stroke-linejoin:miter;stroke-miterlimit:4;stroke-opacity:1;stroke-dasharray:none" id="path678" inkscape:connector-curvature="0"/></g><g id="g680" transform="translate(726.2537,382.2553)"><path d="m 0,0 c -0.721,0.213 -1.484,0.327 -2.273,0.327 -4.432,0 -8.025,-3.593 -8.025,-8.025 0,-0.554 0.11,-1.233 0.217,-1.688 l 2.003,1.058 c -0.033,0.183 -0.061,0.371 -0.061,0.63 0,3.24 2.626,5.866 5.866,5.866 0.504,0 0.994,-0.064 1.461,-0.183 L 0,0 z m 1.276,-3.027 c 1.408,-1.071 2.317,-2.765 2.317,-4.671 0,-3.24 -2.626,-5.866 -5.866,-5.866 -2.128,0 -4.102,1.245 -5.13,2.941 l -1.89,-0.99 c 1.373,-2.452 4.01,-4.11 7.02,-4.11 4.432,0 8.024,3.593 8.024,8.025 0,2.828 -1.404,5.298 -3.614,6.727 L 1.276,-3.027 z" style="fill:#ffffff;fill-opacity:1;fill-rule:nonzero;stroke:none" id="path682" inkscape:connector-curvature="0"/></g><g id="g684" transform="translate(726.2537,382.2553)"><path d="m 0,0 c -0.721,0.213 -1.484,0.327 -2.273,0.327 -4.432,0 -8.025,-3.593 -8.025,-8.025 0,-0.554 0.11,-1.233 0.217,-1.688 l 2.003,1.058 c -0.033,0.183 -0.061,0.371 -0.061,0.63 0,3.24 2.626,5.866 5.866,5.866 0.504,0 0.994,-0.064 1.461,-0.183 L 0,0 z m 1.276,-3.027 c 1.408,-1.071 2.317,-2.765 2.317,-4.671 0,-3.24 -2.626,-5.866 -5.866,-5.866 -2.128,0 -4.102,1.245 -5.13,2.941 l -1.89,-0.99 c 1.373,-2.452 4.01,-4.11 7.02,-4.11 4.432,0 8.024,3.593 8.024,8.025 0,2.828 -1.404,5.298 -3.614,6.727 L 1.276,-3.027 z" style="fill:none;stroke:#108449;stroke-width:0.50400001;stroke-linecap:butt;stroke-linejoin:miter;stroke-miterlimit:4;stroke-opacity:1;stroke-dasharray:none" id="path686" inkscape:connector-curvature="0"/></g><g id="g688" transform="translate(690.647,367.9814)"><path d="m 0,0 c 0.792,-1.008 0.612,-2.412 0.522,-3.636 -0.288,-0.306 0.396,-0.99 -0.27,-0.99 -0.216,0.45 0.072,0.954 -0.09,1.422 l 0,1.566 c -0.45,0.216 0.054,0.918 -0.594,0.936 -0.054,0.054 -0.054,0.18 -0.18,0.144 0,-0.36 -0.306,-0.486 -0.252,-0.864 0.072,-0.468 -0.306,-0.738 -0.18,-1.224 -0.234,-0.27 0.126,-0.63 0,-1.026 -0.306,-0.288 0.288,-0.954 -0.342,-0.954 -0.234,0.972 -0.09,1.98 -0.126,2.988 0.144,0.36 0.18,0.792 0.558,1.08 -0.18,0.36 0.144,0.45 0.306,0.72 0.18,0.18 -0.054,0.774 0.342,0.612 C -0.162,0.54 0.036,0.306 0,0" style="fill:#108449;fill-opacity:1;fill-rule:nonzero;stroke:none" id="path690" inkscape:connector-curvature="0"/></g><g id="g692" transform="translate(690.341,365.5514)"><path d="M 0,0 C -0.108,-0.09 -0.09,-0.234 -0.09,-0.378 0.144,-0.594 0.036,-0.864 0,-1.08 c -0.18,-0.27 -0.036,-0.63 0.09,-0.9 -0.108,-0.36 -0.108,-0.792 -0.054,-1.17 -0.072,-0.072 -0.198,-0.018 -0.288,-0.036 -0.324,0.594 -0.09,1.44 -0.09,2.07 -0.036,0.378 0.054,0.864 0.126,1.206 0.09,0.018 0.162,0 0.216,-0.09" style="fill:#108449;fill-opacity:1;fill-rule:nonzero;stroke:none" id="path694" inkscape:connector-curvature="0"/></g><g id="g696" transform="translate(688.865,362.7074)"><path d="m 0,0 c 0.216,-0.162 0.288,-0.522 0.432,-0.774 0.144,-0.324 0.27,-0.684 0.396,-0.954 -0.054,-0.162 0.144,-0.612 -0.18,-0.648 -0.324,0.558 -0.54,1.242 -0.81,1.854 -0.216,0.306 -0.468,0.9 -0.918,0.774 0.09,-0.378 -0.342,-0.594 -0.126,-0.99 0.09,-0.396 0.162,-0.81 0.342,-1.17 0.108,-0.522 0.324,-1.044 0.36,-1.548 -0.09,-0.054 -0.216,-0.144 -0.306,-0.036 -0.324,0.414 -0.216,1.026 -0.612,1.422 0.072,0.702 -0.504,1.368 -0.216,2.106 0.252,0.45 0.18,1.08 0.558,1.44 C -0.828,0.936 -0.396,0.504 0,0" style="fill:#108449;fill-opacity:1;fill-rule:nonzero;stroke:none" id="path698" inkscape:connector-curvature="0"/></g><g id="g700" transform="translate(692.6809,361.9334)"><path d="m 0,0 c -0.342,-0.162 0.126,-0.54 -0.306,-0.612 -0.054,-0.45 0.288,-0.882 0.036,-1.242 0.054,-0.684 -0.576,-1.134 -0.864,-1.692 -0.054,-0.216 -0.234,-0.486 -0.378,-0.648 l 0,-0.252 c -0.108,0.144 -0.234,-0.144 -0.306,0.072 0.162,0.522 0.486,0.972 0.594,1.512 0.36,0.27 0.342,0.774 0.576,1.134 -0.126,0.342 0.144,0.792 -0.09,1.08 -0.414,-0.054 -0.612,-0.414 -0.918,-0.612 0.18,-0.522 -0.63,-0.522 -0.468,-1.026 -0.324,-0.126 -0.468,-0.468 -0.558,-0.738 -0.108,-0.036 -0.144,0.054 -0.216,0.09 0.072,0.288 0.27,0.522 0.252,0.864 0.558,0.198 0.288,0.954 0.918,1.08 -0.036,0.162 0.018,0.378 0.216,0.378 0.414,0.054 0.774,0.576 1.08,0.954 0.27,0.216 0.54,0 0.432,-0.342" style="fill:#108449;fill-opacity:1;fill-rule:nonzero;stroke:none" id="path702" inkscape:connector-curvature="0"/></g><g id="g704" transform="translate(690.647,361.7174)"><path d="m 0,0 c 0.108,-0.288 -0.18,-0.45 -0.27,-0.612 -0.252,-0.144 -0.342,0.252 -0.504,0.27 -0.108,0.234 0.126,0.468 0.342,0.594 C -0.27,0.216 -0.072,0.198 0,0" style="fill:#108449;fill-opacity:1;fill-rule:nonzero;stroke:none" id="path706" inkscape:connector-curvature="0"/></g><g id="g708" transform="translate(689.045,360.0793)"><path d="m 0,0 c -0.018,-0.36 0.216,-0.648 0.126,-0.954 -0.27,-0.072 -0.396,0.09 -0.468,0.306 -0.306,0.432 0.09,0.99 -0.342,1.368 0.072,0.162 0,0.324 0.126,0.396 C -0.108,0.882 -0.378,0.288 0,0" style="fill:#108449;fill-opacity:1;fill-rule:nonzero;stroke:none" id="path710" inkscape:connector-curvature="0"/></g><g id="g712" transform="translate(690.899,358.9093)"><path d="m 0,0 c 0.036,-0.234 -0.216,-0.324 -0.162,-0.558 -0.468,-0.036 0,-0.468 -0.396,-0.576 -0.162,-0.342 -0.342,-0.684 -0.648,-0.864 -0.144,0.126 -0.09,0.378 -0.036,0.522 0.126,0.252 0.396,0.378 0.432,0.702 0.216,0.306 0.396,0.63 0.648,0.936 C -0.018,0.216 -0.072,0.054 0,0" style="fill:#108449;fill-opacity:1;fill-rule:nonzero;stroke:none" id="path714" inkscape:connector-curvature="0"/></g><g id="g716" transform="translate(687.749,358.1714)"><path d="m 0,0 c 0.09,-0.234 0.45,0.018 0.432,-0.306 0.288,-0.324 0.936,-0.108 0.864,-0.738 0.45,-0.36 0.54,-1.026 0.774,-1.548 0.018,-0.09 0,-0.162 -0.09,-0.216 -0.18,0 -0.27,0.252 -0.432,0.306 0.036,0.306 -0.216,0.486 -0.342,0.738 -0.072,0.342 -0.324,0.666 -0.594,0.9 -0.144,0.036 -0.288,0.072 -0.396,0.18 -0.396,-0.522 0,-0.99 0,-1.566 C 0.252,-2.592 0.612,-2.574 0.612,-2.934 0.99,-3.168 0.72,-3.726 1.17,-3.888 1.206,-4.05 1.116,-4.176 0.99,-4.284 c -0.27,0.036 -0.144,0.468 -0.468,0.486 -0.18,0.63 -0.702,1.188 -0.864,1.854 -0.252,0.468 0.108,0.954 -0.126,1.476 0.072,0.378 -0.306,0.738 0.072,1.08 C -0.252,0.396 0.054,0.324 0,0" style="fill:#108449;fill-opacity:1;fill-rule:nonzero;stroke:none" id="path718" inkscape:connector-curvature="0"/></g><g id="g720" transform="translate(689.693,358.1714)"><path d="m 0,0 c -0.126,-0.18 -0.09,-0.576 -0.432,-0.396 -0.144,0.072 -0.378,0.162 -0.396,0.36 0.036,0.198 0.09,0.432 0.306,0.504 C -0.108,0.63 -0.108,0.234 0,0" style="fill:#108449;fill-opacity:1;fill-rule:nonzero;stroke:none" id="path722" inkscape:connector-curvature="0"/></g><g id="g724" transform="translate(692.6809,356.8753)"><path d="m 0,0 c -0.09,-0.18 -0.108,-0.396 -0.09,-0.612 l -0.126,-0.126 c 0,-0.54 -0.072,-1.008 0.072,-1.512 -0.144,-0.216 -0.396,-0.36 -0.378,-0.684 -0.36,-0.36 -0.522,-0.882 -0.864,-1.17 -0.288,-0.126 -0.198,-0.558 -0.612,-0.468 l 0,0.288 c 0.18,0.162 0.18,0.45 0.396,0.612 0,0.198 0.252,0.216 0.306,0.396 0.09,0.486 0.702,0.756 0.594,1.332 l 0,0.954 c -0.306,0.108 -0.378,-0.324 -0.684,-0.342 0.018,-0.144 -0.036,-0.234 -0.126,-0.306 -0.432,0 -0.396,-0.576 -0.702,-0.828 0.036,-0.108 -0.09,-0.18 -0.162,-0.216 -0.126,0.018 -0.252,0.072 -0.27,0.216 0.27,0.324 0.252,0.666 0.612,0.918 0.144,0.36 0.486,0.666 0.864,0.864 0.324,0.306 0.648,0.504 0.9,0.9 C -0.126,0.234 0.072,0.198 0,0" style="fill:#108449;fill-opacity:1;fill-rule:nonzero;stroke:none" id="path726" inkscape:connector-curvature="0"/></g><g id="g728" transform="translate(690.809,356.6234)"><path d="m 0,0 c 0.09,-0.342 -0.108,-0.486 -0.288,-0.648 -0.306,-0.054 -0.324,0.216 -0.486,0.378 -0.054,0.234 0.072,0.414 0.216,0.522 C -0.342,0.234 -0.162,0.144 0,0" style="fill:#108449;fill-opacity:1;fill-rule:nonzero;stroke:none" id="path730" inkscape:connector-curvature="0"/></g><g id="g732" transform="translate(689.4769,354.5893)"><path d="M 0,0 C 0.27,-0.306 0.486,-0.684 0.396,-1.08 -0.054,-0.828 -0.18,-0.396 -0.468,0 -0.306,0.378 -1.026,0.666 -0.648,1.026 -0.432,0.684 0.162,0.54 0,0" style="fill:#108449;fill-opacity:1;fill-rule:nonzero;stroke:none" id="path734" inkscape:connector-curvature="0"/></g><g id="g736" transform="translate(691.079,353.9413)"><path d="m 0,0 c -0.162,-0.18 -0.216,-0.396 -0.306,-0.612 -0.36,-0.162 -0.306,-0.936 -0.9,-0.684 0.036,0.576 0.648,0.756 0.72,1.332 C -0.36,0.27 0.162,0.342 0,0" style="fill:#108449;fill-opacity:1;fill-rule:nonzero;stroke:none" id="path738" inkscape:connector-curvature="0"/></g><g id="g740" transform="translate(687.713,353.1134)"><path d="M 0,0 C 0.198,-0.378 0.72,-0.234 0.9,-0.648 1.332,-0.846 0.972,-0.252 1.206,-0.126 1.404,-0.054 1.332,0.27 1.584,0.27 1.89,0.09 1.998,-0.306 1.944,-0.594 1.71,-0.666 1.53,-0.81 1.296,-0.81 1.26,-1.548 2.088,-2.016 2.016,-2.808 c 0.072,-0.18 0.252,-0.324 0.18,-0.558 l -0.09,-0.09 C 1.8,-3.114 1.494,-2.61 1.368,-2.106 0.9,-1.782 1.026,-0.918 0.252,-0.954 l -0.126,-0.9 c -0.162,-0.27 0.126,-0.558 0.09,-0.864 0.18,-0.666 0.648,-1.116 0.774,-1.818 0.126,-0.072 0.072,-0.27 0.216,-0.306 C 1.296,-4.914 1.188,-5.076 1.08,-5.094 0.864,-5.166 0.864,-4.914 0.774,-4.842 0.81,-4.554 0.504,-4.518 0.558,-4.23 -0.45,-2.988 -0.72,-1.296 -0.432,0.306 -0.18,0.594 -0.18,0.09 0,0" style="fill:#108449;fill-opacity:1;fill-rule:nonzero;stroke:none" id="path742" inkscape:connector-curvature="0"/></g><g id="g744" transform="translate(690.7729,351.0793)"><path d="m 0,0 c 0.018,-0.162 -0.09,-0.27 -0.18,-0.378 -0.234,0 -0.54,-0.234 -0.684,0.126 -0.054,0.27 0.072,0.522 0.252,0.648 C -0.45,0.504 -0.306,0.468 -0.18,0.36 -0.126,0.198 0.054,0.198 0,0" style="fill:#108449;fill-opacity:1;fill-rule:nonzero;stroke:none" id="path746" inkscape:connector-curvature="0"/></g><g id="g748" transform="translate(692.6809,351.2234)"><path d="m 0,0 c -0.054,-0.468 0.108,-0.954 -0.144,-1.386 0.108,-0.27 0.018,-0.576 -0.072,-0.828 0.144,-0.306 -0.306,-0.432 -0.09,-0.738 -0.36,-0.18 -0.252,-0.756 -0.738,-0.81 -0.09,-0.414 -0.558,-0.45 -0.648,-0.864 -0.126,-0.126 -0.288,-0.126 -0.432,-0.18 -0.306,0.288 0.63,0.918 -0.126,0.702 -0.072,-0.18 -0.234,-0.36 -0.342,-0.486 -0.036,0.018 -0.054,0.054 -0.09,0.054 l -0.09,-0.09 c -0.126,0.054 -0.108,0.234 -0.18,0.342 0.306,0.396 0.522,0.702 0.954,1.044 0.144,0.18 0.234,0.432 0.486,0.504 0.108,-0.036 0.126,-0.162 0.036,-0.252 -0.144,-0.108 -0.036,-0.36 -0.252,-0.396 -0.072,-0.198 -0.198,-0.288 -0.27,-0.504 0.486,0 0.666,0.63 0.99,0.936 0.324,0.54 0.612,1.296 0.306,1.872 -0.162,-0.162 -0.486,-0.198 -0.468,-0.486 -0.198,0.018 -0.342,-0.216 -0.432,-0.342 -0.234,-0.216 -0.396,-0.576 -0.702,-0.774 l -0.216,0 c -0.054,0.108 0.072,0.252 0.09,0.378 0.594,0.918 1.35,1.692 2.286,2.304 L 0,0 z" style="fill:#108449;fill-opacity:1;fill-rule:nonzero;stroke:none" id="path750" inkscape:connector-curvature="0"/></g><g id="g752" transform="translate(689.441,349.4053)"><path d="m 0,0 c -0.018,-0.126 -0.216,-0.162 -0.144,-0.306 0.27,-0.108 0.108,-0.414 0.396,-0.468 0.09,-0.27 0.18,-0.504 0.216,-0.792 C 0.288,-1.584 0.18,-1.404 0.036,-1.35 L -0.702,0.216 C -0.774,0.414 -0.594,0.45 -0.432,0.432 -0.342,0.216 -0.108,0.162 0,0" style="fill:#108449;fill-opacity:1;fill-rule:nonzero;stroke:none" id="path754" inkscape:connector-curvature="0"/></g><g id="g756" transform="translate(688.649,345.7693)"><path d="M 0,0 C 0.45,-0.684 0.918,-1.242 1.008,-2.07 1.17,-2.214 1.368,-2.286 1.35,-2.538 1.332,-2.664 1.188,-2.682 1.08,-2.682 0.828,-2.07 0.414,-1.62 0.09,-1.026 c -0.162,0.198 -0.198,0.486 -0.468,0.594 -0.486,-0.054 -0.18,-0.63 -0.27,-0.864 0.126,-0.378 0.09,-0.81 0.36,-1.116 0.09,-0.648 0.9,-1.17 0.504,-1.728 -0.666,0.468 -0.774,1.332 -1.206,1.98 -0.126,0.594 -0.306,1.26 -0.162,1.854 -0.09,0.54 -0.306,1.116 -0.216,1.602 l 0.126,0.09 C -0.936,0.882 -0.504,0.342 0,0" style="fill:#108449;fill-opacity:1;fill-rule:nonzero;stroke:none" id="path758" inkscape:connector-curvature="0"/></g><g id="g760" transform="translate(689.513,346.8134)"><path d="M 0,0 -0.036,-0.558 C -0.36,-0.666 -0.63,-0.792 -0.9,-0.486 -1.044,-0.198 -0.864,0.108 -0.648,0.252 -0.378,0.288 -0.144,0.234 0,0" style="fill:#108449;fill-opacity:1;fill-rule:nonzero;stroke:none" id="path762" inkscape:connector-curvature="0"/></g><g id="g764" transform="translate(692.6809,345.5534)"><path d="m 0,0 c 0.234,-0.63 -0.468,-0.99 -0.216,-1.674 -0.324,-0.144 0.054,-0.306 0,-0.486 -0.018,-0.378 0.198,-0.702 0.072,-1.08 -0.126,-0.09 -0.054,-0.36 -0.252,-0.432 -0.252,-0.468 -0.63,-0.972 -0.99,-1.332 -0.072,-0.18 -0.27,-0.432 -0.432,-0.558 -0.252,-0.036 -0.162,0.198 -0.216,0.342 -0.036,0.324 0.486,0.144 0.432,0.522 0.27,0.432 0.486,0.882 0.738,1.332 0.18,0.072 0.126,0.306 0.288,0.432 -0.108,0.378 0.054,0.882 -0.162,1.206 -0.252,-0.162 -0.432,-0.216 -0.648,-0.432 -0.306,-0.378 -0.612,-0.972 -0.99,-1.242 -0.18,0.054 -0.126,0.252 -0.054,0.378 0.486,0.216 0.306,0.774 0.648,1.08 0.072,0.252 0.486,0.36 0.612,0.648 C -0.612,-1.08 -0.486,-0.324 0,0" style="fill:#108449;fill-opacity:1;fill-rule:nonzero;stroke:none" id="path766" inkscape:connector-curvature="0"/></g><g id="g768" transform="translate(690.593,345.2114)"><path d="M 0,0 C 0.108,-0.162 0.162,-0.432 0.144,-0.684 0,-0.864 -0.234,-0.846 -0.432,-0.9 -0.738,-0.72 -0.738,-0.414 -0.72,-0.09 -0.54,0.072 -0.216,0.162 0,0" style="fill:#108449;fill-opacity:1;fill-rule:nonzero;stroke:none" id="path770" inkscape:connector-curvature="0"/></g><g id="g772" transform="translate(689.6569,342.5834)"><path d="M 0,0 C 0.054,-0.396 0.504,-0.684 0.342,-1.134 0.108,-1.17 -0.072,-0.774 -0.216,-0.576 -0.378,-0.072 -0.792,0.36 -0.702,0.9 -0.27,0.72 -0.306,0.234 0,0" style="fill:#108449;fill-opacity:1;fill-rule:nonzero;stroke:none" id="path774" inkscape:connector-curvature="0"/></g><g id="g776" transform="translate(691.2051,341.7193)"><path d="M 0,0 C -0.036,-0.144 -0.252,-0.216 -0.18,-0.396 -0.288,-0.594 -0.666,-0.648 -0.522,-1.008 -0.63,-1.188 -0.81,-1.188 -0.954,-1.08 -1.008,-0.45 -0.378,-0.108 -0.09,0.378 0.126,0.306 -0.054,0.108 0,0" style="fill:#108449;fill-opacity:1;fill-rule:nonzero;stroke:none" id="path778" inkscape:connector-curvature="0"/></g><g id="g780" transform="translate(687.839,340.0634)"><path d="M 0,0 C 0.342,-0.378 0.774,-0.522 1.026,-0.936 1.26,-1.008 1.26,-1.386 1.548,-1.422 1.764,-1.872 2.178,-2.394 2.16,-2.934 2.106,-2.97 2.088,-3.042 2.07,-3.096 1.818,-3.096 1.836,-2.772 1.638,-2.628 1.35,-2.376 1.35,-1.908 0.99,-1.674 0.846,-1.35 0.45,-1.08 0.09,-0.99 -0.576,-2.106 0.684,-2.808 0.864,-3.708 0.99,-3.96 1.314,-4.122 1.242,-4.446 c -0.126,-0.018 -0.27,-0.162 -0.378,0 -0.738,0.954 -1.548,1.998 -1.512,3.24 0.144,0.648 0.09,1.332 0.036,1.944 0.054,0.108 0.162,0.09 0.27,0.09 C -0.126,0.594 -0.09,0.288 0,0" style="fill:#108449;fill-opacity:1;fill-rule:nonzero;stroke:none" id="path782" inkscape:connector-curvature="0"/></g><g id="g784" transform="translate(689.783,340.0274)"><path d="m 0,0 c -0.018,-0.306 0.09,-0.684 -0.27,-0.828 -0.252,-0.036 -0.486,0.054 -0.594,0.27 0.054,0.27 0.036,0.648 0.342,0.738 C -0.36,0.09 -0.126,0.18 0,0" style="fill:#108449;fill-opacity:1;fill-rule:nonzero;stroke:none" id="path786" inkscape:connector-curvature="0"/></g><g id="g788" transform="translate(692.969,338.9474)"><path d="m 0,0 c -0.252,-0.162 -0.036,-0.522 -0.162,-0.738 -0.054,-0.54 0.342,-1.35 -0.18,-1.764 -0.054,-0.36 -0.414,-0.36 -0.342,-0.774 -0.432,-0.414 -0.324,-1.278 -0.954,-1.476 -0.054,0.396 -0.504,0.288 -0.738,0.306 -0.324,0.414 0.414,0.558 0.306,0.954 0.306,0.324 0.234,0.864 0.738,1.08 0.216,-0.108 0.126,-0.324 0.09,-0.522 -0.216,0.018 -0.18,-0.216 -0.18,-0.342 0.036,-0.054 0.09,-0.054 0.126,-0.054 0.342,0.702 0.792,1.35 0.738,2.16 -0.378,0.18 -0.594,-0.396 -0.864,-0.558 -0.072,-0.324 -0.36,-0.558 -0.468,-0.864 -0.234,-0.018 -0.072,-0.36 -0.306,-0.342 0.036,-0.234 -0.252,-0.306 -0.216,-0.522 -0.054,-0.162 -0.234,-0.018 -0.306,-0.126 0.18,0.972 0.558,2.07 1.476,2.682 0.45,0.342 0.648,0.756 0.738,1.296 0.108,0.126 0.252,0.234 0.378,0.252 C 0.054,0.486 -0.108,0.18 0,0" style="fill:#108449;fill-opacity:1;fill-rule:nonzero;stroke:none" id="path790" inkscape:connector-curvature="0"/></g><g id="g792" transform="translate(691.025,338.5153)"><path d="m 0,0 c 0.072,-0.162 0.198,-0.342 0.09,-0.522 -0.18,-0.27 -0.486,-0.198 -0.774,-0.216 -0.162,0.216 -0.162,0.54 -0.09,0.774 0.072,0.144 0.27,0.144 0.396,0.216 C -0.162,0.288 -0.126,0.09 0,0" style="fill:#108449;fill-opacity:1;fill-rule:nonzero;stroke:none" id="path794" inkscape:connector-curvature="0"/></g><g id="g796" transform="translate(689.819,336.1034)"><path d="m 0,0 c -0.072,-0.09 -0.144,-0.144 -0.252,-0.144 -0.18,0.288 -0.414,0.63 -0.738,0.648 0.468,0.342 -0.558,0.558 0.036,0.828 C -0.486,1.062 -0.09,0.54 0,0" style="fill:#108449;fill-opacity:1;fill-rule:nonzero;stroke:none" id="path798" inkscape:connector-curvature="0"/></g><g id="g800" transform="translate(691.5109,335.4014)"><path d="M 0,0 C 0.018,-0.144 -0.018,-0.378 -0.126,-0.522 -0.234,-0.504 -0.27,-0.702 -0.396,-0.648 -0.414,-0.36 -0.216,-0.108 0,0" style="fill:#108449;fill-opacity:1;fill-rule:nonzero;stroke:none" id="path802" inkscape:connector-curvature="0"/></g><g id="g804" transform="translate(738.1749,368.2113)"><path d="m 0,0 c -0.792,-1.008 -0.612,-2.412 -0.522,-3.636 0.288,-0.306 -0.396,-0.99 0.27,-0.99 0.216,0.45 -0.072,0.954 0.09,1.422 l 0,1.566 c 0.45,0.216 -0.054,0.918 0.594,0.936 0.054,0.054 0.054,0.18 0.18,0.144 0,-0.36 0.306,-0.486 0.252,-0.864 -0.072,-0.468 0.306,-0.738 0.18,-1.224 0.234,-0.27 -0.126,-0.63 0,-1.026 0.306,-0.288 -0.288,-0.954 0.342,-0.954 0.234,0.972 0.09,1.98 0.126,2.988 -0.144,0.36 -0.18,0.792 -0.558,1.08 0.18,0.36 -0.144,0.45 -0.306,0.72 C 0.468,0.342 0.702,0.936 0.306,0.774 0.162,0.54 -0.036,0.306 0,0" style="fill:#108449;fill-opacity:1;fill-rule:nonzero;stroke:none" id="path806" inkscape:connector-curvature="0"/></g><g id="g808" transform="translate(738.4807,365.7813)"><path d="M 0,0 C 0.108,-0.09 0.09,-0.234 0.09,-0.378 -0.144,-0.594 -0.036,-0.864 0,-1.08 c 0.18,-0.27 0.036,-0.63 -0.09,-0.9 0.108,-0.36 0.108,-0.792 0.054,-1.17 0.072,-0.072 0.198,-0.018 0.288,-0.036 0.324,0.594 0.09,1.44 0.09,2.07 C 0.378,-0.738 0.288,-0.252 0.216,0.09 0.126,0.108 0.054,0.09 0,0" style="fill:#108449;fill-opacity:1;fill-rule:nonzero;stroke:none" id="path810" inkscape:connector-curvature="0"/></g><g id="g812" transform="translate(739.9569,362.9373)"><path d="m 0,0 c -0.216,-0.162 -0.288,-0.522 -0.432,-0.774 -0.144,-0.324 -0.27,-0.684 -0.396,-0.954 0.054,-0.162 -0.144,-0.612 0.18,-0.648 0.324,0.558 0.54,1.242 0.81,1.854 0.216,0.306 0.468,0.9 0.918,0.774 C 0.99,-0.126 1.422,-0.342 1.206,-0.738 1.116,-1.134 1.044,-1.548 0.864,-1.908 0.756,-2.43 0.54,-2.952 0.504,-3.456 0.594,-3.51 0.72,-3.6 0.81,-3.492 1.134,-3.078 1.026,-2.466 1.422,-2.07 1.35,-1.368 1.926,-0.702 1.638,0.036 1.386,0.486 1.458,1.116 1.08,1.476 0.828,0.936 0.396,0.504 0,0" style="fill:#108449;fill-opacity:1;fill-rule:nonzero;stroke:none" id="path814" inkscape:connector-curvature="0"/></g><g id="g816" transform="translate(736.1409,362.1633)"><path d="M 0,0 C 0.342,-0.162 -0.126,-0.54 0.306,-0.612 0.36,-1.062 0.018,-1.494 0.27,-1.854 0.216,-2.538 0.846,-2.988 1.134,-3.546 1.188,-3.762 1.368,-4.032 1.512,-4.194 l 0,-0.252 c 0.108,0.144 0.234,-0.144 0.306,0.072 -0.162,0.522 -0.486,0.972 -0.594,1.512 -0.36,0.27 -0.342,0.774 -0.576,1.134 0.126,0.342 -0.144,0.792 0.09,1.08 C 1.152,-0.702 1.35,-1.062 1.656,-1.26 1.476,-1.782 2.286,-1.782 2.124,-2.286 2.448,-2.412 2.592,-2.754 2.682,-3.024 2.79,-3.06 2.826,-2.97 2.898,-2.934 2.826,-2.646 2.628,-2.412 2.646,-2.07 2.088,-1.872 2.358,-1.116 1.728,-0.99 1.764,-0.828 1.71,-0.612 1.512,-0.612 1.098,-0.558 0.738,-0.036 0.432,0.342 0.162,0.558 -0.108,0.342 0,0" style="fill:#108449;fill-opacity:1;fill-rule:nonzero;stroke:none" id="path818" inkscape:connector-curvature="0"/></g><g id="g820" transform="translate(738.1749,361.9473)"><path d="M 0,0 C -0.108,-0.288 0.18,-0.45 0.27,-0.612 0.522,-0.756 0.612,-0.36 0.774,-0.342 0.882,-0.108 0.648,0.126 0.432,0.252 0.27,0.216 0.072,0.198 0,0" style="fill:#108449;fill-opacity:1;fill-rule:nonzero;stroke:none" id="path822" inkscape:connector-curvature="0"/></g><g id="g824" transform="translate(739.7769,360.3092)"><path d="m 0,0 c 0.018,-0.36 -0.216,-0.648 -0.126,-0.954 0.27,-0.072 0.396,0.09 0.468,0.306 0.306,0.432 -0.09,0.99 0.342,1.368 -0.072,0.162 0,0.324 -0.126,0.396 C 0.108,0.882 0.378,0.288 0,0" style="fill:#108449;fill-opacity:1;fill-rule:nonzero;stroke:none" id="path826" inkscape:connector-curvature="0"/></g><g id="g828" transform="translate(737.9228,359.1392)"><path d="m 0,0 c -0.036,-0.234 0.216,-0.324 0.162,-0.558 0.468,-0.036 0,-0.468 0.396,-0.576 C 0.72,-1.476 0.9,-1.818 1.206,-1.998 1.35,-1.872 1.296,-1.62 1.242,-1.476 1.116,-1.224 0.846,-1.098 0.81,-0.774 0.594,-0.468 0.414,-0.144 0.162,0.162 0.018,0.216 0.072,0.054 0,0" style="fill:#108449;fill-opacity:1;fill-rule:nonzero;stroke:none" id="path830" inkscape:connector-curvature="0"/></g><g id="g832" transform="translate(741.0728,358.4013)"><path d="m 0,0 c -0.09,-0.234 -0.45,0.018 -0.432,-0.306 -0.288,-0.324 -0.936,-0.108 -0.864,-0.738 -0.45,-0.36 -0.54,-1.026 -0.774,-1.548 -0.018,-0.09 0,-0.162 0.09,-0.216 0.18,0 0.27,0.252 0.432,0.306 -0.036,0.306 0.216,0.486 0.342,0.738 0.072,0.342 0.324,0.666 0.594,0.9 0.144,0.036 0.288,0.072 0.396,0.18 0.396,-0.522 0,-0.99 0,-1.566 -0.036,-0.342 -0.396,-0.324 -0.396,-0.684 -0.378,-0.234 -0.108,-0.792 -0.558,-0.954 -0.036,-0.162 0.054,-0.288 0.18,-0.396 0.27,0.036 0.144,0.468 0.468,0.486 0.18,0.63 0.702,1.188 0.864,1.854 0.252,0.468 -0.108,0.954 0.126,1.476 C 0.396,-0.09 0.774,0.27 0.396,0.612 0.252,0.396 -0.054,0.324 0,0" style="fill:#108449;fill-opacity:1;fill-rule:nonzero;stroke:none" id="path834" inkscape:connector-curvature="0"/></g><g id="g836" transform="translate(739.1288,358.4013)"><path d="m 0,0 c 0.126,-0.18 0.09,-0.576 0.432,-0.396 0.144,0.072 0.378,0.162 0.396,0.36 C 0.792,0.162 0.738,0.396 0.522,0.468 0.108,0.63 0.108,0.234 0,0" style="fill:#108449;fill-opacity:1;fill-rule:nonzero;stroke:none" id="path838" inkscape:connector-curvature="0"/></g><g id="g840" transform="translate(736.1409,357.1052)"><path d="m 0,0 c 0.09,-0.18 0.108,-0.396 0.09,-0.612 l 0.126,-0.126 c 0,-0.54 0.072,-1.008 -0.072,-1.512 0.144,-0.216 0.396,-0.36 0.378,-0.684 0.36,-0.36 0.522,-0.882 0.864,-1.17 0.288,-0.126 0.198,-0.558 0.612,-0.468 l 0,0.288 c -0.18,0.162 -0.18,0.45 -0.396,0.612 0,0.198 -0.252,0.216 -0.306,0.396 -0.09,0.486 -0.702,0.756 -0.594,1.332 l 0,0.954 c 0.306,0.108 0.378,-0.324 0.684,-0.342 -0.018,-0.144 0.036,-0.234 0.126,-0.306 0.432,0 0.396,-0.576 0.702,-0.828 -0.036,-0.108 0.09,-0.18 0.162,-0.216 0.126,0.018 0.252,0.072 0.27,0.216 C 2.376,-2.142 2.394,-1.8 2.034,-1.548 1.89,-1.188 1.548,-0.882 1.17,-0.684 0.846,-0.378 0.522,-0.18 0.27,0.216 0.126,0.234 -0.072,0.198 0,0" style="fill:#108449;fill-opacity:1;fill-rule:nonzero;stroke:none" id="path842" inkscape:connector-curvature="0"/></g><g id="g844" transform="translate(738.0128,356.8533)"><path d="M 0,0 C -0.09,-0.342 0.108,-0.486 0.288,-0.648 0.594,-0.702 0.612,-0.432 0.774,-0.27 0.828,-0.036 0.702,0.144 0.558,0.252 0.342,0.234 0.162,0.144 0,0" style="fill:#108449;fill-opacity:1;fill-rule:nonzero;stroke:none" id="path846" inkscape:connector-curvature="0"/></g><g id="g848" transform="translate(739.3448,354.8192)"><path d="M 0,0 C -0.27,-0.306 -0.486,-0.684 -0.396,-1.08 0.054,-0.828 0.18,-0.396 0.468,0 0.306,0.378 1.026,0.666 0.648,1.026 0.432,0.684 -0.162,0.54 0,0" style="fill:#108449;fill-opacity:1;fill-rule:nonzero;stroke:none" id="path850" inkscape:connector-curvature="0"/></g><g id="g852" transform="translate(737.7428,354.1713)"><path d="m 0,0 c 0.162,-0.18 0.216,-0.396 0.306,-0.612 0.36,-0.162 0.306,-0.936 0.9,-0.684 C 1.17,-0.72 0.558,-0.54 0.486,0.036 0.36,0.27 -0.162,0.342 0,0" style="fill:#108449;fill-opacity:1;fill-rule:nonzero;stroke:none" id="path854" inkscape:connector-curvature="0"/></g><g id="g856" transform="translate(741.1088,353.3433)"><path d="m 0,0 c -0.198,-0.378 -0.72,-0.234 -0.9,-0.648 -0.432,-0.198 -0.072,0.396 -0.306,0.522 -0.198,0.072 -0.126,0.396 -0.378,0.396 -0.306,-0.18 -0.414,-0.576 -0.36,-0.864 0.234,-0.072 0.414,-0.216 0.648,-0.216 0.036,-0.738 -0.792,-1.206 -0.72,-1.998 -0.072,-0.18 -0.252,-0.324 -0.18,-0.558 l 0.09,-0.09 c 0.306,0.342 0.612,0.846 0.738,1.35 0.468,0.324 0.342,1.188 1.116,1.152 l 0.126,-0.9 c 0.162,-0.27 -0.126,-0.558 -0.09,-0.864 -0.18,-0.666 -0.648,-1.116 -0.774,-1.818 -0.126,-0.072 -0.072,-0.27 -0.216,-0.306 -0.09,-0.072 0.018,-0.234 0.126,-0.252 0.216,-0.072 0.216,0.18 0.306,0.252 -0.036,0.288 0.27,0.324 0.216,0.612 1.008,1.242 1.278,2.934 0.99,4.536 C 0.18,0.594 0.18,0.09 0,0" style="fill:#108449;fill-opacity:1;fill-rule:nonzero;stroke:none" id="path858" inkscape:connector-curvature="0"/></g><g id="g860" transform="translate(738.0488,351.3092)"><path d="m 0,0 c -0.018,-0.162 0.09,-0.27 0.18,-0.378 0.234,0 0.54,-0.234 0.684,0.126 C 0.918,0.018 0.792,0.27 0.612,0.396 0.45,0.504 0.306,0.468 0.18,0.36 0.126,0.198 -0.054,0.198 0,0" style="fill:#108449;fill-opacity:1;fill-rule:nonzero;stroke:none" id="path862" inkscape:connector-curvature="0"/></g><g id="g864" transform="translate(736.1409,351.4533)"><path d="m 0,0 c 0.054,-0.468 -0.108,-0.954 0.144,-1.386 -0.108,-0.27 -0.018,-0.576 0.072,-0.828 -0.144,-0.306 0.306,-0.432 0.09,-0.738 0.36,-0.18 0.252,-0.756 0.738,-0.81 0.09,-0.414 0.558,-0.45 0.648,-0.864 0.126,-0.126 0.288,-0.126 0.432,-0.18 0.306,0.288 -0.63,0.918 0.126,0.702 0.072,-0.18 0.234,-0.36 0.342,-0.486 0.036,0.018 0.054,0.054 0.09,0.054 l 0.09,-0.09 c 0.126,0.054 0.108,0.234 0.18,0.342 C 2.646,-3.888 2.43,-3.582 1.998,-3.24 1.854,-3.06 1.764,-2.808 1.512,-2.736 1.404,-2.772 1.386,-2.898 1.476,-2.988 1.62,-3.096 1.512,-3.348 1.728,-3.384 1.8,-3.582 1.926,-3.672 1.998,-3.888 c -0.486,0 -0.666,0.63 -0.99,0.936 -0.324,0.54 -0.612,1.296 -0.306,1.872 0.162,-0.162 0.486,-0.198 0.468,-0.486 0.198,0.018 0.342,-0.216 0.432,-0.342 0.234,-0.216 0.396,-0.576 0.702,-0.774 l 0.216,0 C 2.574,-2.574 2.448,-2.43 2.43,-2.304 1.836,-1.386 1.08,-0.612 0.144,0 L 0,0 z" style="fill:#108449;fill-opacity:1;fill-rule:nonzero;stroke:none" id="path866" inkscape:connector-curvature="0"/></g><g id="g868" transform="translate(739.3807,349.6352)"><path d="m 0,0 c 0.018,-0.126 0.216,-0.162 0.144,-0.306 -0.27,-0.108 -0.108,-0.414 -0.396,-0.468 -0.09,-0.27 -0.18,-0.504 -0.216,-0.792 0.18,-0.018 0.288,0.162 0.432,0.216 L 0.702,0.216 C 0.774,0.414 0.594,0.45 0.432,0.432 0.342,0.216 0.108,0.162 0,0" style="fill:#108449;fill-opacity:1;fill-rule:nonzero;stroke:none" id="path870" inkscape:connector-curvature="0"/></g><g id="g872" transform="translate(740.1728,345.9992)"><path d="m 0,0 c -0.45,-0.684 -0.918,-1.242 -1.008,-2.07 -0.162,-0.144 -0.36,-0.216 -0.342,-0.468 0.018,-0.126 0.162,-0.144 0.27,-0.144 0.252,0.612 0.666,1.062 0.99,1.656 0.162,0.198 0.198,0.486 0.468,0.594 0.486,-0.054 0.18,-0.63 0.27,-0.864 -0.126,-0.378 -0.09,-0.81 -0.36,-1.116 -0.09,-0.648 -0.9,-1.17 -0.504,-1.728 0.666,0.468 0.774,1.332 1.206,1.98 0.126,0.594 0.306,1.26 0.162,1.854 0.09,0.54 0.306,1.116 0.216,1.602 L 1.242,1.386 C 0.936,0.882 0.504,0.342 0,0" style="fill:#108449;fill-opacity:1;fill-rule:nonzero;stroke:none" id="path874" inkscape:connector-curvature="0"/></g><g id="g876" transform="translate(739.3088,347.0433)"><path d="M 0,0 0.036,-0.558 C 0.36,-0.666 0.63,-0.792 0.9,-0.486 1.044,-0.198 0.864,0.108 0.648,0.252 0.378,0.288 0.144,0.234 0,0" style="fill:#108449;fill-opacity:1;fill-rule:nonzero;stroke:none" id="path878" inkscape:connector-curvature="0"/></g><g id="g880" transform="translate(736.1409,345.7833)"><path d="M 0,0 C -0.234,-0.63 0.468,-0.99 0.216,-1.674 0.54,-1.818 0.162,-1.98 0.216,-2.16 0.234,-2.538 0.018,-2.862 0.144,-3.24 0.27,-3.33 0.198,-3.6 0.396,-3.672 c 0.252,-0.468 0.63,-0.972 0.99,-1.332 0.072,-0.18 0.27,-0.432 0.432,-0.558 0.252,-0.036 0.162,0.198 0.216,0.342 0.036,0.324 -0.486,0.144 -0.432,0.522 -0.27,0.432 -0.486,0.882 -0.738,1.332 -0.18,0.072 -0.126,0.306 -0.288,0.432 0.108,0.378 -0.054,0.882 0.162,1.206 C 0.99,-1.89 1.17,-1.944 1.386,-2.16 1.692,-2.538 1.998,-3.132 2.376,-3.402 2.556,-3.348 2.502,-3.15 2.43,-3.024 1.944,-2.808 2.124,-2.25 1.782,-1.944 1.71,-1.692 1.296,-1.584 1.17,-1.296 0.612,-1.08 0.486,-0.324 0,0" style="fill:#108449;fill-opacity:1;fill-rule:nonzero;stroke:none" id="path882" inkscape:connector-curvature="0"/></g><g id="g884" transform="translate(738.2288,345.4413)"><path d="M 0,0 C -0.108,-0.162 -0.162,-0.432 -0.144,-0.684 0,-0.864 0.234,-0.846 0.432,-0.9 0.738,-0.72 0.738,-0.414 0.72,-0.09 0.54,0.072 0.216,0.162 0,0" style="fill:#108449;fill-opacity:1;fill-rule:nonzero;stroke:none" id="path886" inkscape:connector-curvature="0"/></g><g id="g888" transform="translate(739.1649,342.8134)"><path d="m 0,0 c -0.054,-0.396 -0.504,-0.684 -0.342,-1.134 0.234,-0.036 0.414,0.36 0.558,0.558 C 0.378,-0.072 0.792,0.36 0.702,0.9 0.27,0.72 0.306,0.234 0,0" style="fill:#108449;fill-opacity:1;fill-rule:nonzero;stroke:none" id="path890" inkscape:connector-curvature="0"/></g><g id="g892" transform="translate(737.6168,341.9492)"><path d="M 0,0 C 0.036,-0.144 0.252,-0.216 0.18,-0.396 0.288,-0.594 0.666,-0.648 0.522,-1.008 0.63,-1.188 0.81,-1.188 0.954,-1.08 1.008,-0.45 0.378,-0.108 0.09,0.378 -0.126,0.306 0.054,0.108 0,0" style="fill:#108449;fill-opacity:1;fill-rule:nonzero;stroke:none" id="path894" inkscape:connector-curvature="0"/></g><g id="g896" transform="translate(740.9828,340.2933)"><path d="m 0,0 c -0.342,-0.378 -0.774,-0.522 -1.026,-0.936 -0.234,-0.072 -0.234,-0.45 -0.522,-0.486 -0.216,-0.45 -0.63,-0.972 -0.612,-1.512 0.054,-0.036 0.072,-0.108 0.09,-0.162 0.252,0 0.234,0.324 0.432,0.468 0.288,0.252 0.288,0.72 0.648,0.954 0.144,0.324 0.54,0.594 0.9,0.684 0.666,-1.116 -0.594,-1.818 -0.774,-2.718 -0.126,-0.252 -0.45,-0.414 -0.378,-0.738 0.126,-0.018 0.27,-0.162 0.378,0 0.738,0.954 1.548,1.998 1.512,3.24 C 0.504,-0.558 0.558,0.126 0.612,0.738 0.558,0.846 0.45,0.828 0.342,0.828 0.126,0.594 0.09,0.288 0,0" style="fill:#108449;fill-opacity:1;fill-rule:nonzero;stroke:none" id="path898" inkscape:connector-curvature="0"/></g><g id="g900" transform="translate(739.0388,340.2573)"><path d="m 0,0 c 0.018,-0.306 -0.09,-0.684 0.27,-0.828 0.252,-0.036 0.486,0.054 0.594,0.27 C 0.81,-0.288 0.828,0.09 0.522,0.18 0.36,0.09 0.126,0.18 0,0" style="fill:#108449;fill-opacity:1;fill-rule:nonzero;stroke:none" id="path902" inkscape:connector-curvature="0"/></g><g id="g904" transform="translate(735.8528,339.1773)"><path d="m 0,0 c 0.252,-0.162 0.036,-0.522 0.162,-0.738 0.054,-0.54 -0.342,-1.35 0.18,-1.764 0.054,-0.36 0.414,-0.36 0.342,-0.774 0.432,-0.414 0.324,-1.278 0.954,-1.476 0.054,0.396 0.504,0.288 0.738,0.306 C 2.7,-4.032 1.962,-3.888 2.07,-3.492 1.764,-3.168 1.836,-2.628 1.332,-2.412 1.116,-2.52 1.206,-2.736 1.242,-2.934 1.458,-2.916 1.422,-3.15 1.422,-3.276 1.386,-3.33 1.332,-3.33 1.296,-3.33 0.954,-2.628 0.504,-1.98 0.558,-1.17 0.936,-0.99 1.152,-1.566 1.422,-1.728 1.494,-2.052 1.782,-2.286 1.89,-2.592 2.124,-2.61 1.962,-2.952 2.196,-2.934 2.16,-3.168 2.448,-3.24 2.412,-3.456 2.466,-3.618 2.646,-3.474 2.718,-3.582 2.538,-2.61 2.16,-1.512 1.242,-0.9 0.792,-0.558 0.594,-0.144 0.504,0.396 0.396,0.522 0.252,0.63 0.126,0.648 -0.054,0.486 0.108,0.18 0,0" style="fill:#108449;fill-opacity:1;fill-rule:nonzero;stroke:none" id="path906" inkscape:connector-curvature="0"/></g><g id="g908" transform="translate(737.7968,338.7452)"><path d="m 0,0 c -0.072,-0.162 -0.198,-0.342 -0.09,-0.522 0.18,-0.27 0.486,-0.198 0.774,-0.216 0.162,0.216 0.162,0.54 0.09,0.774 C 0.702,0.18 0.504,0.18 0.378,0.252 0.162,0.288 0.126,0.09 0,0" style="fill:#108449;fill-opacity:1;fill-rule:nonzero;stroke:none" id="path910" inkscape:connector-curvature="0"/></g><g id="g912" transform="translate(739.0028,336.3333)"><path d="M 0,0 C 0.072,-0.09 0.144,-0.144 0.252,-0.144 0.432,0.144 0.666,0.486 0.99,0.504 0.522,0.846 1.548,1.062 0.954,1.332 0.486,1.062 0.09,0.54 0,0" style="fill:#108449;fill-opacity:1;fill-rule:nonzero;stroke:none" id="path914" inkscape:connector-curvature="0"/></g><g id="g916" transform="translate(737.3109,335.6313)"><path d="M 0,0 C -0.018,-0.144 0.018,-0.378 0.126,-0.522 0.234,-0.504 0.27,-0.702 0.396,-0.648 0.414,-0.36 0.216,-0.108 0,0" style="fill:#108449;fill-opacity:1;fill-rule:nonzero;stroke:none" id="path918" inkscape:connector-curvature="0"/></g><g id="g920" transform="translate(716.1744,396.9373)"><path d="m 0,0 c 0.108,-0.162 -0.036,-0.306 -0.036,-0.468 -0.252,0.09 -0.378,0.27 -0.432,0.522 l 0,0.288 C -0.288,0.288 -0.108,0.126 0,0" style="fill:#ffffff;fill-opacity:1;fill-rule:nonzero;stroke:none" id="path922" inkscape:connector-curvature="0"/></g><g id="g924" transform="translate(715.6165,394.6512)"><path d="m 0,0 c -0.018,-0.504 -0.27,-1.026 -0.486,-1.512 l -0.072,0 c -0.18,0.63 0.486,0.792 0.378,1.386 C -0.126,-0.09 -0.126,0.054 0,0" style="fill:#ffffff;fill-opacity:1;fill-rule:nonzero;stroke:none" id="path926" inkscape:connector-curvature="0"/></g><g id="g928" transform="translate(714.1045,391.8793)"><path d="m 0,0 c -0.036,-0.378 -0.36,-0.738 -0.612,-1.08 0.054,-0.234 -0.072,-0.396 -0.252,-0.558 0.108,-0.594 -0.234,-0.9 -0.054,-1.458 -0.18,-0.45 0.072,-0.918 0.054,-1.44 -0.216,-0.198 -0.576,-0.018 -0.828,0.054 -0.198,0.648 -0.45,1.494 0.18,2.034 0.126,0.27 0.252,0.45 0.306,0.774 0.18,0.18 0.324,0.504 0.504,0.684 0.018,0.198 0.216,0.324 0.27,0.486 C -0.36,-0.27 -0.252,-0.09 0,0" style="fill:#ffffff;fill-opacity:1;fill-rule:nonzero;stroke:none" id="path930" inkscape:connector-curvature="0"/></g><g id="g932" transform="translate(714.2305,382.2493)"><path d="M 0,0 C 0.324,-0.234 0.414,-0.702 0.684,-1.026 1.098,-1.602 1.152,-2.34 1.422,-2.97 1.494,-4.374 1.512,-5.904 1.26,-7.344 0.792,-7.902 1.17,-9.054 0.342,-9.234 c -0.396,-0.036 -0.792,-0.18 -1.116,0.126 0.234,0.252 -0.072,0.576 0.216,0.81 -0.036,0.27 0.306,0.432 0.126,0.702 0.342,0.252 0.036,0.63 0.252,0.954 -0.072,0.684 0,1.368 -0.216,2.07 -0.108,0.18 0.036,0.378 0.054,0.558 0.126,0.018 0.072,-0.252 0.252,-0.252 0.09,-0.216 -0.018,-0.558 0.27,-0.648 0.144,0 0.288,0.018 0.378,0.162 0.054,1.026 0.126,2.214 -0.216,3.24 -0.018,0.756 -0.828,1.188 -1.08,1.908 L -0.954,0.702 C -0.576,0.594 -0.198,0.324 0,0" style="fill:#ffffff;fill-opacity:1;fill-rule:nonzero;stroke:none" id="path934" inkscape:connector-curvature="0"/></g><g id="g936" transform="translate(713.8885,369.9012)"><path d="m 0,0 c 0.414,-0.09 0.774,0.198 1.17,-0.09 0.198,-0.342 -0.162,-0.792 0.072,-1.17 0.018,-0.666 0,-1.458 0.306,-2.07 0.054,-0.63 0.216,-1.332 0.522,-1.89 -0.018,-0.63 0.576,-0.9 0.684,-1.476 0.36,-0.36 0.342,-0.918 0.792,-1.206 0.414,-1.008 1.494,-1.854 1.584,-2.988 -0.018,-0.63 0.018,-1.188 0,-1.764 -0.27,-0.594 -0.54,-1.224 -1.116,-1.638 -0.018,-0.18 -0.108,-0.36 -0.252,-0.432 -0.738,-0.144 -1.134,0.594 -1.602,0.99 -0.324,0.378 -0.522,0.9 -0.918,1.296 -0.09,0.576 -0.594,0.864 -0.72,1.422 -0.486,0.396 -0.126,1.206 -0.486,1.692 -0.018,0.576 -0.108,1.278 -0.252,1.8 -0.288,-0.144 -0.18,-0.594 -0.27,-0.9 0.108,-0.72 -0.054,-1.656 0.306,-2.34 -0.072,-1.062 0.63,-1.71 0.702,-2.718 0.36,-0.594 0.648,-1.242 1.08,-1.764 0.09,-0.288 0.072,-0.648 0.432,-0.774 0.468,0.09 0.918,0.234 1.296,0.558 0.234,-0.126 0.198,0.198 0.378,0.216 0.18,0.018 0.144,0.27 0.342,0.252 0.144,-0.468 -0.648,-0.45 -0.648,-0.954 0.018,-0.108 -0.036,-0.234 0.09,-0.288 0.36,-0.18 0.63,0.108 0.99,0.072 0.162,-0.432 -0.45,-0.342 -0.342,-0.774 0.18,-0.018 0.468,-0.162 0.702,-0.036 0.072,0.018 0.144,0.108 0.252,0.09 -0.036,-0.18 -0.288,-0.324 -0.126,-0.522 0.054,-0.108 0.162,-0.09 0.252,-0.09 0.288,0.306 0.846,0.216 0.954,0.684 0.522,0.378 0.396,1.152 0.612,1.728 0.144,0.342 -0.144,0.756 -0.054,1.134 -0.036,0.234 -0.126,0.432 -0.216,0.648 0.198,0.09 0.324,-0.126 0.342,-0.27 0.342,-0.648 0.612,-1.44 0.432,-2.196 -0.054,-0.666 -0.432,-1.206 -0.864,-1.728 -0.288,-0.234 -0.54,-0.522 -0.9,-0.684 -0.54,-0.306 -1.134,-0.666 -1.818,-0.702 -1.476,-0.378 -3.078,-0.522 -4.626,-0.378 -0.288,0.054 -0.594,0.036 -0.864,0.162 -0.09,-0.198 -0.198,0.036 -0.342,-0.036 -0.45,0.306 -0.99,0.054 -1.422,0.432 -0.216,0.252 -0.558,0.18 -0.774,0.432 l -0.18,0 c -0.09,0.234 -0.288,0.198 -0.378,0.432 -0.54,0.306 -0.612,0.756 -1.044,1.116 -0.54,1.008 -0.342,2.484 0.306,3.366 -0.36,0.558 -0.522,1.188 -0.702,1.818 -0.18,0.918 -0.594,2.016 -0.252,2.898 -0.144,0.396 0.27,0.612 0.126,0.954 0.27,0.27 0.018,0.594 0.216,0.9 -0.09,0.846 0.342,1.638 0.306,2.466 0.054,0.018 0.18,0.162 0.252,0.036 0.234,-0.324 0.27,-0.792 0.306,-1.152 0.108,0 0.144,-0.18 0.27,-0.144 0.252,0.18 0.09,0.522 0.378,0.702 -0.144,0.306 0.27,0.432 0.126,0.684 0.486,0.54 0.45,1.386 0.864,1.998 0.234,0.27 0.684,-0.306 0.738,0.252 0.342,0.144 0.216,0.648 0.612,0.738 0.162,0.216 0.324,0.504 0.252,0.774 0.072,-0.018 0.09,0.054 0.126,0.09 0.036,0.306 0.486,0.306 0.576,0.594 C -0.936,0.234 -0.54,-0.054 0,0" style="fill:#ffffff;fill-opacity:1;fill-rule:nonzero;stroke:none" id="path938" inkscape:connector-curvature="0"/></g><g id="g940" transform="translate(717.2906,368.5152)"><path d="m 0,0 c 0.342,-1.476 -0.216,-3.114 0.828,-4.356 0.306,-0.63 0.774,-1.188 1.08,-1.818 0.216,-0.486 -0.108,-0.792 0,-1.332 -0.036,-0.036 -0.072,-0.108 -0.126,-0.09 -0.414,0.414 -0.342,1.026 -0.774,1.422 -0.108,0.828 -1.08,1.206 -1.08,2.07 -0.18,0.432 -0.504,0.81 -0.432,1.35 -0.288,0.27 -0.018,0.648 0.036,0.936 0.09,0.63 -0.018,1.152 0.252,1.692 L -0.252,0.09 C -0.162,0.09 -0.054,0.108 0,0" style="fill:#ffffff;fill-opacity:1;fill-rule:nonzero;stroke:none" id="path942" inkscape:connector-curvature="0"/></g><g id="g944" transform="translate(712.1965,367.1832)"><path d="m 0,0 c -0.072,-0.252 -0.378,-0.36 -0.342,-0.702 -0.054,-0.018 -0.09,0.054 -0.126,0.09 0.09,0.27 0.072,0.594 0.252,0.828 C -0.108,0.144 -0.018,0.126 0,0" style="fill:#108449;fill-opacity:1;fill-rule:nonzero;stroke:none" id="path946" inkscape:connector-curvature="0"/></g><g id="g948" transform="translate(713.4025,366.6973)"><path d="M 0,0 C -0.108,-0.234 -0.108,-0.504 -0.162,-0.774 -0.234,-0.9 -0.198,-1.08 -0.378,-1.116 -0.414,-1.584 -0.702,-1.944 -0.72,-2.412 c -0.414,-0.54 -0.288,-1.386 -0.432,-2.07 0.072,-0.36 0.018,-0.774 0,-1.17 0.126,-0.702 -0.126,-1.53 0.216,-2.196 0.468,0.396 -0.216,1.098 0.252,1.458 0.288,-0.54 0.324,-1.206 0.468,-1.818 -0.162,-0.504 0.216,-0.99 0.396,-1.458 0.054,-0.486 0.396,-0.864 0.468,-1.35 0.18,-0.756 1.116,-1.134 1.008,-1.944 -0.198,-0.18 -0.468,-0.162 -0.702,-0.252 -0.594,0.252 -1.386,0.162 -1.818,0.738 -0.756,-0.09 -0.99,0.828 -1.512,1.08 0.054,0.18 -0.162,0.252 -0.252,0.378 -0.27,0.036 -0.108,-0.27 -0.216,-0.378 0.09,-0.144 0.252,-0.306 0.126,-0.486 -0.558,0 -1.134,0.432 -1.458,0.828 -0.09,0.54 -0.612,0.774 -0.738,1.296 -0.306,0.576 0.234,1.17 -0.126,1.728 -0.162,1.098 0.072,2.106 0.288,3.15 0.09,0.036 0.162,0.108 0.27,0.09 0.486,-0.81 0.072,-1.818 0.738,-2.556 0.09,-0.45 0.108,-0.972 0.468,-1.296 0.306,-0.45 0.234,-1.152 0.738,-1.458 0.072,-0.162 0.252,-0.306 0.432,-0.306 0.252,0.54 -0.468,0.684 -0.396,1.206 -0.36,0.45 -0.324,1.116 -0.684,1.602 -0.09,0.846 -0.378,1.62 -0.396,2.502 -0.216,0.792 0.216,1.584 0.126,2.376 0.234,0.414 0.072,0.828 0.486,1.17 0.288,-0.396 -0.054,-1.026 0,-1.512 -0.198,-1.602 -0.27,-3.528 0.558,-4.968 l 0.09,0.09 c 0.036,0.378 -0.108,0.972 0.126,1.332 l 0,1.206 c 0.18,0.18 0.018,0.486 0.126,0.702 0.18,0.918 0.468,1.728 0.864,2.538 0.09,0.252 0.27,0.45 0.27,0.738 0.486,0.486 0.396,1.278 0.9,1.692 L 0,0 z" style="fill:#108449;fill-opacity:1;fill-rule:nonzero;stroke:none" id="path950" inkscape:connector-curvature="0"/></g><g id="g952" transform="translate(716.2106,361.8733)"><path d="m 0,0 c 0.072,-0.198 0.216,-0.522 0.432,-0.612 0.126,-0.432 0.576,-0.792 0.522,-1.26 0.324,-0.414 0.45,-0.972 0.396,-1.512 -0.342,0.126 -0.36,0.54 -0.522,0.828 -0.414,0.468 -0.738,0.918 -0.954,1.512 -0.378,0.414 -0.306,1.026 -0.558,1.512 0.018,0.108 -0.054,0.252 0.09,0.306 C -0.234,0.612 -0.36,0.144 0,0" style="fill:#108449;fill-opacity:1;fill-rule:nonzero;stroke:none" id="path954" inkscape:connector-curvature="0"/></g><g id="g956" transform="translate(715.0044,361.6573)"><path d="M 0,0 C 0,-0.594 0.108,-1.242 0.432,-1.728 0.414,-2.286 0.846,-2.772 0.918,-3.33 1.098,-3.6 1.476,-3.87 1.386,-4.284 1.314,-4.338 1.224,-4.32 1.134,-4.32 c -0.378,0.378 -0.468,0.936 -0.918,1.332 0.036,0.396 -0.396,0.486 -0.306,0.9 -0.126,0.18 -0.072,0.432 -0.216,0.612 0,0.738 -0.774,1.674 0,2.25 C -0.126,0.54 -0.09,0.252 0,0" style="fill:#108449;fill-opacity:1;fill-rule:nonzero;stroke:none" id="path958" inkscape:connector-curvature="0"/></g><g id="g960" transform="translate(712.9345,357.4993)"><path d="M 0,0 0,-0.162 C -0.198,0.216 -0.234,0.684 -0.396,1.08 0,0.828 -0.252,0.306 0,0" style="fill:#ffffff;fill-opacity:1;fill-rule:nonzero;stroke:none" id="path962" inkscape:connector-curvature="0"/></g><g id="g964" transform="translate(710.1265,356.8512)"><path d="m 0,0 c 0.144,-0.306 0.468,-0.612 0.432,-0.954 -0.306,-0.144 -0.216,0.36 -0.468,0.36 -0.18,0.306 -0.324,0.72 -0.486,1.08 C -0.918,0.774 -0.81,1.278 -0.954,1.692 -0.504,1.224 -0.45,0.468 0,0" style="fill:#ffffff;fill-opacity:1;fill-rule:nonzero;stroke:none" id="path966" inkscape:connector-curvature="0"/></g><g id="g968" transform="translate(709.8206,354.7813)"><path d="M 0,0 C 0.288,-0.486 0.864,-0.216 1.296,-0.522 1.494,-0.648 1.854,-0.576 1.908,-0.9 1.944,-1.116 1.692,-1.188 1.566,-1.26 L 1.26,-1.296 C 1.17,-1.098 0.828,-1.35 0.738,-1.08 0.558,-1.296 1.026,-1.458 0.954,-1.728 0.63,-1.71 0.252,-1.8 0,-1.602 -0.234,-1.998 0.414,-2.07 0.612,-2.34 1.062,-2.646 1.674,-2.772 2.25,-2.898 3.348,-3.132 4.5,-3.132 5.526,-3.276 5.562,-3.438 5.382,-3.42 5.31,-3.492 4.77,-3.438 4.302,-3.816 3.798,-3.582 3.132,-3.51 2.448,-3.564 1.854,-3.546 1.746,-3.348 1.35,-3.528 1.26,-3.276 c -0.558,0.09 -0.99,0.504 -1.512,0.684 -0.396,0.18 -0.486,0.684 -0.918,0.864 C -1.44,-0.9 -2.106,0.144 -1.422,0.99 -0.792,0.954 -0.648,0.108 0,0" style="fill:#108449;fill-opacity:1;fill-rule:nonzero;stroke:none" id="path970" inkscape:connector-curvature="0"/></g><g id="g972" transform="translate(713.1145,348.7693)"><path d="m 0,0 1.116,-0.126 c 0.144,0.198 0.342,0 0.522,0 C 2.286,-0.018 2.844,0.036 3.492,0 3.6,0.162 3.87,0.054 3.96,0.09 3.51,-0.234 3.006,-0.504 2.412,-0.504 2.178,-0.756 1.836,-0.378 1.638,-0.684 1.134,-0.54 0.702,-0.612 0.216,-0.468 c -0.306,-0.18 -0.63,0.126 -0.954,0.18 l -0.216,0.342 c 0.09,0.108 0.27,0.108 0.378,0.036 C -0.468,0 -0.162,0.108 0,0" style="fill:#ffffff;fill-opacity:1;fill-rule:nonzero;stroke:none" id="path974" inkscape:connector-curvature="0"/></g><g id="g976" transform="translate(712.9345,347.2573)"><path d="m 0,0 c 0.36,-0.108 0.774,-0.108 1.17,-0.162 0.36,0.162 0.612,-0.144 0.954,0.09 0.54,0 1.026,0.126 1.548,0.216 C 3.726,0 3.906,-0.108 3.852,-0.288 3.582,-0.612 3.15,-0.558 2.808,-0.684 c -0.54,-0.198 -1.206,0 -1.728,0 -0.684,-0.198 -1.188,0.324 -1.818,0.396 -0.09,0.126 -0.252,0.144 -0.216,0.342 0.198,0.09 0.486,0.216 0.702,0.036 C -0.198,-0.018 -0.09,0 0,0" style="fill:#ffffff;fill-opacity:1;fill-rule:nonzero;stroke:none" id="path978" inkscape:connector-curvature="0"/></g><g id="g980" transform="translate(713.1865,344.7193)"><path d="M 0,0 C -0.072,-0.774 0.126,-1.386 0.18,-2.16 0.144,-2.196 0.108,-2.268 0.054,-2.25 c -0.198,0.27 0.108,0.558 -0.18,0.828 -0.072,0.468 0.018,1.116 -0.252,1.548 C -0.252,0.468 0,0.198 0,0" style="fill:#ffffff;fill-opacity:1;fill-rule:nonzero;stroke:none" id="path982" inkscape:connector-curvature="0"/></g><g id="g984" transform="translate(714.6985,344.7193)"><path d="m 0,0 c -0.216,-0.522 0.126,-1.008 0,-1.512 0.072,-0.774 -0.306,-1.422 -0.162,-2.16 l -0.126,-0.27 c -0.072,0.27 -0.234,0.666 -0.054,0.864 C -0.54,-1.962 -0.288,-0.99 -0.558,0.09 -0.36,0.252 -0.09,0.288 0,0" style="fill:#ffffff;fill-opacity:1;fill-rule:nonzero;stroke:none" id="path986" inkscape:connector-curvature="0"/></g><g id="g988" transform="translate(719.3244,343.2073)"><path d="m 0,0 c 0.252,-0.18 0.63,-0.108 0.864,-0.306 0.234,0.054 0.216,-0.216 0.396,-0.306 -0.774,-0.27 -1.836,-0.576 -1.908,-1.548 0.27,-0.486 0.414,-1.044 0.828,-1.476 0.18,0.126 0.378,-0.018 0.558,-0.036 0.522,0.342 1.116,0.522 1.422,1.116 0.342,0.18 0.576,0.342 0.918,0.522 -0.072,0.198 0.162,0.198 0.252,0.306 0.198,-0.09 0.396,0.27 0.468,-0.054 C 4.086,-2.556 3.438,-3.384 3.852,-4.104 4.014,-4.788 3.168,-5.04 3.546,-5.706 3.816,-6.48 4.14,-7.524 3.762,-8.388 3.546,-9.144 4.266,-9.738 3.888,-10.494 3.906,-11.106 3.672,-11.61 3.51,-12.15 c -0.468,-0.162 -0.288,-0.864 -0.864,-0.936 -0.342,-0.486 -0.972,-0.36 -1.26,-0.864 -0.378,0.09 -0.522,-0.396 -0.864,-0.396 -0.234,-0.45 -0.774,-0.342 -1.08,-0.684 -0.63,0.054 -1.026,-0.45 -1.602,-0.522 -0.396,-0.306 -0.846,-0.468 -1.296,-0.648 l -0.126,-0.126 c -0.522,0.216 -1.08,0.432 -1.548,0.774 -0.144,0.288 0.216,0.306 0.342,0.468 0.342,1.17 0.18,2.43 0.522,3.546 -0.036,0.774 0.342,1.512 0.216,2.34 0.216,0.216 -0.072,0.504 0.072,0.774 -0.072,0.396 0.36,0.63 0.144,1.026 0.252,0.288 -0.144,0.666 0.162,0.918 -0.234,0.504 0.288,0.828 0.054,1.332 0.252,0.252 -0.144,0.612 0.162,0.828 0.09,0.216 -0.162,0.396 0.054,0.558 -0.108,0.558 0.18,1.008 0.072,1.512 0.072,0.396 0.216,0.774 0.216,1.206 l 0.054,0.738 c 0.288,0.072 -0.018,0.288 0.09,0.468 0.09,0.18 0.432,0.162 0.342,0.432 0.054,0.09 0.162,0.036 0.252,0.054 C -2.322,0.558 -2.25,0.54 -2.16,0.558 -1.8,0.72 -2.07,1.134 -1.818,1.332 -1.134,0.954 -0.45,0.666 0,0" style="fill:#ffffff;fill-opacity:1;fill-rule:nonzero;stroke:none" id="path990" inkscape:connector-curvature="0"/></g><g id="g992" transform="translate(712.3225,343.7293)"><path d="m 0,0 c 0.126,-1.638 0.45,-3.186 0.576,-4.806 0.09,-0.306 0.126,-0.63 0.288,-0.9 0.054,-0.99 0.234,-1.962 0.36,-2.862 0.108,-1.404 0.342,-2.772 0.558,-4.14 -0.27,-0.774 0.306,-1.53 0.09,-2.286 -0.072,-0.09 -0.216,0 -0.27,-0.126 0.108,-0.144 -0.036,-0.234 -0.09,-0.36 -0.36,-0.126 -0.63,0.18 -0.9,0.396 0.27,0.774 -0.414,1.422 -0.738,2.034 0.018,0.306 0.828,0.576 0.216,0.9 -0.162,0.162 -0.378,-0.126 -0.522,0.09 0.144,0.216 0.378,0.288 0.612,0.432 0.108,0.216 0.342,0.414 0.252,0.648 -0.18,0.144 -0.504,0.09 -0.72,0.036 -0.216,-0.288 -0.522,-0.396 -0.828,-0.468 -0.126,0.684 0.252,1.44 0,2.07 0.036,0.558 -0.36,0.882 -0.774,1.17 -0.468,0.126 -0.702,0.486 -1.134,0.684 -0.702,0.306 -1.512,0.18 -2.232,0 -0.126,0.036 -0.234,0.072 -0.36,0.054 -0.126,-0.144 -0.396,-0.09 -0.558,-0.054 -0.162,0.342 -0.54,0.108 -0.774,0.09 -0.414,-0.252 -0.828,0.126 -1.26,0 -0.342,0.198 -0.522,-0.396 -0.9,-0.126 -0.27,0.288 -0.666,0.306 -0.864,0.648 -0.27,0.738 0.882,0.612 0.684,1.332 l 0.144,0.18 c -0.054,1.332 0.018,2.556 0.432,3.762 0.414,0.072 0.828,0.144 1.116,0.522 0.666,0.45 1.584,0.54 2.376,0.432 0.288,0.09 0.63,0.18 0.954,0.072 0.432,-0.09 0.828,0.144 1.206,0.306 0.288,0.378 0.486,0.774 1.044,0.702 0.306,-0.324 0.684,-0.612 1.116,-0.486 0.18,0.09 0.342,0.18 0.342,0.396 C -0.216,0.738 -0.018,0.306 0,0" style="fill:#ffffff;fill-opacity:1;fill-rule:nonzero;stroke:none" id="path994" inkscape:connector-curvature="0"/></g><g id="g996" transform="translate(713.4025,342.0373)"><path d="m 0,0 c 0.036,-0.468 0.126,-0.972 0.09,-1.422 -0.162,0.036 -0.018,0.288 -0.126,0.378 0.144,0.45 -0.288,0.756 -0.126,1.26 C -0.036,0.252 -0.054,0.072 0,0" style="fill:#ffffff;fill-opacity:1;fill-rule:nonzero;stroke:none" id="path998" inkscape:connector-curvature="0"/></g><g id="g1000" transform="translate(712.2505,326.3593)"><path d="M 0,0 C 0.162,-0.252 0.45,-0.54 0.774,-0.612 0.828,-0.936 0.45,-1.116 0.252,-1.296 c -0.396,-0.108 -0.81,-0.018 -1.17,0.09 0.054,0.234 -0.144,0.702 0.18,0.9 -0.144,0.18 0.072,0.36 0.126,0.468 C -0.432,0.45 -0.108,0.216 0,0" style="fill:#ffffff;fill-opacity:1;fill-rule:nonzero;stroke:none" id="path1002" inkscape:connector-curvature="0"/></g></g></svg>