<?xml version="1.0" encoding="UTF-8"?>
<!-- Generator: Adobe Illustrator 16.0.0, SVG Export Plug-In . SVG Version: 6.00 Build 0)  -->
<!DOCTYPE svg PUBLIC "-//W3C//DTD SVG 1.1//EN" "http://www.w3.org/Graphics/SVG/1.1/DTD/svg11.dtd">
<svg version="1.1" id="svg2816" xmlns:dc="http://purl.org/dc/elements/1.1/" xmlns:cc="http://creativecommons.org/ns#" xmlns:rdf="http://www.w3.org/1999/02/22-rdf-syntax-ns#" xmlns:svg="http://www.w3.org/2000/svg" xmlns:sodipodi="http://sodipodi.sourceforge.net/DTD/sodipodi-0.dtd" xmlns:inkscape="http://www.inkscape.org/namespaces/inkscape" sodipodi:docname="Tokyo 1964 Summer Olympics logo.svg" inkscape:version="0.47 r22583" xmlns="http://www.w3.org/2000/svg" xmlns:xlink="http://www.w3.org/1999/xlink" x="0px" y="0px" width="202.473px" height="369.501px" viewBox="-0.146 -0.021 202.473 369.501" enable-background="new -0.146 -0.021 202.473 369.501" xml:space="preserve">
<defs>
	
	
		<inkscape:perspective id="perspective2824" inkscape:vp_x="0 : 0.5 : 1" inkscape:vp_z="1 : 0.5 : 1" inkscape:vp_y="0 : 1000 : 0" sodipodi:type="inkscape:persp3d" inkscape:persp3d-origin="0.5 : 0.33333333 : 1">
		</inkscape:perspective>
	
		<inkscape:perspective id="perspective3832" inkscape:vp_x="0 : 0.5 : 1" inkscape:vp_z="1 : 0.5 : 1" inkscape:vp_y="0 : 1000 : 0" sodipodi:type="inkscape:persp3d" inkscape:persp3d-origin="0.5 : 0.33333333 : 1">
		</inkscape:perspective>
	
		<inkscape:perspective id="perspective3895" inkscape:vp_x="0 : 0.5 : 1" inkscape:vp_z="1 : 0.5 : 1" inkscape:vp_y="0 : 1000 : 0" sodipodi:type="inkscape:persp3d" inkscape:persp3d-origin="0.5 : 0.33333333 : 1">
		</inkscape:perspective>
	
		<inkscape:perspective id="perspective3917" inkscape:vp_x="0 : 0.5 : 1" inkscape:vp_z="1 : 0.5 : 1" inkscape:vp_y="0 : 1000 : 0" sodipodi:type="inkscape:persp3d" inkscape:persp3d-origin="0.5 : 0.33333333 : 1">
		</inkscape:perspective>
	
		<inkscape:perspective id="perspective3939" inkscape:vp_x="0 : 0.5 : 1" inkscape:vp_z="1 : 0.5 : 1" inkscape:vp_y="0 : 1000 : 0" sodipodi:type="inkscape:persp3d" inkscape:persp3d-origin="0.5 : 0.33333333 : 1">
		</inkscape:perspective>
	
		<inkscape:perspective id="perspective3961" inkscape:vp_x="0 : 0.5 : 1" inkscape:vp_z="1 : 0.5 : 1" inkscape:vp_y="0 : 1000 : 0" sodipodi:type="inkscape:persp3d" inkscape:persp3d-origin="0.5 : 0.33333333 : 1">
		</inkscape:perspective>
	
		<inkscape:perspective id="perspective3991" inkscape:vp_x="0 : 0.5 : 1" inkscape:vp_z="1 : 0.5 : 1" inkscape:vp_y="0 : 1000 : 0" sodipodi:type="inkscape:persp3d" inkscape:persp3d-origin="0.5 : 0.33333333 : 1">
		</inkscape:perspective>
	
		<inkscape:perspective id="perspective4029" inkscape:vp_x="0 : 0.5 : 1" inkscape:vp_z="1 : 0.5 : 1" inkscape:vp_y="0 : 1000 : 0" sodipodi:type="inkscape:persp3d" inkscape:persp3d-origin="0.5 : 0.33333333 : 1">
		</inkscape:perspective>
	
		<inkscape:perspective id="perspective4067" inkscape:vp_x="0 : 0.5 : 1" inkscape:vp_z="1 : 0.5 : 1" inkscape:vp_y="0 : 1000 : 0" sodipodi:type="inkscape:persp3d" inkscape:persp3d-origin="0.5 : 0.33333333 : 1">
		</inkscape:perspective>
	
		<inkscape:perspective id="perspective4105" inkscape:vp_x="0 : 0.5 : 1" inkscape:vp_z="1 : 0.5 : 1" inkscape:vp_y="0 : 1000 : 0" sodipodi:type="inkscape:persp3d" inkscape:persp3d-origin="0.5 : 0.33333333 : 1">
		</inkscape:perspective>
	
		<inkscape:perspective id="perspective4165" inkscape:vp_x="0 : 0.5 : 1" inkscape:vp_z="1 : 0.5 : 1" inkscape:vp_y="0 : 1000 : 0" sodipodi:type="inkscape:persp3d" inkscape:persp3d-origin="0.5 : 0.33333333 : 1">
		</inkscape:perspective>
	
		<inkscape:perspective id="perspective4203" inkscape:vp_x="0 : 0.5 : 1" inkscape:vp_z="1 : 0.5 : 1" inkscape:vp_y="0 : 1000 : 0" sodipodi:type="inkscape:persp3d" inkscape:persp3d-origin="0.5 : 0.33333333 : 1">
		</inkscape:perspective>
	
		<inkscape:perspective id="perspective4241" inkscape:vp_x="0 : 0.5 : 1" inkscape:vp_z="1 : 0.5 : 1" inkscape:vp_y="0 : 1000 : 0" sodipodi:type="inkscape:persp3d" inkscape:persp3d-origin="0.5 : 0.33333333 : 1">
		</inkscape:perspective>
	
		<inkscape:perspective id="perspective4279" inkscape:vp_x="0 : 0.5 : 1" inkscape:vp_z="1 : 0.5 : 1" inkscape:vp_y="0 : 1000 : 0" sodipodi:type="inkscape:persp3d" inkscape:persp3d-origin="0.5 : 0.33333333 : 1">
		</inkscape:perspective>
	
		<inkscape:perspective id="perspective4355" inkscape:vp_x="0 : 0.5 : 1" inkscape:vp_z="1 : 0.5 : 1" inkscape:vp_y="0 : 1000 : 0" sodipodi:type="inkscape:persp3d" inkscape:persp3d-origin="0.5 : 0.33333333 : 1">
		</inkscape:perspective>
	
		<inkscape:perspective id="perspective4393" inkscape:vp_x="0 : 0.5 : 1" inkscape:vp_z="1 : 0.5 : 1" inkscape:vp_y="0 : 1000 : 0" sodipodi:type="inkscape:persp3d" inkscape:persp3d-origin="0.5 : 0.33333333 : 1">
		</inkscape:perspective>
	
		<inkscape:perspective id="perspective4431" inkscape:vp_x="0 : 0.5 : 1" inkscape:vp_z="1 : 0.5 : 1" inkscape:vp_y="0 : 1000 : 0" sodipodi:type="inkscape:persp3d" inkscape:persp3d-origin="0.5 : 0.33333333 : 1">
		</inkscape:perspective>
	
		<inkscape:perspective id="perspective4469" inkscape:vp_x="0 : 0.5 : 1" inkscape:vp_z="1 : 0.5 : 1" inkscape:vp_y="0 : 1000 : 0" sodipodi:type="inkscape:persp3d" inkscape:persp3d-origin="0.5 : 0.33333333 : 1">
		</inkscape:perspective>
	
		<inkscape:perspective id="perspective4507" inkscape:vp_x="0 : 0.5 : 1" inkscape:vp_z="1 : 0.5 : 1" inkscape:vp_y="0 : 1000 : 0" sodipodi:type="inkscape:persp3d" inkscape:persp3d-origin="0.5 : 0.33333333 : 1">
		</inkscape:perspective>
	
		<inkscape:perspective id="perspective4545" inkscape:vp_x="0 : 0.5 : 1" inkscape:vp_z="1 : 0.5 : 1" inkscape:vp_y="0 : 1000 : 0" sodipodi:type="inkscape:persp3d" inkscape:persp3d-origin="0.5 : 0.33333333 : 1">
		</inkscape:perspective>
	
		<inkscape:perspective id="perspective4583" inkscape:vp_x="0 : 0.5 : 1" inkscape:vp_z="1 : 0.5 : 1" inkscape:vp_y="0 : 1000 : 0" sodipodi:type="inkscape:persp3d" inkscape:persp3d-origin="0.5 : 0.33333333 : 1">
		</inkscape:perspective>
	
		<inkscape:perspective id="perspective4621" inkscape:vp_x="0 : 0.5 : 1" inkscape:vp_z="1 : 0.5 : 1" inkscape:vp_y="0 : 1000 : 0" sodipodi:type="inkscape:persp3d" inkscape:persp3d-origin="0.5 : 0.33333333 : 1">
		</inkscape:perspective>
	
		<inkscape:perspective id="perspective4758" inkscape:vp_x="0 : 0.5 : 1" inkscape:vp_z="1 : 0.5 : 1" inkscape:vp_y="0 : 1000 : 0" sodipodi:type="inkscape:persp3d" inkscape:persp3d-origin="0.5 : 0.33333333 : 1">
		</inkscape:perspective>
	
		<inkscape:perspective id="perspective2948" inkscape:vp_x="0 : 0.5 : 1" inkscape:vp_z="1 : 0.5 : 1" inkscape:vp_y="0 : 1000 : 0" sodipodi:type="inkscape:persp3d" inkscape:persp3d-origin="0.5 : 0.33333333 : 1">
		</inkscape:perspective>
	
		<inkscape:perspective id="perspective2973" inkscape:vp_x="0 : 0.5 : 1" inkscape:vp_z="1 : 0.5 : 1" inkscape:vp_y="0 : 1000 : 0" sodipodi:type="inkscape:persp3d" inkscape:persp3d-origin="0.5 : 0.33333333 : 1">
		</inkscape:perspective>
	
		<inkscape:perspective id="perspective2973-9" inkscape:vp_x="0 : 0.5 : 1" inkscape:vp_z="1 : 0.5 : 1" inkscape:vp_y="0 : 1000 : 0" sodipodi:type="inkscape:persp3d" inkscape:persp3d-origin="0.5 : 0.33333333 : 1">
		</inkscape:perspective>
	
		<inkscape:perspective id="perspective2973-2" inkscape:vp_x="0 : 0.5 : 1" inkscape:vp_z="1 : 0.5 : 1" inkscape:vp_y="0 : 1000 : 0" sodipodi:type="inkscape:persp3d" inkscape:persp3d-origin="0.5 : 0.33333333 : 1">
		</inkscape:perspective>
	
		<inkscape:perspective id="perspective3022" inkscape:vp_x="0 : 0.5 : 1" inkscape:vp_z="1 : 0.5 : 1" inkscape:vp_y="0 : 1000 : 0" sodipodi:type="inkscape:persp3d" inkscape:persp3d-origin="0.5 : 0.33333333 : 1">
		</inkscape:perspective>
	
		<inkscape:perspective id="perspective2959" inkscape:vp_x="0 : 0.5 : 1" inkscape:vp_z="1 : 0.5 : 1" inkscape:vp_y="0 : 1000 : 0" sodipodi:type="inkscape:persp3d" inkscape:persp3d-origin="0.5 : 0.33333333 : 1">
		</inkscape:perspective>
	
		<inkscape:perspective id="perspective2981" inkscape:vp_x="0 : 0.5 : 1" inkscape:vp_z="1 : 0.5 : 1" inkscape:vp_y="0 : 1000 : 0" sodipodi:type="inkscape:persp3d" inkscape:persp3d-origin="0.5 : 0.33333333 : 1">
		</inkscape:perspective>
</defs>
<sodipodi:namedview inkscape:cy="18.316832" inkscape:cx="75.142719" inkscape:zoom="5.8549477" showgrid="false" id="namedview2818" guidetolerance="10" gridtolerance="10" objecttolerance="10" borderopacity="1" bordercolor="#666666" pagecolor="#ffffff" borderlayer="true" inkscape:current-layer="svg2816" inkscape:window-maximized="1" inkscape:window-y="-8" inkscape:window-height="850" inkscape:window-width="1440" inkscape:window-x="-8" inkscape:pageopacity="0" inkscape:pageshadow="2">
	</sodipodi:namedview>
<path id="path2828" sodipodi:cy="99.521454" sodipodi:rx="90.973595" sodipodi:cx="106.84818" sodipodi:type="arc" sodipodi:ry="90.363037" fill="#F3344B" d="  M198.779,97.689c0.012,53.953-43.716,97.699-97.668,97.711S3.412,151.685,3.4,97.732c0-0.014,0-0.028,0-0.042  C3.388,43.737,47.116-0.009,101.069-0.021s97.699,43.716,97.71,97.668C198.779,97.662,198.779,97.676,198.779,97.689z"/>
<g>
	<path id="path2954" sodipodi:nodetypes="ccccccccc" fill="#97885F" d="M0.09,327.705v-7.326h18.991v7.428h-5.235v41.575H5.659   v-41.677H0.09z"/>
	<path id="path2958" fill="#97885F" d="M40.427,333.035v23.073c0,2.425-0.331,4.653-0.991,6.687   c-0.66,2.031-1.748,3.637-3.262,4.816c-1.515,1.181-3.483,1.771-5.907,1.771c-1.864,0-3.468-0.388-4.812-1.163   s-2.443-1.885-3.297-3.327c-0.637-1.07-1.126-2.479-1.468-4.228c-0.202-1.07-0.303-2.491-0.303-4.261v-23.761   c0-2.578,0.264-4.698,0.792-6.359c0.715-2.206,1.833-3.927,3.356-5.161c1.522-1.235,3.456-1.853,5.802-1.853   c2.454,0,4.4,0.498,5.837,1.492s2.505,2.436,3.204,4.326C40.077,326.978,40.427,329.627,40.427,333.035z M28.333,357.977   c0,1.289,0.179,2.207,0.536,2.753s0.862,0.819,1.515,0.819c0.668,0,1.185-0.284,1.55-0.852c0.365-0.568,0.547-1.53,0.547-2.885   v-27.268c0-1.421-0.175-2.409-0.524-2.967c-0.35-0.557-0.851-0.836-1.503-0.836c-0.684,0-1.208,0.263-1.573,0.787   s-0.548,1.377-0.548,2.557V357.977z"/>
	<g id="text2936-1-4" transform="scale(0.83466804,1.1980811)">
		<path id="path2962" sodipodi:nodetypes="cccccccccccc" fill="#97885F" d="M51.43,308.311v-40.704h9.325v16.03l5.146-16.03h9.13    l-5.342,17.95l5.398,22.754h-9.52l-4.812-19.804v19.804H51.43z"/>
	</g>
	<g id="text2936-1-48" transform="scale(0.83466804,1.1980811)">
		<path id="path2965" sodipodi:nodetypes="cccccccccc" fill="#97885F" d="M76.892,267.607h9.252l4.528,15.879l4.498-15.879h9.108    l-8.169,25.824v14.88H85.584v-15.02L76.892,267.607z"/>
	</g>
	<g id="text2936-1-45" transform="scale(0.84320468,1.1859517)">
		<path id="path2968" fill="#97885F" d="M126.113,280.817v19.455c0,2.045-0.391,3.924-1.176,5.638    c-0.783,1.713-2.072,3.066-3.868,4.062c-1.796,0.995-4.131,1.492-7.006,1.492c-2.21,0-4.113-0.327-5.706-0.981    s-2.897-1.589-3.911-2.805c-0.756-0.902-1.336-2.091-1.741-3.565c-0.239-0.902-0.359-2.1-0.359-3.593v-20.035    c0-2.174,0.313-3.962,0.939-5.362c0.848-1.86,2.174-3.311,3.98-4.352c1.805-1.041,4.099-1.561,6.881-1.562    c2.91,0,5.218,0.42,6.922,1.258c1.705,0.838,2.971,2.054,3.8,3.648C125.698,275.709,126.113,277.943,126.113,280.817    L126.113,280.817z M111.77,301.847c0,1.087,0.212,1.861,0.636,2.321c0.424,0.46,1.023,0.691,1.796,0.691    c0.792,0,1.405-0.24,1.838-0.718c0.433-0.479,0.649-1.29,0.649-2.432v-22.992c0-1.197-0.207-2.031-0.622-2.502    c-0.414-0.469-1.009-0.705-1.782-0.705c-0.811,0-1.432,0.221-1.865,0.664s-0.65,1.161-0.65,2.156V301.847z"/>
	</g>
	<path id="path3818" sodipodi:nodetypes="cccccaccc" fill="#97885F" d="M134.846,369.045h-8.361v-34.844h-2.81v-5.688   c1.251,0,2.81-1.574,3.806-2.792c1.109-1.356,2.207-3.521,2.207-4.772h5.158V369.045z"/>
	<path id="path3820" sodipodi:nodetypes="cccsccssccasaccsccccsccsc" fill="#97885F" d="M136.586,348.955h8.347v10.191   c0,1.051,0.479,3.626,1.44,3.626c0.943,0,1.414-2.745,1.414-3.796v-12.068c-0.616,0.806-1.768,1.208-3.453,1.208   c-2.283,0-4.146-0.677-5.587-2.029s-2.161-3.236-2.161-5.651v-9.152c0-2.795,0.807-5.811,2.691-7.822   c1.74-1.857,4.142-2.947,7.041-2.947c2.938,0,5.34,1.217,7.11,3.102c1.806,1.92,2.705,4.658,2.705,7.43v26.208   c0,6.216-3.29,12.228-9.869,12.228c-6.452,0-9.679-5.989-9.679-12.16V348.955L136.586,348.955z M147.787,340.168V328.63   c0-1.051-0.471-1.576-1.414-1.576c-0.961,0-1.44,0.525-1.44,1.576v11.538c0,1.051,0.479,1.576,1.44,1.576   C147.316,341.744,147.787,341.219,147.787,340.168z"/>
	<path id="path3822" sodipodi:nodetypes="cccsccssccssccsccccsccsc" fill="#97885F" d="M177.123,334.667h-8.347l0.163-3.891   c0-2.481-0.525-3.723-1.577-3.723c-0.96,0-1.44,1.208-1.44,2.259v10.335c0.634-1.051,1.993-2.491,4.078-2.491   c2.066,0,3.77,0.942,5.111,2.217c1.341,1.274,2.012,3.832,2.012,6.045v11.756c0,2.795-0.902,8.533-2.705,10.043   c-1.804,1.509-4.156,2.264-7.056,2.264c-6.524,0-9.788-6.301-9.788-12.068v-26.517c0.654-5.977,3.988-10.384,9.843-10.382   c5.964,0.002,9.135,4.065,9.706,9.973V334.667L177.123,334.667z M168.776,358.635v-13.168c0-1.073-0.472-1.609-1.414-1.609   c-0.96,0-1.44,0.536-1.44,1.609v13.168c0,1.051,0.48,4.138,1.44,4.138C168.305,362.772,168.776,359.686,168.776,358.635z"/>
	<path id="path3824" fill="#97885F" d="M202.09,363.017h-4.241v6.028h-8.347v-6.028H177.92v-6.649l8.4-34.299h11.528v33.905h4.241   V363.017z M189.502,355.974v-18.542l-3.889,18.542H189.502z"/>
	<path id="path2958-1" fill="#97885F" d="M38.136,333.315v22.245c0,2.338-0.253,4.486-0.759,6.445s-1.339,3.508-2.5,4.645   c-1.161,1.138-2.67,1.707-4.527,1.707c-1.429,0-2.658-0.374-3.688-1.122c-1.03-0.748-1.872-1.817-2.527-3.207   c-0.488-1.032-0.863-2.392-1.125-4.076c-0.155-1.032-0.232-2.401-0.232-4.107v-22.908c0-2.485,0.202-4.529,0.607-6.13   c0.548-2.128,1.405-3.787,2.572-4.977c1.167-1.19,2.649-1.785,4.446-1.785c1.881,0,3.373,0.479,4.474,1.438s1.92,2.349,2.456,4.171   S38.135,330.029,38.136,333.315L38.136,333.315z M28.867,357.361c0,1.242,0.137,2.127,0.411,2.654   c0.274,0.526,0.661,0.789,1.161,0.789c0.512,0,0.908-0.273,1.188-0.82c0.28-0.549,0.419-1.475,0.419-2.781v-26.289   c0-1.369-0.134-2.322-0.402-2.859c-0.268-0.537-0.652-0.806-1.152-0.806c-0.523,0-0.925,0.253-1.205,0.759   c-0.28,0.505-0.42,1.326-0.42,2.464V357.361z"/>
	<path id="path2958-1-7" fill="#97885F" d="M104.166,333.315v22.245c0,2.338-0.252,4.486-0.758,6.445s-1.34,3.508-2.5,4.645   c-1.161,1.138-2.67,1.707-4.527,1.707c-1.428,0-2.658-0.374-3.688-1.122s-1.872-1.817-2.527-3.207   c-0.488-1.032-0.863-2.392-1.125-4.076c-0.155-1.032-0.232-2.401-0.232-4.107v-22.908c0-2.485,0.202-4.529,0.607-6.13   c0.548-2.128,1.405-3.787,2.571-4.977c1.167-1.19,2.649-1.785,4.447-1.785c1.881,0,3.372,0.479,4.474,1.438   c1.101,0.959,1.919,2.349,2.456,4.171C103.898,327.476,104.166,330.029,104.166,333.315L104.166,333.315z M94.898,357.361   c0,1.242,0.137,2.127,0.411,2.654c0.274,0.526,0.661,0.789,1.161,0.789c0.512,0,0.908-0.273,1.188-0.82   c0.28-0.549,0.42-1.475,0.42-2.781v-26.289c0-1.369-0.134-2.322-0.402-2.859c-0.268-0.537-0.652-0.806-1.152-0.806   c-0.524,0-0.926,0.253-1.206,0.759c-0.28,0.505-0.419,1.326-0.419,2.464V357.361z"/>
</g>
<g>
	<path fill="#97885F" d="M76.733,230.734c-0.072-0.76-0.112-1.528-0.112-2.307c0-13.493,10.977-24.47,24.469-24.47   s24.47,10.977,24.47,24.47c0,0.778-0.041,1.547-0.112,2.307c-0.017,0.176-0.037,0.351-0.058,0.525   c-0.021,0.18-0.043,0.357-0.067,0.534c-0.463,3.35-1.602,6.485-3.281,9.261c-0.236,0.393-0.486,0.776-0.744,1.153   c-0.433,0.632-0.892,1.243-1.379,1.829c-0.604,0.728-1.254,1.415-1.937,2.069c-2.597,3.145-4.39,6.975-5.07,11.174   c8.381-3.446,14.937-10.439,17.796-19.102c0.059-0.178,0.122-0.354,0.178-0.534c0.055-0.173,0.1-0.352,0.15-0.526   c0.651-2.242,1.064-4.584,1.194-7c0.009-0.161,0.011-0.324,0.016-0.485c0.007-0.161,0.009-0.324,0.013-0.486   c0.006-0.239,0.019-0.478,0.019-0.719c0-17.196-13.99-31.187-31.187-31.187c-17.197,0-31.187,13.99-31.187,31.187   c0,0.241,0.013,0.479,0.019,0.719C72.279,229.43,74.559,229.968,76.733,230.734z"/>
	<path fill="#97885F" d="M101.09,252.896c-1.372,0-2.716-0.119-4.026-0.337c-0.176-0.029-0.351-0.062-0.525-0.094   c-0.176-0.034-0.354-0.065-0.529-0.104c-3.289-0.697-6.334-2.06-8.993-3.937c-0.373-0.264-0.738-0.536-1.096-0.819   c-0.598-0.473-1.172-0.975-1.722-1.5c-0.683-0.654-1.333-1.342-1.937-2.069c-2.968-2.826-6.669-4.885-10.789-5.858   c2.859,8.662,9.415,15.655,17.795,19.102c0.171,0.07,0.346,0.137,0.519,0.204c0.17,0.067,0.338,0.139,0.51,0.203   c2.196,0.812,4.511,1.376,6.907,1.675c0.161,0.021,0.322,0.045,0.485,0.062c0.16,0.018,0.321,0.033,0.481,0.049   c0.961,0.089,1.934,0.141,2.919,0.141c0.985,0,1.958-0.052,2.919-0.141c0.115-2.383,0.499-4.695,1.106-6.914   C103.806,252.777,102.462,252.896,101.09,252.896z"/>
	<path fill="#97885F" d="M31.04,252.896c-13.492,0-24.469-10.977-24.469-24.469c0-13.493,10.977-24.47,24.469-24.47   s24.469,10.977,24.469,24.47c0,0.778-0.04,1.547-0.112,2.307c-0.016,0.176-0.037,0.351-0.057,0.525   c-0.021,0.18-0.043,0.357-0.067,0.534c-0.463,3.35-1.602,6.485-3.281,9.261c-0.237,0.393-0.486,0.776-0.745,1.153   c-0.432,0.632-0.891,1.243-1.378,1.829c-0.604,0.728-1.254,1.415-1.937,2.069c-2.597,3.145-4.389,6.975-5.07,11.174   c8.381-3.446,14.937-10.439,17.796-19.102c0.059-0.178,0.123-0.354,0.178-0.534c0.054-0.173,0.1-0.352,0.15-0.526   c0.652-2.242,1.064-4.584,1.195-7c0.008-0.161,0.01-0.324,0.016-0.485c0.006-0.161,0.008-0.324,0.012-0.486   c0.005-0.239,0.019-0.478,0.019-0.719c0-17.196-13.99-31.187-31.187-31.187s-31.187,13.99-31.187,31.187   s13.99,31.187,31.187,31.187c0.985,0,1.958-0.052,2.919-0.141c0.115-2.383,0.499-4.695,1.107-6.914   C33.756,252.777,32.412,252.896,31.04,252.896z"/>
	<path fill="#97885F" d="M171.14,197.241c-17.196,0-31.187,13.99-31.187,31.187c0,0.241,0.013,0.479,0.019,0.719   c2.356,0.283,4.637,0.821,6.811,1.588c-0.071-0.76-0.112-1.528-0.112-2.307c0-13.493,10.978-24.47,24.47-24.47   s24.47,10.977,24.47,24.47c0,13.492-10.978,24.469-24.47,24.469c-1.372,0-2.716-0.119-4.025-0.337   c-0.177-0.029-0.352-0.062-0.526-0.094c-0.176-0.034-0.354-0.065-0.528-0.104c-3.289-0.697-6.335-2.06-8.993-3.937   c-0.373-0.264-0.738-0.536-1.096-0.819c-0.598-0.473-1.172-0.975-1.723-1.5c-0.683-0.654-1.332-1.342-1.937-2.069   c-2.968-2.826-6.669-4.885-10.789-5.858c2.859,8.662,9.415,15.655,17.796,19.102c0.171,0.07,0.346,0.137,0.519,0.204   c0.171,0.067,0.339,0.139,0.51,0.203c2.197,0.812,4.512,1.376,6.908,1.675c0.161,0.021,0.322,0.045,0.485,0.062   c0.16,0.018,0.32,0.033,0.48,0.049c0.961,0.089,1.934,0.141,2.919,0.141c17.196,0,31.187-13.99,31.187-31.187   S188.336,197.241,171.14,197.241z"/>
	<path fill="#97885F" d="M90.422,258.746c0.072,0.76,0.112,1.529,0.112,2.307c0,13.493-10.977,24.47-24.469,24.47   s-24.469-10.977-24.469-24.47c0-0.777,0.04-1.547,0.112-2.307c0.016-0.176,0.037-0.351,0.057-0.525   c0.021-0.18,0.043-0.357,0.067-0.533c0.463-3.35,1.602-6.485,3.281-9.262c0.237-0.392,0.486-0.775,0.745-1.153   c0.432-0.632,0.891-1.242,1.378-1.829c0.604-0.728,1.254-1.415,1.937-2.068c2.597-3.145,4.389-6.975,5.07-11.174   c-8.38,3.445-14.937,10.438-17.795,19.101c-0.059,0.178-0.123,0.354-0.178,0.534c-0.054,0.174-0.099,0.353-0.15,0.526   c-0.652,2.242-1.064,4.585-1.195,7c-0.008,0.161-0.01,0.324-0.016,0.486c-0.006,0.161-0.008,0.323-0.012,0.485   c-0.005,0.239-0.019,0.478-0.019,0.719c0,17.196,13.99,31.188,31.187,31.188s31.187-13.991,31.187-31.188   c0-0.241-0.013-0.479-0.019-0.719C94.876,260.051,92.596,259.514,90.422,258.746z"/>
	<path fill="#97885F" d="M66.065,236.584c1.372,0,2.716,0.12,4.026,0.337c0.176,0.03,0.352,0.062,0.525,0.094   c0.176,0.034,0.354,0.065,0.529,0.104c3.289,0.697,6.334,2.06,8.993,3.937c0.373,0.264,0.738,0.537,1.096,0.82   c0.598,0.473,1.172,0.975,1.722,1.5c0.683,0.653,1.333,1.341,1.937,2.068c2.968,2.827,6.669,4.886,10.789,5.858   c-2.859-8.662-9.415-15.655-17.795-19.101c-0.171-0.07-0.346-0.138-0.519-0.205c-0.17-0.066-0.338-0.138-0.51-0.202   c-2.196-0.812-4.511-1.376-6.907-1.676c-0.161-0.021-0.322-0.044-0.485-0.062c-0.16-0.017-0.321-0.032-0.481-0.048   c-0.961-0.089-1.934-0.142-2.919-0.142s-1.958,0.053-2.919,0.142c-0.115,2.383-0.499,4.694-1.107,6.913   C63.349,236.704,64.693,236.584,66.065,236.584z"/>
	<path fill="#97885F" d="M160.472,258.746c0.072,0.76,0.112,1.529,0.112,2.307c0,13.493-10.977,24.47-24.47,24.47   c-13.492,0-24.469-10.977-24.469-24.47c0-0.777,0.04-1.547,0.112-2.307c0.016-0.176,0.036-0.351,0.057-0.525   c0.021-0.18,0.044-0.357,0.068-0.533c0.463-3.35,1.601-6.485,3.28-9.262c0.237-0.392,0.486-0.775,0.745-1.153   c0.432-0.632,0.891-1.242,1.378-1.829c0.604-0.728,1.254-1.415,1.938-2.068c2.597-3.145,4.39-6.975,5.069-11.174   c-8.38,3.445-14.937,10.438-17.795,19.101c-0.06,0.178-0.123,0.354-0.179,0.534c-0.054,0.174-0.099,0.353-0.149,0.526   c-0.652,2.242-1.064,4.585-1.195,7c-0.008,0.161-0.01,0.324-0.016,0.486c-0.007,0.161-0.008,0.323-0.012,0.485   c-0.006,0.239-0.02,0.478-0.02,0.719c0,17.196,13.99,31.188,31.187,31.188c17.197,0,31.187-13.991,31.187-31.188   c0-0.241-0.013-0.479-0.019-0.719C164.926,260.051,162.646,259.514,160.472,258.746z"/>
	<path fill="#97885F" d="M136.114,236.584c1.372,0,2.716,0.12,4.026,0.337c0.176,0.03,0.352,0.062,0.525,0.094   c0.177,0.034,0.354,0.065,0.528,0.104c3.29,0.697,6.335,2.06,8.994,3.937c0.372,0.264,0.738,0.537,1.095,0.82   c0.599,0.473,1.173,0.975,1.723,1.5c0.684,0.653,1.333,1.341,1.937,2.068c2.968,2.827,6.67,4.886,10.789,5.858   c-2.858-8.662-9.415-15.655-17.795-19.101c-0.172-0.07-0.346-0.138-0.52-0.205c-0.171-0.066-0.338-0.138-0.51-0.202   c-2.196-0.812-4.511-1.376-6.907-1.676c-0.161-0.021-0.322-0.044-0.485-0.062c-0.16-0.017-0.32-0.032-0.48-0.048   c-0.962-0.089-1.935-0.142-2.92-0.142c-0.984,0-1.957,0.053-2.919,0.142c-0.115,2.383-0.498,4.694-1.106,6.913   C133.399,236.704,134.743,236.584,136.114,236.584z"/>
</g>
</svg>