<?xml version="1.0" encoding="UTF-8" standalone="no"?>
<svg xmlns="http://www.w3.org/2000/svg" xml:space="preserve" width="144.34625" height="35.490002">
  <defs>
    <clipPath id="a" clipPathUnits="userSpaceOnUse">
      <path d="M276.967 364.923h115.477v28.392H276.967v-28.392z"/>
    </clipPath>
    <clipPath id="b" clipPathUnits="userSpaceOnUse">
      <path d="M276.967 364.923h115.477v28.392H276.967v-28.392z"/>
    </clipPath>
  </defs>
  <g fill="none" stroke="#231f20" stroke-miterlimit="8" clip-path="url(#a)" transform="matrix(1.25 0 0 -1.25 -346.20875 491.64375)">
    <path stroke-width=".986" d="M281.7303 365.3217v20.753c0 1.218.987 2.206 2.206 2.206 1.218 0 2.206-.988 2.206-2.206v-20.753m4.2114-.0234v20.796c0 1.218.988 2.206 2.206 2.206s2.206-.988 2.206-2.206v-20.796"/>
    <path stroke-width=".986" d="M279.5715 365.2986v20.966c0 2.397 1.943 4.341 4.341 4.341 2.397 0 4.341-1.944 4.341-4.341v-20.966"/>
    <path stroke-width=".986" d="M288.2535 365.3217v21.003c0 2.398 1.943 4.341 4.341 4.341 2.397 0 4.341-1.943 4.341-4.341v-21.026m-19.4758.0463v20.961c0 3.56 2.886 6.446 6.447 6.446 1.819 0 3.462-.753 4.634-1.965"/>
    <path stroke-width=".986" d="M287.8958 390.7051c1.177 1.266 2.904 2.094 4.769 2.094 2.218 0 4.175-1.12 5.335-2.826"/>
    <path stroke-width=".99000001" d="M310.2709 368.2497c-1.387-1.526-3.482-2.498-5.826-2.498-3.871 0-7.062 2.649-7.507 6.066"/>
    <path stroke-width=".986" d="M298.0849 389.6165c1.346 1.902 3.691 3.161 6.359 3.161 2.804 0 5.251-1.39 6.557-3.455"/>
    <path stroke-width=".986" d="M309.597 387.1362c-.777 2.049-2.753 3.504-5.068 3.504-2.993 0-5.42-2.435-5.42-5.438v-11.791c0-3.003 2.427-5.438 5.42-5.438 2.894 0 5.257 2.274 5.413 5.138l-.03.212"/>
    <path stroke-width=".986" d="M307.8395 373.2629c-.083-1.81-1.532-3.298-3.363-3.298-1.884 0-3.411 1.528-3.411 3.411l-.044 3.98m.0439 3.5937v3.98c0 1.884 1.527 3.411 3.411 3.411 1.799 0 3.272-1.391 3.402-3.156"/>
  </g>
  <path fill="none" stroke="#231f20" stroke-miterlimit="8" stroke-width="1.2325" d="M29.594875 14.840875h8.08125m-8.22075 5.573h8.3525"/>
  <path fill="none" stroke="#231f20" stroke-miterlimit="2" stroke-width="1.2325" d="M27.718 17.597875h10.04625"/>
  <g clip-path="url(#b)" transform="matrix(1.25 0 0 -1.25 -346.20875 491.64375)">
    <path fill="#231f20" d="M297.3345 390.0658s.458-.634.528-.739c.07-.106.305-.553.305-.553s.352.658.516.858c.165.199-1.349.434-1.349.434"/>
    <path fill="none" stroke="#231f20" stroke-miterlimit="8" stroke-width=".986" d="M323.5581 393.3156v-27.982m2.0988 27.9416v-27.972m2.2056 28.0072v-28.007m-4.3643.2295-5.793 13.797 5.805 13.775"/>
    <path fill="none" stroke="#231f20" stroke-miterlimit="2" stroke-width=".986" d="M342.3146 369.6378c-1.323-2.315-3.853-3.88-6.756-3.88-4.273 0-7.736 3.389-7.736 7.569v11.802c0 4.18 3.463 7.569 7.736 7.569 2.801 0 5.254-1.456 6.612-3.637"/>
    <path fill="none" stroke="#231f20" stroke-miterlimit="2" stroke-width=".986" d="M341.1052 373.6124c0-3.086-2.484-5.588-5.547-5.588-3.064 0-5.547 2.502-5.547 5.588v11.404c0 3.086 2.483 5.587 5.547 5.587 3.063 0 5.547-2.501 5.547-5.587v-11.404z"/>
    <path fill="none" stroke="#231f20" stroke-miterlimit="2" stroke-width=".986" d="M338.8146 373.3193c-.107-1.754-1.56-3.143-3.338-3.143-1.846 0-3.344 1.5-3.344 3.35v11.608c0 1.851 1.498 3.351 3.344 3.351 1.819 0 3.298-1.454 3.344-3.265m3.3697 3.8115c1.347 2.227 3.827 3.721 6.663 3.721 4.273 0 7.737-3.389 7.737-7.569v-11.803c0-4.18-3.464-7.568-7.737-7.568-2.843 0-5.327 1.5-6.671 3.734"/>
    <path fill="none" stroke="#231f20" stroke-miterlimit="2" stroke-width=".986" d="M354.4006 377.2526v-3.586c0-3.086-2.484-5.587-5.547-5.587-3.064 0-5.547 2.501-5.547 5.587v11.404c0 3.086 2.483 5.587 5.547 5.587 3.063 0 5.547-2.501 5.547-5.587v-4.408"/>
    <path fill="none" stroke="#231f20" stroke-miterlimit="2" stroke-width=".986" d="M352.1166 373.581c0-1.85-1.497-3.35-3.344-3.35-1.847 0-3.344 1.5-3.344 3.35v11.608c0 1.85 1.497 3.35 3.344 3.35 1.847 0 3.344-1.5 3.344-3.35v-11.608z"/>
    <path fill="#231f20" d="M341.5779 389.045h1.197s-.587-.978-.599-1.047c0 0-.481.93-.598 1.047m.0036-19.6761s.595.883.595 1.419c0 0 .405-1.072.666-1.346.26-.276-1.261-.073-1.261-.073"/>
    <path fill="none" stroke="#231f20" stroke-miterlimit="2" stroke-width=".986" d="m358.637 379.2014.036 5.581c0 4.18 3.463 7.569 7.736 7.569 2.801 0 5.254-1.457 6.612-3.638"/>
    <path fill="none" stroke="#231f20" stroke-miterlimit="2" stroke-width=".986" d="M371.9557 384.2176v.452c0 3.086-2.483 5.587-5.547 5.587-3.063 0-5.547-2.501-5.547-5.587v-11.212"/>
    <path fill="none" stroke="#231f20" stroke-miterlimit="2" stroke-width=".986" d="M369.6706 384.8734c-.045 1.811-1.524 3.265-3.343 3.265-1.847 0-3.344-1.5-3.344-3.351l-.007-4.759"/>
    <path fill="#231f20" d="m372.4284 388.6982 1.161-.15s-.551-.828-.563-.897c0 0-.481.93-.598 1.047m-9.9549-8.5289v-.827s.462.317.858.497l-.858.33z"/>
    <path fill="none" stroke="#231f20" stroke-miterlimit="2" stroke-width="1.01699996" d="M369.6637 373.2081c0-1.809-1.467-3.275-3.276-3.275-1.809 0-3.275 1.466-3.275 3.275s1.466 3.276 3.275 3.276 3.276-1.467 3.276-3.276zm13.2618.0251c0-1.809-1.467-3.275-3.276-3.275-1.809 0-3.275 1.466-3.275 3.275s1.466 3.276 3.275 3.276 3.276-1.467 3.276-3.276zm.0237 11.5748c0-1.809-1.467-3.275-3.276-3.275-1.809 0-3.275 1.466-3.275 3.275s1.466 3.276 3.275 3.276 3.276-1.467 3.276-3.276z"/>
    <path fill="#231f20" d="M379.6736 379.7475c2.795 0 5.061 2.266 5.061 5.061 0 2.794-2.266 5.06-5.061 5.06s-5.061-2.266-5.061-5.06c0-2.795 2.266-5.061 5.061-5.061m-6.061 5.061c0 3.347 2.713 6.061 6.061 6.061s6.062-2.714 6.062-6.061c0-3.348-2.714-6.062-6.062-6.062-3.348 0-6.061 2.714-6.061 6.062"/>
    <path fill="none" stroke="#231f20" stroke-miterlimit="2" stroke-width=".986" d="M372.9893 388.5406c1.338 2.319 3.844 3.88 6.713 3.88 4.278 0 7.747-3.468 7.747-7.746 0-2.276-.982-4.321-2.544-5.738 1.572-1.418 2.561-3.471 2.561-5.754 0-4.278-3.468-7.746-7.746-7.746-2.801 0-5.255 1.487-6.615 3.715-1.374-2.241-3.845-3.736-6.666-3.736-4.316 0-7.814 3.499-7.814 7.814 0 .24-.01 3.273.012 3.508v2.622"/>
    <path fill="none" stroke="#231f20" stroke-miterlimit="2" stroke-width="1.02400005" d="M371.9571 384.6743c0-.029 0-.059.001-.088.024-2.248 1.008-4.266 2.56-5.666-.536-.485-1-1.045-1.383-1.663-1.367 2.269-3.854 3.786-6.696 3.786-1.35 0-2.62-.342-3.728-.945"/>
    <path fill="#f9a91f" d="M366.4008 368.16c2.795 0 5.061 2.266 5.061 5.061s-2.266 5.06-5.061 5.06-5.061-2.265-5.061-5.06c0-2.795 2.266-5.061 5.061-5.061m-6.061 5.061c0 3.347 2.713 6.061 6.061 6.061s6.062-2.714 6.062-6.061c0-3.348-2.714-6.061-6.062-6.061-3.348 0-6.061 2.713-6.061 6.061"/>
    <path fill="#0b8ed8" d="M361.3428 373.1386c2.524.732 4.373 3.043 4.373 5.803 0 3.348-2.714 6.061-6.061 6.061-3.348 0-6.062-2.713-6.062-6.061s2.714-6.061 6.062-6.061c.222 0 .477.023.694.047 0 0-.005.426-.005.497 0 .145.04.519.04.519-.005-.001-.5-.062-.729-.062-2.795 0-5.061 2.266-5.061 5.06 0 2.795 2.266 5.061 5.061 5.061s5.06-2.266 5.06-5.061c0-2.163-1.365-4.01-3.275-4.734 0 0-.056-.286-.075-.488-.027-.282-.022-.581-.022-.581"/>
    <path fill="#231f20" d="M372.9893 385.1049c-3.263 0-5.926-2.612-6.059-5.842 0 0 .294-.034.502-.07.299-.053.492-.106.492-.106.036 2.765 2.292 5.017 5.065 5.017 2.795 0 5.061-2.266 5.061-5.06 0-2.795-2.266-5.061-5.061-5.061-2.437 0-4.478 1.736-4.959 4.03 0 0-.235.083-.502.141-.303.066-.55.093-.55.093.397-2.965 2.938-5.265 6.011-5.265 3.347 0 6.061 2.714 6.061 6.062 0 3.347-2.714 6.061-6.061 6.061"/>
    <path fill="#009e59" d="M379.65 379.2945c-.199 0-.413-.004-.607-.023 0 0 .014-.33-.005-.589-.017-.256-.044-.432-.044-.432.212.027.438.043.656.043 2.795 0 5.061-2.266 5.061-5.06 0-2.795-2.266-5.061-5.061-5.061s-5.061 2.266-5.061 5.061c0 2.178 1.427 4.063 3.358 4.776 0 0 .035.123.071.417.033.275.03.656.03.656-.446-.125-.905-.311-1.304-.529-1.88-1.029-3.155-3.026-3.155-5.32 0-3.348 2.713-6.062 6.061-6.062 3.347 0 6.061 2.714 6.061 6.062 0 3.347-2.714 6.061-6.061 6.061"/>
    <path fill="#ee2049" d="M386.3826 385.0252c-3.111 0-5.674-2.344-6.022-5.362-.015-.132-.026-.265-.032-.4 0 0 .215-.031.518-.088.279-.053.476-.11.476-.11.003.14.012.279.026.416.259 2.552 2.414 4.543 5.034 4.543 2.795 0 5.061-2.266 5.061-5.06 0-2.795-2.266-5.061-5.061-5.061-2.403 0-4.415 1.675-4.932 3.921-.011.051-.022.103-.033.154 0 0-.29.109-.492.154-.431.097-.563.119-.563.119.008-.07.019-.151.03-.22.448-2.905 2.96-5.129 5.99-5.129 3.348 0 6.062 2.714 6.062 6.062 0 3.347-2.714 6.061-6.062 6.061"/>
    <path d="m315.3087 369.7188-2.05-4.374h1.032l1.01 2.033v-.006l1.017-2.05h1.032z"/>
    <path fill="#231f20" d="m312.0002 365.3687 3.285 7.04v2.393l-4.411-9.433h1.126z"/>
    <path fill="#231f20" d="m315.282075 374.80795-.01013325-2.39925 3.32175825-7.0634h1.127z"/>
    <path d="M309.4917 365.3783h-1.021l12.593 27.912h1.125l-12.697-27.912z"/>
    <path d="m320.9113 365.3844 1.094-.005-12.187 27.911h-1.121l12.214-27.906z"/>
    <path fill="none" stroke="#231f20" stroke-miterlimit="8" stroke-width=".986" d="m309.5716 387.2264 3.344-7.896-3.074-6.289"/>
    <path d="m315.2768 388.9057 2.05 4.374h-1.032l-1.01-2.033v.006l-1.017 2.05h-1.032z"/>
    <path fill="#231f20" d="m318.5852 393.256-3.285-7.04v-2.393l4.411 9.433z"/>
    <path fill="#231f20" d="m315.30903883 383.82741942.00441942 2.37974178L311.9918 393.2794h-1.127z"/>
  </g>
</svg>