<?xml version="1.0" encoding="UTF-8"?>
<!-- Generator: Adobe Illustrator 16.0.0, SVG Export Plug-In . SVG Version: 6.00 Build 0)  -->
<!DOCTYPE svg PUBLIC "-//W3C//DTD SVG 1.1//EN" "http://www.w3.org/Graphics/SVG/1.1/DTD/svg11.dtd">
<svg version="1.1" id="svg4241" xmlns:dc="http://purl.org/dc/elements/1.1/" xmlns:cc="http://creativecommons.org/ns#" xmlns:rdf="http://www.w3.org/1999/02/22-rdf-syntax-ns#" xmlns:svg="http://www.w3.org/2000/svg" xmlns:sodipodi="http://sodipodi.sourceforge.net/DTD/sodipodi-0.dtd" xmlns:inkscape="http://www.inkscape.org/namespaces/inkscape" sodipodi:docname="Olympialogo, M√ºnchen 1972.svg" inkscape:version="0.91 r13725" xmlns="http://www.w3.org/2000/svg" xmlns:xlink="http://www.w3.org/1999/xlink" x="0px" y="0px" width="447px" height="223px" viewBox="0 0 1760 880" enable-background="new 0 0 1760 880" xml:space="preserve">
<sodipodi:namedview inkscape:cy="440" inkscape:cx="880" inkscape:zoom="0.4625" showgrid="false" id="namedview7058" guidetolerance="10" gridtolerance="10" objecttolerance="10" borderopacity="1" bordercolor="#666666" pagecolor="#ffffff" inkscape:current-layer="svg4241" inkscape:window-maximized="1" inkscape:window-y="71" inkscape:window-height="1001" inkscape:window-width="1280" inkscape:window-x="-8" inkscape:pageopacity="0" inkscape:pageshadow="2">
	</sodipodi:namedview>
<title id="title4243">Olympialogo, München 1972</title>
<g id="g7719">
	<path id="path4283" inkscape:connector-curvature="0" fill="#00CDEC" d="M917.497,97.982c0,14.926,6.145,29.759,16.698,40.314   c10.554,10.554,25.387,16.699,40.314,16.699c14.926,0,29.759-6.145,40.313-16.699s16.698-25.389,16.698-40.314   c0-14.926-6.145-29.759-16.698-40.314c-10.554-10.554-25.389-16.699-40.313-16.699c-14.926,0-29.76,6.145-40.314,16.699   S917.497,83.057,917.497,97.982h7.602c0-12.936,5.325-25.793,14.473-34.94c9.146-9.147,22.003-14.473,34.939-14.472   c12.936,0,25.791,5.325,34.938,14.472c9.146,9.147,14.472,22.003,14.472,34.94c0,12.936-5.325,25.793-14.472,34.94   c-9.147,9.147-22.003,14.472-34.94,14.472c-12.936,0-25.793-5.325-34.939-14.472c-9.147-9.147-14.473-22.003-14.473-34.94H917.497z   "/>
	<path id="path4285" inkscape:connector-curvature="0" fill="#00CDEC" d="M980.21,151.2c0,31.487,25.525,57.012,57.013,57.012   c0,0,0.001,0,0.002,0c31.486,0,57.012-25.525,57.012-57.012l0,0c0-31.487-25.525-57.012-57.012-57.012l0,0   c-31.487-0.001-57.014,25.523-57.015,57.01C980.21,151.199,980.21,151.2,980.21,151.2h7.602c0-27.289,22.122-49.411,49.411-49.411   c0,0,0.001,0,0.002,0c27.288,0,49.41,22.122,49.41,49.411l0,0c0.001,27.289-22.12,49.411-49.408,49.413c-0.001,0-0.002,0-0.002,0   c-27.289,0.001-49.412-22.12-49.413-49.409c0-0.001,0-0.003,0-0.004H980.21z"/>
	<path id="path4287" inkscape:connector-curvature="0" fill="#00CDEC" d="M1042.923,97.982c0,31.487,25.525,57.012,57.013,57.012   l0,0c31.487,0.001,57.013-25.523,57.014-57.01c0,0,0-0.001,0-0.002c0-31.487-25.525-57.012-57.012-57.012c-0.001,0-0.002,0-0.002,0   C1068.448,40.97,1042.923,66.495,1042.923,97.982L1042.923,97.982h7.603c0-27.289,22.121-49.411,49.41-49.411l0,0   c27.289,0,49.41,22.122,49.41,49.411l0,0c0,27.289-22.121,49.411-49.41,49.411l0,0c-27.289,0-49.41-22.122-49.41-49.411l0,0   H1042.923z"/>
	<path id="path4289" inkscape:connector-curvature="0" fill="#00CDEC" d="M1105.637,151.2c0,31.487,25.524,57.012,57.012,57.012l0,0   c31.487,0,57.013-25.525,57.013-57.012l0,0c0-31.487-25.525-57.012-57.013-57.012l0,0   C1131.161,94.188,1105.637,119.713,1105.637,151.2L1105.637,151.2h7.602c0-27.289,22.121-49.411,49.41-49.411l0,0   c27.289,0,49.41,22.122,49.411,49.411l0,0c0,27.289-22.122,49.411-49.411,49.411l0,0c-27.289,0-49.41-22.122-49.41-49.411l0,0   H1105.637z"/>
	<path id="path4291" inkscape:connector-curvature="0" fill="#00CDEC" d="M1168.35,97.982c0,31.487,25.525,57.012,57.012,57.012l0,0   c31.487,0.001,57.014-25.523,57.015-57.01c0,0,0-0.001,0-0.002c0-31.487-25.525-57.012-57.013-57.012c0,0-0.001,0-0.002,0   C1193.875,40.97,1168.35,66.495,1168.35,97.982L1168.35,97.982h7.602c0-27.289,22.122-49.411,49.41-49.411l0,0   c27.289,0,49.411,22.122,49.411,49.411l0,0c0,27.289-22.122,49.411-49.411,49.411l0,0c-27.288,0-49.41-22.122-49.41-49.411l0,0   H1168.35z"/>
</g>
<path id="path4293" inkscape:connector-curvature="0" fill="#FFFFFF" stroke="#000000" stroke-width="7.5" d="M880,13.42v852.03"/>
<path id="path4295" inkscape:connector-curvature="0" fill="#FFFFFF" stroke="#000000" stroke-width="7.5" d="M1320,13.42v852.03"/>
<path id="path3376" inkscape:connector-curvature="0" d="M187.891,207.643V79.056h-3.164l-45.384,128.587H120.89L75.51,79.056h-2.85  l0.001,128.587H53.456V63.85h33.508l42.7,117.278h2.302l42.96-117.278h31.781v143.792H187.891z"/>
<path id="path3378" inkscape:connector-curvature="0" d="M291.827,191.542c-2.274,5.394-6.271,9.716-11.99,12.966  c-5.654,3.185-12.187,4.777-19.596,4.777c-6.499,0-12.478-1.203-17.938-3.607c-5.459-2.469-9.781-5.849-12.966-10.139  c-1.755-2.34-2.989-5.167-3.704-8.481s-1.073-9.001-1.073-17.061v-62.878h18.328v64.051c0,8.449,1.819,14.655,5.459,18.62  c3.64,3.965,9.262,5.947,16.865,5.947c7.799,0,14.168-2.145,19.107-6.434c5.005-4.29,7.507-9.781,7.507-16.475v-65.708h18.522  v80.426c0,3.964,0.065,7.571,0.195,10.821c0.13,3.185,0.357,6.174,0.682,8.969h-18.814L291.827,191.542z M275.798,85.103V64.728  h17.743v20.375H275.798z M238.365,85.103V64.728h17.742v20.375H238.365z"/>
<path id="path3380" inkscape:connector-curvature="0" d="M352.748,123.801c2.274-5.394,6.206-9.651,11.795-12.771  c5.654-3.185,12.187-4.777,19.596-4.777c6.629,0,12.673,1.202,18.132,3.607c5.524,2.405,9.847,5.719,12.966,9.944  c1.755,2.34,2.99,5.167,3.705,8.481c0.779,3.314,1.17,9.001,1.17,17.061v62.296h-18.425v-63.27c0-8.449-1.82-14.655-5.46-18.62  c-3.574-3.964-9.196-5.946-16.865-5.946c-7.799,0-14.2,2.112-19.205,6.336c-4.939,4.225-7.447,9.684-7.408,16.378v65.122h-18.523  v-79.647c0-3.705-0.064-7.247-0.194-10.626c-0.13-3.444-0.325-6.759-0.585-9.944h18.718L352.748,123.801z"/>
<path id="path3382" inkscape:connector-curvature="0" d="M518.981,173.913c-0.78,11.698-4.518,20.667-11.211,26.906  c-6.694,6.174-15.988,9.261-27.882,9.261c-14.232,0-25.217-4.354-32.95-13.063c-7.734-8.774-11.602-21.22-11.602-37.337  c0-17.223,4.029-30.644,12.089-40.262c8.124-9.619,19.399-14.428,33.828-14.428c11.243,0,20.212,3.055,26.906,9.164  c6.694,6.044,10.031,14.168,10.041,24.372v0.39h-17.938c0-5.979-1.95-10.951-5.85-14.916c-3.899-4.029-8.741-6.044-14.525-6.044  c-7.864,0-14.07,3.347-18.62,10.042c-4.484,6.629-6.727,15.728-6.727,27.296c0,13.453,2.08,23.625,6.239,30.514  c4.225,6.824,10.464,10.236,18.718,10.236c6.434,0,11.601-1.982,15.5-5.947c3.899-4.029,5.915-9.424,6.045-16.183L518.981,173.913z"/>
<path id="path3384" inkscape:connector-curvature="0" d="M558.704,123.997c2.275-5.395,6.239-9.684,11.894-12.869  c5.654-3.25,12.154-4.875,19.498-4.875c6.629,0,12.673,1.203,18.133,3.607c5.523,2.405,9.846,5.719,12.966,9.944  c1.755,2.339,2.989,5.199,3.704,8.579c0.78,3.379,1.17,9.099,1.17,17.158v62.101h-18.425v-63.27c0-8.449-1.819-14.655-5.459-18.62  c-3.575-3.964-9.196-5.946-16.865-5.946c-7.8,0-14.201,2.112-19.205,6.337c-4.939,4.224-7.409,9.684-7.409,16.377v65.122h-18.522  V63.85h18.522V124L558.704,123.997z"/>
<path id="path3386" inkscape:connector-curvature="0" d="M657.358,147.59h51.668v-2.242c0-8.319-2.308-15.013-6.922-20.082  c-4.55-5.135-10.464-7.702-17.743-7.702c-7.993,0-14.493,2.762-19.497,8.286C659.859,131.375,657.357,138.622,657.358,147.59  L657.358,147.59z M725.99,175.472c-0.064,10.399-3.802,18.783-11.211,25.152c-7.344,6.304-17.093,9.457-29.246,9.457  c-15.599,0-27.427-4.29-35.485-12.869c-8.06-8.579-12.089-21.155-12.089-37.729c0-17.613,3.965-31.098,11.894-40.457  c7.994-9.359,19.4-14.039,34.218-14.039c13.584,0,24.274,3.9,32.073,11.699c7.8,7.734,11.699,18.295,11.699,31.684  c0,3.25-0.033,5.719-0.098,7.409c-0.064,1.69-0.162,3.282-0.292,4.777h-71.067v1.95v3.997c0,9.489,2.437,16.833,7.312,22.032  c4.874,5.134,11.763,7.702,20.667,7.702c7.344,0,13.161-1.852,17.45-5.557c4.354-3.77,6.597-8.839,6.727-15.208L725.99,175.472  L725.99,175.472z"/>
<path id="path3388" inkscape:connector-curvature="0" d="M765.669,123.801c2.274-5.394,6.206-9.651,11.796-12.771  c5.654-3.185,12.186-4.777,19.595-4.777c6.629,0,12.673,1.202,18.132,3.607c5.524,2.405,9.847,5.719,12.967,9.944  c1.754,2.34,2.989,5.167,3.704,8.481c0.78,3.314,1.17,9.001,1.17,17.061v62.296h-18.425v-63.27c0-8.449-1.82-14.656-5.459-18.62  c-3.575-3.964-9.197-5.946-16.865-5.946c-7.8,0-14.201,2.112-19.206,6.336c-4.938,4.225-7.408,9.684-7.408,16.378v65.122h-18.522  v-79.647c0-3.705-0.065-7.247-0.195-10.626c-0.13-3.444-0.325-6.759-0.585-9.944h18.718l0.585,16.378V123.801z"/>
<path id="path3398" sodipodi:nodetypes="cccccccccc" inkscape:connector-curvature="0" d="M1380.473,209.142V92.743  c-4.614,3.899-9.488,7.442-14.623,10.626c-5.069,3.12-13.309,5.914-18.963,8.384v-20.57c6.824-3.25,15.583-6.597,20.522-10.041  c5.004-3.445,9.358-7.149,13.063-11.114h19.205v139.113H1380.473z"/>
<path id="path3400" inkscape:connector-curvature="0" d="M1504.231,140.961c-3.445,5.914-7.962,10.431-13.551,13.551  c-5.524,3.055-11.861,4.582-19.011,4.582c-12.088,0-21.935-4.094-29.538-12.283c-7.604-8.254-11.406-19.107-11.406-32.561  c0-14.428,4.225-26.029,12.673-34.803c8.449-8.774,19.4-13.161,32.854-13.161c15.988,0,27.914,5.557,35.778,16.67  c7.929,11.114,11.894,27.849,11.894,50.206c0,25.217-4.192,44.325-12.576,57.324c-8.319,12.933-20.635,19.4-36.947,19.4  c-11.699,0-21.188-3.087-28.467-9.261c-7.279-6.239-11.211-14.526-11.796-24.859l20.18-0.098c0.78,5.979,2.99,10.691,6.629,14.136  c3.64,3.379,8.287,5.069,13.941,5.069c9.879,0,17.223-4.419,22.031-13.258C1501.793,172.71,1504.231,159.16,1504.231,140.961  L1504.231,140.961z M1502.378,112.787c0-9.293-2.405-16.8-7.215-22.52s-11.048-8.579-18.718-8.579  c-8.318,0-14.947,2.827-19.887,8.481c-4.875,5.654-7.312,13.323-7.312,23.007c0,9.164,2.405,16.541,7.215,22.13  c4.874,5.524,11.211,8.287,19.01,8.287s14.233-2.86,19.303-8.579S1502.377,121.887,1502.378,112.787L1502.378,112.787z"/>
<path id="path3402" sodipodi:nodetypes="ccccccc" inkscape:connector-curvature="0" d="M1554.747,206.136l44.521-121.958l-65.514,0  V67.021h89.104l-48.549,139.114L1554.747,206.136z"/>
<path id="path3404" inkscape:connector-curvature="0" d="M1712.885,205.76h-86.859v-19.985c25.802-23.397,43.512-41.14,53.13-53.228  c9.684-12.088,14.525-22.162,14.525-30.221c0-6.564-2.08-11.861-6.239-15.89c-4.16-4.03-9.586-6.044-16.28-6.044  c-6.954,0-12.349,2.047-16.183,6.142c-3.77,4.094-5.654,9.976-5.654,17.645h-21.155c0.39-12.673,4.225-22.487,11.503-29.441  c7.279-7.019,17.288-10.528,30.026-10.528c13.193,0,23.722,3.477,31.586,10.431c7.864,6.889,11.796,16.183,11.796,27.881  c0,8.254-2.015,16.118-6.044,23.592c-4.03,7.409-12.544,17.58-25.542,30.513l-32.756,32.756h64.145v16.378L1712.885,205.76z"/>
<g id="g7602" transform="matrix(0.97167277,0,0,0.97167277,543.53079,264.15342)">
	<path id="path4293-4" inkscape:connector-curvature="0" fill="#00CDEC" d="M419.598,505.798l-6.366,3.943   c6.222,9.614,13.299,18.646,21.143,26.989c0.021-0.021,6.009-5.957,6.824-6.766C433.273,522.481,426.052,514.359,419.598,505.798z"/>
	<path id="path4293-4-3-4-8-6-9-0-2-8-8" inkscape:connector-curvature="0" fill="#00CDEC" d="M566.275,216.105   c0.013,0.233,2.187,38.447,4.297,76.672c5.355-0.911,10.739-1.423,16.096-1.488c-1.352,0.017-2.704,0.069-4.06,0.141   c-0.047,0.923-3.075,77.397-3.65,78.492l24.973-77.534c-4.577-0.661-9.232-1.043-13.957-1.106   c-0.681-0.009-1.367-0.001-2.051,0.004l12.574-73.11C589.175,216.458,577.721,215.765,566.275,216.105L566.275,216.105z"/>
	<path id="path4293-4-3-4-8-6-9-0-2-8-8-8" inkscape:connector-curvature="0" fill="#00CDEC" d="M531.869,220.394   c-11.195,2.408-22.149,5.822-32.731,10.199c0.1,0.225,17.261,38.735,33.6,75.576c3.27-1.806,6.629-3.455,10.046-4.959   c0.272,0.844,22.749,67.517,22.6,68.746l-3.691-75.301c-5.034,1.279-10.005,2.913-14.87,4.855c0.137-0.054,0.27-0.115,0.406-0.168   L531.869,220.394z M544.156,300.615c-0.345,0.147-0.689,0.291-1.032,0.441C543.468,300.906,543.812,300.762,544.156,300.615z"/>
	<path id="path4293-4-3-4-8-6-9-0-2-8-8-8-0" inkscape:connector-curvature="0" fill="#00CDEC" d="M468.611,246.736   c-9.614,6.221-18.646,13.298-26.988,21.142c0.179,0.181,31.842,32.084,61.029,61.6c2.39-2.564,4.921-5.026,7.565-7.385   c-0.007,0.062-0.014,0.111-0.021,0.176c0.284,0.367,42.587,51.179,42.885,52.384l-27.735-64.061   c-5.311,3.425-10.342,7.239-15.005,11.387c1.045-0.931,2.105-1.848,3.187-2.744L468.611,246.736z"/>
	<path id="path4293-4-3-4-8-6-9-0-2-8-8-8-0-9" inkscape:connector-curvature="0" fill="#00CDEC" d="M418.828,293.806   c-6.782,9.227-12.719,19.046-17.737,29.34c0.239,0.109,43.295,19.686,81.844,37.303c1.203-3.155,2.609-6.245,4.19-9.265   c0.553,0.33,55.333,31.251,56.037,32.272l-45.9-47.736c-3.21,4.021-6.083,8.244-8.582,12.628c0.137-0.24,0.264-0.484,0.404-0.725   L418.828,293.806z M487.761,349.999c-0.194,0.359-0.392,0.716-0.582,1.076C487.369,350.715,487.567,350.358,487.761,349.999z"/>
	<path id="path4293-4-3-4-8-6-9-0-2-8-8-8-0-9-8" inkscape:connector-curvature="0" fill="#00CDEC" d="M388.99,355.492   c-3.07,11.031-5.139,22.318-6.18,33.721c0.273,0.017,51.699,3.327,95.246,6.222c-0.113-2.052-0.17-4.068-0.159-6.023   c-0.045-1.535-0.023-3.059,0.03-4.58c-0.013,0.369-0.032,0.738-0.039,1.108c0.747,0.128,58.12,8.574,59.138,9.277l-56.521-27.346   c-1.338,4.903-2.18,9.931-2.49,15.047c0.015-0.246,0.018-0.493,0.035-0.739L388.99,355.492z"/>
	<path id="path4293-4-3-4-8-6-9-0-2-8-8-8-0-9-8-3" inkscape:connector-curvature="0" fill="#00CDEC" d="M478.754,403.084   c0.71,5.509,1.893,11.205,3.599,16.887c0.888-0.18,51.925-11.72,53.125-11.424L478.754,403.084z M481.4,416.758l-97.912,6.996   c1.177,7.782,3.019,15.684,5.468,23.588c0.18,0.579,0.359,1.159,0.546,1.738c0.247,0.77,0.503,1.54,0.762,2.309   c0.197,0.586,0.393,1.171,0.597,1.756c0.274,0.788,0.56,1.575,0.846,2.362c0.133,0.365,0.264,0.731,0.4,1.095   c3.691-1.136,51.821-15.927,92.97-28.469C483.603,424.369,482.387,420.558,481.4,416.758z M392.107,456.601   c0,0-0.007,0.002-0.008,0.002c-0.136-0.366-0.259-0.732-0.392-1.097c-0.286-0.787-0.572-1.574-0.846-2.361   c-0.204-0.586-0.4-1.171-0.597-1.757c-0.259-0.769-0.515-1.539-0.762-2.309c-0.187-0.579-0.366-1.159-0.546-1.738   c-0.131-0.423-0.272-0.846-0.4-1.269l-2.116,0.412c2.409,11.194,5.822,22.149,10.2,32.73c0.013-0.006,4.249-1.888,4.547-2.021   C397.705,470.417,394.678,463.527,392.107,456.601L392.107,456.601z"/>
	<path id="path4293-4-3-4-8-6-9-0-2-8-8-8-0-9-8-9" inkscape:connector-curvature="0" fill="#00CDEC" d="M538.648,421.342   l-50.471,13.51c1.954,3.959,4.216,7.814,6.819,11.491l-88.196,40.655c5.573,9.406,12.015,18.495,19.257,27.038   c0,0,42.561-33.171,76.003-59.096c-1.865-1.955-3.597-3.998-5.217-6.105c0.2,0.01,0.353,0.02,0.561,0.031   C497.404,448.865,537.417,421.491,538.648,421.342L538.648,421.342z"/>
	<path id="path4293-4-3-4-8-6-9-0-2-8-8-8-0-9-8-0" inkscape:connector-curvature="0" fill="#00CDEC" d="M546.181,432.257   l-38.801,27.711c0.004,0.006,0.006,0.011,0.01,0.016c3.21,2.748,6.729,5.261,10.569,7.495c-0.053-0.031-0.108-0.059-0.161-0.09   l-68.585,69.655c5.829,4.858,11.992,9.365,18.458,13.468c0.73,0.462,1.461,0.922,2.198,1.373c0.4,0.246,0.802,0.488,1.205,0.731   c0.737,0.444,1.476,0.883,2.22,1.317c0.396,0.23,0.795,0.456,1.194,0.683c0.48,0.274,0.963,0.545,1.447,0.814   c0.235-0.387,29.26-48.186,50.887-83.558c-2.342-0.969-4.577-2.038-6.72-3.191C520.686,467.891,545.089,432.831,546.181,432.257   L546.181,432.257z M475.935,555.429c0,0.001-0.007,0.012-0.007,0.012c-0.484-0.269-0.959-0.552-1.44-0.826   c-0.398-0.227-0.797-0.453-1.193-0.683c-0.745-0.433-1.484-0.872-2.221-1.317c-0.402-0.242-0.804-0.484-1.205-0.731   c-0.737-0.452-1.468-0.911-2.197-1.373c-0.205-0.13-0.413-0.254-0.617-0.385l-7.199,9.399c9.226,6.782,19.045,12.718,29.338,17.736   c0.017-0.038,4.831-10.605,5.802-12.742C488.4,561.892,482.046,558.838,475.935,555.429L475.935,555.429z M519.687,468.452   c0.111,0.06,0.219,0.123,0.331,0.182C519.906,468.575,519.797,468.513,519.687,468.452z"/>
	<path id="path4293-4-3-4-8-6-9-0-2-8-8-8-0-9-8-38" inkscape:connector-curvature="0" fill="#00CDEC" d="M557.111,439.769   l-22.777,34.76c3.824,1.147,7.891,2.045,12.189,2.689c-0.356-0.053-0.725-0.091-1.076-0.149l-40.287,91.04   c0.042,0.034,0.084,0.061,0.127,0.095c6.998,2.242,14.236,4.012,21.694,5.271c0.766,0.13,1.534,0.252,2.305,0.371   c0.5,0.077,1.003,0.151,1.506,0.223c0.695,0.099,1.391,0.198,2.09,0.288c0.664,0.086,1.332,0.165,2,0.242   c0.444,0.052,0.887,0.107,1.334,0.155c0.109-0.588,10.546-57.282,17.941-96.68c-2.24-0.161-4.402-0.41-6.525-0.703   C547.823,476.56,556.297,440.687,557.111,439.769z M536.215,574.756l-0.002,0.008c-0.446-0.048-0.887-0.111-1.332-0.162   c-0.668-0.078-1.336-0.156-2-0.242c-0.7-0.091-1.395-0.19-2.09-0.289c-0.503-0.072-1.005-0.146-1.506-0.223   c-0.771-0.118-1.539-0.241-2.305-0.371c-0.216-0.036-0.433-0.068-0.648-0.106l-4.793,15.992c11.031,3.07,22.317,5.139,33.72,6.18   c0.004-0.06,1.003-15.395,1.295-19.938c-0.442,0.022-0.874,0.055-1.319,0.074C548.757,575.756,542.417,575.43,536.215,574.756   L536.215,574.756z"/>
	<path id="path4293-4-3-4-8-6-9-0-2-8-8-8-0-9-8-7" inkscape:connector-curvature="0" fill="#00CDEC" d="M570.012,442.9   l-8.706,34.984c0.006,0.001,0.01,0.003,0.016,0.004c3.864-0.43,7.851-1.261,11.828-2.449c-0.112,0.033-0.221,0.074-0.333,0.108   l-5.402,99.049c0.135,0.058,0.259,0.109,0.392,0.166c7.443-0.748,14.551-1.854,21.344-3.273c0.749-0.157,1.494-0.317,2.234-0.48   c0.47-0.105,0.937-0.21,1.403-0.317c0.727-0.167,1.45-0.338,2.17-0.512c0.471-0.115,0.94-0.231,1.408-0.348   c0.389-0.098,0.775-0.197,1.162-0.298c-0.127-0.693-10.951-59.206-17.676-96.459c-1.927,0.791-3.874,1.471-5.826,2.082   c0.074-0.11,0.117-0.178,0.203-0.305C574.204,474.389,569.572,444.06,570.012,442.9L570.012,442.9z M597.529,569.534l0.002,0.01   c-0.384,0.099-0.777,0.191-1.164,0.287c-0.468,0.118-0.937,0.233-1.408,0.348c-0.72,0.174-1.443,0.345-2.17,0.512   c-0.466,0.107-0.933,0.212-1.402,0.317c-0.741,0.164-1.486,0.324-2.235,0.48c-0.277,0.058-0.551,0.121-0.829,0.178l1.695,23.73   c11.403-1.041,22.69-3.11,33.721-6.179c-0.024-0.077-5.564-18.153-7.82-25.495c-5.827,2.213-11.958,4.157-18.389,5.813V569.534z"/>
	<path id="path4293-4-3-4-8-6-9-0-2-8-8-8-0-9-8-70" inkscape:connector-curvature="0" fill="#00CDEC" d="M583.095,441.623   l2.75,28.672c3.487-1.829,6.834-3.98,9.959-6.426c-0.157,0.124-0.308,0.255-0.466,0.377l30.211,95.34   c0.083,0.01,0.159,0.017,0.242,0.027c6.311-2.884,12.225-6.094,17.777-9.568l12.429,26.829   c10.293-5.017,20.113-10.954,29.338-17.736c-0.06-0.078-13.279-17.112-19.968-25.723c-4.423,4.078-9.195,7.961-14.313,11.611   l0.011,0.018c-0.533,0.38-1.078,0.75-1.619,1.125c-0.945,0.655-1.902,1.303-2.87,1.942c0.969-0.639,1.926-1.286,2.87-1.942   c0.543-0.376,1.073-0.761,1.608-1.143c-0.026-0.042-32.856-54.001-51.239-84.581c-1.245,1.165-2.547,2.267-3.884,3.322   c0.012-0.069,0.015-0.105,0.029-0.18C595.772,463.163,583.095,442.863,583.095,441.623L583.095,441.623z M646.517,548.15   c-0.963,0.634-1.939,1.26-2.926,1.878C644.578,549.411,645.554,548.785,646.517,548.15z"/>
	<path id="path4293-4-3-4-8-6-9-0-2-8-8-8-0-9-8-05" inkscape:connector-curvature="0" fill="#00CDEC" d="M594.843,435.462   l8.824,20.248c0.308-0.091,0.55-0.142,0.832-0.217c2.125-2.55,4.008-5.312,5.608-8.275c0.006-0.064,0.008-0.111,0.015-0.176   C609.795,446.713,595.283,436.623,594.843,435.462z M612.083,443.127c-0.565,1.339-1.198,2.634-1.873,3.899l62.475,79.074   c0.032-0.007,0.058-0.015,0.09-0.021c4.807-5.112,9.139-10.451,13.021-15.938c0.247-0.35,0.492-0.702,0.737-1.052   c0.379-0.547,0.754-1.093,1.125-1.643c0.285-0.423,0.569-0.846,0.849-1.271c0.33-0.5,0.654-1,0.977-1.502   c0.143-0.222,0.282-0.445,0.424-0.668C689.371,503.583,637.397,463.12,612.083,443.127L612.083,443.127z M689.908,504.003   l0.008,0.006c-0.142,0.222-0.289,0.441-0.432,0.662c-0.323,0.501-0.646,1.003-0.976,1.502c-0.281,0.425-0.565,0.848-0.85,1.272   c-0.37,0.549-0.746,1.095-1.125,1.642c-0.244,0.351-0.489,0.703-0.737,1.052c-0.176,0.249-0.346,0.498-0.524,0.747l25.824,25.265   c7.845-8.342,14.921-17.374,21.143-26.987c-0.102-0.062-20.825-12.722-33.735-20.599   C695.997,493.768,693.13,498.933,689.908,504.003z"/>
	<path id="path4293-4-3-4-8-6-9-0-2-8-8-8-0-9-8-05-0" inkscape:connector-curvature="0" fill="#00CDEC" d="M615.671,424.414   c0.037,0.626,0.077,1.237,0.105,1.916c-0.01,0.259-0.039,0.509-0.052,0.766l86.865,52.228c3.489-8.668,6.05-17.331,7.75-25.711   c-0.017-0.055-0.039-0.106-0.056-0.16C709.918,453.338,640.886,432.371,615.671,424.414z M712.625,437.201   c-0.567,7.647-1.893,15.74-4.051,24.023l39.584,17.299c4.377-10.581,7.791-21.536,10.199-32.73   C758.218,445.767,731.94,440.827,712.625,437.201L712.625,437.201z"/>
	<path id="path4293-4-3-4-8-6-9-0-2-8-8-8-0-9-8-8" inkscape:connector-curvature="0" fill="#00CDEC" d="M710.836,401.556   c-0.426,0.024-84.624,5.825-99.347,6.437c0.117,0.178,0.234,0.357,0.349,0.539l101.092,18.266c-0.01-0.546-0.017-1.092-0.035-1.631   c0.097-7.878-0.611-15.781-2.039-23.59C710.848,401.57,710.842,401.563,710.836,401.556L710.836,401.556z M760.288,377.262   c-0.161,0.028-28.899,5.166-53.047,9.478c2.224,7.296,3.829,14.746,4.748,22.247l50.369,2.494   C762.7,400.036,762.006,388.582,760.288,377.262z"/>
	<path id="path4293-4-3-4-8-6-9-0-2-8-8-8-0-9-9" inkscape:connector-curvature="0" fill="#00CDEC" d="M693.602,355.879   c-0.521,0.233-84.86,39.24-86.1,39.24l96.519-17.727C701.164,369.969,697.674,362.759,693.602,355.879z M737.851,312.449   c-0.159,0.094-27.285,16.338-52.291,31.295c4.167,5.655,7.929,11.615,11.228,17.808l55.133-17.841   C748.181,332.889,743.471,322.425,737.851,312.449z"/>
	<path id="path4293-4-3-4-8-6-9-0-2-8-8-8-0-9-99" inkscape:connector-curvature="0" fill="#00CDEC" d="M663.316,319.879   c-0.993,1.015-60.821,63.051-61.974,63.488l78.428-46.966C674.743,330.435,669.241,324.892,663.316,319.879z M693.902,259.855   c-0.125,0.158-20.956,26.528-41.104,51.986c5.4,3.705,10.524,7.835,15.34,12.321l50.004-40.065   C710.808,275.304,702.695,267.191,693.902,259.855z"/>
	<path id="path4293-4-3-4-8-6-9-0-2-8-8-8-0-9-99-3" inkscape:connector-curvature="0" fill="#00CDEC" d="M625.058,297.623   c-0.295,0.662-32.729,76.143-33.656,76.964l53.45-67.771C638.552,303.157,631.935,300.064,625.058,297.623z M634.146,226.287   c-0.064,0.206-10.777,34.12-21.437,67.732c6.083,1.396,11.999,3.302,17.717,5.66l34.982-59.322   C655.431,234.736,644.968,230.028,634.146,226.287z"/>
	<path id="path4293-4-3-4-8-6-9-0-2-8-8-8-0-9-1-0-2-7-0-9-6-2-4-0-7-4" inkscape:connector-curvature="0" fill="#00CDEC" d="   M603.625,425.527l10.349,11.516c0.071-0.034,0.136-0.061,0.205-0.094c0.789-2.971,1.305-6.096,1.513-9.373   C613.991,427.296,604.391,426.392,603.625,425.527L603.625,425.527z"/>
	<path id="path4293-4-3-4-8-6-9-0-2-8-8-8-0-9-1-0-2-7-0-9-6-2-4-0-7-4-6" inkscape:connector-curvature="0" fill="#00CDEC" d="   M612.851,410.322c-1.129,0.852-3.655,3.258-4.561,2.783l6.733,5.348c0.03-0.018,0.052-0.029,0.081-0.047   C614.562,414.593,613.775,412.19,612.851,410.322L612.851,410.322z"/>
</g>
</svg>