<?xml version="1.0" encoding="UTF-8" standalone="no"?>
<!-- Generator: Adobe Illustrator 23.0.5, SVG Export Plug-In . SVG Version: 6.00 Build 0)  -->
<svg xmlns:dc="http://purl.org/dc/elements/1.1/" xmlns:cc="http://creativecommons.org/ns#" xmlns:rdf="http://www.w3.org/1999/02/22-rdf-syntax-ns#" xmlns:svg="http://www.w3.org/2000/svg" xmlns="http://www.w3.org/2000/svg" xmlns:sodipodi="http://sodipodi.sourceforge.net/DTD/sodipodi-0.dtd" xmlns:inkscape="http://www.inkscape.org/namespaces/inkscape" version="1.1" id="svg2816" inkscape:version="0.92.4 (5da689c313, 2019-01-14)" sodipodi:docname="1976_Summer_Olympics_logo.svg" x="0px" y="0px" viewBox="0 0 239.5819 289.99995" xml:space="preserve" width="239.58189" height="289.99997">
<style type="text/css" id="style81">
	.st0{fill:#DA0B13;}
	.st1{fill:#C10F01;}
</style>
<g transform="matrix(0.08484393,0,0,0.08484393,-0.46260153,-1.1199047)"><g transform="matrix(0.99615312,0,0,0.99615312,5.4523821,13.199585)"><path id="path8695" d="m 507.68,3230.73 q 48,0 77.47,24.09 32.85,26.49 32.85,76.18 0,49.69 -32.83,76.14 -29.52,24.11 -77.47,24.1 -47.95,-0.01 -77.46,-24.1 -32.84,-26.47 -32.84,-76.14 0,-49.67 32.84,-76.14 29.49,-24.13 77.44,-24.13 z M 469,3331.06 c 0,39.05 14.22,60 38.69,60 24.47,0 38.69,-21 38.69,-60 0,-39 -14.22,-60.22 -38.69,-60.22 -24.47,0 -38.69,21.04 -38.69,60.22 z" inkscape:connector-curvature="0"/><path id="path8697" d="m 658.88,3236.6 h 70.37 v 24.19 c 15.67,-18.24 38.65,-30.06 64,-30.06 q 32.1,0 52.74,19.12 20.82,19.3 20.82,51.11 V 3431.2 H 797.26 V 3317 c -0.9,-30.05 -13.6,-40.87 -33.53,-40.53 -21.33,0.35 -34.48,15.07 -34.48,43.18 v 111.55 h -70.37 z" inkscape:connector-curvature="0"/><path id="path8699" d="m 899.57,3234.89 h 38.22 v -29.29 l 68.07,-27.6 v 56.89 h 43.19 v 45.51 h -43.19 v 75.69 q 0,13.95 1,17 c 2.07,4.94 6.71,8.89 14.46,10.18 12.8,2.14 18.33,1.75 26.4,1.89 v 41.31 c -14.14,2.63 -25.93,4.77 -38.42,4.77 -28.22,0 -43.17,-3.08 -53.72,-9.86 -18,-11.54 -17.75,-27.63 -17.75,-55.45 v -85.53 h -38.26 z" inkscape:connector-curvature="0"/><path id="path8701" d="m 1095.09,3230.8 h 69.06 v 39.44 h 0.71 c 17.86,-42.9 63.76,-39.44 63.76,-39.44 v 62 c -3.42,-0.2 -45.39,-5.42 -59.23,23.47 -4.08,8.52 -5.27,19.62 -5.24,34.08 v 80.84 h -69.07 z" inkscape:connector-curvature="0"/><path id="path8703" d="m 1424.36,3154.36 -57.51,58.09 h -62 l 39.35,-58.83 z" inkscape:connector-curvature="0"/><path id="path8705" d="m 1684.24,3425.5 h -67.88 q -1.45,-6.11 -2.18,-25.69 -19.79,31.38 -59.53,31.39 -32.67,0 -49.73,-16.94 -16.7,-16.4 -16.69,-44.56 v -1.47 q 1.08,-65 103.11,-65 h 22.3 c 0,-14.09 0,-21.1 -1.8,-26 -4.33,-9.45 -13.22,-12.15 -24.27,-12.15 h -1.8 c -7.68,0.25 -15.33,3.83 -19.11,10.88 -3.24,6 -3.65,8.4 -3.62,15.48 v 1.45 l -62.65,-0.73 q 0,-61.32 96.73,-61.32 32.67,0 55.72,13.59 27,15.8 27,45.17 v 97 q 0.04,3.25 4.4,38.9 z m -131.38,-58.84 a 24.82,24.82 0 0 0 7.5,18.38 23.87,23.87 0 0 0 18.08,8 q 21.72,0 29.62,-18.76 5.58,-12.7 5.58,-38.7 -32.33,0 -41,4.3 -19.78,9.99 -19.78,26.78 z" inkscape:connector-curvature="0"/><path id="path8707" d="m 1802.23,3431.2 h -65.64 v -277.58 h 65.64 z" inkscape:connector-curvature="0"/><path id="path8709" d="m 2023.42,3153.62 h 57.5 v 277.58 h -65.23 v -207.37 c -23.06,16.42 -47,27.12 -64.66,33.58 v -59.79 a 198.29,198.29 0 0 0 72.39,-44 z" inkscape:connector-curvature="0"/><path id="path8711" d="m 2143.1,3356.89 h 60.55 c 2.71,17.85 16.6,29.71 37.65,29.71 19.62,0 39.9,-11.86 46.7,-32.33 9.38,-25.32 6.25,-61.86 6.25,-61.86 -13.85,18.32 -35,32.41 -61.41,32.41 -24.27,0 -42.84,-0.36 -65.82,-17.77 -18.81,-14.26 -27.83,-36.57 -27.83,-61.57 q 0,-45.36 33,-69.93 29.09,-21.93 74.49,-21.93 c 74.6,0 109.75,47.17 109.75,141.51 q 0,5.63 -0.53,11.82 c -0.48,17.15 -2.28,35.1 -9.73,53.87 q -10.11,25.33 -22.17,37.72 -19,19.53 -36.35,26.09 -17.74,6.57 -47.53,6.57 -39.2,0 -64.74,-16.14 -31.57,-19.71 -32.28,-58.17 z M 2287.69,3239 c 0,-13 -3.81,-22.63 -11.37,-30 a 41.41,41.41 0 0 0 -30,-12.33 c -13,0 -23.6,4.64 -31,12.17 -7.4,7.53 -11.32,17.41 -11.32,30.16 0,24.13 18.31,41.52 42,41.49 q 19.28,0 31.18,-13.44 a 41.23,41.23 0 0 0 10.51,-28.05 z" inkscape:connector-curvature="0"/><path id="path8713" d="m 2521.16,3209.64 h -137.23 v -56 H 2586 v 56.22 l -95.67,221.36 h -67.19 z" inkscape:connector-curvature="0"/><path id="path8715" d="m 2825.84,3218.31 h -66.91 c -0.48,-6.66 -6.17,-22.61 -30.58,-21.3 -16.88,0.9 -32.36,13.12 -39,34 -2.28,7.14 -6.08,27.73 -5.83,50.92 0,0 16.17,-30.94 68.41,-32.48 25.58,-0.75 42.78,7.95 58.76,23.84 15.98,15.89 24,33.76 24,60.66 q 0,46.35 -32.77,73 c -19.92,16.14 -41.64,24.21 -72.36,24.21 q -55.62,0 -85.87,-40 -27.18,-36.66 -27.18,-96.23 0,-62.59 25.74,-99.15 29.88,-42.16 89.3,-42.17 38.7,0 62.64,15.74 c 18.56,12.26 30.57,24.34 31.65,48.96 z m -96.48,77.31 q -18.71,0 -29.16,11.48 -11,11.66 -11,32.56 0,20.9 11,32.19 10.46,11.66 29.16,11.66 18.88,0 29.71,-11.66 11,-11.28 11,-32.19 0,-20.91 -11,-32.56 -10.81,-11.47 -29.71,-11.48 z" inkscape:connector-curvature="0"/><path id="path8717" d="m 228.92,3153.62 c -47.13,124.17 -53.55,200.72 -53.55,200.72 a 2.28,2.28 0 0 1 -4.56,0 c 0,0 -6.42,-76.55 -53.54,-200.72 H 0 v 277.58 h 64.23 v -226 a 2.29,2.29 0 0 1 4.47,-0.64 l 71.54,226.62 H 206 l 71.54,-226.62 a 2.28,2.28 0 0 1 4.46,0.64 v 226 h 64.24 v -277.58 z" inkscape:connector-curvature="0"/><path id="path8719" d="m 1454.59,3344.91 c 0.43,-4.47 0.66,-9.11 0.66,-13.91 a 135,135 0 0 0 -2,-24.07 q -5.88,-32.4 -28.65,-52 -27.58,-24.08 -72.42,-24.08 -44.84,0 -72.42,24.08 -30.76,26.43 -30.76,76.07 0,49.64 30.69,76.11 27.58,24.09 72.42,24.09 44.84,0 72.42,-24.09 18.92,-16.31 26.16,-41.42 h -65.28 c -5.88,18.76 -17.36,28.6 -33.3,28.6 -15.94,0 -27.41,-9.84 -33.29,-28.6 a 99,99 0 0 1 -3.9,-20.78 h 139.65 z m -138.3,-38 c 4.58,-25.66 17.15,-39.23 35.84,-39.23 18.69,0 31.26,13.57 35.85,39.23 z" inkscape:connector-curvature="0"/><path id="path8721" d="M 2316.68,498.47 A 518.34,518.34 0 0 0 1935,666.32 V 518 C 1935,232.39 1702.64,0 1417,0 1131.36,0 899,232.36 899,518 V 665.76 A 518.53,518.53 0 0 0 518,498.47 c -285.61,0 -518,232.36 -518,518 v 842.31 h 0.17 c 2.94,258 197.58,471.68 448,506.89 18.61,268.81 243.21,481.84 516.67,481.84 189.89,0 356.21,-102.72 446.38,-255.5 90.16,152.79 256.48,255.5 446.37,255.5 273.36,0 497.87,-212.86 516.63,-481.53 256.16,-29.8 456.08,-245.32 459.7,-507.2 h 0.78 V 1016.44 C 2834.65,730.83 2602.29,498.47 2316.68,498.47 Z m -380.46,518 c 0,-206.74 167.58,-374.93 373.57,-374.93 204.95,0 371.82,166.53 373.48,371.85 0,0.67 0.05,1.33 0.06,2 0,0.36 0,0.72 0,1.08 v 468.87 c -96.53,-98.6 -228.9,-155.69 -367.36,-155.69 -144.73,0 -282.37,62.11 -379.77,168.79 z M 1042.14,518 c 0,-206.73 168.19,-374.93 374.93,-374.93 206.74,0 374.93,168.17 374.93,374.93 v 976.5 c -97.11,-103.46 -232.76,-163.6 -374.93,-163.6 -142,0 -277.81,60.18 -374.93,163.6 z m -889.07,498.44 c 0,-206.74 166,-374.93 370,-374.93 204,0 369.93,168.19 369.93,374.93 v 471.84 C 796.32,1388.64 663.1,1330.9 523.93,1330.9 c -140.13,0 -274,58.44 -370.84,159.23 z m -4.09,835 c 0,-206 168.19,-373.57 374.93,-373.57 194.85,0 355.39,148.87 373.23,338.44 C 682.06,1845.4 505,2006.67 458.67,2219.19 282.94,2188.32 149,2035.2 149,1851.4 Z m 735.46,105.75 c -19.32,64.58 -56.4,123.22 -107.14,169.6 a 374.09,374.09 0 0 1 -170.07,88.87 c 40.38,-131.32 146.88,-229.52 277.21,-258.51 z m 80.35,747.3 c -194.42,0 -354.68,-148.78 -373.09,-338.46 a 519.88,519.88 0 0 0 284.52,-134.36 530.88,530.88 0 0 0 93.86,-115.34 c 78.25,130.76 212.63,224.27 367.78,248.34 -17.78,190.27 -178.19,339.78 -373.07,339.78 z m 92.82,-744.32 c 123.88,32 224.1,126.77 263.78,252.54 -125.34,-32.71 -225.96,-128.13 -263.78,-252.58 z m 353.13,98.54 a 521.61,521.61 0 0 0 -366.87,-241.47 c 18,-190.1 178.47,-339.34 373.2,-339.34 194.17,0 354.31,148.36 373.07,337.67 a 521.13,521.13 0 0 0 -379.4,243.1 z M 1778.19,1957 c -38.38,130.18 -145.77,229.16 -278.16,258.77 a 384,384 0 0 1 113,-174.92 371.69,371.69 0 0 1 165.16,-83.85 z m 342.06,640 a 372.77,372.77 0 0 1 -262.71,107.44 c -194.29,0 -354.32,-148.61 -372.91,-338.11 a 516,516 0 0 0 284.43,-133.55 529.4,529.4 0 0 0 95.35,-117.78 530.12,530.12 0 0 0 95,116.46 519.72,519.72 0 0 0 271.48,131.54 372.35,372.35 0 0 1 -110.64,234 z m -169.2,-636.54 a 371.8,371.8 0 0 1 152.47,81.67 383.82,383.82 0 0 1 110.16,169 c -124.24,-32.86 -224.49,-127.41 -262.63,-250.66 z m 412.68,259.4 c -45.11,-209.6 -215.49,-368.74 -426.74,-401.92 16.45,-191 177.6,-341.37 373.44,-341.37 206.74,0 374.94,167.58 374.94,373.57 0,187.96 -140.06,343.86 -321.64,369.73 z" class="cls-1" inkscape:connector-curvature="0" style="fill:#ff030b"/><path id="path8723" d="m 2722.85,2718.3 a 25.32,25.32 0 0 1 12.31,3.22 23.24,23.24 0 0 1 9.26,9.21 25,25 0 0 1 0.07,25 23.69,23.69 0 0 1 -9.21,9.23 25.06,25.06 0 0 1 -24.86,0 23.69,23.69 0 0 1 -9.21,-9.23 25,25 0 0 1 0.07,-25 23.24,23.24 0 0 1 9.26,-9.21 25.29,25.29 0 0 1 12.31,-3.22 z m 0,3.78 a 21.6,21.6 0 0 0 -10.44,2.72 19.54,19.54 0 0 0 -7.86,7.8 21.25,21.25 0 0 0 -0.06,21.19 19.88,19.88 0 0 0 7.83,7.84 21.12,21.12 0 0 0 21,0 19.75,19.75 0 0 0 7.83,-7.84 21.31,21.31 0 0 0 2.81,-10.53 21.54,21.54 0 0 0 -2.86,-10.64 19.52,19.52 0 0 0 -7.86,-7.82 21.6,21.6 0 0 0 -10.39,-2.72 z m 13,26.13 c -1.4,6.48 -6.27,10.48 -12.41,10.48 -9.08,0 -14.82,-6.54 -14.82,-15.28 0,-8.74 5.47,-15.22 14.62,-15.22 6.4,0 11.48,3.54 12.54,10.14 h -4.2 a 8,8 0 0 0 -8.28,-6.47 c -6.6,0 -10.14,5 -10.14,11.41 0,6.21 3.87,11.75 10.28,11.75 a 7.79,7.79 0 0 0 8.14,-6.81 z" class="cls-2" inkscape:connector-curvature="0" style="fill:#e10600"/></g></g></svg>