<?xml version="1.0" encoding="UTF-8" standalone="no"?>
<svg xmlns:dc="http://purl.org/dc/elements/1.1/" xmlns:cc="http://creativecommons.org/ns#" xmlns:rdf="http://www.w3.org/1999/02/22-rdf-syntax-ns#" xmlns:svg="http://www.w3.org/2000/svg" xmlns="http://www.w3.org/2000/svg" height="290" width="127.29388" xml:space="preserve" viewBox="0 0 127.29388 289.99998" y="0px" x="0px" id="svg2816" version="1.1"><metadata id="metadata150"><rdf:RDF><cc:Work rdf:about=""><dc:format>image/svg+xml</dc:format><dc:type rdf:resource="http://purl.org/dc/dcmitype/StillImage"/><dc:title/></cc:Work></rdf:RDF></metadata>
<style id="style81" type="text/css">
	.st0{fill:#DA0B13;}
	.st1{fill:#C10F01;}
</style>
<defs id="defs106">
	
	
		
	
		
	
		
	
		
	
		
	
		
	
		
	
		
	
		
	
		
	
		
	
		
	
		
	
		
	
		
	
		
	
		
	
		
	
		
	
		
	
		
	
		
	
		
<clipPath clipPathUnits="userSpaceOnUse" id="clipPath1031"><path d="M 0,1190.551 H 841.89 V 0 H 0 Z" id="path1029"/></clipPath><style id="style8689">.cls-1{fill:#ff030b;}.cls-2{fill:#e10600;}</style><style id="style12508">.cls-1{fill:#211915;}.cls-2{fill:#dd463c;}</style></defs>



<g transform="scale(0.25698284)" id="Capa_2"><g id="Anillos_Sementados"><path style="fill:#211915" class="cls-1" d="m 0,1125.91 12,-60.26 19.83,43.43 20.07,-43.43 10.78,60.26 h -9 L 48,1092.09 31.35,1128.48 14.93,1092 9,1125.91 Z" id="path12514"/><path style="fill:#211915" class="cls-1" d="m 94,1068.69 a 29.75,29.75 0 0 1 11.62,2.25 27.94,27.94 0 0 1 9.25,6.17 28.25,28.25 0 0 1 6.1,9.29 30.28,30.28 0 0 1 2.2,11.54 29.62,29.62 0 0 1 -2.2,11.46 28.14,28.14 0 0 1 -15.31,15.39 31.47,31.47 0 0 1 -23.32,0 28.28,28.28 0 0 1 -9.22,-6.17 28.61,28.61 0 0 1 -6.12,-9.22 29.44,29.44 0 0 1 -2.2,-11.46 30.09,30.09 0 0 1 2.2,-11.54 28.38,28.38 0 0 1 6.09,-9.29 28,28 0 0 1 9.26,-6.17 29.75,29.75 0 0 1 11.65,-2.25 z m 0,50.31 a 20.81,20.81 0 0 0 8.13,-1.56 18.77,18.77 0 0 0 6.41,-4.37 19.86,19.86 0 0 0 4.17,-6.65 23.45,23.45 0 0 0 1.48,-8.5 23.73,23.73 0 0 0 -1.48,-8.53 20.11,20.11 0 0 0 -4.17,-6.73 18.46,18.46 0 0 0 -6.41,-4.41 22.07,22.07 0 0 0 -16.3,0 18.63,18.63 0 0 0 -6.38,4.41 19.93,19.93 0 0 0 -4.16,6.73 23.73,23.73 0 0 0 -1.49,8.53 23.45,23.45 0 0 0 1.49,8.5 19.68,19.68 0 0 0 4.16,6.65 18.94,18.94 0 0 0 6.38,4.37 20.73,20.73 0 0 0 8.17,1.56 z" id="path12516"/><path style="fill:#211915" class="cls-1" d="m 174.36,1083 a 22.92,22.92 0 0 0 -4.63,-3.41 24.48,24.48 0 0 0 -4.37,-1.88 18.43,18.43 0 0 0 -3.84,-0.8 c -1.17,-0.11 -2.14,-0.16 -2.92,-0.16 a 22.32,22.32 0 0 0 -8.62,1.6 19,19 0 0 0 -6.59,4.45 20.07,20.07 0 0 0 -4.2,6.77 23.85,23.85 0 0 0 -1.5,8.57 21.85,21.85 0 0 0 1.54,8.3 19.66,19.66 0 0 0 10.87,11 21.82,21.82 0 0 0 8.5,1.6 c 0.67,0 1.56,0 2.67,-0.16 a 18.16,18.16 0 0 0 3.73,-0.88 27.39,27.39 0 0 0 4.46,-2 25.88,25.88 0 0 0 4.88,-3.52 v 10.26 c -0.45,0.26 -1.13,0.64 -2.05,1.12 a 23.4,23.4 0 0 1 -3.37,1.4 37,37 0 0 1 -4.67,1.2 30.76,30.76 0 0 1 -5.92,0.52 q -1.9,0 -4.29,-0.24 a 26,26 0 0 1 -5.08,-1.08 33,33 0 0 1 -5.59,-2.36 28.44,28.44 0 0 1 -5.7,-4.09 30.77,30.77 0 0 1 -6.8,-9.1 27,27 0 0 1 -2.54,-12.06 35.35,35.35 0 0 1 0.46,-5.61 26.09,26.09 0 0 1 1.58,-5.69 32.82,32.82 0 0 1 2.88,-5.53 25.56,25.56 0 0 1 4.42,-5.12 25.09,25.09 0 0 1 9.83,-5.85 38.29,38.29 0 0 1 11.25,-1.61 30.07,30.07 0 0 1 9.29,1.2 27.07,27.07 0 0 1 6.3,3 z" id="path12518"/><path style="fill:#211915" class="cls-1" d="m 189.51,1092.17 21.63,-22.36 h 11.22 l -25.36,25.41 25.48,30.69 H 211.14 L 189.51,1099 v 26.92 h -8.66 v -56.1 h 8.66 z" id="path12520"/><path style="fill:#211915" class="cls-1" d="m 236.63,1069.81 c 1.12,0 2.27,0 3.44,0 a 28.81,28.81 0 0 1 3.49,0.28 18.73,18.73 0 0 1 3.48,0.84 13.26,13.26 0 0 1 3.45,1.8 15.92,15.92 0 0 1 4.45,4.81 14.79,14.79 0 0 1 1.88,7.85 16.43,16.43 0 0 1 -0.88,5 11.25,11.25 0 0 1 -4.09,5.21 13.28,13.28 0 0 1 4.49,2.28 14.22,14.22 0 0 1 3,3.33 12.75,12.75 0 0 1 1.73,3.93 16.84,16.84 0 0 1 0.52,4 20.2,20.2 0 0 1 -0.24,2.85 18.15,18.15 0 0 1 -0.84,3.36 15,15 0 0 1 -1.73,3.41 15.39,15.39 0 0 1 -2.78,3.24 14.51,14.51 0 0 1 -3.85,2.33 21,21 0 0 1 -4,1.16 23,23 0 0 1 -3.8,0.4 c -1.23,0 -2.35,0 -3.37,0 h -12.9 v -56.1 z m 0.16,24.13 h 2.56 c 0.48,0 1.23,0 2.24,-0.12 a 7.78,7.78 0 0 0 3,-0.93 7.61,7.61 0 0 0 2.68,-2.44 8.15,8.15 0 0 0 1.17,-4.77 7.74,7.74 0 0 0 -1.13,-4.49 7.06,7.06 0 0 0 -2.56,-2.32 8.66,8.66 0 0 0 -2.93,-0.88 21.44,21.44 0 0 0 -2.2,-0.16 h -2.88 z m 0,24 h 5.12 a 16.52,16.52 0 0 0 5.61,-0.8 8.6,8.6 0 0 0 3.37,-2.09 6.83,6.83 0 0 0 1.64,-2.76 9.79,9.79 0 0 0 0.44,-2.85 9.44,9.44 0 0 0 -0.48,-2.92 7,7 0 0 0 -1.68,-2.73 8.66,8.66 0 0 0 -3.33,-2 16.18,16.18 0 0 0 -5.41,-0.76 h -5.28 z" id="path12522"/><path style="fill:#211915" class="cls-1" d="m 301.94,1112.29 h -23.8 l -6.14,13.62 h -9.29 l 27.89,-59.3 26.6,59.3 h -9.29 z m -3.37,-8 -8.33,-18.91 -8.66,18.91 z" id="path12524"/><path style="fill:#211915" class="cls-1" d="m 351.16,1077.67 h -9.81 l 4.74,-7.86 H 360 v 56.1 h -8.82 z" id="path12526"/><path style="fill:#211915" class="cls-1" d="m 374.24,1123.19 13.78,-18 a 13.39,13.39 0 0 1 -2.56,0.24 18.82,18.82 0 0 1 -6.31,-1.13 17.08,17.08 0 0 1 -9.91,-9 18.07,18.07 0 0 1 -1.61,-7.85 20.24,20.24 0 0 1 1.32,-7.3 17,17 0 0 1 3.84,-6 18.57,18.57 0 0 1 6.11,-4 21.31,21.31 0 0 1 8.21,-1.49 21,21 0 0 1 8.42,1.57 17.49,17.49 0 0 1 6,4.16 18.23,18.23 0 0 1 3.63,5.89 18.86,18.86 0 0 1 1.24,6.65 17.07,17.07 0 0 1 -1.53,7.3 41.62,41.62 0 0 1 -4.17,6.89 l -20.14,26.68 z m 13,-25.49 a 10.23,10.23 0 0 0 7.55,-2.92 10.47,10.47 0 0 0 2.93,-7.74 11.32,11.32 0 0 0 -0.79,-4.28 10,10 0 0 0 -2.18,-3.37 10.14,10.14 0 0 0 -3.39,-2.2 11.22,11.22 0 0 0 -4.29,-0.8 11.1,11.1 0 0 0 -4.33,0.8 10.16,10.16 0 0 0 -3.35,2.2 10,10 0 0 0 -2.18,3.37 11.32,11.32 0 0 0 -0.79,4.28 10.12,10.12 0 0 0 10.82,10.66 z" id="path12528"/><path style="fill:#211915" class="cls-1" d="m 418.7,1096.74 a 13.63,13.63 0 0 1 -6.42,-11.94 15.93,15.93 0 0 1 1.37,-6.73 15.61,15.61 0 0 1 3.67,-5 16.08,16.08 0 0 1 5.38,-3.21 19.89,19.89 0 0 1 13.16,0 16.08,16.08 0 0 1 5.38,3.21 15.61,15.61 0 0 1 3.67,5 15.93,15.93 0 0 1 1.37,6.73 13.63,13.63 0 0 1 -6.42,11.94 13.62,13.62 0 0 1 5.8,5.25 15.22,15.22 0 0 1 2,8 16.76,16.76 0 0 1 -1.5,7.26 16.25,16.25 0 0 1 -4,5.37 17.38,17.38 0 0 1 -5.88,3.32 22.43,22.43 0 0 1 -14,0 17.38,17.38 0 0 1 -5.88,-3.32 16.25,16.25 0 0 1 -4,-5.37 16.76,16.76 0 0 1 -1.5,-7.26 15.22,15.22 0 0 1 2,-8 13.57,13.57 0 0 1 5.8,-5.25 z m 10.58,3.77 a 10.37,10.37 0 0 0 -3.46,0.6 9.72,9.72 0 0 0 -3.08,1.76 8.6,8.6 0 0 0 -2.21,2.89 9.11,9.11 0 0 0 -0.83,4 9.28,9.28 0 0 0 2.66,6.9 10.39,10.39 0 0 0 13.84,0 9.28,9.28 0 0 0 2.66,-6.9 9.11,9.11 0 0 0 -0.83,-4 8.73,8.73 0 0 0 -2.21,-2.89 9.72,9.72 0 0 0 -3.08,-1.76 10.37,10.37 0 0 0 -3.46,-0.6 z m 0,-24.12 a 8.91,8.91 0 0 0 -6.38,2.32 8.47,8.47 0 0 0 0.5,12.58 8.41,8.41 0 0 0 2.84,1.52 9.68,9.68 0 0 0 6.08,0 8.5,8.5 0 0 0 2.84,-1.52 8.18,8.18 0 0 0 2.12,-2.64 8,8 0 0 0 0.83,-3.77 8.13,8.13 0 0 0 -2.45,-6.17 8.91,8.91 0 0 0 -6.38,-2.32 z" id="path12530"/><path style="fill:#211915" class="cls-1" d="m 474.54,1127 a 16.41,16.41 0 0 1 -7.17,-1.52 20.21,20.21 0 0 1 -6,-4.57 22.82,22.82 0 0 1 -3.88,-5.45 32.43,32.43 0 0 1 -2.29,-5.81 33.36,33.36 0 0 1 -1.13,-5.93 q -0.29,-3 -0.29,-5.81 c 0,-1.87 0.1,-3.8 0.29,-5.81 a 35.48,35.48 0 0 1 1.13,-6 32,32 0 0 1 2.29,-5.89 23,23 0 0 1 3.88,-5.45 17.27,17.27 0 0 1 26.33,0 25.7,25.7 0 0 1 3.84,5.45 30.83,30.83 0 0 1 2.33,5.89 35.48,35.48 0 0 1 1.13,6 c 0.19,2 0.29,3.94 0.29,5.81 0,1.87 -0.1,3.81 -0.29,5.81 a 33.36,33.36 0 0 1 -1.13,5.93 31.2,31.2 0 0 1 -2.33,5.81 25.45,25.45 0 0 1 -3.84,5.45 20.21,20.21 0 0 1 -6,4.57 16.39,16.39 0 0 1 -7.16,1.52 z m 0,-50.64 a 7.83,7.83 0 0 0 -4.55,1.28 12.7,12.7 0 0 0 -3.29,3.36 18.59,18.59 0 0 0 -2.21,4.41 32.37,32.37 0 0 0 -1.21,4.61 39.65,39.65 0 0 0 -0.54,4.33 c -0.08,1.36 -0.12,2.5 -0.12,3.4 0,0.9 0,2.13 0.12,3.49 a 40.26,40.26 0 0 0 0.54,4.33 33.46,33.46 0 0 0 1.21,4.64 18.3,18.3 0 0 0 2.21,4.45 12.74,12.74 0 0 0 3.29,3.37 8.71,8.71 0 0 0 9.09,0 12.74,12.74 0 0 0 3.29,-3.37 18.3,18.3 0 0 0 2.21,-4.45 33.46,33.46 0 0 0 1.21,-4.64 40.26,40.26 0 0 0 0.54,-4.33 c 0.08,-1.36 0.12,-2.53 0.12,-3.49 0,-0.96 0,-2 -0.12,-3.4 a 39.65,39.65 0 0 0 -0.54,-4.33 32.37,32.37 0 0 0 -1.21,-4.61 18.59,18.59 0 0 0 -2.21,-4.41 12.7,12.7 0 0 0 -3.29,-3.36 7.82,7.82 0 0 0 -4.54,-1.25 z" id="path12532"/><g id="LWPOLYLINE"><path style="fill:#dd463c" class="cls-2" d="M 0,660.38 H 123.82 A 41.28,41.28 0 0 0 165.1,619.11 V 297.17 h 19.81 v 321.94 a 61.08,61.08 0 0 1 -61.09,61.08 H 0 Z" id="path12534"/></g><g id="LWPOLYLINE-2"><polygon style="fill:#dd463c" class="cls-2" points="258.36,26.52 247.64,0 236.93,26.52 208.39,28.52 230.3,46.91 223.38,74.67 247.64,59.51 271.9,74.67 264.98,46.91 286.9,28.52 " id="polygon12537"/></g><g id="LWPOLYLINE-3"><path style="fill:#dd463c" class="cls-2" d="M 495.29,660.38 H 371.47 A 41.28,41.28 0 0 1 330.19,619.11 V 297.17 h -19.81 v 321.94 a 61.08,61.08 0 0 0 61.09,61.08 h 123.82 z" id="path12540"/></g><g id="LWPOLYLINE-4"><path style="fill:#dd463c" class="cls-2" d="M 274.06,623.24 V 198.11 h 19.81 v 425.13 a 73.46,73.46 0 0 0 73.47,73.46 h 128 v 19.82 h -128 a 93.28,93.28 0 0 1 -93.28,-93.28 z" id="path12543"/></g><g id="LWPOLYLINE-5"><path style="fill:#dd463c" class="cls-2" d="M 495.29,752.84 H 363.21 A 125.5,125.5 0 0 1 247.64,676.23 125.47,125.47 0 0 1 132.08,752.84 H 0 V 733 H 132.08 A 105.67,105.67 0 0 0 237.74,627.36 V 82.55 h 19.81 V 627.36 A 105.67,105.67 0 0 0 363.21,733 h 132.08 z" id="path12546"/></g><g id="LWPOLYLINE-6"><path style="fill:#dd463c" class="cls-2" d="M 128,716.52 H 0 V 696.7 h 128 a 73.47,73.47 0 0 0 73.47,-73.46 V 198.11 h 19.81 V 623.24 A 93.28,93.28 0 0 1 128,716.52 Z" id="path12549"/></g><path d="m 413.4082,767.69727 c -37.65233,-0.3846 -70.22159,27.8063 -74.49804,66.0332 -0.32796,2.89482 -0.48251,5.80549 -0.46094,8.71875 -5.48643,-0.61003 -11.02334,-0.61003 -16.50977,0 -0.1475,-40.75012 -33.09026,-73.77699 -73.83984,-74.0293 -40.74959,-0.2523 -74.09792,32.36421 -74.75,73.10938 v 0.91992 c -5.48643,-0.61003 -11.02334,-0.61003 -16.50977,0 0.18547,-30.04664 -17.74765,-57.24671 -45.43554,-68.91602 -27.68784,-11.66929 -59.67705,-5.50906 -81.054691,15.60547 -21.3776404,21.11453 -27.9329468,53.02721 -16.607421,80.85742 11.325549,27.83028 38.301027,46.09659 68.347656,46.28321 2.90994,0.0218 5.819487,-0.13075 8.710937,-0.45899 0.147503,40.75012 33.088309,73.77699 73.837889,74.0293 40.74959,0.2523 74.09987,-32.36421 74.75195,-73.10938 v -0.91992 c 5.48588,0.61997 11.0239,0.61997 16.50977,0 -0.25405,41.02926 32.80085,74.49595 73.83008,74.75 41.02923,0.25405 74.49595,-32.80082 74.75,-73.83008 v -0.91992 c 40.77386,4.55942 77.52425,-24.79674 82.08594,-65.57031 4.5617,-40.77358 -24.79306,-77.52587 -65.56641,-82.08984 -2.54846,-0.28514 -5.08164,-0.43725 -7.5918,-0.46289 z m 1.41407,8.28906 c 2.23007,0.0717 4.47728,0.2575 6.73632,0.56055 36.1447,4.84874 61.51732,38.07749 56.67188,74.22265 h -0.0606 c -4.83116,36.13124 -38.03906,61.50389 -74.16992,56.66992 -3.74114,-31.1521 -26.64332,-56.59873 -57.23047,-63.58984 -0.10388,-3.556 0.084,-7.11322 0.56055,-10.63867 4.5488,-33.88526 34.04109,-58.30043 67.49219,-57.22461 z m -165.38282,0.008 c 36.4493,1.02721 65.16573,31.40609 64.14063,67.85547 -30.59031,6.98573 -53.49501,32.43517 -57.23047,63.58984 -5.80439,0.77282 -11.68584,0.77282 -17.49023,0 h -0.0488 c -3.73546,-31.15467 -26.64016,-56.60411 -57.23047,-63.58984 v -3.71875 c 1.02932,-36.44926 31.41007,-65.16392 67.85937,-64.13672 z m -168.365231,0.0508 c 9.605317,-0.22247 19.325851,1.6501 28.460941,5.73633 24.36028,10.89663 39.76231,35.39158 39.02539,62.06836 -30.59031,6.98573 -53.495014,32.43517 -57.230472,63.58984 -3.529295,0.47136 -7.091125,0.65917 -10.65039,0.56055 -26.675833,-0.77035 -50.261689,-17.53018 -59.765626,-42.4668 -9.503917,-24.93657 -3.054021,-53.14068 16.341797,-71.4707 12.122387,-11.45626 27.809498,-17.64679 43.81836,-18.01758 z m 84.000001,74.19922 c 2.93482,0 5.86981,0.19597 8.78516,0.58594 3.73545,31.15467 26.64015,56.60411 57.23046,63.58984 0.05,1.24 0.0495,2.48047 0.0195,3.73047 h -0.0488 c -1.03164,36.4496 -31.41563,65.16084 -67.86524,64.13086 -36.44962,-1.02998 -65.16308,-31.41164 -64.134763,-67.86133 30.590313,-6.98573 53.493053,-32.43517 57.228513,-63.58984 2.91535,-0.38997 5.85033,-0.58594 8.78516,-0.58594 z m 165.11523,0 c 2.93317,0 5.86758,0.19594 8.78125,0.58594 3.74114,31.1521 26.64137,56.59873 57.22852,63.58984 0.04,1.24 0.04,2.48047 0,3.73047 h -0.0195 c -1.03164,36.4496 -31.41563,65.16084 -67.86524,64.13086 -36.44962,-1.02998 -65.16308,-31.41164 -64.13476,-67.86133 30.58715,-6.99111 53.48933,-32.43774 57.23047,-63.58984 2.91367,-0.39 5.84613,-0.58594 8.77929,-0.58594 z m -17.3789,2.32617 c -4.13834,25.5535 -22.83364,46.32738 -47.81055,53.12891 4.1415,-25.55882 22.82584,-46.33408 47.81055,-53.12891 z m 34.74218,0.008 c 24.97264,6.80164 43.66648,27.5705 47.80665,53.1211 -24.9743,-6.80082 -43.66569,-27.57128 -47.80665,-53.1211 z m -199.87695,0.0117 c -4.1385,25.53376 -22.81078,46.29625 -47.765624,53.10938 4.136794,-25.53684 22.813194,-46.29522 47.765624,-53.10938 z m 34.78906,0 c 24.95243,6.81416 43.62884,27.57254 47.76563,53.10938 -24.95485,-6.81313 -43.62713,-27.57562 -47.76563,-53.10938 z" id="path12552" style="fill:#dd463c"/></g></g></svg>