<?xml version="1.0" encoding="UTF-8" standalone="no"?>
<!-- Created with Inkscape (http://www.inkscape.org/) -->
<svg xmlns:dc="http://purl.org/dc/elements/1.1/" xmlns:cc="http://creativecommons.org/ns#" xmlns:rdf="http://www.w3.org/1999/02/22-rdf-syntax-ns#" xmlns:svg="http://www.w3.org/2000/svg" xmlns="http://www.w3.org/2000/svg" xmlns:sodipodi="http://sodipodi.sourceforge.net/DTD/sodipodi-0.dtd" xmlns:inkscape="http://www.inkscape.org/namespaces/inkscape" width="90.174522mm" height="76.729164mm" viewBox="0 0 90.174523 76.729164" version="1.1" id="svg8" inkscape:version="0.92.4 (5da689c313, 2019-01-14)" sodipodi:docname="1984_Summer_Olympics_logo.svg">
  <defs id="defs2">
    <style id="style3933">.cls-1{font-size:10.58px;fill:#1c1c19;font-family:HighwayGothic, Highway Gothic;}.cls-2{fill:#003fa2;}.cls-3{fill:#1a1413;}.cls-4{fill:#c12a21;}</style>
    <clipPath id="clipPath1527" clipPathUnits="userSpaceOnUse">
      <path inkscape:connector-curvature="0" id="path1525" d="M 0,2834.646 H 4251.968 V 0 H 0 Z"/>
    </clipPath>
  </defs>
  <g transform="translate(59.475176,-211.34344)">
    <g transform="matrix(0.07060749,0,0,0.07060749,-60.092541,210.57384)">
      <g>
        <g transform="matrix(4.9963222,0,0,-4.9963222,-8345.9191,8178.7587)" inkscape:label="JJOO Verano 1984 Los Angeles" id="g1513">
          <g id="g1521" transform="matrix(0.09591144,0,0,0.09591144,1596.0627,1390.0868)">
            <g clip-path="url(#clipPath1527)" id="g1523">
              <g transform="translate(1026.142,1206.2448)" id="g1529">
                <path inkscape:connector-curvature="0" id="path1531" style="fill:#0038a1;fill-opacity:1;fill-rule:nonzero;stroke:none" d="m 0,0 c -3.04,0 -5.953,-0.757 -8.745,-2.283 -2.797,-1.514 -4.984,-3.688 -6.583,-6.528 -1.592,-2.834 -2.391,-5.807 -2.391,-8.926 0,-3.071 0.781,-6.014 2.349,-8.818 1.562,-2.81 3.749,-4.99 6.547,-6.564 2.81,-1.563 5.753,-2.35 8.823,-2.35 3.07,0 6.008,0.787 8.811,2.35 2.804,1.574 4.99,3.754 6.559,6.564 1.562,2.804 2.344,5.747 2.344,8.818 0,3.1 -0.8,6.068 -2.393,8.914 -1.592,2.846 -3.784,5.026 -6.576,6.54 C 5.947,-0.757 3.034,0 0,0 m 0,3.035 c 3.557,0 6.971,-0.891 10.244,-2.681 3.267,-1.784 5.836,-4.341 7.705,-7.66 1.869,-3.317 2.807,-6.795 2.807,-10.431 0,-3.614 -0.915,-7.057 -2.751,-10.341 -1.835,-3.284 -4.392,-5.841 -7.665,-7.676 C 7.057,-37.59 3.613,-38.51 0,-38.51 c -3.614,0 -7.057,0.92 -10.341,2.756 -3.279,1.835 -5.83,4.392 -7.671,7.676 -1.83,3.284 -2.75,6.727 -2.75,10.341 0,3.636 0.938,7.114 2.807,10.431 1.87,3.319 4.443,5.876 7.71,7.66 3.273,1.79 6.682,2.681 10.245,2.681"/>
              </g>
              <g transform="translate(1031.1151,1193.6158)" id="g1533">
                <path inkscape:connector-curvature="0" id="path1535" style="fill:#0038a1;fill-opacity:1;fill-rule:nonzero;stroke:none" d="m 0,0 c -0.124,0.775 -0.526,3.876 -4.837,3.876 -5.395,0 -6.357,-5.52 -6.357,-9.239 0,-4.219 1.21,-8.777 6.326,-8.777 1.365,0 2.666,0.341 3.628,1.333 0.806,0.869 0.992,1.831 1.085,2.357 h 3.411 c -0.464,-4.404 -4.527,-6.232 -8.373,-6.232 -7.876,0 -9.395,6.946 -9.395,11.286 0,4.714 1.829,11.753 9.799,11.753 3.163,0 7.628,-1.272 8.031,-6.357 z"/>
              </g>
              <g transform="translate(2654.8835,523.0464)" id="g1537">
                <path inkscape:connector-curvature="0" id="path1539" style="fill:#1a1413;fill-opacity:1;fill-rule:nonzero;stroke:none" d="m 0,0 c -8.74,-0.016 -17.389,0.828 -25.614,2.263 -1.475,104.101 -70.073,192.316 -163.696,223.7 15.284,89.762 94.308,158.872 188.936,158.947 105.338,0.118 192.003,-86.454 192.07,-192.466 C 191.823,86.743 105.341,0.088 0,0 m -191.758,177.202 c 65.263,-26.409 113.683,-89.203 119.022,-162.756 -66.123,26.499 -113.883,88.787 -119.022,162.756 m -71.872,-369.653 c -94.779,-0.092 -173.725,68.359 -189.255,158.739 93.971,30.904 161.993,119.336 162.432,223.428 8.76,1.262 17.571,1.741 26.464,1.743 8.436,0.014 16.864,-0.459 25.16,-1.704 1.015,-104.059 69.561,-192.37 163.634,-223.13 -15.669,-90.409 -94.503,-159.014 -188.435,-159.076 m -72.527,369.521 c -6.03,-73.968 -53.653,-136.381 -119.404,-162.927 5.379,73.535 53.134,136.418 119.404,162.927 M -553.353,1.834 c -1.471,104.071 -69.552,192.28 -163.505,223.629 15.522,89.787 93.79,158.878 188.385,158.98 94.505,0.093 173.66,-68.882 189.152,-158.629 -93.783,-31.522 -161.723,-119.883 -163.532,-223.939 -7.7,-1.514 -16.26,-2.36 -25.273,-2.375 -8.893,-0.002 -17.179,0.85 -25.227,2.334 m -166.441,174.877 c 66.08,-26.382 113.983,-89.17 119.898,-162.723 -66.512,26.457 -113.698,88.776 -119.898,162.723 m -72.116,-369.648 c -93.898,-0.089 -172.662,68.351 -189.044,158.761 94.727,30.924 163.086,119.33 163.832,223.394 7.726,1.274 16.538,1.754 24.884,1.758 8.62,0.003 17.377,-0.435 26.343,-1.7 0.745,-104.088 69.046,-192.364 163.694,-223.124 -16.028,-90.447 -94.504,-159.013 -189.709,-159.089 m -72.496,369.525 c -5.363,-73.959 -52.593,-136.36 -118.369,-162.941 5.043,73.531 53.132,136.418 118.369,162.941 m -382.915,14.589 c -0.098,106.008 85.442,192.684 191.506,192.818 94.479,0.06 173.029,-68.949 188.761,-158.67 -94.12,-31.497 -162.152,-119.838 -163.014,-223.944 -8.347,-1.432 -16.844,-2.302 -25.401,-2.328 -106.07,-0.075 -191.783,86.385 -191.852,192.124 M -0.383,430.801 c -117.297,-0.111 -214.31,-84.484 -234.172,-194.61 -9.437,1.124 -19.958,1.587 -29.457,1.582 -10.316,-0.031 -20.101,-0.492 -30.117,-1.645 -20.259,110.093 -118.176,194.289 -234.382,194.203 -116.331,-0.069 -213.368,-84.505 -233.563,-194.637 -10.168,1.138 -20.2,1.592 -30.187,1.596 -9.47,-0.002 -19.764,-0.517 -29.39,-1.629 -20.473,110.101 -117.782,194.301 -234.202,194.222 -131.44,-0.122 -237.892,-107.136 -237.779,-238.759 0.134,-131.257 106.724,-238.299 238.224,-238.17 9.803,0.008 20.161,1.075 29.396,2.146 20.841,-110.426 118.013,-194.762 234.16,-194.682 116.931,0.133 213.659,84.627 234.002,195.078 10.184,-1.015 20.195,-2.108 29.754,-2.098 9.71,0.029 20.247,1.116 29.636,2.171 21.145,-110.423 118.196,-194.772 234.857,-194.668 116.024,0.098 212.932,84.611 233.668,195.073 9.461,-1.061 19.982,-2.101 29.965,-2.075 131.26,0.104 237.355,107.323 237.248,238.613 -0.136,131.559 -106.374,238.426 -237.661,238.289"/>
              </g>
              <g transform="translate(2157.7185,2448.1528)" id="g1541">
                <path inkscape:connector-curvature="0" id="path1543" style="fill:#d32011;fill-opacity:1;fill-rule:nonzero;stroke:none" d="m 0,0 8.416,-25.762 248.75,0.239 8.691,25.735 z"/>
              </g>
              <g transform="translate(2729.7839,1730.3287)" id="g1545">
                <path inkscape:connector-curvature="0" id="path1547" style="fill:#d32011;fill-opacity:1;fill-rule:nonzero;stroke:none" d="m 0,0 25.618,-77.498 333.948,0.259 -25.351,77.556 z"/>
              </g>
              <g transform="translate(3080.7976,1345.2506)" id="g1549">
                <path inkscape:connector-curvature="0" id="path1551" style="fill:#d32011;fill-opacity:1;fill-rule:nonzero;stroke:none" d="M 0,0 110.728,0.104 84.899,77.277 -248.862,76.978 -231.787,25.636 -35.72,25.797 Z"/>
              </g>
              <g transform="translate(2866.2263,1319.3102)" id="g1553">
                <path inkscape:connector-curvature="0" id="path1555" style="fill:#d32011;fill-opacity:1;fill-rule:nonzero;stroke:none" d="m 0,0 16.835,-51.367 306.397,0.283 36.014,-24.854 -25.698,76.245 z"/>
              </g>
              <g transform="translate(2531.7546,1319.0055)" id="g1557">
                <path inkscape:connector-curvature="0" id="path1559" style="fill:#d32011;fill-opacity:1;fill-rule:nonzero;stroke:none" d="m 0,0 8.319,-25.066 279.45,0.228 -36.333,25.002 z"/>
              </g>
              <g transform="translate(2774.1765,2500.0693)" id="g1561">
                <path inkscape:connector-curvature="0" id="path1563" style="fill:#d32011;fill-opacity:1;fill-rule:nonzero;stroke:none" d="m 0,0 -8.082,-25.763 50.536,0.042 -25.306,76.833 -334.127,-0.278 -0.015,-0.73 c 0.782,-0.221 0.782,-0.221 0.779,-0.464 l 16.772,-49.916 z"/>
              </g>
              <g transform="translate(2876.4382,1858.3683)" id="g1565">
                <path inkscape:connector-curvature="0" id="path1567" style="fill:#d32011;fill-opacity:1;fill-rule:nonzero;stroke:none" d="M 0,0 334.065,0.301 440.347,77.293 106.732,77.04 Z"/>
              </g>
              <g transform="translate(2841.3435,1832.5763)" id="g1569">
                <path inkscape:connector-curvature="0" id="path1571" style="fill:#d32011;fill-opacity:1;fill-rule:nonzero;stroke:none" d="M 0,0 -106.208,-76.833 227.003,-76.5 333.792,0.303 Z"/>
              </g>
              <g transform="translate(3123.2966,1550.5299)" id="g1573">
                <path inkscape:connector-curvature="0" id="path1575" style="fill:#d32011;fill-opacity:1;fill-rule:nonzero;stroke:none" d="m 0,0 -26.042,76.906 -333.365,-0.318 25.462,-76.877 z"/>
              </g>
              <g transform="translate(2900.4763,1473.3209)" id="g1577">
                <path inkscape:connector-curvature="0" id="path1579" style="fill:#d32011;fill-opacity:1;fill-rule:nonzero;stroke:none" d="m 0,0 36.266,-25.8 220.357,0.245 -26.067,77.148 -332.881,-0.298 17.044,-51.345 z"/>
              </g>
              <g transform="translate(2525.9207,2345.9214)" id="g1581">
                <path inkscape:connector-curvature="0" id="path1583" style="fill:#d32011;fill-opacity:1;fill-rule:nonzero;stroke:none" d="m 0,0 16.697,-51.504 163.754,0.137 -8.545,-25.689 187.227,0.195 -25.765,77.149 z"/>
              </g>
              <g transform="translate(2559.8074,2243.061)" id="g1585">
                <path inkscape:connector-curvature="0" id="path1587" style="fill:#d32011;fill-opacity:1;fill-rule:nonzero;stroke:none" d="m 0,0 16.954,-51.354 96.455,0.079 -9.336,-25.682 255.409,0.225 -25.694,77.065 z"/>
              </g>
              <g transform="translate(2593.6101,2140.2192)" id="g1589">
                <path inkscape:connector-curvature="0" id="path1591" style="fill:#d32011;fill-opacity:1;fill-rule:nonzero;stroke:none" d="m 0,0 17.079,-51.099 28.031,0.025 -9.075,-25.563 323.592,0.254 -25.683,76.671 z"/>
              </g>
              <g transform="translate(3125.1345,2038.3307)" id="g1593">
                <path inkscape:connector-curvature="0" id="path1595" style="fill:#d32011;fill-opacity:1;fill-rule:nonzero;stroke:none" d="m 0,0 -106.005,-77.023 333.001,0.309 106.4,77.035 z"/>
              </g>
              <g transform="translate(2497.616,1421.9454)" id="g1597">
                <path inkscape:connector-curvature="0" id="path1599" style="fill:#d32011;fill-opacity:1;fill-rule:nonzero;stroke:none" d="m 0,0 8.634,-25.911 169.094,0.155 -36.337,25.882 z"/>
              </g>
              <g transform="translate(2464.1863,1524.3317)" id="g1601">
                <path inkscape:connector-curvature="0" id="path1603" style="fill:#d32011;fill-opacity:1;fill-rule:nonzero;stroke:none" d="M 0,0 8.168,-25.35 66.88,-25.297 30.545,0.009 Z"/>
              </g>
              <g transform="translate(2123.4456,2550.6108)" id="g1605">
                <path inkscape:connector-curvature="0" id="path1607" style="fill:#d32011;fill-opacity:1;fill-rule:nonzero;stroke:none" d="m 0,0 8.537,-25.952 317.433,0.296 7.76,25.94 z"/>
              </g>
              <g transform="translate(2508.3669,2396.939)" id="g1609">
                <path inkscape:connector-curvature="0" id="path1611" style="fill:#d32011;fill-opacity:1;fill-rule:nonzero;stroke:none" d="m 0,0 231.63,0.195 -8.59,-25.27 119.689,0.083 -25.362,76.797 -333.942,-0.319 z"/>
              </g>
              <g transform="translate(2191.4714,2345.6577)" id="g1613">
                <path inkscape:connector-curvature="0" id="path1615" style="fill:#d32011;fill-opacity:1;fill-rule:nonzero;stroke:none" d="m 0,0 8.438,-26.12 181.373,0.157 8.501,26.11 z"/>
              </g>
              <g transform="translate(2225.7986,2242.7627)" id="g1617">
                <path inkscape:connector-curvature="0" id="path1619" style="fill:#d32011;fill-opacity:1;fill-rule:nonzero;stroke:none" d="m 0,0 8.291,-25.647 113.021,0.058 8.605,25.696 z"/>
              </g>
              <g transform="translate(2259.3484,2139.9238)" id="g1621">
                <path inkscape:connector-curvature="0" id="path1623" style="fill:#d32011;fill-opacity:1;fill-rule:nonzero;stroke:none" d="m 0,0 8.622,-25.563 45.562,0.044 8.404,25.584 z"/>
              </g>
              <g transform="translate(2420.95,1652.5192)" id="g1625">
                <path inkscape:connector-curvature="0" id="path1627" style="fill:#0038a1;fill-opacity:1;fill-rule:nonzero;stroke:none" d="m 0,0 -25.106,77.522 -1210.258,-1.092 -8.915,-25.638 333.608,0.314 -8.409,-26.101 333.244,0.306 -8.075,-25.822 z"/>
              </g>
              <g transform="translate(1408.6644,1395.0787)" id="g1629">
                <path inkscape:connector-curvature="0" id="path1631" style="fill:#0038a1;fill-opacity:1;fill-rule:nonzero;stroke:none" d="m 0,0 -8.535,-25.507 333.732,0.297 -8.265,-25.751 109.85,0.072 72.251,51.335 75.712,0.068 36.684,-25.451 356.966,0.299 35.53,-25.725 110.727,0.104 -25.7,77.126 -1413.828,-1.259 -8.856,-25.904 z"/>
              </g>
              <g transform="translate(2531.7546,1319.0055)" id="g1633">
                <path inkscape:connector-curvature="0" id="path1635" style="fill:#0038a1;fill-opacity:1;fill-rule:nonzero;stroke:none" d="m 0,0 -1482.371,-1.326 -7.883,-25.073 333.399,0.292 -8.605,-26.274 333.675,0.261 -8.081,-24.912 71.348,51.269 364.985,0.299 35.613,-26.233 357.54,0.33 35.681,-24.86 z"/>
              </g>
              <g transform="translate(1773.0228,2499.1899)" id="g1637">
                <path inkscape:connector-curvature="0" id="path1639" style="fill:#0038a1;fill-opacity:1;fill-rule:nonzero;stroke:none" d="m 0,0 333.578,0.311 -8.746,-25.803 50.866,0.077 -25.275,76.836 -667.403,-0.587 -8.363,-25.974 333.851,0.309 z"/>
              </g>
              <g transform="translate(934.3192,1933.7648)" id="g1641">
                <path inkscape:connector-curvature="0" id="path1643" style="fill:#0038a1;fill-opacity:1;fill-rule:nonzero;stroke:none" d="m 0,0 35.614,-25.382 309.71,0.27 35.255,-25.997 334.155,0.311 35.589,-25.719 857.641,0.737 106.816,77.109 z"/>
              </g>
              <g transform="translate(1075.6,1831.0172)" id="g1645">
                <path inkscape:connector-curvature="0" id="path1647" style="fill:#0038a1;fill-opacity:1;fill-rule:nonzero;stroke:none" d="m 0,0 34.94,-25.333 310.771,0.293 35.399,-25.648 333.282,0.249 35.914,-25.624 0.213,-0.008 574.017,0.497 107.119,76.839 z"/>
              </g>
              <g transform="translate(1143.3153,1600.403)" id="g1649">
                <path inkscape:connector-curvature="0" id="path1651" style="fill:#0038a1;fill-opacity:1;fill-rule:nonzero;stroke:none" d="m 0,0 333.211,0.333 -8.544,-25.994 333.399,0.291 -8.515,-25.686 662.335,0.565 L 1286.6,26.436 8.192,25.288 Z"/>
              </g>
              <g transform="translate(1980.1937,1446.7545)" id="g1653">
                <path inkscape:connector-curvature="0" id="path1655" style="fill:#0038a1;fill-opacity:1;fill-rule:nonzero;stroke:none" d="m 0,0 35.746,25.809 216.447,0.165 36.32,-25.733 220.329,0.212 -24.849,77.124 -1346.469,-1.194 -8.576,-25.39 333.275,0.309 -8.507,-26.05 334.032,0.328 -9.112,-25.78 z"/>
              </g>
              <g transform="translate(1704.8265,2293.6772)" id="g1657">
                <path inkscape:connector-curvature="0" id="path1659" style="fill:#0038a1;fill-opacity:1;fill-rule:nonzero;stroke:none" d="m 0,0 333.728,0.326 -8.178,-25.711 186.048,0.131 -24.953,77.234 -803.607,-0.749 -8.563,-26.086 334.066,0.301 z"/>
              </g>
              <g transform="translate(1738.7328,2396.2676)" id="g1661">
                <path inkscape:connector-curvature="0" id="path1663" style="fill:#0038a1;fill-opacity:1;fill-rule:nonzero;stroke:none" d="m 0,0 333.578,0.311 -8.099,-25.309 118.595,0.088 -25.088,76.795 -735.461,-0.663 -8.872,-25.755 333.795,0.273 z"/>
              </g>
              <g transform="translate(1671.411,2190.8901)" id="g1665">
                <path inkscape:connector-curvature="0" id="path1667" style="fill:#0038a1;fill-opacity:1;fill-rule:nonzero;stroke:none" d="m 0,0 333.425,0.324 -8.968,-25.703 254.831,0.224 -24.9,77.028 -871.881,-0.789 -8.574,-25.693 334.275,0.324 z"/>
              </g>
              <g transform="translate(1637.2997,2088.2598)" id="g1669">
                <path inkscape:connector-curvature="0" id="path1671" style="fill:#0038a1;fill-opacity:1;fill-rule:nonzero;stroke:none" d="m 0,0 333.215,0.302 -8.411,-25.524 323.069,0.321 -25.824,76.565 -940.09,-0.851 -8.892,-25.575 335.828,0.306 z"/>
              </g>
              <g transform="translate(793.4384,2036.2633)" id="g1673">
                <path inkscape:connector-curvature="0" id="path1675" style="fill:#0038a1;fill-opacity:1;fill-rule:nonzero;stroke:none" d="m 0,0 34.497,-25.44 308.679,0.253 37.011,-25.66 334.338,0.3 35.076,-25.744 1141.198,1.03 106.065,77.031 z"/>
              </g>
              <g transform="translate(1020.5931,1103.3141)" id="g1677">
                <path inkscape:connector-curvature="0" id="path1679" style="fill:#1a1413;fill-opacity:1;fill-rule:nonzero;stroke:none" d="m 0,0 c 0.395,1.809 0.791,4.285 -0.395,6.951 -1.976,4.57 -7.411,5.332 -10.771,5.332 -17.39,0 -24.307,-15.615 -26.678,-26.184 -0.988,-4.665 -2.174,-13.046 1.877,-18.472 2.766,-3.81 7.015,-5.904 15.513,-5.904 7.412,0 10.178,0.857 11.956,1.332 l 3.162,14.474 h -13.833 l 2.569,11.426 H 12.549 L 4.94,-45.419 c -4.742,-1.428 -12.548,-3.809 -26.876,-3.809 -16.303,0 -23.912,3.809 -28.358,9.142 -6.324,7.522 -5.435,18.472 -3.854,25.708 5.434,24.376 24.109,37.421 45.75,37.421 9.189,0 18.082,-2.476 22.429,-8.665 C 17.588,9.142 16.699,3.714 15.908,0 Z"/>
              </g>
              <g transform="translate(1052.8773,1070.4645)" id="g1681">
                <path inkscape:connector-curvature="0" id="path1683" style="fill:#1a1413;fill-opacity:1;fill-rule:nonzero;stroke:none" d="m 0,0 c -0.691,-3.237 0.791,-6.856 5.632,-6.856 2.668,0 5.139,1.238 6.818,2.76 3.261,3.048 4.249,6.762 5.435,11.904 C 8.596,8.569 1.285,5.713 0,0 m 14.723,-14.854 c 0.197,2.951 0.593,5.141 0.988,6.57 -7.313,-7.713 -13.933,-7.713 -16.699,-7.713 -7.213,0 -9.98,2 -11.56,3.809 -2.372,2.856 -2.866,6.76 -1.977,10.569 0.791,3.809 3.755,10.854 13.834,14.949 6.718,2.667 15.513,2.667 20.355,2.667 0.691,3.141 0.889,4.665 0.691,6.379 -0.494,3.523 -4.249,3.998 -5.632,3.998 -2.076,0 -4.447,-0.855 -6.127,-2.665 C 7.114,22.091 6.818,20.566 6.62,19.424 H -7.708 c 0.594,2.572 2.076,7.713 8.104,11.331 5.236,3.142 11.264,3.903 16.006,3.903 4.151,0 12.648,-0.666 16.403,-6.188 2.47,-3.905 1.285,-9.617 0.79,-11.807 L 29.446,-2.666 c -0.889,-4.095 -1.482,-8.189 -1.482,-12.188 z"/>
              </g>
              <g transform="translate(1099.473,1094.649)" id="g1685">
                <path inkscape:connector-curvature="0" id="path1687" style="fill:#1a1413;fill-opacity:1;fill-rule:nonzero;stroke:none" d="m 0,0 c 0.692,3.048 1.186,5.999 1.482,9.047 h 14.13 l -0.79,-6.19 c 1.976,2.094 7.015,7.237 16.995,7.237 11.462,0 13.241,-6.762 13.636,-9.046 5.928,7.712 12.845,8.951 17.983,8.951 10.079,0 12.846,-5.809 13.537,-7.713 1.778,-4.19 0.297,-9.998 -0.593,-14.187 L 70.353,-39.039 H 55.63 l 6.225,28.28 c 1.187,5.141 1.581,10.855 -6.027,10.855 -8.794,0 -10.672,-7.904 -12.252,-15.045 l -5.337,-24.09 H 23.517 l 6.324,28.566 c 0.79,3.712 2.174,10.569 -5.929,10.569 -9.189,0 -10.869,-7.617 -11.561,-10.855 L 6.126,-39.039 H -8.597 Z"/>
              </g>
              <g transform="translate(1217.5819,1084.9371)" id="g1689">
                <path inkscape:connector-curvature="0" id="path1691" style="fill:#1a1413;fill-opacity:1;fill-rule:nonzero;stroke:none" d="M 0,0 C 0.494,2.19 2.174,10.76 -6.324,10.76 -12.746,10.76 -16.501,5.618 -18.083,0 Z m -20.454,-8.855 c -0.691,-3.143 -2.865,-12.854 7.312,-12.854 3.656,0 7.609,1.332 10.178,6.665 H 10.375 C 9.684,-17.329 8.3,-21.424 3.36,-25.519 c -4.546,-3.713 -11.462,-5.617 -18.774,-5.617 -4.249,0 -12.154,0.761 -16.304,5.999 -3.458,4.571 -3.952,11.044 -2.273,18.757 1.779,7.809 5.732,17.14 15.415,22.758 4.446,2.476 9.486,3.999 14.921,3.999 7.113,0 15.019,-2.666 17.588,-11.616 C 15.81,2.19 14.13,-4.856 13.043,-8.855 Z"/>
              </g>
              <g transform="translate(1251.0126,1069.5114)" id="g1693">
                <path inkscape:connector-curvature="0" id="path1695" style="fill:#1a1413;fill-opacity:1;fill-rule:nonzero;stroke:none" d="m 0,0 c -0.494,-3.046 0.692,-6.569 6.818,-6.569 5.237,0 8.399,2.855 8.992,5.714 0.494,2.188 -0.297,3.903 -5.731,5.425 L 1.582,6.952 c -3.854,1.143 -11.957,3.523 -9.783,13.33 2.075,9.332 12.252,15.045 25.197,15.045 10.276,0 17.588,-4.57 15.81,-14.188 h -13.34 c 0.395,2.666 -0.494,4.094 -1.779,4.856 -1.285,0.761 -2.865,0.858 -4.051,0.858 -3.952,0 -7.312,-1.81 -8.004,-4.762 -0.691,-3.237 1.68,-3.904 5.732,-5.046 l 8.497,-2.38 C 28.359,12.283 31.619,7.809 30.236,1.238 28.359,-7.046 19.169,-15.33 3.656,-15.33 c -6.422,0 -12.253,1.334 -15.809,5.904 -2.57,3.332 -1.977,7.142 -1.581,9.426 z"/>
              </g>
              <g transform="translate(1340.1317,1063.7037)" id="g1697">
                <path inkscape:connector-curvature="0" id="path1699" style="fill:#1a1413;fill-opacity:1;fill-rule:nonzero;stroke:none" d="M 0,0 C 6.423,0 11.561,3.713 14.426,16.473 15.81,22.853 16.501,31.708 6.818,31.708 -3.853,31.708 -6.62,19.805 -7.509,15.425 -9.98,4.666 -7.213,0 0,0 m 8.893,41.135 c 18.083,0 23.319,-11.807 20.355,-25.234 C 26.185,2.381 15.415,-9.808 -2.667,-9.808 c -14.229,0 -23.616,8.475 -19.861,25.329 2.569,11.617 11.758,25.614 31.421,25.614"/>
              </g>
              <g transform="translate(1383.3851,1093.6979)" id="g1701">
                <path inkscape:connector-curvature="0" id="path1703" style="fill:#1a1413;fill-opacity:1;fill-rule:nonzero;stroke:none" d="m 0,0 h -7.411 l 2.174,9.998 h 7.411 l 1.482,6.569 c 1.877,8.475 6.324,15.33 20.552,15.33 0.989,0 3.755,0 7.806,-0.476 l -2.173,-9.807 c -1.384,0.191 -1.779,0.285 -2.965,0.285 -7.51,0 -8.399,-3.808 -8.892,-6.284 L 16.699,9.998 h 9.288 L 23.813,0 H 14.525 L 6.126,-38.088 H -8.399 Z"/>
              </g>
              <g transform="translate(1464.8177,1056.276)" id="g1705">
                <path inkscape:connector-curvature="0" id="path1707" style="fill:#1a1413;fill-opacity:1;fill-rule:nonzero;stroke:none" d="m 0,0 c -4.94,-1.237 -9.289,-1.523 -11.66,-1.523 -14.723,0 -12.746,8.951 -11.857,12.95 l 5.83,26.375 h -9.585 l 2.075,9.331 h 9.584 l 2.076,9.427 15.612,5.142 -3.162,-14.569 H 10.77 L 8.695,37.802 H -3.162 l -4.842,-21.71 c -0.79,-4.38 -1.482,-7.142 5.039,-7.142 2.174,0 3.261,0.097 5.04,0.287 z"/>
              </g>
              <g transform="translate(1490.3246,1124.3571)" id="g1709">
                <path inkscape:connector-curvature="0" id="path1711" style="fill:#1a1413;fill-opacity:1;fill-rule:nonzero;stroke:none" d="M 0,0 H 14.525 L 8.597,-27.231 c 2.174,2.285 6.916,7.236 16.007,7.236 7.411,0 11.363,-3.523 13.042,-6.476 1.286,-2.38 1.779,-6.759 0.396,-13.044 L 31.619,-68.747 H 17.095 l 6.323,28.756 c 0.593,2.762 2.372,10.474 -5.829,10.474 -4.151,0 -9.98,-2.285 -11.562,-9.808 l -6.422,-29.422 h -14.723 z"/>
              </g>
              <g transform="translate(1567.9071,1084.9371)" id="g1713">
                <path inkscape:connector-curvature="0" id="path1715" style="fill:#1a1413;fill-opacity:1;fill-rule:nonzero;stroke:none" d="M 0,0 C 0.494,2.19 2.174,10.76 -6.324,10.76 -12.747,10.76 -16.501,5.618 -18.083,0 Z m -20.454,-8.855 c -0.691,-3.143 -2.865,-12.854 7.312,-12.854 3.656,0 7.609,1.332 10.178,6.665 h 13.339 c -0.691,-2.285 -2.075,-6.38 -7.016,-10.475 -4.545,-3.713 -11.462,-5.617 -18.773,-5.617 -4.249,0 -12.154,0.761 -16.304,5.999 -3.458,4.571 -3.952,11.044 -2.273,18.757 1.779,7.809 5.731,17.14 15.415,22.758 4.446,2.476 9.486,3.999 14.92,3.999 7.114,0 15.019,-2.666 17.589,-11.616 1.877,-6.571 0.196,-13.617 -0.89,-17.616 z"/>
              </g>
              <g transform="translate(1646.1947,1124.4528)" id="g1717">
                <path inkscape:connector-curvature="0" id="path1719" style="fill:#1a1413;fill-opacity:1;fill-rule:nonzero;stroke:none" d="M 0,0 9.189,-23.424 29.841,0 H 46.243 L 15.415,-33.137 32.41,-68.843 H 13.635 l -10.177,25.9 -22.825,-25.9 H -35.77 L -2.866,-33.231 -18.873,0 Z"/>
              </g>
              <g transform="translate(1717.5267,1124.4528)" id="g1721">
                <path inkscape:connector-curvature="0" id="path1723" style="fill:#1a1413;fill-opacity:1;fill-rule:nonzero;stroke:none" d="M 0,0 9.189,-23.424 29.841,0 H 46.243 L 15.415,-33.137 32.41,-68.843 H 13.635 l -10.177,25.9 -22.825,-25.9 H -35.77 L -2.866,-33.231 -18.873,0 Z"/>
              </g>
              <g transform="translate(1774.9652,1124.6442)" id="g1725">
                <path inkscape:connector-curvature="0" id="path1727" style="fill:#1a1413;fill-opacity:1;fill-rule:nonzero;stroke:none" d="M 0,0 H 15.315 L 0.099,-69.034 h -15.316 z"/>
              </g>
              <g transform="translate(1807.4672,1124.6442)" id="g1729">
                <path inkscape:connector-curvature="0" id="path1731" style="fill:#1a1413;fill-opacity:1;fill-rule:nonzero;stroke:none" d="M 0,0 H 15.315 L 0.099,-69.034 h -15.316 z"/>
              </g>
              <g transform="translate(1838.9618,1124.6442)" id="g1733">
                <path inkscape:connector-curvature="0" id="path1735" style="fill:#1a1413;fill-opacity:1;fill-rule:nonzero;stroke:none" d="M 0,0 H 15.315 L 0.099,-69.034 h -15.316 z"/>
              </g>
              <g transform="translate(1862.7294,1091.8873)" id="g1737">
                <path inkscape:connector-curvature="0" id="path1739" style="fill:#1a1413;fill-opacity:1;fill-rule:nonzero;stroke:none" d="M 0,0 C 0.495,2.286 1.68,9.236 1.977,11.998 H 15.711 L 13.933,2.762 c 2.766,4.094 7.312,9.902 19.07,9.331 L 30.236,-0.571 C 15.711,0.763 13.142,-6.568 11.857,-12.567 L 6.621,-36.277 H -8.003 Z"/>
              </g>
              <g transform="translate(1916.8138,1063.7994)" id="g1741">
                <path inkscape:connector-curvature="0" id="path1743" style="fill:#1a1413;fill-opacity:1;fill-rule:nonzero;stroke:none" d="m 0,0 c 4.248,0 8.299,2.475 10.474,5.428 3.063,3.999 4.347,8.95 4.94,11.33 2.075,9.427 -1.087,14.568 -7.707,14.568 -9.783,0 -13.34,-11.331 -14.427,-16.187 C -8.498,7.142 -7.312,0 0,0 M 24.504,60.558 H 39.227 L 25.789,-0.382 C 25.196,-3.238 24.702,-6.381 24.504,-8.189 H 9.683 l 1.186,6.951 C 9.485,-2.953 8.102,-4.762 4.544,-6.665 0.395,-8.95 -3.459,-9.142 -5.633,-9.142 c -13.339,0 -19.267,8.856 -16.007,23.9 3.557,15.901 14.723,25.805 27.766,25.805 8.991,0 11.659,-4.857 12.548,-6.571 z"/>
              </g>
              <g transform="translate(2008.3969,1070.2731)" id="g1745">
                <path inkscape:connector-curvature="0" id="path1747" style="fill:#1a1413;fill-opacity:1;fill-rule:nonzero;stroke:none" d="m 0,0 c 1.482,-2.856 4.545,-5.521 11.66,-5.521 6.225,0 10.968,2.093 14.821,6.378 3.063,3.428 6.72,8.761 9.189,19.711 0.692,3.332 1.482,8.093 0.89,12.284 -1.087,8.473 -6.324,12.187 -13.636,12.187 -5.731,0 -10.771,-2.285 -14.426,-5.809 C 3.458,34.47 0.593,27.042 -1.087,19.234 -2.569,12.664 -3.063,5.333 0,0 m 25.197,55.608 c 7.608,0 17.686,-1.713 23.023,-9.332 5.731,-8.379 4.841,-19.139 3.358,-25.899 -2.173,-9.998 -7.706,-20.662 -14.919,-26.946 -9.782,-8.571 -21.64,-9.808 -27.568,-9.808 -9.387,0 -18.083,2.856 -23.221,9.427 -6.027,7.998 -4.447,19.425 -3.063,25.708 3.952,18.282 16.699,36.85 42.39,36.85"/>
              </g>
              <g transform="translate(2077.1423,1124.4528)" id="g1749">
                <path inkscape:connector-curvature="0" id="path1751" style="fill:#1a1413;fill-opacity:1;fill-rule:nonzero;stroke:none" d="M 0,0 H 14.624 L -0.593,-68.843 h -14.624 z"/>
              </g>
              <g transform="translate(2109.7283,1103.6959)" id="g1753">
                <path inkscape:connector-curvature="0" id="path1755" style="fill:#1a1413;fill-opacity:1;fill-rule:nonzero;stroke:none" d="M 0,0 3.655,-33.326 22.134,0 H 36.658 L 7.41,-47.229 -2.866,-66.368 H -17.589 L -7.214,-48.275 -15.81,0 Z"/>
              </g>
              <g transform="translate(2151.2039,1094.649)" id="g1757">
                <path inkscape:connector-curvature="0" id="path1759" style="fill:#1a1413;fill-opacity:1;fill-rule:nonzero;stroke:none" d="m 0,0 c 0.691,3.048 1.186,5.999 1.481,9.047 h 14.131 l -0.791,-6.19 c 1.977,2.094 7.016,7.237 16.995,7.237 11.463,0 13.242,-6.762 13.636,-9.046 5.929,7.712 12.846,8.951 17.985,8.951 10.078,0 12.844,-5.809 13.536,-7.713 1.779,-4.19 0.297,-9.998 -0.593,-14.187 L 70.353,-39.039 H 55.63 l 6.224,28.28 c 1.187,5.141 1.583,10.855 -6.026,10.855 -8.795,0 -10.672,-7.904 -12.253,-15.045 l -5.336,-24.09 H 23.517 l 6.324,28.566 c 0.79,3.712 2.174,10.569 -5.929,10.569 -9.189,0 -10.869,-7.617 -11.561,-10.855 L 6.126,-39.039 H -8.597 Z"/>
              </g>
              <g transform="translate(2274.2732,1080.0807)" id="g1761">
                <path inkscape:connector-curvature="0" id="path1763" style="fill:#1a1413;fill-opacity:1;fill-rule:nonzero;stroke:none" d="m 0,0 c 1.186,5.713 1.878,15.521 -6.719,15.521 -4.743,0 -12.154,-3.428 -15.019,-16.377 -0.692,-2.858 -3.261,-15.045 7.509,-15.045 6.917,0 12.054,6.38 14.229,15.901 m -16.402,23.615 -1.088,-6.857 c 6.225,7.713 14.526,7.809 16.897,7.809 12.944,0 18.774,-9.332 15.513,-23.996 -2.964,-13.615 -12.944,-25.708 -27.37,-25.708 -8.992,0 -11.66,4.571 -12.648,6.189 l -5.237,-23.994 h -14.92 l 14.623,66.557 z"/>
              </g>
              <g transform="translate(2307.5466,1124.3571)" id="g1765">
                <path inkscape:connector-curvature="0" id="path1767" style="fill:#1a1413;fill-opacity:1;fill-rule:nonzero;stroke:none" d="M 0,0 H 15.612 L 12.944,-12.282 H -2.668 Z M -3.952,-20.566 H 10.672 L 0,-68.747 h -14.624 z"/>
              </g>
              <g transform="translate(2334.5984,1070.4645)" id="g1769">
                <path inkscape:connector-curvature="0" id="path1771" style="fill:#1a1413;fill-opacity:1;fill-rule:nonzero;stroke:none" d="m 0,0 c -0.691,-3.237 0.791,-6.856 5.633,-6.856 2.668,0 5.138,1.238 6.818,2.76 3.26,3.048 4.248,6.762 5.434,11.904 C 8.597,8.569 1.285,5.713 0,0 m 14.724,-14.854 c 0.197,2.951 0.592,5.141 0.987,6.57 -7.312,-7.713 -13.933,-7.713 -16.698,-7.713 -7.213,0 -9.981,2 -11.561,3.809 -2.372,2.856 -2.866,6.76 -1.976,10.569 0.79,3.809 3.754,10.854 13.833,14.949 6.718,2.667 15.513,2.667 20.355,2.667 0.691,3.141 0.889,4.665 0.691,6.379 -0.494,3.523 -4.249,3.998 -5.631,3.998 -2.076,0 -4.448,-0.855 -6.127,-2.665 C 7.115,22.091 6.818,20.566 6.62,19.424 H -7.707 c 0.594,2.572 2.075,7.713 8.103,11.331 5.237,3.142 11.264,3.903 16.006,3.903 4.151,0 12.649,-0.666 16.403,-6.188 2.47,-3.905 1.285,-9.617 0.791,-11.807 l -4.15,-19.329 c -0.889,-4.095 -1.482,-8.189 -1.482,-12.188 z"/>
              </g>
              <g transform="translate(2396.9236,1063.7994)" id="g1773">
                <path inkscape:connector-curvature="0" id="path1775" style="fill:#1a1413;fill-opacity:1;fill-rule:nonzero;stroke:none" d="m 0,0 c 4.249,0 8.3,2.475 10.474,5.428 3.063,3.999 4.347,8.95 4.94,11.33 2.075,9.427 -1.087,14.568 -7.707,14.568 -9.782,0 -13.339,-11.331 -14.426,-16.187 C -8.498,7.142 -7.312,0 0,0 M 24.505,60.558 H 39.228 L 25.789,-0.382 C 25.196,-3.238 24.702,-6.381 24.505,-8.189 H 9.684 l 1.185,6.951 C 9.486,-2.953 8.103,-4.762 4.545,-6.665 0.396,-8.95 -3.459,-9.142 -5.632,-9.142 c -13.34,0 -19.268,8.856 -16.008,23.9 3.558,15.901 14.723,25.805 27.766,25.805 8.992,0 11.659,-4.857 12.549,-6.571 z"/>
              </g>
              <g transform="translate(2478.6677,1124.3571)" id="g1777">
                <path inkscape:connector-curvature="0" id="path1779" style="fill:#1a1413;fill-opacity:1;fill-rule:nonzero;stroke:none" d="M 0,0 H 15.612 L 3.063,-57.035 h 30.632 l -2.569,-11.712 h -46.243 z"/>
              </g>
              <g transform="translate(2542.574,1063.7037)" id="g1781">
                <path inkscape:connector-curvature="0" id="path1783" style="fill:#1a1413;fill-opacity:1;fill-rule:nonzero;stroke:none" d="M 0,0 C 6.423,0 11.561,3.713 14.426,16.473 15.81,22.853 16.501,31.708 6.818,31.708 -3.854,31.708 -6.62,19.805 -7.51,15.425 -9.98,4.666 -7.213,0 0,0 m 8.893,41.135 c 18.083,0 23.319,-11.807 20.355,-25.234 C 26.185,2.381 15.415,-9.808 -2.668,-9.808 c -14.228,0 -23.615,8.475 -19.86,25.329 2.569,11.617 11.757,25.614 31.421,25.614"/>
              </g>
              <g transform="translate(2589.6814,1069.5114)" id="g1785">
                <path inkscape:connector-curvature="0" id="path1787" style="fill:#1a1413;fill-opacity:1;fill-rule:nonzero;stroke:none" d="m 0,0 c -0.494,-3.046 0.691,-6.569 6.817,-6.569 5.238,0 8.4,2.855 8.993,5.714 0.495,2.188 -0.297,3.903 -5.731,5.425 L 1.581,6.952 c -3.854,1.143 -11.956,3.523 -9.782,13.33 2.075,9.332 12.252,15.045 25.197,15.045 10.276,0 17.587,-4.57 15.809,-14.188 H 19.466 c 0.395,2.666 -0.494,4.094 -1.779,4.856 -1.285,0.761 -2.866,0.858 -4.051,0.858 -3.952,0 -7.313,-1.81 -8.004,-4.762 -0.692,-3.237 1.68,-3.904 5.731,-5.046 l 8.498,-2.38 C 28.359,12.283 31.619,7.809 30.236,1.238 28.359,-7.046 19.17,-15.33 3.656,-15.33 c -6.424,0 -12.253,1.334 -15.809,5.904 -2.57,3.332 -1.977,7.142 -1.582,9.426 z"/>
              </g>
              <g transform="translate(2698.6365,1081.6051)" id="g1789">
                <path inkscape:connector-curvature="0" id="path1791" style="fill:#1a1413;fill-opacity:1;fill-rule:nonzero;stroke:none" d="M 0,0 -3.459,29.327 -20.454,0 Z m 9.091,42.848 9.583,-68.843 H 3.261 l -1.878,14.854 h -28.26 l -8.597,-14.854 h -14.623 l 41.006,68.843 z"/>
              </g>
              <g transform="translate(2733.6853,1095.1256)" id="g1793">
                <path inkscape:connector-curvature="0" id="path1795" style="fill:#1a1413;fill-opacity:1;fill-rule:nonzero;stroke:none" d="m 0,0 c 0.099,0.19 1.187,5.427 1.681,8.76 h 14.03 L 14.525,1.523 c 1.779,2.191 7.114,8.379 17.983,8.379 9.782,0 12.747,-5.713 13.241,-9.045 0.494,-2.951 0.198,-5.427 -1.778,-14.378 l -5.732,-25.995 h -14.92 l 6.62,29.899 c 0.395,2 0.79,3.714 0.296,5.236 -0.592,2.096 -2.371,4.096 -6.125,4.096 -3.163,0 -6.423,-1.429 -8.498,-3.714 -1.087,-1.238 -2.57,-3.618 -3.359,-7.332 L 6.027,-39.516 H -8.694 Z"/>
              </g>
              <g transform="translate(2806.7429,1066.1793)" id="g1797">
                <path inkscape:connector-curvature="0" id="path1799" style="fill:#1a1413;fill-opacity:1;fill-rule:nonzero;stroke:none" d="M 0,0 C 10.276,0 12.845,11.616 13.24,13.712 14.426,19.14 15.414,28.375 6.521,28.375 0.988,28.375 -4.447,24.28 -6.72,13.997 -7.214,11.616 -9.782,0 0,0 M 33.299,37.325 C 32.015,33.518 31.026,30.279 29.939,25.423 L 22.133,-10.093 C 18.28,-27.804 2.568,-29.518 -7.016,-29.518 c -7.115,0 -20.849,0.857 -18.577,15.426 h 14.032 c 0,-0.668 -0.197,-2.382 0.692,-3.904 0.789,-1.429 2.668,-2.761 6.52,-2.761 4.349,0 8.597,1.999 10.475,6.284 1.186,2.38 1.481,4.094 3.26,11.426 -5.928,-5.903 -11.362,-6.569 -14.92,-6.569 -14.327,0 -18.379,11.996 -15.809,23.613 2.667,12.188 12.252,23.804 26.579,23.804 9.091,0 11.364,-4.76 12.451,-6.855 l 1.877,6.379 z"/>
              </g>
              <g transform="translate(2876.28,1084.9371)" id="g1801">
                <path inkscape:connector-curvature="0" id="path1803" style="fill:#1a1413;fill-opacity:1;fill-rule:nonzero;stroke:none" d="M 0,0 C 0.494,2.19 2.174,10.76 -6.324,10.76 -12.747,10.76 -16.502,5.618 -18.082,0 Z m -20.453,-8.855 c -0.693,-3.143 -2.866,-12.854 7.31,-12.854 3.658,0 7.609,1.332 10.178,6.665 h 13.34 c -0.691,-2.285 -2.074,-6.38 -7.016,-10.475 -4.546,-3.713 -11.462,-5.617 -18.774,-5.617 -4.248,0 -12.153,0.761 -16.303,5.999 -3.459,4.571 -3.953,11.044 -2.273,18.757 1.778,7.809 5.731,17.14 15.415,22.758 4.446,2.476 9.485,3.999 14.92,3.999 7.114,0 15.019,-2.666 17.588,-11.616 C 15.81,2.19 14.13,-4.856 13.043,-8.855 Z"/>
              </g>
              <g transform="translate(2909.6736,1124.4528)" id="g1805">
                <path inkscape:connector-curvature="0" id="path1807" style="fill:#1a1413;fill-opacity:1;fill-rule:nonzero;stroke:none" d="M 0,0 H 14.623 L -0.593,-68.843 h -14.625 z"/>
              </g>
              <g transform="translate(2957.6726,1084.9371)" id="g1809">
                <path inkscape:connector-curvature="0" id="path1811" style="fill:#1a1413;fill-opacity:1;fill-rule:nonzero;stroke:none" d="M 0,0 C 0.495,2.19 2.175,10.76 -6.323,10.76 -12.746,10.76 -16.501,5.618 -18.081,0 Z m -20.452,-8.855 c -0.694,-3.143 -2.866,-12.854 7.31,-12.854 3.658,0 7.609,1.332 10.178,6.665 h 13.339 c -0.691,-2.285 -2.074,-6.38 -7.015,-10.475 -4.546,-3.713 -11.462,-5.617 -18.774,-5.617 -4.248,0 -12.153,0.761 -16.304,5.999 -3.458,4.571 -3.952,11.044 -2.272,18.757 1.778,7.809 5.731,17.14 15.415,22.758 4.446,2.476 9.484,3.999 14.92,3.999 7.114,0 15.019,-2.666 17.588,-11.616 1.878,-6.571 0.198,-13.617 -0.889,-17.616 z"/>
              </g>
              <g transform="translate(2989.0886,1069.5114)" id="g1813">
                <path inkscape:connector-curvature="0" id="path1815" style="fill:#1a1413;fill-opacity:1;fill-rule:nonzero;stroke:none" d="m 0,0 c -0.494,-3.046 0.691,-6.569 6.817,-6.569 5.238,0 8.4,2.855 8.993,5.714 0.495,2.188 -0.297,3.903 -5.731,5.425 L 1.581,6.952 c -3.854,1.143 -11.956,3.523 -9.782,13.33 2.075,9.332 12.252,15.045 25.197,15.045 10.276,0 17.587,-4.57 15.809,-14.188 H 19.466 c 0.395,2.666 -0.494,4.094 -1.779,4.856 -1.285,0.761 -2.866,0.858 -4.051,0.858 -3.952,0 -7.313,-1.81 -8.004,-4.762 -0.692,-3.237 1.68,-3.904 5.731,-5.046 l 8.498,-2.38 C 28.359,12.283 31.619,7.809 30.236,1.238 28.359,-7.046 19.17,-15.33 3.656,-15.33 c -6.424,0 -12.253,1.334 -15.809,5.904 -2.57,3.332 -1.976,7.142 -1.582,9.426 z"/>
              </g>
              <g transform="translate(3066.115,1112.0748)" id="g1817">
                <path inkscape:connector-curvature="0" id="path1819" style="fill:#1a1413;fill-opacity:1;fill-rule:nonzero;stroke:none" d="M 0,0 C 7.016,2.666 13.833,5.999 20.454,9.997 H 33.2 L 18.576,-56.465 H 3.655 l 11.364,51.703 c -3.261,-2.093 -9.783,-5.522 -17.983,-8.473 z"/>
              </g>
              <g transform="translate(3138.3445,1101.9821)" id="g1821">
                <path inkscape:connector-curvature="0" id="path1823" style="fill:#1a1413;fill-opacity:1;fill-rule:nonzero;stroke:none" d="m 0,0 c 1.186,5.808 -0.986,10.093 -7.015,10.093 -7.015,0 -10.77,-5.428 -11.858,-10.475 -0.492,-2.285 -1.678,-10.473 6.917,-10.473 7.312,0 10.869,6.188 11.956,10.855 m -24.405,-30.186 c -0.199,-1.998 0.197,-3.617 1.185,-4.759 0.989,-1.048 2.569,-1.714 4.645,-1.714 10.276,0 13.339,10.283 15.018,19.425 -5.927,-4.286 -10.375,-4.572 -13.437,-4.572 -16.898,0 -18.379,12.951 -16.699,20.853 2.765,12.378 14.03,21.805 29.248,21.805 23.714,0 19.564,-21.71 17.192,-32.374 -6.225,-28.089 -17.885,-36.087 -34.584,-36.087 -3.852,0 -21.343,0 -17.488,17.423 z"/>
              </g>
              <g transform="translate(3192.9441,1104.4567)" id="g1825">
                <path inkscape:connector-curvature="0" id="path1827" style="fill:#1a1413;fill-opacity:1;fill-rule:nonzero;stroke:none" d="m 0,0 c 1.186,5.428 -2.667,8.284 -7.312,8.284 -4.94,0 -9.783,-3.237 -10.868,-8.284 -0.989,-4.665 1.579,-8.569 7.015,-8.569 5.04,0 9.979,3.238 11.165,8.569 m -6.026,-29.612 c 1.284,5.999 -2.571,9.617 -7.807,9.617 -5.731,0 -10.771,-4.19 -11.956,-9.809 -1.58,-6.759 2.964,-9.901 7.708,-9.901 4.149,0 10.375,2.665 12.055,10.093 M -32.903,0.191 c 1.877,8.093 11.165,18.567 27.964,18.567 13.833,0 21.737,-7.617 19.463,-17.995 -1.778,-7.999 -9.484,-13.522 -16.796,-14.57 2.668,-0.761 7.015,-1.903 9.584,-6.855 1.68,-3.237 1.68,-6.665 0.989,-9.902 -2.668,-12.189 -16.007,-19.331 -29.545,-19.331 -14.03,0 -21.837,8.666 -19.466,19.331 1.087,5.141 4.051,8.855 7.609,11.616 4.051,3.142 7.41,4.094 10.177,4.951 -3.26,1.048 -12.153,3.904 -9.979,14.188"/>
              </g>
              <g transform="translate(3219.2429,1080.7467)" id="g1829">
                <path inkscape:connector-curvature="0" id="path1831" style="fill:#1a1413;fill-opacity:1;fill-rule:nonzero;stroke:none" d="m 0,0 h 17.39 l 3.854,17.521 c 0.197,0.858 1.383,5.618 1.877,7.332 z M -13.439,-10.664 -10.574,2.19 25.689,41.325 H 40.413 L 31.322,0.287 h 9.386 l -2.47,-10.951 H 28.852 L 25.689,-25.137 H 11.066 l 3.162,14.473 z"/>
              </g>
              <g transform="translate(1076.2191,1205.8903)" id="g1833">
                <path inkscape:connector-curvature="0" id="path1835" style="fill:#0038a1;fill-opacity:1;fill-rule:nonzero;stroke:none" d="m 0,0 c 0,-0.062 -0.008,-0.101 -0.023,-0.116 -0.016,-0.016 -0.039,-0.039 -0.07,-0.07 L -0.186,-0.278 C -0.217,-0.31 -0.249,-0.325 -0.279,-0.325 L -0.372,-0.418 C -0.869,-0.821 -1.412,-1.232 -2,-1.651 -2.59,-2.07 -3.241,-2.481 -3.955,-2.884 -4.668,-3.287 -5.42,-3.651 -6.211,-3.978 -7.001,-4.303 -7.8,-4.59 -8.606,-4.838 l 0.79,3.024 c 0.403,0.124 0.806,0.279 1.21,0.465 0.402,0.186 0.806,0.372 1.21,0.559 0.402,0.216 0.806,0.434 1.209,0.65 0.403,0.217 0.806,0.435 1.209,0.652 0.807,0.466 1.543,0.954 2.21,1.466 0.667,0.511 1.248,1.046 1.745,1.605 L 4.28,3.676 -4.513,-29.309 h -3.303 l 4.885,18.33 z"/>
              </g>
              <g transform="translate(1107.9701,1200.0524)" id="g1837">
                <path inkscape:connector-curvature="0" id="path1839" style="fill:#0038a1;fill-opacity:1;fill-rule:nonzero;stroke:none" d="m 0,0 c 0.015,0.14 0.039,0.302 0.07,0.488 0,0.093 0.007,0.186 0.023,0.28 0.015,0.092 0.023,0.185 0.023,0.279 0.031,0.061 0.047,0.14 0.047,0.232 v 0.28 C 0.131,2.271 0.007,2.946 -0.209,3.582 -0.427,4.217 -0.737,4.83 -1.14,5.42 -1.543,6.009 -2.07,6.45 -2.722,6.745 -3.373,7.04 -4.148,7.187 -5.048,7.187 c -1.179,0 -2.264,-0.17 -3.256,-0.511 -0.993,-0.342 -1.892,-0.838 -2.698,-1.489 -0.808,-0.682 -1.482,-1.465 -2.024,-2.349 -0.543,-0.884 -0.97,-1.869 -1.28,-2.954 -0.31,-1.18 -0.465,-2.234 -0.465,-3.164 0,-0.931 0.155,-1.752 0.465,-2.466 0.341,-0.683 0.884,-1.194 1.629,-1.535 0.744,-0.342 1.721,-0.512 2.93,-0.512 0.993,0 1.978,0.155 2.955,0.466 0.977,0.309 1.946,0.774 2.907,1.395 0.931,0.62 1.714,1.388 2.35,2.303 0.635,0.914 1.108,1.961 1.419,3.141 v 0.092 C -0.055,-0.272 -0.016,-0.14 0,0 m -3.024,-8.072 c -0.605,-0.496 -1.233,-0.915 -1.884,-1.256 -0.652,-0.311 -1.296,-0.574 -1.931,-0.791 -0.636,-0.217 -1.264,-0.372 -1.884,-0.465 -0.155,-0.031 -0.31,-0.062 -0.465,-0.093 -0.156,-0.031 -0.311,-0.047 -0.465,-0.047 h -0.442 -0.442 c -1.675,0 -3.071,0.248 -4.187,0.745 -1.117,0.496 -1.985,1.255 -2.606,2.28 -0.62,0.992 -1,2.085 -1.139,3.279 -0.14,1.193 -0.024,2.473 0.348,3.838 v 0.094 c 0,0.03 0.016,0.061 0.047,0.092 v 0.07 0.07 l 0.093,0.093 c 0,0.03 0.015,0.061 0.046,0.093 v 0.093 c 0,0.031 0.008,0.054 0.024,0.07 0.015,0.015 0.023,0.038 0.023,0.069 v 0.094 c 0.496,1.457 1.186,2.783 2.071,3.977 0.883,1.194 1.961,2.241 3.233,3.14 1.271,0.899 2.574,1.582 3.908,2.048 1.333,0.465 2.698,0.697 4.093,0.697 1.769,0 3.234,-0.24 4.397,-0.721 C 0.977,8.916 1.806,8.18 2.303,7.187 2.83,6.226 3.21,5.21 3.442,4.141 3.675,3.07 3.76,1.945 3.699,0.768 3.667,0.146 3.605,-0.466 3.512,-1.07 3.419,-1.675 3.311,-2.272 3.187,-2.861 3.063,-3.451 2.946,-4.009 2.838,-4.536 2.729,-5.063 2.612,-5.544 2.489,-5.979 2.458,-6.103 2.426,-6.219 2.396,-6.327 2.365,-6.437 2.333,-6.537 2.303,-6.63 2.303,-6.661 2.295,-6.707 2.28,-6.77 2.264,-6.832 2.24,-6.878 2.21,-6.909 2.179,-6.972 2.155,-7.025 2.14,-7.071 2.124,-7.118 2.117,-7.173 2.117,-7.234 c -0.683,-2.637 -1.552,-5.001 -2.605,-7.095 -1.055,-2.094 -2.311,-3.9 -3.769,-5.42 -1.427,-1.52 -2.939,-2.645 -4.535,-3.373 -1.599,-0.729 -3.265,-1.093 -5.002,-1.093 -1.83,0 -3.35,0.194 -4.559,0.581 -1.209,0.388 -2.109,1 -2.698,1.838 -0.558,0.806 -0.892,1.736 -1.001,2.791 -0.109,1.055 0.008,2.218 0.349,3.489 l 3.304,0.093 c -0.28,-1.055 -0.35,-1.931 -0.21,-2.628 0.14,-0.698 0.473,-1.264 1,-1.698 0.527,-0.403 1.187,-0.714 1.978,-0.931 0.79,-0.216 1.697,-0.325 2.721,-0.325 1.085,0 2.155,0.279 3.21,0.837 1.054,0.559 2.109,1.397 3.163,2.513 1.024,1.116 1.978,2.62 2.862,4.512 0.883,1.892 1.667,4.156 2.349,6.792 l 0.047,0.093 c -0.559,-0.714 -1.14,-1.318 -1.745,-1.814"/>
              </g>
              <g transform="translate(1134.4647,1203.4948)" id="g1841">
                <path inkscape:connector-curvature="0" id="path1843" style="fill:#0038a1;fill-opacity:1;fill-rule:nonzero;stroke:none" d="m 0,0 c -0.125,0.698 -0.419,1.295 -0.884,1.791 -0.496,0.465 -1.032,0.853 -1.605,1.163 -0.574,0.31 -1.186,0.527 -1.838,0.651 -0.124,0.031 -0.256,0.054 -0.395,0.07 -0.14,0.015 -0.287,0.023 -0.442,0.023 H -5.35 c -0.063,0 -0.125,0.016 -0.186,0.047 H -5.723 -5.909 -6.118 -6.327 C -6.39,3.714 -6.459,3.698 -6.537,3.698 H -6.746 C -6.809,3.698 -6.87,3.69 -6.932,3.675 -6.995,3.659 -7.056,3.652 -7.118,3.652 -7.211,3.621 -7.289,3.605 -7.351,3.605 H -7.537 C -8.313,3.481 -9.065,3.264 -9.793,2.954 c -0.729,-0.31 -1.45,-0.714 -2.164,-1.21 -0.744,-0.496 -1.349,-1.093 -1.814,-1.791 -0.465,-0.697 -0.822,-1.496 -1.07,-2.395 -0.248,-0.931 -0.318,-1.753 -0.209,-2.466 0.108,-0.714 0.41,-1.334 0.907,-1.861 0.496,-0.497 1.163,-0.877 2,-1.14 0.838,-0.264 1.846,-0.396 3.024,-0.396 1.179,0 2.264,0.14 3.257,0.419 0.992,0.28 1.876,0.699 2.652,1.256 0.774,0.559 1.418,1.187 1.93,1.885 0.512,0.697 0.876,1.465 1.093,2.303 V -2.35 C 0.062,-1.481 0.124,-0.698 0,0 m -3.978,-17.958 c 0.016,0.077 0.023,0.147 0.023,0.21 0,0.093 0.008,0.178 0.024,0.256 0.015,0.077 0.038,0.163 0.07,0.256 v 0.256 c 0,0.077 0.015,0.163 0.046,0.255 v 0.233 0.279 c -0.031,0.62 -0.156,1.217 -0.372,1.791 -0.218,0.573 -0.543,1.109 -0.977,1.606 -0.435,0.526 -1.047,0.921 -1.838,1.185 -0.79,0.264 -1.76,0.396 -2.908,0.396 -1.147,0 -2.186,-0.132 -3.116,-0.396 -0.931,-0.264 -1.753,-0.659 -2.466,-1.185 -0.714,-0.497 -1.334,-1.033 -1.861,-1.606 -0.528,-0.574 -0.961,-1.171 -1.303,-1.791 -0.093,-0.186 -0.178,-0.365 -0.256,-0.535 -0.077,-0.171 -0.147,-0.334 -0.209,-0.488 -0.093,-0.187 -0.163,-0.358 -0.209,-0.512 -0.046,-0.155 -0.086,-0.311 -0.116,-0.466 -0.249,-0.93 -0.311,-1.783 -0.186,-2.558 0.123,-0.776 0.449,-1.489 0.976,-2.14 0.528,-0.651 1.217,-1.133 2.071,-1.442 0.852,-0.311 1.868,-0.465 3.047,-0.465 0.992,0 1.938,0.131 2.838,0.395 0.899,0.263 1.767,0.658 2.605,1.186 0.806,0.527 1.512,1.078 2.116,1.652 0.605,0.573 1.078,1.186 1.419,1.837 0,0.062 0.008,0.108 0.024,0.14 0.015,0.031 0.038,0.077 0.07,0.139 0.03,0.031 0.053,0.071 0.07,0.116 0.015,0.047 0.038,0.085 0.069,0.117 0,0.062 0.008,0.116 0.023,0.163 0.016,0.047 0.039,0.085 0.07,0.116 0.031,0.062 0.054,0.116 0.07,0.163 0.016,0.047 0.023,0.085 0.023,0.116 0,0.031 0.016,0.062 0.047,0.093 v 0.07 c 0,0.015 0.015,0.038 0.046,0.07 -0.031,0 -0.046,0.008 -0.046,0.023 v 0.07 c 0,0.031 0.015,0.062 0.046,0.093 v 0.046 0.094 c 0.031,0.03 0.054,0.085 0.07,0.162 m -12.328,9.049 c -0.605,0.403 -1.11,0.915 -1.512,1.535 -0.372,0.62 -0.59,1.342 -0.652,2.163 -0.062,0.822 0.047,1.745 0.326,2.769 0.403,1.457 0.992,2.736 1.768,3.838 0.775,1.1 1.768,2.023 2.978,2.768 1.178,0.713 2.449,1.256 3.814,1.628 1.365,0.372 2.822,0.559 4.374,0.559 1.55,0 2.922,-0.187 4.117,-0.559 C 0.1,5.42 1.1,4.877 1.907,4.164 2.682,3.419 3.179,2.496 3.396,1.396 3.612,0.294 3.52,-0.985 3.117,-2.442 2.838,-3.466 2.426,-4.389 1.884,-5.211 1.341,-6.032 0.667,-6.754 -0.14,-7.374 c -0.776,-0.62 -1.574,-1.132 -2.396,-1.535 -0.822,-0.404 -1.682,-0.697 -2.582,-0.884 0.838,-0.279 1.582,-0.659 2.233,-1.14 0.652,-0.481 1.21,-1.046 1.675,-1.698 0.465,-0.682 0.745,-1.488 0.837,-2.419 0.094,-0.93 -0.031,-1.985 -0.372,-3.164 -0.372,-1.364 -0.953,-2.613 -1.744,-3.744 -0.791,-1.133 -1.776,-2.148 -2.954,-3.048 -1.241,-0.899 -2.599,-1.566 -4.071,-2 -1.473,-0.434 -3.078,-0.651 -4.815,-0.651 -1.737,0 -3.226,0.202 -4.466,0.604 -1.241,0.403 -2.218,1.039 -2.931,1.907 -0.744,0.838 -1.202,1.838 -1.373,3.001 -0.171,1.164 -0.054,2.473 0.349,3.931 0.249,0.9 0.612,1.769 1.094,2.606 0.48,0.837 1.093,1.643 1.837,2.419 0.745,0.775 1.574,1.442 2.489,2.001 0.915,0.558 1.931,1.023 3.047,1.395 l 0.047,0.093 c -0.776,0.124 -1.466,0.387 -2.07,0.791"/>
              </g>
              <g transform="translate(1158.6322,1200.2379)" id="g1845">
                <path inkscape:connector-curvature="0" id="path1847" style="fill:#0038a1;fill-opacity:1;fill-rule:nonzero;stroke:none" d="m 0,0 c 0.108,1.752 -0.023,3.063 -0.396,3.932 -0.403,0.899 -0.876,1.589 -1.418,2.07 -0.543,0.48 -1.156,0.782 -1.838,0.907 h -0.116 c -0.046,0 -0.101,0.015 -0.163,0.046 H -4.047 -4.21 -4.326 c -0.047,0 -0.101,0.016 -0.163,0.047 h -0.116 -0.164 c -1.302,0 -2.481,-0.279 -3.535,-0.838 -1.055,-0.558 -2.001,-1.38 -2.838,-2.465 -0.807,-1.086 -1.582,-2.451 -2.326,-4.095 -0.744,-1.643 -1.458,-3.566 -2.14,-5.768 -0.031,-0.093 -0.062,-0.194 -0.093,-0.302 -0.031,-0.109 -0.063,-0.21 -0.093,-0.303 -0.031,-0.124 -0.062,-0.241 -0.093,-0.348 -0.031,-0.11 -0.063,-0.21 -0.093,-0.303 0,-0.062 -0.016,-0.133 -0.047,-0.209 -0.031,-0.078 -0.046,-0.148 -0.046,-0.21 -0.031,-0.124 -0.063,-0.256 -0.094,-0.395 -0.031,-0.14 -0.062,-0.272 -0.092,-0.396 -0.372,-1.581 -0.628,-3.094 -0.768,-4.535 -0.14,-1.442 -0.147,-2.815 -0.023,-4.117 0.123,-1.303 0.581,-2.28 1.372,-2.932 0.791,-0.651 1.915,-0.976 3.373,-0.976 1.271,0 2.45,0.294 3.536,0.883 1.085,0.589 2.093,1.489 3.024,2.699 0.899,1.21 1.705,2.582 2.419,4.117 0.713,1.535 1.318,3.249 1.814,5.14 0.031,0.093 0.054,0.187 0.07,0.28 0.015,0.092 0.039,0.186 0.07,0.279 0,0.062 0.007,0.116 0.023,0.163 0.016,0.046 0.038,0.1 0.07,0.162 0.03,0.031 0.053,0.077 0.07,0.14 0.015,0.061 0.023,0.124 0.023,0.186 v 0.162 0.118 c 0,0.03 0.007,0.061 0.023,0.092 0.016,0.031 0.023,0.062 0.023,0.093 0.031,0 0.047,0.016 0.047,0.047 v 0.093 l 0.047,0.093 C -0.458,-3.9 -0.109,-1.752 0,0 m -18.585,-4.954 c 0.123,0.402 0.248,0.806 0.372,1.209 0.154,0.434 0.309,0.861 0.465,1.279 0.155,0.419 0.341,0.83 0.558,1.234 0.62,1.395 1.349,2.736 2.187,4.024 0.837,1.286 1.798,2.504 2.884,3.651 1.085,1.179 2.31,2.055 3.675,2.629 1.365,0.574 2.854,0.861 4.466,0.861 1.923,0 3.458,-0.333 4.606,-1 C 1.775,8.266 2.551,7.265 2.954,5.932 3.388,4.598 3.636,3.194 3.699,1.722 3.76,0.248 3.667,-1.279 3.419,-2.86 3.357,-3.171 3.295,-3.481 3.233,-3.791 3.171,-4.102 3.109,-4.412 3.047,-4.722 3.016,-4.877 2.978,-5.032 2.931,-5.187 2.885,-5.343 2.845,-5.497 2.815,-5.652 2.784,-5.808 2.752,-5.954 2.722,-6.094 2.69,-6.233 2.644,-6.381 2.582,-6.536 1.899,-9.173 1.07,-11.561 0.093,-13.7 c -0.977,-2.141 -2.055,-4.001 -3.233,-5.583 -1.241,-1.613 -2.683,-2.808 -4.327,-3.582 -1.644,-0.776 -3.52,-1.163 -5.629,-1.163 -2.047,0 -3.652,0.387 -4.815,1.163 -1.163,0.774 -1.869,1.954 -2.117,3.535 -0.279,1.582 -0.38,3.249 -0.302,5.002 0.077,1.751 0.318,3.589 0.721,5.513 0.03,0.092 0.062,0.193 0.093,0.301 0.031,0.109 0.062,0.225 0.093,0.35 0,0.093 0.015,0.193 0.047,0.302 0.03,0.108 0.062,0.224 0.093,0.349 0.03,0.123 0.061,0.24 0.093,0.349 0.03,0.108 0.062,0.225 0.093,0.349 0.03,0.092 0.061,0.193 0.093,0.302 0.03,0.109 0.062,0.225 0.093,0.349 v 0.093 c 0.093,0.342 0.201,0.714 0.326,1.117"/>
              </g>
              <g transform="translate(1191.2201,1210.2633)" id="g1849">
                <path inkscape:connector-curvature="0" id="path1851" style="fill:#0038a1;fill-opacity:1;fill-rule:nonzero;stroke:none" d="M 0,0 -8.234,-30.751 H 8.653 L 7.909,-33.682 H -12.282 L -3.303,0 Z"/>
              </g>
              <g transform="translate(1211.4105,1180.9547)" id="g1853">
                <path inkscape:connector-curvature="0" id="path1855" style="fill:#0038a1;fill-opacity:1;fill-rule:nonzero;stroke:none" d="M 0,0 -1.163,-4.373 H -5.21 L -4.047,0 Z"/>
              </g>
              <g transform="translate(1238.2997,1207.3326)" id="g1857">
                <path inkscape:connector-curvature="0" id="path1859" style="fill:#0038a1;fill-opacity:1;fill-rule:nonzero;stroke:none" d="M 0,0 -12.375,-18.655 H 1.907 Z M 2.559,2.931 7.118,-30.751 H 3.489 l -1.256,9.165 h -16.469 l -5.722,-9.165 h -3.675 L -1.117,2.931 Z"/>
              </g>
              <g transform="translate(1255.0009,1180.9547)" id="g1861">
                <path inkscape:connector-curvature="0" id="path1863" style="fill:#0038a1;fill-opacity:1;fill-rule:nonzero;stroke:none" d="M 0,0 -1.163,-4.373 H -5.21 L -4.047,0 Z"/>
              </g>
              <g transform="translate(1284.0765,1188.0963)" id="g1865">
                <path inkscape:connector-curvature="0" id="path1867" style="fill:#0038a1;fill-opacity:1;fill-rule:nonzero;stroke:none" d="m 0,0 c 0,-1.722 0.294,-3.312 0.884,-4.769 0.527,-1.427 1.442,-2.497 2.744,-3.21 1.303,-0.713 2.962,-1.07 4.978,-1.07 2.016,0 3.846,0.325 5.49,0.977 1.644,0.651 3.133,1.643 4.466,2.977 1.271,1.333 2.38,2.862 3.327,4.583 0.945,1.721 1.697,3.636 2.256,5.745 0.527,2.016 0.783,3.9 0.768,5.653 -0.017,1.752 -0.319,3.373 -0.908,4.861 -0.589,1.489 -1.512,2.613 -2.768,3.373 -1.256,0.76 -2.845,1.14 -4.768,1.14 -1.614,0 -3.164,-0.302 -4.653,-0.907 C 10.328,18.748 8.916,17.841 7.583,16.631 6.249,15.422 5.109,14.166 4.164,12.863 3.217,11.561 2.434,10.18 1.814,8.723 1.783,8.63 1.745,8.536 1.698,8.443 1.651,8.351 1.612,8.257 1.582,8.164 1.55,8.04 1.519,7.932 1.489,7.839 1.458,7.745 1.426,7.652 1.396,7.56 1.302,7.373 1.233,7.187 1.186,7.001 1.14,6.815 1.085,6.629 1.023,6.443 1.023,6.412 1.015,6.381 1,6.35 0.984,6.318 0.977,6.287 0.977,6.257 0.977,6.194 0.969,6.147 0.954,6.117 0.937,6.086 0.93,6.055 0.93,6.024 0.899,5.962 0.876,5.892 0.86,5.814 0.845,5.737 0.821,5.667 0.791,5.605 L 0.837,5.698 C 0.279,3.62 0,1.721 0,0 m 0.256,12.468 c 1.163,2.061 2.566,3.946 4.21,5.652 1.675,1.675 3.582,2.939 5.722,3.791 2.14,0.854 4.497,1.279 7.072,1.279 2.294,0 4.217,-0.403 5.768,-1.209 1.551,-0.806 2.761,-2.001 3.629,-3.582 0.838,-1.582 1.396,-3.25 1.675,-5.001 0.279,-1.752 0.294,-3.59 0.046,-5.513 C 28.347,7.761 28.324,7.645 28.309,7.536 28.292,7.427 28.27,7.327 28.239,7.233 28.208,7.109 28.184,6.993 28.169,6.885 28.153,6.775 28.146,6.659 28.146,6.536 28.114,6.412 28.083,6.295 28.053,6.187 28.021,6.078 28.006,5.978 28.006,5.885 27.975,5.761 27.944,5.645 27.913,5.536 27.882,5.427 27.851,5.326 27.82,5.233 27.789,5.141 27.766,5.047 27.75,4.954 27.734,4.861 27.711,4.769 27.681,4.675 27.649,4.582 27.626,4.496 27.611,4.419 27.595,4.342 27.571,4.271 27.541,4.21 26.92,2.163 26.036,0.216 24.889,-1.629 c -1.148,-1.846 -2.558,-3.605 -4.233,-5.28 -1.645,-1.675 -3.536,-2.924 -5.676,-3.745 -2.14,-0.823 -4.529,-1.233 -7.165,-1.233 -2.729,0 -4.947,0.41 -6.652,1.233 -1.706,0.821 -2.869,2.07 -3.489,3.745 -0.621,1.675 -0.947,3.559 -0.977,5.652 -0.031,2.094 0.232,4.381 0.791,6.862 l 0.046,0.093 c 0.652,2.45 1.559,4.706 2.722,6.77"/>
              </g>
              <g transform="translate(1328.5507,1210.2633)" id="g1869">
                <path inkscape:connector-curvature="0" id="path1871" style="fill:#0038a1;fill-opacity:1;fill-rule:nonzero;stroke:none" d="M 0,0 -8.979,-33.682 H -11.91 L -2.931,0 Z"/>
              </g>
              <g transform="translate(1333.1556,1200.0289)" id="g1873">
                <path inkscape:connector-curvature="0" id="path1875" style="fill:#0038a1;fill-opacity:1;fill-rule:nonzero;stroke:none" d="M 0,0 2.931,-19.074 15.725,0 h 3.303 L -2.791,-32.24 H -6.094 L 0.047,-23.075 -3.675,0 Z"/>
              </g>
              <g transform="translate(1358.1141,1196.8649)" id="g1877">
                <path inkscape:connector-curvature="0" id="path1879" style="fill:#0038a1;fill-opacity:1;fill-rule:nonzero;stroke:none" d="M 0,0 C 0.077,0.062 0.163,0.124 0.256,0.187 0.318,0.248 0.388,0.318 0.465,0.396 0.542,0.473 0.628,0.559 0.721,0.651 1.187,1.024 1.69,1.396 2.233,1.769 2.775,2.141 3.357,2.481 3.978,2.792 4.598,3.133 5.257,3.389 5.955,3.56 6.653,3.729 7.389,3.815 8.165,3.815 8.413,3.815 8.661,3.808 8.909,3.792 9.157,3.776 9.436,3.753 9.747,3.723 9.901,3.691 10.049,3.66 10.188,3.629 10.328,3.598 10.475,3.566 10.63,3.536 10.754,3.505 10.894,3.467 11.049,3.42 11.204,3.373 11.343,3.318 11.468,3.257 11.809,3.102 12.149,2.893 12.491,2.629 12.832,2.365 13.143,2.063 13.422,1.722 13.669,1.35 13.879,0.907 14.05,0.396 c 0.17,-0.512 0.317,-1.093 0.442,-1.745 0.434,0.559 0.891,1.071 1.372,1.536 0.481,0.464 0.984,0.883 1.512,1.255 0.527,0.372 1.054,0.699 1.582,0.978 0.527,0.279 1.054,0.526 1.582,0.744 0.309,0.093 0.612,0.186 0.907,0.279 0.294,0.093 0.581,0.155 0.861,0.186 0.309,0.062 0.604,0.108 0.883,0.14 0.28,0.03 0.527,0.046 0.745,0.046 1.457,0 2.667,-0.202 3.628,-0.604 0.961,-0.404 1.675,-1.009 2.141,-1.815 0.434,-0.776 0.697,-1.644 0.79,-2.605 0.093,-0.962 -0.016,-1.985 -0.325,-3.07 l -4.28,-16.004 h -2.931 l 4.094,15.398 c 0.03,0.063 0.053,0.14 0.07,0.234 0.015,0.092 0.023,0.185 0.023,0.278 0,0.062 0.007,0.117 0.023,0.163 0.015,0.047 0.023,0.101 0.023,0.163 0.031,0.154 0.054,0.31 0.07,0.465 0.015,0.155 0.023,0.326 0.023,0.512 0,0.527 -0.085,1.039 -0.256,1.535 -0.171,0.496 -0.426,0.977 -0.767,1.442 -0.342,0.435 -0.83,0.768 -1.466,1 -0.636,0.234 -1.403,0.35 -2.302,0.35 -0.186,0 -0.372,-0.008 -0.559,-0.024 C 21.749,1.218 21.547,1.179 21.331,1.117 21.113,1.086 20.904,1.039 20.703,0.978 20.5,0.915 20.291,0.838 20.074,0.745 19.454,0.527 18.841,0.21 18.237,-0.209 17.632,-0.628 17.035,-1.132 16.446,-1.721 15.825,-2.311 15.298,-3 14.864,-3.791 14.429,-4.582 14.073,-5.474 13.794,-6.466 L 10.119,-20.283 H 7.187 l 4.095,15.398 c 0.217,0.745 0.279,1.466 0.186,2.164 -0.093,0.698 -0.311,1.372 -0.652,2.024 C 10.413,-0.046 9.893,0.442 9.258,0.769 8.622,1.094 7.854,1.257 6.955,1.257 H 6.839 6.676 6.56 6.397 C 5.435,1.163 4.543,0.915 3.722,0.513 2.9,0.108 2.132,-0.449 1.419,-1.162 0.705,-1.876 0.093,-2.621 -0.418,-3.396 c -0.512,-0.775 -0.939,-1.582 -1.28,-2.418 0,-0.032 -0.008,-0.071 -0.023,-0.117 -0.016,-0.047 -0.04,-0.101 -0.07,-0.163 -0.031,-0.031 -0.055,-0.07 -0.07,-0.116 -0.016,-0.047 -0.023,-0.102 -0.023,-0.163 -0.032,-0.093 -0.054,-0.179 -0.07,-0.256 -0.016,-0.078 -0.039,-0.147 -0.069,-0.209 l -3.583,-13.445 h -2.931 l 4.792,17.958 c 0.031,0.03 0.054,0.085 0.07,0.162 0.015,0.077 0.023,0.147 0.023,0.21 0.03,0.061 0.054,0.131 0.07,0.209 0.015,0.077 0.039,0.163 0.07,0.256 0.061,0.217 0.116,0.449 0.162,0.698 0.047,0.247 0.101,0.526 0.163,0.837 0.062,0.309 0.132,0.722 0.209,1.233 0.078,0.512 0.179,1.109 0.303,1.791 L 0.302,3.164 C 0.271,2.668 0.225,2.226 0.163,1.838 0.101,1.45 0.039,1.086 -0.023,0.745 -0.116,0.435 -0.194,0.108 -0.256,-0.232 l 0.047,0.093 C -0.147,-0.108 -0.078,-0.062 0,0"/>
              </g>
              <g transform="translate(1396.1224,1187.5846)" id="g1881">
                <path inkscape:connector-curvature="0" id="path1883" style="fill:#0038a1;fill-opacity:1;fill-rule:nonzero;stroke:none" d="m 0,0 c -0.046,-0.233 -0.101,-0.458 -0.163,-0.675 0,-0.124 -0.008,-0.241 -0.023,-0.348 -0.016,-0.11 -0.023,-0.21 -0.023,-0.303 -0.032,-0.124 -0.055,-0.241 -0.07,-0.349 -0.016,-0.109 -0.023,-0.225 -0.023,-0.349 -0.031,-0.869 0.046,-1.699 0.232,-2.489 0.186,-0.791 0.481,-1.544 0.884,-2.257 0.403,-0.713 0.977,-1.249 1.722,-1.604 0.744,-0.357 1.658,-0.535 2.744,-0.535 1.21,0 2.303,0.224 3.28,0.675 0.977,0.449 1.838,1.123 2.582,2.023 0.744,0.899 1.396,1.845 1.954,2.838 0.558,0.992 1.039,2.03 1.442,3.117 0,0.062 0.007,0.123 0.024,0.186 0.015,0.061 0.038,0.139 0.069,0.232 0.031,0.063 0.054,0.124 0.07,0.187 0.015,0.061 0.023,0.123 0.023,0.185 0.062,0.155 0.117,0.303 0.163,0.443 0.047,0.139 0.085,0.271 0.116,0.395 0.031,0.062 0.054,0.132 0.07,0.209 0.015,0.077 0.024,0.148 0.024,0.21 0,0.062 0.007,0.131 0.023,0.209 0.015,0.077 0.038,0.146 0.069,0.209 0.031,0.155 0.062,0.303 0.094,0.442 0.03,0.14 0.061,0.272 0.092,0.396 0.155,0.992 0.187,1.931 0.094,2.814 -0.094,0.884 -0.28,1.729 -0.558,2.535 -0.311,0.807 -0.831,1.419 -1.559,1.838 -0.729,0.419 -1.652,0.628 -2.768,0.628 -1.365,0 -2.582,-0.216 -3.652,-0.651 C 5.862,9.776 4.923,9.11 4.117,8.211 3.342,7.342 2.667,6.42 2.094,5.442 1.519,4.466 1.047,3.435 0.675,2.349 0.675,2.317 0.659,2.271 0.628,2.209 0.597,2.146 0.582,2.101 0.582,2.069 0.55,2.038 0.535,1.992 0.535,1.931 0.504,1.837 0.473,1.751 0.442,1.675 0.411,1.597 0.396,1.526 0.396,1.465 0.364,1.341 0.326,1.209 0.279,1.069 0.232,0.93 0.193,0.782 0.163,0.628 V 0.721 C 0.101,0.472 0.046,0.232 0,0 M 3.094,12.793 V 12.444 C 3.063,12.32 3.047,12.204 3.047,12.096 v -0.35 C 2.985,11.498 2.931,11.258 2.884,11.025 2.838,10.793 2.783,10.583 2.722,10.397 2.69,10.18 2.659,9.979 2.628,9.793 c 0.062,0.061 0.14,0.131 0.233,0.209 0.093,0.077 0.186,0.163 0.279,0.256 0.093,0.061 0.186,0.132 0.279,0.209 0.094,0.077 0.186,0.163 0.28,0.256 0.186,0.155 0.379,0.295 0.581,0.419 0.201,0.124 0.395,0.248 0.582,0.372 0.372,0.248 0.751,0.457 1.139,0.628 0.388,0.17 0.783,0.318 1.186,0.442 0.559,0.154 1.21,0.279 1.955,0.372 0.744,0.093 1.55,0.14 2.419,0.14 1.643,0 2.993,-0.264 4.047,-0.791 1.054,-0.528 1.83,-1.319 2.327,-2.373 0.464,-1.055 0.72,-2.241 0.767,-3.559 C 18.749,5.055 18.554,3.62 18.121,2.069 17.624,0.146 16.973,-1.629 16.167,-3.257 15.36,-4.886 14.429,-6.382 13.375,-7.746 12.289,-9.08 11.033,-10.08 9.607,-10.747 c -1.427,-0.667 -3.009,-1 -4.745,-1 -0.931,0 -1.761,0.101 -2.489,0.302 -0.729,0.202 -1.373,0.489 -1.931,0.861 -0.528,0.434 -1,0.907 -1.419,1.419 -0.419,0.512 -0.768,1.093 -1.046,1.744 l -3.304,-12.375 h -2.931 l 7.165,26.751 c 0.031,0.062 0.053,0.147 0.07,0.256 0.015,0.107 0.038,0.209 0.069,0.302 0.062,0.186 0.117,0.364 0.163,0.535 0.047,0.17 0.085,0.333 0.117,0.488 0.03,0.124 0.061,0.248 0.092,0.372 0.031,0.124 0.062,0.248 0.094,0.372 0.03,0.094 0.061,0.202 0.092,0.326 0.031,0.123 0.063,0.248 0.094,0.373 0.03,0.248 0.07,0.488 0.116,0.72 0.046,0.234 0.085,0.458 0.116,0.675 0.031,0.155 0.062,0.326 0.093,0.512 0.031,0.186 0.062,0.372 0.093,0.558 0,0.123 0.016,0.241 0.047,0.349 0.03,0.108 0.046,0.21 0.046,0.303 L 3.14,13.188 C 3.109,13.033 3.094,12.901 3.094,12.793"/>
              </g>
              <g transform="translate(1428.8969,1210.2633)" id="g1885">
                <path inkscape:connector-curvature="0" id="path1887" style="fill:#0038a1;fill-opacity:1;fill-rule:nonzero;stroke:none" d="M 0,0 -0.93,-3.628 H -4.605 L -3.675,0 Z m -3.07,-10.234 -6.281,-23.448 h -2.931 l 6.281,23.448 z"/>
              </g>
              <g transform="translate(1445.9701,1194.8414)" id="g1889">
                <path inkscape:connector-curvature="0" id="path1891" style="fill:#0038a1;fill-opacity:1;fill-rule:nonzero;stroke:none" d="M 0,0 C -0.093,0.667 -0.326,1.248 -0.698,1.745 -1.07,2.271 -1.582,2.659 -2.233,2.908 -2.884,3.155 -3.66,3.28 -4.559,3.28 -5.614,3.28 -6.599,3.102 -7.513,2.745 -8.429,2.388 -9.258,1.854 -10.002,1.14 c -0.776,-0.683 -1.451,-1.419 -2.024,-2.209 -0.574,-0.791 -1.047,-1.606 -1.419,-2.444 -0.124,-0.216 -0.241,-0.441 -0.349,-0.674 -0.109,-0.232 -0.194,-0.473 -0.256,-0.721 -0.093,-0.217 -0.171,-0.442 -0.232,-0.674 -0.063,-0.233 -0.125,-0.458 -0.186,-0.675 -0.032,-0.093 -0.063,-0.186 -0.094,-0.279 -0.031,-0.093 -0.046,-0.187 -0.046,-0.279 -0.031,-0.124 -0.062,-0.233 -0.093,-0.326 -0.031,-0.093 -0.063,-0.186 -0.093,-0.279 -0.031,-0.218 -0.07,-0.427 -0.116,-0.628 -0.047,-0.202 -0.07,-0.395 -0.07,-0.582 -0.156,-0.962 -0.202,-1.877 -0.14,-2.744 0.062,-0.869 0.248,-1.706 0.558,-2.513 0.31,-0.806 0.845,-1.434 1.605,-1.884 0.76,-0.45 1.791,-0.706 3.094,-0.767 0.714,0 1.443,0.131 2.187,0.395 0.744,0.263 1.489,0.659 2.233,1.186 0.744,0.527 1.372,1.147 1.884,1.861 0.512,0.713 0.876,1.52 1.093,2.419 l 3.35,0.093 c -0.466,-1.427 -1.055,-2.659 -1.768,-3.698 -0.714,-1.039 -1.566,-1.915 -2.559,-2.628 -0.961,-0.683 -2.047,-1.203 -3.256,-1.559 -1.21,-0.356 -2.497,-0.535 -3.862,-0.535 -1.365,0 -2.582,0.24 -3.651,0.721 -1.071,0.48 -1.994,1.202 -2.768,2.163 -0.776,0.992 -1.195,2.31 -1.257,3.955 -0.062,1.644 0.217,3.612 0.838,5.908 0.434,1.551 0.961,2.931 1.582,4.141 0.619,1.209 1.364,2.248 2.233,3.116 0.837,0.868 1.682,1.612 2.535,2.233 0.853,0.621 1.713,1.117 2.582,1.49 0.155,0.061 0.302,0.123 0.442,0.185 0.139,0.062 0.271,0.109 0.395,0.14 0.279,0.124 0.566,0.224 0.861,0.303 0.294,0.077 0.565,0.146 0.814,0.209 0.403,0.092 0.783,0.163 1.14,0.209 0.356,0.046 0.674,0.07 0.954,0.07 h 0.069 0.07 0.093 0.093 0.14 c 0.03,0 0.062,0.015 0.093,0.046 h 0.047 c 1.116,0 2.108,-0.194 2.977,-0.581 C 0.589,4.916 1.349,4.35 2,3.605 2.621,2.83 3.039,2.023 3.256,1.187 3.473,0.349 3.504,-0.52 3.35,-1.419 3.318,-1.45 3.303,-1.481 3.303,-1.512 V -1.604 C 3.272,-1.636 3.256,-1.667 3.256,-1.698 V -1.791 C 3.256,-1.822 3.249,-1.846 3.233,-1.86 3.217,-1.877 3.21,-1.9 3.21,-1.931 3.21,-1.962 3.202,-1.985 3.187,-2 3.171,-2.017 3.164,-2.039 3.164,-2.07 3.132,-2.102 3.117,-2.133 3.117,-2.163 v -0.093 l -3.303,0.093 C 0.03,-1.389 0.093,-0.667 0,0"/>
              </g>
              <g transform="translate(1494.0726,1204.774)" id="g1893">
                <path inkscape:connector-curvature="0" id="path1895" style="fill:#0038a1;fill-opacity:1;fill-rule:nonzero;stroke:none" d="m 0,0 c -0.217,0.682 -0.589,1.303 -1.116,1.861 -0.559,0.558 -1.273,0.984 -2.14,1.28 -0.869,0.294 -1.892,0.441 -3.071,0.441 -1.954,-0.093 -3.73,-0.519 -5.327,-1.279 -1.597,-0.76 -3.032,-1.869 -4.303,-3.326 -1.241,-1.427 -2.303,-2.978 -3.187,-4.653 -0.884,-1.675 -1.589,-3.473 -2.117,-5.396 -0.062,-0.249 -0.124,-0.505 -0.186,-0.768 -0.062,-0.264 -0.109,-0.519 -0.139,-0.767 -0.063,-0.249 -0.109,-0.505 -0.14,-0.768 -0.031,-0.264 -0.062,-0.52 -0.093,-0.768 -0.217,-1.426 -0.241,-2.807 -0.07,-4.14 0.17,-1.334 0.504,-2.606 1.001,-3.815 0.527,-1.21 1.349,-2.117 2.465,-2.721 1.117,-0.605 2.528,-0.908 4.234,-0.908 1.271,0 2.419,0.117 3.442,0.349 1.024,0.232 1.908,0.582 2.652,1.047 0.744,0.465 1.442,1.07 2.094,1.814 0.651,0.745 1.256,1.628 1.814,2.652 l 3.675,0.094 c -0.62,-1.334 -1.372,-2.529 -2.256,-3.583 -0.884,-1.055 -1.884,-1.985 -3.001,-2.792 -1.148,-0.836 -2.489,-1.45 -4.024,-1.837 -1.535,-0.387 -3.265,-0.581 -5.187,-0.581 -2.543,0 -4.622,0.449 -6.234,1.348 -1.613,0.9 -2.761,2.249 -3.443,4.048 -0.682,1.83 -1.047,3.752 -1.093,5.769 -0.046,2.015 0.225,4.125 0.814,6.327 0.62,2.202 1.473,4.295 2.559,6.28 1.085,1.984 2.419,3.877 4.001,5.676 1.612,1.767 3.489,3.124 5.629,4.071 2.14,0.945 4.543,1.465 7.211,1.558 h 0.209 0.21 c 0.093,-0.032 0.178,-0.046 0.256,-0.046 h 0.256 0.255 0.256 C -4.032,6.436 -3.962,6.42 -3.885,6.42 h 0.257 C -2.512,6.296 -1.473,6.048 -0.512,5.676 0.449,5.304 1.333,4.807 2.14,4.187 2.946,3.536 3.489,2.675 3.769,1.605 4.047,0.535 4.063,-0.761 3.815,-2.279 L 0.14,-2.187 C 0.263,-1.411 0.217,-0.683 0,0"/>
              </g>
              <g transform="translate(1501.1205,1184.7233)" id="g1897">
                <path inkscape:connector-curvature="0" id="path1899" style="fill:#0038a1;fill-opacity:1;fill-rule:nonzero;stroke:none" d="m 0,0 c 0.077,-1.21 0.318,-2.326 0.721,-3.35 0.434,-1.023 1.062,-1.791 1.884,-2.302 0.822,-0.512 1.838,-0.768 3.047,-0.768 1.179,0 2.304,0.263 3.373,0.79 1.07,0.527 2.086,1.318 3.048,2.373 0.961,1.054 1.767,2.163 2.419,3.326 0.651,1.163 1.163,2.38 1.535,3.653 v 0.047 l 0.047,0.045 v 0.047 c 0.341,1.241 0.488,2.426 0.442,3.559 -0.047,1.132 -0.287,2.21 -0.722,3.233 -0.403,1.024 -0.993,1.791 -1.768,2.303 -0.775,0.512 -1.721,0.768 -2.838,0.768 h -0.069 -0.07 -0.093 -0.14 -0.069 -0.07 C 9.436,13.631 8.281,13.328 7.211,12.816 6.141,12.305 5.125,11.567 4.164,10.606 3.202,9.646 2.403,8.599 1.768,7.467 1.132,6.334 0.644,5.133 0.302,3.861 V 3.954 C 0.023,2.527 -0.078,1.209 0,0 m -0.628,8.699 c 0.868,1.458 1.938,2.792 3.21,4.001 1.272,1.21 2.644,2.117 4.117,2.722 1.473,0.604 3.031,0.907 4.676,0.907 1.643,0 3.047,-0.287 4.21,-0.86 1.163,-0.574 2.101,-1.45 2.814,-2.629 0.683,-1.148 1.078,-2.474 1.187,-3.978 C 19.694,7.357 19.5,5.69 19.004,3.861 18.508,2.031 17.802,0.349 16.888,-1.187 15.973,-2.722 14.864,-4.094 13.562,-5.304 12.228,-6.514 10.847,-7.413 9.421,-8.002 7.994,-8.591 6.505,-8.886 4.955,-8.886 c -1.552,0 -2.901,0.295 -4.048,0.884 -1.148,0.589 -2.093,1.488 -2.838,2.698 -0.744,1.21 -1.171,2.582 -1.279,4.117 -0.109,1.536 0.085,3.218 0.582,5.048 v 0.093 c 0.465,1.705 1.131,3.287 2,4.745"/>
              </g>
              <g transform="translate(1531.639,1196.8649)" id="g1901">
                <path inkscape:connector-curvature="0" id="path1903" style="fill:#0038a1;fill-opacity:1;fill-rule:nonzero;stroke:none" d="M 0,0 C 0.077,0.062 0.163,0.124 0.256,0.187 0.318,0.248 0.388,0.318 0.465,0.396 0.542,0.473 0.628,0.559 0.721,0.651 1.187,1.024 1.69,1.396 2.233,1.769 2.775,2.141 3.357,2.481 3.978,2.792 4.598,3.133 5.257,3.389 5.955,3.56 6.653,3.729 7.389,3.815 8.165,3.815 8.413,3.815 8.661,3.808 8.909,3.792 9.157,3.776 9.436,3.753 9.747,3.723 9.901,3.691 10.049,3.66 10.188,3.629 10.328,3.598 10.475,3.566 10.63,3.536 10.754,3.505 10.894,3.467 11.049,3.42 11.204,3.373 11.343,3.318 11.468,3.257 11.809,3.102 12.149,2.893 12.491,2.629 12.832,2.365 13.143,2.063 13.422,1.722 13.669,1.35 13.879,0.907 14.05,0.396 c 0.17,-0.512 0.317,-1.093 0.442,-1.745 0.434,0.559 0.891,1.071 1.372,1.536 0.481,0.464 0.984,0.883 1.512,1.255 0.527,0.372 1.054,0.699 1.582,0.978 0.527,0.279 1.054,0.526 1.582,0.744 0.309,0.093 0.612,0.186 0.907,0.279 0.294,0.093 0.581,0.155 0.861,0.186 0.309,0.062 0.604,0.108 0.883,0.14 0.28,0.03 0.527,0.046 0.745,0.046 1.457,0 2.667,-0.202 3.628,-0.604 0.961,-0.404 1.675,-1.009 2.141,-1.815 0.434,-0.776 0.697,-1.644 0.79,-2.605 0.093,-0.962 -0.016,-1.985 -0.325,-3.07 l -4.28,-16.004 h -2.931 l 4.094,15.398 c 0.03,0.063 0.053,0.14 0.07,0.234 0.015,0.092 0.023,0.185 0.023,0.278 0,0.062 0.007,0.117 0.023,0.163 0.015,0.047 0.023,0.101 0.023,0.163 0.031,0.154 0.054,0.31 0.07,0.465 0.015,0.155 0.023,0.326 0.023,0.512 0,0.527 -0.085,1.039 -0.256,1.535 -0.171,0.496 -0.426,0.977 -0.767,1.442 -0.342,0.435 -0.83,0.768 -1.466,1 -0.636,0.234 -1.403,0.35 -2.302,0.35 -0.186,0 -0.372,-0.008 -0.559,-0.024 C 21.749,1.218 21.547,1.179 21.331,1.117 21.113,1.086 20.904,1.039 20.703,0.978 20.5,0.915 20.291,0.838 20.074,0.745 19.454,0.527 18.841,0.21 18.237,-0.209 17.632,-0.628 17.035,-1.132 16.446,-1.721 15.825,-2.311 15.298,-3 14.864,-3.791 14.429,-4.582 14.073,-5.474 13.794,-6.466 L 10.119,-20.283 H 7.187 l 4.095,15.398 c 0.217,0.745 0.279,1.466 0.186,2.164 -0.093,0.698 -0.311,1.372 -0.652,2.024 C 10.413,-0.046 9.893,0.442 9.258,0.769 8.622,1.094 7.854,1.257 6.955,1.257 H 6.839 6.676 6.56 6.397 C 5.435,1.163 4.543,0.915 3.722,0.513 2.9,0.108 2.132,-0.449 1.419,-1.162 0.705,-1.876 0.093,-2.621 -0.418,-3.396 c -0.512,-0.775 -0.939,-1.582 -1.28,-2.418 0,-0.032 -0.008,-0.071 -0.023,-0.117 -0.016,-0.047 -0.04,-0.101 -0.07,-0.163 -0.031,-0.031 -0.055,-0.07 -0.07,-0.116 -0.016,-0.047 -0.023,-0.102 -0.023,-0.163 -0.032,-0.093 -0.054,-0.179 -0.07,-0.256 -0.016,-0.078 -0.039,-0.147 -0.069,-0.209 l -3.583,-13.445 h -2.931 l 4.792,17.958 c 0.031,0.03 0.054,0.085 0.07,0.162 0.015,0.077 0.023,0.147 0.023,0.21 0.03,0.061 0.054,0.131 0.07,0.209 0.015,0.077 0.039,0.163 0.07,0.256 0.061,0.217 0.116,0.449 0.162,0.698 0.047,0.247 0.101,0.526 0.163,0.837 0.062,0.309 0.132,0.722 0.209,1.233 0.078,0.512 0.179,1.109 0.303,1.791 L 0.302,3.164 C 0.271,2.668 0.225,2.226 0.163,1.838 0.101,1.45 0.039,1.086 -0.023,0.745 -0.116,0.435 -0.194,0.108 -0.256,-0.232 l 0.047,0.093 C -0.147,-0.108 -0.078,-0.062 0,0"/>
              </g>
              <g transform="translate(1573.369,1196.8649)" id="g1905">
                <path inkscape:connector-curvature="0" id="path1907" style="fill:#0038a1;fill-opacity:1;fill-rule:nonzero;stroke:none" d="M 0,0 C 0.077,0.062 0.163,0.124 0.256,0.187 0.318,0.248 0.388,0.318 0.465,0.396 0.542,0.473 0.628,0.559 0.721,0.651 1.187,1.024 1.69,1.396 2.233,1.769 2.775,2.141 3.357,2.481 3.978,2.792 4.598,3.133 5.257,3.389 5.955,3.56 6.653,3.729 7.389,3.815 8.165,3.815 8.413,3.815 8.661,3.808 8.909,3.792 9.157,3.776 9.436,3.753 9.747,3.723 9.901,3.691 10.049,3.66 10.188,3.629 10.328,3.598 10.475,3.566 10.63,3.536 10.754,3.505 10.894,3.467 11.049,3.42 11.204,3.373 11.343,3.318 11.468,3.257 11.809,3.102 12.149,2.893 12.491,2.629 12.832,2.365 13.143,2.063 13.422,1.722 13.669,1.35 13.879,0.907 14.05,0.396 c 0.17,-0.512 0.317,-1.093 0.442,-1.745 0.434,0.559 0.891,1.071 1.372,1.536 0.481,0.464 0.984,0.883 1.512,1.255 0.527,0.372 1.054,0.699 1.582,0.978 0.527,0.279 1.054,0.526 1.582,0.744 0.309,0.093 0.612,0.186 0.907,0.279 0.294,0.093 0.581,0.155 0.861,0.186 0.309,0.062 0.604,0.108 0.883,0.14 0.28,0.03 0.527,0.046 0.745,0.046 1.457,0 2.667,-0.202 3.628,-0.604 0.961,-0.404 1.675,-1.009 2.141,-1.815 0.434,-0.776 0.697,-1.644 0.79,-2.605 0.093,-0.962 -0.016,-1.985 -0.325,-3.07 l -4.28,-16.004 h -2.931 l 4.094,15.398 c 0.03,0.063 0.053,0.14 0.07,0.234 0.015,0.092 0.023,0.185 0.023,0.278 0,0.062 0.007,0.117 0.023,0.163 0.015,0.047 0.023,0.101 0.023,0.163 0.031,0.154 0.054,0.31 0.07,0.465 0.015,0.155 0.023,0.326 0.023,0.512 0,0.527 -0.085,1.039 -0.256,1.535 -0.171,0.496 -0.426,0.977 -0.767,1.442 -0.342,0.435 -0.83,0.768 -1.466,1 -0.636,0.234 -1.403,0.35 -2.302,0.35 -0.186,0 -0.372,-0.008 -0.559,-0.024 C 21.749,1.218 21.547,1.179 21.331,1.117 21.113,1.086 20.904,1.039 20.703,0.978 20.5,0.915 20.291,0.838 20.074,0.745 19.454,0.527 18.841,0.21 18.237,-0.209 17.632,-0.628 17.035,-1.132 16.446,-1.721 15.825,-2.311 15.298,-3 14.864,-3.791 14.429,-4.582 14.073,-5.474 13.794,-6.466 L 10.119,-20.283 H 7.187 l 4.095,15.398 c 0.217,0.745 0.279,1.466 0.186,2.164 -0.093,0.698 -0.311,1.372 -0.652,2.024 C 10.413,-0.046 9.893,0.442 9.258,0.769 8.622,1.094 7.854,1.257 6.955,1.257 H 6.839 6.676 6.56 6.397 C 5.435,1.163 4.543,0.915 3.722,0.513 2.9,0.108 2.132,-0.449 1.419,-1.162 0.705,-1.876 0.093,-2.621 -0.418,-3.396 c -0.512,-0.775 -0.939,-1.582 -1.28,-2.418 0,-0.032 -0.008,-0.071 -0.023,-0.117 -0.016,-0.047 -0.04,-0.101 -0.07,-0.163 -0.031,-0.031 -0.055,-0.07 -0.07,-0.116 -0.016,-0.047 -0.023,-0.102 -0.023,-0.163 -0.032,-0.093 -0.054,-0.179 -0.07,-0.256 -0.016,-0.078 -0.039,-0.147 -0.069,-0.209 l -3.583,-13.445 h -2.931 l 4.792,17.958 c 0.031,0.03 0.054,0.085 0.07,0.162 0.015,0.077 0.023,0.147 0.023,0.21 0.03,0.061 0.054,0.131 0.07,0.209 0.015,0.077 0.039,0.163 0.07,0.256 0.061,0.217 0.116,0.449 0.162,0.698 0.047,0.247 0.101,0.526 0.163,0.837 0.062,0.309 0.132,0.722 0.209,1.233 0.078,0.512 0.179,1.109 0.303,1.791 L 0.302,3.164 C 0.271,2.668 0.225,2.226 0.163,1.838 0.101,1.45 0.039,1.086 -0.023,0.745 -0.116,0.435 -0.194,0.108 -0.256,-0.232 l 0.047,0.093 C -0.147,-0.108 -0.078,-0.062 0,0"/>
              </g>
              <g transform="translate(1619.2157,1210.2633)" id="g1909">
                <path inkscape:connector-curvature="0" id="path1911" style="fill:#0038a1;fill-opacity:1;fill-rule:nonzero;stroke:none" d="M 0,0 -0.93,-3.628 H -4.605 L -3.675,0 Z m -3.07,-10.234 -6.281,-23.448 h -2.931 l 6.281,23.448 z"/>
              </g>
              <g transform="translate(1621.2162,1200.0289)" id="g1913">
                <path inkscape:connector-curvature="0" id="path1915" style="fill:#0038a1;fill-opacity:1;fill-rule:nonzero;stroke:none" d="M 0,0 H 4.745 L 6.001,4.745 9.211,5.861 7.676,0 h 5.49 L 12.468,-2.559 H 6.979 L 2.838,-17.958 c -0.186,-0.775 -0.279,-1.411 -0.279,-1.907 0,-0.496 0.108,-0.868 0.325,-1.116 0.217,-0.249 0.504,-0.435 0.861,-0.559 0.356,-0.124 0.768,-0.186 1.233,-0.186 0.216,0 0.434,0.007 0.651,0.023 0.217,0.016 0.434,0.039 0.651,0.07 0.248,0.03 0.496,0.07 0.745,0.116 0.247,0.047 0.512,0.101 0.791,0.163 l -0.698,-2.465 c -0.31,-0.062 -0.613,-0.124 -0.908,-0.187 -0.294,-0.061 -0.597,-0.108 -0.906,-0.14 -0.28,-0.061 -0.552,-0.099 -0.815,-0.116 -0.263,-0.014 -0.519,-0.022 -0.767,-0.022 -0.93,0 -1.706,0.116 -2.326,0.348 -0.621,0.233 -1.102,0.566 -1.442,1 -0.342,0.465 -0.543,1.016 -0.605,1.652 -0.063,0.636 0.015,1.342 0.232,2.117 l 4.466,16.608 h -4.745 z"/>
              </g>
              <g transform="translate(1637.3124,1200.0289)" id="g1917">
                <path inkscape:connector-curvature="0" id="path1919" style="fill:#0038a1;fill-opacity:1;fill-rule:nonzero;stroke:none" d="M 0,0 H 4.745 L 6.001,4.745 9.211,5.861 7.676,0 h 5.49 L 12.468,-2.559 H 6.979 L 2.838,-17.958 c -0.186,-0.775 -0.279,-1.411 -0.279,-1.907 0,-0.496 0.108,-0.868 0.325,-1.116 0.217,-0.249 0.504,-0.435 0.861,-0.559 0.356,-0.124 0.768,-0.186 1.233,-0.186 0.216,0 0.434,0.007 0.651,0.023 0.217,0.016 0.434,0.039 0.651,0.07 0.248,0.03 0.496,0.07 0.745,0.116 0.247,0.047 0.512,0.101 0.791,0.163 l -0.698,-2.465 c -0.31,-0.062 -0.613,-0.124 -0.908,-0.187 -0.294,-0.061 -0.597,-0.108 -0.906,-0.14 -0.28,-0.061 -0.552,-0.099 -0.815,-0.116 -0.263,-0.014 -0.519,-0.022 -0.767,-0.022 -0.93,0 -1.706,0.116 -2.326,0.348 -0.621,0.233 -1.102,0.566 -1.442,1 -0.342,0.465 -0.543,1.016 -0.605,1.652 -0.063,0.636 0.015,1.342 0.232,2.117 l 4.466,16.608 h -4.745 z"/>
              </g>
              <g transform="translate(1670.2494,1190.4684)" id="g1921">
                <path inkscape:connector-curvature="0" id="path1923" style="fill:#0038a1;fill-opacity:1;fill-rule:nonzero;stroke:none" d="m 0,0 v 0.07 c 0,0.031 0.007,0.062 0.023,0.093 0.016,0.03 0.039,0.062 0.07,0.093 0,0.03 0.015,0.061 0.047,0.093 v 0.047 c 0,0.03 0.015,0.061 0.046,0.092 V 0.582 C 0.434,1.574 0.519,2.458 0.442,3.233 0.364,4.009 0.124,4.69 -0.279,5.28 c -0.404,0.589 -0.877,1.071 -1.419,1.443 -0.543,0.372 -1.14,0.62 -1.791,0.744 -0.124,0.03 -0.249,0.054 -0.372,0.07 -0.124,0.015 -0.233,0.038 -0.326,0.069 h -0.186 c -0.063,0 -0.124,0.016 -0.186,0.047 H -4.745 -4.931 C -5.148,7.653 -5.396,7.646 -5.676,7.63 -5.955,7.614 -6.25,7.575 -6.56,7.514 -6.87,7.482 -7.187,7.421 -7.513,7.327 -7.839,7.234 -8.172,7.11 -8.513,6.955 -9.01,6.738 -9.514,6.443 -10.025,6.071 -10.537,5.699 -11.057,5.249 -11.584,4.722 -12.112,4.194 -12.63,3.536 -13.143,2.745 -13.654,1.954 -14.174,1.016 -14.701,-0.069 L 0,0.023 Z m 1.722,-5.839 c -0.776,-1.612 -1.629,-2.962 -2.559,-4.047 -0.931,-1.086 -1.924,-1.938 -2.977,-2.558 -1.056,-0.621 -2.172,-1.078 -3.35,-1.373 -1.179,-0.294 -2.404,-0.442 -3.675,-0.442 -1.892,0 -3.436,0.264 -4.629,0.791 -1.195,0.527 -2.055,1.349 -2.582,2.466 -0.497,1.085 -0.815,2.24 -0.954,3.466 -0.14,1.224 -0.101,2.504 0.116,3.838 0,0.061 0.008,0.132 0.023,0.209 0.016,0.077 0.039,0.163 0.07,0.256 0,0.062 0.007,0.131 0.024,0.21 0.015,0.077 0.038,0.146 0.069,0.209 0.031,0.155 0.07,0.309 0.117,0.464 0.046,0.156 0.085,0.31 0.116,0.466 0.495,1.829 1.209,3.496 2.14,5.001 0.93,1.504 2.109,2.83 3.536,3.978 1.364,1.178 2.744,2.054 4.14,2.629 1.396,0.573 2.791,0.86 4.187,0.86 1.83,0 3.326,-0.303 4.489,-0.907 C 1.187,9.072 2.016,8.18 2.512,7.002 3.04,5.792 3.35,4.536 3.443,3.233 3.536,1.931 3.427,0.551 3.117,-0.907 3.086,-0.97 3.063,-1.031 3.047,-1.093 3.031,-1.155 3.008,-1.218 2.978,-1.279 v -0.07 -0.07 C 2.946,-1.45 2.931,-1.474 2.931,-1.488 v -0.071 c 0,-0.031 -0.008,-0.054 -0.023,-0.069 -0.016,-0.017 -0.023,-0.039 -0.023,-0.07 0,-0.031 -0.009,-0.054 -0.024,-0.07 -0.016,-0.015 -0.023,-0.039 -0.023,-0.07 v -0.069 -0.07 C 2.807,-2.008 2.792,-2.04 2.792,-2.07 2.76,-2.102 2.737,-2.133 2.722,-2.163 2.706,-2.194 2.698,-2.226 2.698,-2.256 c 0,-0.031 -0.008,-0.047 -0.023,-0.047 -0.016,0 -0.023,-0.015 -0.023,-0.047 v -0.069 -0.07 C 2.621,-2.521 2.605,-2.543 2.605,-2.559 v -0.069 l -17.957,0.093 c -0.063,-0.279 -0.125,-0.551 -0.186,-0.815 -0.063,-0.263 -0.109,-0.519 -0.14,-0.767 0,-0.124 -0.008,-0.256 -0.023,-0.396 -0.016,-0.139 -0.023,-0.271 -0.023,-0.395 v -0.418 -0.419 c -0.031,-0.776 0.046,-1.512 0.232,-2.21 0.186,-0.698 0.481,-1.358 0.884,-1.978 0.341,-0.62 0.845,-1.086 1.512,-1.395 0.667,-0.311 1.481,-0.465 2.443,-0.465 h 0.07 0.069 0.139 0.094 0.07 0.069 c 0.899,0.062 1.714,0.193 2.443,0.396 0.728,0.201 1.372,0.472 1.93,0.813 0.559,0.341 1.062,0.69 1.512,1.047 0.449,0.356 0.83,0.736 1.14,1.14 0.186,0.248 0.356,0.472 0.512,0.674 0.155,0.202 0.294,0.411 0.418,0.628 0.094,0.217 0.187,0.419 0.28,0.606 0.093,0.185 0.201,0.372 0.325,0.557 v 0.093 z"/>
              </g>
              <g transform="translate(1696.5809,1190.4684)" id="g1925">
                <path inkscape:connector-curvature="0" id="path1927" style="fill:#0038a1;fill-opacity:1;fill-rule:nonzero;stroke:none" d="m 0,0 v 0.07 c 0,0.031 0.007,0.062 0.023,0.093 0.016,0.03 0.039,0.062 0.07,0.093 0,0.03 0.015,0.061 0.047,0.093 v 0.047 c 0,0.03 0.015,0.061 0.046,0.092 V 0.582 C 0.434,1.574 0.519,2.458 0.442,3.233 0.364,4.009 0.124,4.69 -0.279,5.28 c -0.404,0.589 -0.877,1.071 -1.419,1.443 -0.543,0.372 -1.14,0.62 -1.791,0.744 -0.124,0.03 -0.249,0.054 -0.372,0.07 -0.124,0.015 -0.233,0.038 -0.326,0.069 h -0.186 c -0.063,0 -0.124,0.016 -0.186,0.047 H -4.745 -4.931 C -5.148,7.653 -5.396,7.646 -5.676,7.63 -5.955,7.614 -6.25,7.575 -6.56,7.514 -6.87,7.482 -7.187,7.421 -7.513,7.327 -7.839,7.234 -8.172,7.11 -8.513,6.955 -9.01,6.738 -9.514,6.443 -10.025,6.071 -10.537,5.699 -11.057,5.249 -11.584,4.722 -12.112,4.194 -12.63,3.536 -13.143,2.745 -13.654,1.954 -14.174,1.016 -14.701,-0.069 L 0,0.023 Z m 1.722,-5.839 c -0.776,-1.612 -1.629,-2.962 -2.559,-4.047 -0.931,-1.086 -1.924,-1.938 -2.977,-2.558 -1.056,-0.621 -2.172,-1.078 -3.35,-1.373 -1.179,-0.294 -2.404,-0.442 -3.675,-0.442 -1.892,0 -3.436,0.264 -4.629,0.791 -1.195,0.527 -2.055,1.349 -2.582,2.466 -0.497,1.085 -0.815,2.24 -0.954,3.466 -0.14,1.224 -0.101,2.504 0.116,3.838 0,0.061 0.008,0.132 0.023,0.209 0.016,0.077 0.039,0.163 0.07,0.256 0,0.062 0.007,0.131 0.024,0.21 0.015,0.077 0.038,0.146 0.069,0.209 0.031,0.155 0.07,0.309 0.117,0.464 0.046,0.156 0.085,0.31 0.116,0.466 0.495,1.829 1.209,3.496 2.14,5.001 0.93,1.504 2.109,2.83 3.536,3.978 1.364,1.178 2.744,2.054 4.14,2.629 1.396,0.573 2.791,0.86 4.187,0.86 1.83,0 3.326,-0.303 4.489,-0.907 C 1.187,9.072 2.016,8.18 2.512,7.002 3.04,5.792 3.35,4.536 3.443,3.233 3.536,1.931 3.427,0.551 3.117,-0.907 3.086,-0.97 3.063,-1.031 3.047,-1.093 3.031,-1.155 3.008,-1.218 2.978,-1.279 v -0.07 -0.07 C 2.946,-1.45 2.931,-1.474 2.931,-1.488 v -0.071 c 0,-0.031 -0.008,-0.054 -0.023,-0.069 -0.016,-0.017 -0.023,-0.039 -0.023,-0.07 0,-0.031 -0.009,-0.054 -0.024,-0.07 -0.016,-0.015 -0.023,-0.039 -0.023,-0.07 v -0.069 -0.07 C 2.807,-2.008 2.792,-2.04 2.792,-2.07 2.76,-2.102 2.737,-2.133 2.722,-2.163 2.706,-2.194 2.698,-2.226 2.698,-2.256 c 0,-0.031 -0.008,-0.047 -0.023,-0.047 -0.016,0 -0.023,-0.015 -0.023,-0.047 v -0.069 -0.07 C 2.621,-2.521 2.605,-2.543 2.605,-2.559 v -0.069 l -17.957,0.093 c -0.063,-0.279 -0.125,-0.551 -0.186,-0.815 -0.063,-0.263 -0.109,-0.519 -0.14,-0.767 0,-0.124 -0.008,-0.256 -0.023,-0.396 -0.016,-0.139 -0.023,-0.271 -0.023,-0.395 v -0.418 -0.419 c -0.031,-0.776 0.046,-1.512 0.232,-2.21 0.186,-0.698 0.481,-1.358 0.884,-1.978 0.341,-0.62 0.845,-1.086 1.512,-1.395 0.667,-0.311 1.481,-0.465 2.443,-0.465 h 0.07 0.069 0.139 0.094 0.07 0.069 c 0.899,0.062 1.714,0.193 2.443,0.396 0.728,0.201 1.372,0.472 1.93,0.813 0.559,0.341 1.062,0.69 1.512,1.047 0.449,0.356 0.83,0.736 1.14,1.14 0.186,0.248 0.356,0.472 0.512,0.674 0.155,0.202 0.294,0.411 0.418,0.628 0.094,0.217 0.187,0.419 0.28,0.606 0.093,0.185 0.201,0.372 0.325,0.557 v 0.093 z"/>
              </g>
              <g transform="translate(3194.2927,1213.9381)" id="g1929">
                <path inkscape:connector-curvature="0" id="path1931" style="fill:#d32011;fill-opacity:1;fill-rule:nonzero;stroke:none" d="m 0,0 -0.697,-2.605 h -10.981 l -8.234,-30.751 h -3.303 l 8.235,30.751 H -25.588 L -24.89,0 Z"/>
              </g>
              <g transform="translate(3203.8757,1214.2633)" id="g1933">
                <path inkscape:connector-curvature="0" id="path1935" style="fill:#d32011;fill-opacity:1;fill-rule:nonzero;stroke:none" d="M 0,0 4.652,-29.309 24.89,0 h 5.164 L 21.075,-33.682 H 17.771 L 25.913,-3.256 5.304,-33.682 H 1.628 l -4.326,30.426 -8.141,-30.426 h -3.258 L -5.117,0 Z"/>
              </g>
            </g>
          </g>
        </g>
      </g>
    </g>
  </g>
</svg>