<?xml version="1.0" encoding="UTF-8" standalone="no"?>
<!-- Generator: Adobe Illustrator 23.0.5, SVG Export Plug-In . SVG Version: 6.00 Build 0)  -->
<svg xmlns:dc="http://purl.org/dc/elements/1.1/" xmlns:cc="http://creativecommons.org/ns#" xmlns:rdf="http://www.w3.org/1999/02/22-rdf-syntax-ns#" xmlns:svg="http://www.w3.org/2000/svg" xmlns="http://www.w3.org/2000/svg" xmlns:sodipodi="http://sodipodi.sourceforge.net/DTD/sodipodi-0.dtd" xmlns:inkscape="http://www.inkscape.org/namespaces/inkscape" version="1.1" id="svg2816" inkscape:version="0.92.4 (5da689c313, 2019-01-14)" sodipodi:docname="1988_Summer_Olympics_logo.svg" x="0px" y="0px" viewBox="0 0 191.12618 289.99998" xml:space="preserve" width="191.12617" height="290">
<style type="text/css" id="style81">
	.st0{fill:#DA0B13;}
	.st1{fill:#C10F01;}
</style>
<defs id="defs106">
<clipPath id="clipPath1031" clipPathUnits="userSpaceOnUse"><path inkscape:connector-curvature="0" id="path1029" d="M 0,1190.551 H 841.89 V 0 H 0 Z"/></clipPath><style id="style8689">.cls-1{fill:#ff030b;}.cls-2{fill:#e10600;}</style><style id="style12508">.cls-1{fill:#211915;}.cls-2{fill:#dd463c;}</style><style id="style12739">.cls-1{fill:#d98918;}.cls-2{fill:#19248b;}.cls-3{fill:#c12a21;}.cls-4{opacity:0.92;}.cls-5{fill:#0074c5;}.cls-6{fill:#302e2b;}.cls-7{fill:#359444;}</style></defs>

<g transform="matrix(0.25698284,0,0,0.25698284,30.395,-0.85122498)"><g><g transform="matrix(2.8518398,0,0,2.8518398,-118.27638,3.319377)"><g><g id="LWPOLYLINE"><path id="path12745" d="m 77.24,110.58 a 81.48,81.48 0 0 0 11.55,14.55 73.16,73.16 0 0 0 32.78,18.92 64.49,64.49 0 0 0 33.44,0 56,56 0 0 0 25.13,-14.51 47.5,47.5 0 0 0 12.3,-21.3 39,39 0 0 0 0,-20.19 30.43,30.43 0 0 0 -7.88,-13.65 22,22 0 0 0 -9.83,-5.68 13.37,13.37 0 0 0 -16.86,12.94 v 0.56 a 16.74,16.74 0 0 1 1.24,1.14 17.79,17.79 0 0 1 0,25.16 26.35,26.35 0 0 1 -11.8,6.81 34.92,34.92 0 0 1 -18,0 43.29,43.29 0 0 1 -11.16,-4.75 z" class="cls-1" inkscape:connector-curvature="0" style="fill:#d98918"/></g><g><path id="path12748" d="m 76.44,109.28 h 39.64 a 43.17,43.17 0 0 1 -6.26,-5.18 c -0.88,-0.88 -1.73,-1.79 -2.54,-2.73 h -35 a 81.61,81.61 0 0 0 4.16,7.91 z" class="cls-1" inkscape:connector-curvature="0" style="fill:#d98918"/></g><g><path id="path12751" d="m 71.38,99.33 h 34.22 a 51.33,51.33 0 0 1 -4.62,-7 H 68.77 c 0.76,2.35 1.63,4.67 2.61,7 z" class="cls-1" inkscape:connector-curvature="0" style="fill:#d98918"/></g><g><path id="path12754" d="m 67.93,89.53 h 31.64 a 52.38,52.38 0 0 1 -2.43,-6.15 h -30.7 c 0.35,1.72 0.76,3.44 1.22,5.14 z" class="cls-1" inkscape:connector-curvature="0" style="fill:#d98918"/></g><g><path id="path12757" d="M 65.79,79.88 H 96.13 Q 95.49,77.27 95.06,74.6 h -30 c 0.2,1.77 0.44,3.53 0.73,5.28 z" class="cls-1" inkscape:connector-curvature="0" style="fill:#d98918"/></g><g><path id="path12760" d="m 64.73,70.37 h 29.81 c -0.12,-1.46 -0.2,-2.93 -0.21,-4.4 H 64.59 c 0.01,1.47 0.06,2.93 0.14,4.4 z" class="cls-1" inkscape:connector-curvature="0" style="fill:#d98918"/></g><g><rect id="rect12763" height="3.6600001" width="29.74" y="57.34" x="64.580002" class="cls-1" style="fill:#d98918"/></g><g><rect id="rect12766" height="2.9300001" width="29.74" y="48.57" x="64.580002" class="cls-1" style="fill:#d98918"/></g><g><rect id="rect12769" height="2.2" width="29.74" y="39.650002" x="64.580002" class="cls-1" style="fill:#d98918"/></g><g><rect id="rect12772" height="1.47" width="29.74" y="30.58" x="64.580002" class="cls-1" style="fill:#d98918"/></g><g><rect id="rect12775" height="0.73000002" width="29.74" y="21.360001" x="64.580002" class="cls-1" style="fill:#d98918"/></g><g><path id="path12778" d="M 27.61,68.17 V 62 H 0 v 3.16 c 0,1 0,2 0,3 h 27.61" class="cls-2" inkscape:connector-curvature="0" style="fill:#19248b"/></g><g><path id="path12781" d="m 1.88,89.22 a 152.86,152.86 0 0 0 3.4,16 146.2,146.2 0 0 0 37.85,65.56 137.72,137.72 0 0 0 61.71,35.64 121.87,121.87 0 0 0 67.16,1.19 114.56,114.56 0 0 0 85.16,-82 106,106 0 0 0 0,-54.85 90.23,90.23 0 0 0 -64.76,-67.98 81.66,81.66 0 0 0 -42.27,0 73.12,73.12 0 0 0 -32.79,18.93 64.59,64.59 0 0 0 -16.71,29 56,56 0 0 0 0,29 47.53,47.53 0 0 0 12.3,21.29 39,39 0 0 0 17.48,10.09 30.34,30.34 0 0 0 15.77,0 21.88,21.88 0 0 0 9.82,-5.67 13.37,13.37 0 0 0 0,-18.94 13,13 0 0 0 -2.77,-2.13 l -0.49,-0.28 c -0.52,0.19 -1.06,0.36 -1.6,0.51 A 17.79,17.79 0 0 1 129.35,72 a 26.25,26.25 0 0 1 0,-13.63 34.83,34.83 0 0 1 9,-15.62 43.39,43.39 0 0 1 19.45,-11.23 51.91,51.91 0 0 1 26.88,0 60.39,60.39 0 0 1 27.1,15.64 69,69 0 0 1 17.86,30.93 77.57,77.57 0 0 1 0,40.13 A 86,86 0 0 1 207.36,156.8 94.57,94.57 0 0 1 111.8,180 110.37,110.37 0 0 1 62.43,151.46 118.92,118.92 0 0 1 31.64,98.17 q -1.18,-4.44 -2,-9 z" class="cls-2" inkscape:connector-curvature="0" style="fill:#19248b"/></g><g><path id="path12784" d="m 1.68,87.92 h 27.7 C 28.92,85.3 28.54,82.66 28.26,80.01 H 0.72 Q 1.1,84 1.68,87.92 Z" class="cls-2" inkscape:connector-curvature="0" style="fill:#19248b"/></g><g><path id="path12787" d="M 0.53,78 H 28.06 Q 27.75,74.49 27.64,71 H 0.11 q 0.14,3.47 0.42,7 z" class="cls-2" inkscape:connector-curvature="0" style="fill:#19248b"/></g><g><rect id="rect12790" height="5.2800002" width="27.610001" y="53.240002" class="cls-2" x="0" style="fill:#19248b"/></g><g><rect id="rect12793" height="4.4000001" width="27.610001" y="44.610001" class="cls-2" x="0" style="fill:#19248b"/></g><g><rect id="rect12796" height="3.6600001" width="27.610001" y="35.98" class="cls-2" x="0" style="fill:#19248b"/></g><g><rect id="rect12799" height="2.9300001" width="27.610001" y="27.209999" class="cls-2" x="0" style="fill:#19248b"/></g><g><rect id="rect12802" height="2.2" width="27.610001" y="18.280001" class="cls-2" x="0" style="fill:#19248b"/></g><g><rect id="rect12805" height="1.47" width="27.610001" y="9.2200003" class="cls-2" x="0" style="fill:#19248b"/></g><g><rect id="rect12808" height="0.73000002" width="27.610001" class="cls-2" x="0" y="0" style="fill:#19248b"/></g><g><path id="path12811" d="m 36.7,99.9 a 114.46,114.46 0 0 0 28.84,48.48 105.92,105.92 0 0 0 47.46,27.43 90.21,90.21 0 0 0 91.24,-22.13 81.71,81.71 0 0 0 21.13,-36.61 73.16,73.16 0 0 0 0,-37.85 64.57,64.57 0 0 0 -16.72,-29 56,56 0 0 0 -25.13,-14.51 47.5,47.5 0 0 0 -24.6,0 39,39 0 0 0 -17.48,10.09 30.52,30.52 0 0 0 -7.84,13.7 21.85,21.85 0 0 0 0,11.35 13.38,13.38 0 0 0 16.4,9.47 13,13 0 0 0 3.23,-1.32 l 0.49,-0.28 a 15.48,15.48 0 0 1 0.36,-1.64 17.79,17.79 0 0 1 21.79,-12.58 26.27,26.27 0 0 1 11.8,6.81 35,35 0 0 1 9,15.63 43.42,43.42 0 0 1 0,22.46 52,52 0 0 1 -13.44,23.27 60.41,60.41 0 0 1 -27.1,15.65 69.08,69.08 0 0 1 -35.71,0 A 77.48,77.48 0 0 1 85.66,128.25 86,86 0 0 1 66.86,99.9 Z" class="cls-3" inkscape:connector-curvature="0" style="fill:#c12a21"/></g><g><path id="path12814" d="m 36.32,98.6 h 30 Q 64.8,94.72 63.67,90.69 H 34.38 c 0.44,2.13 0.95,4.24 1.51,6.34 0.11,0.53 0.28,1.05 0.43,1.57 z" class="cls-3" inkscape:connector-curvature="0" style="fill:#c12a21"/></g><g><path id="path12817" d="m 34,88.65 h 29.15 c -0.6,-2.32 -1.11,-4.67 -1.52,-7 H 32.87 c 0.3,2.35 0.67,4.67 1.13,7 z" class="cls-3" inkscape:connector-curvature="0" style="fill:#c12a21"/></g><g><path id="path12820" d="M 32.56,78.85 H 61.18 Q 60.73,75.79 60.49,72.7 H 32.11 c 0.09,2.05 0.25,4.1 0.45,6.15 z" class="cls-3" inkscape:connector-curvature="0" style="fill:#c12a21"/></g><g><path id="path12823" d="m 32,69.2 h 28.27 c -0.05,-1.34 -0.08,-2.68 -0.08,-4 V 63.92 H 32 Z" class="cls-3" inkscape:connector-curvature="0" style="fill:#c12a21"/></g><g><rect id="rect12826" height="4.4000001" width="28.18" y="55.290001" x="32.009998" class="cls-3" style="fill:#c12a21"/></g><g><rect id="rect12829" height="3.6600001" width="28.18" y="46.66" x="32.009998" class="cls-3" style="fill:#c12a21"/></g><g><rect id="rect12832" height="2.9300001" width="28.18" y="37.889999" x="32.009998" class="cls-3" style="fill:#c12a21"/></g><g><rect id="rect12835" height="2.2" width="28.18" y="28.959999" x="32.009998" class="cls-3" style="fill:#c12a21"/></g><g><rect id="rect12838" height="1.47" width="28.18" y="19.9" x="32.009998" class="cls-3" style="fill:#c12a21"/></g><g><rect id="rect12841" height="0.73000002" width="28.18" y="10.68" x="32.009998" class="cls-3" style="fill:#c12a21"/></g><g id="g12860" class="cls-4" style="opacity:0.92000002" transform="translate(0,-0.04501102)"><path id="path12844" d="m 42.93,284.68 c -0.72,0.05 -1.44,0.08 -2.17,0.08 A 32.6,32.6 0 1 1 73,247.14 c 0.1,0.69 0.18,1.38 0.25,2.07 0.08,1 0.13,2 0.13,2.95 a 33.49,33.49 0 0 1 -0.53,5.88 c -0.16,0.84 -0.34,1.67 -0.55,2.49 a 32.67,32.67 0 0 1 -16.44,20.54 30.77,30.77 0 0 0 -0.81,7 c 0,0.76 0,1.51 0.09,2.26 a 40.79,40.79 0 0 0 26,-32.49 c 0.09,-0.69 0.17,-1.38 0.23,-2.09 0.1,-1.17 0.16,-2.35 0.16,-3.56 a 39.42,39.42 0 0 0 -0.27,-4.63 c -0.07,-0.68 -0.17,-1.36 -0.28,-2 a 40.74,40.74 0 1 0 -40.19,47.4 c 0.77,0 1.54,0 2.3,-0.06 a 44.83,44.83 0 0 1 -0.27,-4.8 c -0.03,-1.19 0.03,-2.31 0.11,-3.42 z" class="cls-5" inkscape:connector-curvature="0" style="fill:#0074c5"/><path id="path12846" d="m 132.58,284.68 c -0.72,0.05 -1.45,0.08 -2.18,0.08 -0.73,0 -1.46,0 -2.18,-0.08 -0.72,-0.08 -1.38,-0.11 -2.06,-0.2 a 32.52,32.52 0 0 1 -8.52,-2.31 c -0.79,-0.34 -1.56,-0.71 -2.31,-1.1 a 32.64,32.64 0 0 1 -16.44,-20.54 30.31,30.31 0 0 0 -8.84,-2.72 40.8,40.8 0 0 0 26,32.49 c 0.66,0.24 1.33,0.48 2,0.69 a 40.09,40.09 0 0 0 8,1.68 c 0.67,0.07 1.35,0.13 2,0.17 0.65,0.04 1.54,0.06 2.31,0.06 0.77,0 1.55,0 2.31,-0.06 a 42.37,42.37 0 0 1 -0.27,-4.8 c 0.04,-1.13 0.09,-2.25 0.18,-3.36 z" class="cls-6" inkscape:connector-curvature="0" style="fill:#302e2b"/><path id="path12848" d="m 130.4,219.57 a 32.59,32.59 0 0 1 32.21,27.57 c 0.11,0.69 0.19,1.38 0.25,2.07 0.09,1 0.14,2 0.14,2.95 a 32.56,32.56 0 0 1 -0.54,5.88 c -0.15,0.84 -0.33,1.67 -0.55,2.49 a 32.66,32.66 0 0 1 -16.43,20.54 30.22,30.22 0 0 0 -0.81,7 c 0,0.76 0,1.51 0.09,2.26 a 40.78,40.78 0 0 0 26,-32.49 c 0.1,-0.69 0.17,-1.38 0.24,-2.09 0.1,-1.17 0.16,-2.35 0.16,-3.56 a 41.71,41.71 0 0 0 -0.27,-4.63 c -0.08,-0.68 -0.17,-1.36 -0.28,-2 a 40.75,40.75 0 0 0 -80.4,0 43.06,43.06 0 0 1 8,1.64 32.6,32.6 0 0 1 32.19,-27.63 z" class="cls-6" inkscape:connector-curvature="0" style="fill:#302e2b"/><path id="path12850" d="m 220.05,211.42 a 40.75,40.75 0 0 0 -40.2,34.08 42.79,42.79 0 0 1 8,1.64 32.6,32.6 0 1 1 32.22,37.62 c -0.74,0 -1.46,0 -2.18,-0.08 -0.72,-0.08 -1.38,-0.11 -2.06,-0.2 a 32.31,32.31 0 0 1 -8.52,-2.31 c -0.79,-0.34 -1.56,-0.71 -2.32,-1.1 a 32.66,32.66 0 0 1 -16.43,-20.54 30.5,30.5 0 0 0 -8.84,-2.72 40.78,40.78 0 0 0 26,32.49 c 0.66,0.24 1.32,0.48 2,0.69 a 40.38,40.38 0 0 0 8,1.68 c 0.68,0.07 1.36,0.13 2,0.17 0.64,0.04 1.53,0.06 2.31,0.06 a 40.74,40.74 0 1 0 0,-81.48 z" class="cls-3" inkscape:connector-curvature="0" style="fill:#c12a21"/><path id="path12852" d="M 175.22,320.64 A 32.61,32.61 0 0 1 143,293.06 q -0.15,-1 -0.24,-2.07 c -0.09,-1 -0.14,-2 -0.14,-2.95 a 33.29,33.29 0 0 1 0.53,-5.87 c 0.16,-0.84 0.34,-1.68 0.55,-2.49 a 32.67,32.67 0 0 1 16.44,-20.54 30.8,30.8 0 0 0 0.81,-7 c 0,-0.75 0,-1.51 -0.09,-2.25 a 40.78,40.78 0 0 0 -26,32.48 c -0.09,0.69 -0.17,1.39 -0.23,2.09 -0.1,1.17 -0.16,2.36 -0.16,3.56 a 39.3,39.3 0 0 0 0.27,4.63 c 0.07,0.68 0.17,1.36 0.28,2 a 40.74,40.74 0 0 0 80.39,0 42,42 0 0 1 -8,-1.64 32.62,32.62 0 0 1 -32.19,27.63 z" class="cls-7" inkscape:connector-curvature="0" style="fill:#359444"/><path id="path12854" d="m 173.05,255.52 c 0.72,-0.05 1.44,-0.08 2.17,-0.08 0.73,0 1.46,0 2.18,0.08 0.72,0.08 1.38,0.12 2.06,0.2 A 32.5,32.5 0 0 1 188,258 c 0.78,0.33 1.55,0.7 2.31,1.1 a 32.66,32.66 0 0 1 16.43,20.54 30.48,30.48 0 0 0 8.84,2.71 40.75,40.75 0 0 0 -26,-32.48 c -0.66,-0.25 -1.32,-0.48 -2,-0.7 a 41.69,41.69 0 0 0 -8,-1.68 c -0.68,-0.07 -1.35,-0.12 -2,-0.16 -0.65,-0.04 -1.53,-0.07 -2.31,-0.07 -0.78,0 -1.54,0 -2.3,0.07 a 44.5,44.5 0 0 1 0.27,4.79 c -0.05,1.18 -0.11,2.29 -0.19,3.4 z" class="cls-7" inkscape:connector-curvature="0" style="fill:#359444"/><path id="path12856" d="m 83.4,255.52 c 0.72,-0.05 1.45,-0.08 2.18,-0.08 0.73,0 1.46,0 2.18,0.08 0.72,0.08 1.38,0.12 2.06,0.2 a 32.43,32.43 0 0 1 8.52,2.28 c 0.79,0.33 1.56,0.7 2.31,1.1 a 32.64,32.64 0 0 1 16.44,20.54 30.29,30.29 0 0 0 8.84,2.71 40.78,40.78 0 0 0 -26,-32.48 c -0.66,-0.25 -1.33,-0.48 -2,-0.7 a 41.53,41.53 0 0 0 -8,-1.68 c -0.67,-0.07 -1.35,-0.12 -2,-0.16 -0.65,-0.04 -1.54,-0.07 -2.31,-0.07 -0.77,0 -1.54,0 -2.31,0.07 a 42.07,42.07 0 0 1 0.27,4.79 c -0.04,1.18 -0.09,2.29 -0.18,3.4 z" class="cls-1" inkscape:connector-curvature="0" style="fill:#d98918"/><path id="path12858" d="M 85.58,320.64 A 32.6,32.6 0 0 1 53.37,293.06 c -0.11,-0.68 -0.19,-1.37 -0.25,-2.07 C 53,290 53,289 53,288 a 32.36,32.36 0 0 1 0.54,-5.87 c 0.15,-0.84 0.33,-1.68 0.55,-2.49 a 32.66,32.66 0 0 1 16.41,-20.5 30.24,30.24 0 0 0 0.81,-7 c 0,-0.75 0,-1.51 -0.09,-2.25 a 40.77,40.77 0 0 0 -26,32.48 c -0.1,0.69 -0.17,1.39 -0.23,2.09 -0.11,1.17 -0.17,2.36 -0.17,3.56 a 41.57,41.57 0 0 0 0.27,4.63 c 0.08,0.68 0.17,1.36 0.28,2 a 40.75,40.75 0 0 0 80.4,0 42.26,42.26 0 0 1 -8,-1.64 32.61,32.61 0 0 1 -32.19,27.63 z" class="cls-1" inkscape:connector-curvature="0" style="fill:#d98918"/></g><path id="path12862" d="m 4.79,389.85 c 0,1.63 0.5,2 1.5,2 1,0 1.44,-0.36 1.44,-2 v -3.39 c 0,-4.53 -7.73,-9 -7.73,-14.2 v -4.62 c 0,-4.2 3.3,-5.42 6.24,-5.42 2.94,0 6.29,1.22 6.29,5.42 v 6.79 h -4.8 v -6.38 c 0,-1.63 -0.5,-2 -1.44,-2 -0.94,0 -1.5,0.36 -1.5,2 v 4 c 0,2.31 7.74,9.27 7.74,12.53 v 5.7 c 0,4.2 -3.31,5.42 -6.29,5.42 C 3.26,395.7 0,394.46 0,390.26 v -7.42 h 4.79 z" class="cls-6" inkscape:connector-curvature="0" style="fill:#302e2b"/><path id="path12864" d="m 31.74,395.68 v -33.46 h 11.09 v 4.37 h -6.11 v 8.6 h 5.88 v 4.37 h -5.88 v 11.75 h 6.2 v 4.37 z" class="cls-6" inkscape:connector-curvature="0" style="fill:#302e2b"/><path id="path12866" d="m 62.05,367.64 c 0,-4.2 3.3,-5.42 6.24,-5.42 2.94,0 6.28,1.22 6.28,5.42 v 22.62 c 0,4.2 -3.3,5.42 -6.28,5.42 -2.98,0 -6.24,-1.22 -6.24,-5.42 z m 4.79,22.21 c 0,1.63 0.5,2 1.49,2 0.99,0 1.45,-0.36 1.45,-2 v -21.8 c 0,-1.63 -0.5,-2 -1.45,-2 -0.95,0 -1.49,0.36 -1.49,2 z" class="cls-6" inkscape:connector-curvature="0" style="fill:#302e2b"/><path id="path12868" d="m 106.55,362.22 v 27.93 c 0,4.28 -3.36,5.53 -6.4,5.53 -3.04,0 -6.36,-1.25 -6.36,-5.53 v -27.93 h 4.88 v 27.51 c 0,1.66 0.51,2 1.52,2 1.01,0 1.48,-0.37 1.48,-2 v -27.51 z" class="cls-6" inkscape:connector-curvature="0" style="fill:#302e2b"/><path id="path12870" d="m 125.77,395.68 v -33.46 h 5 v 29.09 h 6.34 v 4.37 z" class="cls-6" inkscape:connector-curvature="0" style="fill:#302e2b"/><path id="path12872" d="m 156.31,366.59 c 2.73,-0.42 4.6,-1.31 4.56,-4.37 H 165 v 33.46 h -5 v -25.61 h -3.67 z" class="cls-6" inkscape:connector-curvature="0" style="fill:#302e2b"/><path id="path12874" d="m 184.17,368.66 c 0,-3.4 1,-6.44 6.43,-6.44 4.19,0 6.3,2.12 6.3,6.07 v 20.82 c 0,4 -1.88,6.57 -6.43,6.57 -4.55,0 -6.3,-2.48 -6.3,-6.76 v -3.26 H 189 v 4 c 0,1.15 0.14,2.07 1.47,2.07 1.33,0 1.52,-0.92 1.52,-2.07 V 383 a 5.27,5.27 0 0 1 -3.63,1.57 c -1.93,0 -4.23,-0.74 -4.23,-5.2 z m 4.87,9.55 c 0,1.15 0.28,1.93 1.56,1.93 1.28,0 1.43,-1 1.43,-1.93 v -9.32 c 0,-1.34 0,-2.76 -1.61,-2.76 -1.33,0 -1.38,1.15 -1.38,2.11 z" class="cls-6" inkscape:connector-curvature="0" style="fill:#302e2b"/><path id="path12876" d="m 216.12,383.59 c 0,-2.34 0.46,-4.27 3.95,-5.15 v -0.09 c -3.22,-0.18 -3.86,-2.29 -3.95,-4.78 v -5.1 c 0,-5 3.63,-6.25 6.15,-6.25 3.17,0 6.48,1.52 6.53,6.25 v 4.6 c 0,2.25 -0.78,5.05 -3.86,5.28 v 0.09 c 2.9,0.79 3.86,2.53 3.86,3.73 v 8.22 c 0,3.17 -2.52,5.29 -6.52,5.29 -3.81,0 -6.2,-2.12 -6.2,-6 z M 224,368.24 c 0,-1.7 -0.41,-2.11 -1.47,-2.11 -1.06,0 -1.47,0.92 -1.51,2.11 V 374 c 0,1.75 0.41,2.12 1.61,2.12 0.82,0 1.37,-0.55 1.37,-2 z m 0,14.16 c 0,-0.83 -0.32,-1.8 -1.51,-1.8 -1.19,0 -1.47,1 -1.47,1.8 v 7 c 0,1.56 0.59,2.34 1.56,2.34 1.38,0 1.42,-1.38 1.42,-2.34 z" class="cls-6" inkscape:connector-curvature="0" style="fill:#302e2b"/><path id="path12878" d="m 248.06,383.59 c 0,-2.34 0.46,-4.27 3.95,-5.15 v -0.09 c -3.22,-0.18 -3.86,-2.29 -3.95,-4.78 v -5.1 c 0,-5 3.63,-6.25 6.16,-6.25 3.17,0 6.48,1.52 6.52,6.25 l 0.05,4.6 c 0,2.25 -0.78,5.05 -3.86,5.28 v 0.09 c 2.89,0.79 3.86,2.53 3.86,3.73 v 8.22 c 0,3.17 -2.53,5.29 -6.53,5.29 -3.81,0 -6.2,-2.12 -6.2,-6 z m 7.86,-15.35 c 0,-1.7 -0.42,-2.11 -1.47,-2.11 -1.05,0 -1.47,0.92 -1.52,2.11 V 374 c 0,1.75 0.41,2.12 1.61,2.12 0.83,0 1.38,-0.55 1.38,-2 z m 0,14.16 c 0,-0.83 -0.32,-1.8 -1.52,-1.8 -1.2,0 -1.47,1 -1.47,1.8 v 7 c 0,1.56 0.6,2.34 1.56,2.34 1.38,0 1.43,-1.38 1.43,-2.34 z" class="cls-6" inkscape:connector-curvature="0" style="fill:#302e2b"/></g></g></g></g></svg>