<?xml version="1.0" encoding="UTF-8" standalone="no"?>
<!-- Created with Inkscape (http://www.inkscape.org/) -->
<svg xmlns:dc="http://purl.org/dc/elements/1.1/" xmlns:cc="http://creativecommons.org/ns#" xmlns:rdf="http://www.w3.org/1999/02/22-rdf-syntax-ns#" xmlns:svg="http://www.w3.org/2000/svg" xmlns="http://www.w3.org/2000/svg" xmlns:sodipodi="http://sodipodi.sourceforge.net/DTD/sodipodi-0.dtd" xmlns:inkscape="http://www.inkscape.org/namespaces/inkscape" width="81.403122mm" height="76.729164mm" viewBox="0 0 81.403122 76.729164" version="1.1" id="svg8" inkscape:version="0.92.4 (5da689c313, 2019-01-14)" sodipodi:docname="1992_Summer_Olympics_logo.svg">
  <defs id="defs2">
    <style id="style3933">.cls-1{font-size:10.58px;fill:#1c1c19;font-family:HighwayGothic, Highway Gothic;}.cls-2{fill:#003fa2;}.cls-3{fill:#1a1413;}.cls-4{fill:#c12a21;}</style>
    <style id="style4325">.cls-1{fill:#211915;}.cls-2{fill:#ced1d2;}.cls-3{fill:#d33741;}.cls-4{fill:#f2c43e;}.cls-5{fill:#003fa2;}.cls-6{fill:#302e2b;}.cls-7{fill:#299261;}</style>
  </defs>
  <g transform="translate(55.737334,-210.53257)">
    <g transform="matrix(0.13987597,0,0,0.13987597,-55.732428,210.53234)">
      <g>
        <path id="path4331" d="m 115.57,379.25 v -1.59 c 2.44,-0.08 4,-0.42 4.79,-1 0.79,-0.58 1.12,-1.93 1.12,-4 V 344.3 c 0,-2.08 -0.38,-3.41 -1.12,-4 -0.74,-0.59 -2.35,-0.93 -4.79,-1 v -1.6 h 19.26 q 8,0 12.61,2.66 a 8.36,8.36 0 0 1 4.56,7.64 8.26,8.26 0 0 1 -2.75,6.33 13.06,13.06 0 0 1 -6.93,3.21 v 0.12 a 26.71,26.71 0 0 1 4.39,1.19 17.39,17.39 0 0 1 3.82,1.95 9.31,9.31 0 0 1 2.76,3 7.92,7.92 0 0 1 1,4 9.8,9.8 0 0 1 -4.33,8.37 q -4.32,3.12 -12.73,3.12 z m 13.74,-22.37 q 7.8,0 11.26,-2.1 a 7.26,7.26 0 0 0 3.46,-6.69 7,7 0 0 0 -2.81,-5.75 q -2.82,-2.19 -8,-2.19 c -2.6,0 -3.9,0.93 -3.9,2.81 z m 0,17.29 a 2.19,2.19 0 0 0 1,2 7.8,7.8 0 0 0 3.81,0.64 c 3.44,0 6.16,-0.89 8.15,-2.69 a 8.47,8.47 0 0 0 3.06,-6.35 q 0,-8.43 -16,-8.43 z" class="cls-1" inkscape:connector-curvature="0" style="fill:#211915"/>
        <path id="path4333" d="m 181.52,374.56 c 0,0.91 0.32,1.36 0.95,1.36 a 2.76,2.76 0 0 0 1.09,-0.37 16.1,16.1 0 0 0 2.21,-1.84 l 0.81,0.64 a 16.69,16.69 0 0 1 -4.28,4.55 7,7 0 0 1 -4,1.08 c -1.55,0 -2.59,-0.39 -3.13,-1.17 a 5.43,5.43 0 0 1 -0.8,-3.14 23,23 0 0 1 -4.68,3.23 11,11 0 0 1 -5,1.08 8.11,8.11 0 0 1 -5.45,-1.76 c -1.37,-1.17 -2.05,-3.08 -2.05,-5.75 a 7.62,7.62 0 0 1 1.31,-4.46 10.47,10.47 0 0 1 3.36,-3.08 23.28,23.28 0 0 1 4.26,-1.94 q 2.21,-0.74 5.24,-1.53 c 1.43,-0.37 2.42,-0.64 3,-0.8 q 0,-5.3 -1,-7 c -0.7,-1.1 -2,-1.66 -4,-1.66 -1.47,0 -2.46,0.33 -2.95,1 a 5.32,5.32 0 0 0 -0.75,3.2 3.06,3.06 0 0 1 -0.89,2.4 3.29,3.29 0 0 1 -2.26,0.8 3.25,3.25 0 0 1 -2.26,-0.8 3.06,3.06 0 0 1 -0.9,-2.4 4.83,4.83 0 0 1 0.93,-2.93 7.11,7.11 0 0 1 2.5,-2.09 13.47,13.47 0 0 1 3.51,-1.23 19.58,19.58 0 0 1 4,-0.4 18.73,18.73 0 0 1 4.34,0.49 10.51,10.51 0 0 1 3.58,1.6 7.64,7.64 0 0 1 2.41,2.89 10,10 0 0 1 0.86,4.31 z m -7.14,-11.2 c -1.43,0.41 -2.7,0.83 -3.81,1.23 a 16.81,16.81 0 0 0 -3.1,1.51 7.32,7.32 0 0 0 -2.26,2.16 5,5 0 0 0 -0.84,2.86 4.49,4.49 0 0 0 1.16,3.2 4,4 0 0 0 3.07,1.23 6.09,6.09 0 0 0 3,-0.87 11.33,11.33 0 0 0 2.8,-2.21 z" class="cls-1" inkscape:connector-curvature="0" style="fill:#211915"/>
        <path id="path4335" d="m 187.45,379.35 v -1.6 a 5.28,5.28 0 0 0 2.74,-1 3.48,3.48 0 0 0 0.74,-2.55 v -16.8 a 4.41,4.41 0 0 0 -0.68,-2.92 4,4 0 0 0 -2.8,-0.71 v -1.6 c 0.79,-0.12 8,-2.1 8.57,-2.25 a 7.5,7.5 0 0 1 1.06,-0.21 c 0.21,0 0.31,0.31 0.31,0.92 V 355 c 0,0 2.78,-2.73 3.94,-3.75 a 6,6 0 0 1 4.11,-1.54 3.9,3.9 0 0 1 3.08,1.23 4.24,4.24 0 0 1 1.09,2.89 3.33,3.33 0 0 1 -0.94,2.4 2.91,2.91 0 0 1 -2.25,1 3.66,3.66 0 0 1 -1.67,-0.33 c -0.8,-0.47 -0.9,-0.86 -1.51,-1.19 a 2.41,2.41 0 0 0 -1.6,-0.38 7.11,7.11 0 0 0 -4.25,2.46 v 16.12 a 3.5,3.5 0 0 0 1.06,2.95 6,6 0 0 0 3.43,0.87 v 1.6 z" class="cls-1" inkscape:connector-curvature="0" style="fill:#211915"/>
        <path id="path4337" d="m 234.77,371.12 a 28.27,28.27 0 0 1 -2,3.26 15.71,15.71 0 0 1 -2.61,2.77 12.33,12.33 0 0 1 -3.55,2.06 12.78,12.78 0 0 1 -4.61,0.79 12.91,12.91 0 0 1 -5.4,-1.11 12.1,12.1 0 0 1 -4.18,-3.08 13.83,13.83 0 0 1 -2.64,-4.55 16.54,16.54 0 0 1 -0.91,-5.48 18.18,18.18 0 0 1 1.07,-6.21 16.29,16.29 0 0 1 3,-5.2 13.86,13.86 0 0 1 4.58,-3.51 13.91,13.91 0 0 1 12.72,0.59 c 1.9,1.23 2.85,2.7 2.85,4.43 a 3.67,3.67 0 0 1 -1,2.74 3.41,3.41 0 0 1 -2.48,0.95 3.67,3.67 0 0 1 -2.54,-0.77 8.32,8.32 0 0 1 -1.73,-2.92 c -1,-2.55 -2.51,-3.82 -4.4,-3.82 q -2.19,0 -3.89,2.56 a 12.61,12.61 0 0 0 -1.7,7 16.55,16.55 0 0 0 0.7,4.8 14.51,14.51 0 0 0 2,4.18 10.27,10.27 0 0 0 3,2.9 6.76,6.76 0 0 0 3.58,1 11.23,11.23 0 0 0 5.15,-1 13.07,13.07 0 0 0 3.95,-3.45 z" class="cls-1" inkscape:connector-curvature="0" style="fill:#211915"/>
        <path id="path4339" d="m 243.62,362.77 c 0,3.77 0.73,6.69 2.2,8.74 a 7.4,7.4 0 0 0 6.42,3.07 9.27,9.27 0 0 0 4.82,-1.23 14.61,14.61 0 0 0 4,-3.69 l 1.21,1 a 23.67,23.67 0 0 1 -2,3.44 15.2,15.2 0 0 1 -2.65,2.92 11.91,11.91 0 0 1 -3.6,2.13 13.09,13.09 0 0 1 -4.7,0.8 13.33,13.33 0 0 1 -5.49,-1.11 12.27,12.27 0 0 1 -4.25,-3.08 13.76,13.76 0 0 1 -2.68,-4.55 16.05,16.05 0 0 1 -0.93,-5.48 20.73,20.73 0 0 1 1,-6.55 15.76,15.76 0 0 1 2.78,-5.14 12.52,12.52 0 0 1 4.22,-3.32 12,12 0 0 1 5.3,-1.17 11.09,11.09 0 0 1 8.84,3.72 15.34,15.34 0 0 1 3.55,9.45 z M 254,359.56 a 15.91,15.91 0 0 0 -0.22,-2.71 8.15,8.15 0 0 0 -0.8,-2.38 4.75,4.75 0 0 0 -1.6,-1.76 4.53,4.53 0 0 0 -2.55,-0.68 4.73,4.73 0 0 0 -2.59,0.68 4.41,4.41 0 0 0 -1.59,1.76 8.74,8.74 0 0 0 -0.77,2.38 15.91,15.91 0 0 0 -0.22,2.71 z" class="cls-1" inkscape:connector-curvature="0" style="fill:#211915"/>
        <path id="path4341" d="m 262.54,379.25 v -1.57 c 1.58,-0.08 2.59,-0.45 3,-1.09 0.41,-0.64 0.67,-2 0.67,-4 v -28.34 c 0,-1.49 -0.24,-2.46 -0.73,-2.93 a 4.49,4.49 0 0 0 -3,-0.69 v -1.57 q 0.68,-0.12 2.31,-0.51 c 1.09,-0.26 2.56,-0.63 4.42,-1.12 0.28,-0.08 1,-0.25 2.06,-0.51 1.06,-0.26 1.68,-0.39 1.76,-0.39 q 0.42,0 0.42,0.6 v 35.48 c 0,2 0.22,3.34 0.67,4 0.45,0.66 1.45,1 3,1.09 v 1.57 z" class="cls-1" inkscape:connector-curvature="0" style="fill:#211915"/>
        <path id="path4343" d="m 309.31,358.09 a 13.87,13.87 0 0 0 -3.49,-4.72 14.82,14.82 0 0 0 -5.2,-2.94 17.79,17.79 0 0 0 -6.46,-0.83 17.43,17.43 0 0 0 -6.35,1.42 14.93,14.93 0 0 0 -4.81,3.38 14.07,14.07 0 0 0 -3,5 16.38,16.38 0 0 0 0.6,12.1 14.26,14.26 0 0 0 3.48,4.68 15.07,15.07 0 0 0 5.17,3 18.55,18.55 0 0 0 12.8,-0.56 15,15 0 0 0 4.86,-3.38 14.16,14.16 0 0 0 3,-5 16,16 0 0 0 0.86,-6.1 16.21,16.21 0 0 0 -1.46,-6.05 z m -6.73,11.47 a 13.81,13.81 0 0 1 -1.46,4.11 8.35,8.35 0 0 1 -2.41,2.76 6,6 0 0 1 -6.49,0.27 8.42,8.42 0 0 1 -2.66,-2.54 13.81,13.81 0 0 1 -1.84,-4 20.27,20.27 0 0 1 -0.83,-5 20.55,20.55 0 0 1 0.34,-5.1 13.81,13.81 0 0 1 1.46,-4.11 8.26,8.26 0 0 1 2.41,-2.76 5.78,5.78 0 0 1 3.2,-1.09 6,6 0 0 1 3.29,0.79 8.39,8.39 0 0 1 2.68,2.55 13.8,13.8 0 0 1 1.84,4 21.77,21.77 0 0 1 0.81,5 21,21 0 0 1 -0.34,5.12 z" class="cls-1" inkscape:connector-curvature="0" style="fill:#211915"/>
        <path id="path4345" d="m 330.49,379.25 v -1.6 c 1.66,-0.09 2.69,-0.34 3.09,-0.77 0.4,-0.43 0.6,-1.45 0.6,-3.05 v -15.14 c 0,-1.85 -0.34,-3.13 -1,-3.85 a 3.71,3.71 0 0 0 -2.81,-1.07 9,9 0 0 0 -3.5,0.64 c -1,0.43 -2.76,1.12 -4.4,1.82 v 17.6 c 0,1.6 0.2,2.61 0.6,3.05 0.4,0.44 1.44,0.68 3.09,0.77 v 1.6 h -14 v -1.6 c 1.65,-0.09 2.68,-0.34 3.09,-0.77 0.41,-0.43 0.6,-1.45 0.6,-3.05 V 357 a 4.19,4.19 0 0 0 -0.73,-2.93 4.42,4.42 0 0 0 -3,-0.7 v -1.6 c 0.34,0 6.55,-1.55 7.82,-1.82 1.27,-0.27 2,-0.4 2,-0.4 0.3,0 0.45,0.21 0.45,0.62 v 3.2 c 1.64,-0.87 4.16,-2.07 5.71,-2.77 a 10.74,10.74 0 0 1 4.42,-1.05 c 3.23,0 4.55,0.78 6,2.34 1.45,1.56 2.2,4 2.2,7.26 v 14.65 c 0,1.6 0.2,2.61 0.61,3.05 0.41,0.44 1.43,0.68 3.08,0.77 v 1.6 z" class="cls-1" inkscape:connector-curvature="0" style="fill:#211915"/>
        <path id="path4347" d="m 382.59,352.66 a 9.58,9.58 0 0 0 4.41,-2.88 5.13,5.13 0 0 0 1.42,-3.79 3.57,3.57 0 0 0 -0.38,-1.84 h -0.79 a 5.28,5.28 0 0 1 -3.24,-1.07 3.43,3.43 0 0 1 -1.42,-2.9 4.61,4.61 0 0 1 1.18,-3.36 4.2,4.2 0 0 1 3.23,-1.22 5,5 0 0 1 3.72,1.71 7.35,7.35 0 0 1 1.61,5.19 9.6,9.6 0 0 1 -2.91,7.21 14,14 0 0 1 -3.15,2.24 13,13 0 0 1 -3.63,1.13 z" class="cls-1" inkscape:connector-curvature="0" style="fill:#211915"/>
        <path id="path4349" d="m 400,378.73 a 24.2,24.2 0 0 0 11.51,-6.05 23.19,23.19 0 0 0 6.88,-11.29 14.7,14.7 0 0 1 -6.39,1.61 13,13 0 0 1 -9.39,-3.46 C 400.22,357.17 399,354 399,350 a 13.34,13.34 0 0 1 1.07,-5.34 12.78,12.78 0 0 1 3,-4.34 13.46,13.46 0 0 1 4.59,-2.84 16.18,16.18 0 0 1 5.7,-1 18.76,18.76 0 0 1 5.31,0.78 14.16,14.16 0 0 1 4.92,2.63 13,13 0 0 1 3.65,5 19.48,19.48 0 0 1 1.4,7.79 22.06,22.06 0 0 1 -2.08,9.2 27.09,27.09 0 0 1 -5.92,8.29 31.48,31.48 0 0 1 -9.16,6.13 34.5,34.5 0 0 1 -11.48,2.95 z m 16.62,-19.4 a 15.62,15.62 0 0 0 2.29,-1 l 0.35,-0.18 a 65.11,65.11 0 0 0 0.68,-8.63 15.93,15.93 0 0 0 -1.58,-7.63 5.62,5.62 0 0 0 -9.87,0 16.06,16.06 0 0 0 -1.49,7.61 13.53,13.53 0 0 0 1.78,7.45 6,6 0 0 0 5.35,2.75 7.8,7.8 0 0 0 2.53,-0.37 z" class="cls-1" inkscape:connector-curvature="0" style="fill:#211915"/>
        <path id="path4351" d="M 430,379.25 V 377 l 7.09,-6.82 q 2.81,-2.64 4.75,-4.69 a 37.77,37.77 0 0 0 3.55,-4.36 21.37,21.37 0 0 0 2.53,-4.85 15.16,15.16 0 0 0 0.95,-5.31 9.09,9.09 0 0 0 -1.92,-6.07 7.1,7.1 0 0 0 -5.76,-2.27 8.43,8.43 0 0 0 -3.32,0.58 6.67,6.67 0 0 0 -2.24,1.5 7.83,7.83 0 0 0 -1.4,2 27.57,27.57 0 0 0 -1.11,2.57 h -1.82 a 24.37,24.37 0 0 1 1.63,-4.84 16,16 0 0 1 2.63,-4.06 11.62,11.62 0 0 1 8.88,-3.86 13,13 0 0 1 4.59,0.8 12.48,12.48 0 0 1 3.94,2.33 10.7,10.7 0 0 1 2.73,3.68 11.31,11.31 0 0 1 1,4.73 12.35,12.35 0 0 1 -1.17,5.06 28.33,28.33 0 0 1 -3.1,5.19 54.42,54.42 0 0 1 -4,4.75 q -2.06,2.19 -5.31,5.43 c -1.65,1.68 -4,4.17 -4.8,5 h 13.24 a 7.38,7.38 0 0 0 3.68,-0.64 9.17,9.17 0 0 0 2.38,-3 h 1.88 l -3.36,9.48 z" class="cls-1" inkscape:connector-curvature="0" style="fill:#211915"/>
        <path id="path4353" d="m 371.52,374.56 c 0,0.91 0.32,1.36 1,1.36 a 2.76,2.76 0 0 0 1.09,-0.37 16.1,16.1 0 0 0 2.21,-1.84 l 0.81,0.64 a 16.69,16.69 0 0 1 -4.28,4.55 7,7 0 0 1 -4,1.08 c -1.55,0 -2.59,-0.39 -3.13,-1.17 a 5.43,5.43 0 0 1 -0.8,-3.14 23,23 0 0 1 -4.68,3.23 11,11 0 0 1 -5,1.08 8.11,8.11 0 0 1 -5.45,-1.76 c -1.37,-1.17 -2,-3.08 -2,-5.75 a 7.62,7.62 0 0 1 1.31,-4.46 10.47,10.47 0 0 1 3.36,-3.08 23.28,23.28 0 0 1 4.26,-1.94 q 2.2,-0.74 5.24,-1.53 c 1.43,-0.37 2.42,-0.64 3,-0.8 q 0,-5.3 -1,-7 c -0.7,-1.1 -2,-1.66 -4,-1.66 -1.47,0 -2.46,0.33 -2.95,1 a 5.32,5.32 0 0 0 -0.75,3.2 3.06,3.06 0 0 1 -0.89,2.4 3.29,3.29 0 0 1 -2.26,0.8 3.25,3.25 0 0 1 -2.26,-0.8 3.06,3.06 0 0 1 -0.9,-2.4 4.83,4.83 0 0 1 0.93,-2.93 7.11,7.11 0 0 1 2.5,-2.09 13.47,13.47 0 0 1 3.51,-1.23 19.58,19.58 0 0 1 4,-0.4 18.73,18.73 0 0 1 4.34,0.49 10.51,10.51 0 0 1 3.58,1.6 7.64,7.64 0 0 1 2.41,2.89 10,10 0 0 1 0.86,4.31 z m -7.14,-11.2 c -1.43,0.41 -2.7,0.83 -3.81,1.23 a 16.81,16.81 0 0 0 -3.1,1.51 7.32,7.32 0 0 0 -2.26,2.16 5,5 0 0 0 -0.84,2.86 4.49,4.49 0 0 0 1.16,3.2 4,4 0 0 0 3.07,1.23 6.09,6.09 0 0 0 3,-0.87 11.33,11.33 0 0 0 2.8,-2.21 z" class="cls-1" inkscape:connector-curvature="0" style="fill:#211915"/>
        <path id="path4355" d="m 22.27,218.41 c -2.5,-0.25 -5.9,-1 -7.5,1.1 -1.6,2.1 -2.67,2.49 -2.77,4.49 -0.1,2 -0.17,3 0.67,4.44 0.84,1.44 3.19,2.93 3.78,3.71 0.59,0.78 1.94,1.43 4,1.37 a 27.26,27.26 0 0 1 4.72,0.31 c 1.06,0.15 1.06,0.57 3.15,0.43 2.09,-0.14 2.48,-1 4.82,-1 a 9.87,9.87 0 0 1 4.37,0.82 c 1,0.4 2.75,1 4.32,1.68 1.57,0.68 3.83,0.09 6.42,0.42 2.59,0.33 2.12,0.54 4.2,0.69 2.08,0.15 1.86,1.18 3.39,1.71 1.53,0.53 3.4,0.08 5,0.53 1.6,0.45 3.29,2.17 5.28,3.6 1.99,1.43 2.39,2.37 4.69,2.4 2.3,0.03 6.51,-0.34 9.48,0.51 2.97,0.85 3,0.21 6.58,1.66 3.58,1.45 6.09,-0.56 9.14,0.67 a 13.23,13.23 0 0 0 5.34,1.35 c 1.36,0.06 3.76,-0.76 6,0.67 2.24,1.43 2.71,2.16 4.69,2.41 a 14.13,14.13 0 0 1 4.64,1.56 c 1.2,0.59 2.35,0.67 3.42,1.58 1.07,0.91 2.1,1 3.33,1.86 1.23,0.86 2,0.22 4,2.09 2,1.87 3.47,0.82 6.34,1.33 2.87,0.51 2.59,1.82 5.88,1.9 3.29,0.08 2.34,-1 5.75,-0.41 3.41,0.59 2.77,0.39 4.82,-0.13 2.05,-0.52 2,0.29 3.86,0.21 a 13,13 0 0 1 4.18,0 c 2.17,0.38 2,-0.2 3.92,0.46 a 11.4,11.4 0 0 0 3.22,0.68 c 1.24,0.21 2.14,-0.61 3.9,-0.49 1.76,0.12 2.64,0.51 3.69,0.3 a 7.91,7.91 0 0 1 3.3,-0.34 c 2.17,0.13 1.4,0.4 2.86,0.74 a 13.36,13.36 0 0 0 4,0.31 c 1.82,0 4.11,0.31 5.17,0 a 2.19,2.19 0 0 1 2.64,0.58 5.77,5.77 0 0 0 3.8,2.09 c 1.47,0 4.26,-0.62 5.87,0.36 1.61,0.98 1.71,0.79 3.27,1.77 1.56,0.98 1.51,1.26 3.33,1.19 a 19.41,19.41 0 0 1 5.2,0.09 c 1.5,0.38 1.87,1 3.53,1.05 a 42.86,42.86 0 0 0 5.71,0.07 c 1.95,-0.2 1.81,0.76 3.76,0.62 1.95,-0.14 1.83,-0.74 3.87,-0.71 2.04,0.03 1.58,1.14 3.46,1.67 1.88,0.53 2.84,0.16 5.21,-0.79 2.37,-0.95 2.57,-0.7 3.93,-0.4 1.36,0.3 1.71,1.46 3.4,1.8 1.69,0.34 2.33,0.09 3.66,0.72 1.33,0.63 1.35,1.36 3.79,0.65 2.44,-0.71 1.45,-1.19 3.75,-1.58 2.3,-0.39 2.88,-0.5 4.54,0 1.66,0.5 1.42,1 3.5,0.81 2.08,-0.19 2.59,-0.86 4.38,-0.81 1.79,0.05 2.77,0.68 4.84,0.67 2.07,-0.01 1.85,0.42 3.08,1.56 1.23,1.14 2.86,0.66 4.83,1.19 1.97,0.53 1.46,0.82 3.69,1 2.23,0.18 2,0.32 4.86,-0.48 2.86,-0.8 2.9,0 5.43,-0.21 2.53,-0.21 2.45,0.51 4.17,1 1.72,0.49 2.75,-0.67 4.18,-0.52 1.43,0.15 2.16,0.82 3.24,1.28 1.08,0.46 2.94,0.23 4.88,0.8 1.94,0.57 2.32,0.22 3.92,0.31 1.6,0.09 2.19,0.63 3.6,0.65 a 15,15 0 0 0 4.56,-0.2 c 1.73,-0.45 2,0.76 4.46,1.08 2.46,0.32 2.48,0.67 4,1.56 1.52,0.89 2.8,0.83 4.77,1.14 1.97,0.31 3.41,0.14 5.47,1.29 2.06,1.15 3,0.48 5.57,1.41 2.57,0.93 3,-0.19 4.69,0.57 a 6.52,6.52 0 0 0 4.14,0.72 8.71,8.71 0 0 1 4.58,0.7 c 1.72,0.69 2.1,1.05 3.72,1 1.62,-0.05 1.3,0.72 4,1.49 2.7,0.77 2.36,0.25 4.2,1.36 1.84,1.11 1.55,1.23 2.86,1.25 1.31,0.02 1.89,-0.68 3.16,-0.21 a 10,10 0 0 0 4.58,1.24 c 2.84,0.13 3.87,-0.4 4.63,0.06 0.76,0.46 0.72,1 3.75,1.07 3.03,0.07 4.24,0 5.22,0.7 a 7.27,7.27 0 0 0 4.23,1.53 c 1.91,0.05 3.16,-0.51 4.79,-0.13 1.63,0.38 0.74,1.63 4.47,2.1 3.73,0.47 3.63,1 4.38,1.75 0.75,0.75 0.68,1.57 3.72,1.61 3.04,0.04 1.22,1.55 5.17,1.92 3.95,0.37 1.62,0.85 5.41,1.18 3.79,0.33 4.14,1.3 6.88,1.24 2.74,-0.06 3.16,0 4.65,1.24 1.49,1.24 2.13,0.32 4.1,1.37 1.97,1.05 1.23,1.06 3.68,1.51 2.45,0.45 1.49,0.85 4.33,1.05 2.84,0.2 2,0.76 4.77,0.78 a 40.87,40.87 0 0 1 5.23,0.26 c 1.28,0.16 1,0.71 2.49,1.21 a 9,9 0 0 0 2.9,0.74 8.25,8.25 0 0 1 3.31,1 27.87,27.87 0 0 0 3.72,1.7 c 1.32,0.43 1.05,0.7 2.21,1.33 1.16,0.63 1.19,0.19 2,0.84 0.81,0.65 1.53,0.34 2.94,0.79 1.41,0.45 1.22,0.46 1.88,1.24 0.66,0.78 1.31,0.37 2.3,1.21 0.99,0.84 2.05,0 3.68,0.81 1.63,0.81 2.63,0.34 4.3,0.6 1.67,0.26 0.45,0.9 2.69,1.54 2.24,0.64 3.41,0.38 4.7,1.08 1.29,0.7 2.1,0.15 3.48,0.57 1.38,0.42 -0.05,0.38 2.32,1.37 2.37,0.99 1.95,0.65 3.59,1.34 1.64,0.69 2.38,-0.13 4.07,0.68 1.69,0.81 1.49,1.08 2.86,1.5 1.37,0.42 1.36,0.34 2.69,1.77 a 3.88,3.88 0 0 0 3.28,1.55 14.32,14.32 0 0 1 2.69,0.32 15.07,15.07 0 0 0 3,0.77 c 1.32,0.12 1.31,0.77 2.94,0.93 1.63,0.16 2.65,-0.12 3.3,0.25 0.65,0.37 0.6,0.6 1.57,1.17 0.97,0.57 1.55,0.41 2.75,2 1.2,1.59 1.21,1.12 2.08,2 0.87,0.88 1.17,0.77 1.9,2.1 0.73,1.33 1.54,0.84 2.42,1.74 a 2.78,2.78 0 0 0 2.6,1.07 17.43,17.43 0 0 0 4.14,-0.12 c 1.36,-0.32 1.57,0.39 2.64,0.8 1.07,0.41 1.62,0.09 2.88,1.33 1.26,1.24 1.64,0.76 2.87,2 1.23,1.24 0.84,1.35 1.73,1.92 0.89,0.57 0.77,0.41 2.1,-0.1 1.33,-0.51 0.74,-0.18 2.21,-0.11 1.47,0.07 1.31,-0.22 2.19,-0.52 a 15.83,15.83 0 0 0 3.49,-1.88 11.33,11.33 0 0 0 2.71,-2.62 c 0.49,-0.82 0.92,-1.82 1.38,-2.59 0.46,-0.77 0.75,-1.73 1.1,-2.45 a 17.8,17.8 0 0 0 0.79,-3.88 53.91,53.91 0 0 0 0.32,-6.1 10.35,10.35 0 0 0 -0.51,-3.67 4.47,4.47 0 0 1 -0.21,-3 5.37,5.37 0 0 1 0.64,-2.33 3.71,3.71 0 0 0 0.24,-2.29 6.8,6.8 0 0 1 0.12,-2.51 c 0.23,-1.15 0.47,-1.34 0.61,-2.19 a 6.72,6.72 0 0 0 -0.31,-2.62 c -0.22,-0.83 -0.49,-2.94 -0.63,-4 a 30.24,30.24 0 0 0 -0.6,-3.11 11.53,11.53 0 0 1 -0.55,-3.05 17.4,17.4 0 0 1 0.08,-3.38 c 0.21,-1 0.36,-1.08 0.47,-1.83 a 12.07,12.07 0 0 0 -0.34,-2.64 c -0.12,-1 -0.11,-2 -0.18,-3.13 a 12.76,12.76 0 0 0 -0.6,-2.6 c -0.3,-1.26 -0.34,-2.09 -0.56,-3.22 a 20.6,20.6 0 0 0 -0.54,-2.46 c -0.34,-1.3 -0.37,-2.85 -0.67,-3.67 a 15,15 0 0 0 -1.38,-3.65 15.63,15.63 0 0 0 -2.87,-3.91 c -1.41,-1.23 -2.87,-2.91 -3.93,-3.78 a 11.16,11.16 0 0 0 -3,-2.31 c -1.55,-0.68 -1.81,-1.9 -2.78,-2.19 a 21.5,21.5 0 0 1 -3.69,-1.47 33.06,33.06 0 0 1 -3.37,-2.24 7.81,7.81 0 0 0 -3.19,-1.89 c -1.31,-0.36 -1.76,-0.75 -2.71,-1 a 31.82,31.82 0 0 1 -3.65,-1 c -1.69,-0.59 -1.52,-0.7 -2.92,-1.12 a 21,21 0 0 0 -3.58,-0.88 16.8,16.8 0 0 1 -2.77,-0.33 c -0.67,-0.22 -2.11,-1.11 -3.7,-1.79 -1.59,-0.68 -1.34,-1.38 -3.12,-1.79 -1.78,-0.41 -2.64,0 -4.1,-0.54 -1.46,-0.54 -2,-1.6 -3.23,-2 -1.23,-0.4 -2.83,-0.44 -4.08,-0.91 a 33.44,33.44 0 0 0 -4.69,-2 c -2.1,-0.56 -2.89,-0.7 -4,-1.1 -1.11,-0.4 -1.39,-1.27 -3.85,-1.52 -2.46,-0.25 -3.24,0.13 -4.68,-0.55 -1.44,-0.68 -0.92,-1 -2.72,-1.37 a 10.94,10.94 0 0 1 -2.76,-0.95 11.51,11.51 0 0 0 -2.54,-1.08 35.78,35.78 0 0 0 -4.79,-0.93 c -2.06,-0.27 -4.63,0 -5.49,-0.35 -0.86,-0.35 -0.88,-0.88 -2.57,-1.09 a 17.4,17.4 0 0 0 -4,-0.21 21.4,21.4 0 0 1 -3.93,0.33 8.9,8.9 0 0 1 -3.4,-0.94 13.05,13.05 0 0 0 -3,-1 c -1.05,-0.14 -1.86,0.39 -2.62,0.38 a 3.75,3.75 0 0 1 -2.87,-0.77 5.32,5.32 0 0 0 -3.93,-2 c -2.67,-0.39 -4.05,-0.43 -5,-0.89 -0.95,-0.46 -1,-0.46 -2.63,-1.19 -1.63,-0.73 -1.88,-0.31 -3.41,-0.33 -1.53,-0.02 -1.74,1 -5,0.73 -3.26,-0.27 -2.12,-1.36 -4.41,-1.78 -2.29,-0.42 -1.33,-0.84 -3,-1.06 -1.67,-0.22 -2.74,-0.35 -4.13,0.65 -1.39,1 -2.05,0.77 -3.39,0.5 a 25.43,25.43 0 0 1 -4.76,-1.94 c -2,-0.92 -2.28,-1.57 -4.61,-1.72 -2.33,-0.15 -5.61,0 -7.07,-0.67 a 13.38,13.38 0 0 1 -3.27,-1.8 c -1.29,-0.94 -1.2,-1.1 -2.92,-1.34 -1.72,-0.24 -2.22,-0.64 -3.4,-0.62 -1.18,0.02 -1.45,0.52 -2.5,0.6 a 5.05,5.05 0 0 1 -3.12,-0.58 c -0.73,-0.55 -1,-0.4 -1.82,-0.44 -0.82,-0.04 -0.93,0.82 -2.4,0.8 -1.47,-0.02 -0.83,-0.33 -1.81,-0.95 -0.98,-0.62 -2.82,-0.3 -3.78,-0.61 a 12.37,12.37 0 0 0 -3.4,-0.43 34,34 0 0 1 -4,-0.46 c -0.85,-0.13 -2.59,-0.26 -3,-0.33 a 12.15,12.15 0 0 0 -2.52,-0.46 25.24,25.24 0 0 0 -3.05,0.26 12.6,12.6 0 0 1 -4.21,-0.5 7.5,7.5 0 0 0 -2.86,-0.68 c -1,-0.08 -2,0.53 -3,0.49 a 14.33,14.33 0 0 1 -2.85,-0.37 c -1.49,-0.3 -2.61,-0.31 -3.44,-0.58 a 10.28,10.28 0 0 0 -2.84,-0.82 c -1.55,-0.19 -3.43,-0.16 -4.83,-0.36 -1.4,-0.2 -1.5,-0.39 -3.48,-0.75 -1.98,-0.36 -2.65,-0.31 -3.69,-0.5 a 20.64,20.64 0 0 1 -2.72,-0.44 10.87,10.87 0 0 0 -2.55,-0.37 17.09,17.09 0 0 0 -5.17,0.19 17.73,17.73 0 0 1 -3.26,0.47 c -1.41,0.11 -2.05,0.4 -2.78,0.43 a 5.36,5.36 0 0 1 -2.41,-0.65 10.66,10.66 0 0 0 -2.7,-0.74 c -1,-0.18 -1.72,0.07 -2.23,-0.17 a 6.44,6.44 0 0 0 -1.86,-0.92 c -0.83,-0.16 -1.72,0 -2.72,-0.21 a 16.05,16.05 0 0 1 -2.4,-0.52 c -0.87,-0.35 -0.55,-0.41 -1.57,-0.42 -1.02,-0.01 -2,-0.22 -2.68,0.32 -0.68,0.54 -1,0.46 -1.92,0.06 a 7.69,7.69 0 0 1 -1.84,-0.83 c -0.72,-0.48 -0.8,-0.33 -2,-0.71 a 8.4,8.4 0 0 1 -1.76,-0.57 8,8 0 0 0 -2,-0.65 c -1,-0.22 -1.22,0 -2.58,0.4 a 2.67,2.67 0 0 1 -2.49,-0.42 c -0.8,-0.37 -1.07,-1 -2.07,-1 a 13.74,13.74 0 0 0 -2.6,0.31 43.26,43.26 0 0 1 -6.36,-0.43 21.63,21.63 0 0 0 -3.31,-0.42 c -2.45,-0.09 -4.55,-0.12 -6,-0.08 -1.45,0.04 -6.6,-0.21 -8.41,0.07 a 28.87,28.87 0 0 1 -4,0.6 18.87,18.87 0 0 1 -4.8,-0.29 30.85,30.85 0 0 0 -3.19,-0.69 25.82,25.82 0 0 1 -4.22,-0.69 6.78,6.78 0 0 0 -2.61,-0.8 c -1.4,-0.1 -3.08,0.05 -4,-0.35 a 14.58,14.58 0 0 0 -4.73,-0.89 c -2,-0.07 -3.89,-0.37 -5,0.45 -1.11,0.82 -2.22,0.59 -4,0.46 -1.78,-0.13 -1.25,-0.44 -3.18,-0.68 -1.93,-0.24 -1.46,-0.68 -2.88,-1 -1.42,-0.32 -3.05,0.11 -4.25,-0.5 a 6.63,6.63 0 0 0 -2.67,-0.8 50,50 0 0 0 -6.09,-0.16 c -1.87,0 -4.74,-0.06 -6.09,0.73 -1.35,0.79 -1.58,0.59 -3.55,1.16 a 6.3,6.3 0 0 1 -3.36,0.3 c -1.49,-0.08 -2.56,0.16 -3.3,-0.43 a 7.46,7.46 0 0 0 -2,-1.17 3.85,3.85 0 0 0 -2.7,-0.5 c -1.63,0.1 -2,-0.16 -3.32,0.24 a 7.77,7.77 0 0 1 -3.46,0.47 8.45,8.45 0 0 1 -3.08,-0.91 4.88,4.88 0 0 0 -2.48,-0.67 8.34,8.34 0 0 0 -3.45,0.28 c -1.22,0.46 -1.79,0 -3.18,1 -1.39,1 -2,0.61 -3.31,1.68 -1.31,1.07 -2.59,1 -4.31,0.74 a 37.28,37.28 0 0 0 -4.43,-0.57 c -1.73,-0.08 -2.11,0.33 -3.61,0.21 -1.5,-0.12 -1,-0.23 -2.45,-1 -1.45,-0.77 -2.58,-0.19 -4.43,-0.44 -1.85,-0.25 -2.33,0 -3.26,0.79 -0.93,0.79 -1.52,1.26 -2.64,1.11 -1.12,-0.15 -0.53,-0.61 -2.89,-0.61 a 7.77,7.77 0 0 0 -3.14,0.44 c -0.86,0.18 -1.37,0.08 -2.23,0.26 a 15.13,15.13 0 0 1 -4.16,0.42 c -1.91,-0.09 -2,-0.37 -3.76,-0.52 -1.76,-0.15 -1.42,-0.69 -4,-0.53 a 6.81,6.81 0 0 0 -3.07,0.53 c -1.47,0.43 -2,-0.19 -4.28,0.65 -2.28,0.84 -4.38,0.39 -5,-0.16 a 3,3 0 0 0 -2.26,-0.86 4.38,4.38 0 0 0 -3.27,0.85 c -0.84,0.79 -2.72,1.08 -4.83,1.4 a 8.38,8.38 0 0 1 -3.83,-0.05 c -1.63,-0.24 -0.73,-0.77 -2.58,-0.8 -1.85,-0.03 -1.89,0.68 -3.39,0.69 -1.5,0.01 -3.58,0.15 -4.88,-0.51 -1.3,-0.66 -1.75,0 -2.26,-0.06 -0.51,-0.06 -1.35,0.62 -2.52,0.1 -1.17,-0.52 -2.14,-0.22 -3.51,-0.27 a 8,8 0 0 0 -4.45,0.68 18.82,18.82 0 0 1 -5.35,2.06 c -2.12,0.42 -4.6,2.4 -5.87,2.13 a 11,11 0 0 1 -3.05,-1 c -1.27,-0.6 -1.82,-0.51 -3.71,0.14 -1.89,0.65 -2.56,0.29 -4.65,1.6 -2.09,1.31 -2.59,0.41 -4.51,1 -1.92,0.59 -2.62,0.34 -4.94,1.91 -2.32,1.57 -2.79,1.14 -4.39,1.28 a 31.7,31.7 0 0 1 -6.5,0.04 z" class="cls-2" inkscape:connector-curvature="0" style="fill:#ced1d2"/>
        <path id="path4357" d="M 10.19,208.28 C 7.69,208.06 4.28,207.34 2.71,209.47 1.14,211.6 0.07,212 0,214 c -0.07,2 -0.12,3 0.73,4.43 0.85,1.43 3.27,2.87 3.85,3.64 0.58,0.77 2,1.4 4,1.32 a 26.51,26.51 0 0 1 4.72,0.25 c 1.07,0.13 1.07,0.55 3.15,0.38 2.08,-0.17 2.47,-1 4.81,-1 a 9.79,9.79 0 0 1 4.38,0.77 c 1,0.38 2.77,1 4.34,1.62 1.57,0.62 3.83,0 6.43,0.34 2.6,0.34 2.13,0.51 4.21,0.64 2.08,0.13 1.88,1.14 3.41,1.65 1.53,0.51 3.4,0 5.06,0.47 1.66,0.47 3.32,2.13 5.32,3.53 2,1.4 2.43,2.35 4.72,2.35 2.29,0 6.51,-0.43 9.49,0.38 2.98,0.81 3,0.17 6.6,1.57 3.6,1.4 6.08,-0.64 9.15,0.56 a 13.12,13.12 0 0 0 5.36,1.27 c 1.36,0 3.74,-0.81 6,0.6 2.26,1.41 2.73,2.13 4.71,2.35 a 13.79,13.79 0 0 1 4.66,1.5 c 1.21,0.57 2.36,0.64 3.45,1.53 1.09,0.89 2.1,0.93 3.35,1.82 1.25,0.89 2,0.19 4,2 2,1.81 3.48,0.77 6.35,1.25 2.87,0.48 2.62,1.78 5.91,1.82 3.29,0.04 2.33,-1 5.74,-0.48 3.41,0.52 2.78,0.35 4.82,-0.19 2.04,-0.54 2,0.25 3.86,0.16 1.86,-0.09 2,-0.39 4.18,0 2.18,0.39 2.05,-0.22 3.93,0.42 a 11.11,11.11 0 0 0 3.22,0.64 c 1.25,0.19 2.14,-0.64 3.9,-0.55 1.76,0.09 2.64,0.48 3.7,0.26 a 7.74,7.74 0 0 1 3.28,-0.38 c 2.17,0.09 1.41,0.37 2.88,0.7 a 13.16,13.16 0 0 0 4,0.25 c 1.82,-0.06 4.12,0.26 5.17,-0.09 a 2.2,2.2 0 0 1 2.65,0.54 5.78,5.78 0 0 0 3.83,2 c 1.47,0 4.24,-0.67 5.87,0.29 1.63,0.96 1.72,0.77 3.29,1.72 1.57,0.95 1.53,1.25 3.35,1.15 a 20,20 0 0 1 5.2,0 c 1.5,0.37 1.88,1 3.54,1 a 40.39,40.39 0 0 0 5.72,0 c 1.94,-0.22 1.81,0.74 3.76,0.58 1.95,-0.16 1.82,-0.77 3.86,-0.77 2.04,0 1.6,1.12 3.48,1.63 1.88,0.51 2.84,0.13 5.2,-0.86 2.36,-0.99 2.56,-0.73 3.93,-0.45 1.37,0.28 1.72,1.44 3.41,1.76 1.69,0.32 2.33,0.06 3.67,0.67 1.34,0.61 1.38,1.34 3.8,0.6 2.42,-0.74 1.44,-1.21 3.74,-1.62 2.3,-0.41 2.87,-0.55 4.53,-0.1 1.66,0.45 1.43,1 3.51,0.77 2.08,-0.23 2.58,-0.9 4.37,-0.86 1.79,0.04 2.78,0.63 4.85,0.6 2.07,-0.03 1.85,0.39 3.1,1.52 1.25,1.13 2.87,0.62 4.85,1.13 1.98,0.51 1.47,0.8 3.7,1 2.23,0.2 2,0.29 4.85,-0.54 2.85,-0.83 2.91,-0.07 5.43,-0.29 2.52,-0.22 2.46,0.49 4.18,1 1.72,0.51 2.74,-0.7 4.18,-0.58 1.44,0.12 2.17,0.8 3.25,1.25 1.08,0.45 2.94,0.19 4.89,0.73 1.95,0.54 2.33,0.19 3.92,0.26 1.59,0.07 2.21,0.6 3.61,0.6 a 15.09,15.09 0 0 0 4.56,-0.25 c 1.73,-0.48 2,0.73 4.47,1 2.47,0.27 2.49,0.64 4,1.5 1.51,0.86 2.81,0.8 4.79,1.08 1.98,0.28 3.41,0.1 5.49,1.22 2.08,1.12 3,0.44 5.58,1.34 2.58,0.9 3,-0.23 4.69,0.51 a 6.65,6.65 0 0 0 4.15,0.67 8.68,8.68 0 0 1 4.6,0.64 c 1.72,0.67 2.11,1 3.73,1 1.62,0 1.31,0.7 4,1.43 2.69,0.73 2.36,0.23 4.21,1.31 1.85,1.08 1.57,1.21 2.88,1.21 1.31,0 1.88,-0.7 3.16,-0.25 a 9.88,9.88 0 0 0 4.59,1.18 c 2.84,0.09 3.86,-0.45 4.63,0 0.77,0.45 0.73,1 3.77,1 3.04,0 4.24,-0.06 5.23,0.64 a 7.35,7.35 0 0 0 4.24,1.47 c 1.92,0 3.16,-0.55 4.79,-0.19 1.63,0.36 0.77,1.62 4.5,2 3.73,0.38 3.64,1 4.41,1.69 0.77,0.69 0.7,1.56 3.73,1.56 3.03,0 1.25,1.54 5.2,1.85 3.95,0.31 1.63,0.83 5.43,1.12 3.8,0.29 4.15,1.25 6.89,1.15 2.74,-0.1 3.16,0 4.66,1.18 1.5,1.18 2.14,0.29 4.12,1.31 1.98,1.02 1.24,1.05 3.7,1.47 2.46,0.42 1.5,0.83 4.34,1 2.84,0.17 2,0.73 4.79,0.72 a 39,39 0 0 1 5.23,0.19 c 1.28,0.14 1,0.7 2.51,1.18 a 9.21,9.21 0 0 0 2.9,0.7 8.18,8.18 0 0 1 3.32,0.94 26.76,26.76 0 0 0 3.75,1.64 c 1.33,0.42 1.05,0.69 2.22,1.31 1.17,0.62 1.2,0.18 2,0.82 0.8,0.64 1.54,0.32 3,0.75 1.46,0.43 1.22,0.44 1.89,1.21 0.67,0.77 1.31,0.35 2.32,1.18 1.01,0.83 2,-0.05 3.68,0.77 1.68,0.82 2.64,0.3 4.31,0.54 1.67,0.24 0.47,0.89 2.72,1.5 2.25,0.61 3.41,0.33 4.7,1 1.29,0.67 2.11,0.13 3.5,0.53 1.39,0.4 -0.05,0.38 2.33,1.34 2.38,0.96 2,0.62 3.6,1.29 1.6,0.67 2.38,-0.16 4.09,0.62 1.71,0.78 1.5,1.07 2.87,1.47 1.37,0.4 1.37,0.32 2.71,1.74 1.34,1.42 1.87,1.34 3.31,1.5 a 13.59,13.59 0 0 1 2.69,0.29 14.92,14.92 0 0 0 3,0.73 c 1.33,0.1 1.33,0.75 2.95,0.89 1.62,0.14 2.65,-0.15 3.31,0.21 0.66,0.36 0.6,0.59 1.58,1.15 0.98,0.56 1.56,0.38 2.77,2 1.21,1.62 1.23,1.1 2.11,2 0.88,0.9 1.18,0.75 1.93,2.07 0.75,1.32 1.55,0.82 2.44,1.71 a 2.84,2.84 0 0 0 2.62,1 17.9,17.9 0 0 0 4.13,-0.18 c 1.36,-0.33 1.58,0.37 2.65,0.77 1.07,0.4 1.63,0.06 2.91,1.29 1.28,1.23 1.64,0.73 2.88,2 1.24,1.27 0.87,1.34 1.76,1.9 0.89,0.56 0.78,0.4 2.11,-0.13 1.33,-0.53 0.73,-0.19 2.2,-0.14 1.47,0.05 1.31,-0.24 2.18,-0.54 a 16.07,16.07 0 0 0 3.47,-1.93 11.63,11.63 0 0 0 2.68,-2.65 c 0.48,-0.83 0.89,-1.84 1.34,-2.62 0.45,-0.78 0.73,-1.74 1.07,-2.46 a 18.3,18.3 0 0 0 0.74,-3.89 55.77,55.77 0 0 0 0.24,-6.11 10.62,10.62 0 0 0 -0.56,-3.66 4.44,4.44 0 0 1 -0.25,-3 5.49,5.49 0 0 1 0.61,-2.34 3.77,3.77 0 0 0 0.21,-2.29 6.87,6.87 0 0 1 0.08,-2.52 c 0.23,-1.14 0.46,-1.34 0.59,-2.19 a 6.67,6.67 0 0 0 -0.34,-2.61 39.2,39.2 0 0 1 -0.68,-4 c -0.15,-1.08 -0.37,-1.93 -0.64,-3.1 a 11.55,11.55 0 0 1 -0.6,-3 17.84,17.84 0 0 1 0,-3.39 c 0.2,-0.95 0.34,-1.08 0.45,-1.83 a 11.79,11.79 0 0 0 -0.38,-2.64 c -0.13,-1 -0.13,-2 -0.21,-3.12 a 13.07,13.07 0 0 0 -0.64,-2.6 c -0.32,-1.25 -0.36,-2.08 -0.6,-3.21 a 23.88,23.88 0 0 0 -0.57,-2.45 c -0.36,-1.3 -0.41,-2.85 -0.73,-3.66 a 14.83,14.83 0 0 0 -1.42,-3.64 15.7,15.7 0 0 0 -2.92,-3.87 c -1.42,-1.21 -2.91,-2.87 -4,-3.72 a 11.07,11.07 0 0 0 -3.08,-2.28 c -1.55,-0.66 -1.83,-1.87 -2.81,-2.15 a 20.81,20.81 0 0 1 -3.7,-1.42 33.52,33.52 0 0 1 -3.41,-2.19 7.78,7.78 0 0 0 -3.21,-1.86 c -1.32,-0.34 -1.76,-0.72 -2.72,-0.95 a 31,31 0 0 1 -3.66,-0.92 c -1.7,-0.57 -1.53,-0.68 -2.94,-1.08 a 18.89,18.89 0 0 0 -3.59,-0.83 17.29,17.29 0 0 1 -2.77,-0.3 c -0.68,-0.21 -2.13,-1.09 -3.72,-1.75 -1.59,-0.66 -1.36,-1.36 -3.15,-1.74 -1.79,-0.38 -2.64,0.06 -4.11,-0.49 -1.47,-0.55 -2,-1.57 -3.25,-2 -1.25,-0.43 -2.83,-0.4 -4.09,-0.85 a 34.09,34.09 0 0 0 -4.72,-2 c -2.11,-0.53 -2.9,-0.66 -4,-1 -1.1,-0.34 -1.41,-1.26 -3.87,-1.47 -2.46,-0.21 -3.24,0.17 -4.68,-0.49 -1.44,-0.66 -0.94,-1 -2.75,-1.34 a 10.76,10.76 0 0 1 -2.77,-0.91 12.37,12.37 0 0 0 -2.55,-1 37,37 0 0 0 -4.81,-0.87 c -2.06,-0.23 -4.62,0 -5.49,-0.27 -0.87,-0.27 -0.89,-0.87 -2.58,-1.06 a 17.26,17.26 0 0 0 -4,-0.16 22.18,22.18 0 0 1 -3.93,0.39 9,9 0 0 1 -3.41,-0.9 12.94,12.94 0 0 0 -3,-0.92 c -1,-0.13 -1.85,0.41 -2.61,0.41 a 3.75,3.75 0 0 1 -2.87,-0.73 5.33,5.33 0 0 0 -4,-1.95 c -2.68,-0.35 -4.06,-0.38 -5,-0.83 -0.94,-0.45 -1,-0.45 -2.65,-1.15 -1.65,-0.7 -1.89,-0.29 -3.42,-0.29 -1.53,0 -1.72,1.06 -5,0.8 -3.28,-0.26 -2.13,-1.34 -4.43,-1.72 -2.3,-0.38 -1.34,-0.83 -3,-1 -1.66,-0.17 -2.75,-0.32 -4.12,0.7 -1.37,1.02 -2,0.8 -3.38,0.54 a 25.59,25.59 0 0 1 -4.79,-1.88 c -2,-0.89 -2.3,-1.53 -4.63,-1.66 -2.33,-0.13 -5.62,0 -7.08,-0.57 a 13,13 0 0 1 -3.29,-1.76 c -1.31,-0.93 -1.21,-1.09 -2.94,-1.31 -1.73,-0.22 -2.23,-0.6 -3.41,-0.57 -1.18,0.03 -1.44,0.54 -2.49,0.64 a 5,5 0 0 1 -3.13,-0.55 c -0.73,-0.54 -1,-0.38 -1.82,-0.41 -0.82,-0.03 -0.92,0.83 -2.39,0.83 -1.47,0 -0.83,-0.32 -1.82,-0.93 -0.99,-0.61 -2.83,-0.26 -3.79,-0.56 a 12.49,12.49 0 0 0 -3.4,-0.38 34.54,34.54 0 0 1 -4,-0.41 c -0.85,-0.13 -2.6,-0.23 -3,-0.3 a 12.76,12.76 0 0 0 -2.54,-0.42 22.57,22.57 0 0 0 -3,0.3 12.3,12.3 0 0 1 -4.21,-0.45 7.55,7.55 0 0 0 -2.87,-0.64 c -1,-0.06 -2,0.55 -3,0.53 a 13.94,13.94 0 0 1 -2.85,-0.34 c -1.49,-0.27 -2.62,-0.27 -3.45,-0.53 a 10.2,10.2 0 0 0 -2.85,-0.79 c -1.55,-0.17 -3.43,-0.1 -4.83,-0.3 -1.4,-0.2 -1.51,-0.36 -3.49,-0.7 -1.98,-0.34 -2.66,-0.27 -3.7,-0.44 a 21.1,21.1 0 0 1 -2.73,-0.41 10.66,10.66 0 0 0 -2.55,-0.34 16.86,16.86 0 0 0 -5.17,0.26 17.93,17.93 0 0 1 -3.25,0.51 c -1.41,0.12 -2.05,0.42 -2.77,0.47 a 5.34,5.34 0 0 1 -2.43,-0.62 10,10 0 0 0 -2.7,-0.7 c -1,-0.17 -1.72,0.08 -2.23,-0.15 a 6.52,6.52 0 0 0 -1.87,-0.9 c -0.83,-0.15 -1.73,0.07 -2.73,-0.17 a 15,15 0 0 1 -2.4,-0.49 c -0.87,-0.34 -0.55,-0.4 -1.58,-0.4 -1.03,0 -2,-0.19 -2.68,0.36 -0.68,0.55 -1,0.47 -1.91,0.09 a 8,8 0 0 1 -1.85,-0.81 c -0.73,-0.47 -0.81,-0.32 -2,-0.68 a 8.12,8.12 0 0 1 -1.76,-0.56 7.72,7.72 0 0 0 -2,-0.61 c -1,-0.22 -1.22,0 -2.58,0.42 a 2.63,2.63 0 0 1 -2.49,-0.38 c -0.81,-0.36 -1.08,-1 -2.08,-1 a 13.26,13.26 0 0 0 -2.6,0.34 43.66,43.66 0 0 1 -6.36,-0.35 21.76,21.76 0 0 0 -3.32,-0.37 c -2.45,-0.07 -4.55,-0.07 -6,0 -1.45,0.07 -6.6,-0.13 -8.41,0.17 a 30.11,30.11 0 0 1 -4,0.66 18.78,18.78 0 0 1 -4.81,-0.24 c -1.23,-0.27 -1.74,-0.43 -3.19,-0.64 a 26.42,26.42 0 0 1 -4.23,-0.63 6.44,6.44 0 0 0 -2.62,-0.77 c -1.4,-0.09 -3.08,0.08 -4,-0.3 a 14.44,14.44 0 0 0 -4.74,-0.83 c -2,0 -3.9,-0.32 -5,0.51 -1.1,0.83 -2.21,0.62 -4,0.51 -1.79,-0.11 -1.26,-0.42 -3.19,-0.63 -1.93,-0.21 -1.47,-0.66 -2.9,-0.94 -1.43,-0.28 -3,0.15 -4.25,-0.45 a 6.65,6.65 0 0 0 -2.68,-0.76 49.43,49.43 0 0 0 -6.09,-0.09 c -1.87,0 -4.74,0 -6.08,0.81 -1.34,0.81 -1.58,0.62 -3.54,1.21 a 6.17,6.17 0 0 1 -3.36,0.34 c -1.49,-0.06 -2.55,0.19 -3.3,-0.38 a 7.65,7.65 0 0 0 -2,-1.15 4,4 0 0 0 -2.71,-0.47 c -1.63,0.13 -2,-0.12 -3.32,0.29 a 7.71,7.71 0 0 1 -3.45,0.51 8.61,8.61 0 0 1 -3.09,-0.86 4.82,4.82 0 0 0 -2.49,-0.64 8.15,8.15 0 0 0 -3.45,0.32 c -1.21,0.48 -1.79,0 -3.16,1 -1.37,1 -2,0.64 -3.29,1.73 -1.29,1.09 -2.58,1.05 -4.3,0.79 a 37.5,37.5 0 0 0 -4.44,-0.51 c -1.72,-0.06 -2.11,0.35 -3.61,0.26 -1.5,-0.09 -1,-0.22 -2.45,-1 -1.45,-0.78 -2.59,-0.16 -4.44,-0.38 -1.85,-0.22 -2.33,0 -3.26,0.83 -0.93,0.83 -1.5,1.27 -2.61,1.15 -1.11,-0.12 -0.54,-0.61 -2.91,-0.58 a 7.66,7.66 0 0 0 -3.12,0.48 c -0.87,0.19 -1.38,0.1 -2.24,0.29 a 15.26,15.26 0 0 1 -4.15,0.48 c -1.91,-0.07 -2,-0.36 -3.76,-0.48 -1.76,-0.12 -1.44,-0.67 -4,-0.48 a 7,7 0 0 0 -3.06,0.57 c -1.47,0.45 -2,-0.16 -4.28,0.7 -2.28,0.86 -4.37,0.45 -5,-0.09 a 3,3 0 0 0 -2.27,-0.83 4.37,4.37 0 0 0 -3.25,0.89 c -0.83,0.8 -2.72,1.12 -4.82,1.47 a 8.61,8.61 0 0 1 -3.83,0 c -1.63,-0.22 -0.74,-0.77 -2.59,-0.77 -1.85,0 -1.88,0.71 -3.38,0.74 -1.5,0.03 -3.57,0.19 -4.88,-0.45 -1.31,-0.64 -1.76,0 -2.27,0 -0.51,0 -1.34,0.64 -2.52,0.13 -1.18,-0.51 -2.14,-0.19 -3.51,-0.23 a 8.17,8.17 0 0 0 -4.44,0.74 19.22,19.22 0 0 1 -5.33,2.14 c -2.1,0.44 -4.56,2.45 -5.84,2.2 A 11.29,11.29 0 0 1 38.6,202 c -1.28,-0.57 -1.82,-0.48 -3.7,0.19 -1.88,0.67 -2.56,0.32 -4.63,1.66 -2.07,1.34 -2.59,0.45 -4.5,1.09 -1.91,0.64 -2.62,0.38 -4.92,2 -2.3,1.62 -2.77,1.18 -4.37,1.34 a 32,32 0 0 1 -6.29,0 z" class="cls-3" inkscape:connector-curvature="0" style="fill:#d33741"/>
        <path id="path4359" d="m 305.89,63.26 a 14.46,14.46 0 0 1 -5,-8.47 52.83,52.83 0 0 0 -1.84,-8.73 c -0.92,-3.28 0.4,-4.13 0,-5.58 -0.4,-1.45 -1.57,-1.9 -1.44,-5.38 0.13,-3.48 0.39,-3.21 0.59,-6.49 0.2,-3.28 -0.46,-1.91 0.85,-5.12 1.31,-3.21 2.63,-4.07 3.55,-5.65 a 32.86,32.86 0 0 1 3.87,-4.59 c 1.18,-1.31 3.21,-1.71 5.58,-1.31 2.37,0.4 3.61,0.26 5.57,0.65 a 32,32 0 0 1 5,1.64 38.1,38.1 0 0 0 5.25,1 c 1.18,0.2 3.68,1.12 4.46,1.25 a 21.07,21.07 0 0 0 2.83,0.07 c 0.65,0 1.64,0.46 4.07,0.72 2.43,0.26 2.55,0.59 5.25,0.46 2.7,-0.13 4.39,0.26 6,0 a 22.06,22.06 0 0 1 4.79,-0.66 c 1.84,0.07 2.95,-0.33 4.07,0.66 1.12,0.99 2.36,1.7 3.21,3.34 0.85,1.64 1.84,1.38 2.23,4 0.39,2.62 1.05,2 1.12,5.05 0.07,3.05 0.2,3.22 0.72,4.73 a 17.37,17.37 0 0 1 1,6.3 c -0.06,2.69 -0.52,3.74 -0.39,5.84 0.13,2.1 1.25,1.7 1.05,4.33 a 22,22 0 0 0 0,4.59 28.48,28.48 0 0 1 0.64,4.86 c 0.06,3 0,5.25 0,6.3 a 26.4,26.4 0 0 1 0,5.05 c -0.3,2.82 -0.89,4.07 -2,5.12 -1.11,1.05 -1.18,1.77 -3.35,3 a 7.67,7.67 0 0 1 -3.67,1.38 10.57,10.57 0 0 1 -4.27,0 c -1.57,-0.2 -1.9,0.45 -4.07,0.22 a 25.09,25.09 0 0 1 -4.72,-0.75 c -2.56,-0.59 -2.1,-0.26 -4,-0.79 -1.9,-0.53 -1.18,-0.19 -3.87,-2 -2.69,-1.81 -2.95,-2 -4.79,-2.43 -1.84,-0.43 -2.43,-1.51 -4.46,-2.16 -2.03,-0.65 -1.71,-1 -3.54,-1.91 -1.83,-0.91 -1.78,-1.57 -3.74,-1.77 -1.96,-0.2 -1.25,-0.52 -3.94,-0.52 a 8.33,8.33 0 0 1 -4.79,-1.12 35.69,35.69 0 0 1 -4.08,-2.39 27.12,27.12 0 0 1 -3.74,-2.74 z" class="cls-2" inkscape:connector-curvature="0" style="fill:#ced1d2"/>
        <path id="path4361" d="m 117,28.32 a 9.75,9.75 0 0 1 6.3,-0.2 c 2.95,1.15 4.65,2.08 6.27,4.39 a 34.77,34.77 0 0 0 4.84,6.22 c 2.36,2.28 3.84,4.09 6.11,5.19 a 11.84,11.84 0 0 1 5.25,4.08 c 1.56,2.17 2.36,2 4.81,3.19 2.45,1.19 3,2.38 6.6,3.19 3.6,0.81 2,0.9 4.79,1.58 2.79,0.68 3,1.95 4.11,3.45 1.11,1.5 1.18,2.22 2.7,3.07 1.52,0.85 1.27,-0.13 3.7,1.24 2.43,1.37 2.46,1 3.86,2.26 1.4,1.26 1.32,1.28 3.11,1.52 1.79,0.24 2.45,1.93 4.52,2.88 2.07,0.95 1.89,0.33 3.72,1.84 1.83,1.51 1.72,1.69 2.81,2.51 1.09,0.82 0.08,-0.13 1.82,1.09 1.74,1.22 0.76,1.21 2.52,1.67 1.76,0.46 2.34,-0.12 3.34,0.66 a 8.65,8.65 0 0 1 2.25,2.44 c 0.63,1 0.37,0.8 2,1.39 1.63,0.59 1.51,0.42 3.17,2 1.66,1.58 1.32,1.15 2.61,1.71 a 9.15,9.15 0 0 0 2.93,0.93 c 1.49,0.25 1,0.14 2.37,1.07 a 38.22,38.22 0 0 0 3.36,2.49 c 1.73,1 3,0.72 4.22,1.49 a 6.14,6.14 0 0 0 3.15,1.33 c 1.8,0.33 1.17,0.61 2.67,0.9 a 5.22,5.22 0 0 1 3.59,1.93 c 1.5,1.53 1.41,1.57 3.12,1.73 1.71,0.16 2.59,-0.12 3.53,1.25 0.94,1.37 1.92,1.35 4.27,3.19 2.35,1.84 2,1.6 4.49,2 2.49,0.4 3.54,0 5.73,2 2.19,2 2.5,1.12 5.19,1.16 a 23.86,23.86 0 0 1 6.46,0.9 c 2.66,0.64 1.61,1.27 4.77,1.47 a 28.17,28.17 0 0 1 7.5,1.68 c 2.5,0.77 5.25,1.79 7.65,2.31 a 26.81,26.81 0 0 0 3.78,0.82 30.23,30.23 0 0 0 6.48,0.39 c 3.57,-0.07 5.42,0.47 7.29,0.37 1.87,-0.1 3.38,0.36 5.85,0.62 2.47,0.26 2.19,0.65 6,1.09 3.81,0.44 2.19,0.61 6.11,0.87 3.92,0.26 5.21,0.3 7.28,-0.23 2.07,-0.53 2.36,-0.63 3.86,-0.21 1.5,0.42 1.86,0.88 4.41,0.54 2.55,-0.34 1.77,-0.39 4.26,-1.28 a 12.84,12.84 0 0 1 5.28,-1.06 c 2.77,-0.17 3.64,0.52 5.05,0.77 A 4.11,4.11 0 0 0 352,116 c 1.56,-0.56 1.07,0.14 3.91,-0.46 2.84,-0.6 2.89,-0.18 4.1,-0.69 1.21,-0.51 1.85,-1 3.15,-1.42 a 13.37,13.37 0 0 0 3.08,-1 c 1,-0.58 1.9,-0.36 4.05,-1.19 a 29,29 0 0 1 3.91,-1.44 25.78,25.78 0 0 0 3.88,-1.32 c 1.89,-0.78 2.93,-0.26 4.43,-1.16 a 16.58,16.58 0 0 1 4.66,-2.23 c 2.15,-0.63 2.67,-0.13 4.64,-2.45 1.97,-2.32 4.15,-0.86 7.05,-2 2.9,-1.14 2.53,-0.6 4.62,-2 2.09,-1.4 2.67,-0.47 5.1,-3 2.43,-2.53 2,-2 4.71,-3.09 2.71,-1.09 1.49,-1.32 4.2,-2.05 2.71,-0.73 2.87,-1.88 4.17,-3.88 1.3,-2 -0.14,-1.78 2.85,-4.3 2.99,-2.52 2.92,-1.92 6.58,-4.72 3.66,-2.8 4,-3 5.43,-4.43 1.43,-1.43 2,-1.73 3.77,-3.23 1.77,-1.5 1.36,-1.62 1.53,-2.81 0.17,-1.19 0.23,-1.07 1.62,-2.74 1.39,-1.67 1.42,-0.94 2.44,-2.16 1.02,-1.22 0.78,-1.09 0.84,-3.13 0.06,-2.04 0.8,-1.69 1.28,-3.88 0.48,-2.19 -0.48,-1.77 0.72,-4.19 1.2,-2.42 1.64,-2 1.8,-3.63 a 13.38,13.38 0 0 1 1.48,-4.83 26,26 0 0 1 2.8,-4.39 36.16,36.16 0 0 1 3.29,-3.89 c 1.48,-1.67 1.84,-2.19 4.38,-2.61 2.54,-0.42 3.21,0.49 4.72,1.17 1.51,0.68 2.31,0.31 3.69,2.27 a 9.6,9.6 0 0 0 2.12,2.65 c 1.94,2 1.18,2.31 2.45,4.57 a 15.11,15.11 0 0 1 1.8,5.94 c 0.42,2.46 1.12,3.12 1.22,6.22 a 63.94,63.94 0 0 0 0.42,6.59 c 0.22,1.52 0.87,2 0.74,3.13 -0.13,1.13 -0.87,1 -1.33,2.38 -0.46,1.38 -0.07,1.75 -0.53,3.38 -0.46,1.63 -0.73,1.22 -1,3.1 -0.27,1.88 -0.47,1.29 -1.51,3.41 -1.04,2.12 -1.28,2.59 -2.09,4 -0.81,1.41 -0.53,2.19 -1.6,3.38 -1.07,1.19 -2.16,1.55 -4.11,4.6 -1.95,3.05 -2.24,3.53 -3.46,5.19 -1.22,1.66 -1.87,2.49 -3.58,5 -1.71,2.51 -0.66,1.94 -1.63,3.76 a 36.27,36.27 0 0 1 -3,4.91 c -1,1.26 -2,3 -3,4.26 -1,1.26 -1.7,2.82 -4.12,5.71 -2.42,2.89 -2.89,4.22 -5.23,6.76 -2.34,2.54 -3.12,3.76 -6.62,7.37 a 52,52 0 0 1 -5.25,5 c -2.32,2 -2,1.51 -5.28,4.26 -3.28,2.75 -2.5,1.74 -4.76,4.32 -2.26,2.58 -2.73,2.38 -3.86,4.34 -1.13,1.96 -0.62,2 -3.71,2.67 -3.09,0.67 -1.56,0.34 -4.25,1.49 -2.69,1.15 -0.81,1.18 -3.11,2.53 -2.3,1.35 -2.66,0.76 -3.69,1.73 -1.03,0.97 0,1.71 -3.1,3 -3.1,1.29 -2.52,1.19 -3.25,2.28 -0.73,1.09 -0.82,0.92 -3.19,1.46 -2.37,0.54 -2,1.3 -3.05,2 -1.05,0.7 -1.86,0.19 -4.22,1.16 a 22.75,22.75 0 0 0 -4.1,2.21 c -2,1.18 -1,0.42 -5.32,1.41 -4.32,0.99 -1.45,2.47 -7.39,3.3 -5.94,0.83 -4.51,1.42 -8.11,1.87 -3.6,0.45 -3,-0.24 -5.84,1.16 -2.84,1.4 -2.53,0.94 -4.69,1.09 -2.16,0.15 -2.94,0.16 -5.87,0.2 -2.93,0.04 -3.56,0.69 -5.93,0.9 -2.37,0.21 -3,-0.29 -5.16,-0.14 -2.16,0.15 -2.08,0.19 -4.75,0.47 -2.67,0.28 -2.37,0.61 -4.36,0.8 -1.99,0.19 -2.48,1.23 -6.26,1.26 -3.78,0.03 -3.61,0.37 -7.74,0.46 -4.13,0.09 -5.57,0.05 -7,-0.59 -1.43,-0.64 -1.82,-1.05 -3,-1 -1.18,0.05 -2.05,0.92 -3.92,1.15 -1.87,0.23 -0.93,-1.12 -4.7,-1.81 -3.77,-0.69 -2.35,-0.44 -4.89,0.07 -2.54,0.51 -2.09,0 -4,-0.64 -1.91,-0.64 -2.11,0.57 -4,0.25 -1.89,-0.32 -2.73,-0.13 -5.21,-0.43 -2.48,-0.3 -1.12,-0.39 -4,-1.54 -2.88,-1.15 -3.1,-1 -5.76,-3 -2.66,-2 -2.93,-0.93 -4.65,-1.55 -1.72,-0.62 -1.67,-0.46 -4.51,-1.31 -2.84,-0.85 -2,-0.19 -4.48,-1.56 -2.48,-1.37 -2.83,-0.68 -6,-2.11 -3.17,-1.43 -2.13,-1.29 -4.77,-2.49 -2.64,-1.2 -2.93,-1.14 -5.91,-2.41 -2.98,-1.27 -3.94,-0.85 -6.21,-2.74 a 9.26,9.26 0 0 0 -4,-2.34 c -1.86,-0.75 -1.34,-0.73 -4.23,-1.87 -2.89,-1.14 -3.26,-0.71 -6.42,-2.27 -3.16,-1.56 -3.56,-2.39 -6.48,-4.26 -2.92,-1.87 -4.08,-2.72 -7.08,-4.46 a 39.49,39.49 0 0 1 -6.14,-4.4 c -2.58,-2 -4.4,-3.31 -6.19,-4.7 -1.79,-1.39 -1.33,-1.62 -3.7,-2.36 -2.37,-0.74 -4.1,-0.68 -6,-2.58 -1.9,-1.9 -2.67,-2.34 -5.26,-4.77 -2.59,-2.43 -7.69,-6.52 -10.38,-9.25 -2.69,-2.73 -2.64,-2.77 -5.05,-5 -2.41,-2.23 -3.27,-3.77 -6.75,-6.21 -3.48,-2.44 -2.54,-2.22 -4.63,-4.84 -2.09,-2.62 -1.7,-2.63 -3.59,-4.7 -1.89,-2.07 -3.4,-2.36 -4.89,-5 -1.49,-2.64 -2.57,-3.16 -4.07,-6.17 -1.5,-3.01 -1.64,-2.21 -3.56,-6.45 A 102.23,102.23 0 0 0 124,69.07 c -2.21,-3.8 -2.11,-4.83 -3.8,-8.44 -1.69,-3.61 -1.81,-4.66 -2.92,-8.89 -1.11,-4.23 -1,-4.78 -2.09,-8.19 -1.09,-3.41 -1.11,-4 -1.49,-5.36 a 12.59,12.59 0 0 1 -0.49,-4.75 c 0.18,-1.92 0.19,-3.74 3.79,-5.12 z" class="cls-2" inkscape:connector-curvature="0" style="fill:#ced1d2"/>
        <path id="path4363" d="m 110,11.45 a 9.73,9.73 0 0 1 6.31,0 c 2.91,1.24 4.58,2.23 6.13,4.58 a 34.66,34.66 0 0 0 4.64,6.37 c 2.29,2.35 3.71,4.21 5.94,5.38 a 11.78,11.78 0 0 1 5.13,4.27 c 1.49,2.23 2.29,2.1 4.71,3.34 2.42,1.24 3,2.48 6.49,3.4 3.49,0.92 2,1 4.74,1.74 2.74,0.74 3,2 4,3.57 1,1.57 1.11,2.26 2.6,3.15 1.49,0.89 1.28,-0.08 3.66,1.36 2.38,1.44 2.43,1 3.79,2.38 1.36,1.38 1.27,1.32 3.06,1.62 1.79,0.3 2.38,2 4.43,3 2.05,1 1.87,0.39 3.66,2 1.79,1.61 1.66,1.75 2.72,2.6 1.06,0.85 0.08,-0.13 1.79,1.15 1.71,1.28 0.72,1.23 2.46,1.74 1.74,0.51 2.34,0 3.32,0.77 a 8.44,8.44 0 0 1 2.17,2.51 c 0.6,1 0.34,0.81 2,1.44 1.66,0.63 1.49,0.47 3.11,2.09 1.62,1.62 1.27,1.19 2.55,1.79 a 9.27,9.27 0 0 0 2.89,1 c 1.49,0.29 1,0.17 2.34,1.15 1.34,0.98 1.58,1.53 3.28,2.59 1.7,1.06 3,0.81 4.17,1.62 a 6.27,6.27 0 0 0 3.11,1.45 c 1.79,0.38 1.15,0.63 2.64,1 a 5.23,5.23 0 0 1 3.53,2 c 1.45,1.57 1.36,1.61 3.06,1.83 1.7,0.22 2.6,0 3.49,1.36 0.89,1.36 1.87,1.4 4.17,3.32 2.3,1.92 1.92,1.66 4.43,2.13 2.51,0.47 3.53,0.08 5.66,2.17 2.13,2.09 2.46,1.19 5.15,1.31 a 24.17,24.17 0 0 1 6.42,1.11 c 2.64,0.72 1.58,1.32 4.72,1.62 a 28.16,28.16 0 0 1 7.45,1.91 c 2.47,0.85 5.19,2 7.58,2.56 a 26.85,26.85 0 0 0 3.74,0.93 29.63,29.63 0 0 0 6.47,0.6 c 3.57,0 5.4,0.64 7.28,0.59 1.88,-0.05 3.36,0.47 5.83,0.81 2.47,0.34 2.17,0.73 5.95,1.28 3.78,0.55 2.17,0.68 6.09,1.06 3.92,0.38 5.19,0.47 7.27,0 2.08,-0.47 2.39,-0.55 3.88,-0.08 1.49,0.47 1.83,0.93 4.38,0.68 2.55,-0.25 1.79,-0.34 4.3,-1.15 a 12.85,12.85 0 0 1 5.32,-0.89 c 2.76,-0.09 3.61,0.63 5,0.93 a 4.12,4.12 0 0 0 3.1,-0.08 c 1.58,-0.51 1.07,0.17 3.92,-0.34 2.85,-0.51 2.89,-0.09 4.13,-0.56 1.24,-0.47 1.87,-0.93 3.19,-1.32 a 13.25,13.25 0 0 0 3.1,-0.93 c 1,-0.56 1.92,-0.3 4.09,-1.07 a 32.25,32.25 0 0 1 4,-1.32 23.88,23.88 0 0 0 3.91,-1.19 c 1.92,-0.72 2.94,-0.17 4.47,-1 a 16.68,16.68 0 0 1 4.72,-2.08 c 2.17,-0.56 2.68,0 4.73,-2.3 2.05,-2.3 4.17,-0.72 7.1,-1.83 2.93,-1.11 2.56,-0.51 4.68,-1.83 2.12,-1.32 2.69,-0.38 5.2,-2.81 2.51,-2.43 2,-1.91 4.8,-2.94 2.8,-1.03 1.54,-1.27 4.26,-1.91 2.72,-0.64 2.94,-1.79 4.3,-3.74 1.36,-1.95 -0.09,-1.79 3,-4.22 3.09,-2.43 3,-1.83 6.72,-4.51 3.72,-2.68 4.08,-2.85 5.57,-4.25 1.49,-1.4 2.09,-1.66 3.88,-3.11 1.79,-1.45 1.4,-1.57 1.61,-2.77 0.21,-1.2 0.26,-1.06 1.71,-2.68 1.45,-1.62 1.44,-0.89 2.51,-2.08 1.07,-1.19 0.8,-1.07 0.93,-3.11 0.13,-2.04 0.85,-1.66 1.41,-3.83 0.56,-2.17 -0.43,-1.79 0.85,-4.17 1.28,-2.38 1.7,-1.91 1.91,-3.57 a 13.75,13.75 0 0 1 1.7,-4.77 26.12,26.12 0 0 1 2.94,-4.3 35,35 0 0 1 3.41,-3.78 c 1.53,-1.62 1.91,-2.13 4.46,-2.47 2.55,-0.34 3.19,0.59 4.68,1.32 1.49,0.73 2.3,0.38 3.62,2.38 a 9.28,9.28 0 0 0 2,2.72 c 1.88,2 1.11,2.34 2.3,4.64 a 15,15 0 0 1 1.62,6 c 0.34,2.47 1,3.15 1,6.26 a 63.85,63.85 0 0 0 0.21,6.59 c 0.17,1.54 0.81,2 0.64,3.15 -0.17,1.15 -0.89,0.94 -1.4,2.34 -0.51,1.4 -0.13,1.75 -0.64,3.36 -0.51,1.61 -0.77,1.2 -1.11,3.07 -0.34,1.87 -0.51,1.27 -1.62,3.36 -1.11,2.09 -1.36,2.55 -2.21,4 -0.85,1.45 -0.59,2.17 -1.7,3.32 -1.11,1.15 -2.21,1.49 -4.26,4.46 -2.05,2.97 -2.38,3.45 -3.65,5.07 -1.27,1.62 -2,2.42 -3.75,4.93 -1.75,2.51 -0.72,1.92 -1.74,3.71 a 38.25,38.25 0 0 1 -3.15,4.81 c -1,1.23 -2.05,2.89 -3.11,4.17 -1.06,1.28 -1.79,2.76 -4.3,5.57 -2.51,2.81 -3,4.13 -5.44,6.6 -2.44,2.47 -3.24,3.66 -6.86,7.14 a 50.47,50.47 0 0 1 -5.4,4.81 c -2.38,2 -2,1.45 -5.4,4.09 -3.4,2.64 -2.56,1.66 -4.9,4.17 -2.34,2.51 -2.81,2.3 -4,4.21 -1.19,1.91 -0.68,2 -3.78,2.55 -3.1,0.55 -1.58,0.3 -4.3,1.37 -2.72,1.07 -0.85,1.14 -3.19,2.42 -2.34,1.28 -2.68,0.68 -3.75,1.62 -1.07,0.94 -0.08,1.7 -3.19,2.85 -3.11,1.15 -2.55,1.11 -3.32,2.17 -0.77,1.06 -0.85,0.89 -3.23,1.36 -2.38,0.47 -2.05,1.24 -3.11,1.92 -1.06,0.68 -1.87,0.12 -4.26,1 a 22.85,22.85 0 0 0 -4.17,2.08 c -2.08,1.11 -1,0.39 -5.36,1.24 -4.36,0.85 -1.53,2.42 -7.49,3.06 -5.96,0.64 -4.55,1.28 -8.17,1.62 -3.62,0.34 -3,-0.34 -5.87,1 -2.87,1.34 -2.55,0.85 -4.72,0.93 -2.17,0.08 -2.94,0.07 -5.87,0 -2.93,-0.07 -3.58,0.58 -6,0.71 -2.42,0.13 -3,-0.39 -5.15,-0.3 -2.15,0.09 -2.09,0.12 -4.77,0.32 -2.68,0.2 -2.38,0.53 -4.38,0.66 -2,0.13 -2.51,1.15 -6.3,1.06 -3.79,-0.09 -3.61,0.26 -7.74,0.21 -4.13,-0.05 -5.58,-0.12 -6.94,-0.81 -1.36,-0.69 -1.79,-1.1 -3,-1.06 -1.21,0.04 -2.08,0.85 -3.95,1 -1.87,0.15 -0.9,-1.15 -4.64,-2 -3.74,-0.85 -2.34,-0.51 -4.9,-0.08 -2.56,0.43 -2.08,0 -4,-0.77 -1.92,-0.77 -2.12,0.51 -4,0.13 -1.88,-0.38 -2.72,-0.21 -5.19,-0.59 -2.47,-0.38 -1.11,-0.43 -3.92,-1.66 -2.81,-1.23 -3.06,-1.11 -5.66,-3.2 -2.6,-2.09 -2.89,-1 -4.59,-1.7 -1.7,-0.7 -1.66,-0.51 -4.47,-1.44 -2.81,-0.93 -2,-0.26 -4.42,-1.71 -2.42,-1.45 -2.81,-0.76 -6,-2.29 -3.19,-1.53 -2.09,-1.37 -4.68,-2.64 -2.59,-1.27 -2.9,-1.24 -5.83,-2.6 -2.93,-1.36 -3.92,-1 -6.13,-2.93 A 9.12,9.12 0 0 0 212.44,145 c -1.83,-0.81 -1.32,-0.77 -4.17,-2 -2.85,-1.23 -3.24,-0.81 -6.34,-2.47 -3.1,-1.66 -3.49,-2.51 -6.34,-4.47 -2.85,-1.96 -4,-2.85 -6.94,-4.68 a 38.21,38.21 0 0 1 -6,-4.6 c -2.51,-2.12 -4.3,-3.44 -6,-4.89 -1.7,-1.45 -1.28,-1.66 -3.62,-2.47 -2.34,-0.81 -4.08,-0.81 -5.91,-2.76 -1.83,-1.95 -2.6,-2.43 -5.11,-4.94 -2.51,-2.51 -7.45,-6.72 -10.01,-9.53 -2.56,-2.81 -2.55,-2.85 -4.89,-5.11 -2.34,-2.26 -3.15,-3.87 -6.55,-6.43 -3.4,-2.56 -2.47,-2.29 -4.47,-5 -2,-2.71 -1.62,-2.69 -3.45,-4.81 -1.83,-2.12 -3.32,-2.47 -4.72,-5.15 -1.4,-2.68 -2.47,-3.24 -3.87,-6.3 -1.4,-3.06 -1.58,-2.25 -3.37,-6.55 a 96.12,96.12 0 0 0 -4.85,-10.47 c -2.08,-3.87 -2,-4.89 -3.53,-8.55 -1.53,-3.66 -1.66,-4.73 -2.64,-9 -0.98,-4.27 -0.85,-4.81 -1.83,-8.26 -0.98,-3.45 -1,-4 -1.32,-5.4 a 13,13 0 0 1 -0.34,-4.77 c 0.18,-1.86 0.25,-3.68 3.83,-4.94 z" class="cls-4" inkscape:connector-curvature="0" style="fill:#f2c43e"/>
        <path id="path4365" d="m 295.57,51.46 a 14.46,14.46 0 0 1 -5,-8.46 52.83,52.83 0 0 0 -1.84,-8.73 c -0.91,-3.28 0.4,-4.13 0,-5.58 -0.4,-1.45 -1.57,-1.9 -1.44,-5.38 0.13,-3.48 0.39,-3.21 0.59,-6.5 0.2,-3.29 -0.46,-1.9 0.85,-5.11 1.31,-3.21 2.63,-4.07 3.55,-5.65 a 32.86,32.86 0 0 1 3.87,-4.59 c 1.18,-1.31 3.22,-1.71 5.58,-1.31 2.36,0.4 3.61,0.26 5.58,0.65 a 32.23,32.23 0 0 1 5,1.64 38.1,38.1 0 0 0 5.25,1.05 c 1.18,0.2 3.68,1.12 4.47,1.25 a 20.82,20.82 0 0 0 2.82,0.06 c 0.65,0 1.64,0.46 4.07,0.73 2.43,0.27 2.56,0.59 5.25,0.46 2.69,-0.13 4.39,0.26 6,0 a 20.9,20.9 0 0 1 4.79,-0.66 c 1.84,0.07 2.95,-0.33 4.07,0.66 1.12,0.99 2.36,1.7 3.21,3.34 0.85,1.64 1.84,1.38 2.23,4 0.39,2.62 1.05,2 1.12,5.05 0.07,3.05 0.2,3.21 0.72,4.72 a 17.56,17.56 0 0 1 1,6.3 c -0.07,2.69 -0.53,3.74 -0.4,5.84 0.13,2.1 1.25,1.71 1.05,4.34 a 21.78,21.78 0 0 0 0,4.59 30,30 0 0 1 0.63,4.86 c 0.06,3 0,5.25 0,6.3 a 26.4,26.4 0 0 1 0,5 c -0.29,2.82 -0.88,4.07 -2,5.12 -1.12,1.05 -1.18,1.77 -3.35,3 a 7.51,7.51 0 0 1 -3.67,1.37 10.22,10.22 0 0 1 -4.27,0 c -1.57,-0.19 -1.9,0.46 -4.07,0.23 a 25.93,25.93 0 0 1 -4.72,-0.75 c -2.56,-0.59 -2.1,-0.26 -4,-0.79 -1.9,-0.53 -1.19,-0.2 -3.88,-2 -2.69,-1.8 -2.95,-2 -4.79,-2.43 -1.84,-0.43 -2.43,-1.51 -4.46,-2.17 -2.03,-0.66 -1.71,-1 -3.54,-1.9 -1.83,-0.9 -1.77,-1.57 -3.74,-1.77 -1.97,-0.2 -1.25,-0.53 -3.94,-0.53 a 8.33,8.33 0 0 1 -4.79,-1.11 34.26,34.26 0 0 1 -4.07,-2.5 25.41,25.41 0 0 1 -3.73,-2.64 z" class="cls-5" inkscape:connector-curvature="0" style="fill:#003fa2"/>
        <path id="path4367" d="m 288.62,494.68 c -0.89,0.05 -1.79,0.09 -2.69,0.09 -0.9,0 -1.8,0 -2.69,-0.09 -0.89,-0.09 -1.8,-0.15 -2.68,-0.26 a 42.51,42.51 0 0 1 -10.88,-2.84 c -1,-0.39 -1.9,-0.82 -2.82,-1.27 a 43,43 0 0 1 -23.46,-32.25 40,40 0 0 0 -11.12,-3.18 53.74,53.74 0 0 0 34.18,47 c 0.85,0.34 1.71,0.65 2.59,0.94 a 53.77,53.77 0 0 0 10.51,2.33 c 0.88,0.1 1.77,0.18 2.67,0.25 1.23,0.08 2.46,0.14 3.7,0.14 1.24,0 2.47,-0.06 3.7,-0.14 a 56.21,56.21 0 0 1 -1,-10.61 z" class="cls-6" inkscape:connector-curvature="0" style="fill:#302e2b"/>
        <path id="path4369" d="m 285.93,408.79 a 43,43 0 0 1 41.65,32.32 c 0.23,0.87 0.41,1.75 0.58,2.64 a 43.29,43.29 0 0 1 0.76,8 c 0,1.07 -0.05,2.13 -0.13,3.18 -0.08,1.05 -0.18,2.08 -0.33,3.1 a 43,43 0 0 1 -23.46,32.28 40.94,40.94 0 0 0 -0.26,4.46 40.38,40.38 0 0 0 0.66,7.09 53.74,53.74 0 0 0 34.18,-47 c 0.05,-0.92 0.08,-1.83 0.09,-2.76 0,-0.11 0,-0.23 0,-0.34 a 53.53,53.53 0 0 0 -1,-10.36 c -0.17,-0.89 -0.37,-1.77 -0.58,-2.64 a 53.76,53.76 0 0 0 -104.32,0 56.11,56.11 0 0 1 10.5,2.33 43,43 0 0 1 41.66,-32.3 z" class="cls-6" inkscape:connector-curvature="0" style="fill:#302e2b"/>
        <path id="path4371" d="m 404.15,398 a 53.75,53.75 0 0 0 -52.15,40.78 56.29,56.29 0 0 1 10.5,2.33 43,43 0 1 1 41.65,53.66 c -0.9,0 -1.79,0 -2.69,-0.09 -0.9,-0.09 -1.79,-0.15 -2.68,-0.26 a 42.61,42.61 0 0 1 -10.88,-2.84 c -0.95,-0.39 -1.89,-0.82 -2.81,-1.27 a 43,43 0 0 1 -23.46,-32.25 40.05,40.05 0 0 0 -11.13,-3.18 53.74,53.74 0 0 0 34.18,47 c 0.86,0.34 1.72,0.65 2.59,0.94 a 53.93,53.93 0 0 0 10.51,2.33 c 0.89,0.1 1.78,0.18 2.68,0.25 1.22,0.08 2.45,0.14 3.69,0.14 a 53.74,53.74 0 1 0 0,-107.48 z" class="cls-3" inkscape:connector-curvature="0" style="fill:#d33741"/>
        <path id="path4373" d="m 170.39,494.68 c -0.89,0.05 -1.78,0.09 -2.69,0.09 a 43,43 0 1 1 41.66,-53.66 c 0.22,0.87 0.41,1.75 0.58,2.64 a 43.29,43.29 0 0 1 0.76,8 c 0,1.07 -0.06,2.13 -0.14,3.18 -0.08,1.05 -0.18,2.08 -0.33,3.1 a 43,43 0 0 1 -23.46,32.25 40.94,40.94 0 0 0 -0.26,4.46 39.45,39.45 0 0 0 0.67,7.09 53.74,53.74 0 0 0 34.18,-47 c 0,-0.92 0.08,-1.83 0.08,-2.76 0,-0.11 0,-0.23 0,-0.34 a 54.32,54.32 0 0 0 -1,-10.36 c -0.18,-0.89 -0.37,-1.77 -0.59,-2.64 a 53.75,53.75 0 1 0 -52.16,66.74 c 1.25,0 2.48,-0.06 3.7,-0.14 a 57.05,57.05 0 0 1 -1,-10.61 z" class="cls-5" inkscape:connector-curvature="0" style="fill:#003fa2"/>
        <path id="path4375" d="m 226.82,537.76 a 43,43 0 0 1 -41.66,-32.32 c -0.22,-0.87 -0.41,-1.76 -0.57,-2.64 a 42.61,42.61 0 0 1 -0.76,-8 c 0,-1.08 0,-2.14 0.13,-3.19 0.13,-1.05 0.18,-2.08 0.33,-3.1 a 43,43 0 0 1 23.46,-32.24 41.08,41.08 0 0 0 0.26,-4.46 40.49,40.49 0 0 0 -0.66,-7.1 53.75,53.75 0 0 0 -34.19,47 c 0,0.91 -0.08,1.83 -0.08,2.75 0,0.12 0,0.23 0,0.35 a 53.68,53.68 0 0 0 1,10.36 c 0.17,0.88 0.36,1.76 0.58,2.63 a 53.75,53.75 0 0 0 104.31,0 56.27,56.27 0 0 1 -10.5,-2.32 43,43 0 0 1 -41.65,32.28 z" class="cls-4" inkscape:connector-curvature="0" style="fill:#f2c43e"/>
        <path id="path4377" d="m 224.13,451.87 c 0.89,-0.06 1.78,-0.09 2.69,-0.09 0.91,0 1.8,0 2.69,0.09 0.89,0.09 1.79,0.14 2.68,0.25 a 43,43 0 0 1 10.88,2.88 c 1,0.4 1.89,0.82 2.81,1.28 a 43,43 0 0 1 23.47,32.24 39.9,39.9 0 0 0 11.12,3.19 53.75,53.75 0 0 0 -34.18,-47 c -0.86,-0.33 -1.72,-0.64 -2.59,-0.93 a 53.21,53.21 0 0 0 -10.51,-2.33 c -0.89,-0.11 -1.78,-0.19 -2.68,-0.25 -1.22,-0.08 -2.45,-0.14 -3.69,-0.14 -1.24,0 -2.48,0.06 -3.7,0.14 a 57.05,57.05 0 0 1 1,10.61 z" class="cls-4" inkscape:connector-curvature="0" style="fill:#f2c43e"/>
        <path id="path4379" d="m 345,537.76 a 43,43 0 0 1 -41.65,-32.32 c -0.23,-0.87 -0.41,-1.76 -0.58,-2.64 a 43.46,43.46 0 0 1 -0.76,-8 c 0,-1.08 0.05,-2.14 0.13,-3.19 0.08,-1.05 0.18,-2.08 0.33,-3.1 a 43,43 0 0 1 23.53,-32.27 41.08,41.08 0 0 0 0.26,-4.46 40.49,40.49 0 0 0 -0.66,-7.1 53.74,53.74 0 0 0 -34.18,47 c -0.05,0.91 -0.08,1.83 -0.09,2.75 0,0.12 0,0.23 0,0.35 a 54.48,54.48 0 0 0 1,10.36 c 0.17,0.88 0.37,1.76 0.58,2.63 a 53.76,53.76 0 0 0 104.32,0 56.1,56.1 0 0 1 -10.5,-2.32 43,43 0 0 1 -41.73,32.31 z" class="cls-7" inkscape:connector-curvature="0" style="fill:#299261"/>
        <path id="path4381" d="m 342.35,451.87 c 0.89,-0.06 1.79,-0.09 2.69,-0.09 0.9,0 1.8,0 2.69,0.09 0.89,0.09 1.8,0.14 2.68,0.25 a 42.81,42.81 0 0 1 10.88,2.88 c 1,0.4 1.9,0.82 2.82,1.28 a 43,43 0 0 1 23.46,32.24 40.07,40.07 0 0 0 11.13,3.19 53.78,53.78 0 0 0 -34.19,-47 c -0.85,-0.33 -1.71,-0.64 -2.59,-0.93 a 53.06,53.06 0 0 0 -10.51,-2.33 c -0.88,-0.11 -1.77,-0.19 -2.67,-0.25 -1.22,-0.08 -2.45,-0.14 -3.7,-0.14 -1.25,0 -2.47,0.06 -3.7,0.14 a 56.21,56.21 0 0 1 1,10.61 z" class="cls-7" inkscape:connector-curvature="0" style="fill:#299261"/>
      </g>
    </g>
  </g>
</svg>