<?xml version="1.0" encoding="UTF-8" standalone="no"?>
<!-- Created with Inkscape (http://www.inkscape.org/) -->
<svg xmlns:dc="http://purl.org/dc/elements/1.1/" xmlns:cc="http://creativecommons.org/ns#" xmlns:rdf="http://www.w3.org/1999/02/22-rdf-syntax-ns#" xmlns:svg="http://www.w3.org/2000/svg" xmlns="http://www.w3.org/2000/svg" xmlns:sodipodi="http://sodipodi.sourceforge.net/DTD/sodipodi-0.dtd" xmlns:inkscape="http://www.inkscape.org/namespaces/inkscape" width="33.635658mm" height="76.729164mm" viewBox="0 0 33.635658 76.729164" version="1.1" id="svg8" inkscape:version="0.92.4 (5da689c313, 2019-01-14)" sodipodi:docname="1996_Summer_Olympics_logo.svg">
  <defs id="defs2">
    <style id="style3933">.cls-1{font-size:10.58px;fill:#1c1c19;font-family:HighwayGothic, Highway Gothic;}.cls-2{fill:#003fa2;}.cls-3{fill:#1a1413;}.cls-4{fill:#c12a21;}</style>
    <style id="style4325">.cls-1{fill:#211915;}.cls-2{fill:#ced1d2;}.cls-3{fill:#d33741;}.cls-4{fill:#f2c43e;}.cls-5{fill:#003fa2;}.cls-6{fill:#302e2b;}.cls-7{fill:#299261;}</style>
    <style id="style4486">.cls-1{fill:#29534e;}.cls-2{fill:#816d4e;}.cls-3{fill:#b92c32;}.cls-4{fill:#915eb1;}.cls-5{fill:#0081c6;}.cls-6{fill:#b51a65;}</style>
  </defs>
  <g transform="translate(32.251282,-210.7283)">
    <g transform="matrix(0.12472434,0,0,0.12472434,-32.251282,210.7283)">
      <g>
        <path id="path4492" d="m 18.8,562.68 13.91,49.42 h 2.76 v 2.33 H 18.62 v -2.33 h 4.11 L 19.08,597.84 H 9.67 L 7.22,608.1 a 10.93,10.93 0 0 0 -0.28,2.32 1.82,1.82 0 0 0 2.06,1.85 h 1.94 v 2.16 H 0 v -2.08 h 1 c 2,-0.22 3,-1.27 3.6,-3.73 l 11.78,-45.94 h 2.42 m -0.39,32.93 -4,-15.92 h -0.1 l -4,15.92 z" class="cls-1" inkscape:connector-curvature="0" style="fill:#29534e"/>
        <path id="path4494" d="m 45.56,566.61 v 14.55 h 4.84 v 2.21 h -4.84 v 23.89 c 0,2.33 0.35,3.94 1.58,3.94 1.23,0 2.19,-2.16 2.75,-3.29 l 1.37,1 c -1.66,3.87 -3.47,6.24 -7.71,6.24 -2.26,0 -6.21,-2.21 -6.21,-8.62 V 583.37 H 34.4 v -2.19 c 6.26,0 9,-8.14 9.24,-14.58 h 1.92" class="cls-1" inkscape:connector-curvature="0" style="fill:#29534e"/>
        <polyline id="polyline4496" points="64.3 562.68 64.29 611.95 67.95 611.95 67.95 614.43 52.38 614.45 52.38 611.95 56.07 611.95 56.07 564.92 52.38 564.92 52.38 562.68 64.3 562.68" class="cls-1" style="fill:#29534e"/>
        <path id="path4498" d="m 85.83,611.28 a 8.43,8.43 0 0 1 -7.12,3.79" class="cls-1" inkscape:connector-curvature="0" style="fill:#29534e"/>
        <path id="path4500" d="m 85.83,611.28 a 8.43,8.43 0 0 1 -7.12,3.79" class="cls-1" inkscape:connector-curvature="0" style="fill:#29534e"/>
        <path id="path4502" d="m 110.32,581.37 v 4 h 0.11 c 1.76,-2.79 4.44,-4.94 8.27,-4.94 5.14,0 7.61,3.66 7.61,11.78 v 20 H 130 v 2.32 h -14.85 v -2.32 h 2.91 V 589 c 0,-3.68 -1.1,-4.94 -2.42,-4.94 -2.88,0 -5.24,5.29 -5.24,8.55 v 19.61 h 2.94 v 2.31 H 98.48 v -2.32 h 3.72 v -28.62 h -3.72 v -2.21 h 11.84" class="cls-1" inkscape:connector-curvature="0" style="fill:#29534e"/>
        <path id="path4504" d="m 141.85,566.65 v 14.55 h 4.84 v 2.2 h -4.84 v 23.9 c 0,2.33 0.36,3.94 1.58,3.94 1.22,0 2.19,-2.16 2.75,-3.29 l 1.37,1 c -1.65,3.87 -3.47,6.24 -7.71,6.24 -2.26,0 -6.2,-2.21 -6.2,-8.62 V 583.4 h -2.94 v -2.18 c 6.24,0 9,-8.13 9.23,-14.57 h 1.92" class="cls-1" inkscape:connector-curvature="0" style="fill:#29534e"/>
        <path id="path4506" d="m 78.66,615.06 c -4.16,0 -8.64,-2.63 -8.64,-9.28 0,-7.74 4.88,-9.86 10.52,-10.46 l 4.69,-0.59 v -5.85 c 0,-4.47 -0.58,-6.5 -4,-6.5 -2.08,0 -4.35,0.73 -4.34,1.65 0.01,0.92 2.63,1.11 2.63,4.48 0,3.1 -1.32,5 -3.7,5 -2.57,0 -3.84,-2.34 -3.84,-5.4 0,-4.38 4.18,-8 9.62,-8 5.44,0 11.56,2.28 11.56,10.78 v 16.5 c 0,2.32 -0.09,3.59 0.87,3.59 0.96,0 1.24,-2.22 1.24,-4.16 h 1.81 c 0.42,5.26 -2.42,8.15 -5.89,8.15 a 5.34,5.34 0 0 1 -5.41,-3.71 M 85.22,597 l -3.68,0.52 c -3.48,0.6 -3.19,3.66 -3.19,6.58 0,3.88 0.23,7.82 3.19,7.82 2.36,0 3.7,-3.78 3.68,-6.94 z" class="cls-1" inkscape:connector-curvature="0" style="fill:#29534e"/>
        <path id="path4508" d="m 158,615.18 c -4.16,0 -8.64,-2.64 -8.64,-9.28 0,-7.75 4.88,-9.87 10.51,-10.47 l 4.7,-0.59 V 589 c 0,-4.46 -0.58,-6.5 -4,-6.5 -2.08,0 -4.35,0.72 -4.34,1.67 0.01,0.95 2.63,1.1 2.63,4.47 0,3.1 -1.33,5 -3.7,5 -2.58,0 -3.84,-2.35 -3.84,-5.41 0,-4.38 4.18,-8 9.62,-8 5.44,0 11.56,2.28 11.56,10.76 v 16.51 c 0,2.32 -0.09,3.6 0.87,3.6 0.96,0 1.24,-2.23 1.24,-4.17 h 1.82 c 0.42,5.26 -2.43,8.14 -5.9,8.14 a 5.34,5.34 0 0 1 -5.41,-3.7 m -0.56,-14.23 -3.67,0.53 c -3.48,0.6 -3.2,3.66 -3.2,6.58 0,3.87 0.23,7.81 3.2,7.81 2.34,0 3.69,-3.76 3.67,-6.93 z" class="cls-1" inkscape:connector-curvature="0" style="fill:#29534e"/>
        <path id="path4510" d="m 165.14,611.38 a 8.43,8.43 0 0 1 -7.12,3.8" class="cls-1" inkscape:connector-curvature="0" style="fill:#29534e"/>
        <path id="path4512" d="m 165.14,611.38 a 8.43,8.43 0 0 1 -7.12,3.8" class="cls-1" inkscape:connector-curvature="0" style="fill:#29534e"/>
        <path id="path4514" d="m 183.12,579.69 -0.83,-2.21 c 4,-3.75 8.59,-8.59 10.38,-12.09 h 3.63 v 46.78 h 4 v 2.32 h -15.01 v -2.32 h 4.08 v -34.85 c 0,-1.39 -0.25,-2.13 -1.22,-1.79 -0.78,0.24 -4.34,3.54 -5,4.16" class="cls-1" inkscape:connector-curvature="0" style="fill:#29534e"/>
        <path id="path4516" d="m 202.61,612.22 c 4,0 9.61,-3.66 10.72,-12.36 a 29.81,29.81 0 0 0 0.36,-5.29 h -0.08 a 5,5 0 0 1 -4.35,2.23 c -4.56,0 -8.82,-4.38 -8.82,-15.5 0,-10.43 4.3,-16.76 10.6,-16.76 7,0 11,8.94 11,18.78 0,15.9 -7.6,31.18 -19.42,31.18 v -2.28 m 8.35,-19 c 1.92,0 3.2,-3.65 3.2,-11.19 0,-8.32 -0.42,-14.91 -3.11,-14.91 -2.31,0 -3.26,2.46 -3.26,12.35 -0.01,10.53 1.2,13.78 3.2,13.78 z" class="cls-1" inkscape:connector-curvature="0" style="fill:#29534e"/>
        <path id="path4518" d="m 226.72,612.2 c 4.05,0 9.6,-3.64 10.71,-12.35 a 31,31 0 0 0 0.37,-5.28 h -0.09 a 5,5 0 0 1 -4.35,2.21 c -4.56,0 -8.82,-4.38 -8.82,-15.49 0,-10.43 4.31,-16.76 10.61,-16.76 7,0 11,9 11,18.77 0,15.92 -7.6,31.19 -19.42,31.19 v -2.29 m 8.34,-19 c 1.93,0 3.21,-3.66 3.21,-11.19 0,-8.33 -0.43,-14.93 -3.12,-14.93 -2.31,0 -3.25,2.46 -3.25,12.35 0,10.57 1.15,13.82 3.15,13.82 z" class="cls-1" inkscape:connector-curvature="0" style="fill:#29534e"/>
        <path id="path4520" d="m 267.52,566.94 c -4.06,0 -9.62,3.65 -10.73,12.35 a 30.76,30.76 0 0 0 -0.36,5.29 h 0.08 a 5,5 0 0 1 4.36,-2.23 c 4.56,0 8.81,4.37 8.81,15.5 0,10.43 -4.3,16.75 -10.6,16.75 -7,0 -11,-9 -11,-18.76 0,-15.92 7.59,-31.19 19.43,-31.19 v 2.29 m -8.36,18.95 c -1.91,0 -3.2,3.65 -3.2,11.19 0,8.32 0.43,14.92 3.12,14.92 2.31,0 3.25,-2.47 3.25,-12.35 0,-10.54 -1.14,-13.76 -3.16,-13.76 z" class="cls-1" inkscape:connector-curvature="0" style="fill:#29534e"/>
        <rect id="rect4522" height="548.65002" width="269.67999" class="cls-1" x="0" y="0" style="fill:#29534e"/>
        <path id="path4524" d="M 99.71,447.53 V 531 H 94 v -77.7 h -4.07 c 0,0 0,-5.75 0,-5.75 0,0 9.8,-0.08 9.78,0" class="cls-2" inkscape:connector-curvature="0" style="fill:#816d4e"/>
        <polygon id="polygon4526" points="26.89,348.2 26.89,360.09 21.38,360.09 21.38,342.69 248.3,342.66 248.3,360.11 242.79,360.11 242.79,348.17 " class="cls-2" style="fill:#816d4e"/>
        <path id="path4528" d="m 130.11,447.49 a 8.49,8.49 0 0 0 -8.52,8.33 v 66.83 a 8.52,8.52 0 0 0 17,0 v -66.83 a 8.49,8.49 0 0 0 -8.48,-8.33 z m 2.89,75.16 a 2.93,2.93 0 0 1 -2.93,2.76 2.87,2.87 0 0 1 -2.91,-2.76 v -66.83 a 2.89,2.89 0 0 1 2.91,-2.77 2.94,2.94 0 0 1 2.93,2.77 z" class="cls-2" inkscape:connector-curvature="0" style="fill:#816d4e"/>
        <path id="path4530" d="m 167.21,447.49 a 8.5,8.5 0 0 0 -8.53,8.33 v 66.82 a 8.53,8.53 0 0 0 17.06,0 v -66.82 a 8.5,8.5 0 0 0 -8.53,-8.33 z m 2.94,75.15 a 3,3 0 0 1 -2.94,2.78 2.89,2.89 0 0 1 -2.91,-2.78 v -66.82 a 2.89,2.89 0 0 1 2.91,-2.78 3,3 0 0 1 2.94,2.78 z" class="cls-2" inkscape:connector-curvature="0" style="fill:#816d4e"/>
        <path id="path4532" d="m 80.62,187.37 c 15.43,23.11 39.22,32.83 63.14,41.85 19.68,7.07 40.92,11.84 55.75,29.17 10.18,11.72 12.25,29.23 7.25,43.87 -3.1,9.7 -10.76,18.56 -19.84,24.33 -7.6,4.78 -16.81,7.16 -25.65,7.81 h -1.11 c 9,-5.55 14,-12 12.77,-22.8 -1,-6.28 -4.85,-13.49 -10.44,-17.53 -12.7,-9.27 -22.27,-11.47 -33.78,-18 C 114.39,269 100.22,255.76 93.94,241 a 22.17,22.17 0 0 0 -1.61,4.26 c -4.7,17.66 -0.89,39.2 5.06,53.4 5.61,13.34 15.31,28.11 28.89,35.64 -2.65,0.38 -5.41,0.05 -8.11,0.05 -24,-1.52 -44.81,-14.82 -59.55,-34 A 103.51,103.51 0 0 1 43,272.08 c -4.77,-12.92 -7,-26.82 -7.37,-41.51 l 0.12,-3.08 c 8.51,10.21 18.37,15.86 31.66,17.32 -26.14,-36.95 1,-80.48 2.1,-81.89 1.26,8.69 6.18,17.15 11.11,24.45 z" class="cls-3" inkscape:connector-curvature="0" style="fill:#b92c32"/>
        <path id="path4534" d="m 134.84,19.3 c 0.07,0 4.62,14.84 4.62,14.84 h 15.12 l -12.29,9.23 4.55,14.63 -12.07,-9 -11.94,8.94 4.48,-14.63 -12.21,-9.17 h 15.12 z" class="cls-2" inkscape:connector-curvature="0" style="fill:#816d4e"/>
        <path id="path4536" d="m 193.73,45.41 c 5.88,4 12.92,9 18.14,14.22 -5.33,-0.05 -11.89,-0.38 -17,0.28 0,0 0.62,14.1 -1,21 a 126.68,126.68 0 0 0 -12,-18.2 149.75,149.75 0 0 0 -20.29,5.33 c 3.18,-6.21 7.7,-12.25 11.54,-18.24 a 150.1,150.1 0 0 0 -12.84,-13.72 62.89,62.89 0 0 1 21.06,4 53,53 0 0 1 10.24,-11.94 95.58,95.58 0 0 1 2.15,17.27 z" class="cls-4" inkscape:connector-curvature="0" style="fill:#915eb1"/>
        <path id="path4538" d="m 199.08,92.7 c 5.07,-1.76 14.59,-5.09 22.84,-13.64 0,0 -0.26,18.55 -8.36,30.9 7.18,10.37 12.15,17.47 12.66,35.05 -8.92,-10.71 -21.88,-16.66 -21.88,-16.66 -6.08,9.74 -17.77,26.29 -29.76,32.26 0.92,-2.2 9,-25.33 7.26,-38.51 -8.39,-3.61 -18.4,-4 -28.78,-3.12 7.19,-8.93 18.4,-15.17 27.54,-19.17 A 82.31,82.31 0 0 0 174.07,77 58.33,58.33 0 0 1 199.08,92.7 Z" class="cls-5" inkscape:connector-curvature="0" style="fill:#0081c6"/>
        <path id="path4540" d="m 154.74,162.5 c 9.45,3.44 37.41,5.06 54.63,0.54 -3,9.4 -18.34,26.86 -35.81,33 0,0 7.27,23.34 35.24,41.6 0,0 -33.06,-1.08 -58.38,-14.87 -69.5,-40.28 -56.25,-93.75 -53.34,-101.11 5.27,19.12 19.63,30.91 19.63,30.91 3.86,-34.38 29.37,-52.75 33.71,-55 -12.42,35.57 4.27,64.85 4.32,64.93 z" class="cls-6" inkscape:connector-curvature="0" style="fill:#b51a65"/>
        <path id="path4542" d="m 197.11,360.11 a 28.32,28.32 0 0 0 -27.8,22.89 27.91,27.91 0 0 0 -6.67,0 28.32,28.32 0 0 0 -55.6,0 27.91,27.91 0 0 0 -6.67,0 28.41,28.41 0 1 0 -24.46,33.48 28.31,28.31 0 0 0 55.59,0 28,28 0 0 0 6.68,0 28.31,28.31 0 0 0 55.59,0 28.3,28.3 0 1 0 3.34,-56.41 z M 49.92,388.42 a 22.65,22.65 0 0 1 44.91,-4.15 28.29,28.29 0 0 0 -19.43,26.61 22.05,22.05 0 0 1 -2.83,0.18 22.64,22.64 0 0 1 -22.65,-22.64 z m 45.22,1.76 a 22.63,22.63 0 0 1 -14,19.2 22.68,22.68 0 0 1 14,-19.2 z m 8.57,43.61 a 22.65,22.65 0 0 1 -22.26,-18.49 28.33,28.33 0 0 0 19.43,-26.62 22.26,22.26 0 0 1 5.65,0 28.33,28.33 0 0 0 19.47,26.62 22.64,22.64 0 0 1 -22.29,18.49 z m 8.56,-43.61 a 22.68,22.68 0 0 1 14,19.2 22.64,22.64 0 0 1 -14,-19.2 z m 19.73,20.7 a 28.29,28.29 0 0 0 -19.43,-26.61 22.64,22.64 0 0 1 44.52,0 28.3,28.3 0 0 0 -19.43,26.61 22.34,22.34 0 0 1 -5.66,0 z m 25.4,-20.7 a 22.64,22.64 0 0 1 -14,19.2 22.68,22.68 0 0 1 14.01,-19.2 z m 8.6,43.61 a 22.64,22.64 0 0 1 -22.26,-18.49 28.33,28.33 0 0 0 19.43,-26.62 22.26,22.26 0 0 1 5.65,0 28.33,28.33 0 0 0 19.43,26.62 22.64,22.64 0 0 1 -22.25,18.49 z m 8.56,-43.61 a 22.68,22.68 0 0 1 14,19.2 22.63,22.63 0 0 1 -14.02,-19.2 z m 22.57,20.88 a 22.05,22.05 0 0 1 -2.83,-0.18 28.3,28.3 0 0 0 -19.43,-26.61 22.65,22.65 0 1 1 22.26,26.79 z" class="cls-2" inkscape:connector-curvature="0" style="fill:#816d4e"/>
      </g>
    </g>
  </g>
</svg>