<svg enable-background="new 0 0 1000 1232.626" height="351.140997" viewBox="0 0 1000 1232.626" width="284.785886" xmlns="http://www.w3.org/2000/svg"><path d="m978.169 838.868c-7.455 8.067-17.967 15.123-28.758 18.658-1.568-14.06 8.864-27.442 16.093-38.924 6.047-1.475 10.339 1.422 13.754 2.99 4.546 2.259 2.792 12.2-1.089 17.276m-77.436 1.967c-.704 5.103-4.492 8.532-8.186 11.655-5.635 4.731-13.847 8.08-20.851 10.711-1.263-19.734 15.455-31.854 19.469-49.396 12.319 4.026 8.359 17.581 9.568 27.03zm-111.084 10.857c6.113-13.741 14.977-27.575 17.316-43.416.067-.478.067-.93.067-1.395-.027-.186-.12-.385-.253-.572-.12-.186-.319-.385-.438-.571-.412-.625-.824-1.103-1.236-1.701-.159-.186-.305-.385-.505-.571-.186-.12-.372-.252-.571-.346-.598-.346-1.289-.412-1.887-.784-.292-.199-.571-.412-.917-.478-.385-.027-.784-.066-1.169.027-.186.04-.425.027-.585.106-14.977 7.083-26.897 18.166-34.02 32.572-7.229 11.203-1.568 24.16 5.302 34.937 2.419 4.279 17.037 4.372 24.173 1.302 1.183-.505 10.007-5.768 13.223-8.465 9.768-8.199 21.515-14.91 30.007-25.728 6.366-10.857.518-22.552-4.173-32.851 13.436.691 26.339.492 38.034 7.043 1.13 2.366 1.661 1.528 1.767 3.973-6.591 16.691-25.13 25.475-25.914 46.339.213 22.326 8.917 21.768 12.439 20.824 21.674-9.515 48.665-21.874 57.927-43.296 1.941-17.329-12.864-29.13-25.648-36.359l.013-.346c13.409-4.146 73.197-5.741 58.951 12.053-9.754 9.209-21.276 17.09-25.117 31.429-1.342 8.891.665 18.1 5.475 25.608.452.704 1.515 1.289 2.113 1.409.598.133 1.169.226 1.767.412.625.186 1.236.12 1.86.066.133-.04.279-.159.439-.226.106 0 .226 0 .292-.027.159-.159.412-.346.598-.266 3.243 1.528 6.179-1.794 9.475-1.302 18.512-7.415 35.004-15.881 47.961-31.216 5.023-9.156 4.93-21.462-1.316-31.163-7.256-7.92-18.379-1.754-27.31.066-.651-3.708-3.229-7.296-6.512-8.731-24.12-8.08-52.971-6.525-78.951-5.449-.067 0-.067-.133-.067-.133-.093-.252-.173-.465-.346-.638-.04-.08-.119-.159-.159-.253-.133-.292-.465-.585-.758-.625-.97-.093-1.9.08-2.87.04-.04 0-.08-.133-.08-.133-.385 0-.505-.332-.718-.545-.119-.08-.332-.08-.425 0-.372.346-.664.718-1.01 1.103-2.033 2.286-4.306 4.332-5.568 7.163l-41.848-4.89-4.957-4.319c-3.654-1.914-8.199 1.701-11.402 2.379-3.269.319-3.748 4.12-3.974 6.685-1.09 7.123 7.11 2.166 9.024 7.495 1.409 4.372 1.754 8.731 1.927 13.435 1.435 17.023-15.07 25.528-26.924 32.319-.385.213-.904-.013-1.276-.292-.066-.027-.186-.027-.252-.066-.226-.093-.439-.12-.638-.253-.093-.053-.253-.027-.306-.159-.067-.12.027-.279-.106-.399-.026-.067-.093-.067-.093-.106-.12-.279.067-.532.159-.811"/><path d="m622.166 921.394c2.113 4.106 4.771 7.907 7.947 11.349 5.994 6.299 14.459.053 22.273 1.143 0 0 106.446-15.03 120.984-15.774 9.436-1.036 25.303-4.864 36.825-9.316 6.06-1.143 13.209-.013 19.269-1.156 1.861-.452 2.272-.08 4.133-.531 2.565-.904 5.701-3.575 4.292-5.329-1.887-2.193-5.223-3.88-8.253-4.957-.239-.226-1.874-1.09-2.339-1.09-.704-.438-1.409-.651-2.113-1.09-.93-.213-1.861-.213-2.804-.638-5.143-1.289-4.492-1.249-9.635-2.538-38.446-5.754-91.23-2.432-132.413 2.326 10.737-11.907 23.867-26.126 37.17-37.741 18.086-18.618 45.967-39.283 37.874-71.363-2.432-6.924-20.173-35.017-89.729-4.253-8.333 4.465-17.914 7.415-23.894 15.535-1.316 1.768-1.927 4.665-.213 6.538.306.505.479 1.648.625 2.565.479 2.897 2.937 2.193 4.346 4.239.332.492.771.85 1.223 1.223 3.654 3.07 8.797 8.479 14.033 4.851 18.817-31.456 65.476-42.193 74.672-27.15 2.073 3.934.013 7.92-2.352 12.013-29.993 38.406-70.791 70.672-100.705 104.878-5.223 1.09-7.455 4.133-9.807 7.468-.107.146-.319.279-.399.399-.133.253-.292.505-.465.718-.665.97-1.342 1.728-2.02 2.698-.173.213-.173.545-.332.837-.213.385-.173.93 0 1.395.04.12.159.252.292.372.505.797.97 1.515 1.435 2.272"/><path d="m174.095 864.729c-1.116-1.076-.89-2.671-1.023-4.013 5.489-16.691 14.844-32.173 21.143-48.253.053-.12.133-.226.173-.346.146-.425.08-.837.027-1.262 0-.093-.067-.186-.067-.266-.053-.372-.239-.664-.266-1.023-.054-.545-.054-1.05 0-1.595 0 0 0-.053.026-.093.04-.12-.026-.226 0-.359.093-.239.239-.412.332-.625.066-.146.093-.359 0-.505-.053-.12-.213-.239-.292-.399 0-.053 0-.12-.04-.173-.146-.213-.292-.425-.505-.571-.359-.213-.625-.478-.904-.758-.571-.505-.957-1.223-1.648-1.555-.305-.146-.691-.213-.904-.478-.385-.027-.797.106-1.116-.08-.997-.598-1.529-1.515-2.658-.12-.04.04-.213-.013-.332-.013.026-.053-.027-.12-.053-.146-.213-.146-.452-.146-.691-.266-.159-.066-.186-.279-.452-.066-.292.226-.545.478-.811.718l-6.605 4.691c-21.236 25.13-36.718 81.529 2.405 64.732 14.153-7.083 25.064-16.984 36.917-26.724-3.548 12.439-6.525 22.685-10.499 35.283-6.698 24.465-15.136 50.898-10.033 74.712 2.273 3.256 2.193 10.498 7.003 10.087 2.764-2.831 8.811-.665 8.505-6.778-3.867-8.013 5.808-10.312 5.808-17.927 6.073-36.505 17.861-75.961 25.568-111.19l4.731-6.831c-.053-4.12-4.784-5.356-6.472-9.169-5.887 1.462-12.757-2.565-17.489 4.266.226 1.701 1.342 3.641.505 5.103-12.146 16.598-28.559 30.499-46.433 42.047-.226.146-.438.146-.664.292-.146.093-.385.133-.545.199-.266.12-.571.027-.837-.12-.213-.12-.664-.146-.877-.239-.266-.12-.531-.053-.797-.12-.037-.001-.09-.027-.13-.067"/><path d="m145.218 849.287c-1.954 7.15-2.645 13.023-6.791 18.871-11.907 17.98-33.21 33.316-49.462 46.964-12.745 10.738-31.642 30.724-43.27 42.525-1.103 1.568-2.698.784-2.299-2.06 0-.013.053 0 .08 0-.027-.213.067-.425.093-.638.053-.425.053-.837 0-1.262 0-.08-.186-.173-.213-.266-.093-.332-.239-.625-.452-.877-.12-.146-.08-.359 0-.505 17.369-31.389 44.545-58.778 63.881-90.326 5.249-7.854 9.342-14.671 6.711-22.153-5.595-19.535-53.143-2.671-62.22.359-.186.053-.386-.053-.625.093-.093.093-.333.12-.425 0-.146-.12-.292-.239-.452-.319-1.249-.678-3.15 2.631-5.369 2.432-.027 0-.093-.066-.093-.066 0-.12-.053-.213-.079-.306-.04-.12-.12-.213-.16-.319-.053-.12-.213-.093-.359-.093-.479 0-.957-.027-1.435.027-.718.093-1.435.186-2.113.08-1.675-.279.053 1.196-1.183 1.595l-.04.04c-1.289 0-2.472-.372-3.761-.133-.957.159-1.914-.08-2.871.159-1.209.319-2.405.478-3.601.558-2.087.159-4.239.239-6.326 0-1.595-.159-3.043-.478-4.638-.718-1.116-.239-2.087-.638-3.123-1.037-.638-.332-1.116-.651-1.674-1.13-.319-.159-.731-.066-1.05-.239-5.035-2.791-10.643-9.143-11.759-16.027-1.98-24.452 17.502-41.356 30.791-56.798 21.143-20.678 46.246-37.462 71.283-53.569.571-.359 1.116-.651 1.714-.944.545-.306 1.143-.478 1.741-.611.545-.12 1.023-.239 1.555-.359.306-.12.492-.359.784-.478.306-.053.598-.173.904-.239.718-.12 1.316-.478 1.98-.651 1.621-.306 3.176.359 4.744-.133 2.272-.718 4.612-.532 6.95-.771.478-.066.97-.478 1.501-.598.545-.066 1.024-.12 1.568-.239 1.129-.186 2.033-.784 3.176-.97.305-.053.598-.12.904 0 .292.12.598.306.957.372.651.053 1.316-.067 1.98.173v.12c.053.067.173 0 .173.04 0-.04-.12.027-.173-.159.173.425.359.784.425 1.076.359 2.95.239 5.821.532 8.758 0 .252.066.545.12.85.359 1.076.904 2.033 1.262 3.176 0 .186.12.359.305.545.054.12.054.359.12.478h.12v.12c.053.053.106.133.226.146 5.17.266 1.648 6.817 2.618 10.312 2.698 6.831-.638 9.648-14.246 21.834-29.515 13.741-61.316 26.286-87.801 53.422-1.515 1.542-4.731 4.625-6.046 7.721 15.827 2.392 34.738-3.588 50.459-4.439 18.764-4.173 45.595-4.372 58.672 13.688 3.774 5.528 6.857 12.133 5.674 19.349-.026.186.279.253.399.372.093.08-.026.292.067.412.146.213.173.399.146.598 0 .093-.067.186-.093.306-.026.266-.026.505-.146.744-.121.306-.188.811-.267 1.117"/><path d="m492.065 806.482s12.213 13.608-19.601 34.406c0 0 2.099-29.103 19.601-34.406m-15.708 40.346c12.452-9.807 27.92-17.01 33.489-34.778.797-3.987 3.442-20.425-8.758-18.844-27.057 2.658-47.549 21.794-47.23 55.363 0 0-4.917 4.213-7.92 4.425-4.745.306-7.508-3.814-8.625-5.741-6.113-13.675-9.741-34.406-23.814-40.333-9.754.12-20.997 5.754-27.947 13.023-1.94-7.375-8.066-17.183-16.093-18.618-1.688-.306-2.499.239-4.279 2.033-.266.266-.811.545-1.289.718-.651 0-1.648.904-1.462 1.648 4.957 19.296-10.459 40.904-6.924 60.931 4.492 4.797 2.724 13.396 10.14 12.067 3.137.186 6.299-1.488 8.439-2.977 10.206-11.748 13.156-27.708 13.515-43.881 4.811-5.781 14.339-13.954 18.871-11.083 6.924 18.525 5.462 46.18 26.246 52.811 10.206 2.671 16.85-3.641 23.322-9.037 2.286 5.621 4.957 8.944 10.485 9.595 10.259 2.458 24.16-7.362 36.545-17.595 7.628-6.432 16.558-14.445 24.306-20.558-3.123 13.661-.93 26.352 5.302 38.113 1.356 3.389 9.847 2.711 14.18-1.701 5.741-8.253 13.887-13.861 19.827-20.16 4.279-4.478 8.345-10.06 13.036-13.09-1.09 16.173-19.083 67.695-19.508 84.519-.492 16.705.757 35.19 11.11 47.655 2.883.013 5.927-.412 8.545-3.07l-.04-.066c-.026-.226-.067-.465-.226-.691-.026-.067.027-.199 0-.266-.026-.106-.026-.199-.067-.306-.292-.558-.731-1.023-1.023-1.595 0-.027 0-.093 0-.133-.133-.093-.173-.252-.199-.385-.106-.372-.106-.771 0-1.13.066-.266.066-.532.159-.771.106-.159.199-.292.306-.425.066-.04.093-.133.199-.199.027-.027.013-.133.013-.239-.266-13.302 7.601-27.163 6.924-41.449 2.831-23.296 22.033-82.047 14.857-103.43-.027-.093.08-.319.186-.478.266-.266.292-.638.558-.93.04-.066.066-.173.066-.239.133-.957-.159-1.887-.598-2.751-.133-.266-.492-.465-.718-.731-.173-.199-.279-.425-.505-.558-.292-.133-.531-.306-.797-.505-.359-.226-.558-.558-.824-.93-.239-.399-.372-.784-.598-1.183-.173-.239-.438-.399-.731-.332-.359.133-.731.053-1.09.08-5.196.292-10.99-4.638-16.08.731-2.047 20.199-17.329 30.1-30.924 40.253-2.791 2.166-1.94-5.648-2.06-8.08-.12-2.419.479-13.196 1.289-16.08.771-2.698 3.083-12.346 2.432-15.721-.146-.718-.199-1.342-.505-1.94-.186-.266-.492-.332-.731-.399-.12-.08-.239-.146-.306-.346-.12-.133-.305-.133-.478-.133-.731-.133-1.529-.199-2.246.066-.306.066-.678.266-.97.266-1.103.146-2.126.213-3.229.478-.478.133-.97.399-1.449.598-1.634.678-3.335.664-5.01.598-6.578-.226-1.754 6.857-4.279 9.927-14.924 14.273-40.665 34.884-47.921 35.774-6.894.176-6.894-7.785-6.894-7.785z"/><path d="m316.994 836.715c-13.688-4.983-27.416 3.96-37.117 13.635-4.266 5.356-9.395 11.083-9.422 18.924 18.086-4.067 34.525-18.578 46.539-32.559m23.162-15.827c1.515 8.665 1.98 17.396 4.651 25.661-2.764 2.764-5.754 2.937-8.744 2.844-2.299-3.043-7.495-6.14-11.229-8.412-16.346 18.233-49.502 41.555-58.286 41.555-5.94 1.94-13.847-8.532-15.229-13.568-7.628-46.406 55.057-61.104 66.366-60.519-.85-23.097 5.449-58.712 18.897-77.888 1.86-3.083 4.983-2.95 7.588-3.256 12.226 10.433-1.05 82.859-4.014 93.583z"/><path d="m476.078 1156.493c-3.933 34.937-33.568 62.1-69.542 62.1-38.659 0-69.994-31.349-69.994-70.007 0-29.595 18.392-54.898 44.373-65.13.691-3.854 1.05-7.827 1.05-11.88 0-1.116-.027-2.233-.08-3.336-34.379 10.538-59.376 42.525-59.376 80.346 0 46.419 37.622 84.041 84.028 84.041 42.937 0 78.339-32.226 83.389-73.808-4.745-.413-9.37-1.184-13.848-2.326" fill="#f90"/><path d="m402.815 1078.698c1.236-.066 2.471-.106 3.721-.106 33.675 0 61.795 23.801 68.479 55.495 4.704 1.701 9.661 2.897 14.804 3.495-5.395-41.196-40.612-73.011-83.283-73.011-1.25 0-2.485.027-3.721.093.172 2.272.292 4.571.292 6.91 0 2.393-.106 4.772-.292 7.124" fill="#f90"/><path d="m318.92 1148.585c0-2.392.106-4.771.306-7.123-1.236.066-2.485.106-3.734.106-38.658 0-69.994-31.349-69.994-69.994 0-38.658 31.336-70.007 69.994-70.007s69.994 31.349 69.994 70.007c0 29.595-18.379 54.884-44.346 65.117-.704 3.867-1.076 7.841-1.076 11.894 0 1.116.027 2.233.08 3.336 34.379-10.538 59.376-42.525 59.376-80.346 0-46.406-37.622-84.027-84.027-84.027s-84.027 37.622-84.027 84.027c0 46.406 37.622 84.027 84.027 84.027 1.249 0 2.485-.04 3.721-.093-.174-2.286-.294-4.585-.294-6.924" fill="#00479c"/><path d="m428.051 1063.641c3.947-34.924 33.568-62.074 69.542-62.074 38.658 0 69.994 31.349 69.994 70.007 0 29.582-18.379 54.871-44.333 65.117-.704 3.867-1.103 7.827-1.103 11.894 0 1.116.027 2.233.08 3.336 34.379-10.538 59.389-42.525 59.389-80.346 0-46.406-37.622-84.027-84.027-84.027-42.938 0-78.327 32.2-83.389 73.768 4.731.412 9.355 1.196 13.847 2.325"/><path d="m501.008 1148.585c0-2.392.106-4.771.306-7.123-1.236.066-2.472.106-3.721.106-33.675 0-61.795-23.788-68.479-55.469-4.717-1.714-9.674-2.884-14.804-3.482 5.408 41.183 40.625 72.984 83.283 72.984 1.249 0 2.485-.04 3.721-.093-.186-2.285-.306-4.584-.306-6.923"/><path d="m658.166 1156.506c-3.934 34.924-33.555 62.087-69.542 62.087-38.658 0-69.994-31.349-69.994-70.007 0-29.595 18.392-54.898 44.359-65.13.704-3.854 1.076-7.827 1.076-11.88 0-1.116-.026-2.233-.08-3.336-34.379 10.538-59.389 42.525-59.389 80.346 0 46.419 37.622 84.041 84.027 84.041 42.937 0 78.326-32.213 83.389-73.781-4.743-.413-9.354-1.211-13.846-2.34" fill="#008b46"/><path d="m585.209 1071.575c0 2.392-.106 4.771-.292 7.123 1.223-.066 2.458-.106 3.708-.106 33.688 0 61.808 23.801 68.479 55.509 4.718 1.701 9.674 2.884 14.804 3.482-5.395-41.196-40.612-73.011-83.283-73.011-1.25 0-2.485.027-3.721.093.185 2.272.305 4.571.305 6.91" fill="#008b46"/><path d="m679.681 987.547c-42.937 0-78.313 32.2-83.376 73.768 4.731.399 9.355 1.209 13.834 2.339 3.933-34.924 33.568-62.087 69.542-62.087 38.658 0 69.994 31.349 69.994 70.007 0 38.645-31.336 69.994-69.994 69.994-33.688 0-61.821-23.814-68.492-55.522-4.704-1.701-9.661-2.87-14.791-3.468 5.396 41.196 40.612 73.024 83.283 73.024 46.406 0 84.027-37.622 84.027-84.027.001-46.406-37.621-84.028-84.027-84.028" fill="#e6222a"/><g fill="#f90"><path d="m610.432 297.561c0 .372-2.671.372-2.671-.359-1.143-2.591-3.043-4.425-4.957-5.9-.372-.744-1.143-1.116-1.143-2.219-.385-.731-1.913-1.475-2.286-2.206-1.528-2.95-3.429-5.9-5.342-8.478-3.429-3.694-6.87-7.017-8.385-11.07-1.156-3.309-1.156-7.375.757-10.326 2.671-3.681 5.715-5.489 9.914-6.964 2.286-.372 5.502-.97 8.253-.213.133.04.239.12.332.226 0 .027.027.093.027.12.133.16.292.226.385.385.093.213.12.465.027.664-.12.306-.027.691-.12 1.01-.106.279-.2.691.053.877.133.093.306.186.359.306 1.249 2.884.399 4.744 1.754 8.013.372 1.847 1.515 3.322 1.9 5.17 0 10.326 4.199 20.638 1.143 30.964m7.707-62.539c-9.834-6.445-26.339-2.113-36.664-1.674-.346.027-.691.027-1.037-.067-1.396-.306-2.738 0-4.12-.133-.346-.346-.518-.439-.824-.824-.093-.08-.133-.252-.213-.252-.532-.093-.837-.492-1.356-.412-.611.093-1.222.093-1.834.306-.173.04-.346.093-.518.133-.173.08-.943.306-1.116.372-3.096 1.169-6.206 3.495-6.764 6.498-8.93 21.542 4.691 46.632 17.276 64.732 11.389 11.455 26.844 19.827 42.765 15.987 6.366-3.774 7.309-12.824 8.332-18.007-.465-20.28 3.987-51.975-13.927-66.659z"/><path d="m517.461 225.56c-.983.611-2.259 1.356-3.349 1.754-.226.08-.612.638-.891.718-1.767 1.037-2.618 2.671-3.389 4.439-.173.226-.598.399-.771.611-.665 1.289-1.063 2.618-1.262 4.133.053.399.638.651.717.917 1.209 2.844 3.562 4.505 6.512 4.611.771.027 1.435-.093 2.206-.053 2.033.16 3.933.957 6.007.877 1.196-.133 2.206-.053 3.322.186 3.269.425 9.741 2.179 9.914 2.219 2.339.558 4.465 2.99 6.751 2.246 1.781-.438 3.096-2.631 3.92-4.505.412-1.967 1.555-3.362 2.286-4.851 1.887-2.884 4.571-5.595 3.615-9.076l-.186-.226c-.585-.16-1.183-.346-1.754-.239-.107 0-.226.146-.333.16-.292.027-.558-.12-.85-.12-.186-.013-.372-.013-.518-.106-.106-.093-.385-.213-.425-.332-.239-.864-.638-.957-.97-1.435-7.814-3.216-14.312-7.269-23.017-7.562-.186 0-.319.04-.479.04-.465.027-.85-.239-1.329-.186-.12.013-.106.239-.199.346-.213.252-.412.465-.545.758-.213.531-.226 1.05-.399 1.595-.053.093-.133.173-.239.239-1.076.651-2.113 1.262-3.083 2.033-.465.066-.837.438-1.183.744l.026-.027"/><path d="m501.846 359.502c1.129.691 2.126 1.528 3.203 2.007.864.425 1.568 1.037 2.512 1.249.638.133 1.276.346 1.927.558.359.133.718.279 1.076.478.784.279 1.17.279 1.967.558.067.2.385.412.545.452 2.139.611 4.811.239 5.954 2.458.213.399.904.531 1.329.797 3.774-.093 6.339 3.588 8.97 1.05l.026-.066c.2 0 .253-.16.386-.253.226-.226.346-.545.505-.824 0 0 .026-.093.093-.093.067-.505.133-1.037 0-1.542-.026-.199-.013-.452-.04-.678-2.658-28.093-23.548-57.024-45.422-76.838-80.864-73.25-188.254 60.625-188.254 60.625-5.661 6.844-2.525 14.392 7.097 10.605 1.435.279 3.016-.864 4.159-1.143 2.286-.837 4.585-1.94 6.87-3.043 1.714-.837 4.013-.837 5.728-1.661.864-.558 1.714-1.661 2.857-2.219 4.585-2.206 9.741-3.043 14.033-6.365 1.714-1.382 4.585-1.103 7.163-1.661 5.156-1.103 9.156-4.425 14.02-6.087 8.877-3.043 17.754-4.983 26.339-8.571.864-.279 2.007-1.116 2.87-1.661 1.714-.558 3.429 0 5.156-.558 3.429-1.103 6.87-2.485 10.299-4.146 1.435-.837 3.136-1.276 4.585-1.396 3.256-.239 6.299 0 9.449-1.103 1.143-.279 2.286.704 3.15.146 3.442-1.661 7.163.465 10.884-.359.771-.173 1.568-.425 2.352-.346.359.027.797.16 1.076-.066.066-.027 0-.252.04-.279.12-.16.159-.412.372-.479.252-.066.319.226.478.319.186.12.412-.066.611.013 1.077.425 11.894 7.894 15.867 9.502 1.276.518 1.143.957 1.529 2.073.758 1.475 2.286 1.834 3.814 2.578.771.372 1.914-.372 2.538-.412 3.575.412 7.004 1.887 9.674 4.106 2.684 1.475 3.442 4.425 5.728 6.631 1.914 1.475 4.199 2.219 6.87 3.322.771.372 1.156 2.219 2.299 2.95 3.814 1.847.532 2.365 4.345 3.468 3.814 1.103 7.243 3.322 10.685 5.542.757.362 1.528.362 2.286.362"/><path d="m711.642 285.388c-.226.359-1.037.704-1.289 1.09-.891 1.634-1.263 3.535-2.405 5.05-2.14 2.525-4.04 5.05-6.565 7.322-.505.385-1.395 0-1.515.638-.386 1.01-1.143 1.887-1.648 2.777-.12.372 0 .758.04 1.13.067.598.252 1.262-.173 1.595-.253.266-.505.425-.505.598-.16.332-.412.505-.585.585-.585.252-1.183.664-1.608 1.169-2.405 2.91-4.824 5.754-6.817 9.223-1.9 3.322-4.957 6.645-7.442 9.037-2.924 2.831-8.944 6.312-11.641 8.864-.359.346-.625.771-.864 1.103-.85 1.01-2.113 1.515-3.043 2.445-1.342 1.515-3.03 2.605-4.372 4.12-.598.585-1.183 1.103-1.608 1.86-.412.758-.837 1.342-1.342 2.1-.93 1.262-2.1 2.193-2.857 3.615-.425.678-.983 1.156-1.568 1.542-4 2.671-6.1 7.017-9.754 9.781-3.987 2.033-8.944 1.289-12.599 0-2.95-1.036-4.744-2.392-7.8-3.136-2.671-1.103-4.585-3.322-7.256-4.797-.757-.372-1.9-.731-2.671-.731-.146 0-.425-1.661-.997-2.073-.438-.425-.717-.97-1.289-1.249-.771-.372-1.861-.492-2.671-.744-.771-.226-1.05-1.196-1.768-1.608-1.143-.691-2.007-1.528-2.724-2.352-.146-.146-.585.027-.864-.093-.758-.372-.837-1.289-1.209-1.661-1.143-.412-2.366-.598-3.362-1.289-.292-.146-.85-.106-1.143 0-1.156.359-1.914-.372-3.057-.744-3.057-1.475-4.106-5.116-7.641-5.9-.625-.146-.067-.944-.333-1.249-.717-.824-1.86-.558-2.857-1.249-.292-.266-1.01-.492-1.382-.452-3.827.372-6.87-2.219-9.927-3.694s-3.375-1.635-6.432-2.738c-1.515-.744-3.043-.744-4.571-1.475-.93-.452-1.675-1.13-2.924-1.05-1.356.08-8.771.279-6.193 10.219 7.11 20.279 22.924 51.841 46.485 77.675 50.353 55.203 137.344-77.848 147.151-147.935 0 0 1.515-12.718-6.857-6.565-1.369 1.023-2.512 2.126-4.04 2.871-1.143.359-.904 1.369-1.342 2.219-.306.598-.571 1.196-.784 1.834-.385.186-.571.571-.917.811-.133.106-.319.066-.479.199-.159.093-.279.213-.438.306-.279.199-.545.292-.824.478-.279.16-.478.439-.731.664-.027.067-.093.16-.12.252-.253.292-.505.479-.691.798-.545.917-1.316 1.661-2.073 2.392-3.056 4.439-6.498 8.12-10.525 12-.173.16 0 .505-.04.758-.027.066-.093.066-.133.133-.093.252-.12.558-.372.758-.319.186-.691.119-1.037.252-.479.213-.891.505-1.303.824-.093.093-.12.279-.252.372-.571.319-1.01.758-1.382 1.262"/><path d="m527.853 283.129c1.395-.199 2.897-.505 4.332-.638.292-.027.625.12.877-.04.332-.186.797-.053 1.13-.199.08-.027.133-.013.199.027.253.252 1.143-.173 1.329.133.053.106.306.106.452.16 2.339.837 7.15 2.405 10.512 2.299 2.924 1.608 1.449-6.126 1.674-10.047.04-.306-.944-2.312-.917-2.605 0-2.272.93-5.648-.093-6.246-.877-.199-2.578.572-3.335.319-1.728-.598-2.379-2.286-4.479-2.884-2.286-.611-4.598-.93-6.95-.944-2.046.027-3.88-.372-5.834-.944-1.967-.571-3.88-.983-6.007-.359-.797.651-.332 1.077-1.183 1.568-1.369.877-1.422 2.033-2.086 3.455-.213.425-2.02.811-2.206 1.223-2.857 5.993-3.043 8.558-2.937 13.582.013.439 0 .85.279 1.236 0 .08-.027.252-.04.332.133.279.239.718.585.758 1.076.146 2.087.199 3.043.665 1.608.731 3.336.545 5.023.598 1.024-.027 1.887-.08 2.924-.199.346-.12.731-.412 1.09-.532.891-.385 1.05-.292 2.047-.678.265-.133.424-.027.571-.04"/></g><path d="m705.489 198.158c.625.797 1.263 1.595 1.967 2.392.811.718 1.608 1.515 2.233 2.392.558.704 1.595 1.023 1.754 1.954.079.465.226.598.651.585.266-.013.465-.08.638.133l.04.08c1.555 1.156 3.043 2.671 4.465 4.146l.04.027c.133.067.186.239.305.372.08.067.173.226.266.292.12.16.239.332.385.439.399.239.758.478 1.09.811.638.598 1.037 1.422 1.767 1.993.452.399.904.744 1.462.93.438.146.837.306 1.275.425.412.08.744.385 1.143.465.372.08.784.146 1.17.067.571-.067 1.116-.226 1.661-.385.067-.013.133-.12.199-.173.08-.16.054-.319.12-.479.066-.093.2-.146.239-.239.067-.12.08-.279.093-.439 0-.159-.16-.199-.213-.332-.478-1.555-3.415-14.525-8.89-19.256l-17.462-22.738c-2.192-5.568-2.83-6.817-2.95-7.017l-4.864-5.595c-7.548-8.611-17.077-15.429-21.01-25.914-2.738-3.522-6.02-6.897-9.183-10.166-3.389-3.508-6.897-7.123-9.821-10.964l-.252-.412c-.306-.531-1.475-1.9-1.767-2.591-3.216-5.701-18.299-19.721-23.868-23.123-1.169-.704-1.927-1.874-3.017-2.817s-2.06-1.754-3.296-2.325c-5.674-2.591-10.95-5.661-15.375-10.326-.598-.784-1.462-1.209-2.179-1.887-1.196-1.196-1.701-2.804-2.857-3.854-22.286-20.186-34.871-28.466-57.702-43.815l-11.867-8.014c-2.033-.97-4.079-2.007-6.259-3.096-13.634-6.884-29.077-14.684-43.23-5.555-.943 1.9-2.777 2.977-4.571 4.013-1.754 1.01-3.283 1.741-4.173 3.442-.093.186-.173.465.04.505.226.08.439.16.625.319.08.106.013.226-.026.319h-.053c-.08.146 0 .346-.093.505-.066.12-.239.173-.305.292-.04.067-.12.067-.106.053-.08.611-.093 1.209-.718 1.688-.399.306-.904.412-1.302.771-.2.173-.346.425-.412.611-.598 1.741-1.861 2.937-3.136 4.199-.2.239-.399.479-.479.731-.146.372-.173.811-.133 1.196.2 1.077.917 1.94 1.688 2.684.425.465.97.864 1.196 1.382.399.851.479 1.675.691 2.512.306 1.156.253 2.286.438 3.495.12.266.558.226.665.518l.066.08c4.996 4.04 7.668 8.319 10.472 12.824.89 1.435 1.807 2.897 2.817 4.399l.066.093.04.106 8.12 20.957 4.027 10.405.013.053.027.067c1.648 6.777 1.781 13.94 1.9 20.851.066 3.336.133 6.777.359 10.087.013.146 0 .332.093.465.133.252.053.598-.12.877-.465.04-.93-.306-1.408-.199-.12.013-.279.013-.425.053l-.292-.159c-8.345-4.372-16.505-9.542-24.399-14.538-13.475-8.532-27.402-17.369-42.538-22.392-14.127-3.721-28.372-8.824-42.153-13.754-31.987-11.442-65.051-23.283-100.187-19.123-5.409.797-11.336.478-17.063.16-12.107-.664-23.548-1.289-29.914 8.239l-.067.08-.066.08c-.996.97-.811 1.807-.399 3.189.093.332-.093.651.013.997.239.758.146 2.033-.266 2.764-.704 1.103-1.768 2.179-1.595 3.708 1.874 4.93 3.123 5.356 2.698 8.505 0 .12.253.133.332.359.505 1.502.598 3.017 1.422 4.173 5.462 3.508 10.472 7.336 15.322 11.043 4.651 3.575 9.475 7.269 14.671 10.631l.053.027.053.04c7.469 6.126 16.691 18.698 24.824 29.794 3.827 5.223 7.442 10.153 10.352 13.674l1.648 1.98-2.604-.332c-32.479-4.093-88.586 1.581-120.054 12.159-.492.173-1.01.266-1.488.492-.08.08-.213.159-.292.239-.133.04-.226.066-.359.106-.12.08-.239.239-.385.279-2.06.439-10.379 3.973-10.817 4.08-.372.066-.957 0-1.262.199-.439.226-.837.545-1.183.864-.186.2-.359.359-.531.518-.758.638-1.621 1.05-2.286 1.728-.412.412-.757.731-1.116 1.09-.359.319-.784.505-1.183.771-.173.16-.359.279-.532.399-.917.625-1.927.651-3.03.758-.133.04-.253.173-.359.213-3.694 1.422-7.256 2.512-10.977 7.787-2.897 4.12-8.598 5.462-14.113 6.738-4.106.97-8.345 1.954-11.309 4.066l-.079.067-.093.04c-4.013 1.821-7.389 4.12-10.645 6.352-2.192 1.488-4.452 3.043-6.83 4.359-12.04 6.06-21.343 10.871-33.462 17.661-7.269 3.588-14.14 8.213-22.299 15.057-.226.173-.492.359-.452.718.013.146-.106.226-.159.306-.133.08-.253.16-.306.239-.173.12-.306.279-.479.385-1.023.877-2.073 1.581-3.242 2.233-.651.399-1.302.691-1.714 1.302-.465.691-.917 1.342-1.09 2.179-.279 1.169.08 2.405-.239 3.575-.106.452-.864.452-.97.864-.12.718-.199 1.435-.492 2.047-.08.173.053.438-.053.664-.253.651-.571 1.262-.891 1.874-.04.133-.053.292.013.385.199.332.598.478.943.598.744.252 1.688.159 2.419-.067.425-.133.864-.412 1.289-.558.252-.08.332-.492.625-.571.545-.133 1.116-.199 1.675-.385 1.382-.465 2.697-.997 4.12-1.395.664-.186 1.316-.465 1.847-.917.558-.412.877-.997 1.502-1.342.545-.279 1.09-.438 1.675-.571.067-.027.159-.08.226-.146.093-.027.253-.013.346-.08.106-.053.266-.133.372-.199.054-.053.186-.053.253-.08 4.891-2.166 9.927-4.266 15.11-5.329 1.781-.226 3.482-.399 5.116-.545 5.661-.545 11.017-1.063 15.322-3.455 4-2.871 7.92-5.993 11.721-9.023 5.196-4.146 10.565-8.425 16.266-12.133.226-.146.532.04.704-.146.133-.146.279-.106.438-.106 0 .133-.013.226-.013.346.253-.013.505.279.704.133 5.528-4.226 11.389-5.714 17.515-7.362 5.914-1.581 8.811-2.259 14.007-5.077.226-.12.425-.425.678-.412.332-.027.465-.186.771-.346.133-.119.146-.332.279-.412.386-.226.665-.505 1.05-.691.04 0 .093-.173.133-.252.359-.279.89-.066 1.289-.266 1.675.12 1.502.093 2.512.027.678-.053 1.621-.053 2.299-.226.266-.067.691-.306.944-.372 6.339-1.675 9.555-3.136 17.103-6.817.213-.093.425-.199.651-.279.067-.027.133-.12.199-.213.213-.306.319-.678.678-.811.159-.053.292-.119.452-.133.478-.133.917-.146 1.395-.252.133-.053.266-.133.399-.199.093-.013.146.106.213.146.372.12.757.066 1.129.093.093 0 .173-.093.266-.146.266-.213.439-.452.704-.665.452-.292.997-.346 1.515-.518.479-.093.983-.226 1.382-.053.186.106.133.492.319.625.12.106.319.08.478.027.16-.053.319-.106.479-.106.598-.093 1.183-.186 1.781-.213.253-.027.545-.106.797-.173.292-.12.399-.425.664-.571.505-.279 1.17.066 1.728.16.279.332 5.356 1.103 7.535 1.395l.478.213c.253-.013.505-.04.691.067 0 0 13.077 2.552 24.97 2.06.904-.027 1.967-1.316 3.216-.997.013-.252.146-.239.239-.399l9.276-5.754c.266-.106.372-.439.625-.505.771-.133 1.582.332 2.352.292.758-.133 1.621-.505 2.206-.226.983.478 1.608 1.449 2.498 2.166.306.359.917.133 1.329.319.983.571 2.153.704 3.043 1.435.478.359.97.811 1.275 1.329.226.518.452 1.129.864 1.236 2.166.359 4.346.571 6.565.266.079 0 .252-.066.332-.066 1.276-.106 2.605.306 3.88.04.944-.292 1.887-.571 2.897-.611.266-.067.279-.399.531-.266l.598-.08c9.953 1.422 19.881.678 27.442-.12 11.721-2.485 23.07-.465 34.034 1.488 5.98 1.063 12.146 2.166 18.326 2.525 7.415-1.302 11.057-7.841 13.635-14.113 2.272-10.751.465-21.436-4.97-29.303-8.133-10.007-17.781-19.23-27.11-28.16-11.761-11.243-23.934-22.871-33.197-36.24l-1.462-2.113 9.568 2.086c5.967 3.681 12.797 4.452 20.027 5.276 6.06.678 12.332 1.382 17.954 3.987 15.721 9.076 29.98 15.469 46.299 22.419 1.462.625 2.977.558 4.492.811.146.186.492.199.465.531.518-.133.837.213 1.329.412.505.027 1.023-.12 1.515.08 1.156.571 2.312.97 3.469 1.369 1.834.439 3.708.027 5.369.625 2.472.983 4.731 2.791 7.216 3.761.332.186.306.531.638.718.664.199 1.156.399 1.648.758 2.087 1.794 4.04 3.083 6.326 4.558.811.718 1.275 1.422 2.086 2.14 1.449 1.09 3.15.837 4.625 1.595.505.199 1.169.226 1.488.758l.385.226c6.963 1.608 13.9 4.252 20.545 6.87 3.309 1.302 6.711 2.644 10.1 3.814.212.066.319.346.571.359.638.04 1.143.067 1.767.226 1.116.306 2.405 0 3.508.439.877.306 1.874.478 2.604 1.023 1.582 1.223 3.057 2.06 4.665 2.658 2.352.89 4.744 1.262 6.95 2.525.239.146.505-.093.757.04.598.545 1.342.837 1.954 1.249l.306.239c3.548 1.914 7.216 3.88 10.937 5.449 4.479.213 7.628 1.688 10.671 3.123 3.734 1.754 7.256 3.415 13.01 2.299 1.196-.226 2.432-.053 3.628.12 1.249.186 2.419.346 3.402.067 1.209-.492 2.1-1.488 3.043-2.552 1.076-1.209 2.179-2.445 3.947-3.15l1.209.053c2.379-1.462 3.335-3.668 3.681-4.877 2.711-9.382.173-17.701-2.512-26.512-1.807-5.914-3.681-12.04-3.787-18.459-.252-14.259-4.691-26.751-8.983-38.818l-2.033-5.754c-.399-1.196.106-.678.266-1.688.093-.625.811-.226.904-.239 0 0 12.917 5.077 19.323 6.897 4.877 1.382 9.927 2.817 14.485 4.704 3.163.399 5.17 2.312 7.11 4.16 1.82 1.741 3.535 3.389 6.099 3.628 7.96-.412 12.931 5.103 16.386 10.087 5.422 1.741 7.522 5.927 9.555 9.98l.625 1.422c.066.252.093.465.199.704.093.12.212.226.346.226.651.08 1.276.199 1.834.611 0 0 .013.093.013.133.266.319.678.385 1.01.585.133.066.292.013.412.093.213.159.359.359.438.585.053.266-.026.505 0 .758-.013.04.066.066.066.093 2.419 5.861 6.206 9.595 16.545 15.535 4.093 2.326 7.416 5.674 10.632 8.904 2.737 2.764 9.262 8.332 9.262 8.332 1.316 4 4.159 4.983 7.469 6.126 2.498.864 5.09 1.768 7.216 4.013 5.063 2.871 9.728 8.013 13.847 12.545 1.914 2.126 3.734 4.133 5.488 5.807.944.904 1.728 1.967 2.871 2.791 1.621 1.183 3.601 1.86 4.97 3.282 3.203 3.123 5.103 6.87 8.226 10.073 1.515 1.515 2.963 2.857 4.492 4.292.718.704 1.276 1.329 1.82 2.126.864 1.236 2.552 1.767 3.535 2.631.664.691 1.143 1.542 1.462 2.724.146 1.023 1.143 1.382 1.621 2.405z" fill="#00479c"/><path d="m585.049 612.952c.159.12.372.04.532.12.067.04.053.106.12.106.239.053.771.159.691-.093-.067-.213-.093-.492.066-.758.146-.758 1.608-4.904 1.169-9.555l-.997-6.565c.292-2.817.292-3.469.292-3.588l-.864-3.389c-.571-2.206.266-11.15-.81-22.047-.04-1.116.146-2.246.08-3.415-.864-14.671-4.691-32.957-9.342-47.482-.399-2.06-4.625-13.847-5.037-16.093-4.04-15.136-7.083-20.705-7.083-20.705-4.771-13.196-12.983-25.661-19.19-33.834-.08-.093-.027-.213-.093-.292-.585-.784-1.369-1.355-1.994-2.113-.332-.385-.704-.718-1.129-.983-.346-.226-.664-.412-.97-.664-.2-.213-.332-.452-.518-.664l-.159-.12c-3.668-4-7.841-8.545-14.618-8.066-.691.399-1.555.439-2.392.452-.824.027-1.502.013-2.14.359-.067.04-.146.106-.08.146.066.066.133.12.173.186.013.04-.04.066-.067.093l-.027-.013c-.053.04-.053.106-.12.133-.053.027-.12.013-.159.04-.027.013-.053 0-.053 0-.133.159-.253.332-.558.372-.213.027-.412-.027-.625.027-.107.013-.2.067-.253.106-.532.399-1.209.558-1.9.718-.12.04-.239.08-.305.146-.12.08-.213.199-.266.319-.133.332-.026.691.12 1.01.067.199.186.399.173.585 0 .292-.133.545-.199.811-.093.385-.333.691-.479 1.063-.013.093.159.146.146.252l.013.027c1.063 1.9 1.249 3.522 1.449 5.223.053.545.12 1.09.213 1.674v.066l-.877 7.189-.438 3.562-.013.04c-.638 2.179-1.887 4.239-3.109 6.219-.585.957-1.183 1.954-1.701 2.937-.026.04-.066.08-.053.133 0 .106-.093.186-.199.239-.186-.066-.279-.226-.479-.266-.053-.013-.106-.04-.159-.053l-.08-.093c-2.219-2.498-4.239-5.183-6.179-7.787-3.322-4.452-7.229-8.665-11.894-12.452-4.518-3.269-8.837-5.475-13.01-8.917-9.688-8-19.694-16.97-33.449-20.837-2.153-.558-4.279-1.488-6.339-2.379-4.346-1.9-8.452-3.708-12.585-2.033l-.04.013h-.04c-.545.133-.638.385-.744.811-.013.106-.146.159-.173.279-.054.239-.319.558-.612.704-.465.199-1.063.332-1.289.771-.213 1.595.159 1.887-.571 2.671-.027.04.053.08.04.146-.08.478-.332.904-.253 1.329 1.382 1.728 2.512 3.468 3.615 5.156 1.05 1.635 2.153 3.309 3.442 4.957l.013.013.013.027c1.621 2.711 2.684 7.415 3.628 11.561.439 1.954.864 3.801 1.276 5.156l.239.771-.89-.452c-11.243-5.728-32.918-13.05-46.525-14.684-.213-.027-.412-.067-.625-.067-.053 0-.12 0-.16.013-.066-.013-.093-.013-.146-.013-.066 0-.146.027-.2.013-.85-.173-4.584-.399-4.757-.439-.16-.04-.359-.133-.505-.12-.199 0-.412.027-.598.067-.106.027-.2.04-.292.053-.399.066-.797.053-1.17.146-.226.053-.412.093-.611.133-.186.04-.385.027-.585.04-.093.027-.173.027-.266.027-.452.04-.837-.093-1.262-.213-.053-.013-.133 0-.173 0-1.621-.146-3.15-.359-5.502.545-1.834.691-4.2.239-6.472-.199-1.688-.319-3.442-.651-4.93-.505h-.093c-1.808-.08-3.482.066-5.103.199-1.09.093-2.22.186-3.336.213-5.582-.08-9.914-.106-15.655 0-3.349-.066-6.857 1.09-11.136 1.767-.12.027-.253.04-.306.133-.013.04-.08.053-.106.067-.067 0-.133 0-.173.013-.08.013-.159.04-.239.04-.545.093-1.063.133-1.621.146-.305.013-.611 0-.877.106-.292.12-.585.226-.797.425-.319.279-.425.664-.758.93-.12.106-.399 0-.518.106-.173.173-.346.346-.558.478-.066.027-.066.12-.146.173-.212.133-.452.252-.678.372-.04.027-.08.066-.067.106.013.12.133.213.239.292.226.173.585.279.904.332.186.027.399.013.585.027.106.013.213-.08.332-.067.226.053.452.106.691.133.598.08 1.183.12 1.781.213.279.053.571.066.85.027.279-.04.505-.146.797-.159.266 0 .492.04.731.093.027 0 .08 0 .107-.013.04 0 .106.027.146.027h.173c.04-.013.08.013.106.013 2.219.106 4.465.266 6.578.718.704.186 1.356.385 1.994.571 2.192.664 4.266 1.289 6.299 1.249 2.02-.199 4.053-.492 6.007-.771 2.698-.372 5.475-.771 8.279-.957.106 0 .186.093.279.066.08-.027.133.013.186.04-.026.027-.04.053-.066.08.093.04.133.146.226.133 2.831-.345 5.276.08 7.854.505 2.472.412 3.668.651 6.113.625.107 0 .239-.053.319-.013.133.04.212.013.359.013.066-.013.106-.066.173-.066.186-.013.346-.04.518-.04.013 0 .066-.027.106-.053.173-.013.332.106.518.12.598.266.531.239.93.359.253.08.598.226.891.266.106.027.306.013.412.04 2.658.452 4.12.505 7.588.598.093 0 .186 0 .292.013.027 0 .067-.013.106-.027.133-.053.253-.146.412-.133.066.013.12.013.186.027.199.04.372.093.558.133.066.013.133 0 .186 0 .04.013.04.053.053.08.12.08.266.12.399.186.04.013.08 0 .133-.013.133-.013.239-.053.372-.066.226-.013.438.04.665.066.186.04.412.08.518.186.054.053-.04.146 0 .213.027.04.107.066.173.08.066 0 .133.013.2.04.239.053.465.12.691.186.106.04.226.053.332.066.133.013.226-.053.359-.053.226 0 .412.186.598.292.04.12 1.781 1.05 2.525 1.449l.146.12c.093.027.186.066.239.12 0 0 4.359 2.538 8.837 4.106.346.12.97-.08 1.369.186.054-.066.107-.04.173-.08l4.492-.226c.12.013.226-.067.332-.053.306.08.518.319.811.412.306.08.691.093.85.266.279.266.332.611.518.93.053.146.319.173.438.279.253.292.665.492.851.811.12.173.212.359.226.545-.013.173-.04.372.093.452.731.412 1.502.771 2.379 1.01.026.013.106.013.133.04.492.146.904.439 1.435.558.399.053.797.106 1.17.239.106.027.186-.066.252.013l.239.053c3.416 1.807 7.216 3.017 10.153 3.867 4.797.997 8.612 3.163 12.306 5.249 2.007 1.13 4.08 2.312 6.299 3.282 2.977.704 5.542-.545 7.654-1.874 2.844-2.578 4.16-5.714 3.628-8.598-1.143-3.854-2.99-7.721-4.784-11.455-2.246-4.704-4.585-9.568-5.515-14.498l-.159-.771 3.15 1.914c1.528 1.847 3.907 3.03 6.432 4.279 2.113 1.037 4.293 2.126 5.887 3.628 4.12 4.678 8.199 8.439 12.93 12.625.425.385.997.571 1.502.864.026.066.146.12.079.213.213.027.266.173.412.292.186.08.399-.425.545-.306.319.306.678.571 1.023.837.598.372 1.369 3.389 1.874 3.801.731.638 1.223 1.488 1.967 2.14.079.093.013.186.093.292.212.159.359.279.479.465.438.811.917 1.475 1.488 2.219.159.332.199.598.372.917.332.532 1.01.718 1.409 1.143.146.133.385.239.412.439l.093.12c2.272 1.488 4.345 3.269 6.312 5.01.983.851 1.993 1.262 3.03 2.126.067.053.053.146.146.199.226.106.399.186.598.332.359.266.89.372 1.222.665.266.226.598.439.771.704.359.598.744 1.076 1.223 1.488.717.625 1.967.053 2.525.744.066.08.213.053.279.12.12.252.332.439.478.651l.066.12c.93 1.076 1.9 2.179 2.963 3.189 1.582.731 2.445 1.621 3.296 2.485 1.023 1.063 1.993 2.06 4.279 2.605.479.12.891.359 1.289.585.425.239.811.465 1.222.532.518.04 1.037-.12 1.568-.279.598-.173 1.223-.359 1.993-.292l.439.186c1.129-.053 1.874-.545 2.219-.837 2.684-2.259 3.282-5.01 3.92-7.92.412-1.953.864-3.973 1.994-5.821 2.512-4.093 3.176-8.319 3.827-12.399l.305-1.94c.08-.399.16-.173.412-.439.146-.173.332.053.359.066l.146.146s.917 4.385 3.283 6.525c1.808 1.635 3.668 3.336 5.223 5.116 1.276.837 1.728 2.086 2.153 3.296.399 1.13.771 2.206 1.834 2.857 3.535 1.528 4.452 4.944 4.837 7.814 1.967 1.9 1.94 4.12 1.913 6.219l-.04.718c-.093.199.067.412.465.851.372.385.89 2.312.558 2.963-.213 3.282.558 5.369 3.708 10.06 1.263 1.847.877 4.319 1.542 6.366.571 1.741 2.153 5.475 2.153 5.475-.319 1.967.691 2.99 1.861 4.16.904.904 1.82 1.821 2.246 3.229 1.542 2.286 10.339 25.635 15.216 62.898.173 1.329.704 2.525 1.09 3.601 2.126 2.086 1.103 8.266 1.701 12.226.306 1.967-.306 3.867.279 5.741.412.811.213 2.047.505 2.964.571 1.794 1.183 3.083 2.817 3.548.134.036.227.196.346.275m-332.814-147.735c-.04 0-.093-.066-.133-.133-.053-.067-.186-.093-.279-.106-.757-.066-1.515-.239-2.086-.292-3.163-.306-4.372-.346-6.711-.412-2.472-.066-4.997-.346-7.442-.704-4.385-.651-8.359.957-12.745-.345-7.136-3.256-20.345 0-27.482-3.907-.545-.651-1.103-1.953-2.192-1.953 0 0 0-.159-.067-.239-.08 0-.279 0-.346 0-.625-.412-1.17-.983-1.714-1.302-.213-.159-.479-.253-.758-.332 0-.08-.08-.159-.173-.213-.027-.013-.04-.027-.067-.04-.518-.359-1.063-.731-1.621-1.116-1.302-1.874-1.169-2.512-.026-4.571.904-.731 1.807-3.15 4.771-5.289 4.399-3.189 103.987-69.649 321.185-45.515 46.021 5.103 78.114 28.279 94.367 92.187 20.904 82.22 22.857 187.018 15.429 259.963-.08.718-.16 1.887-.731 2.498-.067.066-.199.266-.252.478-.066.332.053.744-.066 1.076-.253.811-.704 1.488-.891 2.299-.372 1.289-.438 2.631-.691 3.987-.199 1.076-.319 2.166-.957 3.11-.12.266 0 .997-.305 1.196-.319.133-.665 2.724-.904 2.698-.638-.04-3.096.571-3.734.505-1.01-.199-.797-2.113-2.764-1.9-1.01.066-2.22.053-2.405-.292-.518-.811-.784-1.967-1.103-2.844-.253-.944-1.9-2.126-2.153-3.07-.2-.744-.16-1.741-.346-2.485-.067-.279.12-.545-.067-.811-.133-.199-.319-.412-.439-.478-.638-.465-1.395-.532-1.9-1.209-.505-.811-.505-1.754-.891-2.645-.385-.877-.638-1.821-1.143-2.631-.252-.399-.146-.89-.292-1.289s-.399-.531-.532-.944c0-.066-.119-.199-.119-.266-.133-.332-.186-.678-.386-.811-.625-.399-1.382.199-2.02-.266-.253-.133-.439-.478-.691-.678-.133-.133-.518-.066-.571-.346-.133-.465-.412-.784-.585-1.209-.85-2.14-2.326-4.957-2.326-4.957-9.329-21.01-10.711-21.874-20.04-38.818-1.648-2.605-1.09-5.861-1.648-8.465-.545-.651-1.648-2.605-1.648-3.256 0-5.86-5.661-11.721-6.22-14.326-2.272-10.791-3.841-16.067-4.385-27.788 0-2.605-5.967-13.475-7.057-16.08-3.841-9.116-4.758-16.279-6.95-26.698-.558-3.256-2.937-9.116-4.026-12.372-2.206-7.163-10.299-17.143-11.389-24.957-1.103-4.558-3.548-10.738-4.638-15.296-2.206-9.768-2.791-17.568-6.073-26.685-1.103-3.907-4.12-8.877-6.778-11.721-.04-.053-.067-.146-.133-.12-.04-.332.12-.771-.199-1.01 0-.372.226-.704.159-1.076.106 0 .053-.186.146-.226.226-.133.133-.226.319-.385.066-.066.093-.213.12-.346.04-.04.106-.106.133-.133.066-.133.066-.306.16-.439.026 0 .12-.04.12-.066 0-.173.079-.385-.027-.478-10.618-9.13-13.834-2.95-16.585-3.601-7.137 0-11.163-5.209-18.299-6.512-8.784-1.953-1.05-1.528-10.193-1.528-1.741 0-6.964-5.143-8.612-5.794-8.226-3.256-15.787-5.741-24.146-4.837-12.08 1.302-19.761-3.827-29.635-5.781-18.671-2.605-32.359 1.807-51.017-.797-2.751 0-5.488-2.764-7.681-3.429-.399-.12-.877-.186-1.156-.213-3.548-.412-6.99-.532-10.538-.252-1.143.133-2.498.093-3.641.213-2.751.266-5.568.226-8.479 0-3.469-.292-4.997-1.462-7.841-1.635-4.944-.664-8.745.691-13.807-.266-.625-.12-1.342-.531-2.02-.531-.027 0-.027-.066-.067-.106-.159-.04-.253-.199-.372-.239-.412-.093-.612-.518-.957-.611-2.272-.532-4.558-.811-6.831-1.076-4.053-.412-7.841-.266-11.894-.811-2.153-.133-4.173-.545-6.325-.944-2.153-.266-4.306-.133-6.459-.545-1.395-.266-2.658-.399-4.053-.944-1.396-.399-2.777-.545-4.173-1.076-2.272-.944-4.558-2.033-7.083-2.166.119 0 .252 0 0 0-.249-.002-.475-.109-.728-.175z" fill="#e6222a"/></svg>