<?xml version="1.0" encoding="UTF-8" standalone="no"?>
<!-- Created with Inkscape (http://www.inkscape.org/) -->
<svg xmlns:dc="http://purl.org/dc/elements/1.1/" xmlns:cc="http://creativecommons.org/ns#" xmlns:rdf="http://www.w3.org/1999/02/22-rdf-syntax-ns#" xmlns:svg="http://www.w3.org/2000/svg" xmlns="http://www.w3.org/2000/svg" xmlns:sodipodi="http://sodipodi.sourceforge.net/DTD/sodipodi-0.dtd" xmlns:inkscape="http://www.inkscape.org/namespaces/inkscape" id="svg2483" sodipodi:version="0.32" inkscape:version="0.46" width="117.92125" height="131.04375" xml:space="preserve" sodipodi:docname="London Olympics 2012 logo.svg" version="1.0" inkscape:output_extension="org.inkscape.output.svg.inkscape"><metadata id="metadata2488"><rdf:RDF><cc:Work rdf:about=""><dc:format>image/svg+xml</dc:format><dc:type rdf:resource="http://purl.org/dc/dcmitype/StillImage"/></cc:Work></rdf:RDF></metadata><defs id="defs2486"><inkscape:perspective sodipodi:type="inkscape:persp3d" inkscape:vp_x="0 : 526.18109 : 1" inkscape:vp_y="0 : 1000 : 0" inkscape:vp_z="744.09448 : 526.18109 : 1" inkscape:persp3d-origin="372.04724 : 350.78739 : 1" id="perspective2490"/><clipPath clipPathUnits="userSpaceOnUse" id="clipPath2500"><path d="M 0,0 L 595.275,0 L 595.275,737.008 L 0,737.008 L 0,0 z" id="path2502"/></clipPath><clipPath clipPathUnits="userSpaceOnUse" id="clipPath2512"><path d="M 303.897,614.72 L 333.43,447.225 L 520.07,480.135 L 490.537,647.63 L 303.897,614.72 z" id="path2514"/></clipPath><clipPath clipPathUnits="userSpaceOnUse" id="clipPath2520"><path d="M 0,0 L 595.276,0 L 595.276,737.008 L 0,737.008 L 0,0 z" id="path2522"/></clipPath><clipPath clipPathUnits="userSpaceOnUse" id="clipPath2542"><path d="M 435.976,574.929 L 582.433,574.929 L 582.433,734.835 L 435.976,734.835 L 435.976,574.929 z" id="path2544"/></clipPath><clipPath clipPathUnits="userSpaceOnUse" id="clipPath2626"><path d="M 303.897,614.72 L 333.43,447.225 L 520.07,480.135 L 490.537,647.63 L 303.897,614.72 z" id="path2628"/></clipPath><clipPath clipPathUnits="userSpaceOnUse" id="clipPath2730"><path d="M 0,0 L 595.275,0 L 595.275,737.008 L 0,737.008 L 0,0 z" id="path2732"/></clipPath><clipPath clipPathUnits="userSpaceOnUse" id="clipPath2774"><path d="M 435.976,574.929 L 582.433,574.929 L 582.433,734.835 L 435.976,734.835 L 435.976,574.929 z" id="path2776"/></clipPath><inkscape:perspective id="perspective2874" inkscape:persp3d-origin="372.04724 : 350.78739 : 1" inkscape:vp_z="744.09448 : 526.18109 : 1" inkscape:vp_y="0 : 1000 : 0" inkscape:vp_x="0 : 526.18109 : 1" sodipodi:type="inkscape:persp3d"/><inkscape:perspective id="perspective2952" inkscape:persp3d-origin="372.04724 : 350.78739 : 1" inkscape:vp_z="744.09448 : 526.18109 : 1" inkscape:vp_y="0 : 1000 : 0" inkscape:vp_x="0 : 526.18109 : 1" sodipodi:type="inkscape:persp3d"/><clipPath id="clip_color"><path id="path2770" d="M 0,0 l -10,-10 v 20 z v -10 h 10 z"/></clipPath><clipPath id="clip_white"><path id="path2767" d="M 0,0 l -10,-5 v 10 z l .1,-10 h 8 z"/></clipPath><inkscape:perspective id="perspective2811" inkscape:persp3d-origin="450 : 200 : 1" inkscape:vp_z="900 : 300 : 1" inkscape:vp_y="0 : 1000 : 0" inkscape:vp_x="0 : 300 : 1" sodipodi:type="inkscape:persp3d"/></defs><sodipodi:namedview inkscape:window-height="968" inkscape:window-width="1280" inkscape:pageshadow="2" inkscape:pageopacity="0.0" guidetolerance="10.0" gridtolerance="10.0" objecttolerance="10.0" borderopacity="1.0" bordercolor="#666666" pagecolor="#ffffff" id="base" showgrid="false" inkscape:zoom="1.4184197" inkscape:cx="-46.316608" inkscape:cy="9.7596876" inkscape:window-x="-4" inkscape:window-y="-4" inkscape:current-layer="g2492"/><g id="g2492" inkscape:groupmode="layer" inkscape:label="planning-update-stadium-and-aquatics" transform="matrix(1.25,0,0,-1.25,-573.28263,885.69674)"><g id="g2508"><g id="g2510" clip-path="url(#clipPath2512)"/></g><g id="g2538"><g id="g2540" clip-path="url(#clipPath2542)"/></g><g id="g2726"><g id="g2728" clip-path="url(#clipPath2730)"/></g><g id="g2734" transform="translate(539.035,655.6423)" style="fill:#000000;fill-opacity:1"><path d="M 0,0 L 0.366,1.745 L -0.169,1.884 L -0.094,2.184 L 1.288,1.823 L 1.216,1.527 L 0.677,1.666 L 0.31,-0.086 L 0,0 z" style="fill:#000000;fill-opacity:1;fill-rule:nonzero;stroke:none" id="path2736"/></g><g id="g2738" transform="translate(541.9243,655.6423)" style="fill:#000000;fill-opacity:1"><path d="M 0,0 L 0.305,1.477 L -0.403,0.392 L -0.739,0.485 L -0.996,1.456 L -1.321,-0.086 L -1.631,0 L -1.171,2.183 L -0.86,2.097 L -0.512,0.816 L 0.459,2.215 L 0.77,2.13 L 0.31,-0.086 L 0,0 z" style="fill:#000000;fill-opacity:1;fill-rule:nonzero;stroke:none" id="path2740"/></g><g id="g2742" transform="translate(531.8681,660.45239)" style="fill:#000000;fill-opacity:1"><path d="M 0,0 L 1.521,-1.713 L -9.089,-8.017 L 0,0 z M -15.857,-24.293 L -13.741,-15.792 L -10.571,-21.67 L -15.857,-24.293 z M -31.647,-23.749 L -18.599,-25.653 L -34.076,-33.322 L -31.647,-23.749 z M -42.278,-11.912 L -29.999,-11.048 L -33.322,-21.798 L -42.278,-11.912 z M -41.554,13.61 L -37.559,9.783 L -42.934,9.805 L -41.554,13.61 z M -17.262,-10.486 L -26.617,-8.94 L -32.403,4.844 L -17.262,-10.486 z M 21.095,-51.293 L 0.297,-37.276 L 15.995,-28.709 L 15.355,-27.496 L 17.313,-26.291 L 4.52,-4.973 L 19.094,17.272 L 17.486,19.235 L 18.277,20.62 L 8.885,29.729 L -6.098,48.008 L -8.121,46.223 L -10.055,48.105 L -23.134,35.186 L -26.673,38.857 L -27.641,37.378 L -29.121,38.755 L -36.534,25.88 L -63.002,42.157 L -64.294,39.293 L -65.576,39.988 L -73.242,20.104 L -62.51,14.694 L -64.23,9.481 L -72.452,-11.381 L -71.109,-11.363 L -71.976,-13.995 L -57.013,-12.938 L -68.386,-15.824 L -66.69,-17.892 L -67.667,-18.2 L -57.854,-28.902 L -66.665,-54.513 L -62.932,-53.803 L -63.754,-56.73 L -38.417,-50.427 L -34.937,-36.707 L -11.98,-56.678 L 18.352,-53.902 L 15.94,-52.064 L 21.095,-51.293 z" style="fill:#000000;fill-opacity:1;fill-rule:nonzero;stroke:none" id="path2744"/></g><g id="g2746" transform="translate(499.1532,636.56371)" style="fill:#ffffff"><path d="M 0,0 L -11.395,12.037 L -33.157,5.205 L -22.543,-6.361 L -29.614,-31.45 L -6.519,-25.71 L 0,0 z" style="fill:#ffffff;fill-opacity:1;fill-rule:nonzero;stroke:none" id="path2748"/></g><g id="g2750" transform="translate(515.0603,636.4472)" style="fill:#ffffff"><path d="M 0,0 L -14.632,1.231 L -11.654,13.239 L 2.977,12.006 L 0,0 z" style="fill:#ffffff;fill-opacity:1;fill-rule:nonzero;stroke:none" id="path2752"/></g><g id="g2754" transform="translate(523.8226,639.0408)" style="fill:#ffffff"><path d="M 0,0 L -25.533,-14.093 L -0.716,-33.331 L 26.448,-29.285 L 6.186,-15.628 L 23.996,-4.549 L 9.992,18.785 L -5.785,9.412 L 0,0 z" style="fill:#ffffff;fill-opacity:1;fill-rule:nonzero;stroke:none" id="path2756"/></g><g id="g2758" transform="translate(548.8954,680.8972)" style="fill:#ffffff"><path d="M 0,0 L -27.077,26.264 L -41.16,12.339 L -45.907,16.726 L -58.646,-5.392 L -31.392,-31.496 L -17.312,-17.569 L -12.763,-22.116 L 0,0 z" style="fill:#ffffff;fill-opacity:1;fill-rule:nonzero;stroke:none" id="path2760"/></g><g id="g2762" transform="translate(470.5753,675.65331)" style="fill:#ffffff"><path d="M 0,0 L -9.27,-28.092 L 34.004,-25.053 L 25.508,-6.953 L 16.219,-7.449 L 21.399,9.804 L -3.757,23.374 L -10.688,5.389 L 0,0 z" style="fill:#ffffff;fill-opacity:1;fill-rule:nonzero;stroke:none" id="path2764"/></g><g id="g2853" style="fill:#000000"><g transform="translate(469.60609,656.1682)" id="g2766" style="fill:#000000"><path id="path2768" style="fill:#000000;fill-opacity:1;fill-rule:nonzero;stroke:none" d="M 0,0 L -0.857,0.227 L 0.414,6.268 L 1.271,6.041 L 0,0 z"/></g><g transform="translate(473.3611,659.82449)" id="g2778" style="fill:#000000"><path id="path2780" style="fill:#000000;fill-opacity:1;fill-rule:nonzero;stroke:none" d="M 0,0 C -0.769,0 -1.36,-0.65 -1.36,-1.419 C -1.36,-2.188 -0.759,-2.838 0,-2.838 C 0.759,-2.838 1.35,-2.178 1.35,-1.419 C 1.35,-0.65 0.759,0 0,0 M 0,-3.666 C -1.232,-3.666 -2.247,-2.651 -2.247,-1.419 C -2.247,-0.187 -1.232,0.828 0,0.828 C 1.232,0.828 2.237,-0.187 2.237,-1.419 C 2.237,-2.651 1.232,-3.666 0,-3.666"/></g><g transform="translate(479.83591,656.1682)" id="g2782" style="fill:#000000"><path id="path2784" style="fill:#000000;fill-opacity:1;fill-rule:nonzero;stroke:none" d="M 0,0 L -0.867,0.227 L -0.187,3.41 L -2.385,2.228 L -2.848,0 L -3.715,0.227 L -2.809,4.474 L -1.951,4.248 L -2.158,3.292 L -0.039,4.474 L 0.808,3.765 L 0,0 z"/></g><g transform="translate(482.6449,659.5883)" id="g2786" style="fill:#000000"><path id="path2788" style="fill:#000000;fill-opacity:1;fill-rule:nonzero;stroke:none" d="M 0,0 L -0.503,-2.365 L 1.685,-1.183 L 1.833,-0.483 L 0,0 z M 2.119,-3.42 L 1.261,-3.193 L 1.458,-2.277 L -0.631,-3.42 L -1.479,-2.711 L -0.68,1.054 L 2.01,0.355 L 2.533,2.848 L 3.39,2.621 L 2.119,-3.42 z"/></g><g transform="translate(488.46671,659.82449)" id="g2790" style="fill:#000000"><path id="path2792" style="fill:#000000;fill-opacity:1;fill-rule:nonzero;stroke:none" d="M 0,0 C -0.769,0 -1.36,-0.65 -1.36,-1.419 C -1.36,-2.188 -0.759,-2.838 0,-2.838 C 0.759,-2.838 1.35,-2.178 1.35,-1.419 C 1.35,-0.65 0.759,0 0,0 M 0,-3.666 C -1.232,-3.666 -2.247,-2.651 -2.247,-1.419 C -2.247,-0.187 -1.232,0.828 0,0.828 C 1.232,0.828 2.237,-0.187 2.237,-1.419 C 2.237,-2.651 1.232,-3.666 0,-3.666"/></g><g transform="translate(494.9418,656.1682)" id="g2794" style="fill:#000000"><path id="path2796" style="fill:#000000;fill-opacity:1;fill-rule:nonzero;stroke:none" d="M 0,0 L -0.867,0.227 L -0.187,3.41 L -2.385,2.228 L -2.848,0 L -3.715,0.227 L -2.809,4.474 L -1.951,4.248 L -2.159,3.292 L -0.039,4.474 L 0.808,3.765 L 0,0 z"/></g></g><path id="path2800" style="fill:#000000;fill-opacity:1;fill-rule:nonzero;stroke:none" d="M 526.6745,678.8546 C 526.5025,678.8726 526.3285,678.8826 526.1505,678.8826 C 525.9685,678.8826 525.7895,678.8716 525.6145,678.8526 C 525.3975,676.3246 523.5905,674.2546 521.1885,673.6306 C 521.3375,671.0306 523.5005,668.9576 526.1505,668.9576 C 528.8075,668.9576 530.9605,671.0296 531.1115,673.6286 C 528.7065,674.2496 526.8915,676.3216 526.6745,678.8546 M 532.6075,684.3296 C 529.9595,684.3296 527.8005,682.2636 527.6445,679.6616 C 530.0465,679.0426 531.8695,676.9736 532.0895,674.4366 C 532.2615,674.4176 532.4335,674.4076 532.6075,674.4076 C 535.3625,674.4076 537.5975,676.6306 537.5975,679.3646 C 537.5975,682.1046 535.3625,684.3296 532.6075,684.3296 M 524.6015,678.6336 C 522.8415,678.0576 521.5195,676.5286 521.2355,674.6586 C 522.9975,675.2366 524.3215,676.7656 524.6015,678.6336 M 532.6075,673.4326 C 532.4345,673.4326 532.2645,673.4436 532.0945,673.4586 C 531.8585,670.3936 529.2875,667.9796 526.1505,667.9796 C 523.0095,667.9796 520.4475,670.3936 520.2145,673.4596 C 520.0385,673.4436 519.8615,673.4326 519.6795,673.4326 C 519.5055,673.4326 519.3325,673.4436 519.1595,673.4586 C 518.9245,670.3936 516.3595,667.9796 513.2195,667.9796 C 510.0725,667.9796 507.5085,670.3936 507.2755,673.4586 C 507.1005,673.4436 506.9235,673.4326 506.7435,673.4326 C 503.4515,673.4326 500.7835,676.0886 500.7835,679.3646 C 500.7835,682.6466 503.4515,685.3046 506.7435,685.3046 C 509.8785,685.3046 512.4475,682.8936 512.6865,679.8306 C 512.8625,679.8456 513.0395,679.8576 513.2195,679.8576 C 513.3925,679.8576 513.5625,679.8456 513.7325,679.8316 C 513.9735,682.8946 516.5455,685.3046 519.6795,685.3046 C 522.8175,685.3046 525.3795,682.8936 525.6175,679.8306 C 525.7925,679.8456 525.9715,679.8576 526.1505,679.8576 C 526.3275,679.8576 526.5005,679.8456 526.6735,679.8306 C 526.9105,682.8936 529.4685,685.3046 532.6075,685.3046 C 535.9105,685.3046 538.5745,682.6466 538.5745,679.3646 C 538.5745,676.0886 535.9105,673.4326 532.6075,673.4326 M 531.0645,674.6556 C 530.7825,676.5316 529.4545,678.0666 527.6895,678.6386 C 527.9685,676.7646 529.2975,675.2296 531.0645,674.6556 M 511.6615,678.6306 C 509.9005,678.0526 508.5775,676.5256 508.2945,674.6566 C 510.0595,675.2326 511.3825,676.7616 511.6615,678.6306 M 511.7065,679.6576 C 511.5545,682.2616 509.3985,684.3296 506.7435,684.3296 C 503.9995,684.3296 501.7685,682.1046 501.7685,679.3646 C 501.7685,676.6306 503.9995,674.4076 506.7435,674.4076 C 506.9255,674.4076 507.1035,674.4196 507.2795,674.4376 C 507.5005,676.9686 509.3045,679.0336 511.7065,679.6576 M 518.1405,674.6536 C 517.8575,676.5286 516.5285,678.0626 514.7625,678.6356 C 515.0395,676.7616 516.3665,675.2266 518.1405,674.6536 M 524.6465,679.6586 C 524.4925,682.2616 522.3275,684.3296 519.6795,684.3296 C 517.0265,684.3296 514.8715,682.2626 514.7185,679.6616 C 517.1215,679.0416 518.9355,676.9726 519.1565,674.4366 C 519.3285,674.4176 519.5045,674.4076 519.6795,674.4076 C 519.8615,674.4076 520.0415,674.4196 520.2175,674.4386 C 520.4395,676.9716 522.2465,679.0376 524.6465,679.6586 M 513.7345,678.8556 C 513.5655,678.8726 513.3935,678.8826 513.2195,678.8826 C 513.0385,678.8826 512.8595,678.8726 512.6835,678.8536 C 512.4655,676.3236 510.6535,674.2536 508.2475,673.6306 C 508.3975,671.0306 510.5655,668.9576 513.2195,668.9576 C 515.8685,668.9576 518.0355,671.0296 518.1865,673.6276 C 515.7735,674.2476 513.9525,676.3216 513.7345,678.8556"/><g style="fill:none;stroke:#ffffff;stroke-width:1" id="g2774" transform="matrix(1.0875785,0,0,-1.0875785,519.69101,679.29088)"><circle style="stroke-width:1.39999998" sodipodi:ry="5" sodipodi:rx="5" sodipodi:cy="5" sodipodi:cx="-6" cx="-6" cy="5" r="5" id="circle2776"/><circle style="stroke-width:1.39999998" sodipodi:ry="5" sodipodi:rx="5" sodipodi:cy="5" sodipodi:cx="6" cx="6" cy="5" r="5" id="circle2778"/><circle style="stroke:#f4c300" sodipodi:ry="5" sodipodi:rx="5" sodipodi:cy="5" sodipodi:cx="-6" cx="-6" cy="5" r="5" id="circle2780"/><circle style="stroke:#009f3d" sodipodi:ry="5" sodipodi:rx="5" sodipodi:cy="5" sodipodi:cx="6" cx="6" cy="5" r="5" id="circle2782"/><circle style="stroke-width:1.39999998" sodipodi:ry="5" sodipodi:rx="5" sodipodi:cy="0" sodipodi:cx="-12" cx="-12" cy="0" r="5" id="circle2784"/><circle style="stroke-width:1.39999998" sodipodi:ry="5" sodipodi:rx="5" sodipodi:cy="0" sodipodi:cx="0" cx="0" cy="0" r="5" id="circle2786"/><circle style="stroke-width:1.39999998" sodipodi:ry="5" sodipodi:rx="5" sodipodi:cy="0" sodipodi:cx="12" cx="12" cy="0" r="5" id="circle2788"/><circle style="stroke:#0085c7" sodipodi:ry="5" sodipodi:rx="5" sodipodi:cy="0" sodipodi:cx="-12" cx="-12" cy="0" r="5" id="circle2790"/><circle style="stroke:#000000" sodipodi:ry="5" sodipodi:rx="5" sodipodi:cy="0" sodipodi:cx="0" cx="0" cy="0" r="5" id="circle2792"/><circle style="stroke:#df0024" sodipodi:ry="5" sodipodi:rx="5" sodipodi:cy="0" sodipodi:cx="12" cx="12" cy="0" r="5" id="circle2794"/><g transform="translate(-6,5)" id="g2796"><circle style="stroke-width:1.39999998" sodipodi:ry="5" sodipodi:rx="5" sodipodi:cy="0" sodipodi:cx="0" cy="0" cx="0" r="5" clip-path="url(#clip_white)" id="circle2798"/><circle style="stroke:#f4c300" sodipodi:ry="5" sodipodi:rx="5" sodipodi:cy="0" sodipodi:cx="0" cy="0" cx="0" r="5" clip-path="url(#clip_color)" id="circle2800"/></g><g transform="translate(6,5)" id="g2802"><circle style="stroke-width:1.39999998" sodipodi:ry="5" sodipodi:rx="5" sodipodi:cy="0" sodipodi:cx="0" cy="0" cx="0" r="5" clip-path="url(#clip_white)" id="circle2804"/><circle style="stroke:#009f3d" sodipodi:ry="5" sodipodi:rx="5" sodipodi:cy="0" sodipodi:cx="0" cy="0" cx="0" r="5" clip-path="url(#clip_color)" id="circle2806"/></g></g></g></svg>