<svg enable-background="new 0 0 707.559 1000" height="376.040224" viewBox="0 0 707.559 1000" width="265.928998" xmlns="http://www.w3.org/2000/svg" xmlns:xlink="http://www.w3.org/1999/xlink"><radialGradient id="a" cx="-2636.0859" cy="2308.4167" gradientTransform="matrix(59.0958 59.2255 59.2255 -59.0958 19415.5703 292743.5312)" gradientUnits="userSpaceOnUse" r="3.5278"><stop offset="0" stop-color="#ffd400"/><stop offset=".1685" stop-color="#fdc605"/><stop offset=".4849" stop-color="#f9a213"/><stop offset=".725" stop-color="#f5821f"/><stop offset=".8492" stop-color="#f36d20"/><stop offset="1" stop-color="#f04e22"/></radialGradient><linearGradient id="b" gradientTransform="matrix(54.1857 -125.8174 -125.8174 -54.1857 426709.6562 -207944.6562)" gradientUnits="userSpaceOnUse" x1="-2628.9214" x2="-2625.3936" y1="2257.8792" y2="2257.8792"><stop offset="0" stop-color="#00652d"/><stop offset=".0566" stop-color="#137431"/><stop offset=".1923" stop-color="#3c9439"/><stop offset=".3162" stop-color="#59ac3f"/><stop offset=".4228" stop-color="#6bba43"/><stop offset=".5" stop-color="#71bf44"/><stop offset=".5762" stop-color="#69bb44"/><stop offset=".693" stop-color="#54ae42"/><stop offset=".836" stop-color="#319b40"/><stop offset=".9984" stop-color="#017f3d"/><stop offset="1" stop-color="#007f3d"/></linearGradient><radialGradient id="c" cx="-2613.8867" cy="2288.1333" gradientTransform="matrix(91.6004 0 0 -91.6004 240021.9688 209902.7188)" gradientUnits="userSpaceOnUse" r="3.5278"><stop offset="0" stop-color="#00c0f3"/><stop offset=".2278" stop-color="#0099d3"/><stop offset=".4708" stop-color="#0077b6"/><stop offset=".671" stop-color="#0062a4"/><stop offset=".8022" stop-color="#005a9e"/><stop offset="1" stop-color="#005a9e"/></radialGradient><path d="m266.139 849.33c-2.925-39.035-35.486-69.801-75.262-69.801-41.695 0-75.488 33.81-75.488 75.505 0 41.688 33.793 75.48 75.488 75.48 2.251 0 4.477-.113 6.675-.307-.134-1.877-.233-3.768-.233-5.697 0-2.364.123-4.685.335-6.988-2.233.236-4.491.381-6.777.381-34.724 0-62.879-28.159-62.879-62.869 0-34.731 28.155-62.872 62.879-62.872 33.542 0 60.854 26.257 62.703 59.33.067 1.189.176 2.342.176 3.542 0 3.362-.342 6.646-.854 9.857-3.687 23.361-20.189 42.422-42.111 49.735-.511 3.232-.854 6.516-.854 9.885 0 1.199.109 2.357.18 3.514 30.194-7.92 52.991-34.085 55.915-66.019.222-2.293.342-4.618.342-6.971.001-1.933-.094-3.824-.235-5.705" fill="#0081c8"/><path d="m266.035 862.004c.219-2.289.342-4.618.342-6.971 0-1.93-.099-3.82-.236-5.701 2.191-.198 4.42-.307 6.671-.307 2.12 0 4.212.109 6.29.272 4.29.356 8.488 1.051 12.552 2.106 30.484 7.818 53.499 34.198 56.346 66.382-4.533-.462-8.904-1.422-13.095-2.787-3.616-23.675-20.369-43.014-42.647-50.264-4.198-1.365-8.565-2.321-13.092-2.776-2.092-.208-4.209-.325-6.354-.325-2.294 0-4.551.131-6.777.371m69.465 66.336c-1.993 32.946-29.263 59.037-62.689 59.037-33.535 0-60.861-26.271-62.696-59.351-.067-1.157-.176-2.314-.176-3.517 0-3.369.342-6.653.854-9.881 3.687-23.354 20.189-42.397 42.111-49.735.512-3.21.854-6.495.854-9.86 0-1.196-.113-2.353-.18-3.538-30.194 7.945-52.991 34.107-55.926 66.03-.212 2.304-.332 4.625-.332 6.985 0 1.933.095 3.824.229 5.701 2.921 39.014 35.486 69.79 75.262 69.79 39.691 0 72.214-30.646 75.248-69.561-4.3-.361-8.495-1.042-12.559-2.1" fill="#fcb131"/><path d="m361.177 917.711c-.194 2.18-.31 4.357-.31 6.583 0 2.071.116 4.092.279 6.11-2.24.194-4.509.31-6.809.31-2.117 0-4.212-.095-6.279-.275-4.3-.36-8.495-1.041-12.555-2.099-30.484-7.814-53.499-34.205-56.335-66.382 4.523.455 8.894 1.411 13.088 2.776 3.602 23.675 20.362 43.018 42.647 50.264 4.195 1.365 8.562 2.325 13.099 2.787 2.078.205 4.191.318 6.336.318 2.32 0 4.595-.149 6.839-.392m68.404-68.587c-3.126-38.844-35.606-69.395-75.244-69.395-39.698 0-72.21 30.653-75.237 69.568 4.29.356 8.488 1.051 12.552 2.106 2-32.95 29.252-59.044 62.685-59.044 33.408 0 60.643 26.06 62.678 58.953.078 1.305.215 2.582.215 3.916 0 3.217-.332 6.375-.801 9.479-3.56 23.509-20.115 42.743-42.129 50.112-.497 3.104-.801 6.244-.801 9.476 0 1.319.109 2.618.194 3.916 30.268-8.015 53.072-34.339 55.831-66.421.198-2.152.314-4.35.314-6.562 0-2.068-.099-4.097-.257-6.104"/><path d="m429.524 861.79c.198-2.155.314-4.35.314-6.562 0-2.067-.099-4.096-.258-6.103 2.223-.201 4.498-.335 6.787-.335 2.117 0 4.205.123 6.294.296 4.304.342 8.491 1.034 12.555 2.085 30.477 7.842 53.485 34.237 56.328 66.41-4.533-.459-8.904-1.411-13.095-2.773-3.588-23.696-20.348-43.057-42.63-50.296-4.187-1.358-8.565-2.332-13.095-2.762-2.095-.226-4.209-.332-6.357-.332-2.317.001-4.582.128-6.843.372m69.522 66.357c-1.993 32.911-29.245 59.023-62.678 59.023-33.408 0-60.643-26.084-62.675-58.96-.081-1.298-.194-2.6-.194-3.919 0-3.231.303-6.368.801-9.472 3.552-23.527 20.094-42.757 42.129-50.116.469-3.101.801-6.258.801-9.476 0-1.333-.134-2.614-.215-3.916-30.254 8.001-53.058 34.336-55.838 66.4-.194 2.18-.31 4.353-.31 6.579 0 2.074.116 4.096.279 6.114 3.104 38.816 35.592 69.374 75.223 69.374 39.684 0 72.203-30.632 75.244-69.54-4.308-.352-8.503-1.054-12.567-2.091" fill="#00a651"/><path d="m517.9 779.529c-39.684 0-72.2 30.642-75.241 69.557 4.307.342 8.495 1.034 12.559 2.085 2-32.911 29.249-59.009 62.682-59.009 34.724 0 62.876 28.141 62.876 62.872 0 34.71-28.152 62.869-62.876 62.869-2.145 0-4.258-.109-6.354-.321-4.537-.459-8.904-1.411-13.095-2.773-22.281-7.253-39.038-26.607-42.63-50.296-4.191-1.358-8.565-2.332-13.095-2.762 2.826 32.166 25.848 58.561 56.321 66.396 4.064 1.037 8.255 1.739 12.566 2.092 2.064.166 4.173.275 6.287.275 41.702 0 75.498-33.793 75.498-75.48 0-41.695-33.796-75.505-75.498-75.505" fill="#ee334e"/><path d="m199.451 426.65c21.269-14.845 41.282-33.175 60.586-49.721 5.951-5.126 11.737-9.814 17.396-14.104-10.047-10.375-19.258-19.78-27.58-28.145-2.032-1.983-4.022-3.891-5.951-5.754-31.196 46.524-69.938 89.059-100.722 88.223-15.931-.427-22.811-9.67-28.296-21.407 3.062 8.417 7.497 15.995 13.37 22.119 14.601 15.22 38.071 21.38 71.197 8.789z" fill="url(#a)"/><path d="m498.357 439.809c22.447-3.941 42.556-12.707 56.939-27.99 11.832-12.555 17.23-24.405 19.463-35.479-35.557.37-81.598-13.116-119.472-34.354-46.14-25.88-72.708-61.355-69.614-91.574 5.214-51.954 83.019-57.672 130.8-47.336 44.683 9.652 109.679 43.928 107.731 97.078 7.68-45.357-34.315-94.89-83.556-119.334-5.902-2.297-11.723-4.251-17.321-5.821-23.111-6.452-47.103-10.481-77.333-11.941-10.132-.494-11.867-.66-23.611-.568-4.223 0-13.356.624-15.057.536-2.688-.134-4.265-1.344-2.822-5.433 7.003-19.78 2.762-36.223-13.162-40.157-15.766-3.87-26.395 12.337-30.685 21.378-2.78 6.015-8.259 9.006-7.101-1.034 4.396-39.423-5.143-101.173-31.214-125.12-7.853-5.02-15.914-7.299-24.222-7.299-10.866 0-22.151 3.902-33.962 10.689-17.618 10.1-33.937 23.012-48.507 37.832-.222.222-.441.452-.663.677 24.885-23.047 48.606-39.321 75.625-32.999 43.561 10.195 34.826 133.456 3.175 215.343-4.674 12.139-12.097 27.841-21.371 44.905 12.291 19.385 23.541 39.73 36.326 60.399.138.222.282.448.413.674h.007c36.795-17.642 70.919-12.312 115.799 24.179 17.984 14.6 45.959 42.279 73.395 72.749z" fill="url(#a)"/><path d="m378.084 419.122c-28.152-18.239-50.61-46.553-69.342-76.913-32.643-52.783-55.284-103.445-110.924-141.425-2.604-1.792-4.399-3.648-4.325-5.754.176-4.837 3.429-5.539 6.904-17.24 4.209-14.051 3.683-30.357-11.487-35.288-11.867-3.905-21.057.529-28.423 9.19-1.764 2.103-3.725 6.943-5.581 5.214-1.718-.896 1.319-8.724 1.93-10.478 19.35-52.455 58.297-102.26 107.322-130.376 20.839-11.973 40.062-14.972 58.191-3.383-10.933-9.233-24.303-12.669-38.245-12.669-2.364 0-4.755.109-7.193.324-27.958 2.261-53.95 14.806-78.13 31.365-76.913 52.699-138.166 153.897-151.575 247.764-5.934 41.258-4.297 82.6 11.906 120.46 28.713 60.043 97.54 56.593 140.349 26.734-111.022 42.192-113.537-126.175-37.577-140.223 29.115-6.773 47.184 8.692 87.969 48.257 39.765 36.354 73.082 62.738 104.832 80.007 18.468 10.051 43.014 18.627 69.074 23.453-18.317-4.178-33.529-11.131-45.675-19.019z" fill="url(#b)"/><path d="m514.779 500.649c79.594 1.034 164.095-51.71 164.165-141.711.078-79.587-70.961-154.838-138.307-178.125 49.273 24.462 91.292 74.038 83.555 119.422-2.113 12.397-4.681 15.261-11.977 9.218-7.602-6.332-20.345-9.977-29.637-.212-22.74 23.813 13.843 58.956-27.284 102.577-45.41 48.246-147.857 31.584-200.611 2.868-31.75-17.269-65.066-43.653-104.835-80.007 18.958 19.05 42.612 43.565 69.942 72.492 62.905 66.511 133.923 92.621 194.989 93.478z" fill="url(#c)"/><path d="m665.891 618.375c-13.511-.014-26.829 4.135-39.13 11.882 5.609-22.285 21.357-39.254 41.698-51.555 7.119-4.3 14.266-8.445 17.237-16.383 1.63-4.424 1.164-11.028-4.83-11.458-4.18-.321-8.371 2.085-11.822 4.008-35.077 19.681-61.74 51.612-67.067 91.892-9.352 9.317-17.561 18.514-25.965 29.464-.067.085-.095.035-.095-.011v-73.05c0-5.038-2.917-6.985-6.47-6.904-3.143.067-7.609 2.244-9.846 3.655l-16.662 10.545c-5.422 3.436-7.458 6.209-6.971 10.763.811 7.779 9.585 8.774 16.005 5.031l.014 81.083c0 3.348 1.81 6.562 5.623 6.544 3.475-.018 6.406-1.901 9.821-5.278 10.95-10.89 22.306-25.583 35.765-38.612 4.844 24.504 23.904 45.29 50.504 45.29 29.598 0 54.039-28.116 53.855-55.82-.156-22.781-18.878-41.086-41.664-41.086m16.122 60.741c-3.401 6.375-10.269 9.821-17.223 10.192-20.708 1.09-34.29-16.348-38.03-36.936 8.223-4.942 17.713-8.287 27.432-8.258 9.878.049 18.56 4.321 23.89 10.844 5.459 6.646 8.157 16.217 3.931 24.158m-200.935-77.848c-29.351.117-52.769 25.234-57.887 52.497-2 10.696-6.294 17.41-14.333 24.416-9.814 8.573-21.452 12.312-33.944 12.167-6.064-.06-15.864-1.951-17.163-9.765-.769-4.519 2.861-8.936 6.128-12.263 5.966-6.068 10.46-9.874 16.605-15.759 10.03-9.585 19.29-17.762 28.049-28.811 9.927-12.527 16.976-26.286 16.178-40.481-1.231-22.109-17.628-36.445-40.749-36.35-16.037.067-31.037 6.523-42.609 16.743-2.473 2.177-4.858 5.087-6.438 8.255-1.245 2.459-2.004 5.07-1.976 7.613.042 3.99 3.662 7.511 7.535 7.532 2.794 0 5.965-1.273 9.243-4.046 6.579-5.595 15.057-10.298 23.872-10.629 17.022-.635 24.966 10.156 25.467 21.714.392 8.971-3.542 16.626-8.872 23.336-7.507 9.402-14.686 15.515-23.347 23.414-7.659 6.971-14.577 12.905-21.551 20.133-8.386 8.657-14.746 17.163-14.245 28.963.723 17.011 17.865 25.217 32.512 25.333 23.742.176 46.912-13.377 62.382-30.568.226-.251.43-.395.593.014 7.482 18.027 24.37 30.554 44.083 30.554 33.087 0 58.794-32.681 58.29-63.546-.438-26.06-20.67-50.582-47.823-50.466m.603 87.959c-21.438.053-35.299-18.581-35.334-37.867-.032-14.101 7.895-24.437 22.814-24.469 21.438-.053 35.655 18.934 35.687 38.231.021 14.093-8.252 24.076-23.167 24.105m-211.925-87.959c-15.649-.571-29.845 8.061-39.105 21.322-4.837 6.925-11.762 19.018-19.54 32.607-10.012 17.487-20.098 34.823-27.259 34.703-4.459-.088-5.761-4.378-5.987-9.518-.607-13.384.258-26.642.155-40.005-.025-3.697.212-6.562-2.491-8.333-4.082-2.646-13.018-2.716-18.531 4.367-11.398 14.686-22.624 30.321-35.454 43.829-5.387 5.669-11.338 9.892-19.255 9.913-5.147 0-8.594-.811-13.981-7.137-7.359-8.629-14.086-22.945-16.704-29.633-.427-1.097.148-1.372.575-1.499 29.298-8.551 64.858-27.566 64.34-64.305-.36-25.008-19.015-41.049-44.231-41.91-28.536-.956-55.767 13.017-72.023 36.481-27.016 38.987-21.824 89.166-13.907 123.675 1.023 4.484 4.547 6.382 8.587 6.382 9.652-.018 20.987-11.688 18.359-21.456-13.779-51.153-10.22-80.045 3.217-98.665 9.176-12.696 25.615-20.902 41.459-21.05 17.007-.176 35.059 7.394 34.579 27.125-.603 24.373-31.514 31.923-51.146 33.803-5.426.519-10.774 2.48-14.199 7.031-4.554 6.026-4.138 13.377-1.951 20.87 3.849 13.197 9.761 23.435 17.032 35.098 6.043 9.701 16.746 19.681 29.238 20.316 18.404.91 29.432-10.488 39.656-21.664 6.929-7.571 12.682-15.145 19.336-23.107.476-.554.663-.293.663.162-.286 20.098-.173 45.166 23.357 44.609 12.764-.31 21.347-9.454 28.677-18.447 6.089-7.458 11.299-16.573 16.595-25.594.385-.568.624-.829.836.011 4.949 21.576 23.022 43.487 46.479 44.03 31.838.713 51.562-33.362 49.601-61.013-1.736-24.479-20.028-52.049-46.977-52.998m8.023 87.874c-18.32.3-35.811-28.483-34.294-47.258.691-8.477 5.285-14.877 14.993-14.845 18.51.067 34.653 25.788 34.011 43.293-.342 9.518-4.205 18.655-14.71 18.81m-119.278-89.274c.353-9.282 7.909-16.796 16.891-16.803 8.982 0 16.013 7.521 15.681 16.803-.335 9.278-7.913 16.789-16.88 16.789-8.99-.022-16.013-7.511-15.692-16.789" fill="#004b88"/></svg>