<?xml version="1.0" encoding="UTF-8" standalone="no"?>
<!-- Created with Inkscape (http://www.inkscape.org/) -->
<svg xmlns:dc="http://purl.org/dc/elements/1.1/" xmlns:cc="http://creativecommons.org/ns#" xmlns:rdf="http://www.w3.org/1999/02/22-rdf-syntax-ns#" xmlns:svg="http://www.w3.org/2000/svg" xmlns="http://www.w3.org/2000/svg" xmlns:sodipodi="http://sodipodi.sourceforge.net/DTD/sodipodi-0.dtd" xmlns:inkscape="http://www.inkscape.org/namespaces/inkscape" viewBox="0 0 316 316" width="300" height="300">
  <defs id="defs4">
    <clipPath id="clipPath7407" clipPathUnits="userSpaceOnUse">
      <path transform="translate(333.64286,57.066389)" style="fill:none;stroke:#ff00ff;stroke-width:1px;stroke-linecap:butt;stroke-linejoin:miter;stroke-opacity:1" d="m 147.14286,185.75504 18.92857,4.46428 11.25,-13.57142 0.625,-8.75 -13.17575,-3.2241 -4.23497,-10.70448 -7.5,-15.89285 -7.14285,0.71428 -19.10715,27.85715 -0.80357,6.51785 c 0,0 0.22888,2.35697 1.09941,3.33167 0.87054,0.97471 4.12381,2.51655 4.12381,2.51655 z"/>
    </clipPath>
  </defs>
  <g transform="translate(0,-736.36218)">
    <g transform="matrix(0.58061538,0,0,0.58061538,-43.699319,722.26671)">
      <path transform="matrix(1.4466762,0,0,1.4466762,1134.548,-89.105265)" d="m -359.99998,266.64789 c 0,101.77819 -82.50753,184.28572 -184.28573,184.28572 -101.77819,0 -184.28572,-82.50753 -184.28572,-184.28572 0,-101.7782 82.50753,-184.285723 184.28572,-184.285723 101.7782,0 184.28573,82.507523 184.28573,184.285723 z" id="path8399" style="fill:#ffffff;stroke:#3d9ad5;stroke-width:3.45619822;stroke-miterlimit:4;stroke-opacity:1;stroke-dasharray:none"/>
      <g transform="translate(1.1030889,-4.6531051)" style="fill:#aaa09f;fill-opacity:1" id="g7483">
        <path d="M 36.169113,46.562053 C 35.053472,44.671182 32.646523,42.342047 30.820338,41.386198 26.811254,39.287791 13.078496,38.332092 7.8156304,39.785239 3.6577023,40.933298 0,39.2269 0,36.139077 0,34.235516 4.2943421,27.266547 8.4045227,22.5 c 2.4366823,-2.825803 2.6680613,-2.895737 3.9847723,-1.204398 1.596469,2.050693 7.455392,3.217697 9.442855,1.880867 2.127956,-1.43133 -0.551326,-9.119202 -3.579329,-10.270446 C 15.581874,11.890531 15.71001,11.493232 20.722031,5.25 22.598558,2.9125 24.728691,1 25.455659,1 c 0.743398,0 1.610478,1.6408855 1.981583,3.75 0.362903,2.0625 1.570552,6.550118 2.683665,9.972485 2.499065,7.683603 8.931608,14.503582 16.071431,17.039423 C 48.836552,32.70105 51,33.829647 51,34.269902 51,36.475006 41.020362,50 39.39329,50 38.735634,50 37.284755,48.452924 36.169113,46.562053 z M 183.09319,-44.573789 c -0.3817,-0.3817 0.46464,-2.67108 1.88076,-5.08751 2.22824,-3.80219 2.47081,-5.0294 1.80232,-9.11834 -0.42485,-2.59865 -0.91943,-5.62483 -1.09907,-6.72483 -0.17963,-1.1 -0.61214,-4.5875 -0.96114,-7.75 -0.349,-3.1625 -0.92648,-5.75 -1.28331,-5.75 -0.91798,0 -4.52985,-6.90705 -3.92707,-7.50983 0.55565,-0.55566 8.72623,-2.05689 16.25405,-2.98646 5.70788,-1.024357 9.72819,-0.660416 5.90349,3.60911 -1.56749,1.72759 -2.06866,3.35424 -1.81383,5.88718 0.19366,1.925 0.38084,4.09703 0.41595,4.82673 0.0351,0.72969 1.29849,-0.17031 2.8075,-2 1.50902,-1.8297 3.30902,-3.92137 4,-4.64816 1.26613,-1.33173 0.41397,-2.394632 1.6544,-5.67857 1.24043,-3.283938 7.29612,-2.802514 11.65512,-2.32835 3.71687,0.35374 4.89506,3.02174 1.61347,3.65372 -1.71206,0.32971 -8.15331,6.66857 -9.98168,9.823 -1.20171,2.07327 10.96211,16.30372 14.56503,17.03963 1.5125,0.30893 2.75,1.02701 2.75,1.59573 0,1.64612 -9.25577,9.72385 -11.91872,10.40174 -1.80995,0.46076 -2.90703,0.0115 -4.35887,-1.78503 -1.06709,-1.32041 -3.69117,-4.35925 -5.83129,-6.75296 -2.14011,-2.39341 -3.89112,-4.75591 -3.89112,-5.24969 0,-0.49379 -0.50925,-0.89779 -1.13167,-0.89779 -2.08785,0 -0.21009,8.03385 2.55148,10.9163 1.4191,1.48123 2.58019,2.96536 2.58019,3.29807 0,1.18693 -23.18811,4.26418 -24.23599,3.21631 z m 67.42045,0.06338 c -4.02355,-0.72899 -11.11773,-1.64216 -15.76485,-2.02926 -4.64712,-0.38711 -8.71548,-1.13451 -9.04081,-1.6609 -0.32533,-0.5264 0.35155,-1.83567 1.50417,-2.90949 4.01162,-3.7374 5.13104,-7.48014 5.62564,-18.80919 0.3863,-8.84842 0.19105,-11.2427 -1.01516,-12.44892 -0.8214,-0.82139 -1.49345,-1.94526 -1.49345,-2.49748 0,-0.55223 -0.92477,-1.29756 -2.05505,-1.65629 -1.13027,-0.35874 -1.87906,-1.17656 -1.66397,-1.81739 0.93069,-2.77289 34.23149,-0.037 37.98256,3.12054 1.23909,1.04301 1.32669,1.93953 0.46413,4.75 -1.13269,3.69064 -3.05317,4.38338 -5.64893,2.03764 -0.86831,-0.78467 -3.3268,-1.57217 -5.46331,-1.75 -3.21565,-0.26764 -3.95988,0.0211 -4.32189,1.67668 -0.45284,2.07104 -0.43118,7.69569 0.0314,8.1583 0.6065,0.60649 8.39788,0.4518 11.07139,-0.21981 l 2.89634,-0.7276 -0.52345,4.64401 c -0.28789,2.5542 -1.09327,5.3306 -1.78972,6.16978 -1.13255,1.36464 -1.45417,1.35574 -3.04529,-0.0842 -0.97845,-0.88548 -3.61393,-1.85609 -5.85661,-2.1569 -3.76,-0.50432 -4.0868,-0.3614 -4.19549,1.83475 -0.37661,7.60944 -0.28839,8.88844 0.61787,8.95797 0.55,0.0422 1.9,0.26354 3,0.49186 1.1,0.22833 3.95069,-0.3079 6.33488,-1.19163 5.52373,-2.04744 6.69608,-1.06206 5.22706,4.39344 -0.95185,3.53491 -2.75493,5.42865 -4.89373,5.13978 -0.36751,-0.0496 -3.9602,-0.6867 -7.98375,-1.41569 z m -94.78955,3.7978 c -1.35906,-0.97385 -3.80588,-8.21423 -3.03606,-8.98404 0.307,-0.307 2.38595,0.17315 4.6199,1.067 7.19781,2.87999 13.02125,1.78323 13.02125,-2.45238 0,-2.80102 -2.59433,-4.06637 -9.18334,-4.47904 -21.02742,-1.398928 -18.47599,-14.064145 -9.67767,-21.448009 6.58717,-5.528186 17.46066,-7.311252 20.27676,-3.475041 2.6865,6.284708 -3.72284,5.787474 -5.87136,5.05599 -5.12722,-1.76265 -9.79913,-0.36818 -9.34864,2.7904 0.26055,1.82684 1.32241,2.28576 7.3925,3.19494 12.37658,1.85377 16.38056,4.88351 16.85291,12.75229 0.33462,5.57437 -1.70432,9.55579 -6.74266,13.16635 -3.40933,2.44317 -5.33394,3.03646 -10.67869,3.29186 -3.5859,0.17134 -7.0171,-0.0448 -7.6249,-0.48032 z M 130.77533,-30.0916 c -0.36954,-0.59793 -0.17109,-1.58793 0.44098,-2.2 1.70521,-1.70521 1.32775,-6.371339 -0.86271,-10.665009 -1.08657,-2.12985 -3.07819,-6.8018 -4.42581,-10.38212 -3.16767,-8.41572 -5.13417,-11.33236 -8.15124,-12.08959 -1.34606,-0.33784 -2.44737,-1.08475 -2.44737,-1.65981 0,-1.34143 16.62084,-9.04811 19.96568,-9.25761 2.36884,-0.14837 2.51364,0.10592 2.21759,3.89446 0.93101,5.394342 6.37176,29.480914 12.34437,32.64136 1.3598,0.61956 2.47236,1.46411 2.47236,1.876759 0,0.77749 -5.90738,3.71055 -12,5.9581 -1.925,0.71013 -3.9275,1.66902 -4.45,2.13087 -1.34215,1.18635 -4.30655,1.04265 -5.10385,-0.24741 z m 192.55385,9.52416 c -4.125,-2.45437 -7.64447,-4.89017 -7.82104,-5.41288 -0.17657,-0.52271 0.77631,-1.2258 2.11751,-1.56242 9.623,-5.99634 14.21002,-16.418887 17.6639,-24.652859 4.01205,-5.3044 -1.48307,-8.17936 -7.76712,-3.7828 -5.85927,3.485196 -28.24678,25.151409 -32.97745,23.606999 -0.57639,-15.210831 -5.86922,-39.451604 3.03421,-42.648159 6.34106,-1.98686 7.0303,-2.15122 9.75,-2.32509 2.11469,-0.13519 2.45283,0.22549 2.19396,2.34018 -0.16832,1.375 -0.55346,5.9875 -0.85588,10.25 -0.47377,6.6776 -1.30978,10.026786 0.0739,10.026786 3.61716,-1.002807 5.20007,-1.308149 8.11671,-3.532026 4.5068,-3.46019 5.42744,-4.66063 4.98095,-6.49476 -0.40885,-1.67948 -0.10764,-2.25 1.18789,-2.25 1.96571,0 10.53972,3.06168 11.30248,4.03599 0.275,0.35127 3.48509,2.09784 7.13353,3.88128 3.64844,1.78343 8.14712,4.50621 9.99707,6.05062 l 3.36354,2.80801 -3.71311,2.19079 c -2.04221,1.20493 -4.34727,3.39285 -5.12235,4.86205 -0.77509,1.46919 -2.22342,4.24626 -3.21851,6.171259 -0.9951,1.925 -3.30122,5.63288 -5.12472,8.23974 -2.41483,3.45223 -3.31545,5.8291 -3.31545,8.75 0,5.24745 -1.36728,5.17875 -11,-0.55271 z M 105.97204,-62.56308 c -1.63366,0.01529 -3.23541,0.591256 -6.3125,2 -3.07079,1.40585 -9.02834,4.66312 -13.21875,7.21875 -6.97007,3.185608 -7.40728,3.47975 -10.3125,7.0625 1.00266,3.102562 5.16971,-1.282251 13.15625,12.59375 2.43362,5.59987 8.7928,12.96458 8.96875,17.375 -0.92626,2.65724 -3.69926,1.60396 -0.24232,3.87169 1.4918,1.39294 1.88175,0.86039 3.76191,0.36967 5.08701,-1.32772 12.05381,-6.86384 12.79291,-7.36636 3.16051,-2.06688 3.64415,-4.5625 0.875,-4.5625 -2.81077,-1.11153 -6.15936,-4.87061 -6.90242,-7.6018 -1.45393,-6.610838 6.17215,-1.9891 11.21492,-13.80445 1.13748,-3.32274 1.12532,-4.46209 -0.0937,-7.5 -1.87648,-4.67619 -5.41148,-7.78005 -10.40625,-9.125 -1.33329,-0.359006 -2.3011,-0.540427 -3.2813,-0.53125 z m -6.8125,10.46875 c 1.78213,-0.0094 4.41504,1.050938 5.875,2.75 2.57997,3.00249 2.83651,5.05095 0.90625,7.59375 -0.73064,0.9625 -1.58047,1.75 -1.875,1.75 -0.82085,0 -6.75,-9.52464 -6.75,-10.84375 0,-0.849979 0.77447,-1.244359 1.84375,-1.25 z M 364.56832,9.10512 c -1.92357,-2.60178 -2.16023,-4.35465 -2.36989,-17.55336 -0.1281,-8.06463 -0.53582,-14.85016 -0.90604,-15.07897 -1.17283,-0.72485 -10.96321,13.71781 -10.96321,16.17281 0,3.07231 -1.85126,2.98452 -6.91026,-0.3277 -4.49374,-2.94214 -5.16971,-4.84483 -2.07066,-5.82842 1.11049,-0.35246 5.46935,-5.22029 9.68635,-10.81739 4.217,-5.59711 7.96039,-10.40156 8.31864,-10.67656 1.32908,-1.02023 1.84011,-5.385259 0.84759,-7.239809 -0.56412,-1.05406 -0.7754,-2.56865 -0.46953,-3.36575 0.45727,-1.19162 1.40433,-1.00815 5.32701,1.03199 2.62397,1.3647 6.54708,4.01137 8.71801,5.88149 l 3.94716,3.400229 0.68916,13.89593 c 0.37904,7.64275 0.74032,14.06509 0.80285,14.27186 0.0625,0.20676 2.34107,-1.7848 5.06342,-4.42569 3.38489,-3.28359 5.04468,-5.74923 5.25,-7.79893 0.41222,-4.11495 1.74625,-4.2152 5.82014,-0.43738 1.91407,1.77495 3.7242,3.15907 4.02253,3.07582 0.29832,-0.0832 0.60477,0.67651 0.68099,1.68835 0.0898,1.19208 -0.74718,2.06203 -2.37758,2.47123 -1.38388,0.34733 -7.96886,6.01332 -14.63329,12.59109 -7.77201,7.67094 -12.87364,11.95957 -14.22678,11.95957 -1.16671,0 -3.06478,-1.2919 -4.24661,-2.89041 z M 53.83323,27.80755 C 53.5688,27.08594 55.64722,27.30618 53.04421,24.34306 50.4412,21.37994 46.69831,15.43731 42.24926,11.26 37.60468,6.92975 35.45597,5.60285 33.0129,5.55625 29.46728,5.48865 29.30168,4.72758 30.93262,-4.00447 c 0.46227,-2.475 0.8531,-6.14453 0.86852,-8.15451 -0.17301,-3.84601 2.71211,-4.73594 5.33125,-2.86954 3.03511,2.20268 20.11834,8.43583 20.92081,7.63336 0.28567,-0.28567 -0.0307,-3.43487 -0.70306,-6.99823 -1.11321,-5.8998 -1.52626,-6.62298 -4.62171,-8.09187 -1.86959,-0.88717 -3.39925,-1.94824 -3.39925,-2.35792 0,-1.05265 7.5184,-8.12524 13.86937,-13.047 4.21626,-3.267419 5.66538,-3.915379 6.7477,-3.017129 0.7737,0.64212 1.18118,2.23115 0.92889,3.622419 -0.34127,1.88198 1.07035,4.49339 5.86507,10.85003 2.70141,6.71628 7.93114,14.92603 14.22146,16.87429 1.30213,0.32681 2.36751,1.16427 2.36751,1.86101 0,1.27392 -12.8778,12.32723 -15.56207,13.35728 -1.3775,0.5286 -1.21284,-0.94086 -1.49718,-3.47922 -0.28434,-2.53836 -6.62133,-12.6236 -8.44075,-14.18297 -0.825,-0.68469 -1.49749,-0.85229 -1.49442,-0.37244 -0.15136,5.49403 6.888,23.82971 4.46245,26.39898 -8.6244,-1.87458 -10.13155,-2.55604 -16.46803,-4.50938 -2.34972,-0.70229 -2.29285,-0.5299 0.94617,2.86782 1.89539,1.98826 4.37039,3.62191 5.5,3.63033 3.46945,0.0259 4.90747,1.45539 3.71167,3.68976 -2.4879,1.67796 -2.6451,3.12675 -7.94292,7.85695 -1.77625,1.24413 -2.32793,1.29501 -2.71087,0.25 z m 329.1396,1.10117 c -4.21163,-4.99496 -7.38655,-9.52017 -7.05538,-10.05601 0.33117,-0.53585 1.87645,-0.69439 3.43394,-0.3523 3.88552,0.8534 6.96125,-1.02252 16.76548,-10.22547 7.97101,-7.48214 8.22889,-7.86236 6.74876,-9.95023 -0.84641,-1.19395 -2.88838,-2.4672 -4.53769,-2.82945 -1.64932,-0.36225 -2.99876,-1.0122 -2.99876,-1.44433 0,-1.74508 4.26547,-6.0554 5.99239,-6.0554 4.17828,0 26.68944,27.0596 25.37051,30.49669 -0.73816,1.92359 -5.21271,4.71416 -6.39115,3.98585 -0.53446,-0.33031 -0.97175,-1.43721 -0.97175,-2.45977 0,-2.92756 -1.07233,-4.99111 -3.17975,-6.11897 -1.62372,-0.86899 -2.88265,-0.2519 -7.63235,3.74118 -2.58087,3.42477 -17.98798,11.67812 -15.60954,17.48181 0.21979,0.35563 -0.20266,1.14645 -0.93879,1.75738 -1.0518,0.87291 -2.97818,-0.83398 -8.99592,-7.97098 z m 24.75546,36.33681 c -2.03432,-3.7125 -5.65635,-9.86713 -8.04894,-13.67696 -2.39259,-3.80983 -4.35017,-7.48796 -4.35017,-8.17364 0,-0.82497 1.43761,-1.19285 4.25,-1.08755 3.81859,0.14297 5.38948,-0.65147 15.47546,-7.82636 6.174,-4.39202 11.2365,-8.32299 11.25,-8.73549 -1.94484,-2.2292 0.27738,-3.75262 1.71902,-4.32185 1.44164,-0.56922 1.86278,-0.42612 3.58328,1.58328 4.00515,5.65944 7.36126,12.03418 10.72224,17.37114 5.47234,8.66483 5.26988,12.01345 -0.79971,13.22737 -3.12721,0.62544 -3.18639,0.57058 -2.5917,-2.40287 1.22955,-6.14778 -5.33167,-10.57763 -9.74767,-6.5812 -1.45723,1.31877 -1.58411,2.02707 -0.67176,3.75 1.2724,2.40288 4.68823,5.62413 5.96385,5.62413 2.08899,0 0.53655,3.02874 -2.52104,4.91844 -4.69382,2.90094 -6.62378,2.70747 -6.66793,-0.66844 -0.0198,-1.5125 -1.08362,-4.03068 -2.36409,-5.59596 -2.24891,-2.74914 -2.42878,-2.79391 -5.28687,-1.31594 -5.05724,2.6152 -5.88154,4.24661 -4.06764,8.0504 0.91937,1.92794 2.87076,3.8312 4.70857,4.59245 3.81849,1.58167 3.66092,3.70394 -0.45401,6.11505 -5.03504,2.95024 -6.11192,2.4336 -10.10089,-4.846 z M 17.96451,82.26232 C 16.93187,80.26908 13.14679,77.74814 4.42618,73.24553 -7.20818,67.2385 -11.5547,66.2551 -11.5547,68.1094 c 0,0.47373 -0.25401,0.39126 -1.64477,0.1254 -2.94022,-0.56205 -2.84869,-1.12397 1.82917,-11.23052 1.99066,-4.10344 2.59881,-8.72838 6.77692,-11.00875 0.63983,0 1.28725,1.575 1.92256,3.5 0.63531,1.925 1.4816,3.5 1.88064,3.5 0.39905,0 5.81567,2.7 12.03692,6 6.22126,3.3 11.60163,6 11.95637,6 0.92402,0 3.21728,-3.87734 3.66342,-6.19396 0.20838,-1.08203 -0.15351,-2.8198 -0.8042,-3.86172 -1.77537,-2.84282 0.16368,-4.22929 3.49659,-2.50016 2.17198,1.08595 2.8154,0.67906 4.67122,2.93651 0.94234,1.13544 0.36857,3.01082 -2.81256,9.19281 -3.02599,5.28807 -5.48513,10.15121 -6.71782,13.51637 -2.34282,6.51516 -4.75037,8.00823 -6.73525,4.17694 z m 432.82003,-23.2629 c -0.75013,0 -2.07612,1.46602 -2.9375,3.28125 -1.35193,2.84897 -3.2848,4.09118 -14.28125,9.03125 -10.31596,4.63436 -13.37489,5.61878 -16,5.09375 -6.76036,1.38466 3.61179,23.07408 6.875,16.21875 1.02633,-2.25254 7.61327,-6.23048 8.625,-5.21875 0.98331,0.98331 -6.04378,9.46184 -8.3125,10.03125 -1.29408,0.3248 -2.14594,1.13061 -1.90625,1.8125 0.23968,0.6819 0.6802,2.6 1,4.25 0.87131,4.49547 3.13981,11.91282 4.1875,13.75 0.58939,1.03351 3.28125,0.95829 3.28125,-0.0937 0,-0.46968 1.12001,-2.04468 2.46875,-3.5 1.95571,-2.10597 2.47015,-4.15758 3.9375,-6.09375 2.8388,-4.407 3.734,-6.9367 8.0625,-4.4375 4.12946,2.43644 7.22939,2.65689 11.53125,0.875 3.58241,-1.48388 7,-6.65833 7,-10.5625 -0.35813,-3.1061 -9.13561,-33.53721 -13.53125,-34.4375 z m 4.09375,24.5625 c 0.33798,1.728 0.0246,3.6242 -0.75,4.625 -2.80006,3.61777 -10.00445,2.89782 -11.28125,-1.125 -0.91844,-2.89377 0.018,-3.88836 4.28125,-4.65625 2.04321,-0.36802 4.26795,-1.13084 4.96875,-1.6875 2.13653,-1.66406 2.59699,1.9154 2.78125,2.84375 z m -458.53125,-4.75 c -4.62233,0.0767 -9.35564,1.58095 -13.375,4.75 -14.79769,11.66719 -13.77703,35.2835 1.84375,42.53125 7.75927,3.60016 17.12759,1.84575 23.8125,-4.46875 2.42241,-2.28818 4.7353,-5.17842 5.125,-6.40625 4.03545,-9.17023 3.52582,-12.41017 3.0625,-19.59375 C 16.19428,85.27487 6.51617,78.64327 -3.65296,78.81192 z m -6.53125,13.875 c 2.71669,-0.0124 6.03946,0.64668 10.1875,1.9375 6.81507,2.12077 9.3125,4.52639 9.3125,8.96875 0,4.09797 -2.21656,8.89302 -4.53125,9.78125 -3.07845,1.18131 -9.9858,0.48087 -16.4375,-1.6875 -5.85228,-1.9669 -6.61364,-2.55955 -7.90625,-6 -1.26802,-3.37499 -1.24834,-4.20776 0.1875,-7.21875 1.86076,-3.90206 4.65969,-5.76052 9.1875,-5.78125 z m 449.39824,59.12715 c -5.16573,0.44505 -6.47956,-1.39031 -7.27443,-10.16201 -0.37329,-4.11935 -1.27802,-10.63504 -2.01051,-14.47931 l -1.3318,-6.98957 2.81313,-0.41288 c 8.97301,1.04906 11.99676,0.0494 19.70549,-1.49633 10.4488,-2.10389 13.61783,-3.10947 13.96337,-4.43082 0.65332,-2.49829 3.06855,-3.05498 4.18704,-0.96508 1.17146,2.1889 1.82932,5.5905 2.69803,13.95072 l 0.65808,6.33326 -4.39662,-0.58709 c -2.41815,-0.3229 -9.79663,0.20213 -16.39663,1.16674 l -12,1.75383 -0.30264,3.62044 c -0.24652,2.94902 0.82162,3.67106 2.84865,6.77172 2.02703,3.10066 -0.22094,5.69095 -3.16116,5.92638 z m -473.79662,21.34632 c -0.5158,-0.96378 -1.06364,-5.44317 -1.21741,-9.9542 -0.33274,-9.76085 0.64226,-11.52022 4.96815,-8.96485 2.36688,1.39814 5.29421,1.6196 18.24019,1.37987 8.48146,-0.15705 16.32084,-0.47458 17.42084,-0.70561 1.82205,-0.38269 2.15734,0.26921 2.02947,5.57993 -0.12787,5.31072 -0.48825,8.96542 -0.52947,11.55902 0,2.18577 -3.55975,2.76474 -4.24848,0.69098 -0.29914,-0.90071 -4.38489,-1.34117 -14.62151,-1.57625 -12.83543,-0.29477 -14.53918,-0.12988 -17.65517,1.70859 -3.24834,1.91657 -3.5033,1.93299 -4.38661,0.28252 z m 470.91177,15.12037 c -3.45207,-0.65847 -5.20788,-2.3062 -4.47061,-4.19544 0.34122,-0.87439 0.86711,-7.88979 1.16863,-15.58979 0.30152,-7.7 0.676,-14.14568 0.83217,-14.32374 0.15617,-0.17805 1.69746,0.40722 3.42509,1.30061 2.43152,1.25739 4.99402,1.51301 11.34293,1.13153 4.51098,-0.27106 10.81078,-0.51883 13.99954,-0.55061 4.95589,-0.0494 6.1565,-0.44489 8.26844,-2.72371 2.38955,-2.57836 2.51643,-2.60336 3.86357,-0.76102 0.76609,1.04768 1.25781,2.13485 1.09271,2.41591 -0.1651,0.28107 -0.59562,7.03395 -0.95671,15.00641 -0.36109,7.97247 -1.03925,14.87811 -1.50703,15.34589 -0.46777,0.46777 -2.47235,1.06906 -4.45461,1.33619 -2.93108,0.395 -3.60412,0.16425 -3.60412,-1.23564 0,-0.94673 0.6454,-2.22094 1.43422,-2.83158 0.78881,-0.61063 1.57631,-3.13524 1.75,-5.61024 l 0.31578,-4.5 -3.88178,-0.31822 c -2.13498,-0.17502 -4.34686,0.14686 -4.91529,0.71529 -1.30323,1.30323 -1.05561,8.97305 0.34414,10.65965 1.53952,1.855 -0.70924,2.89235 -5.51742,2.54519 -5.30999,-0.38339 -5.83675,-0.82537 -4.04037,-3.39006 0.83089,-1.18627 1.51072,-4.10321 1.51072,-6.48207 l 0,-4.32521 -6.25,0.29771 -6.25,0.29772 0.12176,5.19319 c 0.0795,3.38997 0.70262,5.77405 1.79464,6.86607 3.13238,3.13238 0.60097,4.87375 -5.4164,3.72597 z m -464.64976,26.46477 c -2.10106,-2.8875 -4.59882,-6.10565 -5.55059,-7.15144 -2.04117,-2.24282 -1.50484,-3.59856 1.4236,-3.59856 2.63052,0 18.77675,-8.97103 18.77675,-10.43258 0,-1.35983 -16.45415,-6.71411 -18.37171,-5.97828 -1.79344,0.68821 -2.22697,-0.058 -3.10046,-5.33694 -0.86203,-5.20962 0.92711,-6.40198 5.15356,-3.43455 1.55024,1.08843 7.91906,3.67433 14.15294,5.74645 11.09149,3.68676 11.39706,3.73043 14.26195,2.0381 1.61019,-0.95117 3.75937,-1.4654 4.77596,-1.14275 2.44019,0.77449 8.12776,7.07629 8.12776,9.00553 0,0.83505 -3.41434,3.65954 -7.58741,6.27665 -18.76538,11.76852 -22.38961,14.29367 -23.9642,16.69679 -0.92313,1.40887 -2.26333,2.56158 -2.97823,2.56158 -0.7149,0 -3.01887,-2.3625 -5.11992,-5.25 z m 489.31643,23.58333 c -0.36667,-0.36666 -0.66667,-1.37917 -0.66667,-2.25002 0,-0.87085 -1.8201,-4.14901 -4.04466,-7.28481 -4.27586,-6.02738 -4.83618,-6.18706 -9.95534,-2.83702 -4.2531,3.01484 -10.78873,2.94879 -12.14215,8.52638 -0.19682,1.01552 -0.88918,2.02331 -1.53858,2.23952 -1.63987,0.54597 -8.54404,-10.5401 -8.69537,-13.96221 -0.11415,-2.58121 0.5349,-3.09547 8.2458,-6.53345 4.60334,-2.05245 8.31254,-4.18172 8.24268,-4.73172 -0.0699,-0.55 -2.71122,-1.04652 -5.8697,-1.10338 l -5.74268,-0.10337 -0.10018,-3.39663 c -0.0551,-1.86814 0.23874,-4.74662 0.65295,-6.39662 0.41422,-1.65 1.03037,-4.2375 1.36923,-5.75 0.34825,-1.55443 1.291,-2.75 2.16848,-2.75 1.77714,0 4.66645,0.86295 3.98069,2.40102 -0.68575,1.53807 5.96769,2.74944 18.92179,4.18093 3.29613,0.36424 6.89613,1.00313 8,1.41976 1.21259,0.45767 3.13236,0.18224 4.84997,-0.69583 1.56361,-0.79935 3.11028,-1.186 3.43704,-0.85925 1.42668,6.28292 -5.31312,25.42404 -7.06657,19.56541 -0.53587,-2.04917 -4.35403,-4.01204 -7.80418,-4.01204 -1.81765,0 -1.85668,0.20048 -0.53539,2.75 0.78386,1.5125 3.22696,4.79469 5.42912,7.29375 3.71739,4.21858 3.95115,4.8324 3.26639,8.57707 -1.049,5.7365 -2.49825,7.61693 -4.40267,5.71251 z m -19.54729,38.29375 -2.30738,-2.4561 2.14751,-1.14931 c 2.26973,-1.21472 6.03044,-6.67085 6.03675,-8.75825 0.004,-1.4843 -6.51745,-4.38439 -8.31162,-3.6959 -1.7863,0.68547 -3.53048,5.78811 -2.97383,8.70001 0.66143,3.46007 -1.62522,3.96722 -6.56848,1.45679 -4.25332,-2.16005 -5.26491,-4.07957 -2.67393,-5.07382 1.29955,-0.49868 4.5316,-6.66462 4.5316,-8.64514 0,-0.41271 -2.1375,-1.67761 -4.75,-2.81088 l -4.75,-2.06049 -1.70808,3.18301 c -1.96047,3.65331 -2.25882,7.94206 -0.7488,10.76358 1.63782,3.06029 -1.52595,3.56921 -6.66551,1.07222 -3.88451,-1.88724 -4.38286,-2.50079 -4.18117,-5.14771 0.27401,-3.14385 2.77054,-4.93758 4.00711,-7.25509 1.9798,-3.74931 3.28219,-6.82948 8.13944,-19.25 1.74091,-4.45169 2.57768,-5.46767 4.04079,-4.90623 0.77423,0.2971 1.13418,1.47702 0.87084,2.85458 -0.33762,1.76614 0.33955,2.93106 2.73203,4.6999 1.7495,1.29346 3.48071,2.36979 3.84713,2.39184 1.30722,0.0786 17.69872,5.58647 19.42097,6.52577 1.20234,0.65574 2.8689,0.49149 5.29392,-0.52175 5.52912,-2.31021 5.47614,-1.25531 -0.74873,14.9091 -0.6255,1.62427 -2.74887,6.12427 -4.7186,10 -4.04459,7.9583 -6.26348,9.11071 -9.96196,5.17387 z M -7.9844,278.07668 c -1.13263,-1.35883 -3.19755,-5.90902 -11.27354,-24.8421 -1.26611,-2.96825 -1.21471,-3.43722 0.57264,-5.22457 2.25226,-2.25226 6.29999,-3.50263 8.54721,-2.64029 1.35306,0.51921 1.36593,0.92147 0.10745,3.35784 -1.26515,2.4493 -1.23316,3.17092 0.27789,6.26797 1.74156,3.56953 2.47953,3.76153 7.23844,1.88328 2.39391,-0.94483 2.56926,-1.35268 1.77388,-4.126 -0.48545,-1.69265 -1.79337,-4.04698 -2.90651,-5.23186 -3.01469,-3.20899 -2.53631,-4.1276 3.11152,-5.97492 5.54031,-1.81214 8.29092,-0.97404 5.97229,1.81974 -0.95078,1.14562 -0.88882,2.21782 0.29135,5.04238 0.8244,1.97306 2.01636,3.58738 2.6488,3.58738 2.12475,0 7.79189,-3.13995 8.36562,-4.63508 0.86554,-2.25555 -3.17971,-9.32555 -5.93524,-10.3732 -2.92164,-1.11081 -2.42954,-3.23724 1.12384,-4.85627 4.71321,-2.14748 6.32952,-1.46088 8.50426,3.61258 3.78363,8.82686 5.09048,11.73248 8.49672,18.89144 1.86833,3.92671 3.39696,7.41642 3.39696,7.75492 0,0.33849 -2.67472,0.55498 -5.94383,0.48108 -4.94561,-0.11179 -7.21078,0.47517 -13.48789,3.49509 -4.14923,1.99619 -6.83721,2.71699 -8.1518,3.62944 -1.31459,0.91245 -7.72655,7.42686 -7.8776,7.87751 -2.00727,3.53131 -3.42728,2.09139 -4.85246,0.20364 z m 415.33144,-11.07726 c -1.04103,0 -11.03097,14.71364 -11.03125,16.25 -7e-5,0.4125 1.29917,0.75 2.875,0.75 1.57583,0 4.12761,0.98507 5.65625,2.1875 2.55537,2.01006 2.61683,2.24201 0.875,2.875 -2.68539,0.97589 -8.68218,-0.14504 -9.9375,-1.84375 -0.87234,-1.18047 -1.48871,-0.86369 -3.5,1.75 -1.34265,1.74479 -3.75527,4.59672 -5.34375,6.34375 -4.35998,4.79515 -5.90853,7.50265 -5.25,9.21875 0.4523,1.17868 1.07278,1.29508 2.5,0.53125 1.46098,-0.78189 14.12376,-0.90489 18.375,-0.1875 0.4125,0.0696 0.75,1.7119 0.75,3.65625 0,4.39441 2.52287,8.34408 6.3125,9.9375 6.23655,2.62227 13.73829,-1.04083 20.28125,-9.9375 5.98843,-8.14267 12.4597,-19.07922 12.15625,-20.53125 -0.31766,-1.52001 -2.01759,-1.72702 -4.75,-0.59375 -0.90227,0.37422 -6.44709,-2.3472 -13.90625,-6.8125 -9.54806,-5.71579 -12.68872,-8.12461 -13.6875,-10.5 -0.71362,-1.69722 -1.77959,-3.09375 -2.375,-3.09375 z m 16.84375,31.8125 c 2.30933,1.8252 2.34767,1.94981 0.65625,4.53125 -4.76068,5.61606 -12.64364,-0.68792 -10.5625,-6.6875 1.34844,-3.36128 7.40937,0.19845 9.90625,2.15625 z M 24.40954,270.84317 c -2.42297,0.094 -4.70553,0.45153 -6.3125,1.0625 -11.22777,5.7658 -16.76131,18.61474 -10.8125,30.53125 1.78665,3.92195 10.20017,15.76324 13.75,19.375 0.71787,0.73038 1.778,2.19288 2.34375,3.25 0.56575,1.05711 1.41169,1.9375 1.875,1.9375 1.096,0 3.18457,-2.55417 3,-3.65625 0.2099,-5.77826 5.49834,-7.47845 8.96875,-10.09375 5.4265,-3.14468 12.42312,-10.76884 17.53125,-9.84375 4.10769,0.77061 5.03651,1.22302 3.0625,-3.40625 -1.97401,-4.62927 -6.76557,-8.95707 -10.90625,-14.46875 -5.15414,-6.8964 -9.84392,-12.15442 -11.78125,-13.15625 -2.246,-1.16146 -6.68047,-1.68787 -10.71875,-1.53125 z m 7.1875,12 c 3.46413,-0.13173 5.3852,0.75166 7.78125,3.375 1.619,1.77257 2.9375,3.52295 2.9375,3.90625 0,0.3833 -3.2625,3.08442 -7.25,5.96875 -3.9875,2.88434 -7.475,5.5025 -7.75,5.84375 -0.275,0.34125 -1.78833,1.62522 -3.375,2.84375 -1.58667,1.21854 -3.48728,2.21875 -4.21875,2.21875 -3.65088,0 -5.06051,-11.91206 -1.90625,-16.09375 2.1227,-2.81413 9.60074,-7.69716 12.21875,-7.96875 0.56404,-0.0585 1.06762,-0.0749 1.5625,-0.0937 z m 43.1875,41.53125 c -2.37468,0.0151 -4.69077,0.37449 -6.84375,1.125 -13.3266,6.0936 -16.9517,19.45545 -9.9375,31.3125 3.16154,5.11368 10.78556,11.41815 15.6875,12.96875 4.17097,1.31938 12.29588,0.74797 16.75,-1.15625 3.92388,-1.67752 9.48496,-7.40983 10.96875,-11.3125 1.54735,-4.06985 1.05313,-12.82161 -0.96875,-17.46875 -3.96715,-9.11822 -15.36595,-15.53411 -25.65625,-15.46875 z m 16.53125,16.1875 c -1.080994,8.90693 -10.446166,24.5351 -19.5,19.84375 -13.198519,-7.78434 -2.65021,-17.16683 -0.125,-20.75 7.34688,-10.49175 20.705994,-8.00068 19.625,0.90625 z m 266.90119,31.27603 c -4.0183,-5.64318 -3.21655,-10.80746 3.40469,-21.93038 3.13913,-5.27338 5.70751,-10.76036 5.70751,-12.1933 0,-2.99758 -3.24579,-5.71874 -6.8213,-5.71874 -3.19535,0 -7.87021,5.18226 -9.32979,10.34243 -1.62351,5.73972 -3.045,7.15818 -5.73225,5.72001 -5.29031,-2.83129 -0.24595,-14.26782 9.91035,-22.46866 6.11223,-4.9354 16.2991,-5.20587 20.51735,-0.54476 6.05049,9.97253 -0.18429,17.41983 -6.70827,26.68674 -1.14015,1.40645 -1.11611,1.52437 0.16391,0.80409 4.476,-2.11861 7.76918,-5.44855 10.33052,-7.91741 2.75611,-2.54685 3.66136,-4.07267 3.22742,-5.43988 -0.33935,-1.06921 -0.003,-2.39823 0.76915,-3.03906 1.71151,-1.42042 3.85685,0.35676 8.72319,7.22621 l 3.44972,4.86971 -5,4.4387 c -6.65053,5.90394 -28.31957,22.32188 -29.4613,22.32188 -0.49638,0 -1.91429,-1.42091 -3.1509,-3.15758 z m -254.33207,16.94756 c -2.16936,-1.2601 -4.73333,-3.64214 -5.69773,-5.29342 -1.62206,-2.77735 -1.63431,-3.24832 -0.16343,-6.28534 1.70338,-3.5171 3.20097,-3.71412 4.80573,-0.63225 1.84002,3.02873 9.46344,9.04478 10.88563,5.85768 -0.0797,-5.35184 -4.3606,-8.50918 -6.40022,-12.46466 -3.34057,-6.54805 -2.39398,-12.65798 2.69163,-17.37363 4.17002,-3.86665 8.51463,-4.31869 14.51156,-1.50988 6.61307,3.09739 9.09511,6.19407 7.5981,9.47966 -1.4502,3.18284 -2.69354,3.06751 -6.12501,-0.56814 -14.71316,-10.21222 -2.18133,9.09931 -0.57661,12.16735 2.65597,5.20614 1.88438,10.1245 -2.32128,14.79653 -5.38432,5.08455 -13.44597,5.11768 -19.20837,1.8261 z m 210.05821,5.80889 c -2.72799,-5.7488 -2.29065,-6.58107 3.13606,-5.96814 5.79215,0.65422 10.57403,-1.18439 15.7318,-6.04879 3.77479,-3.56009 4.0631,-5.85135 1.1873,-9.43564 -2.16037,-2.69261 -12.35305,0.46433 -20.48365,6.34433 -1.82301,1.31838 -3.84801,2.19224 -4.5,1.94192 -1.08285,-0.41575 -8.68545,-18.86809 -8.68545,-21.08053 0,-0.52263 1.6875,-1.54371 3.75,-2.26906 2.0625,-0.72535 7.90895,-3.2967 12.99211,-5.71412 7.88913,-3.75186 9.45538,-4.90574 10.69897,-7.88207 0.80128,-1.91772 1.93542,-3.48677 2.52031,-3.48677 1.5186,0 8.22739,10.79911 7.85208,12.63945 -6.46861,3.70264 -15.31178,9.7517 -21.31347,12.27215 -3.94327,1.63439 -5.5,2.81864 -5.5,4.18401 0,1.04741 0.19928,1.90439 0.44284,1.90439 5.20909,-5.17215 8.63248,-4.93524 13.60142,-7.13178 11.99688,-5.3728 21.38124,-4.27949 24.21326,2.82094 2.08587,5.22965 0.69693,11.38115 -3.46877,15.36294 -3.30372,3.15786 -26.2137,14.9479 -29.04621,14.9479 -0.83306,0 -2.24093,-1.53051 -3.1286,-3.40113 z M 137.809,403.64318 c -16.08833,-5.68242 -16.94047,-6.31839 -11.84888,-8.84308 1.57287,-0.77992 3.23683,-2.91323 4.13748,-5.30457 0.8286,-2.2 2.59634,-6.925 3.92832,-10.5 1.33198,-3.575 3.07012,-7.69443 3.86252,-9.15429 0.79241,-1.45986 1.44074,-4.49736 1.44074,-6.75 0,-2.61017 0.45338,-4.09553 1.25,-4.09521 1.50265,6.1e-4 10.94906,3.53396 14.87311,5.56316 3.08705,1.59638 2.97686,3.95245 -0.23248,4.97105 -2.1379,0.67855 -3.36795,3.28686 -8.45674,17.93255 -3.23927,9.32272 -3.36287,10.11151 -1.76724,11.27825 2.30629,1.6864 6.51374,1.58529 8.89222,-0.21371 1.06762,-0.8075 2.27863,-1.4825 2.69113,-1.5 1.21642,-0.0516 0.86046,3.76807 -0.69897,7.50032 -1.87497,4.48741 -3.02089,4.43133 -18.07121,-0.88447 z m 157.02018,-10.64765 c 0.33992,-0.55 0.14148,-1 -0.44098,-1 -0.58246,0 -1.05902,0.45 -1.05902,1 0,0.55 0.19844,1 0.44098,1 0.24254,0 0.7191,-0.45 1.05902,-1 z m 3.02646,2.19313 c -0.30789,-0.30789 -1.11479,-6.4e-4 -1.79313,0.68278 -0.98026,0.98762 -0.8654,1.10248 0.5598,0.5598 0.98622,-0.37553 1.54122,-0.93469 1.23333,-1.24258 z m -13.3836,-29.06424 c -13.09391,1.59691 -25.69383,6.40607 -24.125,19 0.5703,4.44545 1.25805,5.78707 4.46875,8.5625 5.41674,4.6824 13.04634,5.52226 22.25,2.5 2.64919,-0.86993 3.25,-0.79081 3.25,0.375 0,2.69447 -3.64547,5.07953 -9.75,6.375 -5.73575,1.21721 -6.31863,1.18038 -9.59375,-0.84375 -2.20539,-1.36301 -3.72024,-1.77992 -4.125,-1.125 -1.09383,1.76986 0.62351,10.00978 2.28125,10.9375 0.86559,0.48436 2.04178,0.72918 2.625,0.53125 0.58322,-0.19793 5.10173,-1.34164 10.03125,-2.53125 16.37747,-3.95228 19.76927,-10.11626 21.65625,-19.6875 1.40079,-8.50465 -3.79822,-18.3138 -11.4375,-22.375 -2.14434,-1.09396 -4.74695,-1.64105 -7.53125,-1.71875 z m -4.65625,7 c 1.20612,-0.0835 2.40921,0.1303 3.4375,0.78125 1.54078,0.97537 5.0615,9.5632 5.0625,12.3125 4.4e-4,0.94315 -0.7875,2.10187 -1.75,2.59375 -0.9625,0.49189 -3.21084,1.18595 -5.03125,1.53125 -2.74309,0.52032 -3.72766,0.18215 -5.75,-2 -1.34209,-1.44814 -2.52355,-3.36782 -2.59375,-4.25 -0.0702,-0.88219 -0.2407,-2.69824 -0.375,-4.03125 -0.35906,-3.564 3.38165,-6.68689 7,-6.9375 z m -95.03125,-2.25 c -4.15106,0.10405 -8.24718,0.85692 -11.25,2.25 -6.81057,2.52425 -10.2375,8.62763 -11.625,16.375 -0.35803,2.2 -0.20665,6.25 0.3125,9 0.76532,4.05394 1.7598,5.75685 5.34375,9 11.89201,10.68146 34.58342,9.71691 41.40625,-5.5 1.97265,-4.67996 1.92268,-14.03196 -0.0937,-18.28125 -2.22444,-4.68768 -7.17093,-9.08405 -12.53125,-11.15625 -3.2013,-1.23757 -7.41144,-1.79155 -11.5625,-1.6875 z m 1.75,7.09375 c 2.66522,0.0519 5.42817,0.7641 6.8125,2.25 1.78198,1.91273 2.03393,3.37502 1.875,9.96875 -0.17657,7.32599 -2.28095,14.70755 -4.625,16.15625 -5.70626,2.42389 -15.16737,-1.39974 -15.25,-9.25 0.4775,-8.29762 1.92058,-19.18994 11.1875,-19.125 z m 53.17184,34.80561 c 1.92108,-2.99708 2.14165,-5.71276 1.22003,-15.02158 -0.80058,-8.08636 -1.29873,-9.17722 -3.55429,-7.78321 -1.86572,1.15308 -4.04604,0.16238 -4.0284,-1.83045 0.0161,-1.81518 15.04755,-18.14301 16.70256,-18.14301 2.09601,0 3.0779,2.67175 3.67505,10 1.67148,20.51219 2.7931,26.3391 5.61276,29.15876 5.77983,6.62885 -24.62308,11.62798 -19.62771,3.61949 z" style="fill:#aaa09f;fill-opacity:1" transform="translate(126.02796,137.93808)" id="path7435"/>
        <path transform="matrix(1.2857138,0,0,1.2857138,87.409923,-27.759323)" d="m 28.661021,244.49477 c 0.02655,-2.0709 1.726873,-3.72817 3.79777,-3.70162 2.070898,0.0266 3.728167,1.72688 3.701614,3.79777 -0.02655,2.0709 -1.726872,3.72817 -3.79777,3.70162 -2.066598,-0.0265 -3.722167,-1.72009 -3.701739,-3.78676" style="fill:#aaa09f;fill-opacity:1;fill-rule:evenodd;stroke:none"/>
      </g>
      <path transform="translate(891.42857,30)" d="m -728.55628,264.2852 c 1.30488,-101.76983 84.86344,-183.212764 186.63326,-181.907886 101.76983,1.304877 183.21277,84.863436 181.90789,186.633266 -1.30488,101.76983 -84.86344,183.21276 -186.63327,181.90788 -101.55856,-1.30217 -182.91794,-84.53016 -181.91402,-186.0921" style="fill:#3d9ad5;fill-opacity:1;fill-rule:evenodd;stroke:none"/>
      <path style="fill:none;stroke:#3d9ad5;stroke-width:4.64028835;stroke-miterlimit:4;stroke-opacity:1;stroke-dasharray:none" d="m -359.99998,266.64789 c 0,101.77819 -82.50753,184.28572 -184.28573,184.28572 -101.77819,0 -184.28572,-82.50753 -184.28572,-184.28572 0,-101.7782 82.50753,-184.285723 184.28572,-184.285723 101.7782,0 184.28573,82.507523 184.28573,184.285723 z" transform="matrix(1.0775192,0,0,1.0775192,933.62116,9.329669)"/>
      <g transform="matrix(0.97415025,0,0,0.97415025,432.03317,780.94956)" id="g8516">
        <path transform="matrix(0.81478844,0,0,1,-25.001416,0)" style="fill:#aaa09f;fill-opacity:1;stroke:none" d="m -134.98842,-635.60272 21.77412,31.89349 0,112.5 -21.77412,0 z" id="path8510" inkscape:connector-curvature="0"/>
        <path inkscape:connector-curvature="0" id="path8541" d="m -134.98842,-635.60272 21.77412,31.89349 0,112.5 -21.77412,0 z" style="fill:#aaa09f;fill-opacity:1;stroke:none" transform="matrix(-0.81478844,0,0,1,-149.28431,0)"/>
        <path style="fill:#ffffff;stroke:none" d="m -227.8066,-379.2339 0,-117.47739 22.24056,0 0,-138.89143 70.57762,0 0,138.89143 95.691115,0 0,-138.89143 70.577615,0 0,138.89143 22.240561,0 0,117.47739 z" id="path8508" inkscape:connector-curvature="0"/>
        <circle transform="matrix(0.94915659,0,0,0.9470599,-249.44864,-562.66568)" style="fill:none;stroke:#000000;stroke-width:14.07536697;stroke-miterlimit:4;stroke-dasharray:none" cx="171" cy="54" r="49.25" id="circle7598"/>
        <circle style="fill:none;stroke:#07427e;stroke-width:14.07536697;stroke-miterlimit:4;stroke-opacity:1;stroke-dasharray:none" cx="54" cy="54" r="49.25" id="circle7596" transform="matrix(0.94915659,0,0,0.9470599,-261.76707,-562.66568)"/>
        <circle style="fill:none;stroke:#e8151c;stroke-width:14.07536697;stroke-miterlimit:4;stroke-opacity:1;stroke-dasharray:none" cx="288" cy="54" r="49.25" id="circle7600" transform="matrix(0.94915659,0,0,0.9470599,-237.13021,-562.66568)"/>
        <circle style="fill:none;stroke:#0e8565;stroke-width:14.07536697;stroke-miterlimit:4;stroke-opacity:1;stroke-dasharray:none" cx="229.5" cy="104" r="49.25" id="circle7604" transform="matrix(0.94915659,0,0,0.9470599,-243.28943,-563.9276)"/>
        <circle style="fill:none;stroke:#fad403;stroke-width:14.07536697;stroke-miterlimit:4;stroke-opacity:1;stroke-dasharray:none" cx="112.5" cy="104" r="49.25" id="circle7602" transform="matrix(0.94915659,0,0,0.9470599,-255.60785,-563.9276)"/>
        <path style="fill:none;stroke:#07427e;stroke-width:14.07536697;stroke-miterlimit:4;stroke-opacity:1;stroke-dasharray:none" inkscape:connector-curvature="0" d="m 93.4,24.45 a 49.25,49.25 0 0 1 0,59.1" id="path7606" transform="matrix(0,0.9491566,-0.9470599,0,-159.37138,-562.88216)"/>
        <path transform="matrix(-0.94915659,0,0,0.9470599,75.162914,-562.66568)" style="fill:none;stroke:#000000;stroke-width:14.07536697;stroke-miterlimit:4;stroke-dasharray:none" inkscape:connector-curvature="0" d="m 210.4,24.45 a 49.25,49.25 0 0 1 0,59.1 M 171,103.25 A 49.25,49.25 0 0 1 141.45,93.4" id="path7608"/>
        <path transform="matrix(-0.9491566,0,0,-0.9470599,87.481345,-460.38321)" id="path3025" d="m 93.4,24.45 a 49.25,49.25 0 0 1 0,59.1" inkscape:connector-curvature="0" style="fill:none;stroke:#e8151c;stroke-width:14.07536697;stroke-miterlimit:4;stroke-opacity:1;stroke-dasharray:none"/>
      </g>
    </g>
  </g>
</svg>