<?xml version="1.0" encoding="UTF-8"?>
<!-- Generator: Adobe Illustrator 16.0.0, SVG Export Plug-In . SVG Version: 6.00 Build 0)  -->
<!DOCTYPE svg PUBLIC "-//W3C//DTD SVG 1.1//EN" "http://www.w3.org/Graphics/SVG/1.1/DTD/svg11.dtd">
<svg version="1.1" id="svg2" xmlns:dc="http://purl.org/dc/elements/1.1/" xmlns:cc="http://creativecommons.org/ns#" xmlns:rdf="http://www.w3.org/1999/02/22-rdf-syntax-ns#" xmlns:svg="http://www.w3.org/2000/svg" xmlns:sodipodi="http://sodipodi.sourceforge.net/DTD/sodipodi-0.dtd" xmlns:inkscape="http://www.inkscape.org/namespaces/inkscape" sodipodi:docname="1960_Winter_Olympics_logo.svg" inkscape:version="0.48.3.1 r9886" xmlns="http://www.w3.org/2000/svg" xmlns:xlink="http://www.w3.org/1999/xlink" x="0px" y="0px" width="310.13px" height="322.45px" viewBox="0 0 355.703 369.83" enable-background="new 0 0 355.703 369.83" xml:space="preserve">
<sodipodi:namedview inkscape:cy="164.09174" inkscape:cx="195.24336" inkscape:zoom="16" showgrid="false" id="namedview4" guidetolerance="10" gridtolerance="10" objecttolerance="10" borderopacity="1" bordercolor="#666666" pagecolor="#ffffff" inkscape:current-layer="svg2" inkscape:window-maximized="1" inkscape:window-y="24" inkscape:window-height="1056" inkscape:window-width="1864" inkscape:window-x="56" inkscape:pageopacity="0" inkscape:pageshadow="2" fit-margin-bottom="0.1" fit-margin-right="0.1" fit-margin-top="0.1" fit-margin-left="0.1">
	</sodipodi:namedview>
<g>
	<g>
		<polygon fill="#FFFFFF" stroke="#3847A0" stroke-miterlimit="10" points="238.504,179.929 197.365,14.743 91.117,284.618   "/>
		<polygon fill="#F55E4E" points="238.571,181.13 93.982,85.042 211.866,357.296   "/>
		<polygon fill="#3847A0" points="153.988,124.92 7.664,219.437 304.345,219.437   "/>
	</g>
	<g>
		<path fill="#3847A0" d="M40.16,166.105l-27.403,3.056l0.405-2.624l19.847-1.829c1.54-0.138,3.025-0.236,4.455-0.297    c-1.403-0.508-2.788-1.056-4.155-1.642l-18.343-7.914l0.381-2.471l25.197,11.228L40.16,166.105z"/>
		<path fill="#3847A0" d="M42.999,151.792l-25.75-6.732l0.621-2.374l25.75,6.732L42.999,151.792z"/>
		<path fill="#3847A0" d="M45.678,142.544l-25.228-8.482l0.782-2.326l25.228,8.483L45.678,142.544z"/>
		<path fill="#3847A0" d="M48.977,133.517l-24.588-10.19l0.939-2.267l24.588,10.189L48.977,133.517z"/>
		<path fill="#3847A0" d="M51.019,101.425c-3.639-2.713-5.928-5.479-6.87-8.297c-0.94-2.818-0.655-5.242,0.859-7.272    c0.977-1.311,2.306-2.181,3.984-2.611c1.68-0.429,3.586-0.339,5.721,0.271c2.135,0.609,4.352,1.771,6.651,3.486    c3.164,2.359,5.285,4.889,6.364,7.593c1.19,2.98,0.974,5.558-0.649,7.735c-1.636,2.194-4.077,3.119-7.325,2.778    C56.813,104.8,53.901,103.574,51.019,101.425z M52.569,99.423c2.631,1.962,5.041,2.992,7.227,3.089    c2.188,0.096,3.807-0.561,4.858-1.971c1.076-1.443,1.246-3.2,0.507-5.271c-0.737-2.071-2.529-4.167-5.374-6.289    c-1.836-1.369-3.665-2.34-5.487-2.916c-1.396-0.437-2.716-0.516-3.963-0.232c-1.246,0.284-2.214,0.888-2.903,1.811    c-1.106,1.484-1.29,3.251-0.549,5.298C47.624,94.99,49.519,97.149,52.569,99.423z"/>
		<path fill="#3847A0" d="M75.457,91.313L56.469,72.662l1.719-1.751l16.747,16.45l6.402-6.517l2.241,2.2L75.457,91.313z"/>
		<path fill="#3847A0" d="M89.943,77.621l-7.104-8.754l-15.215-7.409l2.329-1.89l7.891,3.942c1.559,0.779,2.998,1.547,4.314,2.304    c-0.454-1.426-0.918-3.071-1.393-4.932l-2.138-8.353l2.203-1.788l3.916,16.58l7.104,8.754L89.943,77.621z"/>
		<path fill="#3847A0" d="M100.902,69.076L87.417,46.129l3.181-1.87l13.344,14.017l2.756,2.95c-0.311-0.955-0.747-2.348-1.31-4.179    l-5.545-18.22l2.848-1.673l13.483,22.947l-2.036,1.196l-11.277-19.191l6.613,21.932l-1.902,1.118L91.466,48.358l11.472,19.522    L100.902,69.076z"/>
		<path fill="#3847A0" d="M121.502,57.676l-9.868-24.719l6.493-2.592c1.529-0.61,2.719-0.903,3.571-0.878    c1.164,0.031,2.272,0.507,3.328,1.428c1.054,0.921,1.919,2.225,2.592,3.911c0.889,2.227,1.13,4.235,0.727,6.024    c-0.404,1.791-1.791,3.159-4.161,4.104l-4.414,1.762l4.012,10.05L121.502,57.676z M118.605,43.8l4.457-1.779    c1.405-0.562,2.283-1.345,2.634-2.353c0.352-1.006,0.227-2.262-0.375-3.77c-0.391-0.978-0.885-1.75-1.483-2.32    c-0.599-0.569-1.176-0.892-1.734-0.97c-0.556-0.077-1.427,0.121-2.612,0.594l-4.414,1.762L118.605,43.8z"/>
		<path fill="#3847A0" d="M140.222,50.872l-7.281-25.6l2.36-0.671l7.282,25.6L140.222,50.872z"/>
		<path fill="#3847A0" d="M160.181,37.04l2.583,0.461c-0.033,3.039-0.597,5.397-1.691,7.077c-1.095,1.679-2.606,2.685-4.532,3.015    c-1.694,0.291-3.225,0.052-4.593-0.715c-1.369-0.768-2.619-2.159-3.752-4.178c-1.135-2.018-1.952-4.488-2.453-7.413    c-0.495-2.889-0.53-5.399-0.107-7.53c0.423-2.131,1.203-3.818,2.337-5.063c1.135-1.245,2.509-2.006,4.123-2.283    c1.767-0.302,3.394,0.084,4.884,1.157c1.49,1.074,2.703,2.817,3.639,5.23l-2.234,1.212c-1.437-3.5-3.378-5.04-5.825-4.621    c-1.218,0.209-2.211,0.757-2.979,1.644c-0.768,0.888-1.286,2.154-1.552,3.797c-0.268,1.643-0.197,3.653,0.21,6.029    c0.615,3.595,1.615,6.198,2.998,7.81c1.382,1.614,2.966,2.266,4.751,1.961c1.317-0.226,2.361-0.973,3.13-2.24    C159.886,41.123,160.241,39.339,160.181,37.04z"/>
	</g>
	<g>
		<path fill="#3847A0" d="M233.392,55.428l6.708-26.228l2.278,1.056l-4.772,17.019c-0.481,1.752-1.008,3.51-1.575,5.274l2.823-4.114    l10.762-14.822l2.705,1.253l-3.264,13.335c-0.794,3.247-1.677,6.3-2.65,9.156c0.941-1.469,2.029-3.094,3.262-4.869l9.842-14.291    l2.24,1.039l-15.82,22.002l-2.14-0.992l4.972-20.045l0.781-3.081c-0.647,0.979-1.248,1.85-1.802,2.606l-12.101,16.744    L233.392,55.428z"/>
		<path fill="#3847A0" d="M254.388,66.248l14.166-22.533l2.076,1.304l-14.163,22.534L254.388,66.248z"/>
		<path fill="#3847A0" d="M261.872,70.973l16.506-20.88l1.972,1.559l-5.333,22.475L288,57.7l1.841,1.455l-16.503,20.88l-1.975-1.559    l5.347-22.468l-12.985,16.429L261.872,70.973z"/>
		<path fill="#3847A0" d="M281.102,87.637l16.923-16.267l-4.237-4.406l2.265-2.177l10.192,10.604l-2.263,2.175l-4.258-4.427    l-16.923,16.269L281.102,87.637z"/>
		<path fill="#3847A0" d="M289.939,97.34l21.43-15.783l7.952,10.796l-2.528,1.865l-6.497-8.824l-6.55,4.824l6.087,8.263    l-2.528,1.863l-6.087-8.263l-7.294,5.371l6.754,9.172l-2.527,1.863L289.939,97.34z"/>
		<path fill="#3847A0" d="M301.011,112.993l23.425-12.634l3.905,7.238c0.815,1.513,1.198,2.746,1.151,3.702    c-0.048,0.956-0.456,1.938-1.224,2.948c-0.767,1.011-1.822,1.878-3.163,2.602c-1.769,0.952-3.411,1.333-4.93,1.142    c-1.521-0.193-2.83-0.956-3.936-2.288c-0.102,0.837-0.285,1.533-0.556,2.086c-0.547,1.125-1.236,2.229-2.072,3.31l-4.836,6.291    l-1.466-2.716l3.697-4.805c1.45-1.872,2.39-3.201,2.818-3.987c0.431-0.786,0.653-1.443,0.665-1.969    c0.011-0.525-0.177-1.15-0.567-1.875l-1.346-2.497l-10.403,5.611L301.011,112.993z M315.263,108.094l2.503,4.646    c0.55,1.013,1.107,1.706,1.68,2.076c0.569,0.37,1.248,0.542,2.031,0.516c0.782-0.025,1.586-0.257,2.407-0.7    c1.183-0.638,1.952-1.434,2.312-2.387c0.356-0.955,0.225-2.009-0.401-3.168l-2.782-5.162L315.263,108.094z"/>
		<path fill="#3847A0" d="M328.775,155.871l3.073-0.649l1.643,7.68l-9.681,2.048c-1.598-0.892-2.871-1.894-3.819-3.008    c-0.947-1.114-1.56-2.337-1.841-3.667c-0.377-1.77-0.188-3.459,0.561-5.07c0.749-1.61,2.038-3.032,3.869-4.265    c1.831-1.234,4.15-2.149,6.96-2.741c2.842-0.604,5.406-0.72,7.689-0.35c2.278,0.369,4.06,1.105,5.34,2.212    c1.282,1.106,2.112,2.561,2.494,4.363c0.281,1.329,0.235,2.552-0.132,3.67c-0.37,1.12-1.019,2.115-1.949,2.984    s-2.29,1.663-4.081,2.376l-1.309-1.978c1.406-0.603,2.428-1.202,3.061-1.799c0.636-0.597,1.083-1.3,1.344-2.114    c0.261-0.812,0.295-1.671,0.104-2.577c-0.279-1.32-0.896-2.374-1.85-3.166s-2.287-1.31-3.996-1.552    c-1.711-0.243-3.711-0.123-5.998,0.362c-3.483,0.736-5.962,1.908-7.438,3.514c-1.473,1.604-2.001,3.398-1.581,5.382    c0.199,0.947,0.672,1.858,1.416,2.737c0.739,0.879,1.541,1.531,2.396,1.96l4.852-1.025L328.775,155.871z"/>
		<path fill="#3847A0" d="M320.666,169.154l27.006,5.501l0.161,2.619l-26.096,9.224l-0.173-2.804l7.911-2.652l-0.48-7.79    l-8.17-1.514L320.666,169.154z M331.903,173.793l0.39,6.308l7.237-2.379c2.225-0.735,4.033-1.285,5.429-1.65    c-1.718-0.134-3.432-0.367-5.138-0.7L331.903,173.793z"/>
		<path fill="#3847A0" d="M321.697,190.252l26.507,2.392l-0.331,3.674l-19.163,2.694l-4.003,0.521    c0.957,0.305,2.344,0.763,4.162,1.371l18.041,6.094l-0.295,3.293l-26.509-2.393l0.211-2.351l22.172,1.997l-21.686-7.385    l0.199-2.197l23.034-3.324l-22.551-2.036L321.697,190.252z"/>
		<path fill="#3847A0" d="M318.964,213.694l25.854,6.323l-3.187,13.026l-3.053-0.747l2.605-10.646l-7.902-1.929l-2.439,9.967    l-3.048-0.746l2.438-9.97l-8.801-2.151l-2.707,11.061l-3.05-0.744L318.964,213.694z"/>
		<path fill="#3847A0" d="M322.303,234.587l-0.577,2.261c-1.407-0.423-2.571-0.577-3.49-0.468c-0.921,0.106-1.761,0.449-2.521,1.023    c-0.758,0.574-1.322,1.337-1.695,2.285c-0.535,1.359-0.561,2.569-0.072,3.627c0.485,1.058,1.353,1.833,2.601,2.323    c0.73,0.286,1.423,0.399,2.074,0.343c0.651-0.059,1.262-0.297,1.827-0.71s1.522-1.407,2.88-2.989    c1.207-1.404,2.235-2.337,3.079-2.803c0.845-0.463,1.786-0.712,2.819-0.746c1.034-0.039,2.11,0.165,3.227,0.602    c2.004,0.789,3.427,1.983,4.27,3.585c0.839,1.598,0.892,3.334,0.16,5.202c-0.503,1.284-1.245,2.287-2.219,3.016    c-0.977,0.729-2.124,1.14-3.45,1.232c-1.325,0.096-2.748-0.137-4.272-0.69l0.628-2.292c1.657,0.518,3.01,0.577,4.062,0.178    c1.053-0.396,1.831-1.235,2.333-2.506c0.509-1.294,0.554-2.415,0.139-3.361c-0.416-0.95-1.162-1.634-2.242-2.058    c-1.003-0.396-1.879-0.45-2.626-0.168c-0.747,0.278-1.747,1.18-2.995,2.7c-1.226,1.484-2.177,2.492-2.855,3.022    c-1.044,0.804-2.189,1.271-3.432,1.405c-1.241,0.134-2.575-0.082-4.005-0.643c-1.416-0.558-2.599-1.348-3.541-2.369    c-0.941-1.023-1.526-2.138-1.752-3.35c-0.227-1.212-0.07-2.501,0.468-3.871c0.838-2.134,2.263-3.541,4.271-4.217    C317.401,233.475,319.704,233.62,322.303,234.587z"/>
	</g>
	<g>
		<path fill="#3847A0" d="M34.259,254.401l0.137,2.623c-2.968,0.653-5.393,0.636-7.278-0.05c-1.884-0.689-3.205-1.934-3.96-3.737    c-0.665-1.584-0.778-3.125-0.34-4.635c0.438-1.504,1.512-3.041,3.22-4.6c1.71-1.56,3.932-2.914,6.669-4.062    c2.702-1.135,5.139-1.736,7.311-1.804c2.171-0.068,3.991,0.306,5.461,1.13c1.467,0.823,2.519,1.99,3.153,3.502    c0.693,1.649,0.686,3.324-0.023,5.021c-0.709,1.691-2.135,3.269-4.272,4.723l-1.686-1.901c3.086-2.19,4.148-4.43,3.186-6.718    c-0.479-1.142-1.237-1.983-2.275-2.53c-1.038-0.549-2.388-0.767-4.05-0.658c-1.661,0.113-3.604,0.634-5.826,1.566    c-3.361,1.413-5.671,2.975-6.931,4.686c-1.258,1.714-1.539,3.402-0.836,5.07c0.518,1.234,1.481,2.081,2.89,2.549    C30.216,255.036,32.033,254.978,34.259,254.401z"/>
		<path fill="#3847A0" d="M29.284,265.637l26.56-7.354l1.334,2.26L38.11,280.604l-1.429-2.419l5.85-5.95l-3.963-6.725l-7.969,2.355    L29.284,265.637z M41.403,264.67l3.209,5.444l5.372-5.403c1.646-1.666,3.008-2.975,4.087-3.933    c-1.591,0.66-3.224,1.228-4.894,1.706L41.403,264.67z"/>
		<path fill="#3847A0" d="M42.019,286.027l21.105-16.215l1.497,1.949l-18.615,14.3l5.563,7.244l-2.488,1.915L42.019,286.027z"/>
		<path fill="#3847A0" d="M54.249,301.008l19.57-18.039l1.663,1.804L55.912,302.81L54.249,301.008z"/>
		<path fill="#3847A0" d="M62.093,309.203l17.782-19.806l9.312,8.361l-2.098,2.337l-7.486-6.72l-5.508,6.132l6.477,5.816    l-2.099,2.336l-6.475-5.814l-8.079,8.996L62.093,309.203z"/>
		<path fill="#3847A0" d="M84.544,311.593c2.545-3.758,5.205-6.171,7.978-7.237c2.775-1.064,5.208-0.89,7.305,0.531    c1.353,0.917,2.282,2.203,2.787,3.862c0.505,1.659,0.499,3.567-0.013,5.729c-0.514,2.158-1.575,4.425-3.184,6.801    c-2.212,3.269-4.646,5.501-7.298,6.699c-2.923,1.323-5.507,1.224-7.757-0.299c-2.265-1.534-3.299-3.936-3.104-7.194    C81.431,317.531,82.526,314.567,84.544,311.593z M86.613,313.05c-1.84,2.719-2.761,5.172-2.759,7.359    c0.002,2.19,0.731,3.778,2.188,4.766c1.49,1.008,3.254,1.099,5.288,0.268c2.037-0.828,4.049-2.712,6.042-5.652    c1.284-1.896,2.171-3.766,2.667-5.612c0.375-1.412,0.39-2.735,0.051-3.97c-0.338-1.232-0.986-2.172-1.939-2.816    c-1.533-1.041-3.306-1.144-5.317-0.311C90.82,307.912,88.748,309.904,86.613,313.05z"/>
		<path fill="#3847A0" d="M99.31,336.377l11.592-23.956l7.405,3.581c1.546,0.749,2.58,1.522,3.099,2.326    c0.522,0.804,0.766,1.839,0.734,3.107c-0.03,1.269-0.377,2.589-1.04,3.96c-0.876,1.809-1.984,3.077-3.329,3.812    c-1.344,0.732-2.853,0.885-4.527,0.449c0.406,0.737,0.665,1.411,0.771,2.018c0.213,1.232,0.299,2.535,0.256,3.896l-0.236,7.932    l-2.78-1.344l0.184-6.06c0.079-2.366,0.064-3.994-0.048-4.886c-0.111-0.885-0.316-1.548-0.615-1.983    c-0.297-0.431-0.817-0.826-1.557-1.187l-2.553-1.237l-5.149,10.642L99.31,336.377z M107.995,324.063l4.751,2.296    c1.038,0.504,1.896,0.738,2.574,0.701c0.681-0.031,1.331-0.288,1.952-0.769c0.62-0.479,1.133-1.14,1.539-1.977    c0.585-1.208,0.744-2.304,0.477-3.289c-0.266-0.982-0.992-1.763-2.179-2.337l-5.278-2.554L107.995,324.063z"/>
		<path fill="#3847A0" d="M120.988,346.174l8.152-25.34l2.394,0.771l2.871,22.919l6.414-19.931l2.231,0.718l-8.151,25.336    l-2.394-0.772l-2.856-22.916l-6.414,19.937L120.988,346.174z"/>
		<path fill="#3847A0" d="M143.836,352.705l5.518-26.039l2.4,0.506l-5.52,26.037L143.836,352.705z"/>
		<path fill="#3847A0" d="M152.815,354.639l10.053-25.662l2.609,0.29l4.61,27.295l-2.792-0.312l-1.255-8.251l-7.756-0.863    l-2.896,7.789L152.815,354.639z M159.313,344.365l6.282,0.696l-1.103-7.536c-0.341-2.315-0.574-4.191-0.694-5.631    c-0.427,1.668-0.95,3.315-1.57,4.938L159.313,344.365z"/>
		<path fill="#3847A0" d="M257.783,337.82l-2.047,1.012l-9.239-18.665c-0.147,0.887-0.451,1.862-0.907,2.932    c-0.459,1.073-0.934,1.945-1.424,2.621l-1.402-2.83c0.749-1.316,1.285-2.734,1.603-4.257c0.32-1.523,0.397-2.894,0.233-4.108    l1.325-0.655L257.783,337.82z"/>
		<path fill="#3847A0" d="M264.017,327.442l1.685-1.433c1.815,2.175,3.44,2.799,4.874,1.875c0.643-0.411,1.058-1.044,1.253-1.895    c0.19-0.85,0.048-2.05-0.434-3.598c-0.483-1.548-1.286-3.195-2.412-4.947l-0.354-0.549c0.186,1.164,0.108,2.226-0.226,3.19    c-0.333,0.965-0.851,1.671-1.552,2.122c-1.273,0.817-2.789,0.869-4.553,0.152c-1.763-0.715-3.374-2.208-4.834-4.478    c-1.507-2.34-2.217-4.494-2.126-6.454c0.086-1.966,0.814-3.389,2.183-4.267c0.967-0.624,2.115-0.831,3.438-0.615    c1.323,0.211,2.685,0.905,4.09,2.076c1.4,1.169,2.988,3.135,4.764,5.892c1.977,3.075,3.266,5.621,3.866,7.639    c0.6,2.016,0.731,3.69,0.391,5.016c-0.338,1.327-1.03,2.326-2.078,3c-1.186,0.763-2.483,0.922-3.891,0.483    C266.693,330.213,265.331,329.145,264.017,327.442z M265.51,312.505c-1.03-1.603-2.145-2.664-3.34-3.19    c-1.198-0.526-2.192-0.538-2.982-0.032c-0.821,0.533-1.243,1.493-1.26,2.887c-0.016,1.396,0.502,2.907,1.551,4.539    c0.943,1.471,2.006,2.439,3.182,2.916c1.175,0.477,2.192,0.438,3.052-0.115c0.849-0.545,1.287-1.448,1.312-2.703    C267.049,315.548,266.545,314.116,265.51,312.505z"/>
		<path fill="#3847A0" d="M279.388,299.061l-1.596,1.635c-1.03-0.922-1.89-1.471-2.582-1.652c-1.001-0.268-1.834-0.134-2.494,0.403    c-1.023,0.84-1.237,2.261-0.629,4.267c0.522,1.729,1.815,3.863,3.874,6.4c-0.329-1.232-0.377-2.333-0.143-3.296    c0.235-0.967,0.694-1.729,1.382-2.287c1.139-0.931,2.628-1.14,4.469-0.617c1.84,0.521,3.592,1.8,5.251,3.833    c1.126,1.378,1.934,2.801,2.424,4.269c0.488,1.466,0.617,2.741,0.384,3.824c-0.234,1.08-0.752,1.949-1.555,2.607    c-1.453,1.185-3.272,1.394-5.472,0.624c-2.194-0.77-4.759-2.95-7.693-6.54c-3.252-3.983-5.091-7.213-5.51-9.69    c-0.42-2.48,0.122-4.333,1.627-5.561c1.089-0.89,2.36-1.2,3.811-0.928S277.867,297.526,279.388,299.061z M279.465,313.839    c1.219,1.489,2.494,2.444,3.831,2.857c1.337,0.418,2.398,0.302,3.188-0.343c0.692-0.562,0.962-1.497,0.812-2.796    c-0.152-1.298-0.835-2.691-2.054-4.183c-1.194-1.463-2.393-2.376-3.593-2.736c-1.2-0.365-2.19-0.229-2.971,0.408    c-0.765,0.627-1.105,1.573-1.021,2.839C277.745,311.152,278.346,312.469,279.465,313.839z"/>
		<path fill="#3847A0" d="M288.114,300.572c-3.197-3.12-5.263-5.846-6.193-8.184c-0.935-2.342-0.703-4.224,0.69-5.653    c1.234-1.266,2.875-1.615,4.92-1.044c2.474,0.688,5.485,2.76,9.03,6.214c3.18,3.101,5.24,5.821,6.182,8.161    c0.939,2.337,0.708,4.224-0.692,5.662c-1.234,1.269-2.973,1.596-5.217,0.98C294.593,306.096,291.686,304.052,288.114,300.572z     M289.735,298.893c3.095,3.021,5.419,4.791,6.965,5.311c1.547,0.524,2.707,0.391,3.477-0.401c0.726-0.744,0.801-1.891,0.225-3.429    c-0.579-1.544-2.403-3.811-5.474-6.804c-3.104-3.025-5.431-4.798-6.972-5.317c-1.544-0.518-2.705-0.375-3.49,0.434    c-0.72,0.735-0.79,1.874-0.209,3.415C284.837,293.637,286.666,295.902,289.735,298.893z"/>
	</g>
	<path fill="#3847A0" d="M311.677,274.315c0,1.193-0.969,2.165-2.167,2.165c-1.193,0-2.165-0.972-2.165-2.165   c0-1.198,0.972-2.167,2.165-2.167C310.708,272.148,311.677,273.117,311.677,274.315z"/>
	<g id="g3854" transform="matrix(5.7658033,0,0,5.7658033,-216.55705,-1629.403)">
		<path id="path3016" fill="#FFFFFF" d="M58.585,316.759c1.225-0.472,2.097-1.661,2.097-3.05c0-1.802-1.465-3.267-3.267-3.267    c-1.802,0-3.272,1.465-3.272,3.267s1.47,3.267,3.272,3.267c0.069,0,0.137-0.002,0.205-0.006c-0.027-0.197-0.018-0.517,0.006-0.644    c-0.07,0.006-0.14,0.008-0.211,0.008c-1.453,0-2.625-1.171-2.625-2.625c0-1.453,1.172-2.625,2.625-2.625l0,0    c1.453,0,2.62,1.172,2.62,2.625c0,0.998-0.551,1.863-1.366,2.307C58.629,316.189,58.579,316.56,58.585,316.759L58.585,316.759z"/>
		<path id="path3790" fill="#FFFFFF" d="M63.643,317.006c-0.17,1.287-1.263,2.274-2.597,2.274c-1.453,0-2.625-1.171-2.625-2.625    c0-0.996,0.55-1.859,1.364-2.305c0.057-0.224,0.092-0.466,0.083-0.743c-1.223,0.473-2.094,1.661-2.094,3.048    c0,1.801,1.47,3.267,3.272,3.267c1.642,0,3.005-1.218,3.233-2.797C64.111,317.121,63.76,317.049,63.643,317.006L63.643,317.006z     M64.271,316.137c-0.249-1.556-1.601-2.748-3.226-2.748c-0.071,0-0.142,0.003-0.213,0.007c0.039,0.151,0.039,0.5-0.002,0.644l0,0    c0.071-0.006,0.142-0.009,0.215-0.009c1.203,0,2.21,0.804,2.521,1.905C63.779,316.017,64.007,316.088,64.271,316.137    L64.271,316.137z"/>
		<path id="path3842" fill="#FFFFFF" d="M68.636,314.211c0.202,1.297,1.18,2.401,2.539,2.693c1.761,0.381,3.502-0.742,3.883-2.503    c0.381-1.761-0.742-3.507-2.502-3.887c-1.761-0.38-3.503,0.747-3.884,2.508c-0.015,0.067-0.027,0.135-0.037,0.202    c0.198,0.015,0.509,0.091,0.628,0.142c0.009-0.069,0.022-0.139,0.037-0.208c0.307-1.42,1.699-2.318,3.12-2.012    c1.42,0.307,2.318,1.7,2.011,3.12l0,0c-0.307,1.42-1.698,2.314-3.119,2.006c-0.975-0.211-1.705-0.931-1.967-1.823    C69.183,314.374,68.831,314.247,68.636,314.211L68.636,314.211z"/>
		<path id="path3850" fill="#FFFFFF" d="M62.04,313.358c0.17-1.286,1.263-2.274,2.597-2.274c1.453,0,2.625,1.172,2.625,2.625    c0,0.996-0.55,1.859-1.364,2.304c-0.057,0.224-0.091,0.466-0.082,0.744c1.223-0.473,2.094-1.661,2.094-3.048    c0-1.802-1.47-3.267-3.272-3.267c-1.642,0-3.005,1.217-3.233,2.797C61.571,313.244,61.923,313.315,62.04,313.358L62.04,313.358z     M61.411,314.228c0.249,1.556,1.601,2.748,3.226,2.748c0.072,0,0.142-0.002,0.213-0.007c-0.039-0.152-0.039-0.5,0.002-0.644l0,0    c-0.071,0.006-0.143,0.008-0.215,0.008c-1.203,0-2.21-0.804-2.521-1.905C61.904,314.348,61.676,314.276,61.411,314.228    L61.411,314.228z"/>
		<path id="path3852" fill="#FFFFFF" d="M70.868,317.006c-0.17,1.287-1.263,2.274-2.597,2.274c-1.453,0-2.625-1.171-2.625-2.625    c0-0.996,0.55-1.859,1.364-2.305c0.057-0.224,0.092-0.466,0.083-0.743c-1.223,0.473-2.094,1.661-2.094,3.048    c0,1.801,1.47,3.267,3.271,3.267c1.642,0,3.005-1.218,3.233-2.797C71.336,317.121,70.985,317.049,70.868,317.006L70.868,317.006z     M71.496,316.137c-0.249-1.556-1.6-2.748-3.226-2.748c-0.071,0-0.142,0.003-0.213,0.007c0.039,0.151,0.039,0.5-0.002,0.644l0,0    c0.071-0.006,0.142-0.009,0.215-0.009c1.203,0,2.211,0.804,2.521,1.905C71.004,316.017,71.232,316.088,71.496,316.137    L71.496,316.137z"/>
	</g>
</g>
</svg>