<?xml version="1.0" encoding="UTF-8" standalone="no"?>
<!-- Created with Inkscape (http://www.inkscape.org/) -->
<svg xmlns:dc="http://purl.org/dc/elements/1.1/" xmlns:cc="http://creativecommons.org/ns#" xmlns:rdf="http://www.w3.org/1999/02/22-rdf-syntax-ns#" xmlns:svg="http://www.w3.org/2000/svg" xmlns="http://www.w3.org/2000/svg" xmlns:sodipodi="http://sodipodi.sourceforge.net/DTD/sodipodi-0.dtd" xmlns:inkscape="http://www.inkscape.org/namespaces/inkscape" id="svg2" version="1.1" inkscape:version="0.48.5 r10040" width="242.71095" height="248.02745" xml:space="preserve" sodipodi:docname="Innsbruck 1964 logo (version CIO).svg"><metadata id="metadata8"><rdf:RDF><cc:Work rdf:about=""><dc:format>image/svg+xml</dc:format><dc:type rdf:resource="http://purl.org/dc/dcmitype/StillImage"/><dc:title/></cc:Work></rdf:RDF></metadata><defs id="defs6"/><sodipodi:namedview pagecolor="#ffffff" bordercolor="#666666" borderopacity="1" objecttolerance="10" gridtolerance="10" guidetolerance="10" inkscape:pageopacity="0" inkscape:pageshadow="2" inkscape:window-width="1280" inkscape:window-height="672" id="namedview4" showgrid="false" fit-margin-top="0" fit-margin-left="0" fit-margin-right="0" fit-margin-bottom="0" inkscape:zoom="0.98675138" inkscape:cx="-104.44988" inkscape:cy="92.846086" inkscape:window-x="0" inkscape:window-y="1" inkscape:window-maximized="1" inkscape:current-layer="g10"/><g id="g10" inkscape:groupmode="layer" inkscape:label="2014_-_Num_ro_90_-_Olympic_Review" transform="matrix(1.25,0,0,-1.25,-622.866,853.42717)"><g id="g326" transform="matrix(4.4769365,0,0,4.4769365,530.41571,621.55992)"><path d="m 0,0 c -0.104,-0.005 -0.208,-0.007 -0.313,-0.007 -3.776,0 -6.837,3.061 -6.837,6.837 0,3.775 3.061,6.836 6.837,6.836 3.776,0 6.837,-3.061 6.837,-6.836 C 6.524,3.776 4.522,1.191 1.76,0.313 1.759,0.412 1.729,1.277 1.859,1.55 c 2.075,0.854 3.536,2.896 3.536,5.28 0,3.152 -2.556,5.707 -5.708,5.707 -3.152,0 -5.708,-2.555 -5.708,-5.707 0,-3.153 2.556,-5.708 5.708,-5.708 0.102,0 0.203,0.003 0.303,0.008 C -0.053,0.783 -0.065,0.226 0,0" style="fill:#0c8ed8;fill-opacity:1;fill-rule:nonzero;stroke:none" id="path328" inkscape:connector-curvature="0"/></g><g id="g330" transform="matrix(4.4769365,0,0,4.4769365,605.16444,622.95672)"><path d="m 0,0 c 2.764,0.877 4.766,3.464 4.766,6.518 0,3.775 -3.061,6.836 -6.836,6.836 -3.494,0 -6.376,-2.621 -6.787,-6.004 0.233,0.012 1.009,-0.155 1.115,-0.187 0.321,2.848 2.738,5.062 5.672,5.062 3.152,0 5.707,-2.555 5.707,-5.707 C 3.637,4.129 2.169,2.083 0.087,1.232 0.038,0.949 -0.027,0.624 0,0" style="fill:#231f20;fill-opacity:1;fill-rule:nonzero;stroke:none" id="path332" inkscape:connector-curvature="0"/></g><g id="g334" transform="matrix(4.4769365,0,0,4.4769365,597.28637,621.55902)"><path d="m 0,0 c -0.103,-0.005 -0.207,-0.007 -0.311,-0.007 -3.448,0 -6.3,2.553 -6.769,5.871 0.205,-0.004 0.792,-0.114 1.199,-0.283 0.569,-2.552 2.847,-4.459 5.57,-4.459 0.103,0 0.205,0.003 0.306,0.008 C -0.016,0.923 -0.064,0.602 0,0" style="fill:#231f20;fill-opacity:1;fill-rule:nonzero;stroke:none" id="path336" inkscape:connector-curvature="0"/></g><g id="g338" transform="matrix(4.4769365,0,0,4.4769365,636.91621,646.53675)"><path d="m 0,0 c 0.57,-2.551 2.848,-4.457 5.57,-4.457 3.152,0 5.708,2.555 5.708,5.708 0,3.152 -2.556,5.707 -5.708,5.707 -2.936,0 -5.354,-2.216 -5.672,-5.067 -0.2,0.075 -0.868,0.187 -1.114,0.193 0.411,3.383 3.292,6.003 6.786,6.003 3.776,0 6.837,-3.061 6.837,-6.836 0,-3.776 -3.061,-6.837 -6.837,-6.837 -3.45,0 -6.304,2.556 -6.77,5.878 C -0.986,0.281 -0.404,0.166 0,0" style="fill:#ee2049;fill-opacity:1;fill-rule:nonzero;stroke:none" id="path340" inkscape:connector-curvature="0"/></g><g id="g342" transform="matrix(4.4769365,0,0,4.4769365,592.53366,628.33352)"><path d="m 0,0 c -0.466,3.323 -3.319,5.879 -6.77,5.879 -0.101,0 -0.201,-0.002 -0.3,-0.006 0.022,-0.254 0.032,-0.855 -0.01,-1.133 0.105,0.005 0.204,0.01 0.31,0.01 2.721,0 4.998,-1.905 5.569,-4.454 C -0.92,0.166 -0.218,0 0,0" style="fill:#f9a91f;fill-opacity:1;fill-rule:nonzero;stroke:none" id="path344" inkscape:connector-curvature="0"/></g><g id="g346" transform="matrix(4.4769365,0,0,4.4769365,592.60797,620.33055)"><path d="m 0,0 c -0.41,-3.384 -3.292,-6.006 -6.787,-6.006 -3.775,0 -6.836,3.061 -6.836,6.836 0,3.056 2.004,5.643 4.77,6.519 C -8.836,7.068 -8.86,6.58 -8.945,6.116 -11.027,5.265 -12.494,3.219 -12.494,0.83 c 0,-3.152 2.555,-5.707 5.707,-5.707 2.934,0 5.35,2.213 5.672,5.06 C -0.829,0.092 -0.255,0.005 0,0" style="fill:#f9a91f;fill-opacity:1;fill-rule:nonzero;stroke:none" id="path348" inkscape:connector-curvature="0"/></g><g id="g350" transform="matrix(4.4769365,0,0,4.4769365,659.9505,620.33189)"><path d="m 0,0 c -0.41,-3.384 -3.292,-6.007 -6.787,-6.007 -3.776,0 -6.836,3.061 -6.836,6.837 0,3.055 2.003,5.642 4.768,6.518 0.038,-0.312 -0.021,-1.044 -0.085,-1.231 -2.076,-0.854 -3.554,-2.904 -3.554,-5.287 0,-3.152 2.555,-5.708 5.707,-5.708 2.933,0 5.35,2.213 5.671,5.06 C -0.961,0.129 -0.376,0.011 0,0" style="fill:#009e59;fill-opacity:1;fill-rule:nonzero;stroke:none" id="path352" inkscape:connector-curvature="0"/></g><g id="g354" transform="matrix(4.4769365,0,0,4.4769365,628.2126,649.56539)"><path d="m 0,0 c 0.1,0.005 0.201,0.008 0.302,0.008 2.724,0 5.002,-1.907 5.571,-4.459 0.245,-0.104 0.84,-0.26 1.2,-0.292 C 6.607,-1.42 3.753,1.137 0.302,1.137 0.199,1.137 0.096,1.135 -0.006,1.13 0.032,0.849 0.032,0.29 -0.005,0" style="fill:#009e59;fill-opacity:1;fill-rule:nonzero;stroke:none" id="path356" inkscape:connector-curvature="0"/></g><g id="g358" transform="matrix(4.4769365,0,0,4.4769365,629.68865,586.07796)"><path d="M 0,0 C -3.306,0 -6.168,1.892 -7.567,4.652 -8.967,1.892 -11.828,0 -15.134,0 c -3.402,0 -6.334,2.003 -7.686,4.894 l 0,-12.8 c 0,-4.839 3.923,-8.762 8.762,-8.762 l 12.822,0 c 4.839,0 8.762,3.923 8.762,8.762 l 0,12.477 C 6.112,1.856 3.273,0 0,0" style="fill:#d22027;fill-opacity:1;fill-rule:nonzero;stroke:none" id="path360" inkscape:connector-curvature="0"/></g><g id="g362" transform="matrix(4.4769365,0,0,4.4769365,656.07616,502.27508)"><path d="M 0,0 0.019,0.014 C 0.063,0.232 0.274,1.137 0.306,1.331 0.336,1.52 0.361,1.665 0.321,1.722 L 0.218,1.75 0.144,1.747 0.185,1.822 C 0.266,1.88 0.487,2.023 0.592,2.097 0.713,2.183 0.92,2.346 1.04,2.432 L 1.128,2.449 1.091,2.377 0.892,2.179 C 0.8,2.053 0.718,1.888 0.651,1.628 0.602,1.442 0.374,0.52 0.328,0.305 0.581,0.247 1.847,0.082 2.087,0.066 2.359,0.047 2.641,0.02 2.902,0.1 3.047,0.142 3.132,0.188 3.179,0.221 L 3.248,0.23 3.179,0.13 2.841,-0.111 C 2.724,-0.194 2.654,-0.244 2.568,-0.296 2.346,-0.428 2.188,-0.429 1.93,-0.421 1.666,-0.412 0.347,-0.183 0.196,-0.144 l -0.079,0.02 -0.019,-0.014 0.218,-0.305 c 0.22,-0.309 0.409,-0.574 0.523,-0.71 0.075,-0.088 0.163,-0.137 0.269,-0.081 l 0.201,0.122 0.069,0.009 -0.05,-0.086 C 1.11,-1.344 0.858,-1.509 0.761,-1.578 0.672,-1.642 0.434,-1.826 0.279,-1.937 l -0.102,-0.022 0.043,0.071 0.13,0.113 c 0.068,0.069 0.035,0.157 -0.019,0.265 -0.081,0.155 -0.27,0.42 -0.49,0.729 L -0.58,-0.19 c -0.363,0.51 -0.43,0.604 -0.514,0.706 -0.09,0.108 -0.159,0.14 -0.304,0.072 L -1.557,0.49 -1.644,0.473 -1.58,0.564 c 0.206,0.147 0.458,0.311 0.551,0.378 0.093,0.066 0.331,0.251 0.463,0.345 L -0.463,1.315 -0.495,1.246 -0.597,1.159 C -0.69,1.067 -0.681,0.988 -0.605,0.865 -0.536,0.752 -0.469,0.658 -0.105,0.148 L 0,0 z" style="fill:#231f20;fill-opacity:1;fill-rule:nonzero;stroke:none" id="path364" inkscape:connector-curvature="0"/></g><g id="g366" transform="matrix(4.4769365,0,0,4.4769365,502.1555,614.02344)"><path d="m 0,0 c -0.513,0 -0.528,-0.044 -0.557,-0.276 l -0.014,-0.108 -0.141,0.01 c 0.01,0.217 0.015,0.438 0.015,0.654 0,0.217 -0.005,0.448 -0.015,0.665 l 0.141,0.009 0.014,-0.108 C -0.528,0.615 -0.513,0.571 0,0.571 l 1.801,0 c 0.514,0 0.528,0.044 0.557,0.275 L 2.373,0.954 2.513,0.945 C 2.504,0.728 2.499,0.507 2.499,0.28 c 0,-0.216 0.005,-0.437 0.014,-0.654 l -0.14,-0.01 -0.015,0.108 C 2.329,-0.044 2.315,0 1.801,0 L 0,0 z" style="fill:#231f20;fill-opacity:1;fill-rule:nonzero;stroke:none" id="path368" inkscape:connector-curvature="0"/></g><g id="g370" transform="matrix(4.4769365,0,0,4.4769365,502.41158,580.5673)"><path d="M 0,0 C -0.145,0 -0.741,0 -0.852,-0.015 L -0.92,0.152 c 0.102,0.079 0.266,0.222 0.663,0.576 l 1.293,1.151 c 0.354,0.32 0.538,0.478 0.61,0.561 0,0.015 -0.053,0.015 -0.309,0.015 l -0.945,0 C 0.029,2.455 -0.416,2.45 -0.562,2.366 -0.634,2.322 -0.663,2.238 -0.683,2.116 l -0.014,-0.109 -0.141,0.01 c 0.01,0.182 0.015,0.374 0.015,0.561 0,0.207 -0.005,0.339 -0.015,0.512 l 0.141,0.009 0.024,-0.108 C -0.659,2.898 -0.639,2.809 -0.562,2.775 -0.412,2.711 0.01,2.711 0.392,2.711 l 1.148,0 c 0.378,0 0.455,-0.005 0.596,0.162 l 0.096,0.261 0.015,0.074 0.14,-0.02 C 2.368,3.001 2.373,2.731 2.373,2.608 2.373,2.504 2.378,2.386 2.387,2.268 2.179,2.184 1.569,1.648 1.385,1.476 L 0.862,0.984 C 0.639,0.777 0.126,0.32 0.097,0.271 l 0.116,-0.015 0.944,0 c 0.364,0 0.809,0.005 0.954,0.093 0.073,0.045 0.102,0.123 0.121,0.246 L 2.247,0.708 2.387,0.699 C 2.378,0.507 2.373,0.325 2.373,0.133 c 0,-0.212 0.005,-0.34 0.014,-0.517 L 2.247,-0.394 2.223,-0.28 C 2.208,-0.187 2.189,-0.103 2.111,-0.069 1.961,0 1.54,0 1.157,0 L 0,0 z" style="fill:#231f20;fill-opacity:1;fill-rule:nonzero;stroke:none" id="path372" inkscape:connector-curvature="0"/></g><g id="g374" transform="matrix(4.4769365,0,0,4.4769365,502.71959,547.7415)"><path d="M 0,0 C -0.145,0 -0.741,0 -0.852,-0.015 L -0.92,0.152 c 0.102,0.079 0.266,0.222 0.663,0.576 l 1.293,1.151 c 0.354,0.32 0.538,0.478 0.61,0.561 0,0.015 -0.053,0.015 -0.309,0.015 l -0.945,0 C 0.029,2.455 -0.416,2.45 -0.562,2.366 -0.634,2.322 -0.663,2.238 -0.683,2.116 l -0.014,-0.109 -0.141,0.01 c 0.01,0.182 0.015,0.374 0.015,0.561 0,0.207 -0.005,0.339 -0.015,0.512 l 0.141,0.009 0.024,-0.108 C -0.659,2.898 -0.639,2.809 -0.562,2.775 -0.412,2.711 0.01,2.711 0.392,2.711 l 1.148,0 c 0.378,0 0.455,-0.005 0.596,0.162 l 0.096,0.261 0.015,0.074 0.14,-0.02 C 2.368,3.001 2.373,2.731 2.373,2.608 2.373,2.504 2.378,2.386 2.387,2.268 2.179,2.184 1.569,1.648 1.385,1.476 L 0.862,0.984 C 0.639,0.777 0.126,0.32 0.097,0.271 l 0.116,-0.015 0.944,0 c 0.364,0 0.809,0.005 0.954,0.093 0.073,0.045 0.102,0.123 0.121,0.246 L 2.247,0.708 2.387,0.699 C 2.378,0.507 2.373,0.325 2.373,0.133 c 0,-0.212 0.005,-0.34 0.014,-0.517 L 2.247,-0.394 2.223,-0.28 C 2.208,-0.187 2.189,-0.103 2.111,-0.069 1.961,0 1.54,0 1.157,0 L 0,0 z" style="fill:#231f20;fill-opacity:1;fill-rule:nonzero;stroke:none" id="path376" inkscape:connector-curvature="0"/></g><g id="g378" transform="matrix(4.4769365,0,0,4.4769365,505.34218,522.35011)"><path d="M 0,0 C 0.033,0.135 0.275,0.376 0.528,0.536 L 0.634,0.411 C 0.48,0.196 0.203,-0.326 0.486,-0.757 c 0.22,-0.334 0.53,-0.401 0.777,-0.238 0.231,0.151 0.339,0.392 0.292,0.834 L 1.528,0.092 C 1.481,0.533 1.537,0.985 1.901,1.225 2.302,1.488 2.856,1.386 3.278,0.745 3.428,0.516 3.489,0.317 3.589,0.087 3.531,-0.02 3.293,-0.24 3.103,-0.365 L 2.998,-0.232 C 3.165,-0.028 3.335,0.304 3.09,0.678 2.859,1.029 2.553,1.036 2.338,0.895 2.168,0.783 2.07,0.536 2.119,0.153 l 0.046,-0.36 C 2.215,-0.583 2.172,-1.065 1.764,-1.334 1.302,-1.637 0.723,-1.47 0.304,-0.833 0.038,-0.428 0.009,-0.12 0,0" style="fill:#231f20;fill-opacity:1;fill-rule:nonzero;stroke:none" id="path380" inkscape:connector-curvature="0"/></g><g id="g382" transform="matrix(4.4769365,0,0,4.4769365,532.07352,502.02437)"><path d="m 0,0 c 0.057,0.078 0.082,0.096 0.257,-0.032 0.441,-0.322 0.545,-0.763 0.251,-1.166 -0.254,-0.348 -0.625,-0.347 -0.899,-0.147 -0.346,0.252 -0.28,0.426 -0.02,0.782 L 0,0 z m -0.932,-0.309 c -0.303,-0.415 -0.347,-0.4 -0.551,-0.287 l -0.096,0.052 -0.075,-0.119 c 0.181,-0.12 0.37,-0.253 0.545,-0.38 0.151,-0.111 0.31,-0.244 0.484,-0.372 0.453,-0.33 0.764,-0.455 1.062,-0.439 0.289,0.011 0.491,0.163 0.623,0.343 0.322,0.442 0.124,0.88 -0.144,1.148 l -0.014,0.046 0.041,0.006 C 1.287,-0.424 1.586,-0.372 1.754,-0.142 1.934,0.105 1.953,0.331 1.847,0.57 1.743,0.802 1.499,1.028 1.166,1.271 0.729,1.591 0.424,1.783 0.234,1.898 L 0.15,1.791 0.245,1.704 C 0.417,1.548 0.387,1.498 0.113,1.123 L -0.932,-0.309 z M 0.777,1.064 C 0.891,1.22 0.908,1.219 1.107,1.074 1.353,0.895 1.512,0.569 1.261,0.225 1.004,-0.127 0.727,-0.147 0.354,0.126 0.195,0.242 0.186,0.254 0.26,0.356 l 0.517,0.708 z" style="fill:#231f20;fill-opacity:1;fill-rule:nonzero;stroke:none" id="path384" inkscape:connector-curvature="0"/></g><g id="g386" transform="matrix(4.4769365,0,0,4.4769365,562.30359,497.84246)"><path d="m 0,0 c 0.005,0.223 0.01,0.237 0.266,0.231 0.428,-0.009 0.671,-0.349 0.662,-0.732 -0.01,-0.46 -0.237,-0.687 -0.719,-0.676 -0.236,0.005 -0.235,0.015 -0.232,0.17 L 0,0 z m -0.618,-2.069 c -0.011,-0.513 -0.056,-0.526 -0.288,-0.55 l -0.108,-0.012 0.006,-0.141 c 0.227,0.005 0.448,0.004 0.664,0 0.217,-0.005 0.438,-0.015 0.654,-0.03 l 0.013,0.14 -0.107,0.017 c -0.231,0.035 -0.275,0.05 -0.263,0.563 l 0.014,0.62 c 0.002,0.102 0.007,0.106 0.155,0.103 0.162,-0.004 0.216,-0.024 0.301,-0.172 0.114,-0.191 0.245,-0.46 0.373,-0.667 0.29,-0.457 0.542,-0.651 1.014,-0.662 0.172,-0.004 0.266,0.008 0.325,0.022 L 2.128,-2.741 C 2.069,-2.735 1.927,-2.703 1.792,-2.584 1.565,-2.39 1.328,-1.973 0.949,-1.31 l 0.002,0.082 c 0.244,0.092 0.598,0.306 0.608,0.752 C 1.567,-0.128 1.39,0.104 1.142,0.24 0.928,0.362 0.595,0.418 0.211,0.426 -0.192,0.435 -0.61,0.43 -0.921,0.408 L -0.929,0.273 -0.801,0.255 c 0.23,-0.029 0.234,-0.087 0.223,-0.552 l -0.04,-1.772 z" style="fill:#231f20;fill-opacity:1;fill-rule:nonzero;stroke:none" id="path388" inkscape:connector-curvature="0"/></g><g id="g390" transform="matrix(4.4769365,0,0,4.4769365,590.81362,495.80367)"><path d="m 0,0 c -0.003,0.513 -0.057,0.527 -0.334,0.559 l -0.1,0.014 0.01,0.136 C -0.188,0.701 0.078,0.698 0.337,0.7 0.603,0.701 0.868,0.708 1.127,0.72 L 1.14,0.584 1.01,0.569 C 0.734,0.533 0.681,0.518 0.684,0.005 L 0.692,-1.104 C 0.696,-1.773 0.948,-2.333 1.767,-2.327 2.54,-2.322 2.855,-1.84 2.85,-1.104 L 2.846,-0.499 C 2.843,-0.136 2.834,0.315 2.727,0.454 2.674,0.527 2.579,0.56 2.432,0.578 L 2.314,0.592 2.324,0.728 C 2.525,0.719 2.749,0.716 2.979,0.718 3.227,0.719 3.386,0.725 3.604,0.736 L 3.617,0.601 3.487,0.576 C 3.375,0.556 3.269,0.536 3.229,0.458 3.147,0.312 3.15,-0.114 3.152,-0.497 L 3.156,-1.073 C 3.159,-1.514 3.08,-1.921 2.775,-2.194 2.47,-2.468 2.028,-2.563 1.621,-2.565 1.067,-2.569 0.677,-2.475 0.405,-2.264 0.138,-2.057 0.012,-1.719 0.008,-1.23 L 0,0 z" style="fill:#231f20;fill-opacity:1;fill-rule:nonzero;stroke:none" id="path392" inkscape:connector-curvature="0"/></g><g id="g394" transform="matrix(4.4769365,0,0,4.4769365,635.73833,496.65652)"><path d="m 0,0 -0.158,-0.008 c -0.08,0.306 -0.298,0.71 -0.947,0.716 -0.625,0.006 -1.259,-0.423 -1.269,-1.416 -0.01,-1.031 0.639,-1.541 1.274,-1.548 0.62,-0.006 0.895,0.398 1.035,0.712 L 0.083,-1.565 C 0.045,-1.889 -0.091,-2.208 -0.161,-2.299 l -0.172,-0.042 c -0.109,-0.033 -0.449,-0.112 -0.769,-0.108 -0.487,0.004 -0.904,0.105 -1.256,0.337 -0.396,0.26 -0.692,0.704 -0.686,1.338 0.006,0.567 0.266,1.005 0.633,1.277 0.367,0.268 0.865,0.403 1.362,0.398 0.28,-0.002 0.619,-0.054 0.85,-0.114 L -0.061,0.756 C -0.053,0.645 -0.046,0.359 0,0" style="fill:#231f20;fill-opacity:1;fill-rule:nonzero;stroke:none" id="path396" inkscape:connector-curvature="0"/></g><g id="g398" transform="matrix(4.4769365,0,0,4.4769365,683.66841,531.22026)"><path d="M 0,0 C 0.489,-0.155 0.517,-0.117 0.614,0.094 L 0.661,0.193 0.792,0.141 C 0.717,-0.062 0.645,-0.272 0.58,-0.478 0.515,-0.684 0.449,-0.906 0.393,-1.115 l -0.137,0.033 0.019,0.107 c 0.042,0.229 0.042,0.276 -0.447,0.431 L -1.89,0 c -0.489,0.155 -0.516,0.117 -0.614,-0.094 l -0.046,-0.099 -0.131,0.052 c 0.074,0.203 0.146,0.413 0.214,0.628 0.066,0.207 0.128,0.419 0.184,0.628 L -2.146,1.082 -2.165,0.975 C -2.207,0.746 -2.207,0.699 -1.717,0.544 L 0,0 z" style="fill:#231f20;fill-opacity:1;fill-rule:nonzero;stroke:none" id="path400" inkscape:connector-curvature="0"/></g><g id="g402" transform="matrix(4.4769365,0,0,4.4769365,682.0509,558.66747)"><path d="m 0,0 c -0.003,-0.475 -0.339,-0.747 -0.809,-0.744 -0.452,0.003 -0.783,0.255 -0.78,0.731 0.004,0.487 0.471,0.722 0.947,0.718 L -0.383,0.661 C -0.153,0.562 0.002,0.323 0,0 M 0.259,-0.185 C 0.261,0.193 0.092,0.511 -0.147,0.72 l 0,0.012 C 0.162,0.73 0.559,0.697 0.896,0.585 1.219,0.473 1.463,0.258 1.46,-0.132 1.457,-0.547 1.196,-0.697 0.965,-0.787 0.901,-0.811 0.862,-0.853 0.861,-0.957 0.86,-1.073 0.957,-1.244 1.109,-1.245 1.325,-1.247 1.626,-0.926 1.631,-0.188 1.635,0.306 1.49,0.684 1.232,0.918 0.954,1.17 0.524,1.325 -0.187,1.33 -0.795,1.334 -1.193,1.185 -1.425,0.949 -1.647,0.719 -1.758,0.384 -1.76,-0.006 c -0.006,-0.78 0.407,-1.344 1.084,-1.348 0.612,-0.005 0.93,0.542 0.935,1.169" style="fill:#231f20;fill-opacity:1;fill-rule:nonzero;stroke:none" id="path404" inkscape:connector-curvature="0"/></g><g id="g406" transform="matrix(4.4769365,0,0,4.4769365,684.39771,609.21521)"><path d="m 0,0 c -0.533,0.346 -1.097,0.75 -1.69,1.195 l 0,0.012 1.67,0.027 L 0,0 z M 0.208,1.237 0.702,1.245 C 0.867,1.248 0.897,1.183 0.909,1.042 L 0.944,0.664 1.084,0.667 1.059,2.225 0.919,2.223 0.899,1.957 C 0.886,1.821 0.858,1.779 0.693,1.776 L 0.199,1.768 0.19,2.376 -0.038,2.373 -0.028,1.765 -2.168,1.731 -2.161,1.3 c 0.677,-0.544 1.53,-1.192 2.294,-1.723 l 0.101,0.055 -0.026,1.605 z" style="fill:#231f20;fill-opacity:1;fill-rule:nonzero;stroke:none" id="path408" inkscape:connector-curvature="0"/></g><g id="g410" transform="matrix(4.4769365,0,0,4.4769365,681.19043,586.92902)"><path d="M 0,0 C 0.012,0.384 0.299,0.753 0.855,0.737 1.364,0.721 1.7,0.461 1.684,-0.051 1.668,-0.581 1.211,-0.823 0.63,-0.806 0.334,-0.797 -0.015,-0.512 0,0 M 1.853,-0.068 C 1.881,0.834 1.459,1.328 0.801,1.348 0.148,1.368 -0.231,0.849 -0.241,0.215 -0.264,-0.248 -0.009,-0.622 0.146,-0.791 L 0.145,-0.803 c -1.064,0.038 -1.484,0.435 -1.467,0.983 0.008,0.28 0.203,0.47 0.482,0.553 0.058,0.016 0.103,0.064 0.106,0.155 0.004,0.134 -0.072,0.326 -0.208,0.33 -0.193,0.006 -0.527,-0.283 -0.549,-1.015 -0.014,-0.481 0.121,-0.827 0.345,-1.09 0.244,-0.281 0.702,-0.503 1.404,-0.524 1.045,-0.031 1.568,0.429 1.595,1.343" style="fill:#231f20;fill-opacity:1;fill-rule:nonzero;stroke:none" id="path412" inkscape:connector-curvature="0"/></g><g id="g414" transform="matrix(4.4769365,0,0,4.4769365,634.11499,564.50181)"><path d="m 0,0 0,1.838 -2.626,1.472 0,0.01 -0.008,-0.005 -0.009,0.005 0,-0.01 -2.61,-1.472 0,-1.838 -3.228,0.01 -0.017,0 -3.229,-0.01 0,1.838 -2.61,1.472 0,0.01 -0.009,-0.005 -0.008,0.005 0,-0.01 -2.626,-1.472 0,-1.838 -3.264,0.01 0,-5.1 3.264,0 0,-2.512 5.253,0 0,2.512 6.474,0 0,-2.512 5.253,0 0,2.512 3.264,0 0,5.1 L 0,0 z" style="fill:#ffffff;fill-opacity:1;fill-rule:nonzero;stroke:none" id="path416" inkscape:connector-curvature="0"/></g></g></svg>