<?xml version="1.0" encoding="UTF-8"?>
<!-- Generator: Adobe Illustrator 16.0.0, SVG Export Plug-In . SVG Version: 6.00 Build 0)  -->
<!DOCTYPE svg PUBLIC "-//W3C//DTD SVG 1.1//EN" "http://www.w3.org/Graphics/SVG/1.1/DTD/svg11.dtd">
<svg version="1.1" id="Calque_1" xmlns="http://www.w3.org/2000/svg" xmlns:xlink="http://www.w3.org/1999/xlink" x="0px" y="0px" width="287.58px" height="347.72px" viewBox="0 0 308.289 372.755" enable-background="new 0 0 308.289 372.755" xml:space="preserve">
<g>
	<g>
		<path fill-rule="evenodd" clip-rule="evenodd" fill="#0085A9" d="M260.268,188.611c0,29.271-0.29,58.545,0.081,87.81    c0.384,30.025-12.806,41.341-37.571,47.983c-12.769,3.426-25.869,4.769-39.038,5.61c-15.263,0.975-30.532,2.069-45.819,1.486    c-17.803-0.679-35.635-1.677-52.8-7.075c-14.797-4.654-28.087-11.489-35.212-26.465c-2.686-5.646-4.086-11.615-4.092-17.809    c-0.056-60.943-0.167-121.885,0.052-182.827c0.061-16.851,8.227-29.384,22.956-37.572c12.946-7.195,27.131-10.052,41.626-11.909    c18.671-2.393,37.434-2.22,56.152-1.538c19.28,0.703,38.583,1.883,57.374,6.962c4.354,1.176,8.568,2.714,12.679,4.539    c15.501,6.884,23.229,19.215,23.418,35.792c0.359,31.667,0.104,63.342,0.104,95.012    C260.206,188.611,260.238,188.611,260.268,188.611z"/>
		<g>
			<path fill="#FFFFFF" stroke="#86CEDF" stroke-width="2.5" stroke-miterlimit="10" d="M132.575,261.057     c-0.062-0.639-0.094-1.285-0.094-1.939c0-11.34,9.226-20.566,20.566-20.566c11.34,0,20.567,9.227,20.567,20.566     c0,0.654-0.036,1.301-0.095,1.939c-0.014,0.149-0.03,0.295-0.049,0.441c-0.016,0.151-0.035,0.299-0.054,0.449     c-0.389,2.815-1.346,5.449-2.757,7.785c-0.199,0.329-0.41,0.651-0.626,0.968c-0.362,0.531-0.75,1.045-1.158,1.538     c-0.509,0.612-1.054,1.189-1.629,1.738c-2.182,2.644-3.688,5.864-4.261,9.392c7.044-2.896,12.554-8.773,14.958-16.056     c0.049-0.149,0.103-0.297,0.149-0.448c0.046-0.146,0.083-0.296,0.125-0.442c0.547-1.885,0.895-3.852,1.002-5.883     c0.009-0.137,0.011-0.272,0.016-0.408c0.005-0.135,0.007-0.272,0.009-0.408c0.005-0.202,0.018-0.401,0.018-0.605     c0-14.453-11.759-26.212-26.214-26.212s-26.213,11.758-26.213,26.212c0,0.204,0.011,0.403,0.017,0.605     C128.83,259.961,130.746,260.412,132.575,261.057z"/>
			<path fill="#FFFFFF" stroke="#86CEDF" stroke-width="2.5" stroke-miterlimit="10" d="M153.047,279.686     c-1.154,0-2.284-0.101-3.385-0.283c-0.148-0.024-0.293-0.053-0.44-0.079c-0.149-0.028-0.299-0.055-0.445-0.089     c-2.765-0.585-5.324-1.73-7.56-3.308c-0.313-0.222-0.62-0.45-0.92-0.689c-0.502-0.398-0.985-0.82-1.447-1.261     c-0.574-0.549-1.121-1.128-1.628-1.738c-2.495-2.376-5.606-4.107-9.069-4.924c2.404,7.28,7.914,13.157,14.958,16.054     c0.143,0.061,0.29,0.116,0.437,0.173c0.143,0.057,0.284,0.118,0.428,0.171c1.845,0.681,3.791,1.156,5.805,1.407     c0.136,0.018,0.271,0.037,0.407,0.053c0.135,0.015,0.271,0.028,0.405,0.041c0.808,0.073,1.625,0.118,2.453,0.118     c0.829,0,1.646-0.045,2.453-0.118c0.097-2.003,0.419-3.947,0.929-5.811C155.328,279.585,154.198,279.686,153.047,279.686z"/>
			<path fill="#FFFFFF" stroke="#86CEDF" stroke-width="2.5" stroke-miterlimit="10" d="M94.168,279.686     c-11.34,0-20.567-9.229-20.567-20.568s9.227-20.566,20.567-20.566c11.341,0,20.566,9.227,20.566,20.566     c0,0.654-0.034,1.301-0.093,1.939c-0.014,0.149-0.032,0.295-0.049,0.441c-0.019,0.151-0.036,0.299-0.056,0.449     c-0.39,2.815-1.346,5.449-2.757,7.785c-0.2,0.329-0.41,0.651-0.626,0.968c-0.364,0.531-0.75,1.045-1.158,1.538     c-0.509,0.612-1.054,1.189-1.63,1.738c-2.182,2.644-3.688,5.864-4.261,9.392c7.046-2.896,12.556-8.773,14.959-16.056     c0.049-0.149,0.102-0.297,0.149-0.448c0.045-0.146,0.083-0.296,0.125-0.442c0.549-1.885,0.895-3.852,1.005-5.883     c0.007-0.137,0.009-0.272,0.013-0.408c0.006-0.135,0.008-0.272,0.011-0.408c0.004-0.202,0.015-0.401,0.015-0.605     c0-14.453-11.759-26.212-26.212-26.212c-14.455,0-26.214,11.758-26.214,26.212c0,14.455,11.76,26.214,26.214,26.214     c0.827,0,1.646-0.045,2.453-0.118c0.097-2.003,0.419-3.947,0.929-5.811C96.451,279.585,95.321,279.686,94.168,279.686z"/>
			<path fill="#FFFFFF" stroke="#86CEDF" stroke-width="2.5" stroke-miterlimit="10" d="M211.924,232.905     c-14.453,0-26.212,11.759-26.212,26.214c0,0.202,0.01,0.401,0.014,0.604c1.982,0.238,3.898,0.689,5.726,1.336     c-0.06-0.639-0.095-1.285-0.095-1.939c0-11.342,9.228-20.568,20.568-20.568c11.34,0,20.566,9.227,20.566,20.568     c0,11.34-9.226,20.566-20.566,20.566c-1.154,0-2.282-0.101-3.384-0.283c-0.148-0.024-0.294-0.052-0.44-0.079     c-0.148-0.028-0.299-0.055-0.445-0.089c-2.765-0.585-5.325-1.73-7.558-3.308c-0.313-0.222-0.621-0.45-0.922-0.688     c-0.501-0.397-0.984-0.82-1.447-1.262c-0.575-0.549-1.121-1.126-1.629-1.738c-2.496-2.374-5.607-4.105-9.068-4.924     c2.404,7.28,7.912,13.159,14.956,16.057c0.146,0.058,0.292,0.115,0.438,0.17c0.145,0.057,0.285,0.118,0.427,0.171     c1.848,0.683,3.792,1.158,5.808,1.407c0.135,0.018,0.271,0.039,0.408,0.053c0.134,0.017,0.268,0.028,0.401,0.041     c0.808,0.075,1.628,0.12,2.455,0.12c14.453,0,26.213-11.759,26.213-26.214S226.378,232.905,211.924,232.905z"/>
			<path fill="#FFFFFF" stroke="#86CEDF" stroke-width="2.5" stroke-miterlimit="10" d="M144.08,284.603     c0.062,0.639,0.094,1.284,0.094,1.939c0,11.339-9.226,20.565-20.566,20.565c-11.34,0-20.567-9.227-20.567-20.565     c0-0.655,0.034-1.301,0.094-1.939c0.014-0.148,0.031-0.296,0.049-0.442c0.018-0.151,0.035-0.301,0.057-0.448     c0.389-2.815,1.346-5.45,2.756-7.783c0.2-0.331,0.409-0.653,0.626-0.97c0.363-0.532,0.749-1.044,1.159-1.538     c0.507-0.612,1.053-1.188,1.628-1.738c2.182-2.644,3.688-5.862,4.262-9.393c-7.044,2.897-12.556,8.774-14.958,16.056     c-0.049,0.15-0.103,0.298-0.149,0.448c-0.046,0.146-0.083,0.297-0.125,0.442c-0.549,1.885-0.896,3.854-1.005,5.885     c-0.007,0.134-0.009,0.271-0.014,0.408c-0.005,0.136-0.007,0.271-0.01,0.406c-0.004,0.201-0.016,0.402-0.016,0.606     c0,14.452,11.76,26.213,26.213,26.213c14.454,0,26.214-11.759,26.214-26.213c0-0.204-0.011-0.403-0.016-0.606     C147.823,285.698,145.907,285.248,144.08,284.603z"/>
			<path fill="#FFFFFF" stroke="#86CEDF" stroke-width="2.5" stroke-miterlimit="10" d="M123.607,265.976     c1.153,0,2.282,0.101,3.384,0.281c0.147,0.026,0.295,0.053,0.441,0.079c0.148,0.029,0.297,0.057,0.445,0.088     c2.765,0.586,5.324,1.731,7.559,3.309c0.313,0.222,0.62,0.452,0.92,0.689c0.504,0.397,0.986,0.82,1.449,1.261     c0.574,0.548,1.121,1.128,1.628,1.738c2.493,2.376,5.604,4.107,9.069,4.924c-2.403-7.28-7.915-13.157-14.957-16.055     c-0.145-0.058-0.291-0.116-0.437-0.173c-0.143-0.055-0.284-0.115-0.43-0.17c-1.844-0.682-3.791-1.154-5.804-1.408     c-0.136-0.018-0.271-0.037-0.408-0.053c-0.136-0.012-0.271-0.025-0.404-0.039c-0.808-0.075-1.626-0.119-2.455-0.119     c-0.828,0-1.646,0.044-2.454,0.119c-0.095,2.003-0.419,3.943-0.929,5.81C121.324,266.076,122.455,265.976,123.607,265.976z"/>
			<path fill="#FFFFFF" stroke="#86CEDF" stroke-width="2.5" stroke-miterlimit="10" d="M202.958,284.603     c0.06,0.639,0.096,1.284,0.096,1.939c0,11.339-9.229,20.565-20.569,20.565c-11.339,0-20.566-9.227-20.566-20.565     c0-0.655,0.032-1.301,0.093-1.939c0.012-0.148,0.032-0.296,0.047-0.442c0.018-0.151,0.039-0.301,0.058-0.448     c0.389-2.815,1.347-5.45,2.757-7.783c0.199-0.331,0.407-0.653,0.625-0.97c0.364-0.532,0.75-1.044,1.16-1.538     c0.507-0.612,1.054-1.188,1.628-1.738c2.182-2.644,3.69-5.862,4.26-9.393c-7.042,2.897-12.554,8.774-14.956,16.056     c-0.051,0.15-0.104,0.298-0.151,0.448c-0.044,0.146-0.083,0.297-0.125,0.442c-0.549,1.885-0.894,3.854-1.005,5.885     c-0.007,0.134-0.009,0.271-0.013,0.408c-0.005,0.136-0.006,0.271-0.01,0.406c-0.005,0.201-0.016,0.402-0.016,0.606     c0,14.452,11.759,26.213,26.211,26.213c14.455,0,26.213-11.759,26.213-26.213c0-0.204-0.009-0.403-0.016-0.606     C206.703,285.698,204.785,285.248,202.958,284.603z"/>
			<path fill="#FFFFFF" stroke="#86CEDF" stroke-width="2.5" stroke-miterlimit="10" d="M182.484,265.976     c1.153,0,2.285,0.101,3.384,0.281c0.148,0.026,0.295,0.053,0.442,0.079c0.148,0.029,0.295,0.057,0.442,0.088     c2.766,0.586,5.327,1.731,7.56,3.309c0.313,0.222,0.621,0.452,0.922,0.689c0.503,0.397,0.985,0.82,1.446,1.261     c0.576,0.548,1.124,1.128,1.63,1.738c2.496,2.376,5.607,4.107,9.068,4.924c-2.402-7.28-7.914-13.157-14.957-16.055     c-0.144-0.058-0.29-0.116-0.438-0.173c-0.144-0.055-0.283-0.115-0.429-0.17c-1.844-0.682-3.791-1.154-5.806-1.408     c-0.134-0.018-0.271-0.037-0.407-0.053c-0.133-0.012-0.269-0.025-0.403-0.039c-0.81-0.075-1.627-0.119-2.455-0.119     c-0.827,0-1.645,0.044-2.455,0.119c-0.095,2.003-0.419,3.943-0.929,5.81C180.202,266.076,181.332,265.976,182.484,265.976z"/>
		</g>
		<g>
			<path fill="#86CEDF" d="M235.558,140.31c-0.534-0.577-13.24-14.108-27.737-14.108c-0.834,0-1.67,0.045-2.483,0.134     c-1.9,0.208-3.6,0.605-5.118,1.138c2.906-5.365,4.076-10.345,4.162-10.725l0.834-3.664l-3.59-1.11     c-0.226-0.07-5.398-1.647-11.699-1.777c1.29-1.083,2.553-2.417,3.752-4.051c9.223-12.581,3.268-32.325,3.009-33.159l-1.109-3.588     l-3.663,0.833c-0.852,0.194-20.929,4.91-27.213,19.187c-0.785,1.785-1.296,3.486-1.59,5.097     c-3.216-5.292-7.021-8.868-7.311-9.135l-2.756-2.553l-2.756,2.553c-0.289,0.27-4.094,3.842-7.311,9.135     c-0.294-1.611-0.804-3.312-1.59-5.097c-6.283-14.277-26.361-18.993-27.212-19.187l-3.663-0.833l-1.111,3.588     c-0.256,0.834-6.211,20.581,3.01,33.159c1.149,1.568,2.36,2.858,3.595,3.915c-6.229,0.155-11.317,1.705-11.541,1.776l-3.59,1.109     l0.834,3.664c0.088,0.385,1.28,5.466,4.255,10.898c-1.541-0.551-3.271-0.959-5.21-1.172c-0.813-0.088-1.649-0.134-2.483-0.134     c-14.499,0-27.203,13.531-27.737,14.108l-2.554,2.756l2.554,2.756c0.534,0.576,13.238,14.108,27.735,14.108     c0.835,0,1.672-0.046,2.485-0.134c1.98-0.216,3.739-0.639,5.304-1.205c-3.043,5.495-4.26,10.681-4.349,11.071l-0.833,3.664     l3.589,1.108c0.223,0.071,5.228,1.596,11.387,1.77c-1.183,1.034-2.339,2.281-3.44,3.782c-9.22,12.581-3.266,32.325-3.01,33.159     l1.111,3.588l3.663-0.833c0.852-0.194,20.929-4.909,27.214-19.185c0.785-1.785,1.296-3.486,1.589-5.096     c3.216,5.291,7.021,8.863,7.31,9.133l2.756,2.553l2.756-2.553c0.29-0.27,4.095-3.842,7.311-9.135     c0.294,1.611,0.805,3.312,1.59,5.099c6.284,14.273,26.361,18.991,27.213,19.185l3.663,0.834l1.109-3.59     c0.259-0.834,6.212-20.578-3.009-33.159c-1.149-1.568-2.36-2.858-3.595-3.916c6.231-0.155,11.319-1.707,11.544-1.776l3.588-1.11     l-0.833-3.664c-0.087-0.385-1.28-5.466-4.255-10.896c1.541,0.551,3.271,0.959,5.208,1.172c0.814,0.088,1.651,0.134,2.485,0.134     c0.001,0,0.001,0,0.001,0c14.499,0,27.202-13.532,27.736-14.108l2.553-2.756L235.558,140.31z"/>
			<path fill="#FFFFFF" d="M205.778,130.367c-9.853,1.077-12.896,8.125-13.765,11.231h-29.457l-0.948-1.643l10.747-6.204     c2.034,1.905,7.006,5.321,14.214,2.148c10.332-4.547,13.86-20.053,13.86-20.053s-15.192-4.696-24.295,1.978     c-6.353,4.656-5.878,10.671-5.247,13.385l-10.746,6.204l-1.068-1.85l14.728-25.509c3.125,0.801,10.75,1.689,16.608-6.305     c8.122-11.079,2.406-29.563,2.406-29.563s-18.868,4.292-24.401,16.865c-3.993,9.071,0.589,15.23,2.845,17.536l-14.662,25.397     h-2.083v-12.366c2.666-0.808,8.111-3.407,8.968-11.236c1.228-11.22-10.436-22.029-10.436-22.029s-11.664,10.809-10.436,22.029     c0.856,7.829,6.302,10.429,8.968,11.236v12.366h-2.082l-14.662-25.397c2.254-2.305,6.836-8.464,2.844-17.536     c-5.533-12.574-24.401-16.865-24.401-16.865s-5.716,18.484,2.406,29.563c5.86,7.993,13.485,7.106,16.61,6.305l14.597,25.285     l-1.074,1.858l-10.61-6.126c0.634-2.713,1.107-8.728-5.246-13.385c-9.105-6.673-24.295-1.976-24.295-1.976     s3.527,15.504,13.859,20.051c7.208,3.173,12.181-0.243,14.215-2.148l10.611,6.125l-1.075,1.86h-29.193     c-0.87-3.106-3.913-10.154-13.765-11.231c-13.656-1.494-26.806,12.698-26.806,12.698s13.15,14.194,26.806,12.699     c9.852-1.077,12.896-8.125,13.765-11.231h29.195l1.133,1.963l-10.671,6.161c-2.034-1.904-7.006-5.32-14.215-2.149     c-10.332,4.549-13.859,20.053-13.859,20.053s15.191,4.696,24.295-1.976c6.353-4.658,5.879-10.673,5.247-13.387l10.671-6.161     l1.013,1.757l-14.597,25.284c-3.125-0.799-10.75-1.688-16.61,6.306c-8.121,11.079-2.406,29.563-2.406,29.563     s18.868-4.292,24.402-16.864c3.994-9.073-0.59-15.232-2.845-17.538l14.664-25.398h2.08v12.367     c-2.666,0.81-8.112,3.407-8.968,11.236c-1.228,11.22,10.436,22.029,10.436,22.029s11.664-10.809,10.436-22.029     c-0.857-7.829-6.302-10.426-8.968-11.236v-12.367h2.081l14.665,25.398c-2.255,2.305-6.837,8.464-2.845,17.538     c5.533,12.57,24.401,16.864,24.401,16.864s5.715-18.485-2.406-29.563c-5.86-7.993-13.484-7.104-16.608-6.306l-14.73-25.511     l1.009-1.746l10.807,6.24c-0.632,2.714-1.105,8.728,5.247,13.385c9.103,6.675,24.295,1.976,24.295,1.976     s-3.529-15.505-13.861-20.051c-7.207-3.173-12.18,0.243-14.214,2.148l-10.809-6.24l1.009-1.746h29.458     c0.87,3.106,3.912,10.154,13.765,11.231c13.655,1.496,26.806-12.699,26.806-12.699S219.433,128.873,205.778,130.367z      M156.465,149.211h-7.098l-3.55-6.147l3.55-6.146h7.098l3.548,6.146L156.465,149.211z"/>
		</g>
		<g>
			<g>
				<g>
					<path fill="#FF5C43" d="M73.166,120.113c1.186,0.215,2.316,0.084,3.386-0.387c3.417,3.828,9.66,1.047,11.886,0.055       c2.226-0.989,8.459-3.768,7.912-8.862c4.685-2.072,3.975-8.861,3.72-11.283c-0.255-2.421-0.971-9.212-5.987-10.265       c-0.52-5.099-7.2-6.519-9.58-7.023s-9.046-1.923-11.604,2.508c-0.003,0.004-0.005,0.007-0.008,0.012       c-5.009-1.079-8.423,4.834-9.641,6.943c-1.217,2.111-4.634,8.027-1.188,11.824c-0.581,1.013-0.831,2.125-0.741,3.325       c0.174,2.308,1.599,4.919,4.361,7.986C68.442,118.011,70.892,119.701,73.166,120.113z"/>
					<path fill="#C33C3B" d="M74.227,117.36c1.009,0.182,1.972,0.071,2.881-0.33c2.909,3.257,8.222,0.891,10.116,0.047       c1.894-0.843,7.2-3.208,6.733-7.544c3.988-1.763,3.383-7.541,3.166-9.601c-0.217-2.062-0.826-7.842-5.095-8.737       c-0.442-4.339-6.127-5.547-8.154-5.978c-2.024-0.43-7.698-1.636-9.875,2.134c-0.002,0.004-0.004,0.007-0.006,0.011       c-4.264-0.918-7.168,4.113-8.205,5.908c-1.038,1.796-3.944,6.832-1.012,10.064c-0.494,0.861-0.706,1.808-0.63,2.83       c0.147,1.964,1.361,4.186,3.711,6.796C70.207,115.569,72.291,117.009,74.227,117.36z"/>
				</g>
			</g>
			<g>
				<g>
					<path fill="#FF5C43" d="M213.362,86.802c-0.78,0.919-1.232,1.963-1.358,3.125c-5.024,1.045-5.737,7.842-5.991,10.267       c-0.255,2.422-0.966,9.209,3.72,11.283c-0.548,5.093,5.686,7.873,7.911,8.863c2.226,0.99,8.464,3.767,11.883-0.052       c4.676,2.099,9.246-2.976,10.874-4.785c1.626-1.809,6.187-6.872,3.629-11.303c-0.002-0.005-0.004-0.009-0.007-0.014       c3.44-3.798,0.026-9.711-1.192-11.82c-1.218-2.11-4.635-8.026-9.646-6.94c-0.586-1.009-1.425-1.782-2.508-2.304       c-2.086-1.005-5.061-1.076-9.098-0.216C217.543,83.762,214.855,85.037,213.362,86.802z"/>
					<path fill="#C33C3B" d="M215.215,89.096c-0.663,0.783-1.048,1.672-1.155,2.661c-4.275,0.889-4.884,6.674-5.099,8.737       c-0.217,2.062-0.822,7.838,3.166,9.602c-0.467,4.337,4.839,6.702,6.733,7.544s7.202,3.205,10.113-0.044       c3.979,1.786,7.867-2.533,9.252-4.073c1.385-1.539,5.268-5.849,3.09-9.619c-0.003-0.004-0.005-0.008-0.007-0.011       c2.927-3.233,0.022-8.266-1.014-10.06c-1.038-1.796-3.944-6.831-8.209-5.908c-0.5-0.858-1.213-1.516-2.136-1.961       c-1.774-0.853-4.306-0.913-7.742-0.183C218.775,86.508,216.486,87.594,215.215,89.096z"/>
				</g>
			</g>
			<g>
				<g>
					<path fill="#FF5C43" d="M172.695,223.786c-0.406-1.134-1.085-2.048-2.029-2.738c1.606-4.874-3.923-8.891-5.895-10.322       c-1.97-1.433-7.493-5.441-11.632-2.42c-4.138-3.021-9.662,0.987-11.631,2.42c-1.971,1.431-7.493,5.446-5.897,10.316       c-4.156,3-2.045,9.495-1.292,11.809c0.752,2.313,2.857,8.795,7.974,8.795c0.005,0,0.009,0,0.014,0       c1.572,4.878,8.399,4.878,10.833,4.878c2.438,0,9.269,0,10.835-4.883c1.167-0.002,2.256-0.344,3.25-1.021       c1.911-1.305,3.459-3.844,4.734-7.771C173.236,228.928,173.477,225.962,172.695,223.786z"/>
					<path fill="#C33C3B" d="M169.78,224.245c-0.346-0.965-0.923-1.744-1.727-2.33c1.366-4.148-3.339-7.566-5.017-8.785       c-1.676-1.219-6.376-4.631-9.899-2.06c-3.521-2.571-8.222,0.841-9.899,2.06c-1.677,1.218-6.377,4.635-5.019,8.78       c-3.537,2.552-1.74,8.08-1.099,10.05c0.64,1.968,2.432,7.485,6.786,7.485c0.004,0,0.007,0,0.013,0       c1.335,4.15,7.146,4.15,9.219,4.15c2.073,0,7.887,0,9.22-4.154c0.993-0.004,1.919-0.293,2.766-0.869       c1.627-1.109,2.945-3.272,4.029-6.612C170.24,228.621,170.445,226.097,169.78,224.245z"/>
				</g>
			</g>
		</g>
	</g>
	<g>
		<path fill="#A9B7B5" d="M31.766,242.304l0.005,5.077l-15.932-11.023L0.736,246.72l-0.005-5.269l11.866-7.88l-11.88-7.795    l-0.005-5.014l15.123,10.328l15.911-10.864l0.005,5.226l-12.753,8.322L31.766,242.304z"/>
		<path fill="#A9B7B5" d="M0.243,218.968l-0.007-10.673l1.793-0.001l0.006,8.731l4.443-0.003l-0.005-8.07l1.694-0.001l0.005,8.07    l4.961-0.003l-0.006-8.881l1.743-0.001l0.008,10.824L0.243,218.968z"/>
		<path fill="#A9B7B5" d="M10.764,203.627c0.83-0.045,1.504-0.235,2.022-0.569c0.97-0.637,1.454-1.759,1.453-3.367    c0-0.72-0.106-1.376-0.319-1.967c-0.412-1.145-1.15-1.717-2.212-1.716c-0.797,0-1.365,0.243-1.704,0.728    c-0.332,0.492-0.62,1.261-0.866,2.309l-0.448,1.93c-0.292,1.261-0.613,2.153-0.965,2.678c-0.611,0.905-1.524,1.358-2.739,1.358    c-1.315,0.001-2.395-0.444-3.239-1.333c-0.843-0.889-1.266-2.149-1.267-3.78c0-1.5,0.37-2.775,1.11-3.825    c0.74-1.049,1.924-1.574,3.551-1.575l0.001,1.873c-0.784,0.097-1.385,0.301-1.803,0.615c-0.763,0.583-1.145,1.571-1.145,2.966    c0,1.126,0.247,1.936,0.738,2.429s1.063,0.739,1.714,0.738c0.717,0,1.242-0.292,1.574-0.874c0.212-0.382,0.478-1.245,0.796-2.591    l0.468-1.999c0.226-0.963,0.534-1.708,0.926-2.231c0.684-0.906,1.676-1.359,2.979-1.359c1.62,0,2.78,0.577,3.478,1.732    s1.047,2.498,1.047,4.027c0.001,1.784-0.464,3.18-1.393,4.189c-0.922,1.01-2.175,1.505-3.755,1.486L10.764,203.627z"/>
		<path fill="#A9B7B5" d="M22.461,178.936c2.62,0.001,4.655,0.392,6.105,1.171c2.648,1.447,3.97,4.196,3.969,8.25    c0,2.338-0.632,4.336-1.893,5.994c-1.261,1.658-3.504,2.486-6.729,2.484l-2.218,0l0.001-3.971l2.218,0.001    c1.69,0,2.961-0.378,3.814-1.137s1.279-1.939,1.279-3.542c0.001-2.255-0.766-3.731-2.301-4.427    c-0.943-0.426-2.725-0.639-5.345-0.64l-20.683-0.008l0.001-4.183L22.461,178.936z"/>
		<path fill="#A9B7B5" d="M0.382,169.49l0.027-22.633l3.803,0.004l-0.022,18.514l9.422,0.011l0.021-17.113l3.592,0.004    l-0.021,17.113l10.521,0.013l0.022-18.833l3.697,0.004l-0.028,22.952L0.382,169.49z"/>
		<path fill="#A9B7B5" d="M0.307,132.611l19.183,0.047c2.253,0.005,4.128-0.418,5.623-1.271c2.257-1.264,3.389-3.401,3.396-6.412    c0.009-3.609-1.203-6.066-3.637-7.371c-1.322-0.702-3.103-1.056-5.343-1.062l-19.183-0.047l0.01-4.268l17.43,0.042    c3.817,0.009,6.752,0.535,8.806,1.577c3.742,1.913,5.606,5.511,5.593,10.794c-0.013,5.284-1.895,8.866-5.646,10.746    c-2.059,1.032-4.997,1.543-8.813,1.534l-17.429-0.042L0.307,132.611z"/>
		<path fill="#A9B7B5" d="M31.298,105.055l-0.44,5.058L15.955,97.734L0,106.731l0.457-5.248l12.511-6.81L1.817,85.867l0.435-4.995    l14.159,11.615l16.803-9.426l-0.454,5.207l-13.434,7.171L31.298,105.055z"/>
		<path fill="#A9B7B5" d="M33.929,38.619c3.358,0.731,6.436,2.718,9.231,5.96c3.025,3.51,4.646,7.199,4.86,11.068    c0.253,4.542-1.566,8.491-5.458,11.846c-3.634,3.133-7.521,4.402-11.661,3.805c-3.841-0.705-7.279-2.818-10.314-6.338    c-2.74-3.179-4.292-6.583-4.655-10.212c-0.465-4.657,1.297-8.705,5.286-12.144C25.388,39.009,29.625,37.681,33.929,38.619z     M44.023,56.035c-0.476-3.098-1.84-5.956-4.095-8.571c-2.384-2.765-5.029-4.365-7.936-4.799c-2.907-0.435-5.621,0.434-8.14,2.605    c-2.444,2.107-3.718,4.662-3.821,7.664c-0.104,3.002,1.249,6.131,4.056,9.387c2.246,2.605,4.801,4.231,7.667,4.878    s5.783-0.31,8.753-2.87C43.326,61.898,44.499,59.133,44.023,56.035z"/>
		<path fill="#A9B7B5" d="M39.287,27.302l3.64-2.146l13.884,23.55l13.479-7.947l1.878,3.185L55.049,54.037L39.287,27.302z"/>
		<path fill="#A9B7B5" d="M56.12,16.174l4.608-1.742L74.39,25.212L77.501,8.09l4.648-1.758l-4.497,21.508l4.423,11.699l-3.952,1.494    l-4.423-11.698L56.12,16.174z"/>
		<path fill="#A9B7B5" d="M89.589,5.928l5.996-0.831l12.485,24.759l5.219-27.213l5.954-0.825l4.26,30.741l-3.996,0.554    l-2.514-18.143c-0.087-0.628-0.217-1.669-0.39-3.124c-0.173-1.455-0.375-3.013-0.604-4.673l-5.228,27.15l-4.146,0.575    L94.126,10.205l0.13,0.942c0.104,0.753,0.284,1.898,0.54,3.434c0.256,1.536,0.434,2.667,0.535,3.392l2.515,18.144l-3.996,0.554    L89.589,5.928z"/>
		<path fill="#A9B7B5" d="M131.138,0.044l13.956,0.167c2.759,0.033,4.977,0.838,6.655,2.414c1.678,1.577,2.5,3.773,2.466,6.59    c-0.029,2.422-0.811,4.522-2.346,6.3c-1.536,1.777-3.863,2.648-6.982,2.61l-9.738-0.116l-0.157,13.119l-4.225-0.05L131.138,0.044z     M147.474,4.507c-0.922-0.447-2.191-0.681-3.807-0.7l-8.347-0.1l-0.128,10.752l8.347,0.1c1.883,0.022,3.416-0.361,4.599-1.149    c1.183-0.789,1.787-2.197,1.811-4.225C149.975,6.903,149.15,5.344,147.474,4.507z"/>
		<path fill="#A9B7B5" d="M160.269,0l4.265,0.157l-1.143,31.014l-4.265-0.157L160.269,0z"/>
		<path fill="#A9B7B5" d="M201.111,34.626l-2.3,2.386l-4.546-3.994c-1.204,0.546-2.494,0.958-3.87,1.237    c-1.376,0.278-2.861,0.359-4.456,0.24c-4.827-0.358-8.492-2.212-10.996-5.562c-2.186-3.241-3.108-7.166-2.766-11.772    c0.311-4.186,1.622-7.689,3.932-10.512c2.965-3.621,7.074-5.237,12.325-4.847c5.491,0.408,9.426,2.465,11.805,6.172    c1.857,2.891,2.627,6.472,2.311,10.74c-0.148,1.994-0.538,3.893-1.167,5.695c-0.956,2.753-2.387,4.948-4.294,6.585L201.111,34.626    z M189.216,30.807c0.772-0.064,1.455-0.253,2.047-0.566l-3.235-2.903l2.309-2.436l3.823,3.451c1.396-1.367,2.392-2.94,2.986-4.72    c0.594-1.779,0.954-3.5,1.077-5.159c0.271-3.642-0.468-6.645-2.215-9.009c-1.748-2.364-4.28-3.669-7.597-3.916    c-3.36-0.25-6.1,0.618-8.22,2.602c-2.121,1.984-3.345,5.19-3.674,9.618c-0.277,3.725,0.446,6.762,2.17,9.108    c1.723,2.347,4.409,3.656,8.056,3.927C187.62,30.871,188.444,30.871,189.216,30.807z"/>
		<path fill="#A9B7B5" d="M216.126,7.365l-3.718,18.819c-0.437,2.211-0.38,4.132,0.17,5.762c0.809,2.457,2.69,3.977,5.644,4.561    c3.541,0.7,6.184-0.02,7.931-2.159c0.942-1.163,1.63-2.843,2.064-5.04l3.718-18.819l4.187,0.827l-3.378,17.099    c-0.74,3.745-1.818,6.525-3.233,8.341c-2.594,3.307-6.482,4.448-11.666,3.424c-5.183-1.024-8.339-3.557-9.466-7.599    c-0.619-2.218-0.558-5.2,0.182-8.944l3.378-17.099L216.126,7.365z"/>
		<path fill="#A9B7B5" d="M247.838,15.585l20.318,9.972l-1.676,3.414l-16.62-8.157l-4.151,8.458l15.362,7.54l-1.583,3.224    l-15.362-7.54l-4.635,9.445l16.906,8.297l-1.629,3.319l-20.604-10.112L247.838,15.585z"/>
		<path fill="#A9B7B5" d="M265.346,51.349c-1.37,1.11-2.292,2.274-2.766,3.493c-0.874,2.299-0.312,4.829,1.688,7.59    c0.896,1.237,1.894,2.231,2.995,2.983c2.131,1.454,4.109,1.52,5.934,0.198c1.369-0.991,2.043-2.114,2.021-3.368    c-0.041-1.257-0.501-2.938-1.382-5.043l-1.63-3.873c-1.066-2.529-1.623-4.462-1.669-5.8c-0.077-2.315,0.929-4.228,3.017-5.74    c2.258-1.635,4.666-2.213,7.221-1.734c2.555,0.479,4.847,2.12,6.875,4.92c1.866,2.577,2.815,5.227,2.848,7.95    c0.032,2.723-1.349,5.096-4.144,7.12l-2.328-3.216c1.226-1.14,2.004-2.239,2.333-3.298c0.587-1.95,0.014-4.124-1.721-6.52    c-1.401-1.935-2.83-3.02-4.287-3.255c-1.458-0.235-2.745,0.052-3.862,0.862c-1.232,0.892-1.771,2.044-1.618,3.457    c0.109,0.92,0.727,2.733,1.852,5.44l1.681,4.015c0.811,1.936,1.205,3.598,1.184,4.984c-0.049,2.406-1.191,4.419-3.427,6.038    c-2.784,2.016-5.493,2.465-8.127,1.347c-2.635-1.117-4.904-2.99-6.806-5.617c-2.218-3.064-3.156-6.04-2.814-8.93    c0.33-2.882,1.865-5.289,4.605-7.22L265.346,51.349z"/>
		<path fill="#A9B7B5" d="M306.064,80.731l0.108,12.466c0.037,4.232-1.449,7.528-4.457,9.887c-2.714,2.104-6.205,3.176-10.472,3.212    c-3.296,0.029-6.28-0.56-8.952-1.766c-4.723-2.124-7.107-5.826-7.153-11.105L275.03,81L306.064,80.731z M278.723,92.607    c0.012,1.397,0.17,2.545,0.474,3.442c0.563,1.601,1.631,2.906,3.203,3.917c1.26,0.806,2.871,1.38,4.832,1.723    c1.171,0.198,2.256,0.292,3.256,0.283c3.845-0.033,6.824-0.81,8.938-2.33s3.156-3.948,3.127-7.283l-0.064-7.328l-23.83,0.207    L278.723,92.607z"/>
		<path fill="#A9B7B5" d="M299.253,107.525c0.129,0.785,0.567,1.38,1.315,1.785c0.748,0.404,1.607,0.605,2.579,0.602    c0.099,0,0.187-0.004,0.264-0.011c0.077-0.008,0.166-0.025,0.264-0.054l-0.007-2.335l4.605-0.014l0.014,4.543l-4.247,0.013    c-1.803,0.006-3.335-0.365-4.598-1.111c-1.263-0.747-1.989-1.883-2.176-3.412L299.253,107.525z"/>
		<path fill="#A9B7B5" d="M307.306,116.165l-0.002,4.268l-12.824-0.007l-0.008,16.03l12.824,0.007l-0.002,4.268l-31.035-0.016    l0.002-4.268l14.514,0.007l0.008-16.03l-14.514-0.007l0.002-4.268L307.306,116.165z"/>
		<path fill="#A9B7B5" d="M307.271,147.587l-0.01,4.268l-31.035-0.072l0.01-4.268L307.271,147.587z"/>
		<path fill="#A9B7B5" d="M307.24,161.32l-26.445,8.913l26.414,8.901l-0.008,4.735l-31.015-11.436l0.008-4.48l31.055-11.304    L307.24,161.32z"/>
		<path fill="#A9B7B5" d="M307.31,188.332l-0.038,22.633l-3.803-0.006l0.031-18.514l-9.422-0.016l-0.028,17.113l-3.592-0.006    l0.029-17.113l-10.521-0.018l-0.031,18.833l-3.697-0.006l0.038-22.952L307.31,188.332z"/>
		<path fill="#A9B7B5" d="M308.248,217.613l-0.039,14.177c-0.006,2.335-0.357,4.259-1.051,5.772    c-1.332,2.873-3.779,4.305-7.343,4.295c-1.859-0.005-3.379-0.395-4.56-1.17c-1.181-0.774-2.128-1.856-2.843-3.245    c-0.497,1.216-1.147,2.13-1.952,2.744c-0.804,0.613-2.108,0.952-3.911,1.019l-4.162,0.137c-1.183,0.04-2.064,0.137-2.642,0.291    c-0.987,0.252-1.622,0.703-1.905,1.354l-0.697-0.002l0.015-5.181c0.268-0.142,0.613-0.253,1.036-0.337    c0.422-0.084,1.239-0.152,2.451-0.205l5.177-0.241c2.028-0.091,3.389-0.823,4.083-2.196c0.382-0.783,0.576-2.013,0.581-3.691    l0.026-9.345l-13.31-0.037l0.012-4.225L308.248,217.613z M293.992,231.297c-0.005,1.927,0.385,3.452,1.17,4.576    s2.207,1.689,4.263,1.695c2.211,0.006,3.72-0.775,4.527-2.342c0.425-0.839,0.639-1.96,0.643-3.364l0.028-10.035l-10.605-0.029    L293.992,231.297z"/>
	</g>
	<g>
		<g>
			<path fill="#A9B7B5" d="M31.272,284.305c-1.61,3.06-4.442,4.938-8.497,5.635l-0.013-4.183c2.266-0.506,3.914-1.544,4.944-3.114     c1.03-1.569,1.542-3.546,1.535-5.93c-0.009-2.828-1.094-5.205-3.254-7.132c-2.161-1.928-5.375-2.884-9.643-2.871     c-3.69,0.012-6.691,0.818-9.003,2.421c-2.312,1.603-3.462,4.207-3.451,7.813c0.008,2.76,0.829,5.043,2.461,6.849     c1.632,1.805,4.266,2.723,7.899,2.754l-0.03-9.767l3.486-0.011l0.042,13.694l-16.605,0.052l-0.008-2.718l3.99-1.031     c-1.568-1.402-2.656-2.645-3.265-3.729c-1.048-1.821-1.576-4.138-1.585-6.95c-0.011-3.634,1.169-6.764,3.542-9.389     c2.977-2.863,7.071-4.304,12.282-4.319c5.197-0.017,9.335,1.366,12.414,4.146c2.938,2.642,4.413,6.068,4.426,10.282     C32.948,279.695,32.392,282.194,31.272,284.305z"/>
			<path fill="#A9B7B5" d="M35.26,293.933l6.97,12.345c1.148,2.033,1.793,3.88,1.938,5.538c0.261,3.156-1.16,5.61-4.263,7.362     c-1.619,0.914-3.133,1.326-4.542,1.235c-1.41-0.09-2.768-0.562-4.076-1.417c0.169,1.303,0.056,2.42-0.34,3.351     c-0.396,0.93-1.362,1.87-2.897,2.818l-3.551,2.175c-1.01,0.618-1.728,1.138-2.154,1.558c-0.733,0.706-1.062,1.412-0.987,2.118     l-0.607,0.343l-2.546-4.512c0.163-0.255,0.408-0.523,0.734-0.805c0.326-0.282,1.002-0.745,2.03-1.39l4.382-2.767     c1.719-1.081,2.541-2.39,2.465-3.927c-0.054-0.87-0.494-2.035-1.318-3.496l-4.594-8.137l-11.591,6.543l-2.077-3.68L35.26,293.933     z M29.625,312.872c0.947,1.678,2.04,2.812,3.278,3.401c1.239,0.589,2.753,0.378,4.543-0.633c1.926-1.087,2.853-2.512,2.78-4.272     c-0.045-0.939-0.413-2.02-1.103-3.242l-4.933-8.738l-9.235,5.214L29.625,312.872z"/>
			<path fill="#A9B7B5" d="M47.571,317.719l18.994,12.307l-2.068,3.192L48.96,323.15l-5.124,7.907l14.362,9.306l-1.953,3.014     l-14.361-9.306l-5.721,8.83l15.805,10.24l-2.011,3.103l-19.261-12.48L47.571,317.719z"/>
			<path fill="#A9B7B5" d="M71.079,332.21l4.8,1.314l8.382,28.291l6.621-24.186l3.891,1.065l-8.194,29.934L82,367.376l-8.612-28.324     l-6.612,24.156l-3.891-1.064L71.079,332.21z"/>
			<path fill="#A9B7B5" d="M126.475,345.252c1.884,2.875,2.688,6.448,2.411,10.721c-0.3,4.624-1.729,8.392-4.287,11.303     c-3.002,3.418-7.066,4.961-12.194,4.629c-4.788-0.311-8.451-2.129-10.986-5.455c-2.247-3.194-3.22-7.111-2.918-11.749     c0.271-4.188,1.549-7.704,3.833-10.549c2.932-3.648,7.025-5.303,12.279-4.962C120.107,339.546,124.061,341.567,126.475,345.252z      M121.476,364.751c1.832-2.544,2.859-5.539,3.083-8.985c0.236-3.643-0.53-6.638-2.3-8.984c-1.77-2.347-4.314-3.628-7.633-3.844     c-3.22-0.208-5.919,0.722-8.096,2.791c-2.177,2.07-3.404,5.25-3.683,9.54c-0.223,3.433,0.462,6.383,2.054,8.853     c1.591,2.469,4.343,3.83,8.256,4.084C116.871,368.446,119.644,367.295,121.476,364.751z"/>
			<path fill="#A9B7B5" d="M136.659,341.149l13.481,0.334c3.674,0.091,6.261,1.24,7.76,3.447c0.88,1.304,1.299,2.793,1.258,4.469     c-0.048,1.957-0.647,3.549-1.796,4.773c-0.597,0.647-1.447,1.232-2.55,1.755c1.584,0.645,2.763,1.357,3.537,2.137     c1.367,1.387,2.021,3.27,1.962,5.649c-0.049,1.999-0.728,3.793-2.035,5.381c-1.954,2.375-4.995,3.511-9.124,3.409l-13.262-0.329     L136.659,341.149z M149.311,368.915c2.614,0.064,4.497-0.636,5.648-2.101c0.723-0.926,1.102-2.058,1.134-3.396     c0.056-2.253-0.927-3.812-2.95-4.68c-1.075-0.464-2.505-0.718-4.291-0.762l-8.463-0.209l-0.271,10.919L149.311,368.915z      M148.237,354.56c1.802,0.045,3.209-0.166,4.222-0.635c1.592-0.735,2.413-2.109,2.463-4.123c0.05-2.027-0.752-3.414-2.408-4.159     c-0.934-0.418-2.331-0.649-4.189-0.696l-7.614-0.188l-0.238,9.61L148.237,354.56z"/>
			<path fill="#A9B7B5" d="M170.941,341.731l4.224-0.111l0.715,27.329l15.643-0.409l0.097,3.695l-19.866,0.52L170.941,341.731z"/>
			<path fill="#A9B7B5" d="M195.498,338.822l22.488-2.56l0.43,3.778l-18.395,2.094l1.066,9.362l17.003-1.936l0.406,3.568     l-17.003,1.936l1.19,10.453l18.711-2.13l0.418,3.673l-22.804,2.597L195.498,338.822z"/>
			<path fill="#A9B7B5" d="M237.595,339.809l-1.448-2.529c2.262-1.604,3.71-2.949,4.345-4.034s0.604-2.776-0.091-5.073l2.616-1.498     l14.97,26.145l-3.538,2.025l-10.645-18.59L237.595,339.809z"/>
			<path fill="#A9B7B5" d="M270.126,335.602c1.699,1.238,3.337,1.522,4.917,0.855c0.819-0.337,1.537-0.884,2.154-1.642     c1.153-1.416,1.549-3.101,1.189-5.056c-0.361-1.955-2.167-4.604-5.42-7.947c0.501,1.504,0.566,2.912,0.195,4.226     c-0.371,1.314-1.012,2.53-1.923,3.65c-1.85,2.271-4.018,3.496-6.502,3.672c-2.484,0.177-4.834-0.637-7.048-2.44     c-2.127-1.732-3.467-3.909-4.018-6.53s0.21-5.205,2.284-7.751c2.798-3.436,6.267-4.553,10.409-3.353     c2.281,0.653,4.694,2.016,7.236,4.087c2.87,2.337,5.06,4.842,6.569,7.513c2.518,4.442,2.377,8.381-0.42,11.815     c-1.877,2.305-3.904,3.566-6.079,3.784c-2.175,0.219-4.169-0.411-5.982-1.888L270.126,335.602z M270.439,323.027     c0.022-1.597-0.926-3.177-2.845-4.74c-1.723-1.402-3.362-2.012-4.917-1.828c-1.556,0.185-2.883,0.952-3.982,2.302     c-1.18,1.448-1.634,2.991-1.361,4.628c0.272,1.637,1.215,3.111,2.829,4.426c1.527,1.243,3.044,1.858,4.551,1.845     c1.507-0.014,2.926-0.839,4.258-2.474C269.927,326.011,270.417,324.625,270.439,323.027z"/>
			<path fill="#A9B7B5" d="M276.158,290.484c2.168-0.399,4.083-0.179,5.74,0.662l-1.71,3.371c-1.17-0.34-2.169-0.441-2.996-0.306     c-1.547,0.247-2.743,1.203-3.588,2.869c-0.967,1.906-0.86,3.865,0.323,5.878c1.182,2.013,3.374,3.91,6.575,5.693     c-0.745-1.363-1.1-2.78-1.063-4.254c0.048-1.341,0.412-2.68,1.09-4.018c1.153-2.271,2.881-3.887,5.184-4.847     c2.302-0.957,4.885-0.711,7.75,0.742c2.449,1.242,4.212,3.145,5.289,5.707c1.077,2.562,0.863,5.327-0.643,8.293     c-1.287,2.537-3.355,4.241-6.206,5.112s-6.543,0.156-11.078-2.145c-3.353-1.701-5.99-3.555-7.91-5.561     c-3.671-3.846-4.443-7.865-2.317-12.056C272.136,292.598,273.989,290.884,276.158,290.484z M295.491,303.508     c-0.748-1.499-1.938-2.662-3.571-3.49c-1.381-0.701-2.899-0.972-4.552-0.811c-1.653,0.162-3.011,1.29-4.074,3.386     c-0.743,1.464-0.911,2.993-0.504,4.588c0.406,1.597,1.583,2.888,3.53,3.875c1.708,0.867,3.398,1.094,5.068,0.679     c1.671-0.414,2.958-1.511,3.862-3.291C296.158,306.651,296.239,305.006,295.491,303.508z"/>
			<path fill="#A9B7B5" d="M289.342,282.974c-1.129,1.115-2.595,1.671-4.398,1.667c-2.253-0.006-4.188-0.83-5.804-2.474     c-1.616-1.645-2.42-3.972-2.413-6.983c0.007-2.913,0.776-5.194,2.309-6.845s3.319-2.474,5.361-2.469     c1.888,0.005,3.415,0.489,4.581,1.453c0.661,0.54,1.307,1.376,1.938,2.509c0.581-1.263,1.245-2.256,1.993-2.979     c1.412-1.347,3.244-2.018,5.498-2.012c2.662,0.006,4.917,0.91,6.765,2.712c1.848,1.803,2.768,4.346,2.76,7.629     c-0.007,2.959-0.812,5.458-2.416,7.5c-1.604,2.042-3.926,3.059-6.969,3.052c-1.788-0.005-3.333-0.447-4.634-1.327     c-1.301-0.881-2.294-2.186-2.98-3.914C290.479,281.554,289.949,282.381,289.342,282.974z M288.088,271.354     c-0.937-0.948-2.054-1.424-3.353-1.428c-1.129-0.002-2.167,0.447-3.116,1.35c-0.948,0.901-1.424,2.277-1.429,4.128     c-0.004,1.837,0.465,3.166,1.409,3.987c0.944,0.822,2.051,1.233,3.322,1.236c1.426,0.004,2.542-0.523,3.349-1.581     c0.808-1.058,1.212-2.307,1.216-3.747C289.491,273.617,289.025,272.303,288.088,271.354z M303.05,270.681     c-0.948-1.17-2.365-1.757-4.253-1.762c-1.958-0.005-3.445,0.594-4.462,1.794c-1.017,1.201-1.527,2.743-1.532,4.625     c-0.004,1.826,0.51,3.317,1.542,4.473c1.033,1.156,2.464,1.736,4.295,1.741c1.578,0.004,2.941-0.521,4.092-1.572     s1.728-2.682,1.733-4.89C304.47,273.32,303.999,271.851,303.05,270.681z"/>
		</g>
	</g>
</g>
</svg>