<svg xmlns="http://www.w3.org/2000/svg" width="265.861" height="290" viewBox="0 0 70.342 76.729"><path fill="#c12a21" d="M47.121 36.114A14.402 14.402 0 0 1 35.062 29.6a14.413 14.413 0 0 1-24.658-.905V44.3h8.146l5.857-5.8 5.869 5.8h9.546l5.857-5.8 5.869 5.8h8.157V28.695a14.398 14.398 0 0 1-12.584 7.42Zm4.059 21.752H40.22V53.89H29.909v3.978H18.936V53.89h-8.374a14.912 14.912 0 0 0 14.75 12.759h19.505A14.908 14.908 0 0 0 59.562 53.89H51.18Z" class="cls-1"/><path fill="#1e1712" d="M35.062 20.827c-.29 0-.576 0-.862-.038l-.274-.031a9.84 9.84 0 0 1-1.122-.194l-.286-.07a9.882 9.882 0 0 1-7.214-8.118 9.762 9.762 0 0 0-1.133-.205 10.965 10.965 0 0 0 8.425 9.484c.092.023.185.046.274.062a10.373 10.373 0 0 0 1.094.166l.275.02q.386.034.823.034c.279 0 .557 0 .828-.035v-.182c0-.309 0-.614.038-.916-.286.008-.572.023-.866.023zm0-19.729a9.867 9.867 0 0 1 9.86 9.592v.275a10.025 10.025 0 0 1-.07 1.136q0 .151-.035.29a9.882 9.882 0 0 1-7.207 8.104 8.622 8.622 0 0 0-.077 1.16 10.965 10.965 0 0 0 8.424-9.453l.023-.279c.028-.313.047-.626.047-.943v-.437a10.96 10.96 0 0 0-21.902 0 10.218 10.218 0 0 1 1.094.163 9.863 9.863 0 0 1 9.843-9.608zM59.176.004a10.965 10.965 0 0 0-10.953 10.524 10.218 10.218 0 0 1 1.094.162 9.863 9.863 0 1 1 9.859 10.137c-.294 0-.58 0-.862-.038l-.275-.031a9.762 9.762 0 0 1-1.125-.194l-.286-.07a9.882 9.882 0 0 1-7.214-8.118 9.762 9.762 0 0 0-1.133-.205 10.965 10.965 0 0 0 8.424 9.484c.093.023.186.046.279.062a10.075 10.075 0 0 0 1.094.166l.27.02c.271.022.55.034.828.034a10.96 10.96 0 1 0 0-21.918z" class="cls-2"/><path fill="#1e1712" d="M47.121 11.838c.29 0 .576 0 .862.043l.275.027a9.84 9.84 0 0 1 1.12.193l.287.074a9.87 9.87 0 0 1 7.214 8.119 9.762 9.762 0 0 0 1.133.205 10.968 10.968 0 0 0-8.424-9.453l-.279-.062a11.223 11.223 0 0 0-1.09-.166l-.275-.02c-.27-.019-.545-.034-.823-.034s-.557 0-.827.034v.186c0 .31 0 .61-.043.916.29-.046.576-.062.87-.062zm0 19.73a9.863 9.863 0 0 1-9.859-9.589v-.274a10.09 10.09 0 0 1 .07-1.16l.035-.29a9.87 9.87 0 0 1 7.214-8.1 8.722 8.722 0 0 0 .077-1.16 10.968 10.968 0 0 0-8.432 9.5c0 .093 0 .185-.027.278-.023.313-.043.627-.043.947v.433a10.96 10.96 0 0 0 21.902 0 10.638 10.638 0 0 1-1.094-.158 9.863 9.863 0 0 1-9.843 9.573Zm-24.114-19.73c.294 0 .58 0 .863.043l.274.027a9.762 9.762 0 0 1 1.125.193l.282.074a9.867 9.867 0 0 1 7.215 8.119 10.052 10.052 0 0 0 1.133.2 10.96 10.96 0 0 0-8.421-9.467l-.278-.062a11.24 11.24 0 0 0-1.095-.167l-.27-.019a11.74 11.74 0 0 0-.828-.035c-.278 0-.552 0-.827.035v.186c0 .309 0 .61-.042.916.278-.027.58-.043.87-.043zm0 19.73a9.863 9.863 0 0 1-9.87-9.589v-.274a9.248 9.248 0 0 1 .07-1.137c0-.096.023-.193.034-.29a9.87 9.87 0 0 1 7.242-8.103 10.288 10.288 0 0 0 .077-1.16 10.968 10.968 0 0 0-8.444 9.48c0 .093-.019.185-.027.278-.027.313-.042.627-.042.947v.433a10.96 10.96 0 0 0 21.902 0 10.638 10.638 0 0 1-1.094-.158 9.863 9.863 0 0 1-9.848 9.573Z" class="cls-2"/><path fill="#1e1712" d="M10.953 20.827A9.867 9.867 0 1 1 20.81 10.69v.275a10.029 10.029 0 0 1-.065 1.136c0 .1-.023.198-.039.29a9.874 9.874 0 0 1-7.21 8.104 10.157 10.157 0 0 0-.078 1.16 10.957 10.957 0 0 0 8.425-9.469c0-.092 0-.185.027-.278.027-.313.042-.626.042-.943v-.437a10.96 10.96 0 1 0-10.96 11.393c.278 0 .553 0 .827-.034v-.182c0-.31 0-.615.039-.916-.286.023-.576.038-.866.038zm52.232 5.506a2.169 2.169 0 0 1 .472-1.438 1.67 1.67 0 0 1 1.245-.6v1.369a.622.622 0 0 0-.491.19.735.735 0 0 0-.186.525v.058a.959.959 0 0 0 .56.92 3.155 3.155 0 0 0 1.273.279 1.86 1.86 0 0 1-.55-1.353 2.076 2.076 0 0 1 .596-1.535 2.1 2.1 0 0 1 1.546-.6 2.134 2.134 0 0 1 1.632.68 2.443 2.443 0 0 1 .634 1.745 2.107 2.107 0 0 1-.827 1.805 4.044 4.044 0 0 1-2.428.619q-1.763 0-2.649-.685a2.169 2.169 0 0 1-.83-1.836zm4.496 1.28a1.268 1.268 0 0 0 .859-.298.943.943 0 0 0 .344-.742.978.978 0 0 0-.306-.774 1.33 1.33 0 0 0-.897-.266 1.18 1.18 0 0 0-.823.286 1.063 1.063 0 0 0 0 1.507 1.18 1.18 0 0 0 .823.287zm2.351 9.611a9.33 9.33 0 0 1-2.958-.808 9.522 9.522 0 0 1-2.404-1.547v3.294h-1.16v-4.697h.99a9.113 9.113 0 0 0 2.567 1.65 9.348 9.348 0 0 0 2.953.774zm-.012 8.699a2.119 2.119 0 0 1-.467 1.423 1.65 1.65 0 0 1-1.234.591v-1.345a.619.619 0 0 0 .491-.194.773.773 0 0 0 .182-.525v-.066a.951.951 0 0 0-.549-.905 3.263 3.263 0 0 0-1.272-.282 1.852 1.852 0 0 1 .55 1.345 2.045 2.045 0 0 1-.596 1.52 2.076 2.076 0 0 1-1.527.591 2.13 2.13 0 0 1-1.62-.669 2.436 2.436 0 0 1-.63-1.724 2.088 2.088 0 0 1 .823-1.786 4.017 4.017 0 0 1 2.409-.61c1.16 0 2.037.227 2.625.676a2.138 2.138 0 0 1 .823 1.813zm-4.457-1.272a1.237 1.237 0 0 0-.85.294.94.94 0 0 0-.341.742.967.967 0 0 0 .302.773 1.315 1.315 0 0 0 .889.263 1.16 1.16 0 0 0 .816-.282 1.063 1.063 0 0 0 0-1.5 1.16 1.16 0 0 0-.816-.29zm-.456 10.941-.229 1.527-.893-.131a1.782 1.782 0 0 0-.104-1.086 1.833 1.833 0 0 0-.72-.828l.152-1.024 6.36.935-.09.627-.092.626zM56.13 66.646l.486-.468.488-.468 1.851 1.933-.065-3.642.641-.591.623-.596-.039 3.689 4.64.858-.638.61-.638.612-3.371-.708v.94l1.5 1.546-.53.48-.487.467zm-4.888 6.816a2.664 2.664 0 0 1-.696 1.875 2.83 2.83 0 0 1-1.851.858 2.76 2.76 0 0 1-2.262-.688 3.615 3.615 0 0 1-1.06-2.382 3.739 3.739 0 0 1 .546-2.598 2.706 2.706 0 0 1 2.072-1.16 2.915 2.915 0 0 1 1.976.426 2.513 2.513 0 0 1 1.063 1.597l-1.353.139a1.222 1.222 0 0 0-.538-.774 1.546 1.546 0 0 0-1.013-.208 1.388 1.388 0 0 0-1.121.723 2.853 2.853 0 0 0-.255 1.712 2.753 2.753 0 0 0 .595 1.582 1.38 1.38 0 0 0 1.245.464 1.415 1.415 0 0 0 .943-.445 1.4 1.4 0 0 0 .356-.974zm-13.276.63c0 .936-.201 1.604-.615 2.018-.414.414-1.086.619-2.018.619-.932 0-1.547-.213-1.983-.646-.437-.433-.65-1.075-.65-1.991v-4.063h1.361v4.11a1.516 1.516 0 0 0 .317 1.051 1.218 1.218 0 0 0 .955.352 1.268 1.268 0 0 0 .978-.325 1.593 1.593 0 0 0 .294-1.079v-4.11h1.36zm-17.564-4.647.653.066 2.52.255a2.123 2.123 0 0 1 1.404.645 1.713 1.713 0 0 1 .422 1.373 1.546 1.546 0 0 1-.747 1.314 1.655 1.655 0 0 1-.386.159 1.276 1.276 0 0 1 .2.127 1.264 1.264 0 0 1 .453 1.16l-.073 1.071a1.303 1.303 0 0 0 .023.46.433.433 0 0 0 .193.236v.17l-1.45-.143a1.45 1.45 0 0 1-.05-.448 6.843 6.843 0 0 1 .027-.727l.05-.603a.773.773 0 0 0-.189-.65 1.31 1.31 0 0 0-.773-.266l-1.31-.136-.252 2.579-.653-.066-.662-.066zm1.04 2.985 1.546.154a1.206 1.206 0 0 0 .773-.139.812.812 0 0 0 .317-.626.827.827 0 0 0-.181-.67 1.09 1.09 0 0 0-.704-.29l-1.577-.158zm-10.524-8.858.472.449 1.824 1.708a2.242 2.242 0 0 1 .774 1.33 1.485 1.485 0 0 1-.445 1.25 1.407 1.407 0 0 1-1.276.513 1.52 1.52 0 0 1-.247-.058 1.728 1.728 0 0 1 .15.437 1.427 1.427 0 0 1-.386 1.342 1.89 1.89 0 0 1-1.492.684 2.741 2.741 0 0 1-1.675-.862L6.94 68.788l-.491-.468zM8.173 68.39l1.206 1.133a1.16 1.16 0 0 0 .739.387.854.854 0 0 0 .668-.325.692.692 0 0 0 .22-.63 1.384 1.384 0 0 0-.455-.708l-1.187-1.113zm1.933-2.064 1.137 1.067a1.276 1.276 0 0 0 .684.386.696.696 0 0 0 .58-.247.549.549 0 0 0 .147-.545 1.512 1.512 0 0 0-.472-.673l-1.094-1.028zm-4.164-7.807a.982.982 0 0 0 .623-.595 1.64 1.64 0 0 0 0-1.025 1.299 1.299 0 0 0-.437-.738.773.773 0 0 0-.704-.124.506.506 0 0 0-.363.421 5.973 5.973 0 0 0-.035 1.357 4.76 4.76 0 0 1-.228 2.065 1.686 1.686 0 0 1-1.168.823 1.748 1.748 0 0 1-1.62-.328 3.267 3.267 0 0 1-1.044-1.783 3.004 3.004 0 0 1 .058-2.053 2.157 2.157 0 0 1 1.404-1.16l.344 1.292a1.044 1.044 0 0 0-.685.58 1.57 1.57 0 0 0 0 1.048 2.088 2.088 0 0 0 .472.947.657.657 0 0 0 .669.205.6.6 0 0 0 .464-.387 3.696 3.696 0 0 0 .066-1.16 6.008 6.008 0 0 1 .193-2.234 1.52 1.52 0 0 1 1.067-.874 1.875 1.875 0 0 1 1.663.282 2.927 2.927 0 0 1 1.043 1.682 2.76 2.76 0 0 1-.1 1.906 2.204 2.204 0 0 1-1.334 1.16zM.278 44.558v-1.253h6.646v1.427l-4.666 2.59h4.666v1.272H.278v-1.357l4.79-2.679zm0-11.714v-1.269h6.646v1.423l-4.666 2.614h4.666v1.268H.278v-1.353l4.79-2.683zm6.646-8.483v1.357H.278v-1.357Z" class="cls-2"/></svg>