<?xml version="1.0" encoding="UTF-8" standalone="no"?>
<!-- Created with Inkscape (http://www.inkscape.org/) -->
<svg xmlns:dc="http://purl.org/dc/elements/1.1/" xmlns:cc="http://creativecommons.org/ns#" xmlns:rdf="http://www.w3.org/1999/02/22-rdf-syntax-ns#" xmlns:svg="http://www.w3.org/2000/svg" xmlns="http://www.w3.org/2000/svg" xmlns:sodipodi="http://sodipodi.sourceforge.net/DTD/sodipodi-0.dtd" xmlns:inkscape="http://www.inkscape.org/namespaces/inkscape" width="56.821156mm" height="76.729164mm" viewBox="0 0 56.821156 76.729164" version="1.1" id="svg8" inkscape:version="0.92.4 (5da689c313, 2019-01-14)" sodipodi:docname="1980_Winter_Olympics_logo.svg">
  <defs id="defs2">
    <style id="style70">.cls-1{fill:#c12a21;}.cls-2{fill:#1e1712;}</style>
    <style id="style272">.cls-1{fill:#6dac3b;}.cls-2{fill:#dd463c;}.cls-3{fill:#f3cc23;}.cls-4{fill:#0090da;}.cls-5{fill:#1e1712;}.cls-6{fill:#001388;}.cls-7{fill:#fff;}</style>
    <clipPath id="clipPath580" clipPathUnits="userSpaceOnUse">
      <path inkscape:connector-curvature="0" id="path578" d="M 0,896.65 H 1668.95 V 0 H 0 Z"/>
    </clipPath>
    <clipPath id="clipPath609" clipPathUnits="userSpaceOnUse">
      <path inkscape:connector-curvature="0" id="path607" d="M 0,896.65 H 1668.95 V 0 H 0 Z"/>
    </clipPath>
    <clipPath id="clipPath621" clipPathUnits="userSpaceOnUse">
      <path inkscape:connector-curvature="0" id="path619" d="M 0,896.65 H 1668.95 V 0 H 0 Z"/>
    </clipPath>
  </defs>
  <sodipodi:namedview id="base" pagecolor="#ffffff" bordercolor="#666666" borderopacity="1.0" inkscape:pageopacity="0.0" inkscape:pageshadow="2" inkscape:zoom="2.56" inkscape:cx="144.14987" inkscape:cy="133.47754" inkscape:document-units="mm" inkscape:current-layer="g601" showgrid="false" fit-margin-top="0" fit-margin-left="0" fit-margin-right="0" fit-margin-bottom="0" inkscape:window-width="1920" inkscape:window-height="1001" inkscape:window-x="-9" inkscape:window-y="-9" inkscape:window-maximized="1"/>
  <metadata id="metadata5">
    <rdf:RDF>
      <cc:Work rdf:about="">
        <dc:format>image/svg+xml</dc:format>
        <dc:type rdf:resource="http://purl.org/dc/dcmitype/StillImage"/>
        <dc:title/>
      </cc:Work>
    </rdf:RDF>
  </metadata>
  <g inkscape:label="Capa 1" inkscape:groupmode="layer" id="layer1" transform="translate(-70.620409,-157.56615)">
    <g transform="matrix(0.35277777,0,0,-0.35277777,-85.311076,332.70669)" inkscape:label="Lake Placid" id="g601">
      <g id="g615" transform="matrix(0.41475024,0,0,0.41475024,231.48703,231.31445)">
        <g clip-path="url(#clipPath621)" id="g617">
          <g transform="translate(646.9609,522.7417)" id="g623">
            <path inkscape:connector-curvature="0" id="path625" style="fill:#3daf2c;fill-opacity:1;fill-rule:nonzero;stroke:none" d="m 0,0 c -0.935,0.19 -1.886,0.334 -2.851,0.43 -0.934,0.092 -1.881,0.141 -2.839,0.141 -0.958,0 -1.905,-0.049 -2.839,-0.141 -0.013,-0.972 -0.074,-1.931 -0.181,-2.877 0.991,0.117 1.997,0.184 3.02,0.184 1.023,0 2.029,-0.067 3.021,-0.184 0.995,-0.118 1.972,-0.292 2.928,-0.521 10.024,-2.395 17.751,-10.701 19.283,-21.033 0.957,-0.229 1.934,-0.404 2.929,-0.521 C 21.072,-12.29 11.893,-2.422 0,0"/>
          </g>
          <g transform="translate(672.4521,551.894)" id="g627">
            <path inkscape:connector-curvature="0" id="path629" style="fill:#ff4539;fill-opacity:1;fill-rule:nonzero;stroke:none" d="m 0,0 c -11.313,0 -21.076,-6.627 -25.625,-16.209 -1.747,-3.68 -2.727,-7.794 -2.727,-12.138 0,-0.126 0.008,-0.25 0.01,-0.376 0.965,-0.095 1.916,-0.239 2.851,-0.429 -0.009,0.268 -0.021,0.535 -0.021,0.805 0,4.196 1.019,8.15 2.813,11.641 4.232,8.234 12.804,13.871 22.699,13.871 14.09,0 25.512,-11.422 25.512,-25.512 0,-10.684 -6.571,-19.829 -15.89,-23.628 -2.97,-1.211 -6.217,-1.883 -9.622,-1.883 -1.023,0 -2.029,0.066 -3.021,0.184 -0.995,0.117 -1.972,0.292 -2.928,0.52 -10.024,2.396 -17.751,10.702 -19.283,21.034 -0.956,0.228 -1.934,0.403 -2.929,0.52 1.399,-12.232 10.578,-22.099 22.472,-24.522 0.934,-0.19 1.885,-0.334 2.85,-0.429 0.934,-0.093 1.881,-0.142 2.839,-0.142 3.475,0 6.802,0.628 9.878,1.771 10.788,4.01 18.474,14.394 18.474,26.575 C 28.352,-12.691 15.658,0 0,0"/>
          </g>
          <g transform="translate(602.9844,509.9336)" id="g631">
            <path inkscape:connector-curvature="0" id="path633" style="fill:#ffce00;fill-opacity:1;fill-rule:nonzero;stroke:none" d="m 0,0 c -4.045,6.491 -10.639,11.23 -18.386,12.808 -0.934,0.191 -1.885,0.334 -2.851,0.43 -0.934,0.093 -1.88,0.141 -2.839,0.141 -0.958,0 -1.904,-0.048 -2.838,-0.141 -0.013,-0.972 -0.074,-1.931 -0.182,-2.877 0.991,0.117 1.998,0.184 3.02,0.184 1.023,0 2.03,-0.067 3.021,-0.184 0.995,-0.117 1.972,-0.292 2.929,-0.521 7.42,-1.773 13.58,-6.785 16.901,-13.463 1.165,-2.342 1.983,-4.887 2.381,-7.57 0.957,-0.229 1.934,-0.403 2.929,-0.521 C 3.597,-7.45 2.165,-3.474 0,0"/>
          </g>
          <g transform="translate(573.3525,535.6851)" id="g635">
            <path inkscape:connector-curvature="0" id="path637" style="fill:#0091dd;fill-opacity:1;fill-rule:nonzero;stroke:none" d="m 0,0 c -4.548,9.582 -14.311,16.209 -25.625,16.209 -15.658,0 -28.352,-12.691 -28.352,-28.347 0,-12.181 7.686,-22.565 18.474,-26.575 3.076,-1.143 6.403,-1.771 9.878,-1.771 0.958,0 1.905,0.049 2.839,0.142 0.013,0.971 0.074,1.931 0.182,2.877 -0.992,-0.118 -1.998,-0.184 -3.021,-0.184 -3.405,0 -6.651,0.672 -9.622,1.883 -9.318,3.799 -15.89,12.944 -15.89,23.628 0,14.09 11.423,25.512 25.512,25.512 9.895,0 18.467,-5.637 22.699,-13.871 1.794,-3.491 2.813,-7.445 2.813,-11.641 0,-0.27 -0.012,-0.537 -0.02,-0.805 -0.032,-1.005 -0.116,-1.996 -0.26,-2.968 -1.532,-10.332 -9.258,-18.638 -19.283,-21.034 -0.144,-0.972 -0.228,-1.963 -0.259,-2.968 11.893,2.423 21.072,12.29 22.471,24.522 0.108,0.946 0.169,1.906 0.182,2.877 10e-4,0.126 0.009,0.25 0.009,0.376 C 2.727,-7.794 1.747,-3.68 0,0"/>
          </g>
          <g transform="translate(669.6133,495.3428)" id="g639">
            <path inkscape:connector-curvature="0" id="path641" style="fill:#3daf2c;fill-opacity:1;fill-rule:nonzero;stroke:none" d="m 0,0 c -0.965,0.096 -1.917,0.239 -2.851,0.43 0.009,-0.268 0.02,-0.536 0.02,-0.806 0,-6.105 -2.147,-11.708 -5.724,-16.099 -4.678,-5.743 -11.803,-9.413 -19.787,-9.413 -7.985,0 -15.11,3.67 -19.787,9.413 -1.189,1.459 -2.218,3.054 -3.064,4.755 -1.7,3.418 -2.661,7.268 -2.661,11.344 0,0.27 0.012,0.538 0.021,0.806 0.031,1.005 0.115,1.995 0.259,2.967 0.398,2.684 1.216,5.228 2.381,7.571 3.321,6.678 9.481,11.69 16.901,13.463 0.145,0.972 0.229,1.963 0.26,2.968 -7.747,-1.578 -14.34,-6.317 -18.386,-12.808 -2.165,-3.474 -3.597,-7.45 -4.085,-11.714 -0.108,-0.946 -0.169,-1.905 -0.182,-2.877 -0.002,-0.126 -0.009,-0.25 -0.009,-0.376 0,-5.496 1.569,-10.623 4.276,-14.967 0.239,-0.384 0.487,-0.761 0.744,-1.132 5.116,-7.398 13.655,-12.248 23.332,-12.248 9.676,0 18.216,4.85 23.331,12.248 3.163,4.573 5.021,10.118 5.021,16.099 C 0.01,-0.25 0.002,-0.126 0,0"/>
          </g>
          <g transform="translate(607.2515,495.3428)" id="g643">
            <path inkscape:connector-curvature="0" id="path645" style="fill:#ffce00;fill-opacity:1;fill-rule:nonzero;stroke:none" d="m 0,0 c -0.965,0.096 -1.917,0.239 -2.851,0.43 0.008,-0.268 0.02,-0.536 0.02,-0.806 0,-4.076 -0.961,-7.927 -2.661,-11.344 -0.846,-1.702 -1.875,-3.296 -3.064,-4.755 -4.677,-5.743 -11.802,-9.413 -19.787,-9.413 -7.984,0 -15.109,3.67 -19.787,9.413 -3.577,4.391 -5.724,9.994 -5.724,16.099 0,0.27 0.012,0.538 0.02,0.806 0.031,1.005 0.115,1.995 0.259,2.967 1.533,10.332 9.259,18.639 19.283,21.034 0.145,0.972 0.229,1.963 0.26,2.968 C -45.925,24.977 -55.104,15.109 -56.503,2.877 -56.611,1.931 -56.672,0.972 -56.685,0 c -0.002,-0.126 -0.01,-0.25 -0.01,-0.376 0,-5.981 1.858,-11.526 5.021,-16.099 5.116,-7.398 13.655,-12.248 23.331,-12.248 9.676,0 18.216,4.85 23.332,12.248 0.257,0.371 0.505,0.748 0.744,1.132 2.707,4.344 4.276,9.471 4.276,14.967 C 0.009,-0.25 0.001,-0.126 0,0"/>
          </g>
          <g transform="translate(610.0898,551.894)" id="g647">
            <path inkscape:connector-curvature="0" id="path649" style="fill:#1a1009;fill-opacity:1;fill-rule:nonzero;stroke:none" d="m 0,0 c -11.313,0 -21.076,-6.627 -25.625,-16.209 -1.747,-3.68 -2.727,-7.794 -2.727,-12.138 0,-0.126 0.008,-0.25 0.01,-0.376 0.965,-0.095 1.916,-0.239 2.851,-0.429 -0.009,0.268 -0.021,0.535 -0.021,0.805 0,4.196 1.019,8.15 2.813,11.641 4.232,8.234 12.804,13.871 22.699,13.871 9.895,0 18.467,-5.637 22.699,-13.871 1.794,-3.491 2.813,-7.445 2.813,-11.641 0,-0.27 -0.012,-0.537 -0.02,-0.805 -0.032,-1.005 -0.116,-1.996 -0.26,-2.968 -1.339,-9.03 -7.41,-16.512 -15.61,-19.855 -1.183,-0.483 -2.41,-0.877 -3.673,-1.179 -0.144,-0.972 -0.228,-1.963 -0.259,-2.968 1.439,0.294 2.837,0.698 4.188,1.2 9.813,3.648 17.053,12.571 18.283,23.322 0.108,0.946 0.169,1.906 0.181,2.877 0.002,0.126 0.01,0.25 0.01,0.376 0,4.344 -0.98,8.458 -2.727,12.138 C 21.076,-6.627 11.313,0 0,0"/>
          </g>
          <g transform="translate(607.0693,498.2197)" id="g651">
            <path inkscape:connector-curvature="0" id="path653" style="fill:#1a1009;fill-opacity:1;fill-rule:nonzero;stroke:none" d="m 0,0 c -0.995,0.118 -1.972,0.292 -2.929,0.521 -1.263,0.301 -2.489,0.696 -3.672,1.178 -8.201,3.343 -14.272,10.825 -15.61,19.855 -0.957,0.229 -1.934,0.404 -2.929,0.521 1.229,-10.752 8.47,-19.675 18.282,-23.323 1.351,-0.502 2.75,-0.906 4.189,-1.199 0.934,-0.191 1.886,-0.334 2.851,-0.43 0.934,-0.093 1.881,-0.142 2.839,-0.142 0.958,0 1.904,0.049 2.838,0.142 C 5.872,-1.905 5.933,-0.946 6.041,0 5.05,-0.117 4.043,-0.184 3.021,-0.184 1.998,-0.184 0.991,-0.117 0,0"/>
          </g>
          <g transform="translate(833.8101,264.1641)" id="g655">
            <path inkscape:connector-curvature="0" id="path657" style="fill:#000b8c;fill-opacity:1;fill-rule:nonzero;stroke:none" d="m 0,0 -80.742,50.453 v 0.002 l -0.002,-10e-4 -0.001,10e-4 V 50.453 L -161.487,0 -182.609,-13.198 V 7.353 175.022 h -17.575 V -3.629 -7.903 -13.198 -29.64 h 13.582 3.993 1.895 l 19.227,12.015 80.743,50.454 L 0,-17.625 19.226,-29.64 l 1.896,-1.183 v 1.183 16.442 z"/>
          </g>
          <g transform="translate(854.9316,218.6514)" id="g659">
            <path inkscape:connector-curvature="0" id="path661" style="fill:#ffffff;fill-opacity:1;fill-rule:nonzero;stroke:none" d="m 0,0 -101.862,63.654 -80.747,-50.457 -7.532,-4.706 -13.589,-8.492 h -17.575 -14.74 V 15.873 220.535 H -253.62 V -0.001 -16.441 h 17.575 14.74 15.055 2.52 2.172 l 18.949,11.84 80.747,50.456 L 0,-17.793 Z"/>
          </g>
          <g transform="translate(854.9316,186.168)" id="g663">
            <path inkscape:connector-curvature="0" id="path665" style="fill:#ff4539;fill-opacity:1;fill-rule:nonzero;stroke:none" d="M 0,0 -64.805,40.496 -101.86,63.65 -138.915,40.496 -182.609,13.192 -203.453,0.168 h -64.907 v 15.874 236.977 h -17.575 V 0.168 -16.273 h 75.265 9.39 l 18.671,11.667 80.749,50.458 L 0,-17.797 Z"/>
          </g>
          <g transform="translate(651.2012,250.9658)" id="g667">
            <path inkscape:connector-curvature="0" id="path669" style="fill:#0091dd;fill-opacity:1;fill-rule:nonzero;stroke:none" d="M 0,0 21.122,13.198 101.865,63.652 182.609,13.198 203.73,0 V 20.551 L 182.609,33.749 101.865,84.203 21.122,33.749 V 217.082 C 13.584,208.398 2.473,202.898 -9.93,202.898 c -12.474,0 -23.642,5.563 -31.181,14.333 -7.54,-8.77 -18.707,-14.333 -31.181,-14.333 -12.394,0 -23.497,5.491 -31.034,14.163 v -319.032 h 124.448 80.745 0.01 101.853 v 19.376 L 101.872,-18.945 21.122,-69.404 2.45,-81.071 H -6.939 -82.205 V -64.63 188.221 H -64.63 V -48.756 -64.63 H 0.278 l 11.169,6.98 9.675,6.045 43.694,27.303 37.054,23.154 37.054,-23.154 64.806,-40.496 v 14.691 L 101.87,13.542 21.122,-36.915 2.173,-48.756 H 0 -2.52 -17.575 -32.315 -49.89 v 16.441 220.536 h 17.575 V -16.441 -32.315 H -17.575 0 l 13.589,8.492 7.533,4.706 80.743,50.455 80.744,-50.455 7.532,-4.706 13.589,-8.491 v 14.689 l -1.895,1.185 -19.226,12.013 -80.741,50.452 v 0.003 l -0.003,-10e-4 -0.002,0.002 V 46.025 L 21.122,-4.427 1.895,-16.441 H 0 -3.993 -17.575 V 0 5.295 9.569 188.221 H 0 V 20.551 Z"/>
          </g>
          <g transform="translate(560.4634,579.2568)" id="g671">
            <path inkscape:connector-curvature="0" id="path673" style="fill:#000000;fill-opacity:1;fill-rule:nonzero;stroke:none" d="m 0,0 5.718,8.615 c -0.453,0.722 -1.117,1.81 -1.989,3.262 -0.874,1.453 -1.638,2.721 -2.293,3.804 -0.655,1.084 -1.209,1.978 -1.663,2.683 l -5.088,7.809 c 0.605,-0.034 1.142,-0.067 1.612,-0.101 0.47,-0.033 0.856,-0.05 1.159,-0.05 0.285,0 0.663,0.017 1.133,0.05 0.471,0.034 1.025,0.067 1.663,0.101 0.419,-0.655 0.827,-1.331 1.222,-2.027 0.394,-0.698 0.86,-1.5 1.398,-2.406 l 5.466,-9.396 c 0.655,1.057 1.512,2.384 2.57,3.98 1.058,1.595 1.801,2.716 2.229,3.363 0.428,0.646 1.003,1.557 1.726,2.733 0.721,1.175 1.435,2.426 2.141,3.753 0.403,-0.034 0.764,-0.067 1.083,-0.101 0.319,-0.033 0.596,-0.05 0.831,-0.05 0.218,0 0.483,0.017 0.794,0.05 0.31,0.034 0.684,0.067 1.121,0.101 -0.42,-0.453 -0.714,-0.798 -0.882,-1.032 L 12.066,14.157 9.522,10.328 21.513,-9.119 c -0.471,0.034 -0.857,0.059 -1.159,0.076 -0.302,0.017 -0.559,0.034 -0.768,0.05 -0.211,0.017 -0.517,0.025 -0.919,0.025 -0.32,0 -0.756,-0.016 -1.311,-0.05 -0.554,-0.034 -1.066,-0.067 -1.536,-0.101 -1.109,2.166 -2.108,4.064 -2.998,5.693 -0.89,1.629 -1.835,3.283 -2.834,4.963 C 8.989,3.216 7.96,4.887 6.902,6.55 5.794,4.887 4.74,3.246 3.741,1.625 2.742,0.004 1.755,-1.65 0.781,-3.338 c -0.974,-1.687 -2.049,-3.615 -3.224,-5.781 -0.303,0.034 -0.584,0.063 -0.844,0.088 -0.261,0.026 -0.433,0.042 -0.517,0.051 -0.084,0.008 -0.26,0.012 -0.529,0.012 -0.302,0 -0.525,-0.008 -0.667,-0.025 -0.143,-0.016 -0.319,-0.033 -0.529,-0.05 -0.21,-0.017 -0.45,-0.042 -0.718,-0.076 0.47,0.705 1.003,1.486 1.6,2.343 0.595,0.856 1.351,1.952 2.267,3.287 C -1.465,-2.154 -0.672,-0.991 0,0"/>
          </g>
          <g transform="translate(586.1982,570.1377)" id="g675">
            <path inkscape:connector-curvature="0" id="path677" style="fill:#000000;fill-opacity:1;fill-rule:nonzero;stroke:none" d="m 0,0 v 35.292 c 0.504,-0.034 0.94,-0.067 1.31,-0.101 0.369,-0.033 0.689,-0.05 0.957,-0.05 0.218,0 0.517,0.017 0.895,0.05 0.378,0.034 0.835,0.067 1.372,0.101 V 0 C 4.165,0.034 3.854,0.059 3.603,0.076 3.351,0.093 3.145,0.11 2.985,0.126 2.825,0.143 2.586,0.151 2.267,0.151 1.915,0.151 1.654,0.143 1.486,0.126 1.318,0.11 1.104,0.093 0.844,0.076 0.583,0.059 0.302,0.034 0,0"/>
          </g>
          <g transform="translate(597.9521,570.1377)" id="g679">
            <path inkscape:connector-curvature="0" id="path681" style="fill:#000000;fill-opacity:1;fill-rule:nonzero;stroke:none" d="m 0,0 v 35.292 c 0.504,-0.034 0.94,-0.067 1.31,-0.101 0.369,-0.033 0.689,-0.05 0.957,-0.05 0.218,0 0.517,0.017 0.895,0.05 0.378,0.034 0.835,0.067 1.372,0.101 V 0 C 4.165,0.034 3.854,0.059 3.603,0.076 3.351,0.093 3.145,0.11 2.985,0.126 2.825,0.143 2.586,0.151 2.267,0.151 1.915,0.151 1.654,0.143 1.486,0.126 1.318,0.11 1.104,0.093 0.844,0.076 0.583,0.059 0.302,0.034 0,0"/>
          </g>
          <g transform="translate(609.7061,570.1377)" id="g683">
            <path inkscape:connector-curvature="0" id="path685" style="fill:#000000;fill-opacity:1;fill-rule:nonzero;stroke:none" d="m 0,0 v 35.292 c 0.504,-0.034 0.94,-0.067 1.31,-0.101 0.369,-0.033 0.689,-0.05 0.957,-0.05 0.218,0 0.517,0.017 0.895,0.05 0.378,0.034 0.835,0.067 1.372,0.101 V 0 C 4.165,0.034 3.854,0.059 3.603,0.076 3.351,0.093 3.145,0.11 2.985,0.126 2.825,0.143 2.586,0.151 2.267,0.151 1.915,0.151 1.654,0.143 1.486,0.126 1.318,0.11 1.104,0.093 0.844,0.076 0.583,0.059 0.302,0.034 0,0"/>
          </g>
          <g transform="translate(665.9048,588.1362)" id="g687">
            <path inkscape:connector-curvature="0" id="path689" style="fill:#000000;fill-opacity:1;fill-rule:nonzero;stroke:none" d="m 0,0 c 0,1.628 -0.088,3.054 -0.265,4.279 -0.176,1.225 -0.507,2.442 -0.995,3.65 -0.487,1.209 -1.15,2.342 -1.99,3.399 -0.839,1.057 -1.83,1.963 -2.972,2.718 -1.142,0.755 -2.385,1.326 -3.728,1.712 -1.344,0.386 -2.688,0.578 -4.031,0.578 -2.233,0 -4.253,-0.406 -6.058,-1.22 -1.806,-0.814 -3.342,-1.989 -4.61,-3.524 -1.268,-1.536 -2.229,-3.378 -2.884,-5.525 -0.655,-2.149 -0.983,-4.498 -0.983,-7.048 0,-2.535 0.357,-4.787 1.071,-6.759 0.714,-1.972 1.721,-3.65 3.023,-5.034 1.301,-1.385 2.817,-2.421 4.547,-3.109 1.729,-0.688 3.543,-1.032 5.441,-1.032 2.452,0 4.601,0.533 6.449,1.598 1.847,1.066 3.354,2.45 4.521,4.153 1.167,1.704 2.036,3.554 2.608,5.551 C -0.286,-3.616 0,-1.745 0,0 m -14.585,-18.628 c -2.822,0 -5.408,0.433 -7.759,1.297 -2.351,0.865 -4.367,2.107 -6.046,3.728 -1.679,1.621 -2.964,3.556 -3.854,5.807 -0.89,2.25 -1.335,4.727 -1.335,7.431 0,2.754 0.487,5.282 1.461,7.583 0.973,2.3 2.334,4.257 4.081,5.869 1.746,1.612 3.766,2.842 6.058,3.69 2.292,0.848 4.79,1.273 7.494,1.273 2.503,0 4.925,-0.349 7.268,-1.046 2.342,-0.697 4.433,-1.768 6.272,-3.212 1.839,-1.444 3.3,-3.287 4.383,-5.529 1.083,-2.242 1.625,-4.858 1.625,-7.847 0,-3.745 -0.831,-7.066 -2.494,-9.963 -1.662,-2.897 -3.992,-5.135 -6.99,-6.713 -2.997,-1.579 -6.386,-2.368 -10.164,-2.368"/>
          </g>
          <g transform="translate(679.6743,605.4302)" id="g691">
            <path inkscape:connector-curvature="0" id="path693" style="fill:#000000;fill-opacity:1;fill-rule:nonzero;stroke:none" d="m 0,0 v -32.723 c 2.099,0 5.214,0.067 9.346,0.202 0.554,0.016 1.305,0.075 2.254,0.176 0.949,0.101 1.835,0.201 2.658,0.303 -0.034,-0.37 -0.068,-0.681 -0.101,-0.933 -0.034,-0.252 -0.051,-0.462 -0.051,-0.629 0,-0.152 0.017,-0.362 0.051,-0.63 0.033,-0.269 0.067,-0.571 0.101,-0.907 H -4.535 V 0 c 0.504,-0.034 0.945,-0.067 1.323,-0.101 0.378,-0.034 0.693,-0.05 0.945,-0.05 0.235,0 0.545,0.016 0.932,0.05 C -0.949,-0.067 -0.504,-0.034 0,0"/>
          </g>
          <g transform="translate(702.3877,585.9829)" id="g695">
            <path inkscape:connector-curvature="0" id="path697" style="fill:#000000;fill-opacity:1;fill-rule:nonzero;stroke:none" d="m 0,0 v -15.845 c -0.37,0.034 -0.676,0.059 -0.919,0.075 -0.244,0.018 -0.45,0.035 -0.618,0.051 -0.168,0.017 -0.411,0.025 -0.73,0.025 -0.353,0 -0.613,-0.008 -0.781,-0.025 -0.168,-0.016 -0.382,-0.033 -0.642,-0.051 -0.261,-0.016 -0.542,-0.041 -0.844,-0.075 V -0.982 L -17.18,19.447 c 0.638,-0.034 1.197,-0.067 1.675,-0.101 0.479,-0.034 0.886,-0.05 1.222,-0.05 0.285,0 0.659,0.016 1.121,0.05 0.461,0.034 1.028,0.067 1.7,0.101 0.958,-1.847 1.99,-3.766 3.099,-5.756 1.108,-1.99 2.376,-4.219 3.803,-6.688 1.428,-2.469 2.393,-4.081 2.897,-4.836 0.403,0.453 1.029,1.397 1.877,2.833 0.848,1.436 1.843,3.183 2.985,5.24 1.142,2.057 2.095,3.795 2.859,5.215 0.764,1.419 1.482,2.749 2.154,3.992 0.436,-0.034 0.819,-0.067 1.146,-0.101 0.328,-0.034 0.609,-0.05 0.844,-0.05 0.218,0 0.491,0.016 0.819,0.05 0.328,0.034 0.726,0.067 1.196,0.101 C 10.891,17.734 9.673,16.013 8.565,14.283 L 2.897,5.139 C 1.805,3.493 0.839,1.78 0,0"/>
          </g>
          <g transform="translate(748.6968,605.4302)" id="g699">
            <path inkscape:connector-curvature="0" id="path701" style="fill:#000000;fill-opacity:1;fill-rule:nonzero;stroke:none" d="m 0,0 h 1.083 c 0.319,-2.889 0.655,-5.929 1.008,-9.119 0.352,-3.191 0.714,-6.369 1.083,-9.535 0.369,-3.165 0.688,-5.823 0.957,-7.972 0.269,-2.15 0.647,-5.039 1.134,-8.666 -0.403,0.034 -0.735,0.059 -0.995,0.075 -0.261,0.017 -0.478,0.034 -0.655,0.05 -0.177,0.018 -0.433,0.026 -0.768,0.026 -0.37,0 -0.647,-0.008 -0.832,-0.026 -0.184,-0.016 -0.411,-0.033 -0.68,-0.05 -0.269,-0.016 -0.571,-0.041 -0.907,-0.075 -0.218,2.754 -0.462,5.58 -0.73,8.477 -0.269,2.897 -0.491,5.222 -0.668,6.977 -0.176,1.755 -0.382,3.762 -0.617,6.021 -0.235,2.258 -0.445,3.976 -0.63,5.151 -2.217,-3.946 -4.102,-7.364 -5.655,-10.252 -1.554,-2.889 -3.023,-5.731 -4.408,-8.527 -1.386,-2.797 -2.532,-5.227 -3.439,-7.293 h -0.579 l -2.822,5.844 c -1.024,2.116 -2.162,4.383 -3.413,6.802 -1.251,2.418 -2.44,4.702 -3.565,6.852 -1.125,2.149 -2.276,4.341 -3.451,6.574 -0.319,-2.838 -0.613,-5.382 -0.881,-7.632 -0.269,-2.251 -0.55,-4.812 -0.844,-7.683 -0.294,-2.873 -0.5,-5.169 -0.617,-6.89 -0.118,-1.722 -0.177,-3.195 -0.177,-4.421 -0.302,0.034 -0.554,0.059 -0.755,0.075 -0.202,0.017 -0.365,0.034 -0.491,0.05 -0.126,0.018 -0.315,0.026 -0.567,0.026 -0.286,0 -0.5,-0.008 -0.643,-0.026 -0.143,-0.016 -0.315,-0.033 -0.516,-0.05 -0.202,-0.016 -0.437,-0.041 -0.706,-0.075 0.37,2.216 0.97,6.175 1.802,11.877 0.831,5.702 1.524,10.593 2.078,14.674 0.554,4.081 0.915,6.994 1.083,8.741 h 1.335 c 1.83,-3.611 3.082,-6.071 3.754,-7.381 0.671,-1.31 1.716,-3.3 3.136,-5.97 1.419,-2.67 2.766,-5.127 4.043,-7.368 1.276,-2.242 2.502,-4.346 3.678,-6.311 0.822,1.478 2.212,4.009 4.169,7.595 1.956,3.585 3.278,6.008 3.967,7.268 0.689,1.259 1.55,2.838 2.582,4.736 C -3.086,-5.534 -1.713,-3.057 0,0"/>
          </g>
          <g transform="translate(763.521,603.415)" id="g703">
            <path inkscape:connector-curvature="0" id="path705" style="fill:#000000;fill-opacity:1;fill-rule:nonzero;stroke:none" d="m 0,0 v -15.064 c 0.905,-0.067 1.693,-0.101 2.364,-0.101 0.653,0 1.567,0.034 2.74,0.101 2.548,0.251 4.538,1.125 5.971,2.62 1.433,1.494 2.15,3.408 2.15,5.743 0,1.176 -0.205,2.246 -0.616,3.212 -0.411,0.966 -1.047,1.751 -1.911,2.355 C 9.834,-0.529 8.741,-0.168 7.417,-0.051 6.696,0.016 5.372,0.05 3.444,0.05 1.667,0.05 0.52,0.033 0,0 m 0,-17.08 v -16.197 c -0.37,0.034 -0.676,0.059 -0.919,0.075 -0.244,0.017 -0.45,0.035 -0.618,0.051 -0.168,0.017 -0.411,0.025 -0.73,0.025 -0.353,0 -0.613,-0.008 -0.781,-0.025 -0.168,-0.016 -0.382,-0.034 -0.642,-0.051 -0.261,-0.016 -0.542,-0.041 -0.844,-0.075 V 2.015 h 9.22 c 3.358,0 6.003,-0.273 7.935,-0.819 1.931,-0.546 3.312,-1.427 4.144,-2.645 0.831,-1.218 1.247,-2.884 1.247,-5 0,-1.562 -0.228,-2.914 -0.682,-4.056 -0.454,-1.142 -1.147,-2.133 -2.081,-2.972 -0.933,-0.84 -2.06,-1.533 -3.379,-2.079 -1.32,-0.546 -2.964,-1.02 -4.931,-1.423 -0.754,-0.168 -1.743,-0.251 -2.966,-0.251 -0.42,0.016 -0.86,0.033 -1.321,0.05 -0.461,0.016 -0.851,0.033 -1.169,0.05 -0.318,0.017 -0.57,0.029 -0.754,0.038 C 0.545,-17.084 0.301,-17.08 0,-17.08"/>
          </g>
          <g transform="translate(785.6206,570.1377)" id="g707">
            <path inkscape:connector-curvature="0" id="path709" style="fill:#000000;fill-opacity:1;fill-rule:nonzero;stroke:none" d="m 0,0 v 35.292 c 0.504,-0.034 0.94,-0.067 1.31,-0.101 0.369,-0.033 0.688,-0.05 0.958,-0.05 0.217,0 0.515,0.017 0.893,0.05 0.378,0.034 0.836,0.067 1.373,0.101 V 0 C 4.165,0.034 3.854,0.059 3.603,0.076 3.351,0.093 3.145,0.11 2.985,0.126 2.825,0.143 2.586,0.151 2.268,0.151 1.915,0.151 1.654,0.143 1.486,0.126 1.318,0.11 1.104,0.093 0.844,0.076 0.583,0.059 0.303,0.034 0,0"/>
          </g>
          <g transform="translate(823.9443,575.7051)" id="g711">
            <path inkscape:connector-curvature="0" id="path713" style="fill:#000000;fill-opacity:1;fill-rule:nonzero;stroke:none" d="m 0,0 -0.277,-3.25 c -1.008,-0.689 -2.146,-1.251 -3.413,-1.688 -1.269,-0.437 -2.562,-0.755 -3.88,-0.957 -1.319,-0.201 -2.683,-0.302 -4.094,-0.302 -2.771,0 -5.29,0.425 -7.557,1.272 -2.267,0.848 -4.186,2.087 -5.756,3.716 -1.571,1.628 -2.772,3.585 -3.603,5.869 -0.831,2.284 -1.247,4.82 -1.247,7.608 0,3.761 0.848,7.02 2.544,9.774 1.697,2.754 4.027,4.849 6.992,6.285 2.964,1.436 6.268,2.154 9.912,2.154 1.175,0 2.409,-0.089 3.703,-0.268 1.293,-0.178 2.573,-0.454 3.842,-0.827 1.268,-0.373 2.447,-0.806 3.539,-1.298 C 0.269,26.98 -0.093,25.663 -0.378,24.136 L -0.73,24.057 c -0.42,0.504 -1.068,1.091 -1.941,1.763 -0.873,0.672 -2.002,1.289 -3.388,1.852 -1.385,0.562 -2.893,0.844 -4.521,0.844 -3.024,0 -5.606,-0.743 -7.746,-2.228 -2.142,-1.485 -3.75,-3.491 -4.824,-6.016 -1.076,-2.525 -1.613,-5.265 -1.613,-8.218 0,-3.222 0.579,-6.067 1.739,-8.533 1.158,-2.467 2.787,-4.368 4.886,-5.702 2.1,-1.334 4.492,-2.001 7.18,-2.001 1.713,0 3.316,0.261 4.812,0.781 1.494,0.521 2.749,1.096 3.765,1.726 1.016,0.63 1.81,1.188 2.381,1.675"/>
          </g>
          <g transform="translate(712.9844,531.6543)" id="g715">
            <path inkscape:connector-curvature="0" id="path717" style="fill:#000000;fill-opacity:1;fill-rule:nonzero;stroke:none" d="m 0,0 -9.225,28.491 c 0.538,-0.034 1.004,-0.068 1.399,-0.101 0.395,-0.034 0.735,-0.051 1.021,-0.051 0.218,0 0.525,0.017 0.92,0.051 0.395,0.033 0.878,0.067 1.449,0.101 0.151,-0.47 0.664,-2.293 1.538,-5.467 L 0.151,12.545 4.486,-1.083 h 0.479 c 0.974,2.854 2.108,6.134 3.402,9.837 1.294,3.703 2.638,7.624 4.033,11.764 1.394,4.139 2.251,6.797 2.571,7.973 0.302,-0.034 0.583,-0.068 0.843,-0.101 0.261,-0.034 0.476,-0.051 0.644,-0.051 0.167,0 0.369,0.017 0.604,0.051 0.236,0.033 0.521,0.067 0.857,0.101 0.236,-0.857 0.681,-2.276 1.336,-4.258 0.655,-1.982 1.336,-4.018 2.041,-6.108 0.706,-2.091 1.756,-5.215 3.151,-9.371 1.394,-4.157 2.487,-7.436 3.277,-9.837 h 0.453 c 0.74,1.864 1.428,3.829 2.067,5.895 l 6.048,19.447 1.235,4.232 c 0.37,-0.034 0.71,-0.068 1.021,-0.101 0.311,-0.034 0.576,-0.051 0.794,-0.051 0.168,0 0.408,0.017 0.718,0.051 0.311,0.033 0.668,0.067 1.072,0.101 -1.009,-2.352 -1.865,-4.552 -2.571,-6.6 L 28.707,-6.802 c -0.27,0.034 -0.5,0.059 -0.694,0.076 -0.193,0.017 -0.348,0.034 -0.466,0.05 -0.117,0.017 -0.302,0.026 -0.554,0.026 -0.168,0 -0.42,-0.017 -0.757,-0.051 -0.336,-0.033 -0.647,-0.067 -0.932,-0.101 -0.202,0.689 -0.605,1.957 -1.21,3.804 -0.605,1.848 -1.243,3.821 -1.915,5.92 -0.673,2.099 -1.869,5.794 -3.592,11.084 -1.722,5.29 -2.6,8.002 -2.633,8.137 H 15.55 L 5.52,-6.802 C 5.25,-6.768 5.019,-6.743 4.826,-6.726 4.633,-6.709 4.477,-6.692 4.36,-6.676 4.242,-6.659 4.066,-6.65 3.831,-6.65 3.562,-6.65 3.36,-6.659 3.226,-6.676 3.091,-6.692 2.932,-6.709 2.747,-6.726 2.562,-6.743 2.335,-6.768 2.066,-6.802 1.764,-5.794 1.416,-4.619 1.021,-3.275 0.625,-1.932 0.285,-0.84 0,0"/>
          </g>
          <g transform="translate(755.376,524.8525)" id="g719">
            <path inkscape:connector-curvature="0" id="path721" style="fill:#000000;fill-opacity:1;fill-rule:nonzero;stroke:none" d="m 0,0 v 35.292 c 0.504,-0.034 0.94,-0.067 1.31,-0.101 0.369,-0.033 0.689,-0.05 0.957,-0.05 0.218,0 0.517,0.017 0.895,0.05 0.378,0.034 0.835,0.067 1.372,0.101 V 0 C 4.165,0.034 3.854,0.059 3.603,0.076 3.351,0.093 3.145,0.11 2.985,0.126 2.825,0.143 2.586,0.151 2.267,0.151 1.915,0.151 1.654,0.143 1.486,0.126 1.318,0.11 1.104,0.093 0.844,0.076 0.583,0.059 0.302,0.034 0,0"/>
          </g>
          <g transform="translate(795.606,560.145)" id="g723">
            <path inkscape:connector-curvature="0" id="path725" style="fill:#000000;fill-opacity:1;fill-rule:nonzero;stroke:none" d="m 0,0 v -35.292 h -1.562 c -0.689,0.907 -1.579,1.956 -2.67,3.148 l -22.294,24.662 h -0.529 v -27.81 c -0.237,0.034 -0.495,0.067 -0.775,0.101 -0.279,0.033 -0.504,0.05 -0.673,0.05 -0.221,0 -0.386,-0.008 -0.496,-0.026 -0.11,-0.016 -0.246,-0.033 -0.407,-0.05 -0.16,-0.016 -0.343,-0.041 -0.546,-0.075 V 0 h 2.033 l 24.493,-26.576 h 0.529 V 0 c 0.302,-0.034 0.571,-0.067 0.806,-0.101 0.235,-0.034 0.445,-0.05 0.63,-0.05 0.167,0 0.369,0.016 0.605,0.05 C -0.622,-0.067 -0.336,-0.034 0,0"/>
          </g>
          <g transform="translate(813.9111,557.626)" id="g727">
            <path inkscape:connector-curvature="0" id="path729" style="fill:#000000;fill-opacity:1;fill-rule:nonzero;stroke:none" d="m 0,0 v -32.874 c -0.372,0.034 -0.685,0.059 -0.937,0.076 -0.253,0.017 -0.46,0.033 -0.621,0.05 -0.161,0.017 -0.401,0.025 -0.722,0.025 -0.27,0 -0.624,-0.016 -1.064,-0.05 -0.439,-0.034 -0.852,-0.067 -1.241,-0.101 V 0 c -3.586,0 -7.339,-0.202 -11.26,-0.604 0.033,0.253 0.066,0.537 0.1,0.85 0.034,0.313 0.05,0.546 0.05,0.698 0,0.238 -0.008,0.41 -0.024,0.521 -0.018,0.11 -0.034,0.245 -0.051,0.407 -0.017,0.16 -0.042,0.376 -0.075,0.647 H 10.781 C 10.748,2.146 10.714,1.833 10.681,1.58 10.646,1.325 10.63,1.114 10.63,0.944 c 0,-0.152 0.016,-0.364 0.051,-0.635 0.033,-0.27 0.067,-0.575 0.1,-0.913 -1.444,0.167 -3.106,0.31 -4.987,0.428 C 3.913,-0.059 1.981,0 0,0"/>
          </g>
          <g transform="translate(831.2334,557.6763)" id="g731">
            <path inkscape:connector-curvature="0" id="path733" style="fill:#000000;fill-opacity:1;fill-rule:nonzero;stroke:none" d="m 0,0 v -12.923 h 8.011 c 0.318,0 0.78,0.021 1.385,0.063 0.605,0.042 1.121,0.08 1.549,0.113 0.428,0.034 0.979,0.067 1.651,0.101 -0.034,-0.302 -0.068,-0.562 -0.102,-0.781 -0.033,-0.218 -0.05,-0.411 -0.05,-0.579 0,-0.101 0.017,-0.277 0.05,-0.529 0.034,-0.252 0.068,-0.554 0.102,-0.907 -0.672,0.033 -1.223,0.067 -1.651,0.101 -0.428,0.033 -0.944,0.067 -1.549,0.101 -0.605,0.033 -1.067,0.05 -1.385,0.05 H 0 v -15.064 c 2.099,0 5.215,0.067 9.346,0.201 1.41,0.051 2.998,0.21 4.76,0.479 -0.016,-0.134 -0.042,-0.315 -0.075,-0.542 -0.034,-0.226 -0.054,-0.407 -0.063,-0.541 -0.008,-0.135 -0.021,-0.294 -0.037,-0.479 0,-0.235 0.02,-0.487 0.062,-0.756 0.042,-0.268 0.08,-0.528 0.113,-0.78 H -4.534 V 2.469 H 13.779 C 13.745,2.096 13.712,1.783 13.679,1.529 13.645,1.275 13.628,1.063 13.628,0.894 c 0,-0.152 0.017,-0.364 0.051,-0.635 0.033,-0.271 0.066,-0.575 0.1,-0.914 -1.276,0.252 -2.821,0.437 -4.634,0.554 L 3.98,0 Z"/>
          </g>
          <g transform="translate(852.8213,558.2305)" id="g735">
            <path inkscape:connector-curvature="0" id="path737" style="fill:#000000;fill-opacity:1;fill-rule:nonzero;stroke:none" d="m 0,0 v -14.183 c 0.336,0 0.697,-0.004 1.083,-0.012 0.387,-0.009 0.832,-0.021 1.336,-0.038 1.695,0 3.106,0.101 4.231,0.302 1.965,0.42 3.556,1.273 4.774,2.557 1.218,1.285 1.827,2.893 1.827,4.824 0,3.712 -1.89,5.878 -5.668,6.5 C 7.028,0.05 5.962,0.101 4.384,0.101 3.594,0.084 2.868,0.071 2.204,0.063 1.541,0.054 0.807,0.033 0,0 M -4.584,-33.378 V 1.915 H 6.36 c 3.952,0 6.852,-0.651 8.702,-1.953 1.848,-1.301 2.773,-3.271 2.773,-5.907 0,-1.428 -0.285,-2.7 -0.856,-3.816 -0.572,-1.117 -1.37,-2.083 -2.393,-2.897 -1.024,-0.815 -2.15,-1.466 -3.376,-1.953 -1.226,-0.487 -2.544,-0.865 -3.955,-1.133 l 10.631,-13.452 2.494,-2.897 0.957,-1.285 c -0.471,0.034 -0.869,0.059 -1.196,0.076 -0.329,0.017 -0.597,0.034 -0.807,0.05 -0.21,0.017 -0.533,0.025 -0.97,0.025 -0.436,0 -0.718,-0.003 -0.843,-0.012 -0.126,-0.009 -0.408,-0.025 -0.844,-0.051 -0.438,-0.025 -0.857,-0.054 -1.26,-0.088 -1.579,2.217 -2.662,3.711 -3.25,4.484 l -6.096,7.885 -4.131,4.862 H 0 v -17.231 c -0.371,0.034 -0.684,0.059 -0.937,0.076 -0.253,0.017 -0.464,0.034 -0.633,0.05 -0.169,0.017 -0.414,0.025 -0.735,0.025 -0.254,0 -0.599,-0.016 -1.039,-0.05 -0.438,-0.034 -0.852,-0.067 -1.24,-0.101"/>
          </g>
          <g transform="translate(738.5483,510.0547)" id="g739">
            <path inkscape:connector-curvature="0" id="path741" style="fill:#000000;fill-opacity:1;fill-rule:nonzero;stroke:none" d="m 0,0 h -0.58 c -0.705,0.839 -1.503,1.57 -2.393,2.191 -0.89,0.622 -1.813,1.138 -2.771,1.55 -0.957,0.411 -1.982,0.726 -3.073,0.945 -1.092,0.217 -2.208,0.327 -3.35,0.327 -2.201,0 -4.211,-0.353 -6.033,-1.057 -1.823,-0.705 -3.393,-1.75 -4.711,-3.134 -1.318,-1.385 -2.335,-3.093 -3.048,-5.123 -0.714,-2.03 -1.071,-4.321 -1.071,-6.871 0,-3.424 0.584,-6.377 1.751,-8.861 1.167,-2.483 2.909,-4.388 5.227,-5.714 2.318,-1.325 5.13,-1.988 8.439,-1.988 3.09,0 5.777,0.587 8.061,1.762 v 13.24 c 0.504,-0.034 0.94,-0.067 1.31,-0.1 0.369,-0.034 0.688,-0.051 0.957,-0.051 0.218,0 0.516,0.017 0.894,0.051 0.378,0.033 0.836,0.066 1.373,0.1 v -14.6 c -2.334,-0.789 -4.652,-1.38 -6.952,-1.775 -2.301,-0.394 -4.66,-0.592 -7.079,-0.592 -4.216,0 -7.75,0.777 -10.605,2.33 -2.855,1.554 -4.975,3.707 -6.361,6.462 -1.385,2.754 -2.078,5.911 -2.078,9.471 0,2.939 0.495,5.559 1.486,7.86 0.991,2.301 2.397,4.24 4.22,5.819 1.822,1.578 3.967,2.762 6.436,3.552 2.469,0.789 5.13,1.184 7.985,1.184 2.301,0 4.371,-0.183 6.21,-0.546 C -3.917,6.067 -2.452,5.661 -1.36,5.212 -0.269,4.764 0.579,4.353 1.184,3.981 0.814,2.906 0.419,1.579 0,0"/>
          </g>
          <g transform="translate(762.6709,497.0815)" id="g743">
            <path inkscape:connector-curvature="0" id="path745" style="fill:#000000;fill-opacity:1;fill-rule:nonzero;stroke:none" d="M 0,0 -5.718,13.2 -11.336,0 Z m -3.854,19.951 15.467,-36.048 c -0.437,0.034 -0.798,0.059 -1.083,0.076 -0.286,0.017 -0.526,0.034 -0.718,0.05 -0.193,0.017 -0.483,0.025 -0.869,0.025 -0.337,0 -0.765,-0.016 -1.285,-0.05 -0.521,-0.034 -1.008,-0.067 -1.461,-0.101 -1.747,5.055 -3.552,9.699 -5.416,13.93 h -13.099 c -0.807,-2.015 -1.478,-3.711 -2.015,-5.088 -0.538,-1.377 -1.088,-2.855 -1.65,-4.433 -0.563,-1.579 -1.046,-3.049 -1.449,-4.409 -0.302,0.034 -0.559,0.059 -0.768,0.076 -0.211,0.017 -0.387,0.034 -0.529,0.05 -0.143,0.017 -0.349,0.025 -0.618,0.025 -0.285,0 -0.495,-0.008 -0.629,-0.025 -0.135,-0.016 -0.302,-0.033 -0.504,-0.05 -0.202,-0.017 -0.42,-0.042 -0.655,-0.076 l 16.097,36.048 z"/>
          </g>
          <g transform="translate(811.6318,516.2769)" id="g747">
            <path inkscape:connector-curvature="0" id="path749" style="fill:#000000;fill-opacity:1;fill-rule:nonzero;stroke:none" d="m 0,0 h 1.083 c 0.319,-2.889 0.655,-5.929 1.008,-9.119 0.352,-3.191 0.714,-6.369 1.083,-9.535 0.369,-3.165 0.688,-5.823 0.957,-7.972 0.268,-2.15 0.646,-5.039 1.134,-8.666 -0.403,0.034 -0.735,0.059 -0.995,0.075 -0.26,0.017 -0.479,0.034 -0.655,0.05 -0.177,0.018 -0.432,0.026 -0.768,0.026 -0.37,0 -0.647,-0.008 -0.831,-0.026 -0.186,-0.016 -0.412,-0.033 -0.681,-0.05 -0.269,-0.016 -0.571,-0.041 -0.906,-0.075 -0.219,2.754 -0.463,5.58 -0.731,8.477 -0.269,2.897 -0.491,5.222 -0.668,6.977 -0.176,1.755 -0.382,3.762 -0.617,6.021 -0.235,2.258 -0.445,3.976 -0.63,5.151 -2.217,-3.946 -4.102,-7.364 -5.655,-10.252 -1.554,-2.889 -3.023,-5.731 -4.409,-8.527 -1.386,-2.797 -2.532,-5.227 -3.438,-7.293 h -0.579 l -2.823,5.844 c -1.024,2.116 -2.162,4.383 -3.413,6.802 -1.251,2.418 -2.439,4.702 -3.564,6.852 -1.125,2.149 -2.276,4.341 -3.451,6.574 -0.32,-2.838 -0.614,-5.382 -0.882,-7.632 -0.269,-2.251 -0.55,-4.812 -0.844,-7.683 -0.294,-2.873 -0.5,-5.169 -0.617,-6.89 -0.117,-1.722 -0.176,-3.195 -0.176,-4.421 -0.303,0.034 -0.555,0.059 -0.756,0.075 -0.202,0.017 -0.365,0.034 -0.491,0.05 -0.126,0.018 -0.315,0.026 -0.567,0.026 -0.285,0 -0.5,-0.008 -0.642,-0.026 -0.143,-0.016 -0.315,-0.033 -0.517,-0.05 -0.201,-0.016 -0.437,-0.041 -0.705,-0.075 0.369,2.216 0.97,6.175 1.801,11.877 0.831,5.702 1.525,10.593 2.078,14.674 0.555,4.081 0.915,6.994 1.083,8.741 h 1.335 c 1.831,-3.611 3.082,-6.071 3.754,-7.381 0.671,-1.31 1.717,-3.3 3.136,-5.97 1.419,-2.67 2.767,-5.127 4.044,-7.368 1.275,-2.242 2.502,-4.346 3.678,-6.311 0.822,1.478 2.212,4.009 4.169,7.595 1.956,3.585 3.278,6.008 3.968,7.268 0.687,1.259 1.549,2.838 2.582,4.736 C -3.086,-5.534 -1.713,-3.057 0,0"/>
          </g>
          <g transform="translate(825.5674,513.8081)" id="g751">
            <path inkscape:connector-curvature="0" id="path753" style="fill:#000000;fill-opacity:1;fill-rule:nonzero;stroke:none" d="m 0,0 v -12.923 h 8.011 c 0.318,0 0.78,0.021 1.385,0.063 0.605,0.042 1.121,0.08 1.549,0.113 0.428,0.034 0.979,0.067 1.651,0.101 -0.034,-0.302 -0.068,-0.562 -0.102,-0.781 -0.033,-0.218 -0.05,-0.411 -0.05,-0.579 0,-0.101 0.017,-0.277 0.05,-0.529 0.034,-0.252 0.068,-0.554 0.102,-0.907 -0.672,0.033 -1.223,0.067 -1.651,0.101 -0.428,0.033 -0.944,0.067 -1.549,0.101 -0.605,0.033 -1.067,0.05 -1.385,0.05 H 0 v -15.064 c 2.099,0 5.215,0.067 9.346,0.201 1.41,0.051 2.998,0.21 4.76,0.479 -0.016,-0.134 -0.042,-0.315 -0.075,-0.542 -0.034,-0.226 -0.054,-0.407 -0.063,-0.541 -0.008,-0.135 -0.021,-0.294 -0.037,-0.479 0,-0.235 0.02,-0.487 0.062,-0.756 0.042,-0.268 0.08,-0.528 0.113,-0.78 H -4.534 V 2.469 H 13.779 C 13.745,2.096 13.712,1.783 13.679,1.529 13.645,1.275 13.628,1.063 13.628,0.894 c 0,-0.152 0.017,-0.364 0.051,-0.635 0.033,-0.271 0.066,-0.575 0.1,-0.914 -1.276,0.252 -2.821,0.437 -4.634,0.554 L 3.98,0 Z"/>
          </g>
          <g transform="translate(841.9834,487.937)" id="g755">
            <path inkscape:connector-curvature="0" id="path757" style="fill:#000000;fill-opacity:1;fill-rule:nonzero;stroke:none" d="m 0,0 h 0.529 c 1.109,-1.797 2.309,-3.14 3.603,-4.03 1.293,-0.89 2.871,-1.335 4.735,-1.335 1.361,0 2.586,0.34 3.678,1.02 1.092,0.68 1.948,1.599 2.569,2.758 0.621,1.159 0.933,2.41 0.933,3.754 0,2.132 -0.655,3.69 -1.965,4.672 C 12.771,7.822 10.777,8.838 8.099,9.888 5.42,10.937 3.384,12.1 1.99,13.376 c -1.394,1.276 -2.091,3.216 -2.091,5.819 0,3.175 1.083,5.618 3.25,7.331 2.166,1.713 4.904,2.57 8.212,2.57 1.343,0 2.683,-0.206 4.018,-0.617 1.335,-0.413 2.447,-1.03 3.338,-1.852 -0.269,-0.605 -0.731,-2.016 -1.386,-4.232 h -0.504 c -0.52,1.394 -1.344,2.489 -2.469,3.287 -1.125,0.797 -2.434,1.197 -3.929,1.197 -1.193,0 -2.283,-0.252 -3.275,-0.756 C 6.163,25.619 5.378,24.91 4.799,23.994 4.22,23.079 3.93,22.033 3.93,20.858 c 0,-2.099 0.646,-3.64 1.939,-4.622 1.294,-0.983 3.309,-2.016 6.046,-3.099 2.737,-1.083 4.799,-2.234 6.185,-3.451 1.385,-1.218 2.078,-3.052 2.078,-5.504 0,-1.814 -0.324,-3.447 -0.97,-4.9 -0.646,-1.452 -1.562,-2.695 -2.746,-3.728 -1.184,-1.033 -2.54,-1.814 -4.068,-2.343 -1.529,-0.529 -3.183,-0.793 -4.962,-0.793 -1.377,0 -2.918,0.273 -4.623,0.818 -1.705,0.546 -2.968,1.273 -3.791,2.18 C -0.579,-3.459 -0.252,-1.931 0,0"/>
          </g>
          <g transform="translate(698.9517,472.4092)" id="g759">
            <path inkscape:connector-curvature="0" id="path761" style="fill:#000000;fill-opacity:1;fill-rule:nonzero;stroke:none" d="m 0,0 v -32.723 c 2.099,0 5.214,0.067 9.346,0.202 0.554,0.016 1.305,0.075 2.254,0.176 0.949,0.101 1.835,0.201 2.658,0.302 -0.034,-0.369 -0.068,-0.68 -0.101,-0.932 -0.034,-0.252 -0.051,-0.463 -0.051,-0.629 0,-0.152 0.017,-0.362 0.051,-0.63 0.033,-0.269 0.067,-0.572 0.101,-0.908 H -4.535 V 0 c 0.504,-0.034 0.945,-0.067 1.323,-0.101 0.378,-0.034 0.693,-0.05 0.945,-0.05 0.235,0 0.545,0.016 0.932,0.05 C -0.949,-0.067 -0.504,-0.034 0,0"/>
          </g>
          <g transform="translate(731.1455,453.2139)" id="g763">
            <path inkscape:connector-curvature="0" id="path765" style="fill:#000000;fill-opacity:1;fill-rule:nonzero;stroke:none" d="M 0,0 -5.718,13.2 -11.336,0 Z m -3.854,19.951 15.467,-36.049 c -0.437,0.035 -0.798,0.06 -1.083,0.077 -0.286,0.016 -0.526,0.034 -0.718,0.049 -0.193,0.018 -0.483,0.026 -0.869,0.026 -0.337,0 -0.765,-0.017 -1.285,-0.05 -0.521,-0.034 -1.008,-0.067 -1.461,-0.102 -1.747,5.055 -3.552,9.7 -5.416,13.931 h -13.099 c -0.807,-2.015 -1.478,-3.711 -2.015,-5.088 -0.538,-1.378 -1.088,-2.855 -1.65,-4.433 -0.563,-1.58 -1.046,-3.049 -1.449,-4.41 -0.302,0.035 -0.559,0.06 -0.768,0.077 -0.211,0.016 -0.387,0.034 -0.529,0.049 -0.143,0.018 -0.349,0.026 -0.618,0.026 -0.285,0 -0.495,-0.008 -0.629,-0.026 -0.135,-0.015 -0.302,-0.033 -0.504,-0.049 -0.202,-0.017 -0.42,-0.042 -0.655,-0.077 l 16.097,36.049 z"/>
          </g>
          <g transform="translate(770.7275,472.4092)" id="g767">
            <path inkscape:connector-curvature="0" id="path769" style="fill:#000000;fill-opacity:1;fill-rule:nonzero;stroke:none" d="m 0,0 -11.714,-11.26 -4.383,-4.434 c 0.806,-0.924 2.255,-2.557 4.346,-4.899 2.09,-2.343 3.766,-4.229 5.025,-5.656 1.26,-1.428 2.318,-2.637 3.174,-3.628 l 4.182,-5.164 v -0.252 c -0.471,0.034 -0.861,0.06 -1.172,0.076 -0.311,0.017 -0.571,0.034 -0.781,0.05 -0.21,0.018 -0.508,0.025 -0.894,0.025 -0.336,0 -0.781,-0.016 -1.335,-0.049 -0.554,-0.035 -1.075,-0.068 -1.562,-0.102 -1.344,1.932 -2.528,3.493 -3.552,4.686 l -11.26,13.15 c -0.219,0.185 -0.453,0.277 -0.705,0.277 -0.101,0 -0.151,-0.034 -0.151,-0.101 v -18.012 c -0.372,0.034 -0.684,0.06 -0.938,0.076 -0.253,0.017 -0.464,0.034 -0.633,0.05 -0.168,0.018 -0.414,0.025 -0.734,0.025 -0.254,0 -0.6,-0.016 -1.039,-0.049 -0.439,-0.035 -0.853,-0.068 -1.241,-0.102 V 0 c 0.507,-0.034 0.95,-0.067 1.33,-0.101 0.38,-0.034 0.696,-0.05 0.95,-0.05 0.236,0 0.544,0.016 0.924,0.05 0.38,0.034 0.84,0.067 1.381,0.101 v -15.946 c 0,-0.067 0.083,-0.1 0.252,-0.1 0.285,0 0.629,0.134 1.032,0.402 0.622,0.487 1.528,1.327 2.721,2.519 L -4.081,0 c 0.436,-0.034 0.831,-0.067 1.184,-0.101 0.353,-0.034 0.647,-0.05 0.882,-0.05 0.201,0 0.47,0.016 0.806,0.05 C -0.874,-0.067 -0.47,-0.034 0,0"/>
          </g>
          <g transform="translate(778.4438,469.9404)" id="g771">
            <path inkscape:connector-curvature="0" id="path773" style="fill:#000000;fill-opacity:1;fill-rule:nonzero;stroke:none" d="m 0,0 v -12.923 h 8.011 c 0.318,0 0.78,0.021 1.385,0.063 0.605,0.042 1.121,0.08 1.549,0.113 0.428,0.034 0.979,0.067 1.651,0.101 -0.034,-0.302 -0.068,-0.562 -0.102,-0.781 -0.033,-0.218 -0.05,-0.411 -0.05,-0.579 0,-0.101 0.017,-0.277 0.05,-0.529 0.034,-0.252 0.068,-0.554 0.102,-0.907 -0.672,0.033 -1.223,0.067 -1.651,0.101 -0.428,0.033 -0.944,0.067 -1.549,0.101 -0.605,0.033 -1.067,0.05 -1.385,0.05 H 0 v -15.064 c 2.099,0 5.215,0.067 9.346,0.201 1.41,0.051 2.998,0.21 4.76,0.479 -0.016,-0.135 -0.042,-0.315 -0.075,-0.542 -0.034,-0.227 -0.054,-0.407 -0.063,-0.541 -0.008,-0.135 -0.021,-0.294 -0.037,-0.479 0,-0.235 0.02,-0.487 0.062,-0.756 0.042,-0.268 0.08,-0.529 0.113,-0.781 H -4.535 V 2.469 H 13.779 C 13.745,2.096 13.712,1.783 13.679,1.529 13.645,1.275 13.628,1.063 13.628,0.894 c 0,-0.152 0.017,-0.364 0.051,-0.635 0.033,-0.271 0.066,-0.575 0.1,-0.914 -1.276,0.252 -2.821,0.437 -4.634,0.554 L 3.98,0 Z"/>
          </g>
          <g transform="translate(698.4478,426.5254)" id="g775">
            <path inkscape:connector-curvature="0" id="path777" style="fill:#000000;fill-opacity:1;fill-rule:nonzero;stroke:none" d="m 0,0 v -15.064 c 0.905,-0.067 1.693,-0.101 2.364,-0.101 0.653,0 1.567,0.034 2.74,0.101 2.548,0.251 4.538,1.125 5.971,2.62 1.433,1.495 2.15,3.409 2.15,5.743 0,1.176 -0.205,2.246 -0.616,3.212 -0.411,0.966 -1.047,1.751 -1.911,2.355 C 9.834,-0.529 8.741,-0.168 7.417,-0.051 6.696,0.017 5.372,0.051 3.444,0.051 1.667,0.051 0.52,0.033 0,0 m 0,-17.079 v -16.198 c -0.37,0.034 -0.676,0.059 -0.919,0.076 -0.244,0.016 -0.45,0.034 -0.618,0.05 -0.168,0.017 -0.411,0.025 -0.73,0.025 -0.353,0 -0.613,-0.008 -0.781,-0.025 -0.168,-0.016 -0.382,-0.034 -0.642,-0.05 -0.261,-0.017 -0.542,-0.042 -0.844,-0.076 V 2.016 h 9.22 c 3.358,0 6.003,-0.274 7.935,-0.82 1.931,-0.546 3.312,-1.427 4.143,-2.644 0.832,-1.218 1.247,-2.885 1.247,-5.001 0,-1.562 -0.227,-2.913 -0.68,-4.056 -0.455,-1.141 -1.148,-2.133 -2.081,-2.972 -0.934,-0.84 -2.061,-1.533 -3.38,-2.079 -1.32,-0.546 -2.964,-1.019 -4.931,-1.423 -0.754,-0.167 -1.743,-0.251 -2.966,-0.251 -0.42,0.016 -0.86,0.033 -1.321,0.05 -0.461,0.017 -0.851,0.034 -1.169,0.05 -0.318,0.017 -0.57,0.029 -0.754,0.038 -0.184,0.008 -0.428,0.013 -0.729,0.013"/>
          </g>
          <g transform="translate(725.0645,428.541)" id="g779">
            <path inkscape:connector-curvature="0" id="path781" style="fill:#000000;fill-opacity:1;fill-rule:nonzero;stroke:none" d="m 0,0 v -32.723 c 2.099,0 5.214,0.067 9.346,0.202 0.554,0.016 1.305,0.075 2.254,0.176 0.949,0.101 1.835,0.201 2.658,0.302 -0.034,-0.369 -0.068,-0.68 -0.101,-0.932 -0.034,-0.252 -0.051,-0.463 -0.051,-0.629 0,-0.152 0.017,-0.362 0.051,-0.63 0.033,-0.269 0.067,-0.572 0.101,-0.908 H -4.535 V 0 c 0.504,-0.034 0.945,-0.067 1.323,-0.102 0.378,-0.033 0.693,-0.049 0.945,-0.049 0.235,0 0.545,0.016 0.932,0.049 C -0.949,-0.067 -0.504,-0.034 0,0"/>
          </g>
          <g transform="translate(757.2578,409.3457)" id="g783">
            <path inkscape:connector-curvature="0" id="path785" style="fill:#000000;fill-opacity:1;fill-rule:nonzero;stroke:none" d="M 0,0 -5.718,13.199 -11.336,0 Z m -3.854,19.951 15.467,-36.049 c -0.437,0.035 -0.798,0.06 -1.083,0.077 -0.286,0.016 -0.526,0.034 -0.718,0.049 -0.193,0.018 -0.483,0.026 -0.869,0.026 -0.337,0 -0.765,-0.017 -1.285,-0.05 -0.521,-0.034 -1.008,-0.067 -1.461,-0.102 -1.747,5.055 -3.552,9.7 -5.416,13.931 h -13.099 c -0.807,-2.015 -1.478,-3.712 -2.015,-5.088 -0.538,-1.378 -1.088,-2.855 -1.65,-4.433 -0.563,-1.58 -1.046,-3.049 -1.449,-4.41 -0.302,0.035 -0.559,0.06 -0.768,0.077 -0.211,0.016 -0.387,0.034 -0.529,0.049 -0.143,0.018 -0.349,0.026 -0.618,0.026 -0.285,0 -0.495,-0.008 -0.629,-0.026 -0.135,-0.015 -0.302,-0.033 -0.504,-0.049 -0.202,-0.017 -0.42,-0.042 -0.655,-0.077 l 16.097,36.049 z"/>
          </g>
          <g transform="translate(797.8823,398.8154)" id="g787">
            <path inkscape:connector-curvature="0" id="path789" style="fill:#000000;fill-opacity:1;fill-rule:nonzero;stroke:none" d="m 0,0 -0.277,-3.25 c -1.008,-0.688 -2.147,-1.251 -3.414,-1.687 -1.268,-0.437 -2.561,-0.755 -3.879,-0.958 -1.319,-0.201 -2.684,-0.301 -4.094,-0.301 -2.772,0 -5.291,0.424 -7.557,1.271 -2.267,0.848 -4.186,2.087 -5.757,3.716 -1.57,1.629 -2.771,3.585 -3.602,5.869 -0.831,2.284 -1.247,4.82 -1.247,7.609 0,3.76 0.848,7.019 2.545,9.773 1.696,2.754 4.026,4.85 6.99,6.285 2.964,1.436 6.269,2.154 9.913,2.154 1.174,0 2.408,-0.089 3.703,-0.267 1.293,-0.179 2.572,-0.454 3.842,-0.827 1.268,-0.374 2.447,-0.807 3.539,-1.299 C 0.268,26.98 -0.094,25.663 -0.379,24.137 L -0.73,24.058 c -0.42,0.504 -1.069,1.09 -1.942,1.762 -0.873,0.672 -2.002,1.289 -3.387,1.852 -1.386,0.562 -2.894,0.844 -4.521,0.844 -3.024,0 -5.606,-0.743 -7.746,-2.228 -2.142,-1.484 -3.751,-3.49 -4.825,-6.016 -1.075,-2.525 -1.612,-5.264 -1.612,-8.218 0,-3.222 0.579,-6.067 1.738,-8.533 1.159,-2.467 2.787,-4.368 4.886,-5.702 2.1,-1.334 4.493,-2.001 7.18,-2.001 1.713,0 3.316,0.261 4.813,0.782 1.494,0.52 2.748,1.095 3.765,1.725 C -1.365,-1.045 -0.572,-0.487 0,0"/>
          </g>
          <g transform="translate(803.0928,393.248)" id="g791">
            <path inkscape:connector-curvature="0" id="path793" style="fill:#000000;fill-opacity:1;fill-rule:nonzero;stroke:none" d="m 0,0 v 35.293 c 0.504,-0.034 0.94,-0.067 1.31,-0.102 0.369,-0.033 0.688,-0.049 0.958,-0.049 0.217,0 0.515,0.016 0.893,0.049 0.378,0.035 0.836,0.068 1.373,0.102 V 0 C 4.165,0.034 3.854,0.06 3.603,0.076 3.351,0.093 3.145,0.11 2.985,0.126 2.825,0.144 2.586,0.151 2.268,0.151 1.915,0.151 1.654,0.144 1.486,0.126 1.318,0.11 1.104,0.093 0.844,0.076 0.583,0.06 0.303,0.034 0,0"/>
          </g>
          <g transform="translate(818.085,426.4746)" id="g795">
            <path inkscape:connector-curvature="0" id="path797" style="fill:#000000;fill-opacity:1;fill-rule:nonzero;stroke:none" d="m 0,0 v -30.758 c 0.403,-0.016 1.037,-0.054 1.902,-0.113 0.865,-0.059 1.726,-0.105 2.582,-0.139 0.857,-0.033 1.545,-0.05 2.066,-0.05 3.661,0 6.515,0.512 8.564,1.537 2.62,1.327 4.514,3.266 5.681,5.819 1.167,2.553 1.751,5.551 1.751,8.993 0,2.771 -0.29,5.093 -0.869,6.965 -0.579,1.873 -1.508,3.396 -2.783,4.572 -1.277,1.176 -2.936,2.032 -4.976,2.57 C 11.878,-0.066 9.404,0.202 6.499,0.202 5.458,0.202 4.308,0.173 3.048,0.114 1.789,0.055 0.772,0.017 0,0 M -4.534,-33.075 V 2.066 H 7.18 10.731 c 2.469,0 4.593,-0.202 6.373,-0.604 1.781,-0.403 3.443,-1.234 4.989,-2.494 1.83,-1.495 3.207,-3.372 4.131,-5.63 0.923,-2.26 1.385,-4.682 1.385,-7.268 0,-2.284 -0.264,-4.367 -0.794,-6.248 -0.528,-1.881 -1.276,-3.548 -2.242,-5 -0.966,-1.453 -2.12,-2.775 -3.463,-3.968 -1.025,-0.906 -2.163,-1.632 -3.414,-2.178 -1.251,-0.546 -2.51,-0.941 -3.778,-1.184 -1.269,-0.244 -2.523,-0.399 -3.766,-0.467 -1.243,-0.066 -2.788,-0.1 -4.635,-0.1 z"/>
          </g>
          <g transform="translate(694.7446,349.9473)" id="g799">
            <path inkscape:connector-curvature="0" id="path801" style="fill:#000000;fill-opacity:1;fill-rule:nonzero;stroke:none" d="m 0,0 v 35.293 c 0.504,-0.034 0.94,-0.067 1.31,-0.102 0.369,-0.033 0.689,-0.049 0.957,-0.049 0.218,0 0.517,0.016 0.895,0.049 0.378,0.035 0.835,0.068 1.372,0.102 V 0 C 4.165,0.034 3.854,0.06 3.603,0.076 3.351,0.093 3.145,0.11 2.985,0.126 2.825,0.144 2.586,0.151 2.267,0.151 1.915,0.151 1.654,0.144 1.486,0.126 1.318,0.11 1.104,0.093 0.844,0.076 0.583,0.06 0.302,0.034 0,0"/>
          </g>
          <g transform="translate(721.9155,374.0801)" id="g803">
            <path inkscape:connector-curvature="0" id="path805" style="fill:#000000;fill-opacity:1;fill-rule:nonzero;stroke:none" d="m 0,0 c 0,1.696 -0.252,3.225 -0.756,4.585 -0.504,1.36 -1.256,2.427 -2.254,3.199 -1,0.773 -2.197,1.159 -3.59,1.159 -1.579,0 -2.889,-0.441 -3.93,-1.323 -1.041,-0.881 -1.793,-2.015 -2.255,-3.4 -0.462,-1.386 -0.692,-2.843 -0.692,-4.37 0,-2.235 0.529,-4.141 1.587,-5.719 1.058,-1.579 2.678,-2.368 4.862,-2.368 1.058,0 2.028,0.235 2.909,0.706 0.882,0.469 1.629,1.099 2.242,1.888 0.613,0.789 1.079,1.671 1.398,2.646 C -0.16,-2.023 0,-1.024 0,0 m -15.367,-21.257 0.554,0.198 c 0.689,-0.588 1.474,-1.054 2.356,-1.398 0.882,-0.345 1.767,-0.517 2.658,-0.517 1.612,0 3.165,0.668 4.66,2.006 1.494,1.337 2.67,3.166 3.527,5.488 0.604,1.58 1.032,3.152 1.284,4.716 0.252,1.565 0.378,3.246 0.378,5.046 -0.856,-1.478 -2.028,-2.629 -3.514,-3.451 -1.486,-0.823 -3.086,-1.234 -4.799,-1.234 -1.847,0 -3.51,0.403 -4.987,1.209 -1.479,0.806 -2.642,1.961 -3.489,3.464 -0.848,1.502 -1.273,3.261 -1.273,5.277 0,2.217 0.487,4.156 1.462,5.819 0.973,1.662 2.33,2.939 4.068,3.829 1.738,0.89 3.749,1.335 6.033,1.335 1.981,0 3.69,-0.403 5.126,-1.209 C 0.113,8.515 1.28,7.428 2.179,6.059 3.077,4.689 3.728,3.132 4.131,1.386 4.534,-0.361 4.736,-2.217 4.736,-4.182 4.736,-7.07 4.354,-9.77 3.589,-12.28 2.825,-14.791 1.75,-16.966 0.365,-18.805 c -1.386,-1.839 -2.99,-3.257 -4.811,-4.257 -1.823,-0.999 -3.75,-1.499 -5.782,-1.499 -0.89,0 -1.747,0.08 -2.569,0.236 -0.823,0.157 -1.319,0.302 -1.486,0.434 -0.085,0.786 -0.446,1.663 -1.084,2.634"/>
          </g>
          <g transform="translate(742.5449,383.0234)" id="g807">
            <path inkscape:connector-curvature="0" id="path809" style="fill:#000000;fill-opacity:1;fill-rule:nonzero;stroke:none" d="m 0,0 c -1.814,0 -3.233,-0.781 -4.257,-2.343 -0.504,-0.672 -0.84,-1.389 -1.008,-2.154 -0.168,-0.765 -0.252,-1.642 -0.252,-2.632 0,-1.663 0.588,-3.141 1.764,-4.434 0.873,-1.007 2.149,-1.511 3.828,-1.511 1.847,0 3.292,0.798 4.333,2.392 0.722,1.025 1.083,2.52 1.083,4.485 0,0.822 -0.117,1.616 -0.352,2.381 C 4.903,-3.053 4.555,-2.394 4.093,-1.839 3.631,-1.285 3.052,-0.84 2.355,-0.504 1.658,-0.168 0.873,0 0,0 m 0,-14.737 c -1.445,0 -2.712,-0.411 -3.804,-1.235 -1.092,-0.822 -1.906,-1.888 -2.444,-3.199 -0.537,-1.309 -0.806,-2.67 -0.806,-4.08 0,-2.469 0.593,-4.53 1.776,-6.185 1.184,-1.654 2.968,-2.481 5.353,-2.481 1.193,0 2.221,0.26 3.086,0.781 0.865,0.521 1.566,1.209 2.104,2.066 0.537,0.856 0.932,1.809 1.184,2.859 0.252,1.049 0.378,2.137 0.378,3.262 0,1.092 -0.126,2.133 -0.378,3.124 -0.252,0.99 -0.664,1.872 -1.235,2.644 -0.571,0.773 -1.28,1.373 -2.129,1.802 -0.848,0.428 -1.876,0.642 -3.085,0.642 m 3.98,1.356 v -0.358 c 0.839,-0.168 1.797,-0.509 2.872,-1.021 1.074,-0.511 2.094,-1.385 3.06,-2.618 0.966,-1.233 1.449,-2.857 1.449,-4.872 0,-2.249 -0.491,-4.221 -1.474,-5.916 -0.982,-1.696 -2.355,-3.01 -4.118,-3.94 -1.764,-0.932 -3.771,-1.398 -6.021,-1.398 -2.166,0 -4.11,0.378 -5.832,1.133 -1.721,0.755 -3.069,1.9 -4.043,3.436 -0.974,1.536 -1.461,3.419 -1.461,5.652 0,1.443 0.323,2.81 0.97,4.103 0.646,1.292 1.545,2.4 2.695,3.323 1.151,0.923 2.423,1.56 3.817,1.914 v 0.357 c -1.159,0.286 -2.398,0.975 -3.716,2.066 -1.319,1.092 -1.977,2.748 -1.977,4.965 0,1.698 0.466,3.163 1.398,4.399 0.932,1.235 2.157,2.168 3.677,2.798 1.52,0.629 3.12,0.945 4.799,0.945 1.445,0 2.7,-0.131 3.766,-0.391 1.067,-0.26 2.095,-0.769 3.086,-1.524 1.898,-1.429 2.847,-3.335 2.847,-5.721 0,-1.125 -0.256,-2.187 -0.769,-3.187 -0.512,-1 -1.209,-1.866 -2.09,-2.596 -0.882,-0.731 -1.86,-1.247 -2.935,-1.549"/>
          </g>
          <g transform="translate(791.1558,367.9463)" id="g811">
            <path inkscape:connector-curvature="0" id="path813" style="fill:#000000;fill-opacity:1;fill-rule:nonzero;stroke:none" d="m 0,0 c 0,1.628 -0.088,3.054 -0.264,4.279 -0.175,1.225 -0.507,2.442 -0.994,3.65 -0.488,1.209 -1.15,2.342 -1.99,3.398 -0.84,1.058 -1.832,1.964 -2.973,2.719 -1.142,0.755 -2.384,1.325 -3.728,1.712 -1.344,0.386 -2.688,0.578 -4.031,0.578 -2.233,0 -4.253,-0.406 -6.058,-1.221 -1.806,-0.813 -3.342,-1.988 -4.61,-3.523 -1.269,-1.536 -2.229,-3.378 -2.884,-5.526 -0.655,-2.148 -0.983,-4.498 -0.983,-7.047 0,-2.535 0.357,-4.788 1.071,-6.759 0.714,-1.972 1.721,-3.651 3.023,-5.034 1.301,-1.385 2.817,-2.421 4.546,-3.11 1.73,-0.687 3.544,-1.031 5.442,-1.031 2.451,0 4.601,0.532 6.449,1.598 1.847,1.066 3.353,2.45 4.521,4.153 1.168,1.703 2.037,3.554 2.608,5.551 C -0.285,-3.616 0,-1.745 0,0 m -14.584,-18.628 c -2.822,0 -5.408,0.433 -7.759,1.297 -2.351,0.865 -4.367,2.107 -6.046,3.728 -1.679,1.621 -2.964,3.556 -3.854,5.807 -0.89,2.25 -1.335,4.727 -1.335,7.431 0,2.754 0.487,5.281 1.461,7.583 0.973,2.3 2.334,4.257 4.081,5.869 1.746,1.612 3.765,2.842 6.058,3.69 2.292,0.848 4.79,1.273 7.494,1.273 2.502,0 4.925,-0.35 7.267,-1.046 2.344,-0.697 4.434,-1.768 6.274,-3.212 1.838,-1.444 3.298,-3.287 4.382,-5.529 1.084,-2.242 1.625,-4.858 1.625,-7.847 0,-3.745 -0.832,-7.066 -2.494,-9.963 -1.662,-2.897 -3.992,-5.135 -6.99,-6.714 -2.998,-1.578 -6.387,-2.367 -10.164,-2.367"/>
          </g>
          <g transform="translate(858.2891,154.7354)" id="g815">
            <path inkscape:connector-curvature="0" id="path817" style="fill:#0091dd;fill-opacity:1;fill-rule:nonzero;stroke:none" d="M 0,0 H -2.11 V 0.374 0.747 H 2.956 V 0.374 0 H 0.846 V -5.495 H 0.425 0 Z"/>
          </g>
          <g transform="translate(862.5986,149.2402)" id="g819">
            <path inkscape:connector-curvature="0" id="path821" style="fill:#0091dd;fill-opacity:1;fill-rule:nonzero;stroke:none" d="M 0,0 H -0.408 -0.82 v 6.242 h 0.607 0.608 L 2.18,0.93 3.949,6.242 H 4.557 5.163 V 0 H 4.756 4.344 V 5.283 H 4.341 L 2.581,0 H 2.174 1.767 L 0.001,5.266 H 0 Z"/>
          </g>
          <path inkscape:connector-curvature="0" id="path823" style="fill:#000000;fill-opacity:1;fill-rule:nonzero;stroke:none" d="M 513.263,120.553 H 890.268 V 633.621 H 513.263 Z M 895.94,114.881 H 507.591 V 639.293 H 895.94 Z"/>
        </g>
      </g>
    </g>
  </g>
</svg>