<?xml version="1.0" encoding="UTF-8" standalone="no"?>
<!-- Created with Inkscape (http://www.inkscape.org/) -->
<svg xmlns:dc="http://purl.org/dc/elements/1.1/" xmlns:cc="http://creativecommons.org/ns#" xmlns:rdf="http://www.w3.org/1999/02/22-rdf-syntax-ns#" xmlns:svg="http://www.w3.org/2000/svg" xmlns="http://www.w3.org/2000/svg" xmlns:sodipodi="http://sodipodi.sourceforge.net/DTD/sodipodi-0.dtd" xmlns:inkscape="http://www.inkscape.org/namespaces/inkscape" width="42.240013mm" height="76.729164mm" viewBox="0 0 42.240013 76.729164" version="1.1" id="svg8" inkscape:version="0.92.4 (5da689c313, 2019-01-14)" sodipodi:docname="1984_Winter_Olympics_logo.svg">
  <defs id="defs2">
    <style id="style70">.cls-1{fill:#c12a21;}.cls-2{fill:#1e1712;}</style>
    <style id="style272">.cls-1{fill:#6dac3b;}.cls-2{fill:#dd463c;}.cls-3{fill:#f3cc23;}.cls-4{fill:#0090da;}.cls-5{fill:#1e1712;}.cls-6{fill:#001388;}.cls-7{fill:#fff;}</style>
    <clipPath id="clipPath580" clipPathUnits="userSpaceOnUse">
      <path inkscape:connector-curvature="0" id="path578" d="M 0,896.65 H 1668.95 V 0 H 0 Z"/>
    </clipPath>
    <clipPath id="clipPath609" clipPathUnits="userSpaceOnUse">
      <path inkscape:connector-curvature="0" id="path607" d="M 0,896.65 H 1668.95 V 0 H 0 Z"/>
    </clipPath>
    <clipPath id="clipPath621" clipPathUnits="userSpaceOnUse">
      <path inkscape:connector-curvature="0" id="path619" d="M 0,896.65 H 1668.95 V 0 H 0 Z"/>
    </clipPath>
    <clipPath id="clipPath953" clipPathUnits="userSpaceOnUse">
      <path inkscape:connector-curvature="0" id="path951" d="M 0,1829.696 H 1668.95 V 0 H 0 Z"/>
    </clipPath>
    <clipPath id="clipPath965" clipPathUnits="userSpaceOnUse">
      <path inkscape:connector-curvature="0" id="path963" d="M 0,1829.696 H 1668.95 V 0 H 0 Z"/>
    </clipPath>
  </defs>
  <sodipodi:namedview id="base" pagecolor="#ffffff" bordercolor="#666666" borderopacity="1.0" inkscape:pageopacity="0.0" inkscape:pageshadow="2" inkscape:zoom="1.8101934" inkscape:cx="104.04893" inkscape:cy="156.8264" inkscape:document-units="mm" inkscape:current-layer="g945" showgrid="false" fit-margin-top="0" fit-margin-left="0" fit-margin-right="0" fit-margin-bottom="0" inkscape:window-width="1920" inkscape:window-height="1001" inkscape:window-x="-9" inkscape:window-y="-9" inkscape:window-maximized="1"/>
  <metadata id="metadata5">
    <rdf:RDF>
      <cc:Work rdf:about="">
        <dc:format>image/svg+xml</dc:format>
        <dc:type rdf:resource="http://purl.org/dc/dcmitype/StillImage"/>
        <dc:title/>
      </cc:Work>
    </rdf:RDF>
  </metadata>
  <g inkscape:label="Capa 1" inkscape:groupmode="layer" id="layer1" transform="translate(-78.149271,-159.68057)">
    <g transform="matrix(0.35277777,0,0,-0.35277777,-85.311076,332.70669)" inkscape:label="Lake Placid" id="g601">
      <g transform="matrix(0.78202721,0,0,0.78202721,569.68667,-458.01659)" inkscape:label="Sarajevo LOGO" id="g945">
        <g id="g959" transform="matrix(0.26458333,0,0,0.26458333,-223.91324,801.23983)">
          <g clip-path="url(#clipPath965)" id="g961">
            <g transform="translate(348.4785,1467.87)" id="g967">
              <path inkscape:connector-curvature="0" id="path969" style="fill:#ff6d0f;fill-opacity:1;fill-rule:nonzero;stroke:none" d="m 0,0 c 1.208,43.04 37.078,76.951 80.117,75.744 43.04,-1.208 76.951,-37.078 75.744,-80.118 -36.558,-8.209 -64.208,-38.204 -69.42,-75.308 -3.552,-0.39 -7.126,-0.535 -10.698,-0.435 C 32.704,-78.909 -1.208,-43.04 0,0 m 99.074,-77.226 c 5.65,28.86 27.059,52.086 55.365,60.061 -5.65,-28.86 -27.059,-52.085 -55.365,-60.061 m 85.019,62.518 c 5.212,-37.105 32.862,-67.1 69.42,-75.309 0.041,-1.458 0.041,-2.916 0,-4.374 -1.208,-43.04 -37.077,-76.951 -80.117,-75.743 -43.04,1.208 -76.952,37.077 -75.744,80.117 36.558,8.209 64.208,38.204 69.42,75.309 5.657,0.621 11.365,0.621 17.021,0 m 67.998,-62.518 c -28.306,7.976 -49.715,31.201 -55.365,60.061 28.306,-7.975 49.715,-31.201 55.365,-60.061 M 195.305,0 c 1.207,43.04 37.077,76.951 80.117,75.744 43.039,-1.208 76.951,-37.078 75.743,-80.118 -36.558,-8.209 -64.208,-38.204 -69.42,-75.308 -5.656,-0.621 -11.364,-0.621 -17.021,0 -5.212,37.104 -32.862,67.099 -69.419,75.308 -0.041,1.458 -0.041,2.916 0,4.374 m 99.073,-77.226 c 5.65,28.86 27.059,52.086 55.366,60.061 -5.65,-28.86 -27.059,-52.085 -55.366,-60.061 m 85.019,62.518 c 5.212,-37.105 32.863,-67.1 69.42,-75.309 0.041,-1.458 0.041,-2.916 0,-4.374 -1.208,-43.04 -37.077,-76.951 -80.117,-75.743 -43.04,1.208 -76.951,37.077 -75.743,80.117 36.558,8.209 64.208,38.204 69.419,75.309 5.657,0.621 11.365,0.621 17.021,0 m 67.999,-62.518 c -28.306,7.976 -49.716,31.201 -55.366,60.061 28.306,-7.975 49.716,-31.201 55.366,-60.061 m -56.352,83.55 c 4.7,42.799 43.206,73.684 86.006,68.984 42.8,-4.7 73.684,-43.206 68.984,-86.005 -4.7,-42.8 -43.206,-73.685 -86.005,-68.985 -5.212,37.104 -32.862,67.099 -69.42,75.308 -0.1,3.572 0.045,7.146 0.435,10.698 M 77.606,-92.203 c 2.657,-0.01 5.313,0.099 7.96,0.324 -0.179,-49.715 39.977,-90.162 89.692,-90.341 49.715,-0.179 90.162,39.977 90.341,89.692 0.001,0.216 0.001,0.432 0,0.649 5.081,-0.433 10.191,-0.433 15.272,0 -0.18,-49.715 39.977,-90.162 89.691,-90.341 49.715,-0.179 90.162,39.977 90.341,89.692 10e-4,0.216 10e-4,0.432 0,0.649 49.536,-4.218 93.112,32.521 97.328,82.056 4.218,49.536 -32.52,93.111 -82.056,97.328 -49.535,4.218 -93.111,-32.52 -97.328,-82.056 -0.225,-2.647 -0.334,-5.303 -0.324,-7.96 -5.082,0.432 -10.19,0.432 -15.272,0 0.179,49.714 -39.977,90.161 -89.691,90.341 -49.715,0.179 -90.163,-39.978 -90.341,-89.692 -0.001,-0.217 -0.001,-0.433 0,-0.649 -5.082,0.432 -10.191,0.432 -15.272,0 C 168.126,47.203 127.969,87.65 78.255,87.83 28.54,88.009 -11.907,47.852 -12.086,-1.862 -12.265,-51.577 27.891,-92.024 77.606,-92.203"/>
            </g>
            <g transform="translate(457.7539,1217.1674)" id="g971">
              <path inkscape:connector-curvature="0" id="path973" style="fill:#ff6d0f;fill-opacity:1;fill-rule:nonzero;stroke:none" d="m 0,0 v -81.837 l 81.152,-81.153 h 165.615 l 81.152,81.153 V 0 L 222.797,-105.122 H 105.122 Z"/>
            </g>
            <path inkscape:connector-curvature="0" id="path975" style="fill:#ff6d0f;fill-opacity:1;fill-rule:nonzero;stroke:none" d="m 563.845,1131.335 h 115.736 v 115.736 H 563.845 Z"/>
            <g transform="translate(538.9062,861.2841)" id="g977">
              <path inkscape:connector-curvature="0" id="path979" style="fill:#ff6d0f;fill-opacity:1;fill-rule:nonzero;stroke:none" d="M 0,0 -81.152,-81.152 V -162.99 L 23.97,-57.868 H 141.645 L 246.767,-162.99 v 81.838 L 165.614,0 Z"/>
            </g>
            <path inkscape:connector-curvature="0" id="path981" style="fill:#ff6d0f;fill-opacity:1;fill-rule:nonzero;stroke:none" d="M 563.845,668.391 H 679.581 V 784.127 H 563.845 Z"/>
            <g transform="translate(776.0278,1016.5682)" id="g983">
              <path inkscape:connector-curvature="0" id="path985" style="fill:#ff6d0f;fill-opacity:1;fill-rule:nonzero;stroke:none" d="M 0,0 105.122,105.122 H 23.285 L -57.868,23.97 v -165.615 l 81.153,-81.151 h 81.837 L 0,-117.675 Z"/>
            </g>
            <path inkscape:connector-curvature="0" id="path987" style="fill:#ff6d0f;fill-opacity:1;fill-rule:nonzero;stroke:none" d="m 795.317,899.863 h 115.736 v 115.736 H 795.317 Z"/>
            <g transform="translate(525.2666,1040.538)" id="g989">
              <path inkscape:connector-curvature="0" id="path991" style="fill:#ff6d0f;fill-opacity:1;fill-rule:nonzero;stroke:none" d="M 0,0 -81.152,81.152 H -162.99 L -57.868,-23.97 V -141.645 L -162.99,-246.766 h 81.838 L 0,-165.614 Z"/>
            </g>
            <path inkscape:connector-curvature="0" id="path993" style="fill:#ff6d0f;fill-opacity:1;fill-rule:nonzero;stroke:none" d="M 448.109,1015.599 H 332.373 V 899.863 h 115.736 z"/>
            <path inkscape:connector-curvature="0" id="path995" style="fill:#ff6d0f;fill-opacity:1;fill-rule:nonzero;stroke:none" d="M 907.51,624.688 H 335.917 v 9.138 H 907.51 Z"/>
            <g transform="translate(385.291,574.3978)" id="g997">
              <path inkscape:connector-curvature="0" id="path999" style="fill:#ff6d0f;fill-opacity:1;fill-rule:nonzero;stroke:none" d="m 0,0 c -0.584,5.678 -2.602,9.792 -6.054,12.337 -3.452,2.545 -7.868,3.814 -13.247,3.814 -2.18,0 -4.326,-0.219 -6.433,-0.658 -2.11,-0.441 -3.98,-1.176 -5.615,-2.203 -1.635,-1.026 -2.944,-2.402 -3.924,-4.127 -0.984,-1.724 -1.472,-3.87 -1.472,-6.435 0,-2.422 0.707,-4.386 2.126,-5.891 1.416,-1.502 3.307,-2.732 5.669,-3.686 2.362,-0.957 5.033,-1.744 8.014,-2.369 2.98,-0.621 6.034,-1.299 9.157,-2.023 3.127,-0.728 6.18,-1.585 9.161,-2.565 2.98,-0.984 5.632,-2.313 7.961,-3.984 2.323,-1.675 4.197,-3.805 5.615,-6.386 1.416,-2.582 2.124,-5.765 2.124,-9.55 0,-4.146 -0.924,-7.695 -2.778,-10.642 -1.854,-2.944 -4.237,-5.346 -7.144,-7.2 -2.907,-1.858 -6.16,-3.22 -9.759,-4.094 -3.598,-0.874 -7.18,-1.309 -10.738,-1.309 -4.363,0 -8.49,0.545 -12.377,1.635 -3.888,1.093 -7.304,2.765 -10.247,5.021 -2.945,2.255 -5.274,5.11 -6.981,8.569 -1.708,3.455 -2.562,7.545 -2.562,12.277 h 9.815 c 0,-3.313 0.634,-6.164 1.907,-8.556 1.269,-2.392 2.944,-4.363 5.014,-5.908 2.073,-1.545 4.472,-2.688 7.197,-3.422 2.728,-0.738 5.579,-1.103 8.559,-1.103 2.326,0 4.672,0.219 7.034,0.657 2.363,0.443 4.486,1.194 6.38,2.257 1.887,1.063 3.415,2.508 4.578,4.343 1.163,1.834 1.745,4.18 1.745,7.04 0,2.712 -0.708,4.911 -2.127,6.596 -1.418,1.688 -3.289,3.06 -5.615,4.127 -2.326,1.063 -4.981,1.943 -7.961,2.637 -2.98,0.696 -6.034,1.373 -9.158,2.028 -3.126,0.654 -6.18,1.435 -9.16,2.345 -2.98,0.91 -5.652,2.13 -8.015,3.658 -2.362,1.529 -4.249,3.457 -5.668,5.786 -1.418,2.325 -2.126,5.272 -2.126,8.838 0,3.93 0.8,7.33 2.398,10.207 1.599,2.874 3.725,5.237 6.38,7.094 2.652,1.854 5.669,3.237 9.051,4.147 3.379,0.91 6.848,1.365 10.41,1.365 3.997,0 7.705,-0.475 11.124,-1.419 C -4.326,22.302 -1.349,20.81 1.2,18.772 3.742,16.736 5.778,14.171 7.303,11.077 8.832,7.984 9.666,4.293 9.812,0 Z"/>
            </g>
            <g transform="translate(443.624,548.4203)" id="g1001">
              <path inkscape:connector-curvature="0" id="path1003" style="fill:#ff6d0f;fill-opacity:1;fill-rule:nonzero;stroke:none" d="m 0,0 c -0.877,-0.654 -1.974,-1.162 -3.29,-1.528 -1.315,-0.362 -2.704,-0.671 -4.163,-0.927 -1.465,-0.256 -3.017,-0.472 -4.658,-0.654 -1.645,-0.183 -3.233,-0.419 -4.768,-0.708 -1.535,-0.292 -2.997,-0.655 -4.386,-1.093 -1.389,-0.436 -2.595,-1.037 -3.615,-1.801 -1.023,-0.765 -1.848,-1.728 -2.466,-2.892 -0.624,-1.166 -0.933,-2.621 -0.933,-4.365 0,-1.528 0.309,-2.821 0.933,-3.875 0.618,-1.055 1.423,-1.91 2.409,-2.564 0.987,-0.655 2.14,-1.13 3.453,-1.419 1.316,-0.292 2.704,-0.439 4.166,-0.439 3.067,0 5.699,0.419 7.892,1.256 2.189,0.837 3.98,1.891 5.369,3.166 1.389,1.274 2.412,2.655 3.07,4.148 0.658,1.491 0.987,2.89 0.987,4.203 z m 15.125,-28.92 c -1.685,-1.02 -3.911,-1.528 -6.688,-1.528 -2.41,0 -4.327,0.69 -5.752,2.073 -1.426,1.382 -2.14,3.602 -2.14,6.658 -2.559,-3.056 -5.532,-5.276 -8.931,-6.658 -3.396,-1.383 -7.068,-2.073 -11.015,-2.073 -2.558,0 -4.987,0.292 -7.286,0.874 -2.303,0.581 -4.297,1.508 -5.975,2.78 -1.681,1.273 -3.013,2.911 -4,4.911 -0.987,2 -1.482,4.423 -1.482,7.26 0,3.2 0.548,5.818 1.644,7.858 1.097,2.037 2.539,3.672 4.33,4.911 1.791,1.237 3.837,2.2 6.137,2.891 2.303,0.692 4.658,1.256 7.071,1.694 2.558,0.505 4.987,0.888 7.29,1.144 2.299,0.256 4.326,0.618 6.08,1.093 1.755,0.471 3.143,1.163 4.167,2.073 1.02,0.91 1.535,2.236 1.535,3.984 0,2.037 -0.386,3.671 -1.153,4.911 -0.768,1.236 -1.755,2.183 -2.957,2.837 -1.207,0.655 -2.559,1.094 -4.058,1.31 -1.498,0.219 -2.977,0.329 -4.439,0.329 -3.943,0 -7.233,-0.748 -9.864,-2.24 -2.629,-1.491 -4.054,-4.31 -4.273,-8.456 h -9.317 c 0.146,3.492 0.877,6.439 2.193,8.839 1.316,2.402 3.07,4.348 5.259,5.841 2.193,1.488 4.715,2.565 7.563,3.219 2.851,0.655 5.845,0.981 8.988,0.981 2.558,0 5.097,-0.183 7.618,-0.545 2.519,-0.366 4.802,-1.111 6.849,-2.237 2.046,-1.129 3.688,-2.71 4.934,-4.748 1.239,-2.037 1.86,-4.695 1.86,-7.967 v -29.031 c 0,-2.183 0.127,-3.784 0.386,-4.804 0.256,-1.021 1.113,-1.529 2.575,-1.529 0.877,0 1.824,0.183 2.851,0.548 z"/>
            </g>
            <g transform="translate(468.2583,575.7064)" id="g1005">
              <path inkscape:connector-curvature="0" id="path1007" style="fill:#ff6d0f;fill-opacity:1;fill-rule:nonzero;stroke:none" d="M 0,0 H 8.499 V -8.126 L 8.711,-8.14 c 4.496,8.299 13.563,9.45 20.186,9.45 v -8.611 c -3.612,0 -6.808,-0.356 -9.358,-1.376 -2.548,-1.02 -4.422,-2.228 -6.058,-4.17 -1.615,-1.918 -2.852,-4.459 -3.558,-7.297 C 9.213,-22.981 9.03,-27.758 9.03,-31.322 V -56.426 H 0 Z"/>
            </g>
            <g transform="translate(538.0581,548.4203)" id="g1009">
              <path inkscape:connector-curvature="0" id="path1011" style="fill:#ff6d0f;fill-opacity:1;fill-rule:nonzero;stroke:none" d="m 0,0 c -0.877,-0.654 -1.974,-1.162 -3.29,-1.528 -1.315,-0.362 -2.704,-0.671 -4.163,-0.927 -1.465,-0.256 -3.017,-0.472 -4.658,-0.654 -1.645,-0.183 -3.233,-0.419 -4.768,-0.708 -1.536,-0.292 -2.997,-0.655 -4.386,-1.093 -1.389,-0.436 -2.595,-1.037 -3.615,-1.801 -1.024,-0.765 -1.848,-1.728 -2.466,-2.892 -0.625,-1.166 -0.933,-2.621 -0.933,-4.365 0,-1.528 0.308,-2.821 0.933,-3.875 0.618,-1.055 1.422,-1.91 2.409,-2.564 0.987,-0.655 2.14,-1.13 3.452,-1.419 1.316,-0.292 2.705,-0.439 4.167,-0.439 3.067,0 5.698,0.419 7.891,1.256 2.19,0.837 3.981,1.891 5.37,3.166 1.389,1.274 2.412,2.655 3.07,4.148 0.658,1.491 0.987,2.89 0.987,4.203 z m 15.125,-28.92 c -1.685,-1.02 -3.911,-1.528 -6.689,-1.528 -2.409,0 -4.326,0.69 -5.751,2.073 -1.426,1.382 -2.14,3.602 -2.14,6.658 -2.559,-3.056 -5.533,-5.276 -8.932,-6.658 -3.395,-1.383 -7.067,-2.073 -11.014,-2.073 -2.559,0 -4.988,0.292 -7.287,0.874 -2.303,0.581 -4.296,1.508 -5.974,2.78 -1.681,1.273 -3.014,2.911 -4.001,4.911 -0.986,2 -1.482,4.423 -1.482,7.26 0,3.2 0.549,5.818 1.645,7.858 1.097,2.037 2.539,3.672 4.33,4.911 1.791,1.237 3.837,2.2 6.137,2.891 2.302,0.692 4.658,1.256 7.07,1.694 2.559,0.505 4.987,0.888 7.29,1.144 2.299,0.256 4.326,0.618 6.081,1.093 1.754,0.471 3.143,1.163 4.166,2.073 1.02,0.91 1.535,2.236 1.535,3.984 0,2.037 -0.385,3.671 -1.152,4.911 -0.768,1.236 -1.755,2.183 -2.958,2.837 -1.206,0.655 -2.558,1.094 -4.057,1.31 -1.498,0.219 -2.977,0.329 -4.439,0.329 -3.944,0 -7.233,-0.748 -9.865,-2.24 -2.628,-1.491 -4.054,-4.31 -4.273,-8.456 h -9.317 c 0.147,3.492 0.878,6.439 2.193,8.839 1.316,2.402 3.071,4.348 5.26,5.841 2.193,1.488 4.715,2.565 7.562,3.219 2.852,0.655 5.845,0.981 8.988,0.981 2.559,0 5.097,-0.183 7.619,-0.545 2.519,-0.366 4.802,-1.111 6.849,-2.237 2.046,-1.129 3.688,-2.71 4.934,-4.748 1.239,-2.037 1.86,-4.695 1.86,-7.967 v -29.031 c 0,-2.183 0.126,-3.784 0.386,-4.804 0.256,-1.021 1.113,-1.529 2.575,-1.529 0.877,0 1.824,0.183 2.851,0.548 z"/>
            </g>
            <path inkscape:connector-curvature="0" id="path1013" style="fill:#ff6d0f;fill-opacity:1;fill-rule:nonzero;stroke:none" d="m 574.864,585.912 h -9.606 v 11.35 h 9.606 z m 0,-66.975 c 0,-5.021 -1.262,-8.676 -3.784,-10.968 -2.525,-2.293 -5.934,-3.439 -10.227,-3.439 -0.831,0 -1.659,0.037 -2.486,0.109 -0.83,0.073 -1.655,0.184 -2.485,0.329 v 7.965 c 0.678,-0.143 1.319,-0.216 1.92,-0.216 h 2.034 c 2.11,0 3.539,0.565 4.292,1.692 0.755,1.128 1.13,3.146 1.13,6.056 v 55.296 h 9.606 z"/>
            <g transform="translate(626.3027,552.8969)" id="g1015">
              <path inkscape:connector-curvature="0" id="path1017" style="fill:#ff6d0f;fill-opacity:1;fill-rule:nonzero;stroke:none" d="m 0,0 c -0.146,2.183 -0.63,4.256 -1.457,6.22 -0.823,1.967 -1.938,3.658 -3.338,5.077 -1.399,1.419 -3.068,2.545 -5.007,3.382 -1.938,0.838 -4.021,1.257 -6.244,1.257 -2.37,0 -4.507,-0.419 -6.41,-1.257 -1.903,-0.837 -3.538,-1.984 -4.899,-3.439 -1.365,-1.455 -2.442,-3.146 -3.23,-5.074 -0.792,-1.93 -1.258,-3.983 -1.4,-6.166 z m 8.829,-15.717 c -1.223,-6.26 -3.914,-11.024 -8.076,-14.298 -4.167,-3.272 -9.408,-4.91 -15.723,-4.91 -4.452,0 -8.313,0.747 -11.578,2.237 -3.268,1.491 -6.014,3.547 -8.237,6.166 -2.226,2.619 -3.895,5.749 -5.009,9.386 -1.112,3.639 -1.742,7.603 -1.885,11.896 0,4.219 0.646,8.134 1.938,11.732 1.292,3.602 3.107,6.715 5.441,9.333 2.331,2.618 5.095,4.655 8.291,6.111 3.195,1.456 6.694,2.183 10.501,2.183 4.953,0 9.06,-1.037 12.328,-3.11 C 0.088,18.936 2.708,16.297 4.684,13.098 6.656,9.895 8.021,6.402 8.775,2.618 9.529,-1.163 9.833,-4.766 9.69,-8.188 h -41.675 c -0.073,-2.471 0.215,-4.818 0.861,-7.037 0.646,-2.219 1.685,-4.186 3.123,-5.894 1.434,-1.711 3.265,-3.073 5.491,-4.094 2.226,-1.02 4.848,-1.528 7.863,-1.528 3.804,0 6.961,0.91 9.475,2.731 2.515,1.818 4.165,4.582 4.957,8.293 z"/>
            </g>
            <g transform="translate(670.2759,519.2806)" id="g1019">
              <path inkscape:connector-curvature="0" id="path1021" style="fill:#ff6d0f;fill-opacity:1;fill-rule:nonzero;stroke:none" d="M 0,0 H -9.496 L -29.751,56.426 H -19.73 L -4.49,9.387 h 0.211 l 14.722,47.039 h 9.496 z"/>
            </g>
            <g transform="translate(703.7974,538.3265)" id="g1023">
              <path inkscape:connector-curvature="0" id="path1025" style="fill:#ff6d0f;fill-opacity:1;fill-rule:nonzero;stroke:none" d="m 0,0 c 0.859,-2.658 2.047,-4.874 3.562,-6.659 1.512,-1.784 3.285,-3.147 5.316,-4.093 2.032,-0.944 4.184,-1.419 6.455,-1.419 2.271,0 4.421,0.475 6.452,1.419 2.031,0.946 3.801,2.309 5.317,4.093 1.515,1.785 2.702,4.001 3.564,6.659 0.859,2.654 1.291,5.691 1.291,9.114 0,3.419 -0.432,6.456 -1.291,9.111 -0.862,2.658 -2.049,4.894 -3.564,6.714 -1.516,1.819 -3.286,3.201 -5.317,4.148 -2.031,0.943 -4.181,1.419 -6.452,1.419 -2.271,0 -4.423,-0.476 -6.455,-1.419 C 6.847,28.14 5.074,26.758 3.562,24.939 2.047,23.119 0.859,20.883 0,18.225 -0.862,15.57 -1.29,12.533 -1.29,9.114 -1.29,5.691 -0.862,2.654 0,0 m -8.933,20.736 c 1.103,3.603 2.754,6.729 4.959,9.387 2.201,2.655 4.903,4.748 8.103,6.276 3.201,1.526 6.935,2.29 11.204,2.29 4.196,0 7.913,-0.764 11.149,-2.29 3.237,-1.528 5.955,-3.621 8.159,-6.276 2.201,-2.658 3.853,-5.784 4.955,-9.387 1.099,-3.601 1.652,-7.475 1.652,-11.622 0,-4.15 -0.553,-8.005 -1.652,-11.569 -1.102,-3.566 -2.754,-6.679 -4.955,-9.334 -2.204,-2.654 -4.922,-4.748 -8.159,-6.273 -3.236,-1.529 -6.953,-2.292 -11.149,-2.292 -4.269,0 -8.003,0.763 -11.204,2.292 -3.2,1.525 -5.902,3.619 -8.103,6.273 -2.205,2.655 -3.856,5.768 -4.959,9.334 -1.102,3.564 -1.651,7.419 -1.651,11.569 0,4.147 0.549,8.021 1.651,11.622"/>
            </g>
            <g transform="translate(779.124,598.5482)" id="g1027">
              <path inkscape:connector-curvature="0" id="path1029" style="fill:#ff6d0f;fill-opacity:1;fill-rule:nonzero;stroke:none" d="M 0,0 H 10.478 L 1.308,-11.682 H -5.925 Z"/>
            </g>
            <g transform="translate(803.1318,571.1927)" id="g1031">
              <path inkscape:connector-curvature="0" id="path1033" style="fill:#ff6d0f;fill-opacity:1;fill-rule:nonzero;stroke:none" d="m 0,0 c 0.802,-1.593 1.891,-2.905 3.261,-3.943 1.366,-1.039 2.976,-1.817 4.83,-2.334 1.85,-0.518 3.823,-0.779 5.916,-0.779 4.107,0 7.489,1.114 10.148,3.335 2.656,2.223 3.985,5.331 3.985,9.333 0,4.001 -1.35,7.019 -4.046,9.055 -2.699,2.037 -6.143,3.055 -10.327,3.055 -2.094,0 -4.045,-0.261 -5.859,-0.779 C 6.099,16.427 4.529,15.648 3.2,14.613 1.871,13.575 0.802,12.316 0,10.835 -0.809,9.354 -1.211,7.611 -1.211,5.612 -1.211,3.464 -0.809,1.594 0,0 m 0.553,-40.871 c 3.516,-2.776 8.002,-4.166 13.461,-4.166 2.648,0 5.066,0.399 7.258,1.198 2.193,0.8 4.097,1.901 5.709,3.312 1.613,1.407 2.853,3.061 3.722,4.965 0.869,1.901 1.303,3.993 1.303,6.276 0,2.206 -0.476,4.243 -1.428,6.108 -0.952,1.863 -2.255,3.483 -3.906,4.851 -1.657,1.369 -3.579,2.454 -5.771,3.253 -2.193,0.799 -4.528,1.198 -7.009,1.198 -2.647,0 -5.087,-0.361 -7.321,-1.084 -2.235,-0.726 -4.197,-1.769 -5.893,-3.141 -1.696,-1.369 -3.02,-3.005 -3.972,-4.906 -0.949,-1.904 -1.425,-4.034 -1.425,-6.39 0,-4.872 1.755,-8.698 5.272,-11.474 M -9.61,14.173 c 1.342,2.438 3.163,4.492 5.456,6.167 2.296,1.675 4.924,2.947 7.891,3.821 2.967,0.874 6.067,1.309 9.314,1.309 4.585,0 8.499,-0.565 11.745,-1.692 3.243,-1.129 5.871,-2.621 7.889,-4.475 2.016,-1.854 3.502,-3.967 4.449,-6.329 0.95,-2.367 1.425,-4.786 1.425,-7.257 0,-3.496 -1.07,-6.679 -3.204,-9.553 -2.135,-2.874 -4.943,-5.037 -8.425,-6.492 5.063,-1.456 8.818,-3.838 11.273,-7.151 2.449,-3.309 3.675,-7.367 3.675,-12.167 0,-3.712 -0.731,-7.042 -2.192,-9.989 -1.466,-2.947 -3.443,-5.419 -5.932,-7.419 -2.492,-2.004 -5.439,-3.532 -8.841,-4.586 -3.399,-1.052 -7.041,-1.581 -10.915,-1.581 -4.034,0 -7.789,0.492 -11.271,1.472 -3.479,0.983 -6.506,2.455 -9.074,4.423 -2.572,1.963 -4.589,4.419 -6.051,7.366 -1.465,2.947 -2.196,6.383 -2.196,10.314 0,4.584 1.266,8.565 3.798,11.951 2.528,3.382 6.17,5.838 10.915,7.367 -3.559,1.308 -6.406,3.438 -8.543,6.386 -2.136,2.944 -3.203,6.163 -3.203,9.659 0,3.199 0.671,6.017 2.017,8.456"/>
            </g>
            <g transform="translate(887.3477,545.5834)" id="g1035">
              <path inkscape:connector-curvature="0" id="path1037" style="fill:#ff6d0f;fill-opacity:1;fill-rule:nonzero;stroke:none" d="M 0,0 H -24.124 L 0,35.371 Z M 8.758,0 V 51.079 H 1.313 L -34.039,0.764 V -8.184 H 0 V -26.303 H 8.758 V -8.184 H 20.26 L 20.292,0 Z"/>
            </g>
            <g transform="translate(896.8975,673.9056)" id="g1039">
              <path inkscape:connector-curvature="0" id="path1041" style="fill:#ff6d0f;fill-opacity:1;fill-rule:nonzero;stroke:none" d="m 0,0 c -6.339,0 -11.477,5.139 -11.477,11.478 0,6.337 5.138,11.476 11.477,11.476 6.338,0 11.477,-5.139 11.477,-11.476 C 11.477,5.139 6.338,0 0,0 m 0,25.559 c -7.777,0 -14.081,-6.305 -14.081,-14.081 0,-7.778 6.304,-14.082 14.081,-14.082 7.776,0 14.081,6.304 14.081,14.082 0,7.776 -6.305,14.081 -14.081,14.081"/>
            </g>
            <g transform="translate(902.1221,688.7513)" id="g1043">
              <path inkscape:connector-curvature="0" id="path1045" style="fill:#ff6d0f;fill-opacity:1;fill-rule:nonzero;stroke:none" d="m 0,0 c -0.133,0.601 -0.349,1.127 -0.647,1.577 -0.299,0.451 -0.668,0.826 -1.109,1.128 -0.44,0.3 -0.934,0.525 -1.482,0.676 -0.548,0.15 -1.129,0.225 -1.744,0.225 -1.063,0 -1.972,-0.19 -2.727,-0.57 -0.757,-0.379 -1.379,-0.889 -1.869,-1.529 -0.49,-0.641 -0.852,-1.372 -1.084,-2.195 -0.233,-0.823 -0.348,-1.676 -0.348,-2.562 0,-0.965 0.115,-1.879 0.348,-2.74 0.232,-0.863 0.594,-1.614 1.084,-2.254 0.49,-0.641 1.117,-1.152 1.881,-1.53 0.763,-0.38 1.677,-0.571 2.74,-0.571 0.78,0 1.474,0.123 2.08,0.369 0.606,0.245 1.129,0.584 1.569,1.02 0.44,0.435 0.786,0.953 1.035,1.555 0.249,0.599 0.398,1.248 0.448,1.944 h 2.366 c -0.232,-2.119 -1.009,-3.78 -2.329,-4.981 -1.32,-1.203 -3.109,-1.803 -5.368,-1.803 -1.379,0 -2.583,0.228 -3.613,0.687 -1.029,0.458 -1.884,1.083 -2.565,1.874 -0.682,0.791 -1.192,1.724 -1.532,2.8 -0.34,1.075 -0.511,2.231 -0.511,3.464 0,1.233 0.183,2.392 0.548,3.476 0.365,1.083 0.901,2.028 1.606,2.835 0.706,0.806 1.583,1.442 2.629,1.91 1.046,0.466 2.258,0.7 3.637,0.7 0.93,0 1.811,-0.119 2.641,-0.357 C -1.486,4.911 -0.747,4.562 -0.1,4.104 0.549,3.646 1.088,3.072 1.52,2.385 1.952,1.696 2.233,0.901 2.367,0 Z"/>
            </g>
          </g>
        </g>
      </g>
    </g>
  </g>
</svg>