<?xml version="1.0" encoding="UTF-8" standalone="no"?>
<!-- Created with Inkscape (http://www.inkscape.org/) -->
<svg xmlns:dc="http://purl.org/dc/elements/1.1/" xmlns:cc="http://creativecommons.org/ns#" xmlns:rdf="http://www.w3.org/1999/02/22-rdf-syntax-ns#" xmlns:svg="http://www.w3.org/2000/svg" xmlns="http://www.w3.org/2000/svg" xmlns:sodipodi="http://sodipodi.sourceforge.net/DTD/sodipodi-0.dtd" xmlns:inkscape="http://www.inkscape.org/namespaces/inkscape" width="42.017391mm" height="76.729164mm" viewBox="0 0 42.017391 76.729164" version="1.1" id="svg8" inkscape:version="0.92.4 (5da689c313, 2019-01-14)" sodipodi:docname="1988_Winter_Olympics_logo.svg">
  <defs id="defs2">
    <style id="style70">.cls-1{fill:#c12a21;}.cls-2{fill:#1e1712;}</style>
    <style id="style272">.cls-1{fill:#6dac3b;}.cls-2{fill:#dd463c;}.cls-3{fill:#f3cc23;}.cls-4{fill:#0090da;}.cls-5{fill:#1e1712;}.cls-6{fill:#001388;}.cls-7{fill:#fff;}</style>
    <clipPath id="clipPath580" clipPathUnits="userSpaceOnUse">
      <path inkscape:connector-curvature="0" id="path578" d="M 0,896.65 H 1668.95 V 0 H 0 Z"/>
    </clipPath>
    <clipPath id="clipPath609" clipPathUnits="userSpaceOnUse">
      <path inkscape:connector-curvature="0" id="path607" d="M 0,896.65 H 1668.95 V 0 H 0 Z"/>
    </clipPath>
    <clipPath id="clipPath621" clipPathUnits="userSpaceOnUse">
      <path inkscape:connector-curvature="0" id="path619" d="M 0,896.65 H 1668.95 V 0 H 0 Z"/>
    </clipPath>
    <clipPath id="clipPath953" clipPathUnits="userSpaceOnUse">
      <path inkscape:connector-curvature="0" id="path951" d="M 0,1829.696 H 1668.95 V 0 H 0 Z"/>
    </clipPath>
    <clipPath id="clipPath965" clipPathUnits="userSpaceOnUse">
      <path inkscape:connector-curvature="0" id="path963" d="M 0,1829.696 H 1668.95 V 0 H 0 Z"/>
    </clipPath>
    <clipPath id="clipPath1114" clipPathUnits="userSpaceOnUse">
      <path inkscape:connector-curvature="0" id="path1112" d="M 0,1829.696 H 1668.95 V 0 H 0 Z"/>
    </clipPath>
    <clipPath id="clipPath1130" clipPathUnits="userSpaceOnUse">
      <path inkscape:connector-curvature="0" id="path1128" d="M 0,1829.696 H 1668.95 V 0 H 0 Z"/>
    </clipPath>
  </defs>
  <sodipodi:namedview id="base" pagecolor="#ffffff" bordercolor="#666666" borderopacity="1.0" inkscape:pageopacity="0.0" inkscape:pageshadow="2" inkscape:zoom="2.56" inkscape:cx="138.54564" inkscape:cy="140.10181" inkscape:document-units="mm" inkscape:current-layer="g1106" showgrid="false" fit-margin-top="0" fit-margin-left="0" fit-margin-right="0" fit-margin-bottom="0" inkscape:window-width="1920" inkscape:window-height="1001" inkscape:window-x="-9" inkscape:window-y="-9" inkscape:window-maximized="1"/>
  <metadata id="metadata5">
    <rdf:RDF>
      <cc:Work rdf:about="">
        <dc:format>image/svg+xml</dc:format>
        <dc:type rdf:resource="http://purl.org/dc/dcmitype/StillImage"/>
        <dc:title/>
      </cc:Work>
    </rdf:RDF>
  </metadata>
  <g inkscape:label="Capa 1" inkscape:groupmode="layer" id="layer1" transform="translate(-80.090098,-159.17998)">
    <g transform="matrix(0.35277777,0,0,-0.35277777,-85.311076,332.70669)" inkscape:label="Lake Placid" id="g601">
      <g transform="matrix(0.78202721,0,0,0.78202721,569.68667,-458.01659)" inkscape:label="Sarajevo LOGO" id="g945">
        <g transform="matrix(0.19151133,0,0,0.19151133,-210.01787,896.72772)" inkscape:label="Calgary LOGO" id="g1106">
          <g transform="translate(840.3086,954.2162)" id="g1120">
            <path inkscape:connector-curvature="0" id="path1122" style="fill:#ff4539;fill-opacity:1;fill-rule:nonzero;stroke:none" d="m 0,0 -38.721,-0.005 -0.006,-105.113 38.734,-0.013 z"/>
          </g>
          <g id="g1124">
            <g clip-path="url(#clipPath1130)" id="g1126">
              <g transform="translate(488.3145,1275.7928)" id="g1132">
                <path inkscape:connector-curvature="0" id="path1134" style="fill:#ff4539;fill-opacity:1;fill-rule:nonzero;stroke:none" d="m 0,0 c -1.751,-0.616 -3.46,-1.254 -5.147,-1.955 -7.59,-3.08 -14.712,-6.815 -21.411,-11.092 l 11.732,-36.133 c 8.7,6.887 18.729,12.362 29.88,16.015 50.389,16.386 104.749,-11.318 121.078,-61.684 16.403,-50.376 -11.248,-104.683 -61.648,-121.037 -11.165,-3.651 -22.535,-5.094 -33.648,-4.607 l 11.762,-36.136 c 7.918,0.461 15.92,1.636 23.839,3.61 1.788,0.445 3.53,0.895 5.283,1.421 -6.603,-14.369 -12.031,-29.403 -16.153,-44.954 l 22.91,-70.506 c 0,108.306 70.919,200.351 168.711,232.226 -0.055,-102.882 -65.716,-198.752 -168.711,-232.226 l 74.156,0.002 c 13.485,8.742 26.128,18.494 37.763,29.251 -0.002,-1.845 0.105,-3.661 0.256,-5.497 0.595,-8.149 1.943,-16.101 3.923,-23.762 l 37.979,0.002 c -3.861,10.423 -5.993,21.633 -5.992,33.374 -0.001,52.959 43.131,96.086 96.073,96.075 52.988,-0.003 96.075,-43.099 96.072,-96.088 -0.016,-11.739 -2.09,-22.947 -5.989,-33.354 l 38.039,-0.005 c 1.955,7.669 3.267,15.61 3.851,23.744 0.14,1.857 0.259,3.67 0.303,5.495 11.579,-10.736 24.189,-20.497 37.698,-29.235 l 74.216,-0.006 c -102.998,33.465 -168.638,129.361 -168.721,232.232 97.791,-31.871 168.722,-123.925 168.721,-232.232 l 22.876,70.502 c -4.122,15.56 -9.547,30.575 -16.136,44.953 1.711,-0.529 3.509,-0.978 5.278,-1.423 7.938,-1.979 15.915,-3.145 23.839,-3.608 l 11.704,36.121 c -11.067,-0.471 -22.377,0.982 -33.578,4.615 -50.342,16.35 -78.052,70.676 -61.683,121.046 16.385,50.367 70.664,78.069 121.047,61.683 11.154,-3.641 21.217,-9.126 29.917,-16.022 l 11.703,36.121 c -6.644,4.293 -13.806,8.024 -21.36,11.113 -1.734,0.697 -3.401,1.325 -5.126,1.961 13.808,7.713 26.992,16.678 39.481,26.846 l 22.938,70.509 C 664.041,9.74 552.532,-23.052 454.687,8.646 c 60.567,83.195 170.01,122.179 273.038,88.709 l -60.009,43.598 c -16.05,0.894 -32.041,0.373 -47.749,-1.474 1.058,1.5 2.059,3.024 3.035,4.582 4.319,6.942 7.876,14.159 10.76,21.546 l -30.728,22.31 c -2.97,-10.688 -7.888,-21.028 -14.774,-30.516 -31.095,-42.853 -91.322,-52.363 -134.189,-21.266 -42.875,31.158 -52.385,91.384 -21.248,134.217 6.929,9.465 15.237,17.332 24.496,23.459 l -30.738,22.341 c -6.128,-5.055 -11.895,-10.675 -17.191,-16.921 -1.119,-1.386 -2.302,-2.809 -3.401,-4.273 -3.098,15.521 -7.57,30.856 -13.328,45.874 l -60.018,43.539 c 63.688,-87.617 60.41,-203.739 -0.014,-287.001 -60.41,83.268 -63.639,199.382 0.014,287.001 l -59.971,-43.545 c -5.803,-15.027 -10.242,-30.351 -13.392,-45.871 -1.067,1.451 -2.242,2.887 -3.44,4.266 -5.219,6.256 -11.025,11.883 -17.108,16.945 l -30.723,-22.343 c 9.215,-6.137 17.522,-13.991 24.464,-23.487 31.113,-42.819 21.605,-103.036 -21.298,-134.197 -42.848,-31.094 -103.017,-21.578 -134.173,21.263 -6.85,9.496 -11.784,19.828 -14.76,30.521 L 31.493,165.614 c 2.911,-7.384 6.496,-14.607 10.828,-21.57 0.979,-1.545 1.916,-3.054 2.973,-4.579 -15.67,1.869 -31.619,2.402 -47.696,1.484 L -62.437,97.381 C 40.601,130.834 150.089,91.872 210.567,8.655 112.677,-23.055 1.249,9.75 -62.437,97.381 L -39.47,26.851 C -27.041,16.676 -13.833,7.724 0,0 m 332.65,-201.331 c -17.613,-0.006 -34.411,-3.471 -49.804,-9.751 7.761,27.341 11.437,55.967 10.557,85.02 12.773,2.063 25.837,3.178 39.241,3.169 13.36,-0.001 26.491,-1.105 39.275,-3.159 -0.922,-29.058 2.768,-57.704 10.488,-85.027 -15.366,6.291 -32.143,9.754 -49.757,9.748 m 186.629,162.058 c -10.744,-12.713 -19.224,-27.621 -24.706,-44.341 -5.427,-16.76 -7.279,-33.808 -6.082,-50.379 -23.576,15.812 -49.698,28.154 -77.579,36.263 1.999,12.823 4.96,25.6 9.109,38.332 4.179,12.713 9.29,24.856 15.189,36.358 27.323,-9.816 55.649,-15.19 84.069,-16.233 M 398.154,143.934 c 8.79,-14.112 20.348,-26.828 34.573,-37.149 14.252,-10.341 29.93,-17.432 46.033,-21.39 -22.348,-17.542 -42.13,-38.578 -58.513,-62.558 -11.511,5.84 -22.778,12.659 -33.597,20.519 -10.807,7.829 -20.763,16.445 -29.88,25.64 17.75,22.941 31.642,48.254 41.384,74.938 M 365.283,13.948 c 11.786,-8.51 24.002,-16.007 36.545,-22.476 -6.352,-12.573 -11.863,-25.84 -16.304,-39.666 -4.482,-13.805 -7.862,-27.734 -10.135,-41.653 -13.919,2.168 -28.202,3.252 -42.757,3.255 -14.555,0.004 -28.782,-1.098 -42.75,-3.266 -2.248,13.934 -5.617,27.858 -10.075,41.679 -4.534,13.816 -10.01,27.069 -16.366,39.658 12.545,6.469 24.736,13.97 36.538,22.479 11.733,8.549 22.636,17.866 32.651,27.761 10.033,-9.899 20.918,-19.22 32.653,-27.771 m -178.76,71.456 c 16.125,3.952 31.781,11.027 46.023,21.388 14.251,10.313 25.783,23.037 34.56,37.145 9.763,-26.67 23.62,-51.995 41.397,-74.936 C 299.372,59.799 289.415,51.182 278.6,43.351 267.796,35.488 256.563,28.669 245.001,22.835 228.641,46.817 208.857,67.861 186.523,85.404 m 43.573,-108.439 c 5.946,-11.518 11.021,-23.64 15.133,-36.368 4.142,-12.733 7.159,-25.503 9.125,-38.323 -27.876,-8.111 -53.957,-20.454 -77.574,-36.26 1.209,16.565 -0.648,33.606 -6.144,50.372 -5.38,16.735 -13.879,31.622 -24.605,44.342 28.382,1.05 56.749,6.413 84.065,16.237"/>
              </g>
              <g transform="translate(831.2837,584.2885)" id="g1136">
                <path inkscape:connector-curvature="0" id="path1138" style="fill:#2d2a26;fill-opacity:1;fill-rule:nonzero;stroke:none" d="m 0,0 c -3.39,-0.383 -6.833,-0.587 -10.325,-0.587 -3.489,0 -6.93,0.203 -10.317,0.586 -7.634,0.86 -14.982,2.665 -21.924,5.295 -34.371,13.018 -58.809,46.237 -58.809,85.169 0,4.955 0.402,9.816 1.164,14.557 -6.943,2.629 -14.29,4.434 -21.924,5.294 -1.137,-6.446 -1.733,-13.079 -1.733,-19.851 0,-49.167 31.253,-91.03 74.975,-106.819 7.057,-2.549 14.439,-4.415 22.067,-5.527 5.388,-0.784 10.896,-1.197 16.501,-1.197 5.608,0 11.118,0.413 16.508,1.198 C 3.423,-14.9 1.336,-7.58 0,0"/>
              </g>
              <g transform="translate(737.3999,710.9584)" id="g1140">
                <path inkscape:connector-curvature="0" id="path1142" style="fill:#ffce00;fill-opacity:1;fill-rule:nonzero;stroke:none" d="m 0,0 c -7.058,2.549 -14.439,4.415 -22.067,5.526 -5.388,0.785 -10.896,1.198 -16.501,1.198 -5.616,0 -11.135,-0.415 -16.532,-1.203 2.76,-6.98 4.846,-14.3 6.182,-21.879 3.397,0.383 6.85,0.588 10.35,0.588 3.488,0 6.929,-0.203 10.317,-0.585 7.634,-0.861 14.981,-2.666 21.924,-5.295 34.37,-13.019 58.808,-46.238 58.808,-85.169 0,-4.955 -0.402,-9.817 -1.164,-14.557 6.943,-2.63 14.291,-4.435 21.925,-5.295 1.136,6.446 1.732,13.079 1.732,19.852 C 74.974,-57.652 43.722,-15.789 0,0"/>
              </g>
              <g transform="translate(782.3906,567.932)" id="g1144">
                <path inkscape:connector-curvature="0" id="path1146" style="fill:#ffce00;fill-opacity:1;fill-rule:nonzero;stroke:none" d="m 0,0 c -14.002,-32.269 -46.142,-54.843 -83.559,-54.843 -37.422,0 -69.565,22.579 -83.565,54.855 -2.959,6.825 -5.108,14.082 -6.323,21.652 -0.761,4.736 -1.161,9.593 -1.161,14.543 0,38.92 24.422,72.131 58.776,85.157 -1.215,7.571 -3.363,14.827 -6.324,21.653 -43.707,-15.797 -74.946,-57.654 -74.946,-106.81 0,-6.77 0.596,-13.401 1.731,-19.847 1.337,-7.579 3.423,-14.899 6.183,-21.88 16.629,-42.061 57.654,-71.816 105.629,-71.816 47.973,0 88.995,29.752 105.626,71.81 C 14.439,-4.415 7.057,-2.549 0,0"/>
              </g>
              <g transform="translate(688.4819,694.6)" id="g1148">
                <path inkscape:connector-curvature="0" id="path1150" style="fill:#003da7;fill-opacity:1;fill-rule:nonzero;stroke:none" d="m 0,0 c -1.336,7.579 -3.422,14.899 -6.182,21.88 -16.63,42.061 -57.654,71.816 -105.629,71.816 -62.708,0 -113.543,-50.835 -113.543,-113.543 0,-62.708 50.835,-113.543 113.543,-113.543 5.616,0 11.134,0.415 16.532,1.203 -2.761,6.98 -4.846,14.3 -6.183,21.879 -3.397,-0.383 -6.849,-0.588 -10.349,-0.588 -50.285,0 -91.049,40.764 -91.049,91.049 0,50.285 40.764,91.05 91.049,91.05 37.422,0 69.565,-22.579 83.564,-54.854 2.96,-6.826 5.109,-14.082 6.324,-21.653 0.76,-4.736 1.161,-9.592 1.161,-14.543 0,-38.92 -24.423,-72.131 -58.777,-85.157 1.216,-7.57 3.364,-14.827 6.324,-21.652 43.708,15.797 74.947,57.653 74.947,106.809 C 1.732,-13.076 1.136,-6.445 0,0"/>
              </g>
              <g transform="translate(1026.6572,567.9369)" id="g1152">
                <path inkscape:connector-curvature="0" id="path1154" style="fill:#009946;fill-opacity:1;fill-rule:nonzero;stroke:none" d="m 0,0 c -14.001,-32.273 -46.143,-54.851 -83.563,-54.851 -37.418,0 -69.56,22.577 -83.561,54.848 -2.96,6.824 -5.109,14.081 -6.325,21.651 -0.762,4.739 -1.163,9.598 -1.163,14.551 0,38.929 24.434,72.146 58.8,85.166 -1.215,7.571 -3.365,14.827 -6.326,21.652 -43.717,-15.792 -74.967,-57.654 -74.967,-106.818 0,-6.771 0.595,-13.403 1.731,-19.847 1.337,-7.581 3.423,-14.901 6.184,-21.882 16.629,-42.06 57.653,-71.814 105.627,-71.814 47.974,0 88.998,29.754 105.628,71.814 C 14.438,-4.418 7.056,-2.55 0,0"/>
              </g>
              <g transform="translate(932.7695,694.599)" id="g1156">
                <path inkscape:connector-curvature="0" id="path1158" style="fill:#2d2a26;fill-opacity:1;fill-rule:nonzero;stroke:none" d="m 0,0 c -1.336,7.58 -3.423,14.9 -6.183,21.882 -16.629,42.059 -57.654,71.813 -105.628,71.813 -47.973,0 -88.995,-29.752 -105.626,-71.809 7.628,-1.112 15.01,-2.978 22.067,-5.527 14.002,32.269 46.142,54.843 83.559,54.843 37.419,0 69.561,-22.576 83.561,-54.848 2.961,-6.824 5.11,-14.081 6.326,-21.651 0.761,-4.738 1.162,-9.598 1.162,-14.551 0,-38.928 -24.433,-72.145 -58.8,-85.166 1.216,-7.57 3.366,-14.827 6.326,-21.651 43.718,15.791 74.967,57.653 74.967,106.817 C 1.731,-13.076 1.137,-6.444 0,0"/>
              </g>
              <g transform="translate(1065.2461,788.2914)" id="g1160">
                <path inkscape:connector-curvature="0" id="path1162" style="fill:#ff4539;fill-opacity:1;fill-rule:nonzero;stroke:none" d="m 0,0 c -47.974,0 -88.997,-29.754 -105.628,-71.813 7.628,-1.113 15.01,-2.981 22.065,-5.531 14.001,32.274 46.143,54.851 83.563,54.851 50.285,0 91.05,-40.765 91.05,-91.05 0,-50.285 -40.765,-91.05 -91.05,-91.05 -3.497,0 -6.946,0.204 -10.341,0.588 -7.634,0.863 -14.981,2.67 -21.923,5.302 -34.358,13.024 -58.785,46.237 -58.785,85.16 0,4.952 0.401,9.811 1.162,14.548 -6.942,2.632 -14.29,4.438 -21.924,5.302 -1.136,-6.447 -1.732,-13.078 -1.732,-19.85 0,-49.159 31.243,-91.017 74.954,-106.811 7.056,-2.55 14.438,-4.418 22.066,-5.531 5.394,-0.787 10.91,-1.201 16.523,-1.201 62.708,0 113.543,50.835 113.543,113.543 C 113.543,-50.835 62.708,0 0,0"/>
              </g>
              <g transform="translate(981.6836,710.9476)" id="g1164">
                <path inkscape:connector-curvature="0" id="path1166" style="fill:#009946;fill-opacity:1;fill-rule:nonzero;stroke:none" d="m 0,0 c -7.056,2.55 -14.438,4.418 -22.065,5.53 -5.395,0.787 -10.911,1.201 -16.524,1.201 -5.607,0 -11.118,-0.413 -16.508,-1.198 2.76,-6.981 4.847,-14.302 6.183,-21.882 3.39,0.383 6.833,0.587 10.325,0.587 3.497,0 6.946,-0.204 10.341,-0.588 7.634,-0.863 14.981,-2.67 21.924,-5.301 34.357,-13.025 58.785,-46.238 58.785,-85.161 0,-4.952 -0.401,-9.81 -1.162,-14.547 6.941,-2.632 14.289,-4.439 21.923,-5.302 1.136,6.446 1.732,13.078 1.732,19.849 C 74.954,-57.652 43.711,-15.795 0,0"/>
              </g>
              <g transform="translate(596.2793,848.6849)" id="g1168">
                <path inkscape:connector-curvature="0" id="path1170" style="fill:#ff4539;fill-opacity:1;fill-rule:nonzero;stroke:none" d="m 0,0 c -9.71,0 -17.581,7.871 -17.581,17.581 0,9.71 7.871,17.581 17.581,17.581 9.709,0 17.58,-7.871 17.58,-17.581 C 17.58,7.871 9.709,0 0,0 m 0,37.335 c -10.91,0 -19.753,-8.845 -19.753,-19.754 0,-10.91 8.843,-19.754 19.753,-19.754 10.909,0 19.753,8.844 19.753,19.754 0,10.909 -8.844,19.754 -19.753,19.754"/>
              </g>
              <g transform="translate(1076.1289,492.7728)" id="g1172">
                <path inkscape:connector-curvature="0" id="path1174" style="fill:#ff4539;fill-opacity:1;fill-rule:nonzero;stroke:none" d="m 0,0 c -9.71,0 -17.581,7.872 -17.581,17.581 0,9.71 7.871,17.581 17.581,17.581 9.71,0 17.58,-7.871 17.58,-17.581 C 17.58,7.872 9.71,0 0,0 m 0,37.335 c -10.909,0 -19.754,-8.844 -19.754,-19.754 0,-10.909 8.845,-19.754 19.754,-19.754 10.909,0 19.753,8.845 19.753,19.754 0,10.91 -8.844,19.754 -19.753,19.754"/>
              </g>
              <g transform="translate(1069.3457,499.473)" id="g1176">
                <path inkscape:connector-curvature="0" id="path1178" style="fill:#ff4539;fill-opacity:1;fill-rule:nonzero;stroke:none" d="m 0,0 h -2.047 -2.066 v 21.724 h 3.507 3.523 L 6.833,5.097 H 6.816 l 3.893,16.627 h 3.488 3.507 V 0 h -2.049 -2.064 v 18.243 h 0.01 L 9.304,0 H 6.805 4.306 L 0.011,18.32 H 0 Z"/>
              </g>
              <g transform="translate(604.5698,862.3959)" id="g1180">
                <path inkscape:connector-curvature="0" id="path1182" style="fill:#ff4539;fill-opacity:1;fill-rule:nonzero;stroke:none" d="m 0,0 v -0.718 c 0.051,-2.828 -0.541,-4.844 -1.775,-6.048 -1.234,-1.203 -3.324,-1.804 -6.267,-1.804 -3.125,0 -5.327,0.652 -6.606,1.959 -1.28,1.305 -1.919,3.55 -1.919,6.731 v 7.442 c 0,3.205 0.639,5.459 1.919,6.766 1.279,1.305 3.481,1.959 6.606,1.959 2.712,0 4.724,-0.61 6.036,-1.83 1.234,-1.142 1.844,-2.834 1.832,-5.082 V 8.913 8.194 h -5.535 v 0.719 c 0.025,1.255 -0.157,2.192 -0.55,2.815 -0.392,0.621 -0.986,0.932 -1.783,0.932 -1.042,0 -1.794,-0.356 -2.257,-1.07 -0.463,-0.712 -0.694,-1.873 -0.694,-3.481 V 0.667 c 0,-2.098 0.215,-3.557 0.646,-4.379 0.431,-0.82 1.199,-1.232 2.305,-1.232 0.861,0 1.5,0.351 1.918,1.052 0.418,0.702 0.614,1.76 0.589,3.174 V 0 Z"/>
              </g>
              <g transform="translate(514.2461,295.3627)" id="g1184">
                <path inkscape:connector-curvature="0" id="path1186" style="fill:#6f7c7d;fill-opacity:1;fill-rule:nonzero;stroke:none" d="m 0,0 v -4.231 c 0.28,-16.66 -2.963,-28.531 -9.734,-35.619 -6.769,-7.088 -18.233,-10.63 -34.383,-10.63 -17.137,0 -29.216,3.846 -36.233,11.539 -7.02,7.688 -10.527,20.904 -10.527,39.644 v 43.831 c 0,18.872 3.507,32.154 10.527,39.846 7.017,7.692 19.096,11.539 36.233,11.539 14.881,0 25.919,-3.594 33.113,-10.78 6.772,-6.718 10.121,-16.693 10.051,-29.927 V 52.494 48.26 h -30.362 v 4.234 c 0.139,7.388 -0.864,12.912 -3.015,16.571 -2.153,3.664 -5.414,5.491 -9.787,5.491 -5.713,0 -9.839,-2.099 -12.377,-6.296 -2.539,-4.198 -3.808,-11.033 -3.808,-20.502 V 3.93 c 0,-12.363 1.179,-20.959 3.544,-25.794 2.362,-4.836 6.575,-7.253 12.641,-7.253 4.725,0 8.234,2.065 10.527,6.194 2.292,4.132 3.367,10.362 3.228,18.692 V 0 Z"/>
              </g>
              <g transform="translate(574.2061,293.7504)" id="g1188">
                <path inkscape:connector-curvature="0" id="path1190" style="fill:#6f7c7d;fill-opacity:1;fill-rule:nonzero;stroke:none" d="m 0,0 h -3.701 c -6.677,0 -11.394,-1.311 -14.151,-3.93 -2.759,-2.619 -4.136,-7.154 -4.136,-13.6 v -6.048 c 0,-3.088 0.87,-5.506 2.612,-7.253 1.741,-1.747 4.136,-2.619 7.185,-2.619 4.063,0 7.11,1.663 9.144,4.985 2.029,3.326 3.047,8.278 3.047,14.864 z m -24.274,-48.867 c -8.122,-0.306 -14.498,2.318 -19.105,6.952 -4.608,4.638 -6.911,11.051 -6.911,19.245 v 6.044 c 0,11.755 3.119,20.033 9.36,24.839 6.242,4.799 17.017,7.201 32.331,7.201 H 0 v 12.092 c 0,3.692 -0.745,6.479 -2.231,8.362 -1.489,1.879 -3.721,2.82 -6.696,2.82 -3.701,0 -6.423,-1.006 -8.164,-3.021 -1.741,-2.015 -2.502,-5.037 -2.285,-9.069 v -2.92 h -28.192 v 2.92 c -0.147,9.607 2.809,16.626 8.87,21.058 6.058,4.436 15.73,6.652 29.01,6.652 12.844,0 22.369,-2.469 28.574,-7.407 6.204,-4.937 9.308,-12.579 9.308,-22.922 V -46.75 H 0.871 v 10.607 c 0,0 -7.19,-12.05 -25.145,-12.724"/>
              </g>
              <g transform="translate(617.0586,389.1644)" id="g1192">
                <path inkscape:connector-curvature="0" id="path1194" style="fill:#6f7c7d;fill-opacity:1;fill-rule:nonzero;stroke:none" d="M 0,0 H 13.646 27.399 V -142.164 H 13.753 0 Z"/>
              </g>
              <g transform="translate(695.8354,330.3256)" id="g1196">
                <path inkscape:connector-curvature="0" id="path1198" style="fill:#6f7c7d;fill-opacity:1;fill-rule:nonzero;stroke:none" d="m 0,0 c -3.478,0 -6.048,-1.414 -7.715,-4.234 -1.666,-2.821 -2.497,-7.154 -2.497,-12.996 v -27.206 c 0,-8.596 0.668,-14.271 2.008,-17.025 1.341,-2.755 4.076,-4.132 8.204,-4.132 4.197,0 6.968,1.41 8.309,4.231 1.338,2.824 2.01,8.63 2.01,17.432 v 22.267 c 0,8.799 -0.672,14.608 -2.01,17.429 C 6.968,-1.414 4.197,0 0,0 m -0.328,-107.406 c 3.912,0 6.664,1.257 8.257,3.769 1.592,2.509 2.39,6.814 2.39,12.908 v 18.586 L 9.232,-73.45 c -5.287,-6.586 -12.674,-9.875 -22.16,-9.875 -9.417,0 -16.042,2.684 -19.881,8.058 -3.838,5.373 -5.756,14.645 -5.756,27.809 v 27.205 c 0,12.696 2.208,22.198 6.625,28.513 4.418,6.311 11.081,9.472 19.99,9.472 9.197,0 16.909,-3.629 23.138,-10.882 l 0.869,-1.007 v 9.772 H 39.759 V -90.703 c 0,-10.538 -3.278,-18.457 -9.832,-23.762 -6.554,-5.3 -16.349,-7.952 -29.385,-7.952 -13.688,0 -23.537,2.15 -29.548,6.447 -6.013,4.3 -8.946,11.285 -8.8,20.956 v 2.923 h 28.244 v -2.923 c -0.216,-4.029 0.452,-7.102 2.011,-9.219 1.557,-2.115 3.965,-3.173 7.223,-3.173"/>
              </g>
              <g transform="translate(838.0596,345.9408)" id="g1200">
                <path inkscape:connector-curvature="0" id="path1202" style="fill:#6f7c7d;fill-opacity:1;fill-rule:nonzero;stroke:none" d="m 0,0 h 12.499 12.599 v -12.795 c 0.948,1.814 1.965,3.458 3.048,4.938 4.675,5.909 12.602,9.202 23.78,9.872 v -23.212 c -2.486,0.104 -5.289,-0.101 -7.379,-0.311 -6.462,-0.649 -12.151,-4.361 -14.731,-8.258 -2.63,-3.973 -3.525,-6.87 -3.499,-14.666 V -98.94 H 13.21 0 Z"/>
              </g>
              <g transform="translate(940.0596,210.224)" id="g1204">
                <path inkscape:connector-curvature="0" id="path1206" style="fill:#6f7c7d;fill-opacity:1;fill-rule:nonzero;stroke:none" d="m 0,0 h -12.757 -16.611 l 9.723,33.126 -27.556,102.591 h 13.367 13.472 L -5.415,65.079 9.574,135.717 h 13.868 12.971 z"/>
              </g>
              <g transform="translate(1007.7197,351.0306)" id="g1208">
                <path inkscape:connector-curvature="0" id="path1210" style="fill:#6f7c7d;fill-opacity:1;fill-rule:nonzero;stroke:none" d="M 0,0 7.122,37.668 H 32.293 L 18.3,0 Z"/>
              </g>
              <g transform="translate(1102.1494,284.681)" id="g1212">
                <path inkscape:connector-curvature="0" id="path1214" style="fill:#6f7c7d;fill-opacity:1;fill-rule:nonzero;stroke:none" d="m 0,0 c 0,-8.934 -1.049,-11.957 -2.529,-14.275 -1.484,-2.32 -4.845,-6.077 -10.699,-6.077 -5.854,0 -9.215,3.757 -10.699,6.077 -1.479,2.318 -2.528,5.341 -2.528,14.275 v 8.465 c 0,7.792 1.883,10.983 3.362,12.998 1.485,2.015 4.011,4.735 9.865,4.735 5.854,0 8.381,-2.72 9.865,-4.735 C -1.884,19.448 0,16.257 0,8.465 Z m -25.395,68.333 c 0.139,6.744 1.479,9.98 3.068,12.281 1.239,1.794 4.163,4.637 9.099,4.637 4.936,0 7.861,-2.843 9.099,-4.637 1.589,-2.301 2.93,-5.537 3.067,-12.281 V 67.01 c 0,-8.13 -0.395,-11.096 -1.983,-13.679 -1.586,-2.584 -5.247,-6.264 -10.183,-6.264 -4.936,0 -8.596,3.68 -10.183,6.264 -1.588,2.583 -1.984,5.549 -1.984,13.679 z M 18.544,30.025 c -3.033,2.755 -7.125,4.803 -12.273,6.147 4.513,1.209 8.181,2.923 11.003,5.14 6.277,4.9 9.414,12.86 9.414,23.878 v 6.447 c 0,12.092 -3.137,20.821 -9.414,26.198 -6.278,5.373 -16.468,8.059 -30.574,8.059 -14.106,0 -24.278,-2.62 -30.52,-7.858 -6.243,-5.241 -9.365,-13.806 -9.365,-25.692 v -7.861 c 0,-10.813 3.563,-18.604 10.687,-23.374 3.172,-2.014 7.123,-3.695 11.848,-5.04 -5.996,-1.142 -10.544,-2.885 -13.647,-5.238 -6.206,-4.633 -9.31,-13.333 -9.31,-26.095 v -8.462 c 0,-12.764 3.155,-21.966 9.468,-27.607 6.312,-5.641 16.591,-8.465 30.839,-8.465 14.245,0 24.543,2.824 30.892,8.465 6.347,5.641 9.521,14.843 9.521,27.607 v 8.462 c 0,11.689 -2.857,20.118 -8.569,25.289"/>
              </g>
              <g transform="translate(796.0933,293.7504)" id="g1216">
                <path inkscape:connector-curvature="0" id="path1218" style="fill:#6f7c7d;fill-opacity:1;fill-rule:nonzero;stroke:none" d="m 0,0 h -3.701 c -6.676,0 -11.394,-1.311 -14.151,-3.93 -2.758,-2.619 -4.136,-7.154 -4.136,-13.6 v -6.048 c 0,-3.088 0.871,-5.506 2.612,-7.253 1.741,-1.747 4.136,-2.619 7.186,-2.619 4.063,0 7.109,1.663 9.143,4.985 2.029,3.326 3.047,8.278 3.047,14.864 z m -24.274,-48.867 c -8.122,-0.306 -14.497,2.318 -19.105,6.952 -4.607,4.638 -6.91,11.051 -6.91,19.245 v 6.044 c 0,11.755 3.119,20.033 9.36,24.839 6.241,4.799 17.017,7.201 32.33,7.201 H 0 v 12.092 c 0,3.692 -0.744,6.479 -2.231,8.362 -1.489,1.879 -3.72,2.82 -6.696,2.82 -3.701,0 -6.422,-1.006 -8.163,-3.021 -1.742,-2.015 -2.503,-5.037 -2.286,-9.069 v -2.92 h -28.192 v 2.92 c -0.147,9.607 2.81,16.626 8.87,21.058 6.059,4.436 15.73,6.652 29.01,6.652 12.845,0 22.369,-2.469 28.575,-7.407 6.203,-4.937 9.307,-12.579 9.307,-22.922 V -46.75 H 0.871 v 10.607 c 0,0 -7.189,-12.05 -25.145,-12.724"/>
              </g>
              <g transform="translate(1191.5205,284.681)" id="g1220">
                <path inkscape:connector-curvature="0" id="path1222" style="fill:#6f7c7d;fill-opacity:1;fill-rule:nonzero;stroke:none" d="m 0,0 c 0,-8.934 -1.049,-11.957 -2.528,-14.275 -1.485,-2.32 -4.846,-6.077 -10.7,-6.077 -5.853,0 -9.214,3.757 -10.699,6.077 -1.479,2.318 -2.528,5.341 -2.528,14.275 v 8.465 c 0,7.792 1.883,10.983 3.363,12.998 1.484,2.015 4.011,4.735 9.864,4.735 5.854,0 8.381,-2.72 9.865,-4.735 C -1.884,19.448 0,16.257 0,8.465 Z m -25.395,68.333 c 0.139,6.744 1.48,9.98 3.068,12.281 1.239,1.794 4.164,4.637 9.099,4.637 4.936,0 7.861,-2.843 9.099,-4.637 1.589,-2.301 2.93,-5.537 3.067,-12.281 V 67.01 c 0,-8.13 -0.395,-11.096 -1.983,-13.679 -1.586,-2.584 -5.247,-6.264 -10.183,-6.264 -4.935,0 -8.596,3.68 -10.182,6.264 -1.588,2.583 -1.985,5.549 -1.985,13.679 z M 18.544,30.025 c -3.033,2.755 -7.124,4.803 -12.273,6.147 4.513,1.209 8.181,2.923 11.004,5.14 6.277,4.9 9.413,12.86 9.413,23.878 v 6.447 c 0,12.092 -3.136,20.821 -9.413,26.198 -6.279,5.373 -16.469,8.059 -30.575,8.059 -14.106,0 -24.278,-2.62 -30.52,-7.858 -6.243,-5.241 -9.365,-13.806 -9.365,-25.692 v -7.861 c 0,-10.813 3.563,-18.604 10.687,-23.374 3.173,-2.014 7.123,-3.695 11.849,-5.04 -5.997,-1.142 -10.544,-2.885 -13.647,-5.238 -6.207,-4.633 -9.311,-13.333 -9.311,-26.095 v -8.462 c 0,-12.764 3.155,-21.966 9.468,-27.607 6.312,-5.641 16.592,-8.465 30.839,-8.465 14.245,0 24.544,2.824 30.892,8.465 6.347,5.641 9.521,14.843 9.521,27.607 v 8.462 c 0,11.689 -2.856,20.118 -8.569,25.289"/>
              </g>
            </g>
          </g>
        </g>
      </g>
    </g>
  </g>
</svg>