<?xml version="1.0" encoding="UTF-8" standalone="no"?>
<!-- Created with Inkscape (http://www.inkscape.org/) -->
<svg xmlns:dc="http://purl.org/dc/elements/1.1/" xmlns:cc="http://creativecommons.org/ns#" xmlns:rdf="http://www.w3.org/1999/02/22-rdf-syntax-ns#" xmlns:svg="http://www.w3.org/2000/svg" xmlns="http://www.w3.org/2000/svg" xmlns:sodipodi="http://sodipodi.sourceforge.net/DTD/sodipodi-0.dtd" xmlns:inkscape="http://www.inkscape.org/namespaces/inkscape" width="50.46447mm" height="76.649796mm" viewBox="0 0 50.46447 76.649795" version="1.1" id="svg8" inkscape:version="0.92.4 (5da689c313, 2019-01-14)" sodipodi:docname="1992_Winter_Olympics_logo.svg">
  <defs id="defs2">
    <style id="style70">.cls-1{fill:#c12a21;}.cls-2{fill:#1e1712;}</style>
    <style id="style272">.cls-1{fill:#6dac3b;}.cls-2{fill:#dd463c;}.cls-3{fill:#f3cc23;}.cls-4{fill:#0090da;}.cls-5{fill:#1e1712;}.cls-6{fill:#001388;}.cls-7{fill:#fff;}</style>
    <clipPath id="clipPath580" clipPathUnits="userSpaceOnUse">
      <path inkscape:connector-curvature="0" id="path578" d="M 0,896.65 H 1668.95 V 0 H 0 Z"/>
    </clipPath>
    <clipPath id="clipPath609" clipPathUnits="userSpaceOnUse">
      <path inkscape:connector-curvature="0" id="path607" d="M 0,896.65 H 1668.95 V 0 H 0 Z"/>
    </clipPath>
    <clipPath id="clipPath621" clipPathUnits="userSpaceOnUse">
      <path inkscape:connector-curvature="0" id="path619" d="M 0,896.65 H 1668.95 V 0 H 0 Z"/>
    </clipPath>
    <clipPath id="clipPath953" clipPathUnits="userSpaceOnUse">
      <path inkscape:connector-curvature="0" id="path951" d="M 0,1829.696 H 1668.95 V 0 H 0 Z"/>
    </clipPath>
    <clipPath id="clipPath965" clipPathUnits="userSpaceOnUse">
      <path inkscape:connector-curvature="0" id="path963" d="M 0,1829.696 H 1668.95 V 0 H 0 Z"/>
    </clipPath>
    <clipPath id="clipPath1114" clipPathUnits="userSpaceOnUse">
      <path inkscape:connector-curvature="0" id="path1112" d="M 0,1829.696 H 1668.95 V 0 H 0 Z"/>
    </clipPath>
    <clipPath id="clipPath1130" clipPathUnits="userSpaceOnUse">
      <path inkscape:connector-curvature="0" id="path1128" d="M 0,1829.696 H 1668.95 V 0 H 0 Z"/>
    </clipPath>
    <clipPath id="clipPath2165" clipPathUnits="userSpaceOnUse">
      <path inkscape:connector-curvature="0" id="path2163" d="M 0,1829.696 H 1668.95 V 0 H 0 Z"/>
    </clipPath>
    <clipPath id="clipPath2181" clipPathUnits="userSpaceOnUse">
      <path inkscape:connector-curvature="0" id="path2179" d="M 0,1829.696 H 1668.95 V 0 H 0 Z"/>
    </clipPath>
  </defs>
  <sodipodi:namedview id="base" pagecolor="#ffffff" bordercolor="#666666" borderopacity="1.0" inkscape:pageopacity="0.0" inkscape:pageshadow="2" inkscape:zoom="2.56" inkscape:cx="131.9244" inkscape:cy="140.77013" inkscape:document-units="mm" inkscape:current-layer="g1106" showgrid="false" fit-margin-top="0" fit-margin-left="0" fit-margin-right="0" fit-margin-bottom="0" inkscape:window-width="1920" inkscape:window-height="1001" inkscape:window-x="-9" inkscape:window-y="-9" inkscape:window-maximized="1"/>
  <metadata id="metadata5">
    <rdf:RDF>
      <cc:Work rdf:about="">
        <dc:format>image/svg+xml</dc:format>
        <dc:type rdf:resource="http://purl.org/dc/dcmitype/StillImage"/>
        <dc:title/>
      </cc:Work>
    </rdf:RDF>
  </metadata>
  <g inkscape:label="Capa 1" inkscape:groupmode="layer" id="layer1" transform="translate(-77.204231,-159.28817)">
    <g transform="matrix(0.35277777,0,0,-0.35277777,-85.311076,332.70669)" inkscape:label="Lake Placid" id="g601">
      <g transform="matrix(0.78202721,0,0,0.78202721,569.68667,-458.01659)" inkscape:label="Sarajevo LOGO" id="g945">
        <g transform="matrix(0.19151133,0,0,0.19151133,-210.01787,896.72772)" inkscape:label="Calgary LOGO" id="g1106">
          <g transform="matrix(0.91411118,0,0,0.91411118,87.514242,67.723726)" inkscape:label="Albertville LOGO" id="g2157">
            <g transform="translate(349.8584,496.7474)" id="g2171">
              <path inkscape:connector-curvature="0" id="path2173" style="fill:#0082ca;fill-opacity:1;fill-rule:nonzero;stroke:none" d="m 0,0 h -23.625 l -10.067,-25.67 -8.508,0.014 37.669,96.051 H 1.592 L 40.763,-25.657 19.035,-25.663 8.569,0 5.507,7.509 -7.842,40.243 -20.68,7.509 H 2.945 Z"/>
            </g>
            <g id="g2175">
              <g clip-path="url(#clipPath2181)" id="g2177">
                <g transform="translate(506.436,524.4047)" id="g2183">
                  <path inkscape:connector-curvature="0" id="path2185" style="fill:#0082ca;fill-opacity:1;fill-rule:nonzero;stroke:none" d="m 0,0 h 1.869 c 3.075,0 9.514,1.386 12.381,3.378 2.615,1.818 6.116,5.066 6.835,9.516 0,0 2.927,10.406 -4.418,17.479 -3.422,3.296 -7.903,4.795 -12.834,4.854 H -9.377 V 0 -7.507 -45.799 h 16.65 c 10.463,0 15.979,8.681 16.477,13.094 0,0 3.013,12.805 -6.349,20.411 -3.985,3.238 -8.36,4.692 -15.366,4.787 L -2.945,-7.51 Z M 38.309,-42.642 C 32.983,-49.758 24.792,-53.314 13.74,-53.314 H -29.952 V 42.737 H 13.74 c 9.682,0 17.023,-3.025 22.027,-9.072 3.63,-4.448 5.552,-9.473 5.446,-15.074 C 40.862,0 25.741,-2.381 25.741,-2.381 c 0,0 9.882,-2.001 15.109,-11.445 2.037,-3.682 2.905,-7.827 2.905,-12.274 0,-6.048 -1.816,-11.562 -5.446,-16.542"/>
                </g>
                <g transform="translate(684.6694,520.1117)" id="g2187">
                  <path inkscape:connector-curvature="0" id="path2189" style="fill:#0082ca;fill-opacity:1;fill-rule:nonzero;stroke:none" d="m 0,0 c 5.467,1.192 8.604,2.733 11.745,6.248 3.139,3.513 4.678,7.917 4.678,13.432 0,2.045 -0.357,4.329 -0.892,6.464 -1.839,6.63 -6.798,12.705 -15.617,13.381 L -13.96,39.521 V -49.021 H -34.541 V 47.03 H 2.325 c 11.944,0 20.608,-3.927 26.58,-9.798 4.824,-4.801 7.53,-11.29 7.53,-17.513 0,-5.603 -2.03,-10.718 -6.087,-15.342 -2.144,-2.4 -4.422,-4.269 -6.834,-5.603 -2.411,-1.334 -7.357,-2.868 -10.113,-2.868 l 24.01,-44.927 H 15.503 l -25.665,48.025 c 0,0 6.315,0.1 10.162,0.996"/>
                </g>
                <g transform="translate(754.0811,471.0902)" id="g2191">
                  <path inkscape:connector-curvature="0" id="path2193" style="fill:#0082ca;fill-opacity:1;fill-rule:nonzero;stroke:none" d="m 0,0 v 88.547 h -23.741 l 2.943,7.505 h 62.184 l 2.943,-7.505 H 20.583 L 20.584,0 Z"/>
                </g>
                <path inkscape:connector-curvature="0" id="path2195" style="fill:#0082ca;fill-opacity:1;fill-rule:nonzero;stroke:none" d="m 922.613,471.09 h -20.579 v 96.052 h 20.579 z"/>
                <g transform="translate(1078.3027,478.6058)" id="g2197">
                  <path inkscape:connector-curvature="0" id="path2199" style="fill:#0082ca;fill-opacity:1;fill-rule:nonzero;stroke:none" d="m 0,0 -2.943,-7.505 -52.36,-0.011 v 96.052 h 20.575 V 0 Z"/>
                </g>
                <g transform="translate(1244.6191,523.8763)" id="g2201">
                  <path inkscape:connector-curvature="0" id="path2203" style="fill:#0082ca;fill-opacity:1;fill-rule:nonzero;stroke:none" d="m 0,0 c -0.001,-0.005 -0.002,-0.009 -0.002,-0.013 l 0.006,0.012 z"/>
                </g>
                <g transform="translate(1213.5498,516.7172)" id="g2205">
                  <path inkscape:connector-curvature="0" id="path2207" style="fill:#0082ca;fill-opacity:1;fill-rule:nonzero;stroke:none" d="m 0,0 c -3.501,0 -6.3,1.564 -8.4,4.692 -3.413,4.901 -5.119,11.053 -5.119,18.459 l 0.394,6.257 c 1.749,10.637 5.992,15.955 12.731,15.955 3.498,0 6.3,-1.564 8.401,-4.692 3.149,-4.59 4.724,-11.055 4.724,-19.398 C 12.731,14.493 11.288,8.967 8.4,4.692 6.124,1.564 3.324,0 0,0 m 27.681,0.368 c 3.574,6.778 4.635,15.314 4.635,19.574 0,9.992 -2.779,17.772 -8.337,23.342 -2.889,2.828 -6.188,4.885 -9.892,6.168 -3.707,1.28 -8.153,1.922 -13.34,1.922 -8.152,0 -15.228,-2.211 -21.23,-6.631 -7.931,-5.748 -11.895,-13.971 -11.895,-24.668 0,-6.631 1.778,-12.334 5.336,-17.107 1.926,-2.566 4.112,-4.732 6.559,-6.499 4.518,-3.273 8.637,-4.128 13.927,-4.481 3.014,-0.201 6.218,0.202 8.994,1.437 l -19.686,-39.396 h 4.878 16.895 z"/>
                </g>
                <g transform="translate(1316.4111,478.2562)" id="g2209">
                  <path inkscape:connector-curvature="0" id="path2211" style="fill:#0082ca;fill-opacity:1;fill-rule:nonzero;stroke:none" d="m 0,0 v -7.51 h -60.85 v 2.078 l 33.127,45.682 c 1.971,2.926 5.158,7.878 5.993,9.918 2.256,4.569 2.745,5.795 3.06,10.975 0.538,8.858 -3.561,16.19 -9.162,18.223 -6.525,2.37 -13.373,1.338 -18.834,-4.625 -5.242,-5.722 -5.061,-14.376 -5.061,-14.376 h -7.469 c 0,0 -1.112,13.326 9.744,22.958 4.694,4.165 12.232,6.487 18.931,6.521 6.904,0.036 12.439,-1.57 14.882,-2.671 3.967,-1.788 6.046,-3.554 8.474,-6.13 4.91,-4.797 8.17,-11.979 8.17,-19.174 0,-5.151 -0.477,-10.558 -2.675,-15.797 -0.91,-2.399 -2.933,-5.905 -5.055,-9.192 L -33.469,0 Z"/>
                </g>
                <g transform="translate(1009.5547,478.6058)" id="g2213">
                  <path inkscape:connector-curvature="0" id="path2215" style="fill:#0082ca;fill-opacity:1;fill-rule:nonzero;stroke:none" d="m 0,0 -2.943,-7.505 -52.36,-0.011 v 96.052 h 20.575 V 0 Z"/>
                </g>
                <g transform="translate(462.9399,478.6107)" id="g2217">
                  <path inkscape:connector-curvature="0" id="path2219" style="fill:#0082ca;fill-opacity:1;fill-rule:nonzero;stroke:none" d="m 0,0 -2.943,-7.505 -52.36,-0.01 v 96.051 h 20.575 V 0 Z"/>
                </g>
                <g transform="translate(1112.6807,516.8939)" id="g2221">
                  <path inkscape:connector-curvature="0" id="path2223" style="fill:#0082ca;fill-opacity:1;fill-rule:nonzero;stroke:none" d="m 0,0 29.724,0.006 2.943,7.505 H 0 V 42.737 H 34.728 L 31.785,50.241 0,50.248 h -20.575 v -96.052 l 52.36,0.011 2.943,7.505 H 0 Z"/>
                </g>
                <g transform="translate(593.7769,516.8988)" id="g2225">
                  <path inkscape:connector-curvature="0" id="path2227" style="fill:#0082ca;fill-opacity:1;fill-rule:nonzero;stroke:none" d="m 0,0 29.724,0.006 2.943,7.505 H 0 V 42.737 H 34.728 L 31.785,50.241 0,50.248 h -20.575 v -96.051 l 52.36,0.01 2.943,7.505 H 0 Z"/>
                </g>
                <g transform="translate(867.9971,541.4847)" id="g2229">
                  <path inkscape:connector-curvature="0" id="path2231" style="fill:#0082ca;fill-opacity:1;fill-rule:nonzero;stroke:none" d="m 0,0 10.066,25.669 8.508,-0.013 -37.669,-96.051 h -6.123 l -39.17,96.052 21.727,0.006 L -32.195,0 l 3.062,-7.509 13.35,-32.734 12.838,32.734 z"/>
                </g>
                <g transform="translate(901.8867,751.5892)" id="g2233">
                  <path inkscape:connector-curvature="0" id="path2235" style="fill:#eb0045;fill-opacity:1;fill-rule:nonzero;stroke:none" d="m 0,0 c -0.896,-0.822 -0.631,0.042 -2.313,-1.078 -1.68,-1.121 -2.019,1.781 -2.019,1.781 -0.523,2.278 -0.895,3.524 1.235,3.599 2.13,0.074 1.148,-0.647 2.531,-1.58 C 0.815,1.787 0.896,0.821 0,0 m 258.743,74.016 c -2.267,0.378 -1.497,0.846 -3.81,1.694 -2.314,0.847 -2.526,1.315 -4.249,1.527 -1.725,0.211 -2.995,-0.046 -4.96,0.877 -1.967,0.922 -1.861,1.437 -3.464,1.649 -1.603,0.211 -3.146,0.483 -5.081,0.362 -1.936,-0.121 -3.448,-0.182 -4.325,0.696 -0.877,0.877 -1.815,0.968 -4.779,0.484 -2.964,-0.484 -1.663,0.877 -4.415,1.179 -2.753,0.303 -2.42,-0.03 -4.537,-0.998 -2.117,-0.967 -1.028,-1.21 -5.142,-1.179 -4.113,0.03 -5.141,-0.364 -6.563,0.695 -1.421,1.059 -1.603,0.727 -3.992,0.969 -2.389,0.241 -2.117,0.998 -4.386,0.907 -2.268,-0.091 -1.451,-0.454 -2.207,-1.422 -0.757,-0.968 -3.388,-0.363 -4.9,-1.361 -1.512,-0.998 -1.694,-1.33 -4.204,-1.451 -2.51,-0.122 -4.446,0.242 -6.835,-0.243 -2.39,-0.484 -1.906,-1.058 -3.75,-1.24 -1.845,-0.182 -0.847,1.059 -2.873,0.938 -2.027,-0.121 -2.905,0.514 -3.267,-2.087 -0.363,-2.601 -0.182,-2.057 -2.329,-1.906 -2.148,0.152 -6.594,0.455 -6.533,-0.513 0.06,-0.968 1.149,-4.901 -0.544,-4.84 -1.694,0.06 -2.964,-0.241 -4.598,-0.03 -1.633,0.212 -1.784,-0.665 -2.601,2.601 -0.816,3.267 -0.695,4.325 -2.389,4.144 -1.694,-0.182 -3.055,-0.485 -4.809,-0.575 -1.754,-0.09 -2.056,-0.09 -3.962,-1.209 -1.905,-1.12 -3.115,-0.727 -3.478,-2.118 -0.363,-1.391 -0.423,-2.51 -1.633,-2.45 -1.21,0.061 -2.269,-0.212 -3.236,1.452 -0.968,1.663 -1.15,0.938 -2.934,0.665 -1.784,-0.272 -1.725,-1.149 -6.079,-1.572 -4.356,-0.424 -4.779,-0.121 -7.531,-0.515 -2.752,-0.393 -5.354,0.303 -6.352,-0.695 -0.998,-0.998 -1.27,-0.907 -2.479,-0.968 -1.21,-0.06 -1.907,-0.423 -4.235,-0.937 -2.329,-0.515 -2.964,0.09 -4.234,-0.666 -1.271,-0.756 -1.543,-0.756 -3.297,-0.817 -1.754,-0.06 -0.847,-0.786 -3.024,-1.24 -2.178,-0.453 -1.875,-1.421 -5.203,-1.633 -3.327,-0.211 -2.903,0.484 -4.325,-0.544 -1.421,-1.029 -2.752,0.151 -3.78,-1.12 -1.028,-1.269 -1.361,-0.604 -1.996,-2.087 -0.635,-1.481 -1.392,-1.088 -1.663,-1.723 -0.273,-0.635 -0.121,-0.817 -1.24,-1.451 -1.12,-0.636 -0.877,-1.18 -2.269,-0.939 -1.392,0.242 -1.361,1.604 -3.024,1.664 -1.664,0.061 -1.664,0.152 -3.025,-1.24 -1.361,-1.392 -1.482,-1.331 -2.632,-1.572 -1.148,-0.242 -1.663,-0.545 -2.842,-0.152 -1.18,0.393 -0.756,1.906 -2.33,1.754 -1.572,-0.151 -3.659,0.121 -4.838,-0.756 -1.18,-0.877 -1.633,-1.028 -2.51,-1.028 -0.878,0 -1.634,-0.454 -3.055,-0.575 -1.422,-0.121 -1.603,-0.241 -2.359,-1.512 -0.756,-1.27 -0.303,-2.783 -1.573,-2.722 -1.27,0.06 -2.027,-0.393 -2.359,0.877 -0.333,1.27 -1.21,0.272 -2.964,0.332 -1.755,0.061 -4.204,0.515 -4.628,-0.332 -0.424,-0.847 -0.483,-0.877 -1.361,-0.847 -0.877,0.03 -1.603,0.121 -1.693,-1.179 -0.091,-1.301 0.333,-1.482 -2.118,-1.21 -2.45,0.272 -4.778,0.362 -4.838,-0.182 -0.061,-0.544 0.211,-1.119 -1.15,-1.179 -1.361,-0.061 -1.693,-0.182 -3.085,-1.029 -1.391,-0.846 -1.361,-0.543 -2.812,-0.543 -1.452,0 -1.936,-0.636 -3.388,-1.362 -1.452,-0.725 -0.786,-1.361 -1.784,-1.301 -0.998,0.061 -1.785,-0.06 -3.479,-0.362 -1.693,-0.303 -10.721,-3.418 -16.8,-5.641 -6.08,-2.223 -34.283,-11.84 -55.817,-19.826 -21.535,-7.984 -52.868,-21.896 -69.2,-29.276 -16.332,-7.38 -37.625,-16.453 -60.732,-30.003 -23.106,-13.55 -43.31,-25.526 -52.625,-33.148 -9.315,-7.622 -9.964,-9.13 -10.691,-11.508 -1,-3.27 -0.252,-7.42 3.212,-10.897 3.464,-3.477 33.486,-33.613 33.486,-33.613 0,0 0.185,10.167 40.834,34.665 40.649,24.498 69.321,40.286 94,51.537 24.68,11.251 31.213,13.791 34.963,15.908 3.75,2.118 3.69,2.662 7.32,3.63 3.628,0.968 3.507,0.514 5.292,3.358 1.785,2.842 3.146,5.261 3.72,6.592 0.574,1.331 0.907,3.57 2.269,2.752 1.36,-0.816 3.115,-2.297 3.719,-2.873 0.606,-0.574 1.089,0.091 2.542,0.968 1.451,0.877 4.959,0.925 4.083,2.08 -0.877,1.156 -1.513,3.153 -1.936,4.362 -0.424,1.21 -1.028,1.694 1.119,2.722 2.147,1.029 2.056,0.998 2.237,-0.241 0.182,-1.24 -0.453,-2.238 1.786,-2.117 2.237,0.121 2.388,0 2.721,2.479 0.333,2.481 -0.575,2.662 1.059,2.994 1.633,0.333 1.331,0.666 2.42,-1.119 1.088,-1.784 2.177,-1.602 3.689,-3.296 1.512,-1.694 5.445,-0.937 8.045,1.421 2.602,2.36 3.206,5.081 6.231,4.386 3.024,-0.695 6.925,-1.724 7.016,-0.151 0.091,1.573 0.03,4.113 0.378,4.597 0.349,0.484 0.832,0.605 1.497,0.423 0.666,-0.181 2.299,-0.469 4.477,-0.499 2.178,-0.03 2.752,-0.483 2.812,0.938 0.061,1.422 0.499,2.737 0.757,3.584 0.257,0.847 0.287,1.074 1.391,0.892 1.104,-0.181 1.573,-1.527 1.844,1.891 0.273,3.417 -0.03,3.992 2.572,4.083 2.6,0.091 4.596,0.695 4.627,-2.269 0.03,-2.964 0.878,-5.837 1.089,-7.592 0.211,-1.753 0.605,-1.844 2.753,0.333 2.147,2.178 4.143,1.573 4.113,4.265 -0.03,2.692 -1.573,8.861 -0.182,9.285 1.391,0.423 2.419,1.603 4.083,0.242 1.663,-1.361 1.512,-1.542 3.115,-1.421 1.603,0.121 1.936,0.846 3.146,0.03 1.21,-0.817 -0.212,-4.204 2.238,-4.144 2.449,0.061 1.361,1.966 3.659,3.025 2.299,1.058 2.904,0.695 4.9,1.542 1.996,0.847 2.541,1.603 0.181,3.055 -2.359,1.452 -3.115,0.756 -4.234,0.696 -1.119,-0.061 -1.512,1.179 -0.091,3.538 1.422,2.359 1.119,2.541 3.57,2.541 2.449,0 3.387,1.149 4.083,-1.422 0.695,-2.57 0.967,-4.688 2.298,-5.383 1.33,-0.696 1.467,-1.074 2.352,0.695 0.884,1.77 1.701,2.745 2.336,3.857 0.635,1.111 0.658,2.586 2.382,1.95 1.723,-0.635 1.883,-1.481 2.426,-2.661 0.545,-1.18 0.212,-2.329 0,-3.751 -0.21,-1.421 -0.09,-2.147 1.846,-2.449 1.936,-0.303 2.087,0.604 2.449,2.42 0.364,1.814 0.091,3.78 2.541,4.384 2.45,0.606 1.3,-0.816 4.023,-1.21 2.722,-0.392 1.663,1.422 4.174,1.453 2.509,0.03 1.935,-2.511 4.566,-2.752 2.632,-0.243 2.087,1.058 4.84,1.905 2.752,0.847 3.326,-0.575 5.928,1.24 2.6,1.815 2.147,1.089 4.325,2.268 2.177,1.179 2.994,0.666 5.897,0.484 2.904,-0.182 3.388,-0.303 6.11,1.21 2.721,1.512 1.693,1.36 4.899,2.57 3.206,1.21 5.081,2.269 7.592,2.541 2.51,0.273 3.871,-0.333 5.564,0.908 1.695,1.24 1.059,1.723 3.812,1.754 2.752,0.03 2.752,-0.393 3.266,0.967 0.514,1.362 -1.421,3.539 1.331,3.509 2.752,-0.03 2.51,0 4.869,-1.845 2.359,-1.845 2.843,-1.028 4.93,-0.817 2.087,0.212 3.387,-0.332 4.567,1.089 1.179,1.422 1.028,1.846 -0.605,4.234 -1.633,2.39 -2.087,2.541 -1.694,5.081 0.394,2.541 1.513,2.178 2.783,2.208 1.27,0.031 1.815,0.152 2.903,-2.449 1.089,-2.601 2.783,-2.087 3.69,-4.113 0.907,-2.027 0.727,-2.814 -0.514,-3.6 -1.24,-0.786 -2.299,-1.27 -1.452,-2.511 0.847,-1.239 1.604,-1.693 3.146,-0.029 1.543,1.663 2.541,2.48 3.478,4.203 0.938,1.725 1.633,1.967 2.419,1.271 0.787,-0.696 2.117,-0.726 3.358,-2.238 1.24,-1.512 1.633,-2.692 2.662,-1.785 1.028,0.908 0.71,0.984 1.572,1.618 0.862,0.635 1.376,-0.151 2.646,0.877 1.271,1.029 1.089,1.075 -0.196,2.073 -1.286,0.998 -1.482,0.71 -1.482,2.827 0,2.117 -0.439,2.087 1.255,2.767 1.694,0.681 1.876,1.8 2.541,0.727 0.665,-1.074 1.315,-3.569 2.01,-3.176 0.697,0.393 2.194,0.514 1.982,1.618 -0.212,1.104 -0.756,1.89 0.635,2.193 1.391,0.303 1.557,0.59 2.375,0 0.816,-0.59 1.315,-0.545 1.103,-2.117 -0.212,-1.574 -1.149,-2.087 0.151,-3.312 1.301,-1.226 1.996,-1.527 2.208,-0.121 0.211,1.406 0.544,2.147 0.862,3.009 0.318,0.862 0.197,1.165 1.921,1.089 1.723,-0.076 2.404,0.212 3.357,0.106 0.952,-0.106 1.512,0.711 1.527,-0.56 0.015,-1.27 0.378,-1.119 1.391,-1.013 1.014,0.106 1.21,-0.393 2.178,1.905 0.968,2.299 0.242,3.206 2.087,3.252 1.844,0.045 2.042,0.121 1.588,-1.286 -0.454,-1.406 -1.089,-1.845 -0.772,-3.841 0.318,-1.996 0.03,-1.845 1.286,-2.359 1.255,-0.514 2.223,-0.469 2.419,0.469 0.197,0.938 0.757,1.195 1.165,2.102 0.408,0.907 -0.015,1.134 1.225,1.225 1.24,0.09 1.27,-0.061 2.374,0.696 1.104,0.756 1.165,0.635 2.888,0.756 1.724,0.121 1.77,-0.182 3.13,0 1.362,0.181 1.287,0.393 1.8,0.862 0.515,0.469 1.452,1.738 0.665,2.253 -0.786,0.514 -1.693,-0.212 -1.33,1.481 0.362,1.695 -0.469,1.483 0.877,1.604 1.346,0.121 1.588,-0.636 2.269,1.255 0.68,1.89 1.527,1.301 2.54,1.693 1.013,0.394 1.074,0.741 2.979,0.969 1.905,0.227 1.875,-0.121 2.948,0.77 1.075,0.893 2.723,0.348 4.734,0.576 2.012,0.226 1.648,-0.258 1.769,2.661 0.121,2.919 0.742,1.89 2.481,2.888 1.738,0.999 2.54,0.166 3.372,1.542 0.832,1.376 1.86,1.256 2.42,2.874 0.558,1.618 1.421,2.45 -0.848,2.828"/>
                </g>
                <g transform="translate(909.4336,817.8793)" id="g2237">
                  <path inkscape:connector-curvature="0" id="path2239" style="fill:#0082ca;fill-opacity:1;fill-rule:nonzero;stroke:none" d="M 0,0 C 0,0 -0.092,0.854 -0.254,1.339 -0.415,1.823 -0.716,2.123 -0.127,2.377 0.462,2.631 0.716,2.839 1.478,2.7 2.238,2.562 2.238,2.47 2.793,2.585 3.347,2.7 3.485,2.631 3.531,1.984 3.577,1.339 3.692,0.346 3.692,-0.254 3.692,-0.854 3.963,-1.164 3.484,-1.4 3.138,-1.571 2.77,-1.547 2.146,-1.615 1.523,-1.685 1.136,-1.662 0.729,-1.512 0.412,-1.395 0.08,-1.538 0,0"/>
                </g>
                <g transform="translate(1111.4482,888.3475)" id="g2241">
                  <path inkscape:connector-curvature="0" id="path2243" style="fill:#0082ca;fill-opacity:1;fill-rule:nonzero;stroke:none" d="m 0,0 c -0.238,-0.578 -0.964,-0.261 -1.281,-1.077 -0.318,-0.817 -0.394,-0.662 -2.012,-0.526 -1.617,0.136 -1.603,-0.363 -2.223,-0.544 -0.62,-0.182 -0.665,0.09 -1.814,0.105 -1.149,0.016 -0.983,-0.483 -1.497,-1.27 -0.515,-0.786 -0.814,-0.23 -0.988,-0.814 -0.176,-0.584 -0.853,-1.427 0.188,-1.809 1.04,-0.382 0.531,-0.276 1.147,-1.89 0.616,-1.614 0.254,-1.338 -0.425,-1.784 -0.68,-0.446 -1.508,-0.276 -2.655,-0.17 -1.147,0.106 -1.019,0.212 -1.487,0.637 -0.467,0.425 -0.117,0.956 -1.21,0.934 -0.736,-0.015 -1.274,0.489 -1.274,0.489 -0.323,0.424 -0.744,0.767 -0.892,1.379 -0.147,0.612 -0.298,0.579 -0.873,0.699 -0.574,0.121 -0.499,0.318 -0.604,1.709 -0.107,1.391 0.846,0.757 1.798,0.681 0.954,-0.076 0.802,-0.166 0.968,0.892 0.167,1.059 -0.287,0.741 -0.12,2.404 0.166,1.664 0.968,1.089 2.117,1.15 1.149,0.06 0.401,0.37 0.571,1.289 0.17,0.919 0.34,0.329 0.862,1.021 0.521,0.692 0.6,0.363 1.281,0.578 0.681,0.216 0.488,-0.079 1.01,-1.009 0.521,-0.93 0.249,-0.658 1.327,-0.692 1.077,-0.034 -0.012,1.066 1.043,1.225 1.055,0.159 0.665,-0.325 1.21,-0.93 0.544,-0.605 0.378,-0.983 1.073,-1.15 0.697,-0.166 0.757,-0.423 1.21,-0.029 0.454,0.393 0.303,0.423 1.044,0.892 0.74,0.468 0.847,0.362 1.845,0.544 C 0.337,3.115 0.337,3.373 0.397,1.845 0.458,0.318 0.238,0.579 0,0 m -238.629,-79.45 c -0.017,-0.508 -1.101,-0.068 -1.831,-0.407 -0.728,-0.339 -0.627,-0.916 -1.271,-0.61 -0.644,0.304 -1.221,0.271 -1.221,0.271 -0.77,0.104 -0.593,0.39 -0.645,1.085 -0.05,0.695 0.187,0.984 0.933,0.909 0.746,-0.074 0.61,-0.146 1.695,-0.079 1.086,0.069 1.001,0.136 1.798,0 0.797,-0.135 0.56,-0.661 0.542,-1.169 M 9.38,5.958 C 8.896,6.004 8.178,6.125 7.543,6.556 6.907,6.987 6.896,6.783 6.851,7.849 6.806,8.915 6.907,8.983 6.783,9.833 6.658,10.684 7.146,11.285 6.216,11.478 5.285,11.671 5.479,11.947 4.359,12.007 3.24,12.068 2.575,12.128 1.638,11.901 0.7,11.675 0.503,11.493 -0.843,11.523 c -1.345,0.031 -2.956,-0.26 -3.875,0.295 -0.919,0.556 -1.622,1.021 -3.47,0.998 -1.849,-0.023 -3.542,-0.128 -4.33,-0.189 -0.786,-0.06 -2.117,-0.196 -2.752,0.303 -0.634,0.499 -1.572,0.68 -2.041,1.134 -0.468,0.454 -1.119,0.567 -2.866,0.317 -1.746,-0.249 -2.596,-0.317 -3.481,-0.272 -0.885,0.046 -1.963,0.488 -2.371,-0.453 -0.408,-0.942 -0.249,-1.331 -1.247,-1.286 -0.998,0.046 -0.749,0.186 -1.101,0.764 -0.352,0.578 -0.499,0.624 -1.384,0.578 -0.885,-0.045 -2.188,-0.147 -3.262,-0.026 -1.074,0.121 -1.89,0.68 -2.389,-0.65 -0.499,-1.331 -1.618,-0.802 -2.526,-0.469 -0.907,0.332 -0.015,1.089 -1.346,1.573 -1.33,0.484 -0.907,0.393 -1.875,0.015 -0.968,-0.378 0,-0.968 -0.075,-2.314 -0.077,-1.346 0.317,-2.344 -0.166,-2.828 -0.485,-0.484 -0.969,-0.423 -2.375,-0.499 -1.407,-0.076 -1.815,-0.559 -2.631,0.635 -0.817,1.195 -0.605,0.998 -1.663,1.104 -1.059,0.106 -0.772,0.514 -1.105,0.923 -0.333,0.408 -0.499,0.211 -1.86,0.181 -1.361,-0.03 -1.489,0.62 -1.784,-2.17 -0.295,-2.79 0.159,-3.107 -1.792,-2.972 -1.951,0.137 -2.314,-0.748 -3.312,1.384 -0.998,2.132 -0.816,2.427 -1.974,2.382 -1.157,-0.045 -0.975,-0.885 -2.404,-1.248 -1.429,-0.362 -0.885,-0.839 -1.519,-1.202 -0.636,-0.363 -0.794,-0.363 -1.657,-0.227 -0.862,0.136 -1.747,-0.068 -1.315,0.907 0.431,0.976 0.839,-0.022 1.02,1.089 0.182,1.112 0.839,1.996 -0.204,2.019 -1.044,0.023 -1.723,-0.181 -2.745,-0.113 -1.02,0.068 -1.043,0.045 -1.202,-0.704 -0.158,-0.748 -0.885,-0.045 -1.134,-1.337 -0.25,-1.293 0.091,-1.679 -0.272,-2.314 -0.362,-0.636 -0.318,-0.499 -0.976,-0.704 -0.657,-0.204 -1.428,-0.113 -2.291,-0.022 -0.861,0.09 -0.249,0.499 -0.998,1.292 -0.748,0.794 0.121,1.143 -0.831,1.279 -0.953,0.136 -1.543,-0.016 -1.996,-0.061 -0.454,-0.045 -0.59,0.121 -0.848,-0.514 -0.256,-0.635 -0.317,-0.62 -0.74,-0.681 -0.424,-0.06 0.445,-1.27 -1.232,-1.27 -1.679,0 -2.201,0.318 -3.313,0.205 -1.111,-0.114 -1.746,0 -2.495,-0.999 -0.748,-0.998 -1.247,-0.272 -3.924,-0.499 -2.676,-0.227 -1.293,-0.975 -3.175,-1.179 -1.883,-0.204 -3.925,-0.409 -5.286,-0.341 -1.361,0.068 -1.179,-0.986 -1.848,-0.998 -0.67,-0.011 -4.412,-0.204 -5.819,-0.453 -1.406,-0.25 -1.361,-0.635 -2.563,-0.84 -1.202,-0.204 -2.042,0.023 -3.924,-0.589 -1.883,-0.613 -1.702,-0.794 -3.856,-0.772 -2.156,0.023 -1.929,-0.068 -3.289,0.068 -1.362,0.137 -1.044,0.272 -2.519,-0.816 -1.474,-1.089 -1.277,-1.467 -2.487,-1.664 -1.21,-0.196 -1.18,-0.181 -2.087,-0.665 -0.907,-0.484 -0.59,-0.423 -1.346,-1.149 -0.756,-0.726 0.136,-1.161 -0.85,-1.172 -0.988,-0.012 -1.952,0.181 -2.053,-0.137 -0.103,-0.317 -0.182,-1.534 -0.907,-1.443 -0.727,0.09 -1.301,-0.333 -1.513,0.12 -0.212,0.454 -0.741,0.424 -1.194,1.044 -0.455,0.62 -0.984,0.589 -1.376,1.179 -0.394,0.59 -0.258,0.605 -1.059,0.772 -0.802,0.166 -1.376,0.241 -1.846,-0.348 -0.468,-0.59 -0.604,-0.908 -1.572,-0.877 -0.968,0.03 -0.816,-0.303 -1.089,-0.983 -0.272,-0.681 -0.091,-0.62 -2.299,-0.514 -2.208,0.106 -3.175,0.226 -4.944,0.211 -1.77,-0.015 -3.705,0.288 -3.947,-0.393 -0.242,-0.681 -0.908,-1.059 -1.528,-2.374 -0.62,-1.316 -1.044,-0.817 -1.678,-2.11 -0.635,-1.293 -0.635,-0.635 -1.861,-1.315 -1.224,-0.681 -0.679,-0.114 -2.154,-0.522 -1.475,-0.409 -1.596,-0.559 -2.155,-0.181 -0.56,0.377 -0.908,0.211 -1.331,1.043 -0.423,0.832 -0.908,0.544 -1.255,1.165 -0.348,0.619 -0.56,0.543 -1.195,0.574 -0.635,0.03 -0.877,0.136 -1.406,-0.801 -0.529,-0.938 -0.151,-1.165 -1.785,-1.573 -1.633,-0.408 -2.631,0.045 -3.055,-0.636 -0.423,-0.68 -1.156,-0.68 -2.449,-1.406 -1.293,-0.726 -2.563,-0.862 -3.721,-1.701 -1.156,-0.839 -0.952,-1.225 -2.517,-1.633 -1.566,-0.408 -1.247,-0.182 -2.699,-1.021 -1.453,-0.839 -2.019,-0.227 -3.516,0 -1.497,0.227 -2.11,0.023 -3.357,0.749 -1.248,0.725 -1.747,0 -2.746,0.816 -0.998,0.817 -1.202,0.386 -2.426,0.227 -1.225,-0.159 -4.061,0.114 -15.085,-3.289 -11.024,-3.403 -107.157,-31.076 -141.273,-44.324 -34.116,-13.247 -66.78,-24.316 -109.062,-45.367 -42.282,-21.051 -56.376,-28.793 -66.78,-36.294 -10.405,-7.5 -8.079,-14.747 -5.588,-17.247 l 36.371,-36.509 c 0,0 -0.022,3.132 4.04,6.764 4.061,3.632 10.035,7.502 16.009,11.23 5.973,3.727 25.021,14.713 33.248,19.188 8.226,4.477 20.203,10.647 27.946,14.276 7.743,3.629 24.196,11.614 33.632,15.727 9.436,4.113 21.7,8.938 26.555,10.889 4.854,1.95 7.848,3.22 10.162,4.128 2.313,0.907 0.907,2.495 0.454,3.63 -0.454,1.133 -1.679,2.721 1.497,2.222 3.175,-0.499 4.446,-0.22 7.531,0.095 3.084,0.313 3.81,0.178 6.034,1.13 2.222,0.953 3.674,0.771 4.899,2.404 1.225,1.634 5.49,0.499 7.758,0.228 2.268,-0.273 4.083,-0.998 4.037,1.224 -0.045,2.223 -0.725,2.994 0.273,4.128 0.998,1.135 2.767,0.454 3.81,2.087 1.044,1.634 0.364,1.634 3.222,1.497 2.858,-0.136 5.399,0.241 7.667,0.319 2.193,0.074 0.938,1.083 3.085,1.36 1.793,0.232 1.034,0.19 2.032,2.595 0.998,2.405 1.053,1.806 3.457,1.352 2.405,-0.454 2.314,0.045 2.813,-1.361 0.499,-1.406 1.542,-0.952 3.085,-0.59 1.542,0.363 -0.136,2.677 3.039,2.904 3.176,0.227 2.994,-0.091 5.218,0 2.222,0.09 2.087,0.136 2.359,1.678 0.272,1.543 0.272,0.817 2.268,2.133 1.996,1.315 1.361,0.725 3.357,1.043 1.996,0.318 2.359,-0.817 2.677,1.815 0.317,2.631 0.39,2.596 2.795,2.051 2.404,-0.544 0.724,-1.538 2.373,-1.554 1.648,-0.014 2.711,0.97 4.133,2.86 1.42,1.89 0.052,-1.976 2.245,-2.11 2.192,-0.133 0.159,2.994 2.222,3.675 2.698,0.889 3.742,0.173 4.243,-1.406 0.454,-1.429 0.786,-1.701 2.389,-0.764 1.603,0.938 0.582,1.263 2.896,1.535 2.313,0.272 0.794,-0.658 4.174,0.023 3.379,0.68 1.361,1.111 3.878,1.519 2.518,0.409 2.178,-0.317 3.788,0.908 1.611,1.225 0.227,1.86 3.063,1.724 2.835,-0.137 1.928,0 2.269,1.451 0.339,1.452 0.294,1.588 1.587,1.588 1.293,0 1.134,0.431 2.201,-1.633 1.065,-2.064 1.542,-1.633 3.016,-0.749 1.475,0.885 -0.159,2.457 2.518,2.419 2.677,-0.037 1.815,-0.604 2.518,0.553 0.703,1.157 0.635,1.588 1.724,1.679 1.089,0.091 0.839,1.202 2.019,1.202 1.179,0 3.72,-0.59 3.697,0.725 -0.023,1.317 0.431,1.293 -0.362,1.77 -0.794,0.477 -0.999,0.477 -0.75,1.543 0.25,1.065 0.273,1.02 0.908,1.065 0.635,0.046 1.588,-0.249 1.678,0.681 0.091,0.93 -0.158,1.021 1.997,0.816 2.155,-0.204 2.427,0.272 3.856,0.091 1.429,-0.181 1.452,0.228 1.679,-0.839 0.226,-1.066 0.68,-0.635 1.996,-0.612 1.315,0.023 1.459,-0.432 2.457,0.265 0.998,0.695 -0.635,1.255 1.86,1.164 2.495,-0.091 2.661,0.333 3.554,-0.378 0.892,-0.711 1.119,-0.394 1.905,-1.588 0.786,-1.194 1.15,-0.484 1.604,-0.061 0.453,0.424 1.511,0.53 0.725,1.271 -0.786,0.741 -0.968,1.603 -2.147,1.92 -1.18,0.318 -1.271,0.363 -2.344,0.817 -1.074,0.453 -2.359,0.363 -3.055,0.619 -0.696,0.258 -1.044,-0.332 -1.089,1.029 -0.045,1.361 -0.166,0.969 -0.211,2.254 -0.045,1.285 -0.348,1.36 0.242,1.905 0.59,0.544 0.014,1.149 1.678,1.103 1.664,-0.044 2.737,0.439 3.07,-0.574 0.333,-1.013 0.167,-1.315 0.333,-2.45 0.166,-1.134 -0.681,-1.603 1.134,-1.845 1.814,-0.242 1.179,-0.604 2.45,-0.604 1.27,0 1.588,-0.424 1.663,0.65 0.076,1.073 0.242,1.346 0.575,2.616 0.332,1.27 -0.636,1.346 1.981,1.587 2.616,0.243 4.529,-0.445 4.71,0.099 0.182,0.545 -0.43,1.61 1.248,1.61 1.678,0 1.361,-0.59 3.561,0 2.2,0.59 2.087,0.454 2.337,1.317 0.249,0.861 0.067,1.677 1.928,1.542 1.86,-0.136 3.425,-0.129 5.489,0.014 2.064,0.145 4.265,0.197 5.648,0 1.384,-0.196 0.908,-0.241 2.692,-0.499 1.785,-0.256 1.347,-0.135 2.555,-0.241 1.21,-0.106 1.861,-0.59 2.027,0.075 0.167,0.666 1.24,0.166 1.407,1.014 0.166,0.847 0.154,1.213 0.393,2.12 0.238,0.908 0.612,1.101 -0.204,1.282 -0.817,0.182 -1.18,0.386 -1.894,0.374 -0.715,-0.01 -0.953,0.409 -1.35,-0.521 -0.397,-0.93 -0.34,-0.942 -1.179,-0.749 -0.84,0.193 -1.362,-0.386 -2.212,0.488 -0.851,0.873 -0.307,0.578 -1.293,1.259 -0.987,0.681 -0.806,0.453 -1.6,0.601 -0.794,0.147 -1.077,0.023 -1.02,0.646 0.056,0.624 0.011,0.67 0.555,0.828 0.545,0.159 0.239,0.715 0.84,0.942 0.601,0.227 0.851,0.464 1.27,-0.17 0.42,-0.635 0.147,-0.715 1.327,-0.794 1.18,-0.079 1.769,-0.114 3.051,-0.012 1.282,0.102 1.622,-0.033 2.495,0.272 0.874,0.307 0.919,0.307 1.327,0.806 0.408,0.499 1.236,0.204 2.268,0.227 1.033,0.022 2.461,0.306 2.552,-0.397 0.091,-0.704 -0.238,-1.191 1.667,-0.806 1.906,0.386 3.04,0.613 4.038,0.295 0.998,-0.317 1.588,-0.022 1.928,-0.929 0.341,-0.908 0.953,-0.818 1.43,-0.137 0.476,0.681 1.247,0.432 1.02,1.656 -0.226,1.225 -0.839,2.54 0.25,2.699 1.088,0.16 1.588,0.659 2.744,0.182 1.158,-0.476 1.339,0.067 2.541,-0.703 1.203,-0.772 1.27,-0.477 2.586,-1.248 1.316,-0.772 1.633,-0.522 2.45,-0.681 0.816,-0.158 0.953,-0.18 1.52,-0.952 0.566,-0.771 1.134,-0.227 2.699,-0.295 1.565,-0.068 1.769,-0.521 2.019,0.158 0.249,0.681 0.181,0.704 1.384,0.998 1.202,0.295 0.884,0.432 1.792,0.909 0.907,0.475 0.998,0.226 2.404,0.544 1.406,0.317 1.066,0.832 1.747,1.179 0.68,0.348 1.708,-0.181 3.417,0.681 1.709,0.861 1.392,0.839 3.456,0.77 2.064,-0.067 1.973,-0.499 2.79,1.317 0.816,1.814 -0.636,2.473 1.973,2.473 2.609,0 3.138,-0.538 5.165,0 2.026,0.536 2.208,0.113 3.206,0.657 0.998,0.545 1.179,0.816 3.931,0.695 2.752,-0.12 4.9,-0.483 6.049,0.454 1.15,0.938 1.089,1.089 3.237,1.18 2.147,0.091 1.451,0.786 5.111,1.27 3.659,0.484 4.174,0.605 5.928,0.786 1.754,0.182 1.24,0 2.57,1.21 1.331,1.21 3.146,1.149 8.317,1.301 5.172,0.151 3.328,2.631 6.594,2.631 3.267,0 4.839,0.151 6.624,0.242 1.784,0.091 1.845,0.453 1.936,1.179 0.091,0.727 0.665,0.938 1.058,2.632 0.393,1.694 0.272,1.905 1.482,1.754 1.21,-0.151 1.512,0.424 1.694,-1.391 0.181,-1.815 0.332,-1.785 1.058,-1.754 0.726,0.029 1.573,-0.424 1.573,0.967 0,1.392 -0.484,2.147 1.663,1.906 2.147,-0.242 2.057,0.453 2.964,-0.635 0.908,-1.089 0.817,-1.089 2.057,-0.908 1.24,0.182 0.393,1.714 1.876,1.855 1.481,0.141 1.451,0.797 2.328,0 0.877,-0.796 0.666,-1.643 3.024,-1.734 2.359,-0.09 2.117,0.151 3.297,0.817 1.18,0.665 1.573,0.129 1.27,1.304 -0.302,1.176 -0.665,0.541 -2.268,1.115 -1.603,0.575 -1.392,0.635 -0.665,1.755 0.725,1.119 0.242,1.21 1.436,1.33 1.195,0.121 1.286,-0.287 1.482,0.696 0.197,0.983 0.454,0.469 1.846,1.089 1.39,0.62 1.239,0.06 2.297,1.845 1.059,1.784 0.681,1.693 2.406,1.633 1.723,-0.061 1.738,-0.605 2.419,0.711 0.68,1.315 0.68,0.892 2.253,1.467 1.573,0.574 2.253,0.256 2.556,1.194 0.302,0.938 0.589,1.331 0.196,2.374 -0.393,1.044 -0.011,1.036 -1.088,2.114 -1.078,1.077 -1.532,1.247 -1.158,1.996 0.375,0.748 0.069,0.748 0.828,1.576 0.76,0.828 0.75,1.01 1.407,0.636 0.658,-0.375 1.452,0.124 1.803,-0.987 0.352,-1.112 0.681,-1.078 0.783,-2.473 0.102,-1.395 0.385,-1.27 0.533,-2.245 0.147,-0.976 0.238,-0.862 0.669,-0.828 0.431,0.034 0.329,1.111 0.726,2.053 0.397,0.941 0.412,2.604 0.73,4.328 C 9.531,2.979 9.622,3.206 9.637,4.053 9.652,4.9 9.864,5.913 9.38,5.958"/>
                </g>
                <g transform="translate(1124.4326,895.8783)" id="g2245">
                  <path inkscape:connector-curvature="0" id="path2247" style="fill:#0082ca;fill-opacity:1;fill-rule:nonzero;stroke:none" d="m 0,0 c 0,0 -0.169,0.433 -0.753,1.092 -0.584,0.659 -0.357,0.565 -0.433,2.09 -0.076,1.525 -0.038,2.24 0.207,2.391 0.245,0.15 1.018,-0.006 1.14,0.509 C 0.284,6.596 0.039,6.841 0.872,6.621 1.705,6.4 1.423,6.486 1.521,5.641 1.619,4.795 1.484,4.453 1.398,3.129 1.312,1.807 1.374,1.99 1.681,1.525 1.986,1.06 2.121,1.01 2.66,0.827 3.199,0.643 3.138,0.569 3.396,0.067 3.652,-0.435 4.057,0.018 4.437,-0.606 c 0.379,-0.625 0.477,-1.079 1.224,-0.503 0.748,0.576 0.404,0.612 1.201,0.98 0.796,0.368 0.429,0.662 1.189,1.103 0.759,0.441 1.138,0.183 1.555,0.637 0.416,0.453 0.368,0.808 0.796,1.543 0.429,0.735 0.392,0.894 1.139,0.723 0.748,-0.172 1.201,0.024 1.14,-1.004 C 12.619,1.843 12.767,1.598 12.007,1.341 11.247,1.084 11.762,0.814 10.893,0.03 10.022,-0.753 10.022,-0.95 9.472,-1.452 8.92,-1.954 8.81,-2.048 8.45,-2.604 8.091,-3.159 7.471,-2.946 6.687,-2.979 5.902,-3.012 5.882,-2.726 5.404,-3.179 4.927,-3.632 4.865,-3.387 4.645,-3.877 4.425,-4.367 4.571,-4.723 3.677,-4.379 2.783,-4.037 2.109,-4.661 1.852,-3.877 1.595,-3.093 1.546,-3.302 1.497,-2.444 1.447,-1.586 1.325,-1.427 0.884,-1.268 0.443,-1.109 0.455,-1.06 0.309,-0.644 0.161,-0.227 0.249,-0.443 0,0"/>
                </g>
                <g transform="translate(1136.5049,886.6171)" id="g2249">
                  <path inkscape:connector-curvature="0" id="path2251" style="fill:#0082ca;fill-opacity:1;fill-rule:nonzero;stroke:none" d="m 0,0 c 0,0 0.389,-0.389 0.56,-0.845 0.171,-0.457 0.491,-0.252 1.405,0 0.913,0.251 0.548,1.016 0.662,1.587 C 2.741,1.313 2.547,1.645 2.513,2.101 2.479,2.558 2.318,2.558 1.827,2.718 1.336,2.878 1.028,2.707 0.525,2.718 0.023,2.729 0.077,2.798 -0.247,2.398 -0.571,1.999 -0.569,1.817 -0.411,1.484 -0.08,0.788 -0.616,0.799 0,0"/>
                </g>
                <g transform="translate(817.2979,890.0712)" id="g2253">
                  <path inkscape:connector-curvature="0" id="path2255" style="fill:#eb0045;fill-opacity:1;fill-rule:nonzero;stroke:none" d="M 0,0 0.022,0.001 H -0.001 C 0,0.001 0,0 0,0"/>
                </g>
                <g transform="translate(561.6089,1214.0394)" id="g2257">
                  <path inkscape:connector-curvature="0" id="path2259" style="fill:#eb0045;fill-opacity:1;fill-rule:nonzero;stroke:none" d="m 0,0 c 11.827,-20.638 28.751,-37.549 49.5,-50.582 26.274,-16.505 58.675,-26.789 94.633,-30.523 -3.126,17.166 -5.398,34.126 -6.923,50.846 -1.171,12.85 -1.877,25.548 -2.202,38.091 -0.043,1.66 -0.074,3.315 -0.103,4.969 -0.567,32.376 1.507,63.643 5.517,93.452 0.224,1.665 0.469,3.314 0.704,4.97 4.721,33.14 11.768,64.454 20.135,93.451 0.482,1.669 0.975,3.317 1.465,4.971 8.655,29.203 18.585,56.017 28.72,79.908 32.737,77.168 67.497,124.058 67.497,124.058 C 175.676,356.859 117.916,299.674 78.313,241.105 71.254,230.666 64.775,220.181 58.828,209.647 l -136.423,0.004 v -4.97 l 133.669,-0.004 c -16.808,-30.68 -29.15,-61.786 -38.026,-93.45 l -95.643,0.002 v -4.969 l 94.281,-0.003 C 10.093,81.704 5.534,56.813 2.547,31.521 1.802,25.208 1.222,18.976 0.767,12.805 l -78.362,0.003 V 7.838 L 0.413,7.836 C 0.25,5.211 0.112,2.599 0,0"/>
                </g>
                <g transform="translate(1030.5625,1029.996)" id="g2261">
                  <path inkscape:connector-curvature="0" id="path2263" style="fill:#eb0045;fill-opacity:1;fill-rule:nonzero;stroke:none" d="m 0,0 c 14.692,30.047 23.164,61.835 27.441,93.442 l 80.783,-0.003 v 4.97 l -80.145,0.002 c 2.64,21.698 3.354,43.264 2.782,64.072 -0.264,9.619 -0.375,19.466 -0.736,29.381 l 78.099,-0.002 v 4.97 l -78.302,0.001 c -0.345,7.448 -0.866,14.919 -1.754,22.35 -1.831,-6.937 -4.534,-14.448 -8.091,-22.349 -0.738,-1.64 -1.515,-3.297 -2.327,-4.969 -14.223,-29.271 -39.818,-63.25 -76.755,-93.451 -2.042,-1.67 -4.132,-3.324 -6.243,-4.969 -40.04,-31.199 -92.522,-57.73 -157.412,-69.794 2.569,-7.853 5.389,-15.737 8.419,-23.644 0.635,-1.656 1.258,-3.311 1.913,-4.969 16.067,-40.623 38.521,-81.888 69.724,-123.348 17.601,6.075 35.18,14.688 52.445,26.218 40.959,27.351 68.971,60.875 87.657,97.123 l 110.747,-0.003 v 4.969 z"/>
                </g>
                <g transform="translate(733.771,1030.0052)" id="g2265">
                  <path inkscape:connector-curvature="0" id="path2267" style="fill:#eb0045;fill-opacity:1;fill-rule:nonzero;stroke:none" d="m 0,0 c -2.356,6.441 -4.541,12.815 -6.583,19.116 -77.085,6.892 -125.706,46.658 -150.696,74.331 -1.54,1.705 -2.999,3.367 -4.361,4.97 -2.261,2.662 -4.292,5.178 -6.069,7.48 0.408,-2.511 0.842,-5.004 1.298,-7.48 l -83.346,0.002 V 93.45 l 84.316,-0.003 c 6.923,-34.782 18.557,-66.06 33.276,-93.443 l -117.57,0.003 v -4.969 l 120.297,-0.003 c 16.993,-30.303 37.757,-55.646 59.978,-75.436 38.268,-34.083 93.37,-59.156 152.986,-59.532 C 41.828,-92.749 17.894,-47.407 1.85,-4.969 1.222,-3.309 0.604,-1.652 0,0"/>
                </g>
                <g transform="translate(794.0098,1418.7118)" id="g2269">
                  <path inkscape:connector-curvature="0" id="path2271" style="fill:#eb0045;fill-opacity:1;fill-rule:nonzero;stroke:none" d="m 0,0 c -6.744,-29.548 -11.913,-60.757 -14.91,-93.452 -0.152,-1.656 -0.313,-3.305 -0.454,-4.969 -2.531,-29.958 -3.206,-61.155 -1.585,-93.453 0.083,-1.653 0.174,-3.31 0.269,-4.969 0.372,-6.484 0.822,-13.006 1.384,-19.577 1.877,-21.917 4.839,-44.314 9.019,-67.152 15.031,2.207 30.301,5.372 45.677,9.537 59.402,16.091 106.605,43.639 139.909,77.186 1.631,1.643 3.236,3.298 4.8,4.969 7.992,8.538 15.116,17.432 21.327,26.603 14.337,21.172 23.849,43.804 28.218,66.848 l 111.122,-0.003 v 4.969 l -110.255,0.004 c 3.483,22.175 2.2,44.662 -4.165,66.534 -10.773,-46.287 -39.649,-62.038 -50.948,-66.533 h -3.884 c 16.357,33.341 23.961,64.915 26.233,93.452 L 344.776,-0.01 v 4.97 l -142.66,0.004 c 0.393,6.664 0.508,13.161 0.372,19.459 -1.499,69.32 -32.325,115.409 -32.325,115.409 1.775,-50.829 -20.534,-49.314 -25.098,-49.076 -5.62,0.293 -28.892,10.972 -27.632,77.369 1.521,80.125 42.674,152.987 42.674,152.987 0,0 -79.74,-85.644 -132.464,-228.358 C 17.578,65.51 8.508,36.175 1.156,4.97 0.767,3.318 0.38,1.663 0,0"/>
                </g>
                <g transform="translate(713.6104,316.0306)" id="g2273">
                  <path inkscape:connector-curvature="0" id="path2275" style="fill:#ffc72a;fill-opacity:1;fill-rule:nonzero;stroke:none" d="m 0,0 c 1.694,0 3.369,-0.079 5.034,-0.193 1.552,-0.107 3.09,-0.262 4.612,-0.464 6.761,-0.899 13.227,-2.72 19.266,-5.347 1.809,-0.786 3.581,-1.64 5.309,-2.565 16.71,-8.954 29.505,-24.257 35.159,-42.69 6.22,-3.112 12.976,-5.313 20.103,-6.395 -5.346,32.304 -27.752,58.841 -57.665,70.046 -1.472,0.55 -2.959,1.069 -4.466,1.546 -5.749,1.815 -11.743,3.078 -17.923,3.716 -1.491,0.154 -2.992,0.269 -4.503,0.35 -1.632,0.088 -3.273,0.138 -4.926,0.138 -1.653,0 -3.294,-0.05 -4.925,-0.138 0.242,-2.772 0.39,-5.569 0.39,-8.404 0,-3.306 -0.17,-6.574 -0.499,-9.793 C -3.369,-0.079 -1.694,0 0,0"/>
                </g>
                <g transform="translate(785.6064,234.5179)" id="g2277">
                  <path inkscape:connector-curvature="0" id="path2279" style="fill:#ffc72a;fill-opacity:1;fill-rule:nonzero;stroke:none" d="m 0,0 c -4.413,-35.852 -34.952,-63.617 -71.996,-63.617 -37.044,0 -67.584,27.765 -71.996,63.616 -0.188,1.524 -0.337,3.06 -0.429,4.612 -0.084,1.436 -0.14,2.879 -0.14,4.337 0,5.359 0.598,10.575 1.701,15.604 0.423,1.929 0.911,3.834 1.484,5.702 5.654,18.433 18.449,33.735 35.16,42.689 1.6,5.787 2.473,11.874 2.473,18.169 0,0.937 -0.033,1.866 -0.07,2.792 -29.914,-11.204 -52.319,-37.741 -57.666,-70.046 -0.254,-1.538 -0.471,-3.088 -0.647,-4.653 -0.38,-3.368 -0.594,-6.787 -0.594,-10.257 0,-2.717 0.142,-5.398 0.376,-8.053 0.133,-1.514 0.303,-3.015 0.51,-4.506 6.12,-44.149 43.998,-78.147 89.838,-78.147 45.841,0 83.718,33.998 89.838,78.147 C 11.701,-2.975 5.738,-1.748 0,0"/>
                </g>
                <g transform="translate(704.1821,333.6849)" id="g2281">
                  <path inkscape:connector-curvature="0" id="path2283" style="fill:#0082ca;fill-opacity:1;fill-rule:nonzero;stroke:none" d="m 0,0 c -0.133,1.513 -0.304,3.015 -0.511,4.505 -6.119,44.148 -43.997,78.147 -89.838,78.147 -50.105,0 -90.723,-40.611 -90.723,-90.707 0,-50.094 40.618,-90.706 90.723,-90.706 1.654,0 3.295,0.051 4.926,0.138 -0.243,2.771 -0.39,5.57 -0.39,8.404 0,3.307 0.17,6.573 0.499,9.793 -1.665,-0.114 -3.34,-0.193 -5.035,-0.193 -40.076,0 -72.565,32.488 -72.565,72.564 0,40.077 32.489,72.566 72.565,72.566 37.045,0 67.584,-27.766 71.996,-63.616 0.188,-1.525 0.338,-3.06 0.429,-4.612 0.085,-1.436 0.14,-2.88 0.14,-4.338 0,-5.358 -0.597,-10.575 -1.7,-15.603 -0.423,-1.929 -0.912,-3.834 -1.485,-5.702 -5.654,-18.432 -18.448,-33.735 -35.159,-42.69 -1.6,-5.786 -2.473,-11.874 -2.473,-18.169 0,-0.936 0.033,-1.864 0.07,-2.792 29.914,11.205 52.319,37.742 57.665,70.046 0.255,1.539 0.472,3.09 0.648,4.653 0.38,3.369 0.593,6.788 0.593,10.257 C 0.375,-5.338 0.234,-2.656 0,0"/>
                </g>
                <g transform="translate(985.1602,234.517)" id="g2285">
                  <path inkscape:connector-curvature="0" id="path2287" style="fill:#00953b;fill-opacity:1;fill-rule:nonzero;stroke:none" d="m 0,0 c -4.412,-35.851 -34.952,-63.616 -71.996,-63.616 -37.044,0 -67.583,27.765 -71.996,63.616 -0.188,1.524 -0.337,3.06 -0.429,4.612 -0.084,1.436 -0.14,2.879 -0.14,4.337 0,5.359 0.598,10.575 1.701,15.604 0.423,1.929 0.911,3.834 1.484,5.702 5.654,18.433 18.449,33.735 35.159,42.689 1.601,5.786 2.474,11.874 2.474,18.169 0,0.937 -0.033,1.866 -0.07,2.792 -29.915,-11.204 -52.319,-37.741 -57.666,-70.046 -0.254,-1.538 -0.471,-3.088 -0.647,-4.653 -0.38,-3.368 -0.594,-6.787 -0.594,-10.257 0,-2.717 0.142,-5.398 0.376,-8.053 0.133,-1.514 0.303,-3.015 0.51,-4.506 6.12,-44.149 43.997,-78.147 89.838,-78.147 45.841,0 83.718,33.998 89.838,78.147 C 11.701,-2.974 5.737,-1.747 0,0"/>
                </g>
                <g transform="translate(913.1641,316.0306)" id="g2289">
                  <path inkscape:connector-curvature="0" id="path2291" style="fill:#00953b;fill-opacity:1;fill-rule:nonzero;stroke:none" d="m 0,0 c 1.694,0 3.369,-0.079 5.034,-0.193 1.552,-0.107 3.089,-0.262 4.612,-0.464 6.761,-0.899 13.227,-2.72 19.266,-5.347 1.809,-0.786 3.581,-1.64 5.309,-2.565 16.711,-8.954 29.506,-24.257 35.159,-42.69 6.221,-3.112 12.975,-5.313 20.102,-6.395 -5.345,32.304 -27.751,58.841 -57.665,70.046 -1.471,0.55 -2.958,1.069 -4.464,1.546 -5.749,1.815 -11.744,3.078 -17.924,3.716 -1.491,0.154 -2.992,0.269 -4.503,0.35 -1.632,0.088 -3.273,0.138 -4.926,0.138 -1.653,0 -3.294,-0.05 -4.926,-0.138 0.243,-2.772 0.391,-5.569 0.391,-8.404 0,-3.306 -0.17,-6.574 -0.499,-9.793 C -3.369,-0.079 -1.694,0 0,0"/>
                </g>
                <g transform="translate(813.3872,253.0658)" id="g2293">
                  <path inkscape:connector-curvature="0" id="path2295" style="fill:#2d2a26;fill-opacity:1;fill-rule:nonzero;stroke:none" d="m 0,0 c -1.694,0 -3.369,0.079 -5.034,0.193 -1.551,0.107 -3.089,0.262 -4.612,0.464 -6.761,0.9 -13.227,2.72 -19.266,5.347 -1.808,0.786 -3.58,1.64 -5.308,2.565 -16.711,8.955 -29.506,24.258 -35.16,42.69 -6.22,3.113 -12.975,5.313 -20.102,6.395 5.346,-32.303 27.751,-58.841 57.665,-70.046 1.471,-0.55 2.958,-1.069 4.465,-1.545 5.749,-1.815 11.743,-3.079 17.923,-3.716 1.491,-0.155 2.992,-0.27 4.504,-0.351 1.631,-0.087 3.272,-0.138 4.925,-0.138 1.653,0 3.294,0.051 4.926,0.138 -0.243,2.772 -0.391,5.57 -0.391,8.404 0,3.307 0.17,6.574 0.499,9.793 C 3.369,0.079 1.694,0 0,0"/>
                </g>
                <g transform="translate(903.7354,333.6849)" id="g2297">
                  <path inkscape:connector-curvature="0" id="path2299" style="fill:#2d2a26;fill-opacity:1;fill-rule:nonzero;stroke:none" d="m 0,0 c -0.133,1.513 -0.304,3.015 -0.511,4.505 -6.119,44.148 -43.997,78.147 -89.837,78.147 -45.84,0 -83.718,-33.999 -89.838,-78.147 6.141,-0.637 12.104,-1.863 17.842,-3.61 4.412,35.85 34.951,63.616 71.996,63.616 37.044,0 67.583,-27.766 71.996,-63.616 0.188,-1.525 0.337,-3.06 0.429,-4.612 0.084,-1.436 0.14,-2.88 0.14,-4.338 0,-5.358 -0.598,-10.575 -1.7,-15.603 -0.423,-1.929 -0.912,-3.834 -1.485,-5.702 -5.654,-18.432 -18.449,-33.735 -35.16,-42.69 -1.6,-5.786 -2.473,-11.874 -2.473,-18.169 0,-0.936 0.033,-1.864 0.071,-2.792 29.913,11.205 52.318,37.742 57.665,70.046 0.254,1.539 0.471,3.09 0.647,4.653 0.38,3.369 0.594,6.788 0.594,10.257 C 0.376,-5.338 0.234,-2.656 0,0"/>
                </g>
                <g transform="translate(1012.9414,416.3373)" id="g2301">
                  <path inkscape:connector-curvature="0" id="path2303" style="fill:#eb0045;fill-opacity:1;fill-rule:nonzero;stroke:none" d="m 0,0 c -45.841,0 -83.719,-33.999 -89.838,-78.147 6.14,-0.637 12.104,-1.864 17.842,-3.611 4.412,35.851 34.951,63.616 71.996,63.616 40.076,0 72.564,-32.488 72.564,-72.565 0,-40.076 -32.488,-72.564 -72.564,-72.564 -1.694,0 -3.369,0.079 -5.034,0.193 -1.552,0.106 -3.09,0.262 -4.612,0.464 -6.761,0.899 -13.227,2.719 -19.267,5.346 -1.808,0.787 -3.58,1.64 -5.308,2.566 -16.711,8.955 -29.506,24.258 -35.159,42.689 -6.221,3.114 -12.976,5.314 -20.103,6.396 5.346,-32.304 27.752,-58.841 57.665,-70.046 1.471,-0.551 2.959,-1.069 4.465,-1.545 5.749,-1.815 11.744,-3.079 17.924,-3.717 1.491,-0.154 2.992,-0.269 4.503,-0.35 1.631,-0.087 3.273,-0.138 4.926,-0.138 50.104,0 90.724,40.611 90.724,90.706 C 90.724,-40.611 50.104,0 0,0"/>
                </g>
                <g transform="translate(1034.0156,183.14)" id="g2305">
                  <path inkscape:connector-curvature="0" id="path2307" style="fill:#eb0045;fill-opacity:1;fill-rule:nonzero;stroke:none" d="m 0,0 c -7.326,0 -13.266,5.939 -13.266,13.266 0,7.327 5.94,13.266 13.266,13.266 7.326,0 13.266,-5.939 13.266,-13.266 C 13.266,5.939 7.326,0 0,0 m 0,28.789 c -8.573,0 -15.522,-6.95 -15.522,-15.523 0,-8.573 6.949,-15.523 15.522,-15.523 8.573,0 15.522,6.95 15.522,15.523 0,8.573 -6.949,15.523 -15.522,15.523"/>
                </g>
                <g transform="translate(1030.1367,202.7269)" id="g2309">
                  <path inkscape:connector-curvature="0" id="path2311" style="fill:#eb0045;fill-opacity:1;fill-rule:nonzero;stroke:none" d="m 0,0 v -5.571 h 4.415 c 1.224,0 2.213,0.256 2.97,0.766 0.757,0.513 1.136,1.189 1.136,2.032 0,0.841 -0.379,1.515 -1.136,2.018 C 6.628,-0.252 5.639,0 4.415,0 Z m -2.799,2.006 h 6.965 c 2.198,0 3.96,-0.434 5.288,-1.301 1.326,-0.866 1.989,-2.026 1.989,-3.478 0,-1.123 -0.409,-2.081 -1.227,-2.873 -0.82,-0.792 -1.954,-1.346 -3.405,-1.66 l 4.973,-6.561 H 8.552 l -4.665,6.29 H 0 v -6.29 h -2.799 z"/>
                </g>
                <g transform="translate(1338.082,476.5179)" id="g2313">
                  <path inkscape:connector-curvature="0" id="path2315" style="fill:#0082ca;fill-opacity:1;fill-rule:nonzero;stroke:none" d="m 0,0 c -6.826,0 -12.359,5.534 -12.359,12.36 0,6.827 5.533,12.361 12.359,12.361 6.826,0 12.359,-5.534 12.359,-12.361 C 12.359,5.534 6.826,0 0,0 m 0,26.823 c -7.987,0 -14.463,-6.475 -14.463,-14.463 0,-7.988 6.476,-14.464 14.463,-14.464 7.987,0 14.463,6.476 14.463,14.464 0,7.988 -6.476,14.463 -14.463,14.463"/>
                </g>
                <g transform="translate(1334.3535,494.9183)" id="g2317">
                  <path inkscape:connector-curvature="0" id="path2319" style="fill:#0082ca;fill-opacity:1;fill-rule:nonzero;stroke:none" d="m 0,0 v -5.333 h 4.227 c 1.17,0 2.117,0.245 2.841,0.734 0.725,0.491 1.087,1.138 1.087,1.944 0,0.806 -0.362,1.451 -1.087,1.932 C 6.344,-0.241 5.397,0 4.227,0 Z m -2.679,1.92 h 6.667 c 2.104,0 3.79,-0.415 5.061,-1.245 1.269,-0.829 1.905,-1.94 1.905,-3.33 0,-1.074 -0.392,-1.991 -1.176,-2.75 C 8.993,-6.163 7.908,-6.692 6.52,-6.993 l 4.759,-6.28 H 8.186 l -4.465,6.02 H 0 v -6.02 h -2.679 z"/>
                </g>
                <g transform="translate(1012.6396,932.4501)" id="g2321">
                  <path inkscape:connector-curvature="0" id="path2323" style="fill:#eb0045;fill-opacity:1;fill-rule:nonzero;stroke:none" d="m 0,0 c -6.824,0 -12.355,5.532 -12.355,12.356 0,6.824 5.531,12.356 12.355,12.356 6.824,0 12.355,-5.532 12.355,-12.356 C 12.355,5.532 6.824,0 0,0 m 0,26.814 c -7.985,0 -14.458,-6.473 -14.458,-14.458 0,-7.985 6.473,-14.459 14.458,-14.459 7.984,0 14.458,6.474 14.458,14.459 0,7.985 -6.474,14.458 -14.458,14.458"/>
                </g>
                <g transform="translate(1008.9111,950.8461)" id="g2325">
                  <path inkscape:connector-curvature="0" id="path2327" style="fill:#eb0045;fill-opacity:1;fill-rule:nonzero;stroke:none" d="m 0,0 v -5.333 h 4.226 c 1.171,0 2.118,0.245 2.842,0.734 0.725,0.491 1.087,1.138 1.087,1.944 0,0.806 -0.362,1.451 -1.087,1.932 C 6.344,-0.241 5.397,0 4.226,0 Z m -2.68,1.92 h 6.667 c 2.105,0 3.79,-0.415 5.062,-1.245 1.268,-0.829 1.904,-1.94 1.904,-3.33 0,-1.074 -0.392,-1.991 -1.176,-2.75 -0.785,-0.758 -1.87,-1.287 -3.258,-1.588 l 4.76,-6.28 H 8.186 L 3.721,-7.252 H 0 v -6.021 h -2.68 z"/>
                </g>
              </g>
            </g>
          </g>
        </g>
      </g>
    </g>
  </g>
</svg>