<?xml version="1.0" encoding="UTF-8" standalone="no"?>
<!-- Created with Inkscape (http://www.inkscape.org/) -->
<svg xmlns:dc="http://purl.org/dc/elements/1.1/" xmlns:cc="http://creativecommons.org/ns#" xmlns:rdf="http://www.w3.org/1999/02/22-rdf-syntax-ns#" xmlns:svg="http://www.w3.org/2000/svg" xmlns="http://www.w3.org/2000/svg" xmlns:sodipodi="http://sodipodi.sourceforge.net/DTD/sodipodi-0.dtd" xmlns:inkscape="http://www.inkscape.org/namespaces/inkscape" width="60.75732mm" height="76.729164mm" viewBox="0 0 60.757321 76.729164" version="1.1" id="svg8" inkscape:version="0.92.4 (5da689c313, 2019-01-14)" sodipodi:docname="1994_Winter_Olympics_logo.svg">
  <defs id="defs2">
    <style id="style70">.cls-1{fill:#c12a21;}.cls-2{fill:#1e1712;}</style>
    <style id="style272">.cls-1{fill:#6dac3b;}.cls-2{fill:#dd463c;}.cls-3{fill:#f3cc23;}.cls-4{fill:#0090da;}.cls-5{fill:#1e1712;}.cls-6{fill:#001388;}.cls-7{fill:#fff;}</style>
    <clipPath id="clipPath580" clipPathUnits="userSpaceOnUse">
      <path inkscape:connector-curvature="0" id="path578" d="M 0,896.65 H 1668.95 V 0 H 0 Z"/>
    </clipPath>
    <clipPath id="clipPath609" clipPathUnits="userSpaceOnUse">
      <path inkscape:connector-curvature="0" id="path607" d="M 0,896.65 H 1668.95 V 0 H 0 Z"/>
    </clipPath>
    <clipPath id="clipPath621" clipPathUnits="userSpaceOnUse">
      <path inkscape:connector-curvature="0" id="path619" d="M 0,896.65 H 1668.95 V 0 H 0 Z"/>
    </clipPath>
    <clipPath id="clipPath953" clipPathUnits="userSpaceOnUse">
      <path inkscape:connector-curvature="0" id="path951" d="M 0,1829.696 H 1668.95 V 0 H 0 Z"/>
    </clipPath>
    <clipPath id="clipPath965" clipPathUnits="userSpaceOnUse">
      <path inkscape:connector-curvature="0" id="path963" d="M 0,1829.696 H 1668.95 V 0 H 0 Z"/>
    </clipPath>
    <clipPath id="clipPath1114" clipPathUnits="userSpaceOnUse">
      <path inkscape:connector-curvature="0" id="path1112" d="M 0,1829.696 H 1668.95 V 0 H 0 Z"/>
    </clipPath>
    <clipPath id="clipPath1130" clipPathUnits="userSpaceOnUse">
      <path inkscape:connector-curvature="0" id="path1128" d="M 0,1829.696 H 1668.95 V 0 H 0 Z"/>
    </clipPath>
    <clipPath id="clipPath2165" clipPathUnits="userSpaceOnUse">
      <path inkscape:connector-curvature="0" id="path2163" d="M 0,1829.696 H 1668.95 V 0 H 0 Z"/>
    </clipPath>
    <clipPath id="clipPath2181" clipPathUnits="userSpaceOnUse">
      <path inkscape:connector-curvature="0" id="path2179" d="M 0,1829.696 H 1668.95 V 0 H 0 Z"/>
    </clipPath>
    <clipPath id="clipPath2431" clipPathUnits="userSpaceOnUse">
      <path inkscape:connector-curvature="0" id="path2429" d="M 0,1829.696 H 1668.95 V 0 H 0 Z"/>
    </clipPath>
    <clipPath id="clipPath2497" clipPathUnits="userSpaceOnUse">
      <path inkscape:connector-curvature="0" id="path2495" d="M 0,1829.696 H 1668.95 V 0 H 0 Z"/>
    </clipPath>
  </defs>
  <sodipodi:namedview id="base" pagecolor="#ffffff" bordercolor="#666666" borderopacity="1.0" inkscape:pageopacity="0.0" inkscape:pageshadow="2" inkscape:zoom="1.8101934" inkscape:cx="87.114814" inkscape:cy="80.967286" inkscape:document-units="mm" inkscape:current-layer="g1106" showgrid="false" fit-margin-top="0" fit-margin-left="0" fit-margin-right="0" fit-margin-bottom="0" inkscape:window-width="1920" inkscape:window-height="1001" inkscape:window-x="-9" inkscape:window-y="-9" inkscape:window-maximized="1"/>
  <metadata id="metadata5">
    <rdf:RDF>
      <cc:Work rdf:about="">
        <dc:format>image/svg+xml</dc:format>
        <dc:type rdf:resource="http://purl.org/dc/dcmitype/StillImage"/>
        <dc:title/>
      </cc:Work>
    </rdf:RDF>
  </metadata>
  <g inkscape:label="Capa 1" inkscape:groupmode="layer" id="layer1" transform="translate(-73.34111,-159.41028)">
    <g transform="matrix(0.35277777,0,0,-0.35277777,-85.311076,332.70669)" inkscape:label="Lake Placid" id="g601">
      <g transform="matrix(0.78202721,0,0,0.78202721,569.68667,-458.01659)" inkscape:label="Sarajevo LOGO" id="g945">
        <g transform="matrix(0.19151133,0,0,0.19151133,-210.01787,896.72772)" inkscape:label="Calgary LOGO" id="g1106">
          <g transform="matrix(0.86496318,0,0,0.86496318,133.00563,150.51443)" inkscape:label="Lillehammer LOGO" id="g2423">
            <g id="g2425">
              <g clip-path="url(#clipPath2431)" id="g2427">
                <g transform="translate(732.1665,577.2738)" id="g2433">
                  <path inkscape:connector-curvature="0" id="path2435" style="fill:#1a1008;fill-opacity:1;fill-rule:nonzero;stroke:none" d="M 0,0 C -0.732,0 -1.457,0.033 -2.177,0.08 -2.871,0.126 -3.558,0.195 -4.239,0.283 -4.3,0.984 -4.377,1.68 -4.473,2.37 c -2.076,14.959 -12.268,27.317 -25.992,32.485 -0.658,0.248 -1.322,0.48 -1.994,0.694 0.063,0.697 0.141,1.389 0.247,2.072 C -29.796,53.24 -16.295,65.197 0,65.197 18.004,65.197 32.599,50.602 32.599,32.599 32.599,14.595 18.004,0 0,0 m -12.61,-8.299 c -2.416,-15.619 -15.917,-27.576 -32.213,-27.576 -16.295,0 -29.796,11.957 -32.212,27.576 -0.106,0.684 -0.184,1.375 -0.247,2.072 0.673,0.214 1.337,0.447 1.994,0.694 13.725,5.169 23.916,17.526 25.992,32.485 0.096,0.691 0.173,1.386 0.234,2.087 0.682,0.088 1.369,0.157 2.062,0.202 0.721,0.048 1.445,0.081 2.177,0.081 0.733,0 1.457,-0.033 2.177,-0.081 0.694,-0.045 1.381,-0.114 2.063,-0.202 0.06,-0.701 0.138,-1.396 0.234,-2.087 2.075,-14.959 12.267,-27.316 25.992,-32.485 0.657,-0.247 1.321,-0.48 1.994,-0.694 -0.063,-0.697 -0.141,-1.388 -0.247,-2.072 M -87.468,0.08 C -88.188,0.033 -88.913,0 -89.646,0 c -0.732,0 -1.457,0.033 -2.177,0.08 -0.694,0.046 -1.381,0.115 -2.062,0.203 -0.06,0.701 -0.138,1.397 -0.234,2.087 -2.075,14.959 -12.268,27.317 -25.992,32.485 -0.657,0.248 -1.321,0.48 -1.993,0.694 0.062,0.697 0.141,1.389 0.246,2.072 2.416,15.619 15.917,27.576 32.212,27.576 16.296,0 29.797,-11.957 32.213,-27.576 0.106,-0.683 0.184,-1.375 0.247,-2.072 -0.673,-0.214 -1.337,-0.446 -1.994,-0.694 C -72.904,29.687 -83.097,17.329 -85.172,2.37 -85.268,1.68 -85.346,0.984 -85.406,0.283 -86.087,0.195 -86.774,0.126 -87.468,0.08 m -14.788,-8.379 c -2.415,-15.619 -15.917,-27.576 -32.212,-27.576 -16.296,0 -29.797,11.957 -32.213,27.576 -0.106,0.684 -0.184,1.375 -0.247,2.072 0.673,0.214 1.337,0.447 1.994,0.694 13.725,5.169 23.917,17.526 25.992,32.485 0.096,0.691 0.174,1.386 0.234,2.087 0.682,0.088 1.369,0.157 2.062,0.202 0.721,0.048 1.445,0.081 2.178,0.081 0.732,0 1.457,-0.033 2.177,-0.081 0.694,-0.045 1.381,-0.114 2.062,-0.202 0.061,-0.701 0.138,-1.396 0.234,-2.087 2.076,-14.959 12.268,-27.316 25.993,-32.485 0.656,-0.247 1.32,-0.48 1.993,-0.694 -0.063,-0.697 -0.141,-1.388 -0.247,-2.072 m -74.858,8.379 c -0.72,-0.047 -1.445,-0.08 -2.177,-0.08 -18.004,0 -32.599,14.595 -32.599,32.599 0,18.003 14.595,32.598 32.599,32.598 16.295,0 29.796,-11.957 32.212,-27.576 0.106,-0.683 0.184,-1.375 0.247,-2.072 -0.672,-0.214 -1.336,-0.446 -1.993,-0.694 -13.725,-5.168 -23.917,-17.526 -25.993,-32.485 -0.096,-0.69 -0.173,-1.386 -0.234,-2.087 -0.681,-0.088 -1.368,-0.157 -2.062,-0.203 m 29.334,24.155 c -2.364,-8.928 -8.421,-16.348 -16.437,-20.539 -0.755,-0.394 -1.524,-0.765 -2.312,-1.101 0.153,0.842 0.334,1.675 0.55,2.492 2.364,8.929 8.42,16.349 16.437,20.538 0.754,0.396 1.523,0.767 2.312,1.103 -0.153,-0.843 -0.334,-1.675 -0.55,-2.493 m 28.386,1.39 c 8.016,-4.189 14.073,-11.609 16.436,-20.538 0.217,-0.817 0.397,-1.65 0.551,-2.492 -0.789,0.336 -1.558,0.707 -2.313,1.102 -8.016,4.19 -14.072,11.61 -16.436,20.538 -0.217,0.818 -0.397,1.651 -0.551,2.493 0.789,-0.336 1.558,-0.708 2.313,-1.103 m 61.259,-1.39 c -2.364,-8.928 -8.42,-16.348 -16.436,-20.539 -0.755,-0.394 -1.524,-0.765 -2.312,-1.101 0.153,0.842 0.333,1.675 0.55,2.492 2.363,8.929 8.42,16.349 16.436,20.538 0.755,0.396 1.524,0.767 2.313,1.103 -0.154,-0.843 -0.334,-1.675 -0.551,-2.493 m 17.548,11.739 c -0.081,-1.182 -0.134,-2.588 -0.152,-3.722 -0.001,0.116 -0.009,0.23 -0.009,0.347 0,1.138 0.066,2.26 0.161,3.375 m 10.838,-10.349 c 8.017,-4.189 14.073,-11.609 16.437,-20.538 0.217,-0.817 0.397,-1.65 0.55,-2.492 -0.788,0.336 -1.557,0.707 -2.312,1.101 -8.016,4.191 -14.073,11.611 -16.436,20.539 -0.217,0.818 -0.398,1.65 -0.551,2.493 0.789,-0.336 1.558,-0.707 2.312,-1.103 M 0,73.339 c -20.234,0 -37.015,-14.749 -40.197,-34.079 -0.11,-0.671 -0.204,-1.348 -0.281,-2.03 -0.674,0.073 -1.353,0.126 -2.036,0.165 -0.765,0.043 -1.533,0.069 -2.309,0.069 -0.775,0 -1.543,-0.026 -2.308,-0.069 -0.683,-0.039 -1.362,-0.092 -2.036,-0.165 -0.077,0.682 -0.171,1.359 -0.282,2.03 -3.181,19.33 -19.962,34.079 -40.197,34.079 -20.234,0 -37.015,-14.749 -40.196,-34.079 -0.111,-0.671 -0.204,-1.348 -0.282,-2.03 -0.674,0.073 -1.353,0.126 -2.036,0.165 -0.764,0.043 -1.533,0.069 -2.308,0.069 -0.775,0 -1.544,-0.026 -2.308,-0.069 -0.684,-0.039 -1.363,-0.092 -2.037,-0.165 -0.077,0.682 -0.171,1.359 -0.281,2.03 -3.181,19.33 -19.963,34.079 -40.197,34.079 -22.504,0 -40.748,-18.24 -40.748,-40.74 0,-22.5 18.244,-40.741 40.748,-40.741 0.775,0 1.544,0.027 2.308,0.07 0.684,0.038 1.362,0.092 2.036,0.163 0.077,-0.682 0.172,-1.358 0.282,-2.029 3.181,-19.33 19.962,-34.079 40.197,-34.079 20.234,0 37.015,14.749 40.197,34.079 0.11,0.671 0.204,1.347 0.281,2.029 0.674,-0.071 1.353,-0.125 2.036,-0.163 0.765,-0.043 1.534,-0.07 2.308,-0.07 0.776,0 1.544,0.027 2.309,0.07 0.683,0.038 1.362,0.092 2.036,0.163 0.077,-0.682 0.171,-1.358 0.281,-2.029 3.182,-19.33 19.963,-34.079 40.197,-34.079 20.235,0 37.016,14.749 40.198,34.079 0.11,0.671 0.204,1.347 0.281,2.029 0.674,-0.071 1.353,-0.125 2.036,-0.163 0.765,-0.043 1.533,-0.07 2.308,-0.07 22.505,0 40.748,18.241 40.748,40.741 0,22.5 -18.243,40.74 -40.748,40.74"/>
                </g>
              </g>
            </g>
            <path inkscape:connector-curvature="0" id="path2437" style="fill:#ffffff;fill-opacity:1;fill-rule:nonzero;stroke:none" d="M 1517.499,1390.8 H 188.014 V 61.315 h 1329.485 z"/>
            <g transform="translate(1203.0508,929.2782)" id="g2439">
              <path inkscape:connector-curvature="0" id="path2441" style="fill:#1c2b83;fill-opacity:1;fill-rule:nonzero;stroke:none" d="m 0,0 -23.55,6.769 7.945,27.163 19.124,-18.415 z m -29.341,90.625 -9.984,-11.613 -7.588,20.851 20.101,6.466 z m -65.231,-68.359 -18.106,18.608 11.582,13.064 15.177,-4.223 z m -44.009,-55.224 3.361,3.412 1.198,7.179 -1.783,1.923 17.225,16.027 9.03,-4.844 -4.492,-16.146 13.979,-16.034 z m -87.117,10.704 18.719,17.349 27.517,-31.297 z m 3.015,-52.629 -11.807,-2.881 -8.412,-25.13 -7.105,28.607 29.318,27.9 5.085,-20.473 z m -84.799,-34.7 13.655,46.687 10.151,-40.877 z m -85.024,-20.957 -10.728,2.644 -8.25,37.604 30.109,-6.874 z m -136.822,-3.418 -42.986,-10.491 37.299,35.495 11.614,-3.338 z m -74.278,13.62 -26.135,26.987 4.168,5.665 28.039,-4.199 z m -116.857,-43.821 -15.185,13.529 5.67,22.674 42,-10.002 z M 53.063,69.114 63.919,73.073 V 811.016 H -764.508 V -224.633 l 36.417,34.655 8.931,-10.849 4.098,-15.351 20.53,4.613 -14.097,14.857 5.719,17.283 10.335,2.577 5.311,-20.946 18.617,19.257 21.867,-19.819 -7.306,-21.417 -21.647,-5.252 -2.579,10.113 -8.093,-2.005 -5.254,-14.417 9.706,-9.027 -11.933,-12.61 3.304,-13.307 -22.915,-5.592 -14.778,-14.063 16.33,-4.693 3.9,-15.704 13.251,10.774 33.902,-9.745 -8.075,32.519 -9.99,-9.344 -2.839,11.506 7.347,25.117 18.753,4.577 4.019,12.581 16.806,-18.319 -12.476,-10.387 37.05,-9.596 13.482,13.764 -30.112,8.112 16.608,56.779 -19.665,-4.85 -3.873,15.597 19.642,5.215 4.108,14.047 h 9.692 l 8.346,-33.604 20.244,5.415 11.669,-9.423 8.828,27.508 13.069,3.189 5.337,-21.453 -30.182,-25.488 -12.785,12.647 -3.659,-15.08 -28.994,6.549 7.805,-23.923 15.751,5.1 10.465,-10.975 -9.72,-12.137 29.806,-7.576 8.819,29.431 15.091,1.774 3.134,-16.066 21.419,-18.897 18.654,18.093 -10.406,2.541 3.622,16.123 -12.937,12.333 -18.641,-5.439 -12.528,13.165 12.209,11.402 15.875,-4.157 10.084,9.007 19.029,-15.512 1.912,-10.534 11.309,-6.022 9.844,11.298 -3.953,22.255 -37.242,8.71 7.489,30.483 20.967,5.246 -17.811,18.917 5.344,17.144 19.888,-3.75 2.89,10.565 13.052,-0.811 9.629,-9.346 -16.531,-16.681 -6.876,-22.966 -10.724,-10.139 18.669,-18.043 6.726,7.308 7.857,-31.639 23.321,-6.267 -6.485,26.109 14.439,3.523 0.212,4.43 -27.252,7.324 -2.443,8.735 27.093,7.12 19.085,-18.378 16.357,15.565 13.714,-10.894 3.752,13.718 32.288,-6.544 -8.123,27.237 -20.586,-7.684 -6.821,12.429 13.886,16.126 38.556,-11.72 -3.928,-23.65 13.292,-12.8 -4.182,-13.768 -9.51,-2.32 -10.412,10.426 -8.202,-31.735 12.973,-12.494 5.996,21.922 9.448,2.307 9.186,-6.121 10.385,37.968 11.443,-0.278 8.843,9.51 -14.634,14.092 -10.037,-3.066 -5.649,5.245 13.226,10.401 17.531,-5.023 9.58,-9.277 3.588,-14.453 39.31,10.35 3.257,-25.497 -16.138,0.595 19.556,-18.832 13.071,3.191 4.79,-15.431 12.75,12.133 -8.05,7.355 4.094,18.814 -12.398,11.329 5.717,18.875 14.793,-3.125 15.096,3.683 -5.168,20.783 -9.611,-2.346 4.208,13.197 -18.568,-4.283 -5.518,-20.563 -38.549,-9.409 -6.806,17.077 27.297,6.662 11.995,11.415 -3.166,12.232 15.191,15.502 26.92,-8.507 -10.125,-8.411 29.288,-32.058 4.02,-16.19 19.515,4.762 -4.085,16.448 -14.509,2.84 -5.842,27.448 10.772,2.629 21.418,-19.728 8.591,9.381 9.507,-13.713 -16.325,-3.984 8.205,-33.039 -13.951,-1.782 15.073,-15.031 22.41,5.469 4.88,19.162 -11.732,11.297 4.684,16.01 17.055,-3.43 -2.752,10.185 29.549,7.211 -4.672,18.814 -9.332,-8.88 -10.865,9.419 -18.715,-4.567 -6.79,-23.215 -7.154,35.056 32.804,31.216 7.656,-6.073 4.344,-17.493 22.234,5.425 -13.122,11.783 5.874,20.081 6.865,1.675 5.847,-23.545 19.15,18.872 12.35,3.481 -3.243,6.626 18.671,7.522 5.441,-15.984 25.499,6.354 v 52.635 l -11.121,3.167 -19.037,-17.947 15.043,48.3 z"/>
            </g>
            <g transform="translate(1248.3125,901.3881)" id="g2443">
              <path inkscape:connector-curvature="0" id="path2445" style="fill:#1c2b83;fill-opacity:1;fill-rule:nonzero;stroke:none" d="m 0,0 18.657,4.67 -14.143,-49.056 14.138,-2.829 0.005,-26.77 -36.822,9.595 12.477,10.389 -16.807,18.318 -4.02,-12.582 -18.753,-4.576 -7.346,-25.117 2.84,-11.507 9.988,9.346 8.076,-32.521 -33.902,9.745 -13.251,-10.773 -3.9,15.703 -16.33,4.694 14.779,14.063 22.915,5.592 -3.305,13.307 11.933,12.611 -9.707,9.025 5.255,14.418 8.093,2.005 2.579,-10.113 21.647,5.252 6.712,20.7 -8.537,7.737 20.361,5.076 z"/>
            </g>
            <g transform="translate(438.543,668.8441)" id="g2447">
              <path inkscape:connector-curvature="0" id="path2449" style="fill:#1c2b83;fill-opacity:1;fill-rule:nonzero;stroke:none" d="m 0,0 10.767,4.183 6.791,23.215 18.714,4.567 10.866,-9.418 9.331,8.88 L 61.142,12.612 31.593,5.4 34.345,-4.783 17.289,-1.354 12.605,-17.363 24.337,-28.66 19.457,-47.822 0,-52.571 Z"/>
            </g>
            <g transform="translate(822.9219,739.8607)" id="g2451">
              <path inkscape:connector-curvature="0" id="path2453" style="fill:#1c2b83;fill-opacity:1;fill-rule:nonzero;stroke:none" d="m 0,0 11.097,10.56 25.954,-23.043 -17.731,-4.328 -7.603,-18.811 -13.395,13.687 -16.795,-4.098 3.065,20.438 6.623,-7.26 11.238,2.98 z"/>
            </g>
            <g transform="translate(868.4902,708.4838)" id="g2455">
              <path inkscape:connector-curvature="0" id="path2457" style="fill:#1c2b83;fill-opacity:1;fill-rule:nonzero;stroke:none" d="m 0,0 -8.137,-27.818 28.371,6.923 z"/>
            </g>
            <g transform="translate(751.9775,673.9799)" id="g2459">
              <path inkscape:connector-curvature="0" id="path2461" style="fill:#1c2b83;fill-opacity:1;fill-rule:nonzero;stroke:none" d="M 0,0 5.772,21.783 22.484,25.861 39.012,9.945 32.043,-15.323 26.64,6.437 Z"/>
            </g>
            <g transform="translate(632.2368,655.5043)" id="g2463">
              <path inkscape:connector-curvature="0" id="path2465" style="fill:#1c2b83;fill-opacity:1;fill-rule:nonzero;stroke:none" d="M 0,0 21.463,5.238 32.362,-4.377 18.955,-19.573 Z"/>
            </g>
            <g transform="translate(926.1289,742.4086)" id="g2467">
              <path inkscape:connector-curvature="0" id="path2469" style="fill:#1c2b83;fill-opacity:1;fill-rule:nonzero;stroke:none" d="M 0,0 19.82,4.837 25.676,26.245 50.922,1.069 39.526,-1.711 42.018,-11.744 28.85,-25.904 Z"/>
            </g>
            <g transform="translate(978.3418,720.0951)" id="g2471">
              <path inkscape:connector-curvature="0" id="path2473" style="fill:#1c2b83;fill-opacity:1;fill-rule:nonzero;stroke:none" d="m 0,0 19.99,4.879 8.191,-32.981 z"/>
            </g>
            <g transform="translate(1071.4971,793.139)" id="g2475">
              <path inkscape:connector-curvature="0" id="path2477" style="fill:#1c2b83;fill-opacity:1;fill-rule:nonzero;stroke:none" d="m 0,0 11.513,-46.358 -15.364,4.706 -6.867,-25.106 -15.633,-3.815 -5.913,23.808 17.378,4.242 7.395,8.092 z"/>
            </g>
            <g transform="translate(1142.0664,760.7377)" id="g2479">
              <path inkscape:connector-curvature="0" id="path2481" style="fill:#1c2b83;fill-opacity:1;fill-rule:nonzero;stroke:none" d="m 0,0 4.068,-16.384 40.7,-9.367 -17.31,14.338 -4.241,17.079 z"/>
            </g>
            <g transform="translate(1225.5879,787.5629)" id="g2483">
              <path inkscape:connector-curvature="0" id="path2485" style="fill:#1c2b83;fill-opacity:1;fill-rule:nonzero;stroke:none" d="M 0,0 5.535,-22.287 23.662,-4.733 37.336,-8.408 28.914,25.505 10.506,30.452 16.536,6.17 8.528,-2.292 Z"/>
            </g>
            <g transform="translate(466.4194,611.6635)" id="g2487">
              <path inkscape:connector-curvature="0" id="path2489" style="fill:#1c2b83;fill-opacity:1;fill-rule:nonzero;stroke:none" d="m 0,0 6.051,-24.365 20.57,20.39 -2.452,9.872 z"/>
            </g>
            <g id="g2491">
              <g clip-path="url(#clipPath2497)" id="g2493">
                <g transform="translate(730.0308,1632.2699)" id="g2499">
                  <path inkscape:connector-curvature="0" id="path2501" style="fill:#ffffff;fill-opacity:1;fill-rule:nonzero;stroke:none" d="m 0,0 8.051,36 c -14.282,3.817 -27.688,7.26 -39.759,10.277 l -4.943,-22.102 -82.292,-367.967 c 11.605,-2.342 24.975,-5.15 40.158,-8.49 z"/>
                </g>
                <g transform="translate(1059.8867,1414.6957)" id="g2503">
                  <path inkscape:connector-curvature="0" id="path2505" style="fill:#ffffff;fill-opacity:1;fill-rule:nonzero;stroke:none" d="m 0,0 22.557,100.863 c -5.62,4.725 -11.54,9.405 -17.869,14.131 -5.684,4.246 -11.704,8.534 -18.136,12.928 l -23.203,-103.747 -55.49,-248.122 -34.235,-153.079 c 7.25,-0.555 14.156,-0.975 20.744,-1.273 l 32.705,146.239 c 6.654,-2.928 13.01,-5.857 19.064,-8.786 z"/>
                </g>
                <g transform="translate(948.4082,1198.3114)" id="g2507">
                  <path inkscape:connector-curvature="0" id="path2509" style="fill:#ffffff;fill-opacity:1;fill-rule:nonzero;stroke:none" d="M 0,0 56.502,252.646 79.71,356.417 c -2.986,1.915 -6.051,3.858 -9.209,5.837 -3.017,1.89 -6.118,3.751 -9.262,5.6 -6.001,3.529 -12.231,6.992 -18.703,10.401 L 19.852,276.822 -38.971,13.802 l -37.474,-167.566 -21.415,-95.76 -6.787,-30.344 c 6.559,-1.567 13.233,-3.078 20.015,-4.531 6.607,-1.414 13.307,-2.778 20.117,-4.075 l 29.002,129.682 c -6.583,0.672 -13.422,1.445 -20.509,2.32 L -19.44,7.101 C -12.77,4.741 -6.288,2.374 0,0"/>
                </g>
                <g transform="translate(841.4658,1049.2245)" id="g2511">
                  <path inkscape:connector-curvature="0" id="path2513" style="fill:#ffffff;fill-opacity:1;fill-rule:nonzero;stroke:none" d="m 0,0 c -3.436,0.565 -6.816,1.114 -10.145,1.648 l 38.828,173.617 c 6.697,-1.999 13.263,-4.009 19.68,-6.028 l 60.106,268.759 22.108,98.858 c -6.156,2.963 -12.517,5.897 -19.056,8.819 -6.217,2.778 -12.603,5.545 -19.17,8.308 L 71.818,462.171 8.94,181.016 -30.464,4.822 -40.938,-42.012 -57.086,-114.219 c 6.405,-2.064 12.965,-4.082 19.676,-6.045 6.46,-1.889 13.064,-3.727 19.797,-5.51 l 10.021,44.812 17.741,79.33 C 6.813,-1.108 3.432,-0.564 0,0"/>
                </g>
                <g transform="translate(770.2314,1059.7992)" id="g2515">
                  <path inkscape:connector-curvature="0" id="path2517" style="fill:#ffffff;fill-opacity:1;fill-rule:nonzero;stroke:none" d="m 0,0 40.526,181.213 c 4.897,-1.293 9.851,-2.608 14.899,-3.956 1.66,-0.444 3.3,-0.89 4.947,-1.335 l 64.356,287.762 19.598,87.636 c -5.741,2.305 -11.603,4.615 -17.592,6.937 -0.575,0.223 -1.158,0.445 -1.736,0.667 -6.353,2.45 -12.832,4.865 -19.409,7.241 L 88.076,487.858 20.663,186.42 -19.723,5.839 -20.472,2.49 -44.065,-103.007 c 6.183,-2.681 12.609,-5.326 19.255,-7.928 6.273,-2.456 12.74,-4.874 19.409,-7.241 l 19.024,85.065 6.787,30.346 C 13.311,-1.76 6.512,-0.84 0,0"/>
                </g>
                <g transform="translate(678.3896,1683.4452)" id="g2519">
                  <path inkscape:connector-curvature="0" id="path2521" style="fill:#ffffff;fill-opacity:1;fill-rule:nonzero;stroke:none" d="m 0,0 c -24.554,5.928 -39.986,9.262 -39.986,9.262 l -87.973,-393.368 c 0,0 12.89,-1.671 40.511,-6.913 l 84.113,376.106 z"/>
                </g>
                <g transform="translate(1147.79,1431.6371)" id="g2523">
                  <path inkscape:connector-curvature="0" id="path2525" style="fill:#ffffff;fill-opacity:1;fill-rule:nonzero;stroke:none" d="m 0,0 -14.603,-65.292 -54.001,-241.468 -16.702,-74.677 c 20.424,10.393 26.195,24.574 29.098,36.08 0.278,1.103 0.531,2.181 0.767,3.229 0.087,0.389 0.147,0.782 0.217,1.173 L 3.724,-77.379 c 0,0 0.5,1.801 1.126,5.038 C 7.04,-61.013 10.764,-31.98 0,0"/>
                </g>
                <g transform="translate(1133.4053,1461.3456)" id="g2527">
                  <path inkscape:connector-curvature="0" id="path2529" style="fill:#ffffff;fill-opacity:1;fill-rule:nonzero;stroke:none" d="m 0,0 c -3.147,4.828 -6.714,9.622 -10.775,14.332 -1.873,2.17 -3.745,4.293 -5.621,6.381 -5.582,6.206 -11.213,12.067 -17.065,17.726 l -21.732,-97.176 -53.317,-238.403 -28.613,-127.942 c 7.775,0.37 14.895,0.977 21.428,1.786 l 25.794,115.335 c 6.74,-4.227 12.817,-8.429 18.212,-12.592 l 53.146,237.641 z"/>
                </g>
                <g transform="translate(708.5591,1066.1195)" id="g2531">
                  <path inkscape:connector-curvature="0" id="path2533" style="fill:#ffffff;fill-opacity:1;fill-rule:nonzero;stroke:none" d="m 0,0 8.603,38.469 33.947,151.79 c 6.459,-1.618 13.102,-3.301 19.902,-5.037 l 68.971,308.403 16.339,73.061 c -6.481,2.212 -13.014,4.386 -19.571,6.515 -6.535,2.123 -13.09,4.202 -19.634,6.234 L 94.773,517.801 22.626,195.201 -8.07,57.944 -20.797,1.037 -38.915,-79.976 c 5.744,-3.642 11.948,-7.291 18.586,-10.922 5.942,-3.251 12.234,-6.487 18.861,-9.693 L 20.651,-1.686 C 13.271,-0.991 6.398,-0.433 0,0"/>
                </g>
                <g transform="translate(691.2695,1270.8944)" id="g2535">
                  <path inkscape:connector-curvature="0" id="path2537" style="fill:#ffffff;fill-opacity:1;fill-rule:nonzero;stroke:none" d="m 0,0 c 6.42,-1.501 13.075,-3.078 19.97,-4.732 l 73.767,329.845 12.42,55.533 c -6.637,1.978 -13.23,3.904 -19.739,5.771 -6.694,1.919 -13.298,3.776 -19.783,5.569 L 57.086,349.288 -19.997,4.614 -40.8,-88.406 l -29.917,-133.772 -0.424,-1.896 -0.002,-0.006 c -2.069,-9.256 2.823,-20.335 13.818,-32.247 4.726,-5.12 10.586,-10.394 17.507,-15.744 l 15.284,68.34 c -8.742,-0.303 -15.789,-1.015 -21.48,-2.017 l 21.887,97.867 z"/>
                </g>
                <g transform="translate(732.8813,499.1537)" id="g2539">
                  <path inkscape:connector-curvature="0" id="path2541" style="fill:#ffc72a;fill-opacity:1;fill-rule:nonzero;stroke:none" d="M 0,0 C 2.036,0 4.048,-0.096 6.048,-0.232 7.913,-0.36 9.76,-0.547 11.59,-0.79 c 8.122,-1.08 15.89,-3.268 23.146,-6.424 2.172,-0.944 4.302,-1.97 6.378,-3.082 20.076,-10.759 35.449,-29.143 42.241,-51.288 7.473,-3.74 15.589,-6.384 24.152,-7.684 -6.423,38.811 -33.341,70.694 -69.28,84.155 -1.769,0.662 -3.555,1.285 -5.365,1.857 -6.907,2.181 -14.109,3.698 -21.534,4.465 -1.791,0.185 -3.595,0.323 -5.41,0.421 -1.96,0.104 -3.932,0.165 -5.918,0.165 -1.986,0 -3.958,-0.061 -5.917,-0.165 0.291,-3.329 0.468,-6.692 0.468,-10.097 0,-3.972 -0.204,-7.897 -0.599,-11.765 C -4.047,-0.096 -2.035,0 0,0"/>
                </g>
                <g transform="translate(819.3794,401.2211)" id="g2543">
                  <path inkscape:connector-curvature="0" id="path2545" style="fill:#ffc72a;fill-opacity:1;fill-rule:nonzero;stroke:none" d="m 0,0 c -5.301,-43.073 -41.992,-76.431 -86.498,-76.431 -44.506,0 -81.197,33.358 -86.498,76.431 -0.226,1.831 -0.405,3.676 -0.515,5.54 -0.102,1.726 -0.169,3.46 -0.169,5.211 0,6.437 0.719,12.705 2.043,18.746 0.509,2.318 1.095,4.607 1.784,6.852 6.792,22.144 22.165,40.529 42.242,51.288 1.922,6.951 2.971,14.265 2.971,21.829 0,1.125 -0.04,2.24 -0.085,3.353 -35.939,-13.461 -62.857,-45.343 -69.28,-84.154 -0.306,-1.849 -0.567,-3.712 -0.778,-5.591 -0.456,-4.047 -0.713,-8.154 -0.713,-12.323 0,-3.264 0.17,-6.486 0.451,-9.677 0.16,-1.817 0.365,-3.622 0.613,-5.413 7.353,-53.041 52.86,-93.888 107.934,-93.888 55.074,0 100.581,40.847 107.934,93.888 C 14.059,-3.573 6.894,-2.1 0,0"/>
                </g>
                <g transform="translate(721.5537,520.3627)" id="g2547">
                  <path inkscape:connector-curvature="0" id="path2549" style="fill:#0082ca;fill-opacity:1;fill-rule:nonzero;stroke:none" d="m 0,0 c -0.16,1.818 -0.365,3.622 -0.613,5.414 -7.353,53.04 -52.86,93.887 -107.934,93.887 -60.198,0 -108.998,-48.79 -108.998,-108.977 0,-60.186 48.8,-108.977 108.998,-108.977 1.986,0 3.958,0.06 5.918,0.166 -0.291,3.329 -0.469,6.691 -0.469,10.096 0,3.973 0.204,7.898 0.599,11.766 -2.001,-0.138 -4.013,-0.232 -6.048,-0.232 -48.149,0 -87.182,39.032 -87.182,87.181 0,48.149 39.033,87.182 87.182,87.182 44.506,0 81.197,-33.359 86.498,-76.431 0.225,-1.831 0.405,-3.676 0.515,-5.54 0.102,-1.725 0.169,-3.46 0.169,-5.211 0,-6.438 -0.719,-12.706 -2.043,-18.747 -0.509,-2.317 -1.095,-4.605 -1.784,-6.85 -6.793,-22.145 -22.165,-40.531 -42.242,-51.289 -1.922,-6.952 -2.971,-14.265 -2.971,-21.829 0,-1.125 0.04,-2.24 0.085,-3.354 35.939,13.462 62.857,45.344 69.28,84.155 0.306,1.849 0.567,3.712 0.778,5.591 0.456,4.047 0.713,8.154 0.713,12.323 C 0.451,-6.412 0.281,-3.19 0,0"/>
                </g>
                <g transform="translate(1059.1289,401.2211)" id="g2551">
                  <path inkscape:connector-curvature="0" id="path2553" style="fill:#00953b;fill-opacity:1;fill-rule:nonzero;stroke:none" d="m 0,0 c -5.301,-43.073 -41.992,-76.431 -86.498,-76.431 -44.506,0 -81.196,33.358 -86.498,76.431 -0.226,1.831 -0.405,3.676 -0.515,5.54 -0.101,1.726 -0.169,3.46 -0.169,5.211 0,6.437 0.719,12.705 2.043,18.746 0.508,2.318 1.096,4.607 1.784,6.852 6.792,22.144 22.166,40.529 42.242,51.288 1.923,6.951 2.971,14.265 2.971,21.829 0,1.125 -0.04,2.24 -0.085,3.353 -35.939,-13.461 -62.857,-45.343 -69.28,-84.154 -0.306,-1.849 -0.566,-3.712 -0.778,-5.591 -0.456,-4.047 -0.713,-8.154 -0.713,-12.323 0,-3.264 0.17,-6.486 0.451,-9.676 0.16,-1.818 0.365,-3.623 0.613,-5.414 7.353,-53.041 52.86,-93.888 107.934,-93.888 55.074,0 100.581,40.847 107.934,93.888 C 14.059,-3.573 6.894,-2.1 0,0"/>
                </g>
                <g transform="translate(972.6309,499.1537)" id="g2555">
                  <path inkscape:connector-curvature="0" id="path2557" style="fill:#00953b;fill-opacity:1;fill-rule:nonzero;stroke:none" d="M 0,0 C 2.035,0 4.048,-0.096 6.048,-0.232 7.912,-0.36 9.76,-0.547 11.59,-0.79 c 8.122,-1.08 15.89,-3.268 23.146,-6.424 2.172,-0.944 4.302,-1.97 6.377,-3.082 20.077,-10.759 35.45,-29.143 42.242,-51.288 7.473,-3.74 15.589,-6.385 24.152,-7.684 -6.423,38.811 -33.341,70.694 -69.28,84.155 -1.768,0.662 -3.555,1.285 -5.366,1.857 -6.906,2.181 -14.108,3.698 -21.533,4.465 -1.791,0.185 -3.595,0.323 -5.41,0.421 -1.96,0.104 -3.932,0.165 -5.918,0.165 -1.986,0 -3.958,-0.061 -5.918,-0.165 0.292,-3.329 0.469,-6.692 0.469,-10.097 0,-3.972 -0.203,-7.897 -0.599,-11.765 C -4.048,-0.096 -2.035,0 0,0"/>
                </g>
                <g transform="translate(852.7559,423.5052)" id="g2559">
                  <path inkscape:connector-curvature="0" id="path2561" style="fill:#2d2a26;fill-opacity:1;fill-rule:nonzero;stroke:none" d="m 0,0 c -2.035,0 -4.047,0.095 -6.048,0.232 -1.864,0.128 -3.711,0.315 -5.541,0.558 -8.122,1.079 -15.891,3.267 -23.147,6.423 -2.172,0.945 -4.301,1.971 -6.377,3.083 -20.077,10.758 -35.449,29.143 -42.241,51.288 -7.474,3.74 -15.59,6.384 -24.152,7.684 6.423,-38.812 33.34,-70.694 69.28,-84.156 1.768,-0.662 3.555,-1.285 5.365,-1.856 6.907,-2.181 14.108,-3.698 21.534,-4.465 1.79,-0.186 3.595,-0.324 5.41,-0.421 1.96,-0.105 3.932,-0.166 5.917,-0.166 1.986,0 3.958,0.061 5.918,0.166 -0.291,3.329 -0.469,6.692 -0.469,10.097 0,3.972 0.204,7.897 0.599,11.765 C 4.048,0.095 2.036,0 0,0"/>
                </g>
                <g transform="translate(961.3027,520.3627)" id="g2563">
                  <path inkscape:connector-curvature="0" id="path2565" style="fill:#2d2a26;fill-opacity:1;fill-rule:nonzero;stroke:none" d="m 0,0 c -0.16,1.818 -0.364,3.622 -0.613,5.414 -7.353,53.04 -52.86,93.887 -107.934,93.887 -55.074,0 -100.58,-40.847 -107.933,-93.887 7.377,-0.766 14.542,-2.239 21.436,-4.339 5.301,43.072 41.991,76.431 86.497,76.431 44.507,0 81.197,-33.359 86.498,-76.431 0.226,-1.831 0.405,-3.676 0.516,-5.54 0.101,-1.725 0.168,-3.46 0.168,-5.211 0,-6.438 -0.718,-12.706 -2.042,-18.747 -0.509,-2.317 -1.096,-4.605 -1.784,-6.85 -6.793,-22.145 -22.165,-40.531 -42.242,-51.289 -1.922,-6.952 -2.971,-14.265 -2.971,-21.829 0,-1.125 0.039,-2.24 0.084,-3.354 35.939,13.462 62.857,45.344 69.28,84.155 0.307,1.849 0.567,3.712 0.778,5.591 0.456,4.047 0.713,8.154 0.713,12.323 C 0.451,-6.412 0.281,-3.19 0,0"/>
                </g>
                <g transform="translate(1092.5059,619.6635)" id="g2567">
                  <path inkscape:connector-curvature="0" id="path2569" style="fill:#eb0045;fill-opacity:1;fill-rule:nonzero;stroke:none" d="m 0,0 c -55.074,0 -100.581,-40.847 -107.934,-93.887 7.377,-0.765 14.542,-2.239 21.436,-4.339 5.301,43.073 41.992,76.431 86.498,76.431 48.148,0 87.182,-39.033 87.182,-87.182 0,-48.149 -39.034,-87.181 -87.182,-87.181 -2.035,0 -4.048,0.095 -6.048,0.232 -1.864,0.128 -3.712,0.315 -5.542,0.558 -8.122,1.079 -15.89,3.266 -23.146,6.423 -2.172,0.945 -4.302,1.97 -6.377,3.083 -20.077,10.758 -35.45,29.143 -42.242,51.288 -7.473,3.74 -15.589,6.384 -24.152,7.683 6.423,-38.811 33.341,-70.693 69.28,-84.155 1.768,-0.662 3.555,-1.285 5.366,-1.856 6.906,-2.182 14.107,-3.699 21.533,-4.465 1.791,-0.186 3.595,-0.324 5.41,-0.421 1.96,-0.106 3.932,-0.166 5.918,-0.166 60.198,0 108.998,48.791 108.998,108.977 C 108.998,-48.79 60.198,0 0,0"/>
                </g>
                <g transform="translate(374.689,190.9056)" id="g2571">
                  <path inkscape:connector-curvature="0" id="path2573" style="fill:#000000;fill-opacity:1;fill-rule:nonzero;stroke:none" d="m 0,0 -12.249,-31.445 h -91.955 v 5.638 c 14.558,0 16.864,4.445 16.864,23.413 v 66.993 c 0,18.798 -2.306,23.413 -16.864,23.413 v 5.638 h 53.75 v -5.638 c -14.734,0 -17.043,-4.615 -17.043,-23.413 V -5.812 c 0,-15.039 -0.848,-19.995 16.726,-19.995 23.788,0 34.261,8.716 45.979,27.858 z"/>
                </g>
                <g transform="translate(393.3877,263.7074)" id="g2575">
                  <path inkscape:connector-curvature="0" id="path2577" style="fill:#000000;fill-opacity:1;fill-rule:nonzero;stroke:none" d="m 0,0 c -6.325,0 -11.451,4.956 -11.451,11.279 0,6.324 4.956,11.45 11.278,11.45 6.324,0 11.451,-5.126 11.451,-11.45 C 11.278,5.127 6.151,0 0,0 m 9.74,-80.834 c 0,-16.065 0,-17.091 11.621,-18.457 v -4.956 h -38.282 v 5.126 C -5.3,-97.754 -5.3,-96.558 -5.3,-80.664 v 36.572 c -0.511,9.059 -0.683,12.305 -11.107,12.305 v 4.101 L 9.74,-17.603 Z"/>
                </g>
                <g transform="translate(482.9878,260.8021)" id="g2579">
                  <path inkscape:connector-curvature="0" id="path2581" style="fill:#000000;fill-opacity:1;fill-rule:nonzero;stroke:none" d="m 0,0 c 0,14.868 -2.614,14.185 -15.87,15.039 v 4.955 l 32.296,9.742 V -77.929 c 0,-16.065 0,-17.091 12.881,-18.457 v -4.956 h -41.815 v 4.956 C 0,-95.02 0,-93.994 0,-77.929 Z"/>
                </g>
                <g transform="translate(572.6167,212.9505)" id="g2583">
                  <path inkscape:connector-curvature="0" id="path2585" style="fill:#000000;fill-opacity:1;fill-rule:nonzero;stroke:none" d="M 0,0 C 1.043,11.792 -4.166,26.318 -19.265,26.318 -34.018,26.318 -40.095,11.621 -40.441,0 Z m -41.309,-6.493 c 0,-16.749 5.034,-41.528 26.729,-41.528 11.63,0 21.698,6.322 28.467,15.55 l 2.95,-2.734 C 9.548,-46.997 -2.604,-55.37 -16.834,-55.37 c -24.302,0 -42.006,19.482 -42.006,42.894 0,21.875 15.449,44.434 39.748,44.434 21.696,0 36.623,-18.285 36.623,-38.451 z"/>
                </g>
                <g transform="translate(620.5332,182.8734)" id="g2587">
                  <path inkscape:connector-curvature="0" id="path2589" style="fill:#000000;fill-opacity:1;fill-rule:nonzero;stroke:none" d="m 0,0 c 0,-16.065 0,-17.091 11.944,-18.457 v -4.956 h -39.167 v 4.956 c 11.766,1.366 11.766,2.392 11.766,18.457 v 77.929 c 0,14.868 -2.457,14.184 -14.928,15.039 v 4.955 L 0,107.665 v -58.96 c 7.906,7.007 20.375,13.33 31.088,13.33 18.444,0 22.132,-12.988 22.132,-30.762 V 0 c 0,-16.065 0,-17.091 11.769,-18.457 v -4.956 H 25.995 v 4.956 C 37.763,-17.091 37.763,-16.065 37.763,0 v 31.273 c 0,11.963 -2.459,21.706 -14.225,21.706 C 14.403,52.979 6.325,46.996 0,41.527 Z"/>
                </g>
                <g transform="translate(742.103,204.2347)" id="g2591">
                  <path inkscape:connector-curvature="0" id="path2593" style="fill:#000000;fill-opacity:1;fill-rule:nonzero;stroke:none" d="m 0,0 c -13.461,-2.05 -34.321,-10.254 -34.321,-24.438 0,-8.033 6.258,-13.16 13.842,-13.16 7.018,0 15.739,4.957 20.479,9.742 z m 0,16.92 c 0,8.374 -1.896,18.114 -13.272,18.114 -9.481,0 -13.465,-5.639 -15.55,-12.988 -1.707,-5.298 -4.17,-8.544 -10.998,-8.544 -5.308,0 -8.911,2.904 -8.911,7.519 0,14.184 22.186,19.653 34.51,19.653 7.963,0 17.635,-1.196 24.082,-5.982 6.826,-5.127 6.826,-12.303 6.826,-19.481 v -38.966 c 0,-4.101 0,-11.621 5.688,-11.621 3.222,0 5.499,2.051 7.773,4.273 l 2.466,-3.588 c -4.74,-6.324 -10.428,-11.963 -19.341,-11.963 -7.774,0 -12.136,5.468 -12.895,11.963 -8.721,-6.324 -18.961,-11.963 -30.337,-11.963 -13.272,0 -22.375,8.202 -22.375,20.337 0,22.728 32.993,28.54 52.334,31.957 z"/>
                </g>
                <g transform="translate(802.6343,182.8734)" id="g2595">
                  <path inkscape:connector-curvature="0" id="path2597" style="fill:#000000;fill-opacity:1;fill-rule:nonzero;stroke:none" d="m 0,0 c 0,-16.065 0,-17.091 12.169,-18.457 v -4.956 h -40.086 v 4.956 c 12.169,1.366 12.169,2.392 12.169,18.457 v 36.742 c -0.536,9.059 -0.716,12.305 -11.631,12.305 v 4.101 L 0,63.231 V 46.313 c 6.979,8.715 17.894,15.722 29.706,15.722 10.199,0 17.894,-6.836 21.294,-15.722 8.59,8.032 17.895,15.722 30.601,15.722 7.695,0 15.032,-2.563 19.149,-9.399 3.935,-6.494 3.756,-15.894 3.756,-23.583 V 0 c 0,-16.065 0,-17.091 11.989,-18.457 v -4.956 H 76.59 v 4.956 C 88.759,-17.091 88.759,-16.065 88.759,0 v 30.59 c 0,9.228 0.178,22.389 -13.064,22.389 -9.304,0 -17.537,-6.324 -23.443,-12.477 L 52.252,0 c 0,-16.065 0,-17.091 12.169,-18.457 v -4.956 H 24.516 v 4.956 c 11.99,1.366 11.99,2.392 11.99,18.457 v 30.59 c 0,9.228 -0.359,22.389 -13.601,22.389 C 13.601,52.979 5.368,46.655 0,40.502 Z"/>
                </g>
                <g transform="translate(1127.1328,212.9505)" id="g2599">
                  <path inkscape:connector-curvature="0" id="path2601" style="fill:#000000;fill-opacity:1;fill-rule:nonzero;stroke:none" d="M 0,0 C 1.043,11.792 -4.167,26.318 -19.271,26.318 -34.028,26.318 -40.107,11.621 -40.453,0 Z m -41.321,-6.493 c 0,-16.749 5.035,-41.528 26.737,-41.528 11.633,0 21.704,6.322 28.476,15.55 l 2.95,-2.734 C 9.551,-46.997 -2.604,-55.37 -16.84,-55.37 c -24.308,0 -42.016,19.482 -42.016,42.894 0,21.875 15.452,44.434 39.758,44.434 21.702,0 36.635,-18.285 36.635,-38.451 z"/>
                </g>
                <g transform="translate(1176.5039,182.8734)" id="g2603">
                  <path inkscape:connector-curvature="0" id="path2605" style="fill:#000000;fill-opacity:1;fill-rule:nonzero;stroke:none" d="m 0,0 c 0,-16.065 0,-17.091 11.449,-18.457 v -4.956 h -37.768 v 4.956 c 11.28,1.366 11.28,2.392 11.28,18.457 v 36.742 c -0.514,9.059 -0.684,12.305 -11.109,12.305 v 4.101 L 0,63.231 V 43.065 c 6.493,8.033 16.746,20.166 28.027,20.166 5.64,0 10.594,-3.93 10.594,-9.912 0,-5.298 -3.588,-9.569 -9.228,-9.569 -5.982,0 -8.202,4.442 -13.671,4.442 C 9.74,48.192 2.904,40.332 0,35.546 Z"/>
                </g>
                <g transform="translate(1230.5215,249.388)" id="g2607">
                  <path inkscape:connector-curvature="0" id="path2609" style="fill:#000000;fill-opacity:1;fill-rule:nonzero;stroke:none" d="m 0,0 c 8.793,7.348 13.198,13.646 13.198,19.66 0,2.674 -2,5.174 -4.933,5.738 -5.19,0.903 -8.776,4.094 -8.776,9.441 0,5.848 4.678,10.359 10.359,10.359 8.523,0 11.56,-7.937 11.56,-15.457 0,-13.033 -10.519,-24.303 -20.714,-30.652 z"/>
                </g>
                <g transform="translate(1291.5029,277.7211)" id="g2611">
                  <path inkscape:connector-curvature="0" id="path2613" style="fill:#000000;fill-opacity:1;fill-rule:nonzero;stroke:none" d="m 0,0 c -19.054,0 -22.06,-21.302 -22.06,-35.145 0,-12.816 3.922,-29.454 20.595,-29.454 11.543,0 18.888,8.288 21.687,14.27 C 20.222,-36.254 19.208,0 0,0 m 41.222,-50.415 c 0,-14.525 -3.664,-30.762 -10.81,-43.75 -7.511,-13.671 -21.25,-25.976 -38.656,-25.976 -10.076,0 -26.746,5.982 -26.746,17.261 0,5.639 4.212,9.229 10.258,9.229 5.862,0 7.328,-3.419 8.244,-7.862 1.284,-6.323 4.177,-11.533 12.239,-11.533 21.25,0 25.195,37.358 24.809,53.721 -6.468,-9.364 -14.514,-13.478 -28.622,-13.478 -20.151,0 -32.242,18.115 -32.242,35.376 0,20.337 16.122,43.067 39.755,43.067 31.695,0 41.771,-31.787 41.771,-56.055"/>
                </g>
                <g transform="translate(1346.877,197.7406)" id="g2615">
                  <path inkscape:connector-curvature="0" id="path2617" style="fill:#000000;fill-opacity:1;fill-rule:nonzero;stroke:none" d="M 0,0 H 37.837 V 59.302 Z M 45.999,85.62 H 54.16 V 0 H 74.749 V -7.861 H 54.16 v -4.273 c 0,-5.81 0,-11.279 1.485,-15.039 1.485,-3.588 5.194,-5.809 12.983,-5.469 V -38.28 H 21.702 v 5.638 c 9.089,0 13.354,1.369 14.838,5.128 1.297,3.077 1.297,7.691 1.297,13.843 v 5.81 H -9.089 V 0 Z"/>
                </g>
                <g transform="translate(951.7764,182.8734)" id="g2619">
                  <path inkscape:connector-curvature="0" id="path2621" style="fill:#000000;fill-opacity:1;fill-rule:nonzero;stroke:none" d="m 0,0 c 0,-16.065 0,-17.091 12.169,-18.457 v -4.956 h -40.086 v 4.956 c 12.169,1.366 12.169,2.392 12.169,18.457 v 36.742 c -0.535,9.059 -0.717,12.305 -11.631,12.305 v 4.101 L 0,63.231 V 46.313 c 6.979,8.715 17.894,15.722 29.706,15.722 10.198,0 17.894,-6.836 21.294,-15.722 8.591,8.032 17.895,15.722 30.602,15.722 7.695,0 15.031,-2.563 19.147,-9.399 3.936,-6.494 3.758,-15.894 3.758,-23.583 V 0 c 0,-16.065 0,-17.091 11.988,-18.457 v -4.956 H 76.59 v 4.956 C 88.759,-17.091 88.759,-16.065 88.759,0 v 30.59 c 0,9.228 0.179,22.389 -13.064,22.389 -9.304,0 -17.537,-6.324 -23.443,-12.477 L 52.252,0 c 0,-16.065 0,-17.091 12.169,-18.457 v -4.956 H 24.516 v 4.956 C 36.507,-17.091 36.507,-16.065 36.507,0 v 30.59 c 0,9.228 -0.36,22.389 -13.602,22.389 C 13.601,52.979 5.368,46.655 0,40.502 Z"/>
                </g>
                <g transform="translate(436.5078,260.8304)" id="g2623">
                  <path inkscape:connector-curvature="0" id="path2625" style="fill:#000000;fill-opacity:1;fill-rule:nonzero;stroke:none" d="m 0,0 c 0,14.867 -2.614,14.185 -15.87,15.039 v 4.955 l 32.296,9.742 V -77.93 c 0,-16.064 0,-17.09 12.881,-18.457 v -4.956 h -41.816 v 4.956 C 0,-95.02 0,-93.994 0,-77.93 Z"/>
                </g>
                <g transform="translate(1344.5889,104.0541)" id="g2627">
                  <path inkscape:connector-curvature="0" id="path2629" style="fill:#25282a;fill-opacity:1;fill-rule:nonzero;stroke:none" d="m 0,0 c -10.282,0 -18.616,8.335 -18.616,18.616 0,10.282 8.334,18.617 18.616,18.617 10.281,0 18.615,-8.335 18.615,-18.617 C 18.615,8.335 10.281,0 0,0 m 0,39.823 c -11.712,0 -21.206,-9.495 -21.206,-21.207 0,-11.711 9.494,-21.206 21.206,-21.206 11.711,0 21.205,9.495 21.205,21.206 0,11.712 -9.494,21.207 -21.205,21.207 M 49.345,0 C 39.063,0 30.729,8.335 30.729,18.616 c 0,10.282 8.334,18.617 18.616,18.617 10.281,0 18.616,-8.335 18.616,-18.617 C 67.961,8.335 59.626,0 49.345,0 m 0,39.823 c -11.712,0 -21.206,-9.495 -21.206,-21.207 0,-11.711 9.494,-21.206 21.206,-21.206 11.712,0 21.206,9.495 21.206,21.206 0,11.712 -9.494,21.207 -21.206,21.207"/>
                </g>
                <g transform="translate(1390.874,131.8216)" id="g2631">
                  <path inkscape:connector-curvature="0" id="path2633" style="fill:#000000;fill-opacity:1;fill-rule:nonzero;stroke:none" d="m 0,0 v -7.498 h 2.098 c 4.001,0 6.001,1.262 6.001,3.783 0,1.517 -0.523,2.515 -1.57,2.994 C 5.482,-0.241 4.122,0 2.444,0 Z M -3.39,2.984 H 2.301 C 3.726,2.984 4.794,2.94 5.505,2.852 6.216,2.762 6.937,2.587 7.665,2.327 8.467,2.055 9.161,1.644 9.741,1.092 c 0.583,-0.551 1.036,-1.217 1.363,-1.998 0.326,-0.782 0.489,-1.617 0.489,-2.506 0,-1.563 -0.447,-2.833 -1.342,-3.812 C 9.354,-8.2 8.127,-8.825 6.568,-9.098 c 0.757,-0.368 1.321,-0.76 1.691,-1.181 0.373,-0.42 0.796,-1.14 1.272,-2.159 l 3.99,-8.848 H 9.636 l -3.057,7.285 c -0.461,1.09 -0.866,1.868 -1.216,2.336 -0.346,0.467 -0.771,0.781 -1.274,0.941 -0.505,0.161 -1.22,0.241 -2.146,0.241 H 0 v -10.803 h -3.39 z"/>
                </g>
                <g transform="translate(1351.2842,133.9183)" id="g2635">
                  <path inkscape:connector-curvature="0" id="path2637" style="fill:#000000;fill-opacity:1;fill-rule:nonzero;stroke:none" d="m 0,0 -0.276,-3.323 c -0.892,0.532 -1.708,0.902 -2.449,1.111 -0.74,0.207 -1.573,0.31 -2.5,0.31 -1.306,0 -2.507,-0.216 -3.601,-0.648 -1.095,-0.433 -2.047,-1.058 -2.857,-1.875 -0.809,-0.817 -1.435,-1.786 -1.874,-2.905 -0.439,-1.119 -0.66,-2.355 -0.66,-3.705 0,-1.777 0.396,-3.384 1.191,-4.823 0.792,-1.44 1.884,-2.565 3.28,-3.377 1.394,-0.811 2.952,-1.216 4.678,-1.216 1.607,0 3.297,0.361 5.068,1.083 l 0.26,-3.339 c -0.926,-0.31 -1.768,-0.525 -2.526,-0.649 -0.757,-0.124 -1.658,-0.187 -2.699,-0.187 -2.489,0 -4.707,0.491 -6.657,1.475 -1.95,0.982 -3.474,2.414 -4.573,4.291 -1.1,1.878 -1.65,4.101 -1.65,6.672 0,2.345 0.524,4.441 1.572,6.29 1.047,1.847 2.521,3.286 4.425,4.317 1.906,1.03 4.055,1.546 6.451,1.546 2.071,0 3.87,-0.35 5.397,-1.048"/>
                </g>
              </g>
            </g>
          </g>
        </g>
      </g>
    </g>
  </g>
</svg>