<?xml version="1.0" encoding="UTF-8" standalone="no"?>
<!-- Created with Inkscape (http://www.inkscape.org/) -->
<svg xmlns:dc="http://purl.org/dc/elements/1.1/" xmlns:cc="http://creativecommons.org/ns#" xmlns:rdf="http://www.w3.org/1999/02/22-rdf-syntax-ns#" xmlns:svg="http://www.w3.org/2000/svg" xmlns="http://www.w3.org/2000/svg" xmlns:sodipodi="http://sodipodi.sourceforge.net/DTD/sodipodi-0.dtd" xmlns:inkscape="http://www.inkscape.org/namespaces/inkscape" version="1.1" id="svg3947" xml:space="preserve" width="238.21312" height="290" viewBox="0 0 238.21312 290" sodipodi:docname="1998_Winter_Olympics_logo.svg" inkscape:version="0.92.4 (5da689c313, 2019-01-14)"><metadata id="metadata3953"><rdf:RDF><cc:Work rdf:about=""><dc:format>image/svg+xml</dc:format><dc:type rdf:resource="http://purl.org/dc/dcmitype/StillImage"/><dc:title/></cc:Work></rdf:RDF></metadata><defs id="defs3951"><clipPath clipPathUnits="userSpaceOnUse" id="clipPath3963"><path d="M 0,1829.696 H 1668.95 V 0 H 0 Z" id="path3961" inkscape:connector-curvature="0"/></clipPath><clipPath clipPathUnits="userSpaceOnUse" id="clipPath3979"><path d="M 0,1829.696 H 1668.95 V 0 H 0 Z" id="path3977" inkscape:connector-curvature="0"/></clipPath><clipPath id="clipPath4199" clipPathUnits="userSpaceOnUse"><path inkscape:connector-curvature="0" id="path4197" d="M 0,1829.696 H 1668.95 V 0 H 0 Z"/></clipPath><clipPath id="clipPath4215" clipPathUnits="userSpaceOnUse"><path inkscape:connector-curvature="0" id="path4213" d="M 0,1829.696 H 1668.95 V 0 H 0 Z"/></clipPath></defs><sodipodi:namedview pagecolor="#ffffff" bordercolor="#666666" borderopacity="1" objecttolerance="10" gridtolerance="10" guidetolerance="10" inkscape:pageopacity="0" inkscape:pageshadow="2" inkscape:window-width="1920" inkscape:window-height="1001" id="namedview3949" showgrid="false" fit-margin-top="0" fit-margin-left="0" fit-margin-right="0" fit-margin-bottom="0" inkscape:zoom="2.5017374" inkscape:cx="154.94766" inkscape:cy="134.6592" inkscape:window-x="-9" inkscape:window-y="-9" inkscape:window-maximized="1" inkscape:current-layer="g4191"/><g id="g3955" inkscape:groupmode="layer" inkscape:label="Nagano LOGO" transform="matrix(1.3333333,0,0,-1.3333333,-214.77089,372.3444)"><g transform="matrix(0.12889019,0,0,0.12889019,140.14615,53.695835)" inkscape:label="Nagano LOGO" id="g4191"><path inkscape:connector-curvature="0" id="path4207" style="fill:#4e748b;fill-opacity:1;fill-rule:evenodd;stroke:none" d="m 464.99,759.499 h 743.431 v 4.934 H 464.99 Z"/><g id="g4209"><g clip-path="url(#clipPath4215)" id="g4211"><g transform="translate(1202.2578,1139.4335)" id="g4217"><path inkscape:connector-curvature="0" id="path4219" style="fill:#b1b4b3;fill-opacity:1;fill-rule:evenodd;stroke:none" d="m 0,0 c 73.454,-34.381 176.603,-76.581 148.47,-34.381 0,0 -25.004,56.261 -140.656,82.833 0,0 132.842,-1.564 264.121,-85.959 0,0 -75.013,89.081 -228.174,135.967 -56.266,18.755 -79.707,21.881 -118.786,31.261 -90.641,3.125 -73.454,-12.506 -46.883,-26.572 0,0 42.201,-17.194 -4.692,-3.127 -37.506,12.505 -101.587,25.011 -195.359,18.758 h 3.129 C -131.281,107.84 34.375,-68.767 82.827,-98.461 c 0,0 -31.255,48.449 -84.395,98.461 z"/></g><g transform="translate(652.1221,1131.621)" id="g4221"><path inkscape:connector-curvature="0" id="path4223" style="fill:#b1b4b3;fill-opacity:1;fill-rule:evenodd;stroke:none" d="m 0,0 c 10.936,18.753 103.149,73.453 145.347,82.833 l 4.688,1.56 C 114.088,90.647 17.194,71.892 -18.758,48.447 -46.886,31.254 -65.64,15.626 -65.64,15.626 c -3.127,10.941 -6.254,23.446 15.626,40.639 -39.072,-14.07 -81.272,-43.765 -78.144,-107.84 -7.814,-7.813 -6.25,-18.755 -4.689,-26.571 3.128,-9.375 10.941,-15.628 17.194,-9.375 0,0 1.561,-82.833 -64.08,-123.469 73.458,18.75 109.4,73.455 107.839,126.594 z"/></g><g transform="translate(859.9795,908.1259)" id="g4225"><path inkscape:connector-curvature="0" id="path4227" style="fill:#b1b4b3;fill-opacity:1;fill-rule:evenodd;stroke:none" d="m 0,0 c -86.369,-1.064 -139.273,34.246 -164.173,56.792 -11.596,10.499 -2.026,17.422 5.849,16.195 13.126,-2.045 28.998,-3.632 58.303,5.159 65.641,21.881 23.444,70.328 23.444,70.328 7.814,-1.561 21.88,-7.814 17.194,26.569 -12.506,76.581 42.195,110.966 42.195,110.966 l -1.562,-7.814 C -23.441,189.109 15.635,167.232 15.635,167.232 59.396,185.987 54.704,115.654 54.704,115.654 92.213,35.957 68.771,-54.704 68.771,-54.704 54.704,54.705 35.947,35.957 35.947,35.957 43.768,-9.383 6.251,-28.133 6.251,-28.133 10.943,-23.448 9.384,0 0,0"/></g><g transform="translate(844.3525,1301.974)" id="g4229"><path inkscape:connector-curvature="0" id="path4231" style="fill:#b1b4b3;fill-opacity:1;fill-rule:evenodd;stroke:none" d="m 0,0 h -1.562 c -76.58,1.561 -92.208,59.388 -48.447,78.146 23.445,9.375 59.392,20.315 35.947,20.315 -18.755,-1.565 -50.014,-3.128 -34.386,9.378 10.94,9.375 39.073,18.755 53.139,21.877 -28.133,-14.063 -20.314,-43.76 42.198,-23.441 10.936,3.127 170.351,59.388 159.416,84.394 39.068,-26.567 -21.879,-53.136 -59.389,-70.328 -20.319,-9.38 -29.692,-12.502 -18.757,-18.753 21.879,-4.692 25.011,-14.067 23.442,-18.76 C 140.665,64.075 81.267,42.2 -3.123,45.322 50.012,53.136 85.958,78.146 62.517,85.956 62.517,73.455 7.813,60.953 -4.687,54.7 -21.881,45.322 -64.076,21.88 0,0"/></g><g transform="translate(661.4971,1305.0961)" id="g4233"><path inkscape:connector-curvature="0" id="path4235" style="fill:#b1b4b3;fill-opacity:1;fill-rule:evenodd;stroke:none" d="m 0,0 c 37.511,-10.936 67.206,-29.694 78.146,-46.883 -45.326,25.008 -121.907,31.256 -146.91,29.695 -14.065,1.561 -117.217,12.501 -120.344,12.501 -137.533,10.945 -165.662,59.392 -185.98,71.893 20.318,-9.375 85.958,-34.381 120.339,-29.694 -31.254,6.252 -62.514,20.319 -71.892,29.694 -21.88,23.446 -17.189,54.7 -12.502,68.766 C -312.575,101.591 -228.177,64.08 -81.269,39.078 -131.281,15.631 -165.663,-12.5 0,0"/></g><g transform="translate(1025.6465,1151.9388)" id="g4237"><path inkscape:connector-curvature="0" id="path4239" style="fill:#b1b4b3;fill-opacity:1;fill-rule:evenodd;stroke:none" d="m 0,0 c 50.012,-21.884 103.148,-92.211 107.84,-107.839 0,-4.692 0,-7.819 1.559,-12.501 6.255,-6.252 14.069,-15.632 17.198,-21.885 12.499,-17.189 25.004,-45.322 21.882,-51.573 -1.563,0 -10.946,12.501 -14.069,17.192 -12.505,21.88 -32.824,32.82 -25.011,10.939 12.506,-29.7 40.639,-53.135 60.958,-70.322 -54.703,18.75 -107.84,68.758 -115.654,101.578 0,7.819 -12.506,34.386 -32.825,51.578 C -1.56,-28.132 -51.575,12.502 -93.772,34.382 -70.331,25.002 -20.319,1.561 0,0"/></g><g transform="translate(1020.9639,1717.6976)" id="g4241"><path inkscape:connector-curvature="0" id="path4243" style="fill:#ffa500;fill-opacity:1;fill-rule:evenodd;stroke:none" d="m 0,0 c 0,0 -1.568,1.564 0,0 31.253,-45.322 15.628,-129.719 -17.196,-168.789 -10.937,-14.066 -17.191,-21.88 -7.815,-40.638 14.066,-39.069 3.129,-81.269 -46.883,-98.458 -25.01,-7.817 -35.946,-14.065 -62.52,-4.691 54.707,15.633 68.766,50.014 50.016,78.146 -15.628,-39.072 -35.948,-37.511 -64.081,-68.771 -9.375,-9.375 -40.63,-60.948 -31.255,-110.962 -26.567,32.82 -26.567,98.461 -12.5,128.156 17.183,37.511 51.569,57.83 29.689,48.452 -7.814,-6.253 -23.442,-12.506 -23.442,-6.253 -3.122,7.814 1.561,32.82 46.891,67.205 -1.569,25.006 21.879,59.389 51.575,42.2 C -62.52,-120.341 -1.568,-59.388 0,0"/></g><g transform="translate(988.1396,1094.1132)" id="g4245"><path inkscape:connector-curvature="0" id="path4247" style="fill:#7e57c6;fill-opacity:1;fill-rule:evenodd;stroke:none" d="M 0,0 C 21.879,12.5 29.152,-6.63 26.57,-23.447 23.939,-39.213 15.791,-66.029 4.902,-84.385 -4.688,-49.973 -7.344,-16.892 0,0 M 11.622,-105.524 C 72.104,-42.378 81.135,14.502 70.331,50.008 64.077,64.075 53.134,84.394 23.441,71.889 18.757,70.328 3.129,64.075 -1.562,85.955 c -1.56,15.628 -6.251,32.82 -28.134,50.012 -26.57,20.319 -81.267,15.628 -101.586,9.375 31.256,1.566 68.761,-9.375 89.081,-37.503 -1.56,1.561 -10.937,9.375 -18.75,3.122 -6.251,-4.687 -4.692,-10.939 -1.57,-17.189 -43.75,42.195 -85.954,40.634 -109.395,37.503 53.14,-7.808 84.395,-46.881 103.151,-78.141 7.814,-17.192 14.069,-39.068 15.627,-65.639 0.985,-22.156 2.998,-38.716 6.043,-51.217 2.83,-11.617 11.682,-34.181 22.699,-52.192 14.827,-24.239 44.085,-56.835 83.781,-68.51 -19.677,16.965 -36.407,47.188 -47.763,78.9"/></g><g transform="translate(569.2891,1361.3622)" id="g4249"><path inkscape:connector-curvature="0" id="path4251" style="fill:#ff6d0f;fill-opacity:1;fill-rule:evenodd;stroke:none" d="m 0,0 c -51.575,-10.941 -60.953,-32.821 -71.894,-48.447 -18.753,-6.255 -45.32,-37.513 -26.567,-51.575 -4.687,-18.758 -53.139,-70.332 -104.713,-89.085 56.261,-4.689 128.154,28.132 145.346,51.572 -10.939,-23.44 -1.561,-51.572 42.197,-31.254 12.505,3.123 54.703,20.315 87.525,62.515 -43.766,-26.569 -82.833,-28.134 -87.525,-15.633 6.256,4.692 9.378,17.194 9.378,18.758 4.689,-7.814 28.133,-9.378 45.325,0 29.695,17.189 81.269,48.447 145.349,15.628 -35.947,50.013 -103.152,64.08 -123.472,62.514 -18.75,1.566 -31.255,-3.126 -42.196,-10.94 -21.879,-10.936 -28.128,-1.561 -15.626,6.253 12.5,12.506 48.447,23.442 70.328,20.319 C 39.072,12.505 0,0 0,0"/></g><g transform="translate(527.0894,1544.2177)" id="g4253"><path inkscape:connector-curvature="0" id="path4255" style="fill:#00953b;fill-opacity:1;fill-rule:evenodd;stroke:none" d="M 0,0 C 1.566,-12.502 9.38,-40.63 34.386,-57.822 53.139,-71.889 92.213,-85.956 126.594,-89.083 76.581,-67.202 20.319,-26.569 0,0 m 178.168,-73.45 c 57.828,-62.519 82.833,-171.919 82.833,-171.919 -23.441,50.012 -82.833,101.586 -151.599,117.214 -32.821,7.819 -67.202,10.939 -93.77,15.628 -67.205,9.378 -120.345,48.452 -125.032,76.58 18.753,-21.875 70.328,-42.195 107.839,-48.448 -18.753,10.945 -32.82,23.445 -32.82,54.701 C -54.7,-7.811 -59.387,54.703 -39.072,68.77 -23.441,51.578 -6.253,40.638 4.691,39.077 c 34.383,3.121 67.203,0 106.275,-21.885 C 139.099,0 165.666,-40.63 178.168,-73.45"/></g><g transform="translate(628.6772,926.8759)" id="g4257"><path inkscape:connector-curvature="0" id="path4259" style="fill:#0075c9;fill-opacity:1;fill-rule:evenodd;stroke:none" d="M 0,0 C 57.826,40.643 85.958,118.79 73.458,150.043 68.767,129.724 50.012,117.224 43.764,110.971 45.325,65.649 9.378,17.207 0,0 m -151.597,-101.586 c 51.575,23.448 112.528,84.399 128.156,137.541 4.686,23.441 -6.253,32.821 -14.067,12.502 -7.814,-15.629 -39.073,-35.952 -40.634,3.126 0,35.946 12.501,70.327 17.189,81.269 -14.067,50.013 29.693,82.833 45.326,81.272 34.38,60.952 123.466,106.274 179.727,103.147 -51.573,-21.879 -95.333,-87.52 -103.147,-145.347 15.628,34.381 85.96,31.255 79.706,-35.947 -9.378,-85.959 -114.087,-175.037 -206.3,-215.675 -40.633,-18.75 -71.894,-20.309 -85.956,-21.888"/></g><g transform="translate(1013.1504,1331.6683)" id="g4261"><path inkscape:connector-curvature="0" id="path4263" style="fill:#eb0045;fill-opacity:1;fill-rule:evenodd;stroke:none" d="m 0,0 c 54.693,-20.314 137.533,-10.941 159.412,12.505 -25.011,-1.566 -43.767,0 -50.012,3.122 C 70.321,-1.561 28.123,-1.561 0,0 m -48.452,-26.572 c -21.882,1.564 -62.521,-3.122 -95.335,-26.567 18.75,28.131 56.256,56.264 101.586,67.205 28.133,7.814 79.708,7.814 84.389,21.881 -26.56,-4.689 -40.628,9.378 -28.123,21.88 12.498,10.94 31.255,23.44 70.325,37.506 10.942,32.822 64.08,42.2 92.213,18.755 28.132,12.506 146.906,15.631 203.172,-28.13 -71.893,7.814 -160.974,-35.945 -184.422,-56.264 -12.499,-9.375 -7.814,-15.628 9.382,-15.628 32.816,-3.127 53.135,-56.266 7.815,-79.707 -7.815,-3.126 -17.197,-6.253 -25.011,-7.814 68.768,-23.44 104.715,-21.88 104.715,-21.88 -59.386,-15.626 -139.093,9.375 -185.985,28.133 -37.507,15.627 -115.652,40.63 -154.721,40.63"/></g><g transform="translate(495.3677,539.1429)" id="g4265"><path inkscape:connector-curvature="0" id="path4267" style="fill:#4e748b;fill-opacity:1;fill-rule:nonzero;stroke:none" d="M 0,0 C 5.373,2.815 10.497,6.336 15.291,10.561 H 25.953 V -59.646 H 13.472 V -5.029 C 11.075,-7.242 6.282,-10.863 0,-13.981 Z"/></g><g transform="translate(732.6274,528.4808)" id="g4269"><path inkscape:connector-curvature="0" id="path4271" style="fill:#4e748b;fill-opacity:1;fill-rule:nonzero;stroke:none" d="m 0,0 c 0,6.136 -2.645,10.662 -7.687,10.662 -5.868,0 -8.017,-5.733 -8.017,-11.064 0,-2.414 0.579,-11.065 7.769,-11.065 C -1.818,-11.467 0,-4.929 0,0 m -14.795,-31.885 c 0.331,-4.223 2.563,-6.839 6.034,-6.839 8.596,0 9.257,10.863 9.009,20.519 -4.133,-4.526 -7.852,-4.828 -10.414,-4.828 -14.134,0 -17.77,13.679 -17.77,22.027 0,13.075 7.686,23.033 20.415,23.033 19.836,0 20.332,-22.932 20.332,-34.197 0,-29.672 -8.265,-38.12 -22.233,-38.12 -3.224,0 -17.853,0 -17.853,18.405 z"/></g><g transform="translate(950.7578,528.4808)" id="g4273"><path inkscape:connector-curvature="0" id="path4275" style="fill:#4e748b;fill-opacity:1;fill-rule:nonzero;stroke:none" d="m 0,0 c 0,6.136 -2.645,10.662 -7.687,10.662 -5.868,0 -8.016,-5.733 -8.016,-11.064 0,-2.414 0.578,-11.065 7.768,-11.065 C -1.818,-11.467 0,-4.929 0,0 m -14.795,-31.885 c 0.331,-4.223 2.563,-6.839 6.034,-6.839 8.596,0 9.257,10.863 9.009,20.519 -4.133,-4.526 -7.852,-4.828 -10.414,-4.828 -14.134,0 -17.77,13.679 -17.77,22.027 0,13.075 7.687,23.033 20.415,23.033 19.836,0 20.333,-22.932 20.333,-34.197 0,-29.672 -8.266,-38.12 -22.234,-38.12 -3.224,0 -17.853,0 -17.853,18.405 z"/></g><g transform="translate(1170.1689,531.0961)" id="g4277"><path inkscape:connector-curvature="0" id="path4279" style="fill:#4e748b;fill-opacity:1;fill-rule:nonzero;stroke:none" d="m 0,0 c 0,5.732 -3.803,8.75 -7.687,8.75 -4.132,0 -7.521,-3.42 -7.521,-8.75 0,-4.929 2.893,-9.053 7.438,-9.053 4.215,0 7.77,3.42 7.77,9.053 m 0.413,-31.281 c 0,6.337 -3.885,10.159 -8.266,10.159 -4.793,0 -8.264,-4.426 -8.264,-10.36 0,-7.141 4.38,-10.46 8.347,-10.46 3.471,0 8.183,2.816 8.183,10.661 M -27.523,0.201 c 0,8.549 5.868,19.613 19.919,19.613 11.571,0 19.588,-8.046 19.588,-19.009 0,-8.45 -5.455,-14.284 -11.323,-15.39 2.315,-0.804 6.198,-2.012 9.257,-7.241 1.983,-3.42 2.645,-7.041 2.645,-10.461 0,-12.874 -9.836,-20.418 -21.159,-20.418 -11.737,0 -19.837,9.153 -19.837,20.418 0,5.432 1.737,9.354 4.216,12.271 2.81,3.32 5.455,4.325 7.604,5.231 -2.893,1.105 -10.91,4.123 -10.91,14.986"/></g><g transform="translate(643.4863,647.932)" id="g4281"><path inkscape:connector-curvature="0" id="path4283" style="fill:#4e748b;fill-opacity:1;fill-rule:evenodd;stroke:none" d="M 0,0 C 8.68,20.636 17.093,40.52 17.093,40.52 L 34.676,0 Z M 23.328,63.902 H 9.302 c 1.557,-1.557 1.557,-4.687 -1.556,-10.914 -1.56,-3.113 -38.959,-88.82 -40.52,-93.488 -1.557,-4.688 -4.673,-9.355 -7.791,-12.469 h 20.26 c 0,0 -1.56,1.555 1.556,7.781 0.631,1.897 6.616,16.281 13.519,32.739 h 45.309 l 12.856,-29.625 c 1.56,-3.114 1.56,-7.781 1.56,-10.895 h 24.929 c 0,0 -6.229,7.781 -9.347,14.024 z"/></g><g transform="translate(809.3555,653.6273)" id="g4285"><path inkscape:connector-curvature="0" id="path4287" style="fill:#4e748b;fill-opacity:1;fill-rule:evenodd;stroke:none" d="m 0,0 c 0,0 3.085,-3.146 3.085,-7.882 v -31.491 c -7.712,-6.292 -20.05,-11.025 -33.933,-11.025 -24.681,0 -43.191,23.625 -43.191,50.398 0,29.917 20.055,48.809 44.731,48.809 12.343,0 23.14,-3.147 33.938,-9.455 v 15.747 c -9.257,4.733 -21.595,6.307 -33.938,6.307 -35.478,0 -64.786,-23.628 -64.786,-61.408 0,-34.652 26.226,-62.981 63.246,-62.981 20.05,0 37.019,7.863 49.357,17.316 v 37.783 c 0,0 0,7.882 3.087,7.882 z"/></g><g transform="translate(1142.0537,603.3041)" id="g4289"><path inkscape:connector-curvature="0" id="path4291" style="fill:#4e748b;fill-opacity:1;fill-rule:evenodd;stroke:none" d="m 0,0 c -24.787,0 -41.823,23.473 -41.823,50.073 0,26.598 18.582,48.492 41.823,48.492 23.231,0 43.369,-21.894 43.369,-48.492 C 43.369,23.473 23.231,0 0,0 m 0,111.084 c -34.079,0 -61.961,-26.601 -61.961,-61.011 0,-34.428 27.882,-62.574 61.961,-62.574 34.077,0 61.951,28.146 61.951,62.574 0,34.41 -27.874,61.011 -61.951,61.011"/></g><g transform="translate(871.9883,647.932)" id="g4293"><path inkscape:connector-curvature="0" id="path4295" style="fill:#4e748b;fill-opacity:1;fill-rule:evenodd;stroke:none" d="M 0,0 C 8.68,20.636 17.094,40.52 17.094,40.52 L 34.677,0 Z M 23.33,63.902 H 9.303 c 1.558,-1.557 1.558,-4.687 -1.565,-10.914 -1.554,-3.113 -37.396,-88.82 -38.953,-93.488 -3.113,-4.688 -6.23,-9.355 -9.351,-12.469 h 20.254 c 0,0 -1.555,1.555 1.565,7.781 0.63,1.897 6.614,16.281 13.517,32.739 h 45.31 l 12.856,-29.625 c 1.557,-3.114 1.557,-7.781 1.557,-10.895 h 24.929 c 0,0 -6.234,7.781 -9.347,14.024 z"/></g><g transform="translate(1053.7988,702.4154)" id="g4297"><path inkscape:connector-curvature="0" id="path4299" style="fill:#4e748b;fill-opacity:1;fill-rule:evenodd;stroke:none" d="M 0,0 V -73.784 L -76.177,9.425 H -94.84 c 0,0 3.116,-3.153 3.116,-12.562 v -95.77 c 0,-3.137 -1.561,-7.843 -3.116,-9.409 h 20.214 c 0,0 -3.105,3.136 -3.105,9.409 v 83.209 l 90.172,-98.907 V 0 c 0,6.272 3.113,7.855 4.667,9.425 H -3.105 C -3.105,9.425 0,6.272 0,0"/></g><g transform="translate(584.645,702.4095)" id="g4301"><path inkscape:connector-curvature="0" id="path4303" style="fill:#4e748b;fill-opacity:1;fill-rule:evenodd;stroke:none" d="M 0,0 V -73.784 L -76.178,9.425 H -94.84 c 0,0 3.116,-3.153 3.116,-12.562 v -95.77 c 0,-3.136 -1.561,-7.843 -3.116,-9.409 h 20.214 c 0,0 -3.106,3.136 -3.106,9.409 v 83.209 L 12.44,-114.605 V 0 c 0,6.272 3.113,7.855 4.667,9.425 H -3.106 C -3.106,9.425 0,6.272 0,0"/></g><g transform="translate(745.8018,351.7836)" id="g4305"><path inkscape:connector-curvature="0" id="path4307" style="fill:#ffc72a;fill-opacity:1;fill-rule:nonzero;stroke:none" d="M 0,0 C 1.543,0 3.069,-0.071 4.586,-0.176 6,-0.272 7.4,-0.414 8.788,-0.599 c 6.159,-0.818 12.05,-2.477 17.552,-4.871 1.648,-0.716 3.263,-1.493 4.837,-2.337 15.224,-8.158 26.881,-22.099 32.032,-38.892 5.667,-2.836 11.822,-4.841 18.315,-5.827 -4.871,29.431 -25.283,53.608 -52.536,63.816 -1.341,0.502 -2.696,0.975 -4.069,1.408 -5.237,1.654 -10.698,2.805 -16.329,3.386 -1.358,0.14 -2.726,0.245 -4.103,0.319 -1.486,0.079 -2.981,0.125 -4.487,0.125 -1.506,0 -3.001,-0.046 -4.488,-0.125 0.221,-2.525 0.356,-5.075 0.356,-7.657 0,-3.012 -0.155,-5.988 -0.454,-8.922 C -3.069,-0.071 -1.543,0 0,0"/></g><g transform="translate(811.394,277.5209)" id="g4309"><path inkscape:connector-curvature="0" id="path4311" style="fill:#ffc72a;fill-opacity:1;fill-rule:nonzero;stroke:none" d="m 0,0 c -4.02,-32.663 -31.843,-57.959 -65.592,-57.959 -33.75,0 -61.573,25.296 -65.593,57.958 -0.171,1.389 -0.307,2.788 -0.391,4.202 -0.077,1.308 -0.128,2.623 -0.128,3.951 0,4.882 0.545,9.635 1.55,14.216 0.385,1.758 0.83,3.493 1.352,5.195 5.151,16.792 16.808,30.735 32.032,38.893 1.458,5.272 2.254,10.817 2.254,16.553 0,0.853 -0.03,1.699 -0.065,2.544 -27.252,-10.208 -47.665,-34.385 -52.536,-63.817 -0.232,-1.401 -0.429,-2.814 -0.59,-4.239 -0.345,-3.069 -0.541,-6.184 -0.541,-9.345 0,-2.474 0.13,-4.918 0.343,-7.338 0.121,-1.377 0.277,-2.746 0.465,-4.104 5.575,-40.222 40.084,-71.196 81.848,-71.196 41.763,0 76.272,30.974 81.847,71.196 C 10.661,-2.71 5.228,-1.593 0,0"/></g><g transform="translate(737.2114,367.8676)" id="g4313"><path inkscape:connector-curvature="0" id="path4315" style="fill:#0082ca;fill-opacity:1;fill-rule:nonzero;stroke:none" d="m 0,0 c -0.121,1.379 -0.277,2.747 -0.465,4.105 -5.576,40.221 -40.084,71.197 -81.848,71.197 -45.648,0 -82.654,-36.999 -82.654,-82.64 0,-45.64 37.006,-82.639 82.654,-82.639 1.506,0 3.001,0.046 4.488,0.126 -0.221,2.525 -0.356,5.075 -0.356,7.657 0,3.011 0.155,5.988 0.455,8.922 -1.517,-0.105 -3.043,-0.176 -4.587,-0.176 -36.512,0 -66.111,29.598 -66.111,66.11 0,36.513 29.599,66.111 66.111,66.111 33.75,0 61.573,-25.295 65.593,-57.958 0.171,-1.388 0.307,-2.788 0.391,-4.201 0.077,-1.308 0.127,-2.624 0.127,-3.952 0,-4.882 -0.545,-9.635 -1.548,-14.216 -0.386,-1.758 -0.831,-3.492 -1.354,-5.195 -5.15,-16.792 -16.807,-30.734 -32.032,-38.892 -1.458,-5.271 -2.253,-10.818 -2.253,-16.553 0,-0.854 0.03,-1.7 0.064,-2.543 27.253,10.207 47.666,34.384 52.536,63.815 0.232,1.402 0.43,2.815 0.591,4.239 0.345,3.07 0.54,6.184 0.54,9.345 C 0.342,-4.863 0.213,-2.419 0,0"/></g><g transform="translate(993.1992,277.5199)" id="g4317"><path inkscape:connector-curvature="0" id="path4319" style="fill:#00953b;fill-opacity:1;fill-rule:nonzero;stroke:none" d="m 0,0 c -4.02,-32.662 -31.843,-57.958 -65.592,-57.958 -33.75,0 -61.573,25.296 -65.593,57.958 -0.17,1.389 -0.307,2.788 -0.39,4.202 -0.077,1.308 -0.128,2.623 -0.128,3.951 0,4.882 0.545,9.635 1.549,14.216 0.385,1.758 0.831,3.493 1.352,5.195 5.152,16.792 16.809,30.735 32.032,38.893 1.458,5.272 2.254,10.817 2.254,16.553 0,0.853 -0.03,1.699 -0.064,2.544 -27.253,-10.208 -47.665,-34.385 -52.536,-63.817 -0.233,-1.401 -0.43,-2.814 -0.59,-4.239 -0.346,-3.069 -0.541,-6.184 -0.541,-9.345 0,-2.474 0.129,-4.918 0.342,-7.338 0.122,-1.377 0.277,-2.746 0.466,-4.104 5.575,-40.222 40.084,-71.196 81.847,-71.196 41.763,0 76.272,30.974 81.847,71.196 C 10.661,-2.709 5.228,-1.592 0,0"/></g><g transform="translate(927.6074,351.7836)" id="g4321"><path inkscape:connector-curvature="0" id="path4323" style="fill:#00953b;fill-opacity:1;fill-rule:nonzero;stroke:none" d="M 0,0 C 1.543,0 3.068,-0.071 4.586,-0.176 6,-0.272 7.4,-0.414 8.788,-0.599 c 6.159,-0.818 12.05,-2.477 17.552,-4.871 1.647,-0.716 3.263,-1.493 4.837,-2.337 15.223,-8.158 26.881,-22.1 32.032,-38.892 5.667,-2.836 11.821,-4.842 18.314,-5.827 -4.87,29.431 -25.283,53.608 -52.536,63.816 -1.341,0.502 -2.695,0.975 -4.068,1.408 -5.237,1.654 -10.698,2.805 -16.329,3.386 -1.359,0.14 -2.727,0.245 -4.103,0.319 -1.486,0.079 -2.981,0.125 -4.487,0.125 -1.507,0 -3.002,-0.046 -4.488,-0.125 0.221,-2.525 0.355,-5.075 0.355,-7.657 0,-3.012 -0.154,-5.988 -0.454,-8.922 C -3.069,-0.071 -1.544,0 0,0"/></g><g transform="translate(836.7041,294.4193)" id="g4325"><path inkscape:connector-curvature="0" id="path4327" style="fill:#2d2a26;fill-opacity:1;fill-rule:nonzero;stroke:none" d="M 0,0 C -1.543,0 -3.069,0.071 -4.586,0.176 -6,0.272 -7.4,0.414 -8.789,0.599 c -6.158,0.818 -12.049,2.477 -17.552,4.871 -1.647,0.717 -3.262,1.494 -4.836,2.338 -15.224,8.157 -26.881,22.099 -32.032,38.891 -5.667,2.837 -11.822,4.842 -18.315,5.827 4.871,-29.43 25.283,-53.608 52.536,-63.815 1.341,-0.503 2.696,-0.975 4.069,-1.408 5.237,-1.655 10.698,-2.805 16.329,-3.387 1.358,-0.14 2.726,-0.245 4.103,-0.318 1.486,-0.08 2.981,-0.126 4.487,-0.126 1.506,0 3.001,0.046 4.487,0.126 -0.22,2.524 -0.355,5.074 -0.355,7.656 0,3.012 0.155,5.988 0.454,8.922 C 3.069,0.071 1.544,0 0,0"/></g><g transform="translate(919.0166,367.8676)" id="g4329"><path inkscape:connector-curvature="0" id="path4331" style="fill:#2d2a26;fill-opacity:1;fill-rule:nonzero;stroke:none" d="m 0,0 c -0.121,1.379 -0.276,2.747 -0.465,4.105 -5.575,40.221 -40.084,71.197 -81.848,71.197 -41.763,0 -76.271,-30.976 -81.847,-71.197 5.595,-0.581 11.028,-1.698 16.255,-3.29 4.02,32.663 31.843,57.958 65.592,57.958 33.75,0 61.574,-25.295 65.593,-57.958 0.171,-1.388 0.308,-2.788 0.391,-4.201 0.077,-1.308 0.128,-2.624 0.128,-3.952 0,-4.882 -0.545,-9.635 -1.549,-14.216 -0.386,-1.758 -0.831,-3.492 -1.354,-5.195 -5.15,-16.792 -16.807,-30.734 -32.032,-38.893 -1.458,-5.271 -2.253,-10.817 -2.253,-16.552 0,-0.854 0.031,-1.7 0.065,-2.543 27.253,10.207 47.665,34.384 52.536,63.815 0.231,1.402 0.43,2.815 0.59,4.239 0.345,3.07 0.541,6.184 0.541,9.345 C 0.343,-4.863 0.213,-2.419 0,0"/></g><g transform="translate(1018.5098,443.1693)" id="g4333"><path inkscape:connector-curvature="0" id="path4335" style="fill:#eb0045;fill-opacity:1;fill-rule:nonzero;stroke:none" d="m 0,0 c -41.764,0 -76.272,-30.976 -81.848,-71.196 5.594,-0.581 11.028,-1.699 16.255,-3.29 4.02,32.662 31.843,57.958 65.593,57.958 36.512,0 66.111,-29.599 66.111,-66.112 0,-36.511 -29.599,-66.11 -66.111,-66.11 -1.544,0 -3.069,0.071 -4.587,0.176 -1.413,0.096 -2.813,0.238 -4.202,0.423 -6.158,0.818 -12.05,2.477 -17.552,4.871 -1.647,0.717 -3.262,1.494 -4.836,2.338 -15.224,8.157 -26.882,22.099 -32.032,38.891 -5.667,2.837 -11.822,4.842 -18.315,5.827 4.871,-29.43 25.283,-53.608 52.536,-63.815 1.341,-0.503 2.696,-0.975 4.068,-1.408 5.238,-1.655 10.699,-2.805 16.33,-3.387 1.358,-0.14 2.726,-0.245 4.103,-0.318 1.486,-0.08 2.981,-0.126 4.487,-0.126 45.648,0 82.654,36.999 82.654,82.638 C 82.654,-36.999 45.648,0 0,0"/></g><g transform="translate(599.1304,158.7318)" id="g4337"><path inkscape:connector-curvature="0" id="path4339" style="fill:#000000;fill-opacity:1;fill-rule:nonzero;stroke:none" d="m 0,0 c -0.126,0.797 -0.535,3.985 -4.903,3.985 -5.469,0 -6.443,-5.675 -6.443,-9.502 0,-4.337 1.225,-9.023 6.411,-9.023 1.383,0 2.704,0.351 3.678,1.371 0.817,0.893 1.005,1.881 1.1,2.423 H 3.3 c -0.471,-4.527 -4.589,-6.409 -8.486,-6.409 -7.983,0 -9.523,7.142 -9.523,11.607 0,4.846 1.855,12.084 9.932,12.084 3.205,0 7.731,-1.307 8.14,-6.536 z"/></g><g transform="translate(625.9238,161.68)" id="g4341"><path inkscape:connector-curvature="0" id="path4343" style="fill:#000000;fill-opacity:1;fill-rule:nonzero;stroke:none" d="M 0,0 C -1.547,-1.314 -4.03,-2.812 -5.793,-3.651 V 0 c 2.338,1.241 4.642,2.774 6.045,3.979 H 3.455 V -21.285 H 0 Z"/></g><g transform="translate(643.5928,163.3959)" id="g4345"><path inkscape:connector-curvature="0" id="path4347" style="fill:#000000;fill-opacity:1;fill-rule:nonzero;stroke:none" d="m 0,0 c -2.915,0 -4.462,-2.446 -4.462,-5.439 0,-3.287 1.979,-5.185 4.714,-5.185 2.807,0 4.534,2.117 4.534,5.147 C 4.786,-1.826 2.447,0 0,0 m -4.138,-16.977 c 0,-2.19 1.187,-3.723 3.994,-3.723 5.47,0 5.505,6.535 5.326,10.477 -1.296,-2.482 -3.635,-3.175 -5.578,-3.175 -3.958,0 -7.593,2.701 -7.593,7.995 0,5.804 4.067,8.141 7.989,8.141 2.663,0 6.585,-1.095 8.024,-6.207 0.432,-1.533 0.72,-3.358 0.72,-6.79 0,-3.724 -0.036,-13.326 -9.176,-13.326 -3.382,0 -7.34,1.352 -7.485,6.608 z"/></g><g transform="translate(664.7109,163.3959)" id="g4349"><path inkscape:connector-curvature="0" id="path4351" style="fill:#000000;fill-opacity:1;fill-rule:nonzero;stroke:none" d="m 0,0 c -2.915,0 -4.462,-2.446 -4.462,-5.439 0,-3.287 1.979,-5.185 4.714,-5.185 2.807,0 4.534,2.117 4.534,5.147 C 4.786,-1.826 2.447,0 0,0 m -4.138,-16.977 c 0,-2.19 1.187,-3.723 3.994,-3.723 5.47,0 5.505,6.535 5.326,10.477 -1.296,-2.482 -3.635,-3.175 -5.578,-3.175 -3.958,0 -7.593,2.701 -7.593,7.995 0,5.804 4.067,8.141 7.989,8.141 2.663,0 6.585,-1.095 8.024,-6.207 0.432,-1.533 0.72,-3.358 0.72,-6.79 0,-3.724 -0.036,-13.326 -9.176,-13.326 -3.382,0 -7.341,1.352 -7.485,6.608 z"/></g><g transform="translate(680.3286,146.8939)" id="g4353"><path inkscape:connector-curvature="0" id="path4355" style="fill:#000000;fill-opacity:1;fill-rule:nonzero;stroke:none" d="m 0,0 c -0.036,-2.409 1.511,-4.126 4.57,-4.126 3.49,0 4.966,2.264 4.966,4.491 0,2.665 -1.764,4.052 -3.599,4.454 C 4.642,5.075 3.742,5.038 2.482,5.002 v 2.957 c 2.483,-0.22 6.658,0.292 6.658,4.381 0,2.848 -1.908,3.979 -4.39,3.979 -1.872,0 -4.21,-0.84 -4.535,-3.979 h -3.634 c 0.216,6.279 6.045,6.9 8.061,6.9 5.433,0 8.132,-3.322 8.132,-6.827 0,-2.081 -1.115,-5.075 -4.966,-5.951 5.326,-0.767 5.326,-5.622 5.326,-6.133 0,-3.542 -2.843,-7.448 -8.636,-7.448 -2.627,0 -5.254,0.766 -6.837,2.629 -1.404,1.606 -1.44,3.431 -1.475,4.49 z"/></g><g transform="translate(707.4663,166.7543)" id="g4357"><path inkscape:connector-curvature="0" id="path4359" style="fill:#000000;fill-opacity:1;fill-rule:nonzero;stroke:none" d="M 0,0 H 5.002 L 17.776,-21.795 V 0 h 3.311 V -26.359 H 16.48 L 3.274,-3.979 v -22.38 H 0 Z"/></g><g transform="translate(739.6626,150.2162)" id="g4361"><path inkscape:connector-curvature="0" id="path4363" style="fill:#000000;fill-opacity:1;fill-rule:nonzero;stroke:none" d="M 0,0 H 9.824 L 5.038,12.924 Z M 3.274,16.538 H 7.125 L 17.632,-9.821 H 13.71 l -2.807,6.864 H -1.151 l -2.807,-6.864 h -3.707 z"/></g><g transform="translate(763.6597,145.2875)" id="g4365"><path inkscape:connector-curvature="0" id="path4367" style="fill:#000000;fill-opacity:1;fill-rule:nonzero;stroke:none" d="m 0,0 c 1.475,-1.862 3.706,-2.409 5.757,-2.409 2.123,0 4.246,0.584 5.758,2.409 2.123,2.629 2.339,6.791 2.339,8.579 0,5.988 -1.943,10.515 -7.881,10.515 -6.585,0 -8.276,-5.366 -8.276,-10.77 C -2.303,5.439 -1.799,2.264 0,0 m -2.735,18.619 c 2.699,2.957 6.261,3.542 8.672,3.542 7.197,0 11.731,-4.674 11.731,-13.618 0,-7.01 -2.771,-14.056 -12.019,-14.056 -8.852,0 -11.73,6.389 -11.73,13.617 0,2.995 0.503,7.413 3.346,10.515"/></g><g transform="translate(801.5308,159.6351)" id="g4369"><path inkscape:connector-curvature="0" id="path4371" style="fill:#000000;fill-opacity:1;fill-rule:nonzero;stroke:none" d="m 0,0 c -0.144,0.913 -0.612,4.563 -5.613,4.563 -6.262,0 -7.377,-6.498 -7.377,-10.878 0,-4.966 1.403,-10.332 7.341,-10.332 1.583,0 3.094,0.401 4.21,1.569 0.935,1.022 1.151,2.154 1.259,2.775 h 3.958 c -0.54,-5.184 -5.253,-7.339 -9.715,-7.339 -9.14,0 -10.904,8.179 -10.904,13.289 0,5.55 2.124,13.837 11.371,13.837 3.671,0 8.852,-1.497 9.32,-7.484 z"/></g><g transform="translate(844.2119,155.3011)" id="g4373"><path inkscape:connector-curvature="0" id="path4375" style="fill:#000000;fill-opacity:1;fill-rule:nonzero;stroke:none" d="M 0,0 H 4.768 C 5.1,0 6.819,0 7.634,0.461 8.056,0.691 9.112,1.44 9.112,3.169 9.112,6.538 5.975,6.538 4.768,6.538 H 0 Z m -2.926,8.957 h 7.784 c 1.117,0 3.41,0 5.008,-0.978 1.629,-0.98 2.413,-2.564 2.413,-4.235 0,-1.469 -0.572,-2.765 -1.538,-3.686 -0.935,-0.893 -1.901,-1.181 -2.564,-1.353 2.082,-0.519 3.016,-1.412 3.318,-4.004 0.302,-2.448 0.513,-4.233 1.359,-6.538 H 9.625 C 9.142,-10.454 8.84,-7.92 8.629,-6.336 8.268,-3.312 7.513,-2.447 3.862,-2.447 H 0.061 v -9.39 h -2.987 z"/></g><g transform="translate(898.2422,167.4476)" id="g4377"><path inkscape:connector-curvature="0" id="path4379" style="fill:#000000;fill-opacity:1;fill-rule:nonzero;stroke:none" d="M 0,0 H 5.001 L 17.776,-21.795 V 0 h 3.31 V -26.358 H 16.48 L 3.274,-3.979 V -26.358 H 0 Z"/></g><g transform="translate(930.0684,150.9095)" id="g4381"><path inkscape:connector-curvature="0" id="path4383" style="fill:#000000;fill-opacity:1;fill-rule:nonzero;stroke:none" d="M 0,0 H 9.824 L 5.038,12.925 Z M 3.274,16.538 H 7.125 L 17.633,-9.82 H 13.71 l -2.807,6.863 H -1.151 L -3.958,-9.82 h -3.706 z"/></g><g transform="translate(954.8057,145.9808)" id="g4385"><path inkscape:connector-curvature="0" id="path4387" style="fill:#000000;fill-opacity:1;fill-rule:nonzero;stroke:none" d="m 0,0 c 1.476,-1.862 3.706,-2.409 5.757,-2.409 2.123,0 4.247,0.584 5.758,2.409 2.123,2.629 2.339,6.791 2.339,8.58 0,5.987 -1.943,10.514 -7.88,10.514 -6.586,0 -8.277,-5.366 -8.277,-10.77 C -2.303,5.44 -1.8,2.264 0,0 m -2.735,18.619 c 2.699,2.958 6.261,3.542 8.672,3.542 7.197,0 11.731,-4.673 11.731,-13.618 0,-7.009 -2.771,-14.056 -12.019,-14.056 -8.852,0 -11.73,6.389 -11.73,13.618 0,2.994 0.503,7.412 3.346,10.514"/></g><g transform="translate(991.9365,160.3285)" id="g4389"><path inkscape:connector-curvature="0" id="path4391" style="fill:#000000;fill-opacity:1;fill-rule:nonzero;stroke:none" d="m 0,0 c -0.144,0.913 -0.611,4.564 -5.613,4.564 -6.262,0 -7.377,-6.499 -7.377,-10.879 0,-4.965 1.403,-10.332 7.341,-10.332 1.583,0 3.094,0.401 4.21,1.57 0.935,1.021 1.151,2.154 1.259,2.774 h 3.958 c -0.54,-5.184 -5.254,-7.339 -9.715,-7.339 -9.14,0 -10.904,8.179 -10.904,13.29 0,5.549 2.123,13.836 11.371,13.836 3.671,0 8.853,-1.496 9.321,-7.484 z"/></g><g transform="translate(1019.4658,149.5228)" id="g4393"><path inkscape:connector-curvature="0" id="path4395" style="fill:#000000;fill-opacity:1;fill-rule:nonzero;stroke:none" d="M 0,0 V 13.325 L -8.601,0 Z M -0.108,-2.957 H -11.336 V 1.387 L -0.54,17.158 H 3.346 V 0 H 6.98 V -2.957 H 3.346 v -5.477 h -3.454 z"/></g><path inkscape:connector-curvature="0" id="path4397" style="fill:#000000;fill-opacity:1;fill-rule:nonzero;stroke:none" d="m 1029.572,154.331 h 8.077 v -2.775 h -8.077 z"/><g transform="translate(1050.1182,143.6078)" id="g4399"><path inkscape:connector-curvature="0" id="path4401" style="fill:#000000;fill-opacity:1;fill-rule:nonzero;stroke:none" d="m 0,0 c 4.175,0 4.895,5.55 4.895,10.076 0,6.061 -1.044,10.26 -4.822,10.26 -4.354,0 -4.93,-5.806 -4.93,-10.332 C -4.857,4.382 -3.777,0 0,0 m 0.037,23.256 c 7.448,0 8.348,-8.105 8.348,-12.851 C 8.385,4.418 7.197,1.06 4.931,-1.095 3.167,-2.774 1.08,-3.03 -0.035,-3.03 c -3.311,0 -5.578,1.971 -6.657,4.199 -0.829,1.679 -1.62,4.125 -1.62,8.652 0,3.76 0.432,13.435 8.349,13.435"/></g><g transform="translate(1070.8252,143.6078)" id="g4403"><path inkscape:connector-curvature="0" id="path4405" style="fill:#000000;fill-opacity:1;fill-rule:nonzero;stroke:none" d="m 0,0 c 4.175,0 4.894,5.55 4.894,10.076 0,6.061 -1.043,10.26 -4.822,10.26 -4.354,0 -4.929,-5.806 -4.929,-10.332 C -4.857,4.382 -3.778,0 0,0 m 0.036,23.256 c 7.449,0 8.349,-8.105 8.349,-12.851 C 8.385,4.418 7.197,1.06 4.93,-1.095 3.167,-2.774 1.08,-3.03 -0.036,-3.03 c -3.311,0 -5.577,1.971 -6.656,4.199 -0.829,1.679 -1.621,4.125 -1.621,8.652 0,3.76 0.432,13.435 8.349,13.435"/></g><g transform="translate(1090.1904,162.3734)" id="g4407"><path inkscape:connector-curvature="0" id="path4409" style="fill:#000000;fill-opacity:1;fill-rule:nonzero;stroke:none" d="M 0,0 C -1.547,-1.314 -4.03,-2.811 -5.793,-3.65 V 0 c 2.339,1.241 4.642,2.774 6.045,3.979 H 3.455 V -21.284 H 0 Z"/></g><g transform="translate(594.0073,138.4125)" id="g4411"><path inkscape:connector-curvature="0" id="path4413" style="fill:#000000;fill-opacity:1;fill-rule:nonzero;stroke:none" d="m 0,0 c -8.11,0 -14.684,6.67 -14.684,14.898 0,8.229 6.574,14.899 14.684,14.899 8.11,0 14.684,-6.67 14.684,-14.899 C 14.684,6.67 8.11,0 0,0 m 0,31.639 c -9.112,0 -16.499,-7.495 -16.499,-16.741 0,-9.245 7.387,-16.74 16.499,-16.74 9.112,0 16.499,7.495 16.499,16.74 0,9.246 -7.387,16.741 -16.499,16.741"/></g><g transform="translate(848.4355,138.4154)" id="g4415"><path inkscape:connector-curvature="0" id="path4417" style="fill:#000000;fill-opacity:1;fill-rule:nonzero;stroke:none" d="m 0,0 c -8.11,0 -14.684,6.67 -14.684,14.898 0,8.228 6.574,14.899 14.684,14.899 8.11,0 14.684,-6.671 14.684,-14.899 C 14.684,6.67 8.11,0 0,0 m 0,31.638 c -9.112,0 -16.499,-7.495 -16.499,-16.74 0,-9.245 7.387,-16.74 16.499,-16.74 9.112,0 16.499,7.495 16.499,16.74 0,9.245 -7.387,16.74 -16.499,16.74"/></g></g></g></g></g></svg>