<?xml version="1.0" encoding="UTF-8"?>
<!-- Generator: Adobe Illustrator 23.0.1, SVG Export Plug-In . SVG Version: 6.00 Build 0)  -->
<svg version="1.1" id="Ebene_1" xmlns:cc="http://creativecommons.org/ns#" xmlns:dc="http://purl.org/dc/elements/1.1/" xmlns:inkscape="http://www.inkscape.org/namespaces/inkscape" xmlns:rdf="http://www.w3.org/1999/02/22-rdf-syntax-ns#" xmlns:sodipodi="http://sodipodi.sourceforge.net/DTD/sodipodi-0.dtd" xmlns:svg="http://www.w3.org/2000/svg" xmlns="http://www.w3.org/2000/svg" xmlns:xlink="http://www.w3.org/1999/xlink" x="0px" y="0px" width="1000px" height="1009.716px" viewBox="0 0 1000 1009.716" enable-background="new 0 0 1000 1009.716" xml:space="preserve">
<g>
	<path d="M634.615,942.318c-2.332,0-4.619-0.15-6.861-0.478c-2.705-24.036-19.372-43.87-41.718-51.135   c1.525-25.5,22.69-45.708,48.578-45.708c26.875,0,48.653,21.793,48.653,48.668C683.268,920.54,661.49,942.318,634.615,942.318    M587.127,904.308c13.781,6.233,24.14,18.654,27.518,33.765C600.864,931.84,590.491,919.419,587.127,904.308z M567.143,997.384   c-25.874,0-47.054-20.209-48.579-45.708c22.346-7.265,39.027-27.085,41.718-51.135c2.242-0.314,4.544-0.478,6.861-0.478   c2.332,0,4.604,0.164,6.846,0.478c2.705,24.05,19.387,43.87,41.733,51.135C614.197,977.176,593.032,997.384,567.143,997.384z    M547.188,904.308c-3.378,15.111-13.737,27.532-27.533,33.765C523.019,922.962,533.392,910.541,547.188,904.308z M492.825,941.84   c-2.705-24.036-19.372-43.87-41.733-51.135c1.54-25.5,22.705-45.708,48.579-45.708c25.904,0,47.054,20.208,48.579,45.708   c-22.346,7.265-39.012,27.099-41.718,51.135c-2.242,0.328-4.529,0.478-6.861,0.478C497.339,942.318,495.067,942.169,492.825,941.84   z M452.184,904.308c13.781,6.233,24.155,18.654,27.518,33.765C465.92,931.84,455.547,919.419,452.184,904.308z M432.199,997.384   c-25.874,0-47.039-20.209-48.564-45.708c22.346-7.265,39.027-27.085,41.718-51.135c2.242-0.314,4.529-0.478,6.846-0.478   c2.332,0,4.634,0.164,6.876,0.478c2.676,24.05,19.372,43.87,41.718,51.135C479.268,977.176,458.103,997.384,432.199,997.384z    M412.23,904.308c-3.348,15.111-13.722,27.532-27.503,33.765C388.09,922.962,398.463,910.541,412.23,904.308z M316.074,893.665   c0-26.875,21.793-48.668,48.668-48.668c25.889,0,47.054,20.208,48.593,45.708c-22.346,7.265-39.027,27.099-41.748,51.135   c-2.212,0.328-4.514,0.478-6.846,0.478C337.867,942.318,316.074,920.54,316.074,893.665z M634.615,832.681   c-31.808,0-57.935,24.349-60.746,55.409c-2.197-0.239-4.454-0.359-6.726-0.359c-2.287,0-4.499,0.12-6.726,0.359   c-2.825-31.06-28.923-55.409-60.746-55.409c-31.808,0-57.921,24.349-60.731,55.409c-2.212-0.239-4.454-0.359-6.741-0.359   c-2.257,0-4.514,0.12-6.711,0.359c-2.825-31.06-28.938-55.409-60.746-55.409c-33.676,0-60.985,27.294-60.985,60.984   c0,33.692,27.309,60.985,60.985,60.985c2.272,0,4.514-0.12,6.726-0.359c2.81,31.075,28.938,55.424,60.731,55.424   c31.838,0,57.935-24.349,60.746-55.424c2.212,0.239,4.454,0.359,6.726,0.359c2.287,0,4.529-0.12,6.726-0.359   c2.825,31.075,28.923,55.424,60.746,55.424c31.808,0,57.935-24.349,60.746-55.424c2.212,0.239,4.454,0.359,6.726,0.359   c33.691,0,60.985-27.293,60.985-60.985C695.6,859.974,668.306,832.681,634.615,832.681z"/>
	<g>
		<path d="M907.656,700.681c0-11.314,0-32.555-13.079-32.555c-12.81,0-12.81,21.24-12.81,32.555c0,11.046-0.12,32.032,12.81,32.032    C907.776,732.713,907.656,711.727,907.656,700.681 M864.174,700.681c0-22.002,6.666-45.619,30.403-45.619    c25.649,0,30.672,25.261,30.672,45.619c0,20.344-5.276,45.111-30.672,45.111C867.553,745.792,864.174,719.022,864.174,700.681z"/>
		<path d="M941.691,744.283v-14.708c8.161-7.922,37.951-32.795,37.951-48.892c0-8.027-7.175-11.809-14.334-11.809    c-7.399,0-14.439,3.289-20.239,7.056l-1.375-14.589c7.922-4.021,17.085-6.279,26.023-6.279c16.711,0,27.518,8.416,27.518,25.62    c0,18.609-18.729,35.709-33.048,49.774H1000v13.827H941.691"/>
		<path d="M50.058,672.79c-5.53-2.392-11.704-3.767-17.862-3.767c-6.024,0-13.826,2.631-13.826,12.182    c0,15.231,38.474,8.819,38.474,38.235c0,19.252-15.201,26.532-32.944,26.532c-9.551,0-13.841-1.241-22.511-3.378l1.644-15.859    c6.024,3.273,12.944,5.411,19.85,5.411c6.667,0,15.605-3.408,15.605-11.33C38.489,704.104,0,711.025,0,681.982    c0-19.626,15.231-26.8,30.687-26.8c7.533,0,14.588,1.016,21.001,3.138L50.058,672.79"/>
		<path d="M112.044,674.3h-0.269l-12.69,36.231h25.649L112.044,674.3 M102.359,656.691h19.865l34.468,87.786h-19.506l-7.533-20.135    H94.048l-7.668,20.135H68.144L102.359,656.691z"/>
		<polyline points="173.642,656.691 191.265,656.691 191.265,730.636 225.33,730.636 225.33,744.477 173.642,744.477     173.642,656.691   "/>
		<polyline points="255.374,670.533 230.217,670.533 230.217,656.691 298.138,656.691 298.138,670.533 272.981,670.533     272.981,744.477 255.374,744.477 255.374,670.533   "/>
		<polyline points="346.761,656.691 364.369,656.691 364.369,730.636 398.448,730.636 398.448,744.477 346.761,744.477     346.761,656.691   "/>
		<path d="M455.143,674.3h-0.239l-12.69,36.231h25.65L455.143,674.3 M445.487,656.691h19.85l34.468,87.786h-19.491l-7.548-20.135    h-35.589l-7.668,20.135h-18.236L445.487,656.691z"/>
		<polyline points="516.771,656.691 534.364,656.691 534.364,694.419 566.067,656.691 587.695,656.691 551.598,698.065     589.205,744.477 566.186,744.477 534.633,703.715 534.364,703.715 534.364,744.477 516.771,744.477 516.771,656.691   "/>
		<polyline points="606.933,656.691 658.74,656.691 658.74,670.533 624.54,670.533 624.54,692.162 655.84,692.162 655.84,705.988     624.54,705.988 624.54,730.636 658.994,730.636 658.994,744.477 606.933,744.477 606.933,656.691   "/>
		<path d="M710.517,744.477v-14.724c8.176-7.922,37.966-32.824,37.966-48.922c0-8.041-7.16-11.808-14.319-11.808    c-7.444,0-14.469,3.273-20.253,7.04l-1.375-14.603c7.907-4.006,17.085-6.278,26.023-6.278c16.726,0,27.533,8.43,27.533,25.649    c0,18.625-18.729,35.74-33.063,49.805h35.829v13.842H710.517"/>
		<path d="M828.824,700.816c0-11.3,0-32.54-13.079-32.54c-12.825,0-12.825,21.24-12.825,32.54c0,11.075-0.135,32.077,12.825,32.077    C828.959,732.893,828.824,711.891,828.824,700.816 M785.328,700.816c0-21.987,6.666-45.634,30.418-45.634    c25.664,0,30.687,25.275,30.687,45.634c0,20.388-5.276,45.156-30.687,45.156C788.721,745.971,785.328,719.201,785.328,700.816z"/>
	</g>
	<g>
		<polyline fill="#FFFFFF" points="348.495,397.865 348.495,366.207 499.806,279.004 646.961,363.86 646.961,395.354     554.139,341.663 554.139,404.501 499.746,372.843 445.906,404.337 445.906,341.738 348.495,397.865   "/>
		<polyline fill="#3640E2" points="692.909,421.871 553.362,341.335 553.362,402.708 499.626,371.738 446.055,402.693     446.085,341.155 306.463,421.751 306.463,452.527 392.38,402.918 392.38,464.814 446.041,433.843 446.041,557.89 499.626,526.905     553.362,557.89 553.362,434.128 607.052,465.098 607.052,403.096 692.909,452.662 692.909,421.871   "/>
		<polyline fill="#FF4200" points="392.096,155.092 306.553,105.706 306.553,136.483 446.041,217.004 446.041,248.229     254.043,137.35 254.043,199.306 392.051,279.004 253.924,358.748 253.924,420.689 499.626,279.004 499.626,216.81     392.096,155.092   "/>
		<polyline fill="#FF4200" points="606.663,279.004 745.209,199.187 745.239,168.873 580.61,263.953 553.093,248.079     499.626,279.004 745.419,421.078 745.419,359.122 606.663,279.004   "/>
		<polyline fill="#FFA000" points="499.477,30.97 445.876,0 445.876,123.972 391.917,92.747 391.931,154.704 499.477,216.421     499.477,30.97   "/>
		<polyline fill="#FFA000" points="553.182,248.034 692.939,167.349 692.939,105.378 607.217,154.868 607.217,92.987     553.511,124.002 553.511,0.359 526.696,16.725 526.696,201.354 499.806,216.81 499.806,279.004 553.302,248.079 553.182,248.034       "/>
	</g>
</g>
</svg>