<svg enable-background="new 0 0 416.4 430.7" height="321.878501" viewBox="0 0 416.4 430.7" width="310.676233" xmlns="http://www.w3.org/2000/svg"><path d="m304.5 230.8c-10.1 8.2-28.1 9.6-35.4 0-7.4-9.6-2.8-25.3 9.2-34.8 12-9.4 27.6-9.9 34.1 0 5.2 7.9 4 25.2-7.9 34.8m-57.8 6.1c-10.4 6.3-29 6.4-34.1-2.7s1.2-22.2 14.4-29.8c13.3-7.7 27.2-7.5 32.3 1.6 5.2 9.1-.5 23.6-12.6 30.9zm-43.2-36.5c-11.4 7-27.5 8.3-31.3 2.5-3.7-5.6 3-16.5 15.4-25.3 8.8-6.3 26.7-13.9 30.1-4 2.7 7.5-1.3 18.9-14.2 26.8zm-12.8 40.5c-12.8 6.2-30.6 6.2-34.4-1.6s4.6-18.5 18.5-25.4c13.9-7 27.1-6.2 30.9 1.6 3.8 7.7-1 18.6-15 25.4zm43-78.4c10.2-9.7 24.7-12.9 31.1-6.9 5.3 5 4.6 21.6-6.7 31.4-11.2 9.7-25.6 10.6-31.7 6.4-8.5-5.8-4.4-19.8 7.3-30.9zm-102.8 84.4c-11.2 4.1-28.6 3.6-30.9-2.7s8.6-14.8 22.4-20.1c13.9-5.3 27-4.5 29.4 1.8 2.4 6.2-6.9 15.9-20.9 21zm226.8-12c-10.3 0-36.1 1.2-37.4-23-1.5-28.1 25.9-34 35.8-36.7.3-.1 1.3-.3 1.2-1s-1.3-.6-1.5-.6c-2.7.2-19.7 3.1-27.4-4.1-7.4-6.9-6.3-20.6-6.7-26.5 0-.1-.1-1.3-.8-1.3s-.8 1-.8 1.2c-1.2 34.1-27.9 51-42.3 39.7-12.6-9.9-5.1-39.1 28.6-51.1 0 0 1-.4.8-1s-.9-.4-1.2-.3c-3.6.8-16.8 5.2-22.5.7-6.5-5.1-4.5-18.1-4.2-22.5 0-.3 0-1.1-.5-1.1s-.7.6-.8.8c-3.6 24.7-18.4 40-31.4 42.7-26.6 5.6-10.5-33.3 19.2-48.3.9-.4 1-.8.8-1.2-.3-.5-1.2-.1-1.3-.1-5.1 2.1-25.3 12.4-20.7-4.3 5.8-20.7 18.8-32.9 29.8-41.8.4-.3.6-.6.4-1-.2-.3-.6-.2-1 .1-2.6 1.7-18.6 14.4-17.6 1.4.9-11.5 11.6-26.6 18.9-34.9.2-.2.2-.3 0-.4-.1-.1-.3-.1-.5.1-1.9 2.1-11.7 11-10.1 3.5 1.6-7.3 4.8-13.9 10.5-23.2.1-.2.2-.3 0-.4-.1-.1-.2 0-.4.2-1 1.2-4.3 5.6-5.6 5.6-.9 0 .1-4.1.5-5.8 0 0 .1-.2 0-.2s-.1.1-.2.2c-2.9 9.5-6.9 16.4-11.4 22.8-.1.2-.2.3-.1.3.1.1.2 0 .3-.1.7-.8 9.7-13.3 2.6 5.3-2.5 6.4-7.1 14-15.9 24.7-.2.3-.4.5-.2.7s.4.1.8-.3c1.1-1 12.5-14.8 8 1-4.3 15.1-14.4 26.9-27.7 39.3-.2.2-.7.6-.3 1 .3.4.8 0 1-.1 2.9-2.2 18.4-15.8 15.5.3-3.1 17.9-21.9 30.7-31.5 37.6-.1.1-.6.4-.4.9.3.6 1.1.1 1 .1-.1.1 3.8-2 6.1-3.2 17.9-9.6 17 11.6 2.9 24.6-19.1 17.6-41.3 20.2-29.8-2 .2-.4.2-.7-.1-.9-.5-.2-.8.5-.8.4.1-.2-3.7 7.4-9.1 14.2-10.6 13.3-27.1 19.4-29.8 20.7-.1.1-.6.3-.4.7.2.5.6.4.8.3 25.9-10.3 22.3 9.8 2.2 22.1-13.5 8.3-42.9 13.3-28.9-5.5.3-.4.3-.6 0-.8-.4-.2-.6 0-.8.2-.4.4-7.6 9.2-14.3 13.3-12.3 7.5-24.2 10-29.7 11.5-.4.1-.7.3-.6.6.1.4.5.3.7.3 20.4-3.7 22.7 3.7 14.1 11-9.6 8.2-28.5 10.9-39.4 12.5-.2 0-.6.2-.6.5 0 .5.5.5.7.5 4.3.2 20.7-1.5 22.9 4.4 1.6 4.2-1.9 9.7-3.3 12.3-.1.3-.8 1.2-.2 1.6s1.2-.4 1.4-.6c8.7-9.2 22.7-20.1 42.7-20.8 21.1-.8 18.9 12.7 16.4 20.7 0 0-.5 1.1.2 1.4.6.3 1.2-.5 1.3-.7 4.9-8.1 16.4-24.5 39.7-24.9 23.1-.4 19.4 18.5 18.8 25.5 0 .3 0 1.1.7 1.2.5.1.8-.2 1-.6 3.1-7.5 13.1-29.2 39-28.9 20.1.3 19 18.3 19.4 29.7 0 .2 0 1.3.8 1.4.9 0 1-.9 1.1-1.1 1.5-8 7.8-36.7 36.2-33.4 21.1 2.4 21.3 20.9 22 35 0 .4.2 1 .8 1 .8 0 .9-.7.9-.9.5-3.5 1.9-24.4 13.2-32.6 9.3-6.7 21.4-7.1 28.7-8.2.1 0 1.2-.1 1.2-.9-.1-.6-1.4-.5-1.4-.5z" fill="#21a8df"/><path d="m200.3 404.1c-1.4 12.2-11.7 21.6-24.3 21.6-13.5 0-24.4-10.9-24.4-24.4 0-10.3 6.4-19.1 15.5-22.7.2-1.3.4-2.7.4-4.1 0-.4 0-.8 0-1.2-12 3.7-20.7 14.8-20.7 28 0 16.2 13.1 29.3 29.3 29.3 15 0 27.3-11.2 29.1-25.7-1.7-.1-3.3-.4-4.9-.8" fill="#f5b200"/><path d="m174.7 377h1.3c11.8 0 21.6 8.3 23.9 19.3 1.6.6 3.4 1 5.2 1.2-1.9-14.4-14.2-25.4-29.1-25.4-.4 0-.9 0-1.3 0 .1.8.1 1.6.1 2.4 0 .9 0 1.7-.1 2.5" fill="#f5b200"/><path d="m145.4 401.4c0-.8.1-1.7.1-2.5-.4 0-.9 0-1.3 0-13.5 0-24.4-10.9-24.4-24.4s10.9-24.4 24.4-24.4 24.4 10.9 24.4 24.4c0 10.3-6.4 19.1-15.5 22.7-.2 1.3-.4 2.7-.4 4.1v1.2c12-3.7 20.7-14.8 20.7-28 0-16.2-13.1-29.3-29.3-29.3s-29.3 13.1-29.3 29.3 13.1 29.3 29.3 29.3h1.3c.1-.8 0-1.6 0-2.4" fill="#0073ba"/><path d="m183.5 371.8c1.4-12.2 11.7-21.6 24.3-21.6 13.5 0 24.4 10.9 24.4 24.4 0 10.3-6.4 19.1-15.5 22.7-.2 1.3-.4 2.7-.4 4.1v1.2c12-3.7 20.7-14.8 20.7-28 0-16.2-13.1-29.3-29.3-29.3-15 0-27.3 11.2-29.1 25.7 1.8.1 3.4.4 4.9.8"/><path d="m209 401.4c0-.8 0-1.7.1-2.5-.4 0-.9 0-1.3 0-11.8 0-21.6-8.3-23.9-19.3-1.6-.6-3.4-1-5.2-1.2 1.9 14.4 14.2 25.4 29.1 25.4h1.3c-.1-.8-.1-1.6-.1-2.4"/><path d="m263.8 404.1c-1.4 12.2-11.7 21.6-24.3 21.6-13.5 0-24.4-10.9-24.4-24.4 0-10.3 6.4-19.1 15.5-22.7.2-1.3.4-2.7.4-4.1 0-.4 0-.8 0-1.2-12 3.7-20.7 14.8-20.7 28 0 16.2 13.1 29.3 29.3 29.3 15 0 27.3-11.2 29.1-25.7-1.7-.1-3.3-.4-4.9-.8" fill="#009931"/><path d="m238.4 374.6c0 .8 0 1.7-.1 2.5h1.3c11.7 0 21.6 8.3 23.9 19.3 1.6.6 3.4 1 5.2 1.2-1.9-14.4-14.2-25.4-29-25.4-.4 0-.9 0-1.3 0-.1.7 0 1.5 0 2.4" fill="#009931"/><path d="m271.3 345.3c-15 0-27.3 11.2-29.1 25.7 1.7.1 3.3.4 4.8.8 1.4-12.2 11.7-21.6 24.3-21.6 13.5 0 24.4 10.9 24.4 24.4s-10.9 24.4-24.4 24.4c-11.8 0-21.6-8.3-23.9-19.3-1.6-.6-3.4-1-5.2-1.2 1.9 14.3 14.2 25.4 29.1 25.4 16.2 0 29.3-13.1 29.3-29.3.1-16.2-13.1-29.3-29.3-29.3" fill="#e0001a"/><path d="m20.5 297.8h-9.8v21.8c0 1.6-.8 2.3-2.3 2.3s-2.3-.1-2.7-.2c-.8-.2-1.2-1-1.2-2.1v-21.8h-2.1c-1.6 0-2.4-.8-2.4-2.5s.8-2.6 2.4-2.6h2.2v-5.6c0-1.5.8-2.3 2.3-2.3 1.4 0 2.4.1 2.7.2.8.3 1.2 1 1.2 2.1v5.6h9.8c1.6 0 2.4.9 2.4 2.8-.1 1.6-.9 2.3-2.5 2.3"/><path d="m255.3 310.2h12c7.4 0 11.6-2.1 12.7-6.2l.3-3.4v-.5c0-2.1-.9-3.8-2.8-5.1-1.5-1.1-3.3-1.8-5.4-2.2-1.5-.3-19.2-.3-22.4-.3-1.5 0-2.3.8-2.3 2.3 0 .8.1 1.5.3 2 .3.5.8 1 2 1 3.6 0 17.9.1 19.1.1 3.3.3 5.1 1.1 5.1 2.1v2.5c0 1.1-1.6 1.6-2.6 1.9-1.4.3-2.9.5-4.3.5h-11.7c-3.4 0-6.1.4-8.2 1.3-3.3 1.3-4.9 3.4-4.9 6.3v7.5c0 1.5.9 2.4 2.3 2.4h33.2c1.6 0 2.4-1 2.4-2.7s-.9-2.6-2.4-2.6c0 0-28.4 0-29.4 0 0-.8 0-4.6 0-4.6.1-1.9 3.8-2.3 7-2.3"/><path d="m294.6 300.9c0-1.4.8-2.3 2.7-2.8.9-.2 2.4-.4 4.8-.4h8.4c5 0 7.5 1.1 7.5 3.2v13c0 1.4-.9 2.3-2.7 2.7-1 .2-2.6.4-4.8.4h-8.4c-3.4 0-7.6-.5-7.6-3v-13.1m15.9-8.4h-8.2c-9.2 0-13.9 2.8-13.9 8.3l-.1 7.1c-.1 2.9-.1 5.2 0 7 .1 5 4.8 7.5 14 7.5h8.2c9.2 0 13.9-2.8 13.9-8.3v-13.3c0-5.5-4.7-8.3-13.9-8.3z"/><path d="m339.3 300.9c0-1.4.8-2.3 2.7-2.8.9-.2 2.4-.4 4.9-.4h8.4c5 0 7.6 1.1 7.6 3.2v13c0 1.4-.9 2.3-2.7 2.7-1 .2-2.6.4-4.8.4h-8.4c-5 0-7.6-1-7.6-3v-13.1m15.7-8.4h-8.2c-9.2 0-13.9 2.8-13.9 8.3l-.1 7.1v7c.1 5 4.9 7.5 14 7.5h8.2c9.2 0 13.9-2.8 13.9-8.3v-13.3c0-5.5-4.7-8.3-13.9-8.3z"/><path d="m404 317.1h-13.9c-1.5 0-3-.2-4.3-.7-1.7-.6-2.6-1.3-2.6-2.3 0 0 0-4.8 0-5.6h19.9c1.6 0 3.1.2 4.5.6 1.7.5 2.6 1.2 2.6 2.2v3.3c0 .8-.7 1.5-2.2 2-1.2.3-2.5.5-4 .5m7.4-12.5c-2.2-.9-5-1.4-8.4-1.4 0 0-18.9 0-19.8 0 0-.7 0-2.9 0-2.9 0-1.7 2.3-2.5 6.9-2.5h16.3c1 0 1.7-.3 2-1 .2-.5.3-1.1.3-2 0-1.5-.8-2.3-2.3-2.3h-1.9c-.9-.1-10.6-.1-12.5-.1-9.9 0-15 2.7-15 7.9v13.8c0 .7.1 1.5.4 2.4.2.8.9 1.8 2 2.9 2 2 5.5 3 10.7 3h14c3 0 5.6-.5 7.9-1.5 3-1.4 4.5-3.5 4.5-6.3v-3.4c-.1-3.1-1.8-5.3-5.1-6.6z"/><path d="m60.3 302.5c0-2.2-2.6-3.3-7.6-3.3h-10.1c-1.9 0-3.5.2-5 .7-2.1.7-3.1 1.7-3.1 3.1v10.3c0 1.4 1.1 2.3 3.2 3 1.5.4 3.1.6 5 .6h10c1.7 0 3.2-.2 4.6-.7 2-.7 3-1.6 3-2.9zm1.5 17.9c-2.4 1.1-5.4 1.7-8.9 1.7h-10.3c-3.5 0-6.6-.6-9.2-1.7-3.4-1.5-5.2-3.8-5.2-7v-10.4c0-3.1 1.7-5.5 5.2-7.1 2.6-1.3 5.7-1.8 9.2-1.8h10.3c9.1 0 13.7 2.9 13.7 8.9v10.3c0 3.2-1.6 5.6-4.8 7.1z"/><path d="m92.6 299.2c-.2 0-.6-.1-1.2-.1s-1.1 0-1.5 0c-4.7 0-7.1 1.1-7.1 3.5v17c0 1.2-.4 1.9-1.3 2.2-.4.1-1.2.2-2.7.2-1.6 0-2.3-.8-2.3-2.3l.1-17c0-5.8 5.3-8.7 16-8.7 1.5 0 2.3 1 2.3 2.9 0 1.5-.8 2.3-2.3 2.3"/><path d="m160.5 322c-1.4 0-2.3-.1-2.7-.2-.8-.3-1.3-1-1.3-2.2v-17.9c0-1.3-1-2.1-3.2-2.5-.7-.1-2.3-.1-4.6-.1h-10.1c-2.4 0-4 0-4.7.1-2.2.4-3.2 1.2-3.2 2.6v17.8c0 1.5-.8 2.3-2.4 2.3-1.4 0-2.3-.1-2.6-.2-.8-.3-1.3-1-1.3-2.2v-17.7c0-5.3 4.8-7.9 14.2-7.9h10.1c9.4 0 14.1 2.6 14.1 7.9v17.8c-.1 1.6-.8 2.4-2.3 2.4"/><path d="m204.8 302.5c0-2.2-2.6-3.3-7.6-3.3h-10.1c-1.9 0-3.5.2-5 .7-2.1.7-3.1 1.7-3.1 3.1v10.3c0 1.4 1.1 2.3 3.2 2.9 1.4.4 3.1.6 5 .6h10c1.7 0 3.2-.2 4.6-.7 2-.7 3-1.6 3-2.9zm1.5 17.8c-2.4 1.1-5.4 1.7-8.9 1.7h-10.4c-3.6 0-6.6-.6-9.2-1.7-3.4-1.5-5.2-3.8-5.2-7v-10.3c0-3.1 1.7-5.5 5.2-7.1 2.6-1.3 5.7-1.8 9.2-1.8h10.3c9.1 0 13.7 2.9 13.7 8.9v10.3c0 3.2-1.5 5.6-4.7 7z"/><path d="m112 319.6v-21.3c0-1.1-.4-1.8-1.2-2.1-.3-.1-1.2-.2-2.6-.2-1.5 0-2.3.8-2.3 2.3v21.3c0 1.1.4 1.9 1.2 2.1.4.2 1.2.2 2.6.2 1.6 0 2.3-.7 2.3-2.3m.9-29.6c0-1-.4-1.8-1.3-2.4-.8-.5-1.7-.8-2.8-.8-1.2 0-2.1.2-2.8.8-.8.6-1.2 1.4-1.2 2.4s.4 1.7 1.3 2.3c.7.6 1.6.8 2.8.8 1.1 0 2-.2 2.8-.8.7-.5 1.2-1.3 1.2-2.3z"/></svg>