<?xml version="1.0" encoding="UTF-8"?>
<!-- Generator: Adobe Illustrator 15.0.0, SVG Export Plug-In . SVG Version: 6.00 Build 0)  -->
<!DOCTYPE svg PUBLIC "-//W3C//DTD SVG 1.1//EN" "http://www.w3.org/Graphics/SVG/1.1/DTD/svg11.dtd">
<svg version="1.1" id="Layer_1" xmlns="http://www.w3.org/2000/svg" xmlns:xlink="http://www.w3.org/1999/xlink" x="0px" y="0px" width="154.667px" height="190.686px" viewBox="0 0 154.667 190.686" enable-background="new 0 0 154.667 190.686" xml:space="preserve">
<polygon fill="#231F20" points="3.094,129.653 5.723,136.788 8.376,129.653 10.616,129.653 6.162,140.54 4.726,140.54   0.587,129.653 "/>
<path fill="#231F20" d="M17.9,137.885c-0.487,0.339-1.266,0.923-2.214,0.923c-0.925,0-1.802-0.366-1.802-1.438  c0-1.166,1.096-1.678,2.506-1.801l1.51-0.118V137.885z M17.924,139.417c-0.024,0.241,0.073,0.658,0.22,0.95h2.726  c-0.171-0.315-0.367-1.118-0.39-1.68v-6.112c0-1.875-1.314-3.166-3.772-3.166c-2.216,0-3.725,0.731-4.383,1.046l0.608,1.389  c0.51-0.218,1.534-0.704,2.996-0.704c1.655,0,1.971,0.948,1.971,1.899v0.898l-2.264,0.098c-2.702,0.147-4.163,1.754-4.163,3.605  c0,1.776,1.267,2.972,3.312,2.972C16.317,140.612,17.364,139.831,17.924,139.417"/>
<path fill="#231F20" d="M30.392,140.367v-7.085c0-1.071-0.437-1.851-1.704-1.851c-1.217,0-2.239,0.732-2.726,1.044v7.892h-2.606  v-10.714h2.485l0.072,1.121c0.488-0.393,1.655-1.365,3.821-1.365c2.095,0,3.263,1.314,3.263,3.289v7.669H30.392z"/>
<path fill="#231F20" d="M41.055,129.409c2.094,0,3.066,0.416,3.65,0.659l-0.56,1.631c-0.56-0.221-1.24-0.51-2.75-0.51  c-1.412,0-3.237,1.263-3.237,3.819c0,2.411,1.825,3.824,3.237,3.824c1.51,0,2.215-0.294,2.8-0.488l0.607,1.585  c-0.559,0.291-1.582,0.683-3.773,0.683c-3.456,0-5.671-2.293-5.671-5.604C35.359,131.625,38.109,129.409,41.055,129.409"/>
<path fill="#231F20" d="M51.96,131.139c1.679,0,2.995,1.654,2.995,3.869c0,2.217-1.316,3.873-2.995,3.873  c-1.826,0-3.019-1.656-3.019-3.873C48.942,132.769,49.988,131.139,51.96,131.139 M51.96,129.409c-3.262,0-5.817,2.166-5.817,5.6  c0,3.434,2.556,5.604,5.817,5.604c3.285,0,5.842-2.17,5.842-5.604C57.802,131.575,55.246,129.409,51.96,129.409"/>
<path fill="#231F20" d="M62.792,129.653v7.085c0,1.072,0.367,1.852,1.607,1.852c1.193,0,2.143-0.704,2.604-1.048v-7.889h2.605  v10.714h-2.483l-0.071-1.118c-0.487,0.388-1.754,1.363-3.774,1.363c-2.068,0-3.116-1.295-3.116-3.29v-7.669H62.792z"/>
<polygon fill="#231F20" points="73.989,129.653 76.618,136.788 79.272,129.653 81.511,129.653 77.056,140.54 75.621,140.54   71.482,129.653 "/>
<path fill="#231F20" d="M89.314,133.673H84.81c0.171-1.393,0.878-2.511,2.288-2.511C88.39,131.163,89.193,132.064,89.314,133.673   M84.762,135.278h7.327c0-4.115-2.287-5.869-4.918-5.869c-2.896,0-5.186,2.435-5.186,5.7c0,3.43,2.094,5.503,5.381,5.503  c2.651,0,3.674-0.61,4.309-0.904l-0.586-1.437c-0.485,0.222-1.264,0.562-2.943,0.562C85.882,138.833,84.762,137.468,84.762,135.278"/>
<path fill="#231F20" d="M94.425,140.367v-10.714h2.436l0.098,1.778c0.39-0.51,1.51-2.022,2.918-2.022  c0.928,0,1.511,0.416,1.854,0.659l-0.998,1.851c-0.293-0.22-0.682-0.393-1.363-0.393c-1.07,0-1.947,1.127-2.336,1.513v7.328H94.425z  "/>
<path fill="#231F20" d="M113.814,137.681l0.211-0.157c1.172-0.861,3.611-2.665,3.611-4.789c0-2.063-1.813-3.562-4.316-3.562  c-1.941,0-3.412,0.684-4.041,0.978l-0.154,0.073l0.679,1.428l0.149-0.069c0.424-0.195,1.41-0.65,3.07-0.65  c1.512,0,2.189,1.01,2.189,2.013c0,1.669-2.342,3.435-3.34,4.188l-0.166,0.122c0,0.002-2.961,2.294-2.961,2.294l0.602,1.033h8.506  l0.497-1.919h-5.778C113.018,138.311,113.814,137.681,113.814,137.681"/>
<path fill="#231F20" d="M126.451,129.173c-3.433,0-5.832,2.385-5.832,5.807c0,3.432,2.399,5.831,5.832,5.831  c3.42,0,5.809-2.399,5.809-5.831C132.257,131.558,129.871,129.173,126.451,129.173 M126.451,139.188  c-1.615,0-3.361-1.61-3.361-4.208c0-2.505,1.354-4.187,3.361-4.187c1.631,0,3.315,1.567,3.315,4.187  C129.766,137.34,128.309,139.188,126.451,139.188"/>
<path fill="#231F20" d="M133.603,130.733l0.158,1.075c0,0,2.757-0.118,3.07-0.132v8.906h2.285V129.19l-0.215,0.058L133.603,130.733z  "/>
<path fill="#231F20" d="M148.142,129.173c-3.434,0-5.83,2.385-5.83,5.807c0,3.432,2.396,5.831,5.83,5.831  c3.421,0,5.809-2.399,5.809-5.831C153.951,131.558,151.563,129.173,148.142,129.173 M148.142,139.188  c-1.615,0-3.359-1.61-3.359-4.208c0-2.505,1.35-4.187,3.359-4.187c1.859,0,3.314,1.839,3.314,4.187  C151.458,137.34,150.001,139.188,148.142,139.188"/>
<path fill="#004B8D" d="M16.85,38.982c10.022,0.706,98.625,0.729,109.131,0.034c0,0,2.009-0.116,2.685-0.312  c4.81-1.171,2.069-9.771-3.535-11.186c-1.017-0.244-2.838-0.401-2.838-0.401c-9.756-0.793-84.585-2.36-93.52-1.942  c-1.235,0.049-2.171,0.221-2.171,0.221c-5.975,1.026-15.15,11.083-12.375,13.068C14.227,38.464,14.581,38.871,16.85,38.982"/>
<path fill="#7398C5" d="M48.753,71.484c4.371,1.029,44.359-0.919,49.293-2.384c0,0,0.258-0.056,0.568-0.228  c0.202-0.095,0.286-0.184,0.438-0.312c2.021-2.033-2.218-21.669-5.06-23.475c-0.502-0.305-0.961-0.441-0.961-0.441  c-4.004-1.298-39.891-0.789-43.869,0.606c0,0-0.604,0.185-1.101,0.67c-2.509,2.696-2.871,22.101-0.49,24.933  C47.574,70.854,47.98,71.326,48.753,71.484"/>
<path fill="#ED2924" d="M68.122,76.705c1.304,4.438,2.339,35.689,1.191,38.225c-0.138,0.403-0.337,0.57-0.337,0.57  c-1.636,2.115-22.103,1.743-23.905-0.411c-0.197-0.19-0.234-0.552-0.234-0.552c-0.231-2.126,7.814-32.97,9.586-36.917  c0.37-0.809,0.65-1.059,0.65-1.059c1.935-1.971,11.901-2.722,12.666-0.89C67.739,75.671,67.869,75.883,68.122,76.705"/>
<path fill="#FBAF33" d="M109.292,113.407c-2.77,1.984-28.932,2.666-31.529,0.788c-0.482-0.335-0.7-0.79-0.7-0.79  c-1.827-3.521-3.626-31.059-2.359-35.422c0.182-0.733,0.604-1.184,0.604-1.184c1.888-1.896,19.25-2.267,21.289-0.326  c0,0,0.441,0.42,0.593,0.64c2.243,3.112,12.409,31.946,12.515,35.458C109.703,112.57,109.751,113.068,109.292,113.407"/>
<path fill="#00A551" d="M64.523,20.113c1.093,1,14.118,1.761,16.044,0.952c0.302-0.127,0.487-0.451,0.487-0.451  c0.314-0.553,0.677-2.362,1.002-4.649l-9.833-2.731l10.237-0.465c0.527-4.741,0.834-9.973,0.41-10.759  c-0.086-0.159-0.233-0.287-0.233-0.287C81.587,0.665,66.51,0.534,64.75,1.526C64.426,1.708,64.299,2,64.299,2  c-0.934,1.956-1.002,16.464-0.041,17.803C64.258,19.803,64.414,20.012,64.523,20.113"/>
<polygon fill="#231F20" points="98.181,118.499 99.808,118.499 99.808,118.729 99.132,118.729 99.132,120.793 98.852,120.793   98.852,118.729 98.181,118.729 "/>
<polygon fill="#231F20" points="102.48,118.499 102.525,120.793 102.246,120.793 102.22,119.085 101.548,120.817 101.376,120.817   100.73,119.144 100.68,120.793 100.435,120.793 100.511,118.499 100.775,118.501 101.492,120.367 102.21,118.499 "/>
<polygon fill="#231F20" points="104.419,118.316 104.578,118.416 103.335,120.99 103.169,120.893 "/>
<polygon fill="#231F20" points="107.257,118.499 107.3,120.793 107.022,120.793 106.998,119.085 106.328,120.817 106.153,120.817   105.505,119.144 105.457,120.793 105.212,120.793 105.289,118.499 105.55,118.501 106.27,120.367 106.988,118.499 "/>
<path fill="#231F20" d="M109.748,120.695c-0.14,0.103-0.34,0.214-0.731,0.214c-0.655,0-1.048-0.615-1.048-1.225  c0-0.608,0.393-1.226,1.048-1.226c0.415,0,0.599,0.122,0.687,0.179l-0.08,0.227c-0.07-0.036-0.26-0.16-0.594-0.16  c-0.42,0-0.76,0.429-0.76,0.98c0,0.555,0.355,0.979,0.792,0.979c0.349,0,0.497-0.107,0.585-0.168L109.748,120.695z"/>
<path fill="#004B8D" d="M36.631,166.059c0-7.098,5.752-12.852,12.847-12.852c7.096,0,12.847,5.754,12.847,12.852  c0,7.096-5.751,12.851-12.847,12.851C42.383,178.91,36.631,173.155,36.631,166.059 M49.478,176.763  c5.911,0,10.701-4.791,10.701-10.704c0-5.909-4.79-10.705-10.701-10.705c-5.908,0-10.7,4.796-10.7,10.705  C38.778,171.972,43.57,176.763,49.478,176.763"/>
<path fill="#004B8D" d="M64.471,166.059c0-7.098,5.751-12.852,12.847-12.852c7.092,0,12.844,5.754,12.844,12.852  c0,7.096-5.752,12.851-12.844,12.851C70.222,178.91,64.471,173.155,64.471,166.059 M77.318,176.763  c5.907,0,10.696-4.791,10.696-10.704c0-5.909-4.789-10.705-10.696-10.705c-5.911,0-10.701,4.796-10.701,10.705  C66.617,171.972,71.407,176.763,77.318,176.763"/>
<path fill="#004B8D" d="M50.549,177.841c0-7.101,5.754-12.852,12.849-12.852c7.095,0,12.845,5.751,12.845,12.852  c0,7.096-5.75,12.845-12.845,12.845C56.303,190.686,50.549,184.937,50.549,177.841 M63.398,188.543  c5.908,0,10.701-4.792,10.701-10.702c0-5.91-4.793-10.711-10.701-10.711c-5.911,0-10.701,4.801-10.701,10.711  C52.697,183.751,57.487,188.543,63.398,188.543"/>
<path fill="#004B8D" d="M78.386,177.841c0-7.101,5.755-12.852,12.848-12.852c7.096,0,12.848,5.751,12.848,12.852  c0,7.096-5.752,12.845-12.848,12.845C84.141,190.686,78.386,184.937,78.386,177.841 M91.234,188.543  c5.909,0,10.703-4.792,10.703-10.702c0-5.91-4.794-10.711-10.703-10.711c-5.91,0-10.701,4.801-10.701,10.711  C80.533,183.751,85.324,188.543,91.234,188.543"/>
<path fill="#004B8D" d="M92.308,166.059c0-7.098,5.751-12.852,12.846-12.852c7.098,0,12.848,5.754,12.848,12.852  c0,7.096-5.75,12.851-12.848,12.851C98.059,178.91,92.308,173.155,92.308,166.059 M105.154,176.763  c5.911,0,10.701-4.791,10.701-10.704c0-5.909-4.79-10.705-10.701-10.705c-5.91,0-10.701,4.796-10.701,10.705  C94.453,171.972,99.244,176.763,105.154,176.763"/>
</svg>