<?xml version="1.0" encoding="UTF-8"?>
<!-- Generator: Adobe Illustrator 14.0.0, SVG Export Plug-In . SVG Version: 6.00 Build 43363)  -->
<!DOCTYPE svg PUBLIC "-//W3C//DTD SVG 1.0//EN" "http://www.w3.org/TR/2001/REC-SVG-20010904/DTD/svg10.dtd">
<svg version="1.0" id="Layer_1" xmlns="http://www.w3.org/2000/svg" xmlns:xlink="http://www.w3.org/1999/xlink" x="0px" y="0px" width="608.4px" height="270.6px" viewBox="0 0 608.4 270.6" enable-background="new 0 0 608.4 270.6" xml:space="preserve">
<path fill="#006AB3" d="M112.1,129.2h25.1c19.2,0,29.8-10.6,29.8-29.8V65.8c0-19.2-10.6-29.8-29.8-29.8h-25.1  c-19.2,0-29.8,10.6-29.8,29.8v33.6C82.3,118.6,92.9,129.2,112.1,129.2 M117.1,69.2h15.3V96h-15.3V69.2z M117.1,69.2 M179.2,65.8  v33.6c0,19.2,10.6,29.8,29.8,29.8h29.9V96h-25V69.2h25V36H209C189.8,36,179.2,46.6,179.2,65.8 M301,129.2h34.7V65.8  c0-19.2-10.6-29.8-29.8-29.8h-18.5V7.4h-34.8v121.8h34.8v-60H301V129.2z M46.8,69.2h23.3V36H30.9C13.1,36,6.7,44.9,6.7,56.3  c0,7.7,2.2,13.8,7.3,19.7l17.4,20H8.2v33.2h39.2c17.9,0,24.3-8.9,24.3-20.3c0-7.6-2.2-13.8-7.4-19.7L46.8,69.2z M349.4,129.2h34.7  V36h-34.7V129.2z M349.4,129.2 M349.4,202.9h-13.7v-60H301v63.4c0,19.2,10.6,29.8,29.8,29.8h18.6v28.6h34.7V142.9h-34.7V202.9z   M209.1,142.9H184c-19.1,0-29.8,10.6-29.8,29.8v33.6c0,19.2,10.6,29.8,29.8,29.8h25.1c19.2,0,29.8-10.7,29.8-29.8v-33.6  C238.9,153.5,228.3,142.9,209.1,142.9 M204.2,202.9h-15.3v-26.8h15.3V202.9z M204.2,202.9 M143.5,163.2c0-11.5-6.4-20.3-24.2-20.3  H80.1v33.2h23.4l-17.4,20c-5.2,5.9-7.4,12-7.4,19.7c0,11.5,6.4,20.3,24.2,20.3h39.2v-33.3h-23.3l17.4-20  C141.3,177,143.5,170.8,143.5,163.2 M252.6,236.1h34.8v-93.2h-34.8V236.1z M252.6,236.1"/>
<path fill="#006AB3" d="M446.1,65.8v63.4h34.7v-60h22.5V36H476C456.8,36,446.1,46.6,446.1,65.8 M496.5,42.9v19.3l-22.6,0v60h-20.8  V65.8c0-8.4,2.3-13.7,5.7-17.2c3.4-3.4,8.8-5.7,17.2-5.7H496.5z M397.7,129.2h34.7V96h-34.7V129.2z M397.7,129.2 M404.7,103h20.8  v19.3h-20.8V103z M404.7,103 M565.5,36v60h-13.6V36h-34.8v63.4c0,19.2,10.6,29.8,29.8,29.8h23.5c19.2,0,29.8-10.6,29.8-29.8V36  H565.5z M593.3,99.4c0,8.4-2.2,13.7-5.7,17.2c-3.4,3.4-8.8,5.6-17.2,5.7h-23.5c-8.4,0-13.7-2.3-17.2-5.7c-3.4-3.5-5.6-8.8-5.7-17.2  V42.9h20.8v60h27.6v-60h20.8V99.4z"/>
<path fill="#006AB3" d="M431.1,206.7c-0.5,0-1,0.1-1.5,0.1c-17.7,0-31.9-14.3-31.9-31.9c0-17.6,14.2-31.9,31.9-31.9  c17.6,0,31.9,14.3,31.9,31.9c0,14.3-9.3,26.3-22.3,30.4c0-0.5-0.2-4.5,0.5-5.8c9.7-4,16.5-13.5,16.5-24.6  c0-14.7-11.9-26.7-26.6-26.7c-14.7,0-26.7,11.9-26.7,26.7c0,14.7,11.9,26.7,26.7,26.7c0.5,0,0.9,0,1.4-0.1  C430.9,203.1,430.8,205.7,431.1,206.7"/>
<path d="M498.9,142.9c-16.3,0-29.8,12.2-31.7,28c1.1-0.1,4.7,0.7,5.2,0.9c1.5-13.3,12.8-23.6,26.5-23.6c14.7,0,26.7,11.9,26.7,26.7  c0,11.2-6.9,20.7-16.6,24.7c-0.2,1.3-0.6,2.8-0.4,5.7c12.9-4.1,22.3-16.2,22.3-30.4C530.9,157.2,516.6,142.9,498.9,142.9   M500.4,201.5c-0.5,0.1-1,0.1-1.5,0.1c-12.7,0-23.3-8.9-26-20.9c-1.9-0.8-4.6-1.3-5.6-1.3c2.2,15.5,15.5,27.4,31.6,27.4  c0.5,0,1,0,1.5-0.1C500.1,204,500.3,202.4,500.4,201.5"/>
<path fill="#E42343" d="M542.3,180.7c2.7,11.9,13.3,20.8,26,20.8c14.7,0,26.7-11.9,26.7-26.7c0-14.7-11.9-26.7-26.7-26.7  c-13.7,0-25,10.3-26.5,23.7c-0.9-0.4-4.1-0.9-5.2-0.9c1.9-15.8,15.4-28,31.7-28c17.6,0,31.9,14.3,31.9,31.9  c0,17.6-14.3,31.9-31.9,31.9c-16.1,0-29.4-11.9-31.6-27.4C537.7,179.4,540.4,179.9,542.3,180.7"/>
<path fill="#F9B41D" d="M464.3,177.5c12.7,0,23.3,8.9,26,20.8c1.3,0.6,4.6,1.4,5.6,1.4c-2.2-15.5-15.5-27.5-31.6-27.5  c-0.5,0-1,0-1.4,0c0.1,1.2,0.2,4,0,5.3C463.4,177.5,463.8,177.5,464.3,177.5 M490.8,207.2c-1.5,13.3-12.8,23.6-26.5,23.6  c-14.7,0-26.7-11.9-26.7-26.7c0-11.2,6.9-20.7,16.6-24.7c0.4-2.2,0.5-4.5,0.4-5.8c-12.9,4.1-22.3,16.2-22.3,30.4  c0,17.6,14.3,31.9,31.9,31.9c16.3,0,29.8-12.2,31.7-28.1C494.8,208,492.1,207.6,490.8,207.2"/>
<path fill="#008B45" d="M560.1,207.2c-1.5,13.3-12.8,23.6-26.5,23.6c-14.7,0-26.7-11.9-26.7-26.7c0-11.1,6.9-20.7,16.6-24.7  c0.3-0.9,0.6-4.3,0.4-5.8c-12.9,4.1-22.2,16.2-22.2,30.4c0,17.6,14.3,31.9,31.9,31.9c16.3,0,29.8-12.2,31.7-28.1  C563.6,208,560.8,207.4,560.1,207.2 M532.2,177.5c0.5,0,0.9,0,1.4,0c12.7,0,23.4,8.9,26,20.8c1.1,0.5,3.9,1.2,5.6,1.4  c-2.2-15.5-15.5-27.5-31.6-27.5c-0.5,0-0.9,0-1.4,0C532.3,173.6,532.3,176.2,532.2,177.5z"/>
</svg>