<?xml version="1.0" encoding="UTF-8"?>
<!-- Generator: Adobe Illustrator 23.0.1, SVG Export Plug-In . SVG Version: 6.00 Build 0)  -->
<svg version="1.1" id="Livello_1" xmlns:cc="http://creativecommons.org/ns#" xmlns:dc="http://purl.org/dc/elements/1.1/" xmlns:rdf="http://www.w3.org/1999/02/22-rdf-syntax-ns#" xmlns="http://www.w3.org/2000/svg" xmlns:xlink="http://www.w3.org/1999/xlink" x="0px" y="0px" width="300.5px" height="300px" viewBox="0 0 300.5 300" enable-background="new 0 0 300.5 300" xml:space="preserve">
<g>
	<g>
		<g>
			<rect x="68.8" y="72.1" width="9.3" height="71.6"/>
			<rect x="141.5" y="72.1" fill="#00A651" width="9.3" height="71.6"/>
		</g>
		<g>
			<rect x="49.7" y="53.9" fill="#0081C8" width="120.1" height="9.9"/>
			<rect x="49.7" y="151.9" fill="#EE334E" width="120.1" height="9.9"/>
		</g>
		<g>
			<polygon points="208,0 208,41.6 212,47.1 216,41.6 216,0    "/>
			<polygon fill="#FCB131" points="165.9,36.4 205.5,49.2 212,47.1 208,41.6 168.4,28.8    "/>
			<polygon fill="#EE334E" points="187.5,87.6 212,53.9 212,47.1 205.5,49.2 181,82.9    "/>
			<polygon fill="#0081C8" points="242.9,82.9 218.5,49.2 212,47.1 212,53.9 236.5,87.6    "/>
			<polygon fill="#00A651" points="255.6,28.8 216,41.6 212,47.1 218.5,49.2 258.1,36.4    "/>
		</g>
	</g>
	<g>
		<path d="M0,191.5h9.3c2.8,0,4.9,0.6,6.4,1.9c1.5,1.3,2.3,3.2,2.3,5.7c0,1.3-0.2,2.5-0.6,3.5c-0.4,1-1,1.9-1.8,2.6    c-0.8,0.7-1.7,1.2-2.7,1.6c-1,0.4-2.1,0.5-3.3,0.5H4.9v8.4H0V191.5z M8.4,203.2c1.5,0,2.6-0.4,3.5-1.1c0.8-0.7,1.2-1.6,1.2-2.8    c0-1.3-0.4-2.2-1.2-2.7c-0.8-0.6-1.9-0.9-3.4-0.9H4.9v7.5H8.4z"/>
		<path d="M23.1,223.4c-0.6,0-2.3-0.1-3-0.4l1-3.8c0.3,0.1,1.3,0.1,1.5,0.1c0.8,0,1.5-0.2,2-0.6c0.5-0.4,1-1,1.3-1.8l0.8-1.7    l-7.5-17.4h5.5l4.7,12.1l4.2-12.1h5.3l-8.2,19.8c-0.4,1.1-0.9,2-1.5,2.8c-0.6,0.7-1.2,1.3-1.8,1.8c-0.6,0.5-1.3,0.8-2,1    C24.5,223.3,23.8,223.4,23.1,223.4z"/>
		<path d="M47.8,216.3c-1.4,0-2.8-0.2-3.9-0.6c-1.2-0.4-2.2-1-3-1.8c-0.8-0.8-1.4-1.8-1.9-2.9c-0.4-1.1-0.7-2.4-0.7-3.8v-0.7    c0-1.5,0.2-2.9,0.7-4c0.5-1.2,1.2-2.1,2-2.9c0.8-0.8,1.7-1.3,2.8-1.7c1-0.4,2.1-0.6,3.3-0.6c2.6,0,4.6,0.8,6,2.3    c1.5,1.5,2.2,3.6,2.2,6.4v2.4H43.6c0.1,0.6,0.2,1.2,0.5,1.6c0.3,0.4,0.6,0.8,1.1,1.1c0.4,0.3,0.9,0.5,1.4,0.6    c0.5,0.1,1,0.2,1.4,0.2c1.3,0,2.4-0.2,3.4-0.5c1-0.3,1.8-0.7,2.3-1.1L55,214c-0.3,0.3-0.7,0.5-1.2,0.8c-0.5,0.3-1,0.5-1.7,0.7    c-0.6,0.2-1.3,0.4-2,0.5C49.4,216.2,48.6,216.3,47.8,216.3z M47.2,201.4c-0.3,0-0.7,0-1.1,0.1c-0.4,0.1-0.8,0.3-1.1,0.5    c-0.4,0.2-0.7,0.6-0.9,1c-0.3,0.4-0.4,0.9-0.5,1.6h7.1c0-0.6-0.1-1.1-0.3-1.5c-0.2-0.4-0.5-0.7-0.8-1c-0.3-0.3-0.7-0.4-1.1-0.6    C48,201.5,47.6,201.4,47.2,201.4z"/>
		<path d="M66.9,216.3c-1.3,0-2.6-0.2-3.7-0.6c-1.1-0.4-2.1-1-2.9-1.8c-0.8-0.8-1.5-1.8-1.9-2.9c-0.5-1.1-0.7-2.4-0.7-3.8v-0.5    c0-1.5,0.3-2.8,0.8-4c0.5-1.2,1.2-2.2,2.1-3c0.9-0.8,1.9-1.4,3-1.9c1.1-0.4,2.3-0.6,3.5-0.6c1.3,0,2.5,0.2,3.7,0.6    c1.1,0.4,2.1,1,3,1.8c0.8,0.8,1.5,1.8,2,2.9c0.5,1.1,0.7,2.4,0.7,3.8v0.5c0,1.5-0.3,2.8-0.8,4c-0.5,1.2-1.2,2.2-2.1,3    c-0.9,0.8-1.9,1.4-3,1.9C69.2,216.1,68.1,216.3,66.9,216.3z M67,212.2c0.5,0,1-0.1,1.5-0.3c0.5-0.2,0.9-0.5,1.3-0.9    c0.4-0.4,0.7-0.9,0.9-1.6c0.2-0.6,0.3-1.4,0.3-2.3v-0.9c0-0.9-0.1-1.6-0.4-2.3c-0.2-0.6-0.6-1.1-1-1.5c-0.4-0.4-0.8-0.7-1.4-0.8    c-0.5-0.2-1-0.3-1.6-0.3s-1,0.1-1.5,0.3c-0.5,0.2-0.9,0.5-1.3,0.9c-0.4,0.4-0.7,0.9-0.9,1.5c-0.2,0.6-0.4,1.4-0.4,2.2v0.9    c0,0.9,0.1,1.7,0.4,2.4c0.3,0.6,0.6,1.2,1,1.6c0.4,0.4,0.9,0.7,1.4,0.8C66,212.1,66.5,212.2,67,212.2z"/>
		<path d="M78.8,197.8h4.7v2.1c0.4-0.4,0.8-0.8,1.2-1.1c0.4-0.3,0.9-0.6,1.4-0.8c0.5-0.2,1-0.3,1.6-0.4c0.5-0.1,1.1-0.1,1.6-0.1    c0.9,0,1.7,0.1,2.5,0.4c0.8,0.3,1.4,0.7,2,1.2c0.6,0.6,1,1.2,1.4,2c0.3,0.8,0.5,1.7,0.5,2.8v11.7h-4.9v-10.8    c0-0.8-0.3-1.6-0.9-2.1c-0.6-0.6-1.4-0.9-2.6-0.9c-0.3,0-0.6,0.1-1,0.1c-0.4,0.1-0.7,0.2-1,0.4c-0.3,0.2-0.7,0.4-1,0.7    c-0.3,0.3-0.6,0.6-0.8,1v11.7h-4.8V197.8z"/>
		<path d="M106.6,219c0.6,0,1.1-0.1,1.6-0.3c0.5-0.2,1-0.4,1.4-0.8c0.4-0.3,0.7-0.7,1-1.3c0.2-0.5,0.4-1.1,0.4-1.8v-1.7    c-0.4,0.7-1.2,1.2-2.2,1.6c-1,0.4-2.1,0.6-3.3,0.6c-1.1,0-2.1-0.2-3.1-0.7c-0.9-0.5-1.7-1.1-2.4-1.9c-0.7-0.8-1.2-1.7-1.5-2.7    c-0.4-1-0.5-2.2-0.5-3.4v-1.3c0-1.1,0.2-2.1,0.6-3.1c0.4-1,0.9-1.9,1.6-2.7c0.7-0.8,1.5-1.4,2.4-1.9c0.9-0.5,1.9-0.7,3.1-0.7    c1.1,0,2.1,0.1,3.1,0.4c1,0.3,1.8,0.8,2.2,1.4v-1.5h4.8v16.5c0,1.5-0.2,2.8-0.7,4c-0.4,1.1-1.1,2.1-1.8,2.8    c-0.8,0.7-1.8,1.3-2.9,1.7c-1.1,0.4-2.4,0.6-3.8,0.6c-1.7,0-3.2-0.1-4.5-0.4c-1.3-0.3-2.3-0.7-3.1-1.2l1.3-4    c0.3,0.2,0.6,0.3,1.1,0.5c0.4,0.2,0.9,0.3,1.5,0.4c0.5,0.1,1.1,0.2,1.8,0.3C105.3,219,105.9,219,106.6,219z M107.1,201.7    c-0.6,0-1.2,0.1-1.7,0.3c-0.5,0.2-0.9,0.5-1.3,1c-0.4,0.4-0.6,0.9-0.8,1.4c-0.2,0.5-0.3,1.1-0.3,1.7v0.7c0,1.5,0.4,2.6,1.1,3.4    c0.8,0.8,1.7,1.2,2.9,1.2c0.9,0,1.7-0.2,2.4-0.7c0.7-0.5,1.2-1.1,1.5-2V204c-0.3-0.7-0.8-1.3-1.5-1.7    C108.7,201.9,107.9,201.7,107.1,201.7z"/>
		<path d="M130.8,216.1c-1.6,0-3.1-0.3-4.5-0.9c-1.4-0.6-2.7-1.4-3.7-2.5c-1.1-1.1-1.9-2.4-2.5-3.9c-0.6-1.5-0.9-3.2-0.9-5v-1.1    c0-2,0.3-3.8,1-5.2c0.7-1.5,1.6-2.7,2.7-3.7c1.1-1,2.4-1.7,3.9-2.1c1.5-0.5,2.9-0.7,4.5-0.7c0.6,0,1.3,0.1,1.9,0.1    c0.7,0.1,1.3,0.2,2,0.4c0.6,0.2,1.2,0.4,1.8,0.6c0.5,0.2,1,0.5,1.4,0.7l-1.6,4.1c-0.6-0.5-1.4-0.9-2.4-1.2c-1-0.3-1.9-0.4-2.8-0.4    c-0.9,0-1.8,0.1-2.7,0.4c-0.9,0.3-1.6,0.7-2.3,1.3c-0.7,0.6-1.2,1.3-1.6,2.2c-0.4,0.9-0.6,2-0.6,3.2v1.1c0,1.1,0.2,2.1,0.5,3.1    c0.4,1,0.9,1.8,1.5,2.5c0.6,0.7,1.4,1.3,2.2,1.7c0.9,0.4,1.8,0.6,2.8,0.6c0.4,0,0.9,0,1.4-0.1c0.6-0.1,1.1-0.2,1.7-0.3    c0.6-0.1,1.1-0.3,1.6-0.5c0.5-0.2,0.9-0.5,1.3-0.7l1.3,4.1c-0.4,0.3-0.9,0.6-1.5,0.9c-0.6,0.3-1.3,0.5-2,0.7    c-0.7,0.2-1.5,0.3-2.2,0.4C132.3,216.1,131.6,216.1,130.8,216.1z"/>
		<path d="M141.5,189.9h4.8v9.8c0.4-0.4,0.8-0.7,1.2-1c0.5-0.3,1-0.5,1.5-0.7c0.5-0.2,1-0.3,1.6-0.4c0.5-0.1,1-0.1,1.6-0.1    c0.8,0,1.6,0.1,2.4,0.4c0.8,0.3,1.4,0.7,2,1.2c0.6,0.6,1.1,1.2,1.4,2.1c0.4,0.8,0.5,1.8,0.5,2.9v11.6h-4.8v-10.5    c0-0.9-0.3-1.7-0.9-2.4c-0.6-0.6-1.4-0.9-2.6-0.9c-0.3,0-0.6,0-1,0.1c-0.4,0.1-0.8,0.2-1.1,0.4c-0.4,0.2-0.7,0.4-1.1,0.6    c-0.3,0.3-0.6,0.6-0.7,0.9v11.7h-4.8V189.9z"/>
		<path d="M178.5,215.7h-4.3l-0.4-2c-0.3,0.4-1.3,1.2-2.3,1.5c-1,0.3-2.1,0.4-3.3,0.4c-1.1,0-2.1-0.2-3.1-0.6    c-0.9-0.4-1.7-1-2.4-1.8c-0.7-0.8-1.2-1.7-1.5-2.7c-0.4-1-0.5-2.2-0.5-3.4v-1.2c0-1.1,0.2-2.1,0.6-3.1c0.4-1,1-1.9,1.7-2.7    c0.7-0.8,1.6-1.4,2.5-1.9c1-0.5,2-0.7,3.1-0.7c1.1,0,2.1,0.1,3,0.4c0.9,0.3,1.6,0.7,2.2,1.4v-1.4h4.8V215.7z M169.8,201.5    c-0.6,0-1.2,0.1-1.7,0.4c-0.5,0.2-1,0.6-1.3,1c-0.4,0.4-0.6,0.9-0.9,1.4c-0.2,0.5-0.3,1.1-0.3,1.7v0.9c0,0.7,0.1,1.4,0.3,1.9    c0.2,0.6,0.5,1,0.9,1.4c0.4,0.4,0.8,0.7,1.3,0.9c0.5,0.2,1.1,0.3,1.7,0.3c0.9,0,1.7-0.2,2.4-0.6c0.7-0.4,1.2-1,1.5-1.6v-5.6    c-0.3-0.7-0.8-1.3-1.5-1.6C171.4,201.7,170.6,201.5,169.8,201.5z"/>
		<path d="M182.1,197.8h4.7v2.1c0.4-0.4,0.8-0.8,1.2-1.1c0.4-0.3,0.9-0.6,1.4-0.8c0.5-0.2,1-0.3,1.6-0.4c0.5-0.1,1.1-0.1,1.6-0.1    c0.9,0,1.7,0.1,2.5,0.4c0.8,0.3,1.4,0.7,2,1.2c0.6,0.6,1,1.2,1.4,2c0.3,0.8,0.5,1.7,0.5,2.8v11.7H194v-10.8c0-0.8-0.3-1.6-0.9-2.1    c-0.6-0.6-1.4-0.9-2.6-0.9c-0.3,0-0.6,0.1-1,0.1c-0.4,0.1-0.7,0.2-1,0.4c-0.3,0.2-0.7,0.4-1,0.7c-0.3,0.3-0.6,0.6-0.8,1v11.7h-4.8    V197.8z"/>
		<path d="M209.8,219c0.6,0,1.1-0.1,1.6-0.3c0.5-0.2,1-0.4,1.4-0.8c0.4-0.3,0.7-0.7,1-1.3c0.2-0.5,0.4-1.1,0.4-1.8v-1.7    c-0.4,0.7-1.2,1.2-2.2,1.6c-1,0.4-2.1,0.6-3.3,0.6c-1.1,0-2.1-0.2-3.1-0.7c-0.9-0.5-1.7-1.1-2.4-1.9c-0.7-0.8-1.2-1.7-1.5-2.7    c-0.4-1-0.5-2.2-0.5-3.4v-1.3c0-1.1,0.2-2.1,0.6-3.1c0.4-1,0.9-1.9,1.6-2.7c0.7-0.8,1.5-1.4,2.4-1.9c0.9-0.5,2-0.7,3.1-0.7    c1.1,0,2.1,0.1,3.1,0.4c1,0.3,1.8,0.8,2.2,1.4v-1.5h4.8v16.5c0,1.5-0.2,2.8-0.7,4c-0.4,1.1-1.1,2.1-1.8,2.8    c-0.8,0.7-1.8,1.3-2.9,1.7c-1.1,0.4-2.4,0.6-3.8,0.6c-1.7,0-3.2-0.1-4.5-0.4c-1.3-0.3-2.3-0.7-3.1-1.2l1.3-4    c0.3,0.2,0.6,0.3,1.1,0.5c0.4,0.2,0.9,0.3,1.5,0.4c0.5,0.1,1.1,0.2,1.8,0.3C208.6,219,209.2,219,209.8,219z M210.4,201.7    c-0.6,0-1.2,0.1-1.7,0.3c-0.5,0.2-0.9,0.5-1.3,1c-0.4,0.4-0.6,0.9-0.8,1.4c-0.2,0.5-0.3,1.1-0.3,1.7v0.7c0,1.5,0.4,2.6,1.1,3.4    c0.8,0.8,1.7,1.2,2.9,1.2c0.9,0,1.7-0.2,2.4-0.7c0.7-0.5,1.2-1.1,1.5-2V204c-0.3-0.7-0.8-1.3-1.5-1.7    C212,201.9,211.2,201.7,210.4,201.7z"/>
		<path d="M226.9,213.7l8.2-8.6c0.7-0.8,1.2-1.4,1.7-2c0.5-0.6,0.8-1.1,1.1-1.5c0.3-0.5,0.5-0.9,0.6-1.4c0.1-0.4,0.2-0.9,0.2-1.4    c0-1.2-0.2-2.2-0.8-2.9c-0.6-0.7-1.6-1.1-3-1.1c-0.9,0-1.7,0.3-2.4,0.9c-0.7,0.6-1.2,1.6-1.6,2.9l-4-1.5c0.3-1.2,0.7-2.2,1.3-3    c0.6-0.8,1.3-1.5,2.1-2c0.8-0.5,1.6-0.9,2.4-1.1c0.8-0.2,1.6-0.3,2.3-0.3c2.7,0,4.9,0.7,6.4,2c1.6,1.3,2.3,3.2,2.3,5.6    c0,0.7-0.1,1.4-0.3,2.1c-0.2,0.7-0.5,1.4-0.9,2.1c-0.4,0.7-0.9,1.4-1.4,2.1c-0.5,0.7-1.1,1.4-1.7,2.1l-4.3,4.6h9.1v4.4h-17.2    V213.7z"/>
		<path d="M256.3,216.2c-1.4,0-2.6-0.2-3.8-0.7c-1.2-0.4-2.2-1.1-3-2c-0.9-0.9-1.5-2-2-3.4c-0.5-1.4-0.7-3-0.7-4.9v-3.1    c0-2.1,0.3-3.9,0.8-5.4c0.5-1.4,1.2-2.6,2.1-3.5c0.9-0.9,1.9-1.6,3.1-2c1.2-0.4,2.4-0.6,3.7-0.6c1.3,0,2.5,0.2,3.7,0.6    c1.2,0.4,2.2,1.1,3.1,2c0.9,0.9,1.6,2.1,2.1,3.5c0.5,1.4,0.8,3.2,0.8,5.2v3c0,2-0.3,3.7-0.8,5.1c-0.5,1.4-1.3,2.6-2.2,3.5    c-0.9,0.9-1.9,1.5-3.1,2C258.8,216,257.6,216.2,256.3,216.2z M256.4,211.8c1.5,0,2.6-0.6,3.3-1.7c0.7-1.2,1-2.8,1-5v-3.2    c0-2.2-0.4-3.9-1.1-5.1c-0.7-1.1-1.8-1.7-3.2-1.7c-1.5,0-2.6,0.6-3.3,1.7c-0.7,1.1-1,2.8-1,5v3.2c0,2.2,0.3,3.8,1,5    C253.8,211.2,254.9,211.8,256.4,211.8z"/>
		<path d="M273,196.7l-4.8,1v-3.6l7.4-3.3h2.6v25.1H273V196.7z"/>
		<path d="M283.1,197.3c0-1,0.2-1.9,0.6-2.7c0.4-0.8,1-1.5,1.7-2.1c0.7-0.6,1.6-1,2.6-1.4c1-0.3,2.1-0.5,3.3-0.5    c1.2,0,2.3,0.2,3.3,0.5c1,0.3,1.9,0.8,2.6,1.4c0.7,0.6,1.3,1.3,1.7,2.1c0.4,0.8,0.6,1.7,0.6,2.7c0,1.1-0.3,2.2-0.8,3.1    c-0.6,0.9-1.3,1.7-2.3,2.3c1.3,0.6,2.3,1.5,3,2.6c0.8,1.1,1.1,2.3,1.1,3.7c0,1.1-0.2,2.1-0.7,3c-0.5,0.9-1.1,1.7-1.9,2.3    c-0.8,0.6-1.8,1.2-2.9,1.5c-1.1,0.4-2.4,0.5-3.7,0.5c-1.3,0-2.6-0.2-3.7-0.5c-1.1-0.4-2.1-0.9-2.9-1.5c-0.8-0.6-1.4-1.4-1.9-2.3    c-0.5-0.9-0.7-1.9-0.7-3c0-1.4,0.4-2.6,1.1-3.7c0.8-1.1,1.8-1.9,3-2.6c-1-0.6-1.8-1.3-2.3-2.2    C283.4,199.4,283.1,198.4,283.1,197.3z M287.3,208.5c0,1,0.4,1.9,1.1,2.5c0.8,0.7,1.7,1,2.9,1c1.2,0,2.2-0.3,2.9-1    c0.8-0.7,1.1-1.5,1.1-2.5c0-1.1-0.4-1.9-1.1-2.6c-0.8-0.7-1.7-1-2.9-1c-1.2,0-2.2,0.3-2.9,1C287.7,206.5,287.3,207.4,287.3,208.5z     M287.9,197.6c0,0.9,0.3,1.6,0.9,2.1c0.6,0.6,1.4,0.8,2.4,0.8c1,0,1.8-0.3,2.5-0.8c0.6-0.6,0.9-1.3,0.9-2.1c0-0.8-0.3-1.5-0.9-2.1    c-0.6-0.6-1.4-0.8-2.5-0.8c-1,0-1.8,0.3-2.4,0.8C288.3,196.1,287.9,196.8,287.9,197.6z"/>
	</g>
	<g id="The_Olympic_Rings_1_">
		<path id="Blue_Ring_1_" fill="#0081C8" d="M125.2,258.8c0-11.9-9.6-21.5-21.5-21.5c-11.9,0-21.5,9.6-21.5,21.5    c0,11.9,9.6,21.5,21.5,21.5c0.6,0,1.3,0,1.9-0.1c0-0.6-0.1-1.1-0.1-1.7c0-0.6,0-1.3,0.1-1.9c-0.6,0.1-1.2,0.1-1.9,0.1    c-9.9,0-17.9-8-17.9-17.9c0-9.9,8-17.9,17.9-17.9c9.9,0,17.9,8,17.9,17.9c0,8-5.2,14.7-12.3,17c-0.1,0.9-0.2,1.8-0.2,2.7    c0,0.4,0,0.7,0,1.1C118.4,277.2,125.2,268.8,125.2,258.8z"/>
		<path id="Red_Ring_1_" fill="#EE334E" d="M218.3,258.8c0,11.9-9.6,21.5-21.5,21.5c-11.2,0-20.5-8.6-21.4-19.6    c1.3,0.1,2.5,0.4,3.7,0.8c1.3,8.6,8.7,15.2,17.7,15.2c9.9,0,17.9-8,17.9-17.9c0-9.9-8-17.9-17.9-17.9c-9.5,0-17.3,7.4-17.9,16.8    c-1.1-0.3-2.3-0.5-3.5-0.6c0.9-11.1,10.1-19.8,21.4-19.8C208.7,237.3,218.3,246.9,218.3,258.8z"/>
		<path id="Green_Ring_1_" fill="#00A651" d="M173.6,260.6c9,0,16.4,6.6,17.7,15.2c1.2,0.4,2.4,0.7,3.7,0.8    c-0.9-11-10.2-19.6-21.4-19.6c-0.6,0-1.2,0-1.9,0.1c0,0.6,0.1,1.1,0.1,1.7c0,0.6,0,1.3-0.1,1.9    C172.3,260.6,172.9,260.6,173.6,260.6z M191.4,279.6c-0.6,9.4-8.4,16.8-17.9,16.8c-9.9,0-17.9-8-17.9-17.9c0-8,5.2-14.7,12.3-17    c0.1-0.9,0.2-1.7,0.2-2.7c0-0.4,0-0.7,0-1.1c-9.3,2.4-16.1,10.8-16.1,20.8c0,11.9,9.6,21.5,21.5,21.5c11.3,0,20.5-8.7,21.4-19.8    C193.8,280.1,192.6,279.9,191.4,279.6z"/>
		<path id="Yellow_Ring_1_" fill="#FCB131" d="M125.1,260.7c0.1-0.6,0.1-1.3,0.1-1.9c0-0.6,0-1.1-0.1-1.7c0.6-0.1,1.2-0.1,1.9-0.1    c11.2,0,20.4,8.6,21.4,19.6c-1.3-0.1-2.5-0.4-3.7-0.8c-1.3-8.6-8.7-15.2-17.7-15.2C126.3,260.6,125.7,260.6,125.1,260.7z     M148.4,280.2c-0.9,11.1-10.1,19.8-21.4,19.8c-11.9,0-21.5-9.6-21.5-21.5c0-10,6.8-18.4,16.1-20.8c0,0.4,0,0.7,0,1.1    c0,0.9-0.1,1.8-0.2,2.7c-7.2,2.3-12.3,9.1-12.3,17c0,9.9,8,17.9,17.9,17.9c9.5,0,17.3-7.4,17.9-16.8    C146,279.9,147.2,280.1,148.4,280.2z"/>
		<path id="Black_Ring_1_" d="M150.3,237.3c-11.3,0-20.6,8.7-21.4,19.8c1.2,0.1,2.4,0.3,3.5,0.6c0.6-9.4,8.4-16.8,17.9-16.8    c9.9,0,17.9,8,17.9,17.9c0,8-5.2,14.7-12.3,17c-0.1,0.9-0.2,1.8-0.2,2.7c0,0.4,0,0.7,0,1.1c9.3-2.4,16.1-10.8,16.1-20.8    C171.8,246.9,162.1,237.3,150.3,237.3z M150.3,276.7c-9,0-16.4-6.6-17.7-15.2c-1.2-0.4-2.4-0.6-3.7-0.8c1,11,10.2,19.6,21.4,19.6    c0.6,0,1.2,0,1.9-0.1c0-0.6-0.1-1.1-0.1-1.7c0-0.6,0-1.3,0.1-1.9C151.5,276.7,150.9,276.7,150.3,276.7z"/>
	</g>
</g>
</svg>