<?xml version="1.0" encoding="UTF-8" standalone="no"?>
<svg xmlns:dc="http://purl.org/dc/elements/1.1/" xmlns:cc="http://creativecommons.org/ns#" xmlns:rdf="http://www.w3.org/1999/02/22-rdf-syntax-ns#" xmlns:svg="http://www.w3.org/2000/svg" xmlns="http://www.w3.org/2000/svg" xmlns:sodipodi="http://sodipodi.sourceforge.net/DTD/sodipodi-0.dtd" xmlns:inkscape="http://www.inkscape.org/namespaces/inkscape" height="344.317713" viewBox="0 0 324.77 385.02" width="290.429438" version="1.1" id="svg1091" sodipodi:docname="2022_Winter_Olympics_official_logo (1).svg" inkscape:version="0.92.4 (5da689c313, 2019-01-14)">
  <metadata id="metadata1097">
    <rdf:RDF>
      <cc:Work rdf:about="">
        <dc:format>image/svg+xml</dc:format>
        <dc:type rdf:resource="http://purl.org/dc/dcmitype/StillImage"/>
        <dc:title/>
      </cc:Work>
    </rdf:RDF>
  </metadata>
  <defs id="defs1095">
    <mask height="28" width="28" y="12" x="44" maskUnits="userSpaceOnUse" id="mask1">
      <path id="path1150" d="M 44.5703,12.5713 H 71.9516 V 39.9997 H 44.5703 Z" inkscape:connector-curvature="0" style="clip-rule:evenodd;fill:#ffffff;fill-rule:evenodd"/>
    </mask>
    <mask height="28" width="29" y="12" x="14" maskUnits="userSpaceOnUse" id="mask2">
      <path id="path1157" d="M 14.8564,12.5718 H 42.2403 V 39.9999 H 14.8564 Z" inkscape:connector-curvature="0" style="clip-rule:evenodd;fill:#ffffff;fill-rule:evenodd"/>
    </mask>
    <mask height="28" width="28" y="0" x="59" maskUnits="userSpaceOnUse" id="mask3">
      <path id="path1164" d="M 59.4648,0 H 86.853 V 27.4284 H 59.4648 Z" inkscape:connector-curvature="0" style="clip-rule:evenodd;fill:#ffffff;fill-rule:evenodd"/>
    </mask>
    <mask height="28" width="29" y="0" x="29" maskUnits="userSpaceOnUse" id="mask4">
      <path id="path1171" d="M 29.7549,0 H 57.1404 V 27.4284 H 29.7549 Z" inkscape:connector-curvature="0" style="clip-rule:evenodd;fill:#ffffff;fill-rule:evenodd"/>
    </mask>
    <mask height="28" width="28" y="0" x="0" maskUnits="userSpaceOnUse" id="mask5">
      <path id="path1178" d="M 0,0 H 27.4272 V 27.4284 H 0 Z" inkscape:connector-curvature="0" style="clip-rule:evenodd;fill:#ffffff;fill-rule:evenodd"/>
    </mask>
  </defs>
  <linearGradient id="a" gradientUnits="userSpaceOnUse" x1="104.78" x2="216.95" y1="97.31" y2="58.47">
    <stop offset="0" stop-color="#fccf00" id="stop957"/>
    <stop offset=".13" stop-color="#faca01" id="stop959"/>
    <stop offset=".27" stop-color="#f6bb04" id="stop961"/>
    <stop offset=".44" stop-color="#eea309" id="stop963"/>
    <stop offset=".61" stop-color="#e38210" id="stop965"/>
    <stop offset=".79" stop-color="#d5561a" id="stop967"/>
    <stop offset=".97" stop-color="#c42225" id="stop969"/>
    <stop offset="1" stop-color="#c11827" id="stop971"/>
  </linearGradient>
  <linearGradient id="b" gradientUnits="userSpaceOnUse" x1="51.32" x2="261.18" y1="98.7" y2="97.61">
    <stop offset="0" stop-color="#1c50a1" id="stop974"/>
    <stop offset=".1" stop-color="#1957a7" id="stop976"/>
    <stop offset=".25" stop-color="#116ab6" id="stop978"/>
    <stop offset=".42" stop-color="#0488d0" id="stop980"/>
    <stop offset=".46" stop-color="#0091d7" id="stop982"/>
    <stop offset=".52" stop-color="#1d9edc" id="stop984"/>
    <stop offset=".64" stop-color="#50b4e6" id="stop986"/>
    <stop offset=".75" stop-color="#78c6ed" id="stop988"/>
    <stop offset=".85" stop-color="#95d3f3" id="stop990"/>
    <stop offset=".94" stop-color="#a7daf6" id="stop992"/>
    <stop offset="1" stop-color="#adddf7" id="stop994"/>
  </linearGradient>
  <linearGradient id="c" gradientUnits="userSpaceOnUse" x1="199.68" x2="78.88" y1="117.29" y2="124.68">
    <stop offset="0" stop-color="#6ec8f2" id="stop997"/>
    <stop offset=".12" stop-color="#6fc8ef" id="stop999"/>
    <stop offset=".2" stop-color="#72c8e6" id="stop1001"/>
    <stop offset=".27" stop-color="#77c8d6" id="stop1003"/>
    <stop offset=".34" stop-color="#7dc8c0" id="stop1005"/>
    <stop offset=".4" stop-color="#86c8a3" id="stop1007"/>
    <stop offset=".43" stop-color="#8bc894" id="stop1009"/>
    <stop offset=".52" stop-color="#a1c978" id="stop1011"/>
    <stop offset=".75" stop-color="#d2cc37" id="stop1013"/>
    <stop offset=".91" stop-color="#f0ce0f" id="stop1015"/>
    <stop offset="1" stop-color="#fccf00" id="stop1017"/>
  </linearGradient>
  <linearGradient id="d" gradientUnits="userSpaceOnUse" x1="59.11" x2="161.87" y1="105.38" y2="99.64">
    <stop offset="0" stop-color="#1c50a1" id="stop1020"/>
    <stop offset=".54" stop-color="#00aeeb" id="stop1022"/>
    <stop offset=".63" stop-color="#37bced" id="stop1024"/>
    <stop offset=".72" stop-color="#6ccaef" id="stop1026"/>
    <stop offset=".81" stop-color="#95d6f0" id="stop1028"/>
    <stop offset=".89" stop-color="#b3ddf1" id="stop1030"/>
    <stop offset=".95" stop-color="#c5e2f2" id="stop1032"/>
    <stop offset="1" stop-color="#cce4f2" id="stop1034"/>
  </linearGradient>
  <path d="m51.41 116.1 12.51 14.67s99.72-85.14 190.87-73.86l-.06-.73c-.48-.21-14.38-4.4-37.66-4.4-36.92 0-97.46 10.55-165.66 64.32" fill="url(#a)" id="path1037"/>
  <path d="m260.59 65.5c-5.73 15.58-27.62 13-57.34 10.49-16.3-1.39-34.94-2.79-54.57-1.2-51.63 4.21-97.27 41.31-97.27 41.31l12.51 14.67s23.69-20.28 59.4-31.5c18.87-5.92 44.43-2.55 67.36.81 21.21 3.11 40.17 6.23 49.54 2 9.18-5 19.17-21.3 20.79-36.6h-.42" fill="url(#b)" id="path1039"/>
  <path d="m69.1 130.61c41.09-16.21 85.24.71 85.24.71l35.3-12.5a141.41 141.41 0 0 0 -49-8.92c-39.76 0-66.95 17.61-71.57 20.71" fill="url(#c)" id="path1041"/>
  <path d="m104 147.16c40.54-28.75 86.4-28.34 86.4-28.34-44.97 19.18-61.94 50.18-61.94 50.18l-24.46-21.85" fill="#3aaddd" id="path1043"/>
  <path d="m187.24 42c-20.6-1.56-41.93-.1-56.42 1.28-39.12 25.48-61.82 58.06-61.82 58.06 60.93-49.65 118.24-59.34 118.24-59.34" fill="#1f4b95" id="path1045"/>
  <path d="m173.56 22.44a136.24 136.24 0 0 0 -35.83-3.63 235.19 235.19 0 0 0 -24.86 26.6s7-1.09 17.95-2.12c14.49-1.38 35.82-2.84 56.42-1.28z" fill="#c11827" id="path1047"/>
  <path d="m99.19 25.81 13.68 19.6a235.19 235.19 0 0 1 24.86-26.6c7.76-7 16.68-14 25.79-18.81 0 0-41.47 7.16-64.33 25.81" fill="#1f4b95" id="path1049"/>
  <path d="m169.53 210.46c-51.43-24.46-65.53-63.31-65.53-63.31 27.18 21.75 85.36 41.92 85.36 41.92s-15.12 23.61-19.81 21.39" fill="#1f4b95" id="path1051"/>
  <path d="m156.75 74.29c-2.68.12-5.39.28-8.12.5-45.8 3.71-86.92 33.41-95.56 40l-1.66 1.3 12.51 14.67c1-.86 40.83-34.57 92.81-56.46" fill="url(#d)" opacity=".5" id="path1053"/>
  <path d="m60.07 255.31-1.9-5.56a54.06 54.06 0 0 0 -12 .05c.62-1.81 1.36-3.84 2.3-6.37a74.06 74.06 0 0 1 14.25-.78l-1.72-5.8a114.75 114.75 0 0 0 -16.11 0v.05a1.76 1.76 0 0 0 -.7.11 201.32 201.32 0 0 0 -9.44 26.87l4.05 5.94h2.6c7.8-.06 8.51-.27 17.71-1l-2-6.19a59.69 59.69 0 0 1 -14.5.85c.54-2.7 1-4.82 1.49-6.72a95.32 95.32 0 0 1 15.97-1.45z" id="path1067"/>
  <path d="m28 249.13a11.3 11.3 0 0 0 4.63-6.28l-1.8-5.68a.61.61 0 0 0 -.05.12v-.12a51.76 51.76 0 0 0 -30.78-.38l4.31 6.35a39.79 39.79 0 0 1 5.59-1.56 186.67 186.67 0 0 0 -8.64 27.8c28.44 4.24 32.13-11.89 32.13-11.89l-1.91-5.66a8.27 8.27 0 0 0 -3.48-2.7zm-17.11 13.47c1.26-5.24 3.33-13.08 6.31-21.85a48.74 48.74 0 0 1 10.41.83c-4.51 4.17-11.18 5.42-11.18 5.42l1.9 5.65s6.66 0 11 3c-4.53 6.02-12.59 7.03-18.44 6.95z" id="path1069"/>
  <path d="m78.84 236.79h-6.66a184.94 184.94 0 0 0 -11 33h8.15a230.69 230.69 0 0 1 9.51-33z" id="path1071"/>
  <path d="m100.75 236.79a184.94 184.94 0 0 0 -11 33h8.15a232.27 232.27 0 0 1 9.55-33z" id="path1073"/>
  <path d="m133.44 236.79a188.46 188.46 0 0 0 -7.63 20.42 91.42 91.42 0 0 1 -4.4-20.42h-6.66a185.34 185.34 0 0 0 -11 33h8.15s1.55-8 4.92-19.21a95 95 0 0 0 5.61 19.21h8.15a232.27 232.27 0 0 1 9.55-33z" id="path1075"/>
  <path d="m306.18 261c-4.72-1.84-10.37-1.95-15.74-1.31a80.61 80.61 0 0 0 10.22-14.69l-2.32-7c-5.67-1.34-15.29-1-22.86 3.2l2.32 6.9a35.15 35.15 0 0 1 15.08-3.73c-2.3 3.9-7.31 10.05-18.19 18l-2.53-2.4a30.53 30.53 0 0 0 -11.93-1.6 81.74 81.74 0 0 0 10.31-15.52l-2.3-6.92c-5.7-1.21-15-1-22.48 3.36l2.48 7s7.1-4.64 15.25-4.71c-2.28 4.28-7.83 11.58-21.37 21.28l-.2.09 5.69 8.13a48.65 48.65 0 0 1 23.68-6.32l-.14.05 5.52 8.25s19.54-11.67 38.78-5.11z" id="path1077"/>
  <path d="m239.43 239.33s-7.12-2.27-7.12-2.27a29.75 29.75 0 0 0 -13.81 9.19c-5.55 6.67-5.59 12.48-4.23 16.66l-1.47-1.44a30.44 30.44 0 0 0 -12-1.76 83.2 83.2 0 0 0 10.71-15.64l-2.32-6.92a34.87 34.87 0 0 0 -23 3.6l2.34 6.91c2.3-1.54 9.47-3.91 15.63-4.4-2.43 4.29-8.14 11.4-21.5 20.71l-.18.08 5 7.37.56.83s13-7.76 27.9-5.66a16.58 16.58 0 0 0 2.48 3.11l7.7 2.33a22.64 22.64 0 0 0 13.88-9.19c10-15.1-.57-23.51-.57-23.51zm-6.65 21.15a31.39 31.39 0 0 1 -9.44 7c-2.29-4.63-4.24-12.14 1.75-19.12a31.06 31.06 0 0 1 9.65-7c2.03 4.72 3.76 12.33-1.96 19.12z" id="path1079"/>
  <path d="m84.73 236.79s-4.13 15.21-9.61 32.15c-1.86 5.78-4.61 9.28-7.8 10.52a9.15 9.15 0 0 1 -4.95.24l8.26 3.2c8.51-1.33 11-7.94 12.8-12.67 2-5.29 9.46-33.44 9.46-33.44z" id="path1081"/>
  <path d="m168.41 243.64-2.27-6.88c-20.79-.17-30.18 13.19-29.57 24.76a14.68 14.68 0 0 0 .45 3l3.17 4.65c3.41 2.15 9.05 1.2 16.14-3-1.81 3.24-4.4 6.13-8 6.93.21 0 5.7 2.82 7 2.24a22 22 0 0 0 11.91-17.39l-7.44-2.83v.05c-4.66 7.31-14.33 10.1-17.4 8.45-4.78-2.62 4.83-20.83 26.01-19.98z" id="path1083"/>
  <g fill="#231815" id="g1089">
    <path d="m315.77 238.84h-1.77v-.64h4.32v.64h-1.78v5.16h-.76z" id="path1085"/>
    <path d="m323.88 241.47c0-.81-.09-1.8-.09-2.52-.21.68-.44 1.42-.74 2.22l-1.05 2.83h-.57l-.95-2.78c-.28-.83-.5-1.57-.67-2.27 0 .73-.06 1.7-.11 2.59l-.15 2.5h-.72l.4-5.84h1l1 2.82c.24.72.44 1.36.59 2 .15-.59.36-1.23.62-2l1-2.82h1l.37 5.84h-.81z" id="path1087"/>
  </g>
  <g id="g1155" mask="url(#mask1)" style="fill:none;stroke-width:0.49567115" transform="matrix(2.2560131,0,0,2.2560131,58.309135,294.77777)">
    <path id="path1153" d="m 69.6873,26.9896 c -0.362,5.9835 -5.3316,10.7226 -11.401,10.7226 -6.3154,0 -11.4268,-5.1149 -11.4268,-11.4277 0,-5.0702 3.2978,-9.369 7.8684,-10.8645 0.0834,-0.5563 0.1264,-1.1256 0.1264,-1.7061 0,-0.2382 -0.0086,-0.4721 -0.0198,-0.7051 -5.9052,1.5307 -10.2642,6.8941 -10.2642,13.2757 0,7.5726 6.1374,13.7151 13.716,13.7151 7.2011,0 13.1097,-5.5586 13.6653,-12.623 -0.7749,-0.0671 -1.5316,-0.1969 -2.2643,-0.387 z M 58.2868,14.8561 c 5.7264,0 10.4749,4.2197 11.2996,9.7242 0.7533,0.2442 1.541,0.4145 2.3562,0.5013 -0.6105,-7.011 -6.4933,-12.5103 -13.6558,-12.5103 -0.4015,0 -0.7971,0.018 -1.1858,0.0507 0.0249,0.3603 0.0404,0.7241 0.0404,1.0921 0,0.4059 -0.0206,0.8084 -0.0516,1.204 0.3921,-0.0413 0.7903,-0.062 1.197,-0.062 z" inkscape:connector-curvature="0" style="clip-rule:evenodd;fill:#00a651;fill-rule:evenodd;stroke-width:0.49567115"/>
  </g>
  <g id="g1162" mask="url(#mask2)" style="fill:none;stroke-width:0.49567115" transform="matrix(2.2560131,0,0,2.2560131,58.309135,294.77777)">
    <path id="path1160" d="m 42.2403,27.3762 c -0.5556,7.0653 -6.4616,12.6239 -13.6679,12.6239 -7.5769,0 -13.716,-6.1425 -13.716,-13.716 0,-6.3807 4.3599,-11.7442 10.266,-13.2748 0.0103,0.2321 0.018,0.4669 0.018,0.7042 0,0.5814 -0.0438,1.1506 -0.1264,1.707 -4.5697,1.4954 -7.8667,5.7943 -7.8667,10.8636 0,6.3128 5.1098,11.4286 11.4251,11.4286 6.072,0 11.0416,-4.7392 11.4037,-10.7226 0.73,0.1892 1.4902,0.3199 2.2642,0.3861 z M 27.3759,14.9185 c 0.0327,-0.3955 0.0534,-0.798 0.0534,-1.2047 0,-0.3672 -0.0155,-0.731 -0.0405,-1.0913 0.3887,-0.0327 0.7843,-0.0507 1.1842,-0.0507 7.1633,0 13.053,5.4993 13.6635,12.5103 -0.8204,-0.0877 -1.6106,-0.2571 -2.3622,-0.5013 -0.8247,-5.5045 -5.5741,-9.725 -11.3013,-9.725 -0.4051,0 -0.8049,0.0215 -1.1971,0.0627 z" inkscape:connector-curvature="0" style="clip-rule:evenodd;fill:#fcb131;fill-rule:evenodd;stroke-width:0.49567115"/>
  </g>
  <g id="g1169" mask="url(#mask3)" style="fill:none;stroke-width:0.49567115" transform="matrix(2.2560131,0,0,2.2560131,58.309135,294.77777)">
    <path id="path1167" d="m 86.853,13.7143 c 0,7.5743 -6.1383,13.7142 -13.7143,13.7142 -7.171,0 -13.0521,-5.4984 -13.6627,-12.5103 0.8204,0.0851 1.6055,0.2571 2.3614,0.5022 0.8221,5.5027 5.5672,9.7233 11.3013,9.7233 6.3102,0 11.4268,-5.1184 11.4268,-11.4294 0,-6.31025 -5.1166,-11.42859 -11.4268,-11.42859 -6.0772,0 -11.0433,4.73997 -11.4053,10.72429 C 60.9981,12.8208 60.2448,12.6901 59.4648,12.6221 60.0264,5.55777 65.9316,0 73.1387,0 80.7147,0 86.853,6.14081 86.853,13.7143 Z" inkscape:connector-curvature="0" style="clip-rule:evenodd;fill:#ee334e;fill-rule:evenodd;stroke-width:0.49567115"/>
  </g>
  <g id="g1176" mask="url(#mask4)" style="fill:none;stroke-width:0.49567115" transform="matrix(2.2560131,0,0,2.2560131,58.309135,294.77777)">
    <path id="path1174" d="m 43.4239,25.1439 c -5.728,0 -10.4774,-4.2206 -11.3013,-9.7233 -0.7541,-0.2451 -1.5401,-0.4171 -2.3605,-0.5022 0.6114,7.0119 6.4925,12.5104 13.6618,12.5104 0.4025,0 0.7989,-0.0164 1.1893,-0.0516 -0.0266,-0.3578 -0.043,-0.7232 -0.043,-1.0922 0,-0.405 0.0207,-0.8074 0.0542,-1.2021 -0.3947,0.0404 -0.7946,0.061 -1.2005,0.061 z M 43.4236,0 C 36.2173,0 30.313,5.55777 29.7549,12.6221 c 0.7765,0.068 1.5281,0.1987 2.2659,0.3879 0.3595,-5.98432 5.329,-10.72429 11.4028,-10.72429 6.3153,0 11.4302,5.11834 11.4302,11.42859 0,5.0693 -3.2995,9.3698 -7.8709,10.867 -0.0817,0.5538 -0.1239,1.1239 -0.1239,1.7035 0,0.2382 0.0017,0.4738 0.0181,0.7052 C 52.7814,25.4601 57.1404,20.0967 57.1404,13.7143 57.1404,6.14081 51.0022,0 43.4236,0 Z" inkscape:connector-curvature="0" style="clip-rule:evenodd;fill:#000000;fill-rule:evenodd;stroke-width:0.49567115"/>
  </g>
  <g id="g1183" mask="url(#mask5)" style="fill:none;stroke-width:0.49567115" transform="matrix(2.2560131,0,0,2.2560131,58.309135,294.77777)">
    <path id="path1181" d="M 27.4267,13.7143 C 27.4267,6.14081 21.2885,0 13.7107,0 6.13983,0 -9.76562e-4,6.14081 -9.76562e-4,13.7143 c 0,7.5743 6.140806562,13.7142 13.711676562,13.7142 0.4016,0 0.7946,-0.0163 1.1867,-0.0507 -0.0266,-0.3586 -0.043,-0.7241 -0.043,-1.093 0,-0.405 0.0215,-0.8075 0.0533,-1.2022 -0.3938,0.0404 -0.792,0.0611 -1.197,0.0611 -6.31106,0 -11.42768,-5.1184 -11.42768,-11.4294 0,-6.31025 5.11662,-11.42859 11.42768,-11.42859 6.3145,0 11.4277,5.11834 11.4277,11.42859 0,5.0702 -3.2996,9.3698 -7.8701,10.867 -0.0809,0.5538 -0.123,1.1239 -0.123,1.7035 0,0.2382 0.0017,0.4738 0.0172,0.7052 5.9052,-1.5299 10.2642,-6.8933 10.2642,-13.2757 z" inkscape:connector-curvature="0" style="clip-rule:evenodd;fill:#0081c8;fill-rule:evenodd;stroke-width:0.49567115"/>
  </g>
</svg>